G75*
%MOIN*%
%OFA0B0*%
%FSLAX24Y24*%
%IPPOS*%
%LPD*%
%AMOC8*
5,1,8,0,0,1.08239X$1,22.5*
%
%ADD10C,0.0160*%
%ADD11C,0.0540*%
%ADD12OC8,0.0540*%
%ADD13R,0.0312X0.0004*%
%ADD14R,0.0344X0.0004*%
%ADD15R,0.0368X0.0004*%
%ADD16R,0.0392X0.0004*%
%ADD17R,0.0408X0.0004*%
%ADD18R,0.0424X0.0004*%
%ADD19R,0.0432X0.0004*%
%ADD20R,0.0448X0.0004*%
%ADD21R,0.0456X0.0004*%
%ADD22R,0.0472X0.0004*%
%ADD23R,0.0480X0.0004*%
%ADD24R,0.0488X0.0004*%
%ADD25R,0.0496X0.0004*%
%ADD26R,0.0504X0.0004*%
%ADD27R,0.0512X0.0004*%
%ADD28R,0.0520X0.0004*%
%ADD29R,0.0528X0.0004*%
%ADD30R,0.0536X0.0004*%
%ADD31R,0.0536X0.0004*%
%ADD32R,0.0544X0.0004*%
%ADD33R,0.0552X0.0004*%
%ADD34R,0.0560X0.0004*%
%ADD35R,0.0560X0.0004*%
%ADD36R,0.0568X0.0004*%
%ADD37R,0.0576X0.0004*%
%ADD38R,0.0584X0.0004*%
%ADD39R,0.0592X0.0004*%
%ADD40R,0.0592X0.0004*%
%ADD41R,0.0600X0.0004*%
%ADD42R,0.0608X0.0004*%
%ADD43R,0.0608X0.0004*%
%ADD44R,0.0616X0.0004*%
%ADD45R,0.0624X0.0004*%
%ADD46R,0.0632X0.0004*%
%ADD47R,0.0632X0.0004*%
%ADD48R,0.0640X0.0004*%
%ADD49R,0.0648X0.0004*%
%ADD50R,0.0648X0.0004*%
%ADD51R,0.0656X0.0004*%
%ADD52R,0.0664X0.0004*%
%ADD53R,0.0664X0.0004*%
%ADD54R,0.0672X0.0004*%
%ADD55R,0.0680X0.0004*%
%ADD56R,0.0680X0.0004*%
%ADD57R,0.0688X0.0004*%
%ADD58R,0.0696X0.0004*%
%ADD59R,0.0700X0.0004*%
%ADD60R,0.0708X0.0004*%
%ADD61R,0.0716X0.0004*%
%ADD62R,0.0720X0.0004*%
%ADD63R,0.0720X0.0004*%
%ADD64R,0.0724X0.0004*%
%ADD65R,0.0808X0.0004*%
%ADD66R,0.0824X0.0004*%
%ADD67R,0.0832X0.0004*%
%ADD68R,0.0840X0.0004*%
%ADD69R,0.0848X0.0004*%
%ADD70R,0.0856X0.0004*%
%ADD71R,0.0860X0.0004*%
%ADD72R,0.0864X0.0004*%
%ADD73R,0.0864X0.0004*%
%ADD74R,0.0868X0.0004*%
%ADD75R,0.0872X0.0004*%
%ADD76R,0.0872X0.0004*%
%ADD77R,0.0860X0.0004*%
%ADD78R,0.0832X0.0004*%
%ADD79R,0.0824X0.0004*%
%ADD80R,0.0708X0.0004*%
%ADD81R,0.0712X0.0004*%
%ADD82R,0.0712X0.0004*%
%ADD83R,0.0700X0.0004*%
%ADD84R,0.0696X0.0004*%
%ADD85R,0.0692X0.0004*%
%ADD86R,0.0668X0.0004*%
%ADD87R,0.0660X0.0004*%
%ADD88R,0.0452X0.0004*%
%ADD89R,0.0188X0.0004*%
%ADD90R,0.0448X0.0004*%
%ADD91R,0.0440X0.0004*%
%ADD92R,0.0184X0.0004*%
%ADD93R,0.0432X0.0004*%
%ADD94R,0.0184X0.0004*%
%ADD95R,0.0424X0.0004*%
%ADD96R,0.0412X0.0004*%
%ADD97R,0.0128X0.0004*%
%ADD98R,0.0044X0.0004*%
%ADD99R,0.0400X0.0004*%
%ADD100R,0.0008X0.0004*%
%ADD101R,0.0388X0.0004*%
%ADD102R,0.0132X0.0004*%
%ADD103R,0.0360X0.0004*%
%ADD104R,0.0136X0.0004*%
%ADD105R,0.0340X0.0004*%
%ADD106R,0.0140X0.0004*%
%ADD107R,0.0328X0.0004*%
%ADD108R,0.0144X0.0004*%
%ADD109R,0.0324X0.0004*%
%ADD110R,0.0148X0.0004*%
%ADD111R,0.0320X0.0004*%
%ADD112R,0.0156X0.0004*%
%ADD113R,0.0316X0.0004*%
%ADD114R,0.0176X0.0004*%
%ADD115R,0.0080X0.0004*%
%ADD116R,0.0052X0.0004*%
%ADD117R,0.0380X0.0004*%
%ADD118R,0.0372X0.0004*%
%ADD119R,0.0356X0.0004*%
%ADD120R,0.0004X0.0004*%
%ADD121R,0.0308X0.0004*%
%ADD122R,0.0060X0.0004*%
%ADD123R,0.0240X0.0004*%
%ADD124R,0.0232X0.0004*%
%ADD125R,0.0044X0.0004*%
%ADD126R,0.0164X0.0004*%
%ADD127R,0.0056X0.0004*%
%ADD128R,0.0036X0.0004*%
%ADD129R,0.0156X0.0004*%
%ADD130R,0.0048X0.0004*%
%ADD131R,0.0024X0.0004*%
%ADD132R,0.0036X0.0004*%
%ADD133R,0.0016X0.0004*%
%ADD134R,0.0028X0.0004*%
%ADD135R,0.0012X0.0004*%
%ADD136R,0.0124X0.0004*%
%ADD137R,0.0108X0.0004*%
%ADD138R,0.0008X0.0004*%
%ADD139R,0.0092X0.0004*%
%ADD140R,0.0068X0.0004*%
%ADD141R,0.0008X0.0004*%
%ADD142R,0.0016X0.0004*%
%ADD143R,0.0024X0.0004*%
%ADD144R,0.0032X0.0004*%
%ADD145R,0.0032X0.0004*%
%ADD146R,0.0040X0.0004*%
%ADD147R,0.0056X0.0004*%
%ADD148R,0.0064X0.0004*%
%ADD149R,0.0072X0.0004*%
%ADD150R,0.0088X0.0004*%
%ADD151R,0.0096X0.0004*%
%ADD152R,0.0104X0.0004*%
%ADD153R,0.0112X0.0004*%
%ADD154R,0.0120X0.0004*%
%ADD155R,0.0124X0.0004*%
%ADD156R,0.0128X0.0004*%
%ADD157R,0.0144X0.0004*%
%ADD158R,0.0152X0.0004*%
%ADD159R,0.0152X0.0004*%
%ADD160R,0.0160X0.0004*%
%ADD161R,0.0168X0.0004*%
%ADD162R,0.0176X0.0004*%
%ADD163R,0.0184X0.0004*%
%ADD164R,0.0192X0.0004*%
%ADD165R,0.0200X0.0004*%
%ADD166R,0.0208X0.0004*%
%ADD167R,0.0216X0.0004*%
%ADD168R,0.0216X0.0004*%
%ADD169R,0.0224X0.0004*%
%ADD170R,0.0232X0.0004*%
%ADD171R,0.0240X0.0004*%
%ADD172R,0.0248X0.0004*%
%ADD173R,0.0256X0.0004*%
%ADD174R,0.0264X0.0004*%
%ADD175R,0.0272X0.0004*%
%ADD176R,0.0280X0.0004*%
%ADD177R,0.0288X0.0004*%
%ADD178R,0.0296X0.0004*%
%ADD179R,0.0304X0.0004*%
%ADD180R,0.0320X0.0004*%
%ADD181R,0.0328X0.0004*%
%ADD182R,0.0336X0.0004*%
%ADD183R,0.0336X0.0004*%
%ADD184R,0.0200X0.0004*%
%ADD185R,0.0128X0.0004*%
%ADD186R,0.0204X0.0004*%
%ADD187R,0.0216X0.0004*%
%ADD188R,0.0228X0.0004*%
%ADD189R,0.0416X0.0004*%
%ADD190R,0.0424X0.0004*%
%ADD191R,0.0428X0.0004*%
%ADD192R,0.0304X0.0004*%
%ADD193R,0.0180X0.0004*%
%ADD194R,0.0112X0.0004*%
%ADD195R,0.0176X0.0004*%
%ADD196R,0.0112X0.0004*%
%ADD197R,0.0132X0.0004*%
%ADD198R,0.0116X0.0004*%
%ADD199R,0.0332X0.0004*%
%ADD200R,0.0336X0.0004*%
%ADD201R,0.0480X0.0004*%
%ADD202R,0.0496X0.0004*%
%ADD203R,0.0512X0.0004*%
%ADD204R,0.0544X0.0004*%
%ADD205R,0.0208X0.0004*%
%ADD206R,0.0356X0.0004*%
%ADD207R,0.0208X0.0004*%
%ADD208R,0.0364X0.0004*%
%ADD209R,0.0212X0.0004*%
%ADD210R,0.0368X0.0004*%
%ADD211R,0.0220X0.0004*%
%ADD212R,0.0600X0.0004*%
%ADD213R,0.0356X0.0004*%
%ADD214R,0.0228X0.0004*%
%ADD215R,0.0236X0.0004*%
%ADD216R,0.0360X0.0004*%
%ADD217R,0.0368X0.0004*%
%ADD218R,0.0244X0.0004*%
%ADD219R,0.0252X0.0004*%
%ADD220R,0.0376X0.0004*%
%ADD221R,0.0672X0.0004*%
%ADD222R,0.0624X0.0004*%
%ADD223R,0.0596X0.0004*%
%ADD224R,0.0552X0.0004*%
%ADD225R,0.0456X0.0004*%
%ADD226R,0.0384X0.0004*%
%ADD227R,0.0352X0.0004*%
%ADD228R,0.0188X0.0004*%
%ADD229R,0.0108X0.0004*%
%ADD230OC8,0.1250*%
%ADD231C,0.0472*%
%ADD232R,0.0472X0.0472*%
%ADD233R,0.0512X0.0591*%
%ADD234C,0.0540*%
%ADD235C,0.0531*%
%ADD236R,0.0551X0.0394*%
%ADD237OC8,0.0600*%
%ADD238C,0.0600*%
D10*
X002057Y000848D02*
X018199Y000848D01*
X018199Y020533D01*
X002057Y020533D01*
X002057Y000848D01*
D11*
X002628Y001403D03*
X016628Y001403D03*
D12*
X016628Y002403D03*
X016628Y003403D03*
X016628Y004403D03*
X016628Y005403D03*
X016628Y006403D03*
X016628Y007403D03*
X016628Y008403D03*
X016628Y009403D03*
X016628Y010403D03*
X016628Y011403D03*
X016628Y012403D03*
X016628Y013403D03*
X016628Y014403D03*
X016628Y015403D03*
X016628Y016403D03*
X016628Y017403D03*
X016628Y018403D03*
X017628Y018403D03*
X017628Y017403D03*
X017628Y016403D03*
X017628Y015403D03*
X017628Y014403D03*
X017628Y013403D03*
X017628Y012403D03*
X017628Y011403D03*
X017628Y010403D03*
X017628Y009403D03*
X017628Y008403D03*
X017628Y007403D03*
X017628Y006403D03*
X017628Y005403D03*
X017628Y004403D03*
X017628Y003403D03*
X017628Y002403D03*
X017628Y001403D03*
X003628Y001403D03*
X003628Y002403D03*
X003628Y003403D03*
X003628Y004403D03*
X003628Y005403D03*
X003628Y006403D03*
X003628Y007403D03*
X003628Y008403D03*
X003628Y009403D03*
X003628Y010403D03*
X003628Y011403D03*
X003628Y012403D03*
X003628Y013403D03*
X003628Y014403D03*
X003628Y015403D03*
X003628Y016403D03*
X003628Y017403D03*
X003628Y018403D03*
X002628Y018403D03*
X002628Y017403D03*
X002628Y016403D03*
X002628Y015403D03*
X002628Y014403D03*
X002628Y013403D03*
X002628Y012403D03*
X002628Y011403D03*
X002628Y010403D03*
X002628Y009403D03*
X002628Y008403D03*
X002628Y007403D03*
X002628Y006403D03*
X002628Y005403D03*
X002628Y004403D03*
X002628Y003403D03*
X002628Y002403D03*
D13*
X016937Y019050D03*
X016941Y019562D03*
X016937Y019862D03*
X016937Y019866D03*
D14*
X016937Y019054D03*
D15*
X016937Y019058D03*
D16*
X016937Y019062D03*
X016913Y019546D03*
D17*
X016937Y019926D03*
X016937Y019930D03*
X016937Y020186D03*
X016937Y019066D03*
D18*
X016937Y019070D03*
D19*
X016937Y019074D03*
X016937Y019946D03*
X016937Y020182D03*
D20*
X016937Y019078D03*
D21*
X016937Y019082D03*
D22*
X016937Y019086D03*
D23*
X016937Y019090D03*
X016937Y020174D03*
D24*
X016937Y019982D03*
X016937Y019094D03*
D25*
X016937Y019098D03*
D26*
X016937Y019102D03*
X016937Y019994D03*
D27*
X016937Y020166D03*
X016937Y019106D03*
D28*
X016937Y019110D03*
X016937Y020002D03*
X016937Y020006D03*
D29*
X016937Y020010D03*
X016937Y019114D03*
D30*
X016937Y019118D03*
D31*
X016937Y019122D03*
X016937Y020014D03*
X016937Y020162D03*
D32*
X016937Y020022D03*
X016937Y019126D03*
D33*
X016937Y019130D03*
X016937Y020026D03*
D34*
X016937Y020030D03*
X016937Y019134D03*
D35*
X016937Y019138D03*
D36*
X016937Y019142D03*
X016937Y020034D03*
X016937Y020154D03*
D37*
X016937Y019150D03*
X016937Y019146D03*
D38*
X016937Y019154D03*
X016937Y020150D03*
D39*
X016937Y019158D03*
D40*
X016937Y019162D03*
D41*
X016937Y019166D03*
X016937Y019170D03*
D42*
X016937Y019174D03*
X016937Y020142D03*
D43*
X016937Y019178D03*
D44*
X016937Y019182D03*
X016937Y019186D03*
D45*
X016937Y019190D03*
X016937Y019194D03*
D46*
X016937Y019198D03*
D47*
X016937Y019202D03*
X016937Y020134D03*
D48*
X016937Y019210D03*
X016937Y019206D03*
D49*
X016937Y019214D03*
X016937Y019222D03*
X016937Y020130D03*
D50*
X016937Y019218D03*
D51*
X016937Y019226D03*
X016937Y019230D03*
X016937Y020094D03*
X016937Y020126D03*
D52*
X016937Y020122D03*
X016937Y020102D03*
X016937Y019234D03*
D53*
X016937Y019238D03*
X016937Y020098D03*
D54*
X016937Y020106D03*
X016941Y019474D03*
X016937Y019250D03*
X016937Y019246D03*
X016937Y019242D03*
D55*
X016937Y019254D03*
X016937Y019470D03*
X016937Y020110D03*
X016937Y020114D03*
D56*
X016937Y019258D03*
D57*
X016937Y019262D03*
X016937Y019266D03*
X016937Y019466D03*
D58*
X016937Y019274D03*
X016937Y019270D03*
D59*
X016939Y019278D03*
D60*
X016939Y019282D03*
X016939Y019286D03*
D61*
X016939Y019290D03*
X016939Y019294D03*
D62*
X016937Y019298D03*
D63*
X016937Y019302D03*
D64*
X016935Y019306D03*
D65*
X016937Y019310D03*
X016937Y019402D03*
D66*
X016937Y019314D03*
D67*
X016937Y019318D03*
D68*
X016937Y019322D03*
X016937Y019390D03*
D69*
X016937Y019386D03*
X016937Y019326D03*
D70*
X016937Y019330D03*
X016937Y019382D03*
D71*
X016935Y019334D03*
D72*
X016937Y019338D03*
D73*
X016937Y019342D03*
X016937Y019370D03*
X016937Y019374D03*
D74*
X016935Y019366D03*
X016935Y019350D03*
X016935Y019346D03*
D75*
X016937Y019354D03*
X016937Y019362D03*
D76*
X016937Y019358D03*
D77*
X016935Y019378D03*
D78*
X016937Y019394D03*
D79*
X016937Y019398D03*
D80*
X016927Y019434D03*
X016931Y019446D03*
D81*
X016929Y019438D03*
D82*
X016929Y019442D03*
D83*
X016931Y019450D03*
X016931Y019454D03*
D84*
X016933Y019458D03*
D85*
X016935Y019462D03*
D86*
X016943Y019478D03*
D87*
X016943Y019482D03*
X016943Y019486D03*
D88*
X017043Y019490D03*
D89*
X016711Y019506D03*
X016707Y019494D03*
X016707Y019490D03*
D90*
X017045Y019494D03*
D91*
X017045Y019498D03*
D92*
X016709Y019498D03*
D93*
X017045Y019502D03*
D94*
X016709Y019502D03*
D95*
X017049Y019506D03*
D96*
X017051Y019510D03*
D97*
X016749Y019514D03*
X016745Y019510D03*
X016829Y019886D03*
X016825Y019890D03*
D98*
X016639Y019510D03*
D99*
X017053Y019514D03*
X016937Y019922D03*
D100*
X016937Y019662D03*
X016621Y019514D03*
D101*
X017055Y019518D03*
D102*
X016755Y019518D03*
X017099Y019958D03*
D103*
X017049Y020046D03*
X017065Y019522D03*
D104*
X016937Y019590D03*
X016937Y019746D03*
X016817Y019906D03*
X016757Y019522D03*
D105*
X017071Y019526D03*
D106*
X016763Y019526D03*
X016815Y019910D03*
D107*
X017005Y019966D03*
X017069Y019530D03*
D108*
X016769Y019530D03*
D109*
X017067Y019534D03*
D110*
X016939Y019586D03*
X016775Y019534D03*
D111*
X017061Y019538D03*
X016937Y020198D03*
D112*
X016819Y019918D03*
X016783Y019538D03*
D113*
X017055Y019542D03*
D114*
X016801Y019542D03*
D115*
X016937Y019706D03*
X016937Y019710D03*
X017165Y019546D03*
D116*
X017163Y019550D03*
X017063Y019574D03*
D117*
X016915Y019550D03*
D118*
X016919Y019554D03*
D119*
X016923Y019558D03*
X017043Y020038D03*
D120*
X016771Y019562D03*
D121*
X016943Y019566D03*
D122*
X017063Y019570D03*
D123*
X016909Y019570D03*
X016937Y019814D03*
X017137Y020082D03*
X016937Y020206D03*
D124*
X017125Y020062D03*
X017129Y020066D03*
X016909Y019574D03*
D125*
X017067Y019578D03*
D126*
X016939Y019578D03*
D127*
X016825Y019578D03*
D128*
X017067Y019582D03*
D129*
X016939Y019582D03*
D130*
X016937Y019686D03*
X016821Y019582D03*
D131*
X017069Y019586D03*
D132*
X016939Y019610D03*
X016819Y019586D03*
D133*
X016813Y019594D03*
X017069Y019590D03*
D134*
X016815Y019590D03*
D135*
X017071Y019594D03*
D136*
X016939Y019594D03*
X017095Y019950D03*
X016763Y019974D03*
D137*
X016939Y019598D03*
D138*
X016809Y019598D03*
D139*
X016939Y019602D03*
D140*
X016939Y019606D03*
D141*
X016937Y019658D03*
D142*
X016937Y019666D03*
D143*
X016937Y019670D03*
D144*
X016937Y019674D03*
D145*
X016937Y019678D03*
D146*
X016937Y019682D03*
D147*
X016937Y019690D03*
X016937Y019694D03*
D148*
X016937Y019698D03*
D149*
X016937Y019702D03*
D150*
X016937Y019714D03*
D151*
X016937Y019718D03*
D152*
X016937Y019722D03*
X016937Y019726D03*
D153*
X016937Y019730D03*
D154*
X016937Y019734D03*
X016761Y019970D03*
D155*
X016939Y019738D03*
D156*
X016937Y019742D03*
X016821Y019894D03*
X016817Y019902D03*
X017097Y019954D03*
D157*
X016937Y019750D03*
X016817Y019914D03*
D158*
X016937Y019754D03*
D159*
X016937Y019758D03*
D160*
X016937Y019762D03*
D161*
X016937Y019766D03*
X016937Y019770D03*
D162*
X016937Y019774D03*
D163*
X016937Y019778D03*
D164*
X016937Y019782D03*
X016937Y019786D03*
D165*
X016937Y019790D03*
X017009Y019886D03*
X017013Y019890D03*
X017017Y019894D03*
D166*
X017021Y019906D03*
X016937Y019794D03*
D167*
X016937Y019798D03*
D168*
X016937Y019802D03*
D169*
X016937Y019806D03*
D170*
X016937Y019810D03*
X017133Y020074D03*
D171*
X016937Y019818D03*
D172*
X016937Y019822D03*
D173*
X016937Y019826D03*
D174*
X016937Y019830D03*
X016937Y019834D03*
D175*
X016937Y019838D03*
D176*
X016937Y019842D03*
X016937Y020202D03*
D177*
X016937Y019850D03*
X016937Y019846D03*
D178*
X016937Y019854D03*
D179*
X016937Y019858D03*
D180*
X016937Y019870D03*
D181*
X016937Y019874D03*
D182*
X016937Y019878D03*
D183*
X016937Y019882D03*
D184*
X017017Y019898D03*
D185*
X016821Y019898D03*
D186*
X016751Y020042D03*
X017019Y019902D03*
D187*
X017021Y019910D03*
X017021Y019914D03*
D188*
X017019Y019918D03*
D189*
X016937Y019934D03*
D190*
X016937Y019938D03*
D191*
X016935Y019942D03*
D192*
X016869Y019950D03*
D193*
X016927Y019954D03*
X016931Y019962D03*
D194*
X016769Y019954D03*
X016765Y019962D03*
D195*
X016929Y019958D03*
D196*
X016765Y019958D03*
D197*
X017099Y019962D03*
D198*
X016763Y019966D03*
D199*
X017007Y019970D03*
D200*
X017005Y019974D03*
D201*
X016937Y019978D03*
D202*
X016937Y019986D03*
X016937Y019990D03*
X016937Y020170D03*
D203*
X016937Y019998D03*
D204*
X016937Y020018D03*
D205*
X016757Y020038D03*
D206*
X016807Y020066D03*
X016807Y020070D03*
X017047Y020042D03*
D207*
X016749Y020046D03*
D208*
X017051Y020050D03*
D209*
X016747Y020050D03*
D210*
X017049Y020054D03*
D211*
X016751Y020054D03*
D212*
X016937Y020058D03*
D213*
X016811Y020062D03*
X016803Y020074D03*
D214*
X017131Y020070D03*
D215*
X017135Y020078D03*
D216*
X016801Y020078D03*
D217*
X016801Y020082D03*
X016801Y020086D03*
D218*
X017135Y020086D03*
D219*
X017135Y020090D03*
D220*
X016801Y020090D03*
D221*
X016937Y020118D03*
D222*
X016937Y020138D03*
D223*
X016935Y020146D03*
D224*
X016937Y020158D03*
D225*
X016937Y020178D03*
D226*
X016937Y020190D03*
D227*
X016937Y020194D03*
D228*
X016939Y020210D03*
D229*
X016935Y020214D03*
D230*
X014577Y019233D03*
X012608Y019233D03*
X009537Y002029D03*
X007569Y002029D03*
X005600Y002029D03*
D231*
X005473Y012178D02*
X005473Y012651D01*
X010673Y012651D02*
X010673Y012178D01*
X010673Y019478D02*
X010673Y019951D01*
X005473Y019951D02*
X005473Y019478D01*
D232*
X011722Y012304D03*
X012549Y012304D03*
D233*
X012549Y011537D03*
X011801Y011537D03*
D234*
X012750Y016365D02*
X012750Y016905D01*
X013750Y016905D02*
X013750Y016365D01*
X014750Y016365D02*
X014750Y016905D01*
D235*
X010199Y010056D03*
X007836Y010844D03*
X005474Y010056D03*
X005474Y005332D03*
X010199Y005332D03*
D236*
X013514Y014096D03*
X013514Y014844D03*
X014380Y014470D03*
D237*
X011277Y014450D03*
X011277Y015450D03*
X010277Y015450D03*
X010277Y014450D03*
X009277Y014450D03*
X009277Y015450D03*
X009277Y016450D03*
X009277Y017450D03*
X009277Y018450D03*
X009277Y019450D03*
X008277Y019450D03*
X008277Y018450D03*
X008277Y017450D03*
X007277Y017450D03*
X006277Y017450D03*
X005277Y017450D03*
X005277Y016450D03*
X005277Y015450D03*
X005277Y014450D03*
X006277Y014450D03*
X006277Y015450D03*
X006277Y016450D03*
X007277Y016450D03*
X007277Y015450D03*
X007277Y014450D03*
X007277Y013450D03*
X008277Y013450D03*
X008277Y012450D03*
X009277Y012450D03*
X009277Y013450D03*
X008277Y014450D03*
X008277Y015450D03*
X008277Y016450D03*
X010277Y016450D03*
X010277Y017450D03*
X011277Y017450D03*
X011277Y016450D03*
X007277Y019450D03*
X011277Y010450D03*
X011277Y009450D03*
X011277Y008450D03*
X011277Y007450D03*
X010277Y007450D03*
X009277Y007450D03*
X009277Y006450D03*
X010277Y006450D03*
X011277Y006450D03*
X011277Y005450D03*
X011277Y004450D03*
X011277Y003450D03*
X011277Y002450D03*
X011277Y001450D03*
X012277Y001450D03*
X012277Y002450D03*
X012277Y003450D03*
X012277Y004450D03*
X012277Y005450D03*
X012277Y006450D03*
X012277Y007450D03*
X012277Y008450D03*
X012277Y009450D03*
X012277Y010450D03*
X013277Y010450D03*
X013277Y009450D03*
X013277Y008450D03*
X013277Y007450D03*
X013277Y006450D03*
X013277Y005450D03*
X013277Y004450D03*
X013277Y003450D03*
X013277Y002450D03*
X013277Y001450D03*
X014277Y001450D03*
X014277Y002450D03*
X014277Y003450D03*
X014277Y004450D03*
X014277Y005450D03*
X014277Y006450D03*
X014277Y007450D03*
X014277Y008450D03*
X014277Y009450D03*
X014277Y010450D03*
X015277Y010450D03*
X015277Y009450D03*
X015277Y008450D03*
X015277Y007450D03*
X015277Y006450D03*
X015277Y005450D03*
X015277Y004450D03*
X015277Y003450D03*
X015277Y002450D03*
X015277Y001450D03*
X008277Y004450D03*
X007277Y004450D03*
X007277Y005450D03*
X007277Y006450D03*
X006277Y006450D03*
X006277Y005450D03*
X005277Y006450D03*
X005277Y007450D03*
X006277Y007450D03*
X007277Y007450D03*
X007277Y008450D03*
X007277Y009450D03*
X006277Y009450D03*
X008277Y009450D03*
X008277Y008450D03*
X008277Y007450D03*
X008277Y006450D03*
X008277Y005450D03*
D238*
X006277Y004450D03*
X006277Y008450D03*
X007277Y012450D03*
X007277Y018450D03*
M02*
