G75*
%MOIN*%
%OFA0B0*%
%FSLAX24Y24*%
%IPPOS*%
%LPD*%
%AMOC8*
5,1,8,0,0,1.08239X$1,22.5*
%
%ADD10C,0.0160*%
%ADD11C,0.0040*%
%ADD12C,0.0540*%
%ADD13OC8,0.0540*%
%ADD14R,0.0312X0.0004*%
%ADD15R,0.0344X0.0004*%
%ADD16R,0.0368X0.0004*%
%ADD17R,0.0392X0.0004*%
%ADD18R,0.0408X0.0004*%
%ADD19R,0.0424X0.0004*%
%ADD20R,0.0432X0.0004*%
%ADD21R,0.0448X0.0004*%
%ADD22R,0.0456X0.0004*%
%ADD23R,0.0472X0.0004*%
%ADD24R,0.0480X0.0004*%
%ADD25R,0.0488X0.0004*%
%ADD26R,0.0496X0.0004*%
%ADD27R,0.0504X0.0004*%
%ADD28R,0.0512X0.0004*%
%ADD29R,0.0520X0.0004*%
%ADD30R,0.0528X0.0004*%
%ADD31R,0.0536X0.0004*%
%ADD32R,0.0536X0.0004*%
%ADD33R,0.0544X0.0004*%
%ADD34R,0.0552X0.0004*%
%ADD35R,0.0560X0.0004*%
%ADD36R,0.0560X0.0004*%
%ADD37R,0.0568X0.0004*%
%ADD38R,0.0576X0.0004*%
%ADD39R,0.0584X0.0004*%
%ADD40R,0.0592X0.0004*%
%ADD41R,0.0592X0.0004*%
%ADD42R,0.0600X0.0004*%
%ADD43R,0.0608X0.0004*%
%ADD44R,0.0608X0.0004*%
%ADD45R,0.0616X0.0004*%
%ADD46R,0.0624X0.0004*%
%ADD47R,0.0632X0.0004*%
%ADD48R,0.0632X0.0004*%
%ADD49R,0.0640X0.0004*%
%ADD50R,0.0648X0.0004*%
%ADD51R,0.0648X0.0004*%
%ADD52R,0.0656X0.0004*%
%ADD53R,0.0664X0.0004*%
%ADD54R,0.0664X0.0004*%
%ADD55R,0.0672X0.0004*%
%ADD56R,0.0680X0.0004*%
%ADD57R,0.0680X0.0004*%
%ADD58R,0.0688X0.0004*%
%ADD59R,0.0696X0.0004*%
%ADD60R,0.0700X0.0004*%
%ADD61R,0.0708X0.0004*%
%ADD62R,0.0716X0.0004*%
%ADD63R,0.0720X0.0004*%
%ADD64R,0.0720X0.0004*%
%ADD65R,0.0724X0.0004*%
%ADD66R,0.0808X0.0004*%
%ADD67R,0.0824X0.0004*%
%ADD68R,0.0832X0.0004*%
%ADD69R,0.0840X0.0004*%
%ADD70R,0.0848X0.0004*%
%ADD71R,0.0856X0.0004*%
%ADD72R,0.0860X0.0004*%
%ADD73R,0.0864X0.0004*%
%ADD74R,0.0864X0.0004*%
%ADD75R,0.0868X0.0004*%
%ADD76R,0.0872X0.0004*%
%ADD77R,0.0872X0.0004*%
%ADD78R,0.0860X0.0004*%
%ADD79R,0.0832X0.0004*%
%ADD80R,0.0824X0.0004*%
%ADD81R,0.0708X0.0004*%
%ADD82R,0.0712X0.0004*%
%ADD83R,0.0712X0.0004*%
%ADD84R,0.0700X0.0004*%
%ADD85R,0.0696X0.0004*%
%ADD86R,0.0692X0.0004*%
%ADD87R,0.0668X0.0004*%
%ADD88R,0.0660X0.0004*%
%ADD89R,0.0452X0.0004*%
%ADD90R,0.0188X0.0004*%
%ADD91R,0.0448X0.0004*%
%ADD92R,0.0440X0.0004*%
%ADD93R,0.0184X0.0004*%
%ADD94R,0.0432X0.0004*%
%ADD95R,0.0184X0.0004*%
%ADD96R,0.0424X0.0004*%
%ADD97R,0.0412X0.0004*%
%ADD98R,0.0128X0.0004*%
%ADD99R,0.0044X0.0004*%
%ADD100R,0.0400X0.0004*%
%ADD101R,0.0008X0.0004*%
%ADD102R,0.0388X0.0004*%
%ADD103R,0.0132X0.0004*%
%ADD104R,0.0360X0.0004*%
%ADD105R,0.0136X0.0004*%
%ADD106R,0.0340X0.0004*%
%ADD107R,0.0140X0.0004*%
%ADD108R,0.0328X0.0004*%
%ADD109R,0.0144X0.0004*%
%ADD110R,0.0324X0.0004*%
%ADD111R,0.0148X0.0004*%
%ADD112R,0.0320X0.0004*%
%ADD113R,0.0156X0.0004*%
%ADD114R,0.0316X0.0004*%
%ADD115R,0.0176X0.0004*%
%ADD116R,0.0080X0.0004*%
%ADD117R,0.0052X0.0004*%
%ADD118R,0.0380X0.0004*%
%ADD119R,0.0372X0.0004*%
%ADD120R,0.0356X0.0004*%
%ADD121R,0.0004X0.0004*%
%ADD122R,0.0308X0.0004*%
%ADD123R,0.0060X0.0004*%
%ADD124R,0.0240X0.0004*%
%ADD125R,0.0232X0.0004*%
%ADD126R,0.0044X0.0004*%
%ADD127R,0.0164X0.0004*%
%ADD128R,0.0056X0.0004*%
%ADD129R,0.0036X0.0004*%
%ADD130R,0.0156X0.0004*%
%ADD131R,0.0048X0.0004*%
%ADD132R,0.0024X0.0004*%
%ADD133R,0.0036X0.0004*%
%ADD134R,0.0016X0.0004*%
%ADD135R,0.0028X0.0004*%
%ADD136R,0.0012X0.0004*%
%ADD137R,0.0124X0.0004*%
%ADD138R,0.0108X0.0004*%
%ADD139R,0.0008X0.0004*%
%ADD140R,0.0092X0.0004*%
%ADD141R,0.0068X0.0004*%
%ADD142R,0.0008X0.0004*%
%ADD143R,0.0016X0.0004*%
%ADD144R,0.0024X0.0004*%
%ADD145R,0.0032X0.0004*%
%ADD146R,0.0032X0.0004*%
%ADD147R,0.0040X0.0004*%
%ADD148R,0.0056X0.0004*%
%ADD149R,0.0064X0.0004*%
%ADD150R,0.0072X0.0004*%
%ADD151R,0.0088X0.0004*%
%ADD152R,0.0096X0.0004*%
%ADD153R,0.0104X0.0004*%
%ADD154R,0.0112X0.0004*%
%ADD155R,0.0120X0.0004*%
%ADD156R,0.0124X0.0004*%
%ADD157R,0.0128X0.0004*%
%ADD158R,0.0144X0.0004*%
%ADD159R,0.0152X0.0004*%
%ADD160R,0.0152X0.0004*%
%ADD161R,0.0160X0.0004*%
%ADD162R,0.0168X0.0004*%
%ADD163R,0.0176X0.0004*%
%ADD164R,0.0184X0.0004*%
%ADD165R,0.0192X0.0004*%
%ADD166R,0.0200X0.0004*%
%ADD167R,0.0208X0.0004*%
%ADD168R,0.0216X0.0004*%
%ADD169R,0.0216X0.0004*%
%ADD170R,0.0224X0.0004*%
%ADD171R,0.0232X0.0004*%
%ADD172R,0.0240X0.0004*%
%ADD173R,0.0248X0.0004*%
%ADD174R,0.0256X0.0004*%
%ADD175R,0.0264X0.0004*%
%ADD176R,0.0272X0.0004*%
%ADD177R,0.0280X0.0004*%
%ADD178R,0.0288X0.0004*%
%ADD179R,0.0296X0.0004*%
%ADD180R,0.0304X0.0004*%
%ADD181R,0.0320X0.0004*%
%ADD182R,0.0328X0.0004*%
%ADD183R,0.0336X0.0004*%
%ADD184R,0.0336X0.0004*%
%ADD185R,0.0200X0.0004*%
%ADD186R,0.0128X0.0004*%
%ADD187R,0.0204X0.0004*%
%ADD188R,0.0216X0.0004*%
%ADD189R,0.0228X0.0004*%
%ADD190R,0.0416X0.0004*%
%ADD191R,0.0424X0.0004*%
%ADD192R,0.0428X0.0004*%
%ADD193R,0.0304X0.0004*%
%ADD194R,0.0180X0.0004*%
%ADD195R,0.0112X0.0004*%
%ADD196R,0.0176X0.0004*%
%ADD197R,0.0112X0.0004*%
%ADD198R,0.0132X0.0004*%
%ADD199R,0.0116X0.0004*%
%ADD200R,0.0332X0.0004*%
%ADD201R,0.0336X0.0004*%
%ADD202R,0.0480X0.0004*%
%ADD203R,0.0496X0.0004*%
%ADD204R,0.0512X0.0004*%
%ADD205R,0.0544X0.0004*%
%ADD206R,0.0208X0.0004*%
%ADD207R,0.0356X0.0004*%
%ADD208R,0.0208X0.0004*%
%ADD209R,0.0364X0.0004*%
%ADD210R,0.0212X0.0004*%
%ADD211R,0.0368X0.0004*%
%ADD212R,0.0220X0.0004*%
%ADD213R,0.0600X0.0004*%
%ADD214R,0.0356X0.0004*%
%ADD215R,0.0228X0.0004*%
%ADD216R,0.0236X0.0004*%
%ADD217R,0.0360X0.0004*%
%ADD218R,0.0368X0.0004*%
%ADD219R,0.0244X0.0004*%
%ADD220R,0.0252X0.0004*%
%ADD221R,0.0376X0.0004*%
%ADD222R,0.0672X0.0004*%
%ADD223R,0.0624X0.0004*%
%ADD224R,0.0596X0.0004*%
%ADD225R,0.0552X0.0004*%
%ADD226R,0.0456X0.0004*%
%ADD227R,0.0384X0.0004*%
%ADD228R,0.0352X0.0004*%
%ADD229R,0.0188X0.0004*%
%ADD230R,0.0108X0.0004*%
%ADD231OC8,0.1250*%
%ADD232C,0.0472*%
%ADD233R,0.0472X0.0472*%
%ADD234R,0.0512X0.0591*%
%ADD235C,0.0540*%
%ADD236C,0.0531*%
%ADD237R,0.0551X0.0394*%
%ADD238OC8,0.0600*%
%ADD239C,0.0600*%
%ADD240C,0.0356*%
D10*
X002057Y000848D02*
X018199Y000848D01*
X018199Y020533D01*
X002057Y020533D01*
X002057Y000848D01*
X002417Y001824D02*
X002417Y001949D01*
X002433Y001933D01*
X002823Y001933D01*
X003098Y002208D01*
X003098Y002597D01*
X002823Y002873D01*
X002433Y002873D01*
X002417Y002857D01*
X002417Y002949D01*
X002433Y002933D01*
X002823Y002933D01*
X003098Y003208D01*
X003098Y003477D01*
X003158Y003537D01*
X003158Y003208D01*
X003433Y002933D01*
X003823Y002933D01*
X004013Y003123D01*
X007286Y003123D01*
X007389Y003165D01*
X008173Y003950D01*
X008485Y003950D01*
X008777Y004243D01*
X008777Y004657D01*
X008485Y004950D01*
X008705Y005170D01*
X009762Y005170D01*
X009804Y005068D01*
X009935Y004937D01*
X010106Y004866D01*
X010291Y004866D01*
X010463Y004937D01*
X010594Y005068D01*
X010664Y005239D01*
X010664Y005425D01*
X010594Y005596D01*
X010463Y005727D01*
X010291Y005798D01*
X010106Y005798D01*
X009943Y005730D01*
X008705Y005730D01*
X008485Y005950D01*
X008070Y005950D01*
X007777Y005657D01*
X007485Y005950D01*
X007070Y005950D01*
X006777Y005657D01*
X006485Y005950D01*
X006777Y006243D01*
X006777Y006657D01*
X006557Y006877D01*
X006557Y007023D01*
X006777Y007243D01*
X006777Y007657D01*
X006761Y007674D01*
X006794Y007674D01*
X006777Y007657D01*
X006777Y007243D01*
X007070Y006950D01*
X006777Y006657D01*
X006777Y006243D01*
X007070Y005950D01*
X007485Y005950D01*
X007777Y006243D01*
X007777Y006657D01*
X007485Y006950D01*
X007070Y006950D01*
X007485Y006950D01*
X007777Y007243D01*
X007777Y007657D01*
X007761Y007674D01*
X007823Y007674D01*
X007797Y007649D01*
X007797Y007470D01*
X008257Y007470D01*
X008257Y007430D01*
X007797Y007430D01*
X007797Y007251D01*
X008079Y006970D01*
X008257Y006970D01*
X008257Y007430D01*
X008297Y007430D01*
X008297Y006970D01*
X008476Y006970D01*
X008757Y007251D01*
X008757Y007430D01*
X008297Y007430D01*
X008297Y007470D01*
X008257Y007470D01*
X008257Y007930D01*
X008153Y007930D01*
X008173Y007950D01*
X008485Y007950D01*
X008777Y008243D01*
X008777Y008657D01*
X008485Y008950D01*
X008777Y009243D01*
X008777Y009657D01*
X008485Y009950D01*
X008173Y009950D01*
X007745Y010378D01*
X007929Y010378D01*
X008100Y010449D01*
X008231Y010580D01*
X008302Y010751D01*
X008302Y010936D01*
X008231Y011108D01*
X008100Y011239D01*
X007929Y011309D01*
X007744Y011309D01*
X007573Y011239D01*
X007442Y011108D01*
X007371Y010936D01*
X007371Y010751D01*
X007419Y010636D01*
X006346Y010636D01*
X006113Y010868D01*
X006010Y010911D01*
X004423Y010911D01*
X004320Y010868D01*
X004241Y010790D01*
X004134Y010683D01*
X004013Y010683D01*
X003823Y010873D01*
X003433Y010873D01*
X003420Y010859D01*
X003420Y010946D01*
X003433Y010933D01*
X003823Y010933D01*
X004098Y011208D01*
X004098Y011597D01*
X003823Y011873D01*
X003433Y011873D01*
X003420Y011859D01*
X003420Y011946D01*
X003433Y011933D01*
X003823Y011933D01*
X004098Y012208D01*
X004098Y012597D01*
X003823Y012873D01*
X003433Y012873D01*
X003420Y012859D01*
X003420Y012947D01*
X003400Y012994D01*
X003441Y012953D01*
X003618Y012953D01*
X003618Y013393D01*
X003178Y013393D01*
X003178Y013249D01*
X003098Y013329D01*
X003098Y013597D01*
X002823Y013873D01*
X002433Y013873D01*
X002417Y013857D01*
X002417Y013949D01*
X002433Y013933D01*
X002823Y013933D01*
X003098Y014208D01*
X003098Y014597D01*
X002823Y014873D01*
X002433Y014873D01*
X002417Y014857D01*
X002417Y014949D01*
X002433Y014933D01*
X002823Y014933D01*
X003098Y015208D01*
X003098Y015597D01*
X002823Y015873D01*
X002433Y015873D01*
X002417Y015857D01*
X002417Y015949D01*
X002433Y015933D01*
X002823Y015933D01*
X003098Y016208D01*
X003098Y016477D01*
X003158Y016537D01*
X003158Y016208D01*
X003433Y015933D01*
X003823Y015933D01*
X004098Y016208D01*
X004098Y016597D01*
X004065Y016631D01*
X004797Y016631D01*
X004797Y016470D01*
X005257Y016470D01*
X005257Y016430D01*
X004797Y016430D01*
X004797Y016251D01*
X005079Y015970D01*
X005257Y015970D01*
X005257Y016430D01*
X005297Y016430D01*
X005297Y015970D01*
X005476Y015970D01*
X005757Y016251D01*
X005757Y016430D01*
X005297Y016430D01*
X005297Y016470D01*
X005757Y016470D01*
X005757Y016649D01*
X005717Y016690D01*
X005810Y016690D01*
X005777Y016657D01*
X005777Y016243D01*
X006070Y015950D01*
X005777Y015657D01*
X005777Y015243D01*
X006070Y014950D01*
X006485Y014950D01*
X006777Y015243D01*
X006777Y015657D01*
X006485Y015950D01*
X006070Y015950D01*
X006485Y015950D01*
X006777Y016243D01*
X006777Y016657D01*
X006745Y016690D01*
X006810Y016690D01*
X006777Y016657D01*
X006777Y016243D01*
X007070Y015950D01*
X006777Y015657D01*
X006777Y015243D01*
X007070Y014950D01*
X007485Y014950D01*
X007777Y015243D01*
X007777Y015657D01*
X007485Y015950D01*
X007070Y015950D01*
X007485Y015950D01*
X007777Y016243D01*
X007777Y016631D01*
X007777Y016631D01*
X007777Y016243D01*
X008070Y015950D01*
X007777Y015657D01*
X007777Y015243D01*
X008070Y014950D01*
X008485Y014950D01*
X008777Y015243D01*
X008777Y015657D01*
X008485Y015950D01*
X008070Y015950D01*
X008485Y015950D01*
X008777Y016243D01*
X008777Y016657D01*
X008485Y016950D01*
X008777Y017243D01*
X008777Y017657D01*
X008761Y017674D01*
X008794Y017674D01*
X008777Y017657D01*
X008777Y017243D01*
X009070Y016950D01*
X008777Y016657D01*
X008777Y016243D01*
X009070Y015950D01*
X009485Y015950D01*
X009777Y016243D01*
X009777Y016657D01*
X009485Y016950D01*
X009070Y016950D01*
X009485Y016950D01*
X009777Y017243D01*
X009777Y017657D01*
X009761Y017674D01*
X009794Y017674D01*
X009777Y017657D01*
X009777Y017243D01*
X010070Y016950D01*
X009777Y016657D01*
X009777Y016243D01*
X010070Y015950D01*
X010485Y015950D01*
X010777Y016243D01*
X010777Y016657D01*
X010485Y016950D01*
X010070Y016950D01*
X010485Y016950D01*
X010777Y017243D01*
X010777Y017657D01*
X010761Y017674D01*
X010794Y017674D01*
X010777Y017657D01*
X010777Y017243D01*
X011070Y016950D01*
X010777Y016657D01*
X010777Y016243D01*
X011070Y015950D01*
X011485Y015950D01*
X011777Y016243D01*
X011777Y016657D01*
X011485Y016950D01*
X011070Y016950D01*
X011485Y016950D01*
X011777Y017243D01*
X011777Y017657D01*
X011761Y017674D01*
X012295Y017674D01*
X012470Y017499D01*
X012470Y017290D01*
X012351Y017171D01*
X012280Y016999D01*
X012280Y016272D01*
X012351Y016099D01*
X012484Y015967D01*
X012656Y015895D01*
X012843Y015895D01*
X013016Y015967D01*
X013148Y016099D01*
X013220Y016272D01*
X013220Y016999D01*
X013148Y017171D01*
X013030Y017290D01*
X013030Y017671D01*
X012987Y017774D01*
X012654Y018107D01*
X014376Y018107D01*
X014479Y018150D01*
X014558Y018228D01*
X014738Y018408D01*
X014918Y018408D01*
X015402Y018892D01*
X015402Y019575D01*
X014918Y020058D01*
X014235Y020058D01*
X013752Y019575D01*
X013752Y018892D01*
X013976Y018667D01*
X013180Y018667D01*
X013413Y018900D01*
X013413Y019183D01*
X012658Y019183D01*
X012658Y019283D01*
X013413Y019283D01*
X013413Y019567D01*
X012942Y020038D01*
X012658Y020038D01*
X012658Y019283D01*
X012558Y019283D01*
X012558Y019183D01*
X011803Y019183D01*
X011803Y018900D01*
X012036Y018667D01*
X010323Y018667D01*
X009873Y019116D01*
X009794Y019195D01*
X009749Y019214D01*
X009777Y019243D01*
X009777Y019657D01*
X009485Y019950D01*
X009070Y019950D01*
X008777Y019657D01*
X008485Y019950D01*
X008070Y019950D01*
X007777Y019657D01*
X007777Y019243D01*
X007782Y019238D01*
X007744Y019238D01*
X007757Y019251D01*
X007757Y019430D01*
X007297Y019430D01*
X007297Y019470D01*
X007257Y019470D01*
X007257Y019430D01*
X006797Y019430D01*
X006797Y019251D01*
X006811Y019238D01*
X006346Y019238D01*
X005910Y019674D01*
X005910Y020038D01*
X005854Y020173D01*
X010320Y020173D01*
X010318Y020169D01*
X010288Y020111D01*
X010268Y020048D01*
X010257Y019984D01*
X010257Y019715D01*
X010673Y019715D01*
X010673Y019715D01*
X010257Y019715D01*
X010257Y019446D01*
X010268Y019381D01*
X010288Y019319D01*
X010318Y019260D01*
X010356Y019207D01*
X010402Y019161D01*
X010455Y019122D01*
X010514Y019093D01*
X010576Y019072D01*
X010641Y019062D01*
X010673Y019062D01*
X010673Y019715D01*
X010159Y019715D01*
X009833Y020041D01*
X007868Y020041D01*
X007277Y019450D01*
X007257Y019470D02*
X006797Y019470D01*
X006797Y019649D01*
X007079Y019930D01*
X007257Y019930D01*
X007257Y019470D01*
X007297Y019470D02*
X007297Y019930D01*
X007476Y019930D01*
X007757Y019649D01*
X007757Y019470D01*
X007297Y019470D01*
X007297Y019551D02*
X007257Y019551D01*
X007257Y019709D02*
X007297Y019709D01*
X007297Y019868D02*
X007257Y019868D01*
X007016Y019868D02*
X005910Y019868D01*
X005910Y020026D02*
X010264Y020026D01*
X010257Y019868D02*
X009567Y019868D01*
X009725Y019709D02*
X010257Y019709D01*
X010257Y019551D02*
X009777Y019551D01*
X009777Y019392D02*
X010266Y019392D01*
X010337Y019234D02*
X009768Y019234D01*
X009914Y019075D02*
X010567Y019075D01*
X010673Y019075D02*
X010673Y019075D01*
X010673Y019062D02*
X010706Y019062D01*
X010771Y019072D01*
X010833Y019093D01*
X010892Y019122D01*
X010945Y019161D01*
X010991Y019207D01*
X011029Y019260D01*
X011059Y019319D01*
X011079Y019381D01*
X011090Y019446D01*
X011090Y019715D01*
X011090Y019984D01*
X011079Y020048D01*
X011059Y020111D01*
X011029Y020169D01*
X011027Y020173D01*
X016397Y020173D01*
X016397Y020025D01*
X016405Y020017D01*
X016405Y020013D01*
X016417Y020001D01*
X016417Y019997D01*
X016421Y019993D01*
X016421Y019993D01*
X016429Y019985D01*
X016429Y019981D01*
X016437Y019973D01*
X016437Y019973D01*
X016441Y019969D01*
X016441Y019965D01*
X016453Y019953D01*
X016453Y019949D01*
X016465Y019937D01*
X016465Y019933D01*
X016477Y019921D01*
X016477Y019917D01*
X016481Y019913D01*
X016481Y019913D01*
X016489Y019905D01*
X016489Y019901D01*
X016497Y019893D01*
X016497Y019893D01*
X016501Y019889D01*
X016501Y019885D01*
X016509Y019877D01*
X016509Y019873D01*
X016521Y019861D01*
X016521Y019861D01*
X016521Y019857D01*
X016525Y019853D01*
X016525Y019853D01*
X016533Y019845D01*
X016533Y019841D01*
X016545Y019829D01*
X016545Y019825D01*
X016557Y019813D01*
X016557Y019809D01*
X016569Y019797D01*
X016569Y019793D01*
X016581Y019781D01*
X016581Y019777D01*
X016585Y019773D01*
X016585Y019773D01*
X016593Y019765D01*
X016593Y019761D01*
X016601Y019753D01*
X016601Y019753D01*
X016605Y019749D01*
X016605Y019745D01*
X016616Y019734D01*
X016598Y019716D01*
X016534Y019716D01*
X016417Y019598D01*
X016417Y019582D01*
X016413Y019578D01*
X016413Y019570D01*
X016325Y019482D01*
X016305Y019462D01*
X016305Y019454D01*
X016301Y019450D01*
X016301Y019446D01*
X016301Y019269D01*
X016301Y019261D01*
X016305Y019257D01*
X016305Y019249D01*
X016409Y019145D01*
X016409Y019141D01*
X016413Y019137D01*
X016413Y019129D01*
X016417Y019125D01*
X016417Y019121D01*
X016421Y019117D01*
X016421Y019113D01*
X016425Y019109D01*
X016425Y019105D01*
X016429Y019101D01*
X016429Y019097D01*
X016433Y019093D01*
X016433Y019089D01*
X016437Y019085D01*
X016437Y019081D01*
X016441Y019077D01*
X016441Y019073D01*
X016449Y019065D01*
X016449Y019061D01*
X016457Y019053D01*
X016457Y019049D01*
X016469Y019037D01*
X016469Y019033D01*
X016586Y018916D01*
X016590Y018912D01*
X016594Y018908D01*
X016598Y018904D01*
X016602Y018900D01*
X016606Y018896D01*
X016610Y018892D01*
X016610Y018892D01*
X016614Y018888D01*
X016614Y018888D01*
X016618Y018884D01*
X016622Y018884D01*
X016630Y018876D01*
X016634Y018876D01*
X016638Y018872D01*
X016642Y018868D01*
X016646Y018868D01*
X016650Y018864D01*
X016654Y018864D01*
X016658Y018860D01*
X016666Y018860D01*
X016670Y018856D01*
X016678Y018856D01*
X016681Y018853D01*
X016638Y018853D01*
X016638Y018413D01*
X016618Y018413D01*
X016618Y018853D01*
X016441Y018853D01*
X016178Y018589D01*
X016178Y018413D01*
X016618Y018413D01*
X016618Y018393D01*
X016178Y018393D01*
X016178Y018216D01*
X016219Y018175D01*
X014915Y018175D01*
X014812Y018132D01*
X014591Y017912D01*
X014512Y017833D01*
X014470Y017730D01*
X014470Y017290D01*
X014351Y017171D01*
X014280Y016999D01*
X014280Y016272D01*
X014351Y016099D01*
X014484Y015967D01*
X014656Y015895D01*
X014843Y015895D01*
X015016Y015967D01*
X015148Y016099D01*
X015220Y016272D01*
X015220Y016999D01*
X015148Y017171D01*
X015030Y017290D01*
X015030Y017558D01*
X015086Y017615D01*
X016175Y017615D01*
X016158Y017597D01*
X016158Y017208D01*
X016433Y016933D01*
X016823Y016933D01*
X017098Y017208D01*
X017098Y017597D01*
X017080Y017615D01*
X017175Y017615D01*
X017158Y017597D01*
X017158Y017208D01*
X017433Y016933D01*
X017823Y016933D01*
X017839Y016949D01*
X017839Y016857D01*
X017823Y016873D01*
X017433Y016873D01*
X017158Y016597D01*
X017158Y016208D01*
X017433Y015933D01*
X017823Y015933D01*
X017839Y015949D01*
X017839Y015857D01*
X017823Y015873D01*
X017433Y015873D01*
X017158Y015597D01*
X017158Y015208D01*
X017433Y014933D01*
X017823Y014933D01*
X017839Y014949D01*
X017839Y014857D01*
X017823Y014873D01*
X017433Y014873D01*
X017158Y014597D01*
X017158Y014208D01*
X017433Y013933D01*
X017823Y013933D01*
X017839Y013949D01*
X017839Y013857D01*
X017823Y013873D01*
X017433Y013873D01*
X017158Y013597D01*
X017158Y013208D01*
X017433Y012933D01*
X017823Y012933D01*
X017839Y012949D01*
X017839Y012857D01*
X017823Y012873D01*
X017433Y012873D01*
X017158Y012597D01*
X017158Y012329D01*
X017098Y012269D01*
X017098Y012597D01*
X016823Y012873D01*
X016433Y012873D01*
X016243Y012683D01*
X015854Y012683D01*
X015483Y013053D01*
X015405Y013132D01*
X015302Y013175D01*
X014612Y013175D01*
X014620Y013194D01*
X014620Y013344D01*
X014563Y013483D01*
X014530Y013515D01*
X014597Y013583D01*
X014640Y013686D01*
X016247Y013686D01*
X016158Y013597D02*
X016433Y013873D01*
X016823Y013873D01*
X017098Y013597D01*
X017098Y013208D01*
X016823Y012933D01*
X016433Y012933D01*
X016158Y013208D01*
X016158Y013597D01*
X016158Y013528D02*
X014542Y013528D01*
X014610Y013369D02*
X016158Y013369D01*
X016158Y013211D02*
X014620Y013211D01*
X014242Y013269D02*
X014242Y013544D01*
X014203Y013584D01*
X014360Y013741D01*
X014360Y014450D01*
X014380Y014470D01*
X014380Y015119D01*
X013750Y015749D01*
X013750Y016635D01*
X014220Y016698D02*
X014280Y016698D01*
X014280Y016856D02*
X014220Y016856D01*
X014220Y016999D02*
X014148Y017171D01*
X014016Y017303D01*
X013843Y017375D01*
X013656Y017375D01*
X013484Y017303D01*
X013351Y017171D01*
X013280Y016999D01*
X013280Y016272D01*
X013351Y016099D01*
X013470Y015980D01*
X013470Y015694D01*
X013512Y015591D01*
X013591Y015512D01*
X013863Y015241D01*
X013155Y015241D01*
X013038Y015124D01*
X012651Y015124D01*
X012548Y015081D01*
X011823Y014356D01*
X011777Y014356D01*
X011777Y014657D01*
X011557Y014877D01*
X011557Y015023D01*
X011777Y015243D01*
X011777Y015657D01*
X011485Y015950D01*
X011070Y015950D01*
X010777Y015657D01*
X010485Y015950D01*
X010070Y015950D01*
X009777Y015657D01*
X009485Y015950D01*
X009070Y015950D01*
X008777Y015657D01*
X008777Y015243D01*
X009070Y014950D01*
X009485Y014950D01*
X009777Y015243D01*
X009777Y015657D01*
X009777Y015243D01*
X010070Y014950D01*
X010485Y014950D01*
X010777Y015243D01*
X010777Y015657D01*
X010777Y015243D01*
X010997Y015023D01*
X010997Y014877D01*
X010777Y014657D01*
X010485Y014950D01*
X010070Y014950D01*
X009777Y014657D01*
X009485Y014950D01*
X009070Y014950D01*
X008777Y014657D01*
X008485Y014950D01*
X008070Y014950D01*
X007777Y014657D01*
X007485Y014950D01*
X007070Y014950D01*
X006777Y014657D01*
X006485Y014950D01*
X006070Y014950D01*
X005777Y014657D01*
X005777Y014258D01*
X005757Y014258D01*
X005757Y014430D01*
X005297Y014430D01*
X005297Y014470D01*
X005257Y014470D01*
X005257Y014430D01*
X004797Y014430D01*
X004797Y014251D01*
X005039Y014009D01*
X004992Y013962D01*
X004934Y013962D01*
X004796Y013904D01*
X004689Y013798D01*
X004632Y013659D01*
X004632Y013509D01*
X004689Y013370D01*
X004796Y013263D01*
X004934Y013206D01*
X005085Y013206D01*
X005224Y013263D01*
X005330Y013370D01*
X005388Y013509D01*
X005388Y013566D01*
X005519Y013698D01*
X006846Y013698D01*
X006797Y013649D01*
X006797Y013470D01*
X007257Y013470D01*
X007257Y013430D01*
X006797Y013430D01*
X006797Y013251D01*
X007079Y012970D01*
X007257Y012970D01*
X007257Y013430D01*
X007297Y013430D01*
X007297Y012970D01*
X007476Y012970D01*
X007757Y013251D01*
X007757Y013430D01*
X007297Y013430D01*
X007297Y013470D01*
X007757Y013470D01*
X007757Y013649D01*
X007709Y013698D01*
X007818Y013698D01*
X007777Y013657D01*
X007777Y013243D01*
X008070Y012950D01*
X007777Y012657D01*
X007777Y012243D01*
X008070Y011950D01*
X008485Y011950D01*
X008777Y012243D01*
X008777Y012657D01*
X008485Y012950D01*
X008070Y012950D01*
X008485Y012950D01*
X008777Y013243D01*
X008777Y013657D01*
X008737Y013698D01*
X008818Y013698D01*
X008777Y013657D01*
X008777Y013243D01*
X009070Y012950D01*
X008777Y012657D01*
X008777Y012243D01*
X009070Y011950D01*
X009485Y011950D01*
X009777Y012243D01*
X009777Y012657D01*
X009485Y012950D01*
X009070Y012950D01*
X009485Y012950D01*
X009777Y013243D01*
X009777Y013657D01*
X009737Y013698D01*
X011213Y013698D01*
X011095Y013648D01*
X011054Y013608D01*
X010210Y013608D01*
X010107Y013565D01*
X010028Y013487D01*
X010028Y013487D01*
X009910Y013368D01*
X009831Y013290D01*
X009789Y013187D01*
X009789Y012013D01*
X009757Y012013D01*
X009618Y011956D01*
X009578Y011915D01*
X006369Y011915D01*
X005910Y012374D01*
X005910Y012738D01*
X005843Y012898D01*
X005721Y013021D01*
X005560Y013087D01*
X005387Y013087D01*
X005226Y013021D01*
X005104Y012898D01*
X005037Y012738D01*
X005037Y012092D01*
X005104Y011931D01*
X005226Y011809D01*
X005387Y011742D01*
X005560Y011742D01*
X005694Y011798D01*
X006016Y011476D01*
X006094Y011398D01*
X006197Y011355D01*
X009578Y011355D01*
X009618Y011314D01*
X009757Y011257D01*
X009908Y011257D01*
X010047Y011314D01*
X010153Y011421D01*
X010211Y011560D01*
X010211Y011617D01*
X010306Y011713D01*
X010349Y011816D01*
X010349Y011917D01*
X010356Y011907D01*
X010402Y011861D01*
X010455Y011822D01*
X010514Y011793D01*
X010576Y011772D01*
X010641Y011762D01*
X010673Y011762D01*
X010673Y012415D01*
X010659Y012400D01*
X010659Y011674D01*
X010659Y011379D01*
X010305Y011025D01*
X009596Y011025D01*
X009262Y011359D01*
X006939Y011359D01*
X006506Y010926D01*
X006307Y010675D02*
X007402Y010675D01*
X007371Y010833D02*
X006149Y010833D01*
X005955Y010631D02*
X006230Y010356D01*
X007372Y010356D01*
X008277Y009450D01*
X007931Y009090D02*
X007624Y009090D01*
X007485Y008950D02*
X007777Y009243D01*
X007777Y009554D01*
X007777Y009554D01*
X007777Y009243D01*
X008070Y008950D01*
X008485Y008950D01*
X008070Y008950D01*
X007777Y008657D01*
X007485Y008950D01*
X007070Y008950D01*
X006777Y009243D01*
X006777Y009657D01*
X006485Y009950D01*
X006070Y009950D01*
X005850Y009730D01*
X005807Y009730D01*
X005869Y009792D01*
X005940Y009964D01*
X005940Y010149D01*
X005869Y010320D01*
X005838Y010351D01*
X005839Y010351D01*
X005993Y010197D01*
X006072Y010118D01*
X006174Y010076D01*
X007256Y010076D01*
X007381Y009950D01*
X007070Y009950D01*
X006777Y009657D01*
X006777Y009243D01*
X006485Y008950D01*
X006070Y008950D01*
X005850Y009170D01*
X004060Y009170D01*
X003823Y008933D01*
X003433Y008933D01*
X003420Y008946D01*
X003420Y008859D01*
X003433Y008873D01*
X003823Y008873D01*
X004013Y008683D01*
X005833Y008683D01*
X005854Y008733D01*
X005994Y008874D01*
X006178Y008950D01*
X006377Y008950D01*
X006561Y008874D01*
X006701Y008733D01*
X006777Y008549D01*
X006777Y008351D01*
X006729Y008234D01*
X006786Y008234D01*
X006777Y008243D01*
X006777Y008657D01*
X007070Y008950D01*
X007485Y008950D01*
X007503Y008931D02*
X008051Y008931D01*
X007893Y008773D02*
X007662Y008773D01*
X007777Y008657D02*
X007777Y008346D01*
X007777Y008346D01*
X007777Y008657D01*
X007777Y008614D02*
X007777Y008614D01*
X007777Y008456D02*
X007777Y008456D01*
X008277Y008450D02*
X007781Y007954D01*
X004179Y007954D01*
X003628Y007403D01*
X003919Y007029D02*
X004991Y007029D01*
X005070Y006950D02*
X004777Y007243D01*
X004777Y007657D01*
X004794Y007674D01*
X004295Y007674D01*
X004098Y007477D01*
X004098Y007208D01*
X003823Y006933D01*
X003433Y006933D01*
X003420Y006946D01*
X003420Y006859D01*
X003433Y006873D01*
X003823Y006873D01*
X004098Y006597D01*
X004098Y006226D01*
X004794Y006226D01*
X004777Y006243D01*
X004777Y006657D01*
X005070Y006950D01*
X005485Y006950D01*
X005777Y007243D01*
X005777Y007657D01*
X005761Y007674D01*
X005794Y007674D01*
X005777Y007657D01*
X005777Y007243D01*
X005997Y007023D01*
X005997Y006877D01*
X005777Y006657D01*
X005485Y006950D01*
X005070Y006950D01*
X004991Y006871D02*
X003825Y006871D01*
X003983Y006712D02*
X004832Y006712D01*
X004777Y006554D02*
X004098Y006554D01*
X004098Y006395D02*
X004777Y006395D01*
X004784Y006237D02*
X004098Y006237D01*
X004029Y005666D02*
X005150Y005666D01*
X005079Y005596D01*
X005009Y005425D01*
X005009Y005239D01*
X005079Y005068D01*
X005210Y004937D01*
X005382Y004866D01*
X005567Y004866D01*
X005738Y004937D01*
X005869Y005068D01*
X005893Y005127D01*
X006070Y004950D01*
X006485Y004950D01*
X006777Y005243D01*
X006777Y005657D01*
X006777Y005243D01*
X007070Y004950D01*
X007485Y004950D01*
X007777Y005243D01*
X007777Y005657D01*
X007777Y005243D01*
X008070Y004950D01*
X008485Y004950D01*
X008070Y004950D01*
X007777Y004657D01*
X007485Y004950D01*
X007070Y004950D01*
X006777Y004657D01*
X006777Y004243D01*
X007070Y003950D01*
X007381Y003950D01*
X007114Y003683D01*
X005906Y003683D01*
X006175Y003951D01*
X006178Y003950D01*
X006377Y003950D01*
X006561Y004026D01*
X006701Y004167D01*
X006777Y004351D01*
X006777Y004549D01*
X006701Y004733D01*
X006561Y004874D01*
X006377Y004950D01*
X006178Y004950D01*
X005994Y004874D01*
X005854Y004733D01*
X005777Y004549D01*
X005777Y004351D01*
X005779Y004347D01*
X005630Y004199D01*
X004088Y004199D01*
X004098Y004208D01*
X004098Y004597D01*
X003823Y004873D01*
X003433Y004873D01*
X003158Y004597D01*
X003158Y004208D01*
X003167Y004199D01*
X003088Y004199D01*
X003098Y004208D01*
X003098Y004597D01*
X002823Y004873D01*
X002433Y004873D01*
X002417Y004857D01*
X002417Y004949D01*
X002433Y004933D01*
X002823Y004933D01*
X003098Y005208D01*
X003098Y005597D01*
X002823Y005873D01*
X002433Y005873D01*
X002417Y005857D01*
X002417Y005949D01*
X002433Y005933D01*
X002823Y005933D01*
X002865Y005975D01*
X002902Y005886D01*
X003001Y005787D01*
X003079Y005709D01*
X003182Y005666D01*
X003226Y005666D01*
X003158Y005597D01*
X003158Y005208D01*
X003433Y004933D01*
X003823Y004933D01*
X004098Y005208D01*
X004098Y005597D01*
X004029Y005666D01*
X004093Y005603D02*
X005086Y005603D01*
X005017Y005444D02*
X004098Y005444D01*
X004098Y005286D02*
X005009Y005286D01*
X005055Y005127D02*
X004017Y005127D01*
X003858Y004969D02*
X005179Y004969D01*
X005770Y004969D02*
X006052Y004969D01*
X005930Y004810D02*
X003885Y004810D01*
X004044Y004652D02*
X005820Y004652D01*
X005777Y004493D02*
X004098Y004493D01*
X004098Y004335D02*
X005766Y004335D01*
X005746Y003919D02*
X006277Y004450D01*
X006624Y004810D02*
X006930Y004810D01*
X007052Y004969D02*
X006503Y004969D01*
X006662Y005127D02*
X006893Y005127D01*
X006777Y005286D02*
X006777Y005286D01*
X006777Y005444D02*
X006777Y005444D01*
X006777Y005603D02*
X006777Y005603D01*
X006673Y005761D02*
X006881Y005761D01*
X007040Y005920D02*
X006515Y005920D01*
X006485Y005950D02*
X006414Y005950D01*
X006414Y005950D01*
X006485Y005950D01*
X006613Y006078D02*
X006942Y006078D01*
X006784Y006237D02*
X006771Y006237D01*
X006777Y006395D02*
X006777Y006395D01*
X006777Y006554D02*
X006777Y006554D01*
X006722Y006712D02*
X006832Y006712D01*
X006991Y006871D02*
X006564Y006871D01*
X006564Y007029D02*
X006991Y007029D01*
X006833Y007188D02*
X006722Y007188D01*
X006777Y007346D02*
X006777Y007346D01*
X006777Y007505D02*
X006777Y007505D01*
X006771Y007663D02*
X006783Y007663D01*
X006277Y007450D02*
X006277Y006450D01*
X006270Y006442D01*
X006270Y006202D01*
X006014Y005946D01*
X003238Y005946D01*
X003140Y006044D01*
X003140Y012891D01*
X002628Y013403D01*
X003009Y013686D02*
X003275Y013686D01*
X003178Y013589D02*
X003178Y013413D01*
X003618Y013413D01*
X003618Y013853D01*
X003441Y013853D01*
X003178Y013589D01*
X003178Y013528D02*
X003098Y013528D01*
X003098Y013369D02*
X003178Y013369D01*
X003618Y013369D02*
X003638Y013369D01*
X003638Y013393D02*
X003638Y012953D01*
X003814Y012953D01*
X004078Y013216D01*
X004078Y013393D01*
X003638Y013393D01*
X003638Y013413D01*
X003618Y013413D01*
X003618Y013393D01*
X003638Y013393D01*
X003628Y013403D02*
X004384Y013403D01*
X004655Y013131D01*
X005266Y013131D01*
X005758Y013623D01*
X007104Y013623D01*
X007277Y013450D01*
X007257Y013369D02*
X007297Y013369D01*
X007297Y013211D02*
X007257Y013211D01*
X007257Y013052D02*
X007297Y013052D01*
X007297Y012930D02*
X007315Y012930D01*
X007390Y012918D01*
X007462Y012895D01*
X007529Y012861D01*
X007590Y012816D01*
X007644Y012763D01*
X007688Y012702D01*
X007722Y012634D01*
X007746Y012562D01*
X007757Y012488D01*
X007757Y012470D01*
X007297Y012470D01*
X007257Y012470D01*
X007257Y012430D01*
X006797Y012430D01*
X006797Y012412D01*
X006809Y012338D01*
X006833Y012266D01*
X006867Y012198D01*
X006911Y012137D01*
X006965Y012084D01*
X007026Y012039D01*
X007093Y012005D01*
X007165Y011982D01*
X007240Y011970D01*
X007257Y011970D01*
X007257Y012430D01*
X007297Y012430D01*
X007297Y011970D01*
X007315Y011970D01*
X007390Y011982D01*
X007462Y012005D01*
X007529Y012039D01*
X007590Y012084D01*
X007644Y012137D01*
X007688Y012198D01*
X007722Y012266D01*
X007746Y012338D01*
X007757Y012412D01*
X007757Y012430D01*
X007297Y012430D01*
X007297Y012470D01*
X007297Y012930D01*
X007297Y012894D02*
X007257Y012894D01*
X007257Y012930D02*
X007240Y012930D01*
X007165Y012918D01*
X007093Y012895D01*
X007026Y012861D01*
X006965Y012816D01*
X006911Y012763D01*
X006867Y012702D01*
X006833Y012634D01*
X006809Y012562D01*
X006797Y012488D01*
X006797Y012470D01*
X007257Y012470D01*
X007257Y012930D01*
X007091Y012894D02*
X005845Y012894D01*
X005910Y012735D02*
X006891Y012735D01*
X006814Y012577D02*
X005910Y012577D01*
X005910Y012418D02*
X006797Y012418D01*
X006836Y012260D02*
X006024Y012260D01*
X006183Y012101D02*
X006947Y012101D01*
X007257Y012101D02*
X007297Y012101D01*
X007297Y012260D02*
X007257Y012260D01*
X007257Y012418D02*
X007297Y012418D01*
X007297Y012577D02*
X007257Y012577D01*
X007257Y012735D02*
X007297Y012735D01*
X007464Y012894D02*
X008014Y012894D01*
X007968Y013052D02*
X007558Y013052D01*
X007717Y013211D02*
X007810Y013211D01*
X007777Y013369D02*
X007757Y013369D01*
X007757Y013528D02*
X007777Y013528D01*
X007806Y013686D02*
X007720Y013686D01*
X007777Y014258D02*
X007777Y014657D01*
X007777Y014258D01*
X007777Y014258D01*
X007777Y014320D02*
X007777Y014320D01*
X007777Y014479D02*
X007777Y014479D01*
X007777Y014637D02*
X007777Y014637D01*
X007639Y014796D02*
X007916Y014796D01*
X008066Y014954D02*
X007489Y014954D01*
X007647Y015113D02*
X007908Y015113D01*
X007777Y015271D02*
X007777Y015271D01*
X007777Y015430D02*
X007777Y015430D01*
X007777Y015588D02*
X007777Y015588D01*
X007688Y015747D02*
X007867Y015747D01*
X008025Y015905D02*
X007529Y015905D01*
X007598Y016064D02*
X007957Y016064D01*
X007798Y016222D02*
X007757Y016222D01*
X007777Y016381D02*
X007777Y016381D01*
X007777Y016539D02*
X007777Y016539D01*
X007746Y016970D02*
X007785Y017009D01*
X007746Y016970D02*
X005049Y016970D01*
X004990Y016911D01*
X003136Y016911D01*
X002628Y016403D01*
X002953Y016064D02*
X003302Y016064D01*
X003158Y016222D02*
X003098Y016222D01*
X003098Y016381D02*
X003158Y016381D01*
X002702Y016873D02*
X002433Y016873D01*
X002417Y016857D01*
X002417Y016949D01*
X002433Y016933D01*
X002762Y016933D01*
X002702Y016873D01*
X003080Y017191D02*
X003098Y017208D01*
X003098Y017597D01*
X002823Y017873D01*
X002433Y017873D01*
X002417Y017857D01*
X002417Y017977D01*
X002441Y017953D01*
X002618Y017953D01*
X002618Y018393D01*
X002638Y018393D01*
X002638Y018413D01*
X002618Y018413D01*
X002618Y018853D01*
X002441Y018853D01*
X002417Y018828D01*
X002417Y019640D01*
X002443Y019614D01*
X002544Y019513D01*
X002544Y019134D01*
X002673Y019005D01*
X003346Y019005D01*
X003439Y019099D01*
X003486Y019099D01*
X003615Y019227D01*
X003662Y019274D01*
X003662Y019485D01*
X003788Y019485D01*
X003790Y019487D01*
X003792Y019485D01*
X003862Y019485D01*
X003930Y019472D01*
X003950Y019485D01*
X003975Y019485D01*
X004024Y019534D01*
X004081Y019573D01*
X004086Y019597D01*
X004104Y019614D01*
X004104Y019683D01*
X004117Y019751D01*
X004104Y019772D01*
X004104Y020077D01*
X004008Y020173D01*
X005093Y020173D01*
X005037Y020038D01*
X005037Y019392D01*
X003662Y019392D01*
X003621Y019234D02*
X005103Y019234D01*
X005104Y019231D02*
X005226Y019109D01*
X005387Y019042D01*
X005560Y019042D01*
X005694Y019098D01*
X006072Y018721D01*
X006174Y018678D01*
X006855Y018678D01*
X006833Y018634D01*
X006809Y018562D01*
X006797Y018488D01*
X006797Y018470D01*
X007257Y018470D01*
X007257Y018430D01*
X006797Y018430D01*
X006797Y018412D01*
X006809Y018338D01*
X006833Y018266D01*
X006849Y018234D01*
X004193Y018234D01*
X004098Y018329D01*
X004098Y018597D01*
X003823Y018873D01*
X003433Y018873D01*
X003158Y018597D01*
X003158Y018208D01*
X003433Y017933D01*
X003702Y017933D01*
X003782Y017853D01*
X003638Y017853D01*
X003638Y017413D01*
X003618Y017413D01*
X003618Y017853D01*
X003441Y017853D01*
X003178Y017589D01*
X003178Y017413D01*
X003618Y017413D01*
X003618Y017393D01*
X003178Y017393D01*
X003178Y017216D01*
X003204Y017191D01*
X003080Y017191D01*
X003098Y017332D02*
X003178Y017332D01*
X003178Y017490D02*
X003098Y017490D01*
X003047Y017649D02*
X003237Y017649D01*
X003396Y017807D02*
X002888Y017807D01*
X002814Y017953D02*
X003078Y018216D01*
X003078Y018393D01*
X002638Y018393D01*
X002638Y017953D01*
X002814Y017953D01*
X002827Y017966D02*
X003400Y017966D01*
X003242Y018124D02*
X002986Y018124D01*
X003078Y018283D02*
X003158Y018283D01*
X003078Y018413D02*
X003078Y018589D01*
X002814Y018853D01*
X002638Y018853D01*
X002638Y018413D01*
X003078Y018413D01*
X003078Y018441D02*
X003158Y018441D01*
X003160Y018600D02*
X003067Y018600D01*
X002909Y018758D02*
X003319Y018758D01*
X003416Y019075D02*
X005307Y019075D01*
X005104Y019231D02*
X005037Y019392D01*
X005037Y019551D02*
X004048Y019551D01*
X004109Y019709D02*
X005037Y019709D01*
X005037Y019868D02*
X004104Y019868D01*
X004104Y020026D02*
X005037Y020026D01*
X005473Y019715D02*
X006230Y018958D01*
X009636Y018958D01*
X010207Y018387D01*
X014321Y018387D01*
X014577Y018643D01*
X014577Y019233D01*
X015110Y018600D02*
X016188Y018600D01*
X016178Y018441D02*
X014951Y018441D01*
X014804Y018124D02*
X014418Y018124D01*
X014612Y018283D02*
X016178Y018283D01*
X016347Y018758D02*
X015268Y018758D01*
X015402Y018917D02*
X016585Y018917D01*
X016618Y018758D02*
X016638Y018758D01*
X016638Y018600D02*
X016618Y018600D01*
X016628Y018481D02*
X015915Y019194D01*
X015915Y019726D01*
X015581Y020060D01*
X013435Y020060D01*
X012608Y019233D01*
X012127Y019715D01*
X010673Y019715D01*
X010673Y019715D01*
X010674Y019715D02*
X011090Y019715D01*
X010674Y019715D01*
X010674Y019715D01*
X010673Y019715D02*
X010673Y019062D01*
X010780Y019075D02*
X011803Y019075D01*
X011803Y018917D02*
X010073Y018917D01*
X010231Y018758D02*
X011945Y018758D01*
X011803Y019283D02*
X012558Y019283D01*
X012558Y020038D01*
X012275Y020038D01*
X011803Y019567D01*
X011803Y019283D01*
X011803Y019392D02*
X011081Y019392D01*
X011090Y019551D02*
X011803Y019551D01*
X011945Y019709D02*
X011090Y019709D01*
X011090Y019868D02*
X012104Y019868D01*
X012262Y020026D02*
X011083Y020026D01*
X010673Y019709D02*
X010673Y019709D01*
X010673Y019551D02*
X010673Y019551D01*
X010673Y019392D02*
X010673Y019392D01*
X010673Y019234D02*
X010673Y019234D01*
X011010Y019234D02*
X012558Y019234D01*
X012658Y019234D02*
X013752Y019234D01*
X013752Y019392D02*
X013413Y019392D01*
X013413Y019551D02*
X013752Y019551D01*
X013886Y019709D02*
X013271Y019709D01*
X013112Y019868D02*
X014044Y019868D01*
X014203Y020026D02*
X012954Y020026D01*
X012658Y020026D02*
X012558Y020026D01*
X012558Y019868D02*
X012658Y019868D01*
X012658Y019709D02*
X012558Y019709D01*
X012558Y019551D02*
X012658Y019551D01*
X012658Y019392D02*
X012558Y019392D01*
X013271Y018758D02*
X013885Y018758D01*
X013752Y018917D02*
X013413Y018917D01*
X013413Y019075D02*
X013752Y019075D01*
X014645Y017966D02*
X012796Y017966D01*
X012954Y017807D02*
X014502Y017807D01*
X014470Y017649D02*
X013030Y017649D01*
X013030Y017490D02*
X014470Y017490D01*
X014470Y017332D02*
X013948Y017332D01*
X014146Y017173D02*
X014353Y017173D01*
X014287Y017015D02*
X014213Y017015D01*
X014220Y016999D02*
X014220Y016272D01*
X014148Y016099D01*
X014030Y015980D01*
X014030Y015865D01*
X014617Y015278D01*
X014660Y015175D01*
X014660Y014867D01*
X014738Y014867D01*
X014855Y014749D01*
X014855Y014190D01*
X014738Y014073D01*
X014640Y014073D01*
X014640Y013686D01*
X014640Y013845D02*
X016405Y013845D01*
X016433Y013933D02*
X016823Y013933D01*
X017098Y014208D01*
X017098Y014597D01*
X016823Y014873D01*
X016433Y014873D01*
X016158Y014597D01*
X016158Y014208D01*
X016433Y013933D01*
X016363Y014003D02*
X014640Y014003D01*
X014827Y014162D02*
X016204Y014162D01*
X016158Y014320D02*
X014855Y014320D01*
X014855Y014479D02*
X016158Y014479D01*
X016198Y014637D02*
X014855Y014637D01*
X014809Y014796D02*
X016356Y014796D01*
X016433Y014933D02*
X016823Y014933D01*
X017098Y015208D01*
X017098Y015597D01*
X016823Y015873D01*
X016433Y015873D01*
X016158Y015597D01*
X016158Y015208D01*
X016433Y014933D01*
X016412Y014954D02*
X014660Y014954D01*
X014660Y015113D02*
X016253Y015113D01*
X016158Y015271D02*
X014620Y015271D01*
X014465Y015430D02*
X016158Y015430D01*
X016158Y015588D02*
X014307Y015588D01*
X014148Y015747D02*
X016307Y015747D01*
X016433Y015933D02*
X016823Y015933D01*
X017098Y016208D01*
X017098Y016597D01*
X016823Y016873D01*
X016433Y016873D01*
X016158Y016597D01*
X016158Y016208D01*
X016433Y015933D01*
X016302Y016064D02*
X015113Y016064D01*
X015199Y016222D02*
X016158Y016222D01*
X016158Y016381D02*
X015220Y016381D01*
X015220Y016539D02*
X016158Y016539D01*
X016258Y016698D02*
X015220Y016698D01*
X015220Y016856D02*
X016417Y016856D01*
X016351Y017015D02*
X015213Y017015D01*
X015146Y017173D02*
X016193Y017173D01*
X016158Y017332D02*
X015030Y017332D01*
X015030Y017490D02*
X016158Y017490D01*
X016904Y017015D02*
X017351Y017015D01*
X017417Y016856D02*
X016839Y016856D01*
X016998Y016698D02*
X017258Y016698D01*
X017158Y016539D02*
X017098Y016539D01*
X017098Y016381D02*
X017158Y016381D01*
X017158Y016222D02*
X017098Y016222D01*
X016953Y016064D02*
X017302Y016064D01*
X017307Y015747D02*
X016949Y015747D01*
X017098Y015588D02*
X017158Y015588D01*
X017158Y015430D02*
X017098Y015430D01*
X017098Y015271D02*
X017158Y015271D01*
X017253Y015113D02*
X017002Y015113D01*
X016844Y014954D02*
X017412Y014954D01*
X017356Y014796D02*
X016900Y014796D01*
X017058Y014637D02*
X017198Y014637D01*
X017158Y014479D02*
X017098Y014479D01*
X017098Y014320D02*
X017158Y014320D01*
X017204Y014162D02*
X017051Y014162D01*
X016893Y014003D02*
X017363Y014003D01*
X017405Y013845D02*
X016851Y013845D01*
X017009Y013686D02*
X017247Y013686D01*
X017158Y013528D02*
X017098Y013528D01*
X017098Y013369D02*
X017158Y013369D01*
X017158Y013211D02*
X017098Y013211D01*
X016942Y013052D02*
X017314Y013052D01*
X017296Y012735D02*
X016960Y012735D01*
X017098Y012577D02*
X017158Y012577D01*
X017158Y012418D02*
X017098Y012418D01*
X016628Y012403D02*
X015738Y012403D01*
X015246Y012895D01*
X013041Y012895D01*
X013002Y012934D01*
X012985Y012556D02*
X013077Y012556D01*
X013216Y012614D01*
X013217Y012615D01*
X015130Y012615D01*
X015579Y012165D01*
X015610Y012153D01*
X015599Y012148D01*
X015366Y011915D01*
X013493Y011915D01*
X013492Y011916D01*
X013353Y011974D01*
X013202Y011974D01*
X013063Y011916D01*
X013005Y011858D01*
X013005Y011915D01*
X012960Y011960D01*
X012985Y011985D01*
X012985Y012556D01*
X012985Y012418D02*
X015327Y012418D01*
X015485Y012260D02*
X012985Y012260D01*
X012985Y012101D02*
X015552Y012101D01*
X015394Y011943D02*
X013428Y011943D01*
X013127Y011943D02*
X012977Y011943D01*
X013317Y011635D02*
X013277Y011596D01*
X013317Y011635D02*
X015482Y011635D01*
X015758Y011911D01*
X017136Y011911D01*
X017628Y012403D01*
X017554Y011933D02*
X017823Y011933D01*
X017839Y011949D01*
X017839Y011857D01*
X017823Y011873D01*
X017494Y011873D01*
X017554Y011933D01*
X017832Y011943D02*
X017839Y011943D01*
X017628Y011403D02*
X017132Y010907D01*
X016270Y010907D01*
X016033Y010670D01*
X016033Y010100D01*
X015876Y009942D01*
X012805Y009942D01*
X012427Y009950D02*
X012070Y009950D01*
X011777Y009657D01*
X011777Y009243D01*
X012070Y008950D01*
X011777Y008657D01*
X011777Y008243D01*
X012070Y007950D01*
X012485Y007950D01*
X012777Y008243D01*
X012777Y008657D01*
X012485Y008950D01*
X012070Y008950D01*
X012485Y008950D01*
X012777Y009243D01*
X012777Y009564D01*
X012777Y009564D01*
X012777Y009243D01*
X013070Y008950D01*
X012777Y008657D01*
X012777Y008243D01*
X013070Y007950D01*
X012777Y007657D01*
X012485Y007950D01*
X012070Y007950D01*
X011777Y007657D01*
X011777Y007243D01*
X012070Y006950D01*
X011777Y006657D01*
X011777Y006243D01*
X012070Y005950D01*
X011777Y005657D01*
X011777Y005243D01*
X012070Y004950D01*
X011777Y004657D01*
X011777Y004243D01*
X012070Y003950D01*
X012485Y003950D01*
X012777Y004243D01*
X012777Y004657D01*
X012485Y004950D01*
X012070Y004950D01*
X012485Y004950D01*
X012777Y005243D01*
X012777Y005657D01*
X012485Y005950D01*
X012070Y005950D01*
X012485Y005950D01*
X012777Y006243D01*
X012777Y006554D01*
X012777Y006554D01*
X012777Y006243D01*
X013070Y005950D01*
X012777Y005657D01*
X012777Y005243D01*
X013070Y004950D01*
X012777Y004657D01*
X012777Y004243D01*
X013070Y003950D01*
X013485Y003950D01*
X013777Y004243D01*
X013777Y004657D01*
X013485Y004950D01*
X013070Y004950D01*
X013485Y004950D01*
X013777Y005243D01*
X013777Y005657D01*
X013485Y005950D01*
X013070Y005950D01*
X013485Y005950D01*
X013777Y006243D01*
X013777Y006657D01*
X013765Y006670D01*
X013790Y006670D01*
X013777Y006657D01*
X013777Y006243D01*
X014070Y005950D01*
X013777Y005657D01*
X013777Y005243D01*
X014070Y004950D01*
X013777Y004657D01*
X013777Y004243D01*
X014070Y003950D01*
X014485Y003950D01*
X014777Y004243D01*
X014777Y004657D01*
X014485Y004950D01*
X014070Y004950D01*
X014485Y004950D01*
X014777Y005243D01*
X014777Y005657D01*
X014485Y005950D01*
X014070Y005950D01*
X014485Y005950D01*
X014777Y006243D01*
X014777Y006657D01*
X014765Y006670D01*
X014790Y006670D01*
X014777Y006657D01*
X014777Y006243D01*
X015070Y005950D01*
X014777Y005657D01*
X014777Y005243D01*
X015070Y004950D01*
X014777Y004657D01*
X014777Y004243D01*
X015070Y003950D01*
X015485Y003950D01*
X015777Y004243D01*
X015777Y004657D01*
X015485Y004950D01*
X015070Y004950D01*
X015485Y004950D01*
X015777Y005243D01*
X015777Y005657D01*
X015485Y005950D01*
X015070Y005950D01*
X015485Y005950D01*
X015777Y006243D01*
X015777Y006657D01*
X015765Y006670D01*
X016230Y006670D01*
X016158Y006597D01*
X016158Y006208D01*
X016433Y005933D01*
X016702Y005933D01*
X016762Y005873D01*
X016433Y005873D01*
X016158Y005597D01*
X016158Y005208D01*
X016433Y004933D01*
X016823Y004933D01*
X016856Y004966D01*
X016856Y004840D01*
X016823Y004873D01*
X016433Y004873D01*
X016158Y004597D01*
X016158Y004208D01*
X016433Y003933D01*
X016823Y003933D01*
X016856Y003966D01*
X016856Y003840D01*
X016823Y003873D01*
X016433Y003873D01*
X016158Y003597D01*
X016158Y003234D01*
X015768Y003234D01*
X015777Y003243D01*
X015777Y003657D01*
X015485Y003950D01*
X015070Y003950D01*
X014777Y003657D01*
X014485Y003950D01*
X014070Y003950D01*
X013777Y003657D01*
X013485Y003950D01*
X013070Y003950D01*
X012777Y003657D01*
X012485Y003950D01*
X012070Y003950D01*
X011777Y003657D01*
X011777Y003243D01*
X012070Y002950D01*
X011777Y002657D01*
X011777Y002243D01*
X012070Y001950D01*
X011777Y001657D01*
X011777Y001243D01*
X011813Y001208D01*
X011714Y001208D01*
X011757Y001251D01*
X011757Y001430D01*
X011297Y001430D01*
X011297Y001470D01*
X011257Y001470D01*
X011257Y001430D01*
X010797Y001430D01*
X010797Y001251D01*
X010841Y001208D01*
X009883Y001208D01*
X010362Y001687D01*
X010362Y002370D01*
X009879Y002854D01*
X009196Y002854D01*
X008712Y002370D01*
X008712Y001687D01*
X009192Y001208D01*
X007914Y001208D01*
X008394Y001687D01*
X008394Y002370D01*
X007910Y002854D01*
X007227Y002854D01*
X006744Y002370D01*
X006744Y001687D01*
X007223Y001208D01*
X005946Y001208D01*
X006425Y001687D01*
X006425Y002370D01*
X005942Y002854D01*
X005259Y002854D01*
X004775Y002370D01*
X004775Y001687D01*
X005255Y001208D01*
X004097Y001208D01*
X004098Y001208D01*
X004098Y001597D01*
X003823Y001873D01*
X003433Y001873D01*
X003158Y001597D01*
X003158Y001208D01*
X003158Y001208D01*
X003056Y001208D01*
X003098Y001309D01*
X003098Y001496D01*
X003026Y001669D01*
X002894Y001801D01*
X002721Y001873D01*
X002534Y001873D01*
X002417Y001824D01*
X002847Y001957D02*
X003409Y001957D01*
X003433Y001933D02*
X003823Y001933D01*
X004098Y002208D01*
X004098Y002597D01*
X003823Y002873D01*
X003433Y002873D01*
X003158Y002597D01*
X003158Y002208D01*
X003433Y001933D01*
X003359Y001799D02*
X002897Y001799D01*
X003038Y001640D02*
X003201Y001640D01*
X003158Y001482D02*
X003098Y001482D01*
X003098Y001323D02*
X003158Y001323D01*
X003847Y001957D02*
X004775Y001957D01*
X004775Y001799D02*
X003897Y001799D01*
X004055Y001640D02*
X004822Y001640D01*
X004981Y001482D02*
X004098Y001482D01*
X004098Y001323D02*
X005139Y001323D01*
X004775Y002116D02*
X004005Y002116D01*
X004098Y002274D02*
X004775Y002274D01*
X004837Y002433D02*
X004098Y002433D01*
X004098Y002591D02*
X004996Y002591D01*
X005154Y002750D02*
X003946Y002750D01*
X003956Y003067D02*
X010982Y003067D01*
X011079Y002970D02*
X010797Y003251D01*
X010797Y003430D01*
X011257Y003430D01*
X011257Y003470D01*
X010797Y003470D01*
X010797Y003649D01*
X011079Y003930D01*
X011257Y003930D01*
X011257Y003470D01*
X011297Y003470D01*
X011297Y003930D01*
X011476Y003930D01*
X011757Y003649D01*
X011757Y003470D01*
X011297Y003470D01*
X011297Y003430D01*
X011297Y002970D01*
X011476Y002970D01*
X011757Y003251D01*
X011757Y003430D01*
X011297Y003430D01*
X011257Y003430D01*
X011257Y002970D01*
X011079Y002970D01*
X011079Y002930D02*
X010797Y002649D01*
X010797Y002470D01*
X011257Y002470D01*
X011257Y002430D01*
X010797Y002430D01*
X010797Y002251D01*
X011079Y001970D01*
X011257Y001970D01*
X011257Y002430D01*
X011297Y002430D01*
X011297Y001970D01*
X011476Y001970D01*
X011757Y002251D01*
X011757Y002430D01*
X011297Y002430D01*
X011297Y002470D01*
X011257Y002470D01*
X011257Y002930D01*
X011079Y002930D01*
X011057Y002908D02*
X002417Y002908D01*
X002628Y003403D02*
X003144Y003919D01*
X005746Y003919D01*
X005924Y003701D02*
X007132Y003701D01*
X007291Y003859D02*
X006083Y003859D01*
X006540Y004018D02*
X007003Y004018D01*
X006844Y004176D02*
X006705Y004176D01*
X006771Y004335D02*
X006777Y004335D01*
X006777Y004493D02*
X006777Y004493D01*
X006777Y004652D02*
X006735Y004652D01*
X007503Y004969D02*
X008052Y004969D01*
X007930Y004810D02*
X007624Y004810D01*
X007777Y004657D02*
X007777Y004346D01*
X007777Y004346D01*
X007777Y004657D01*
X007777Y004652D02*
X007777Y004652D01*
X007777Y004493D02*
X007777Y004493D01*
X008277Y004450D02*
X007230Y003403D01*
X003628Y003403D01*
X003299Y003067D02*
X002956Y003067D01*
X003098Y003225D02*
X003158Y003225D01*
X003158Y003384D02*
X003098Y003384D01*
X002702Y003873D02*
X002433Y003873D01*
X002417Y003857D01*
X002417Y003949D01*
X002433Y003933D01*
X002762Y003933D01*
X002702Y003873D01*
X002420Y003859D02*
X002417Y003859D01*
X003098Y004335D02*
X003158Y004335D01*
X003158Y004493D02*
X003098Y004493D01*
X003044Y004652D02*
X003212Y004652D01*
X003371Y004810D02*
X002885Y004810D01*
X002858Y004969D02*
X003397Y004969D01*
X003239Y005127D02*
X003017Y005127D01*
X003098Y005286D02*
X003158Y005286D01*
X003158Y005444D02*
X003098Y005444D01*
X003093Y005603D02*
X003163Y005603D01*
X003027Y005761D02*
X002934Y005761D01*
X002888Y005920D02*
X002417Y005920D01*
X002417Y006857D02*
X002417Y006949D01*
X002433Y006933D01*
X002823Y006933D01*
X002860Y006970D01*
X002860Y006836D01*
X002823Y006873D01*
X002433Y006873D01*
X002417Y006857D01*
X002417Y006871D02*
X002431Y006871D01*
X002825Y006871D02*
X002860Y006871D01*
X003420Y006871D02*
X003431Y006871D01*
X004077Y007188D02*
X004833Y007188D01*
X004777Y007346D02*
X004098Y007346D01*
X004126Y007505D02*
X004777Y007505D01*
X004783Y007663D02*
X004284Y007663D01*
X003762Y007933D02*
X003702Y007873D01*
X003433Y007873D01*
X003420Y007859D01*
X003420Y007946D01*
X003433Y007933D01*
X003762Y007933D01*
X003628Y008403D02*
X006230Y008403D01*
X006277Y008450D01*
X005893Y008773D02*
X003923Y008773D01*
X003979Y009090D02*
X005931Y009090D01*
X006132Y008931D02*
X003420Y008931D01*
X003628Y009403D02*
X003675Y009450D01*
X006277Y009450D01*
X006624Y009090D02*
X006931Y009090D01*
X007051Y008931D02*
X006422Y008931D01*
X006662Y008773D02*
X006893Y008773D01*
X006777Y008614D02*
X006751Y008614D01*
X006777Y008456D02*
X006777Y008456D01*
X006777Y008297D02*
X006755Y008297D01*
X006777Y009248D02*
X006777Y009248D01*
X006777Y009407D02*
X006777Y009407D01*
X006777Y009565D02*
X006777Y009565D01*
X006711Y009724D02*
X006844Y009724D01*
X007002Y009882D02*
X006552Y009882D01*
X006002Y009882D02*
X005906Y009882D01*
X005940Y010041D02*
X007291Y010041D01*
X007766Y010358D02*
X009841Y010358D01*
X009804Y010320D02*
X009935Y010451D01*
X010106Y010522D01*
X010291Y010522D01*
X010463Y010451D01*
X010594Y010320D01*
X010664Y010149D01*
X010664Y009964D01*
X010594Y009792D01*
X010463Y009661D01*
X010291Y009591D01*
X010106Y009591D01*
X009935Y009661D01*
X009804Y009792D01*
X009733Y009964D01*
X009733Y010149D01*
X009804Y010320D01*
X009754Y010199D02*
X007924Y010199D01*
X008083Y010041D02*
X009733Y010041D01*
X009767Y009882D02*
X008552Y009882D01*
X008711Y009724D02*
X009873Y009724D01*
X010525Y009724D02*
X010872Y009724D01*
X010797Y009649D02*
X010797Y009470D01*
X011257Y009470D01*
X011257Y009430D01*
X010797Y009430D01*
X010797Y009251D01*
X011079Y008970D01*
X011257Y008970D01*
X011257Y009430D01*
X011297Y009430D01*
X011297Y008970D01*
X011476Y008970D01*
X011757Y009251D01*
X011757Y009430D01*
X011297Y009430D01*
X011297Y009470D01*
X011257Y009470D01*
X011257Y009930D01*
X011079Y009930D01*
X010797Y009649D01*
X010797Y009565D02*
X008777Y009565D01*
X008777Y009407D02*
X010797Y009407D01*
X010800Y009248D02*
X008777Y009248D01*
X008624Y009090D02*
X010959Y009090D01*
X011079Y008930D02*
X010797Y008649D01*
X010797Y008470D01*
X011257Y008470D01*
X011257Y008430D01*
X010797Y008430D01*
X010797Y008251D01*
X011079Y007970D01*
X011257Y007970D01*
X011257Y008430D01*
X011297Y008430D01*
X011297Y007970D01*
X011476Y007970D01*
X011757Y008251D01*
X011757Y008430D01*
X011297Y008430D01*
X011297Y008470D01*
X011257Y008470D01*
X011257Y008930D01*
X011079Y008930D01*
X011297Y008930D02*
X011476Y008930D01*
X011757Y008649D01*
X011757Y008470D01*
X011297Y008470D01*
X011297Y008930D01*
X011297Y008773D02*
X011257Y008773D01*
X011257Y008614D02*
X011297Y008614D01*
X011297Y008456D02*
X011777Y008456D01*
X011777Y008614D02*
X011757Y008614D01*
X011634Y008773D02*
X011893Y008773D01*
X012051Y008931D02*
X008503Y008931D01*
X008662Y008773D02*
X010921Y008773D01*
X010797Y008614D02*
X008777Y008614D01*
X008777Y008456D02*
X011257Y008456D01*
X011257Y008297D02*
X011297Y008297D01*
X011297Y008139D02*
X011257Y008139D01*
X011257Y007980D02*
X011297Y007980D01*
X011297Y007930D02*
X011476Y007930D01*
X011757Y007649D01*
X011757Y007470D01*
X011297Y007470D01*
X011257Y007470D01*
X011257Y007430D01*
X010797Y007430D01*
X010797Y007251D01*
X011079Y006970D01*
X011257Y006970D01*
X011257Y007430D01*
X011297Y007430D01*
X011297Y006970D01*
X011476Y006970D01*
X011757Y007251D01*
X011757Y007430D01*
X011297Y007430D01*
X011297Y007470D01*
X011297Y007930D01*
X011257Y007930D02*
X011079Y007930D01*
X010797Y007649D01*
X010797Y007470D01*
X011257Y007470D01*
X011257Y007930D01*
X011257Y007822D02*
X011297Y007822D01*
X011297Y007663D02*
X011257Y007663D01*
X011257Y007505D02*
X011297Y007505D01*
X011277Y007450D02*
X010277Y007450D01*
X009277Y007450D01*
X008277Y007450D01*
X008297Y007470D02*
X008297Y007930D01*
X008476Y007930D01*
X008757Y007649D01*
X008757Y007470D01*
X008297Y007470D01*
X008297Y007505D02*
X008257Y007505D01*
X008257Y007663D02*
X008297Y007663D01*
X008297Y007822D02*
X008257Y007822D01*
X008515Y007980D02*
X011068Y007980D01*
X010970Y007822D02*
X010585Y007822D01*
X010476Y007930D02*
X010297Y007930D01*
X010297Y007470D01*
X010257Y007470D01*
X010257Y007430D01*
X009797Y007430D01*
X009797Y007251D01*
X010079Y006970D01*
X010257Y006970D01*
X010257Y007430D01*
X010297Y007430D01*
X010297Y006970D01*
X010476Y006970D01*
X010757Y007251D01*
X010757Y007430D01*
X010297Y007430D01*
X010297Y007470D01*
X010757Y007470D01*
X010757Y007649D01*
X010476Y007930D01*
X010297Y007822D02*
X010257Y007822D01*
X010257Y007930D02*
X010079Y007930D01*
X009797Y007649D01*
X009797Y007470D01*
X010257Y007470D01*
X010257Y007930D01*
X010257Y007663D02*
X010297Y007663D01*
X010297Y007505D02*
X010257Y007505D01*
X010257Y007346D02*
X010297Y007346D01*
X010297Y007188D02*
X010257Y007188D01*
X010257Y007029D02*
X010297Y007029D01*
X010297Y006930D02*
X010476Y006930D01*
X010757Y006649D01*
X010757Y006470D01*
X010297Y006470D01*
X010257Y006470D01*
X010257Y006430D01*
X009797Y006430D01*
X009797Y006251D01*
X010079Y005970D01*
X010257Y005970D01*
X010257Y006430D01*
X010297Y006430D01*
X010297Y005970D01*
X010476Y005970D01*
X010757Y006251D01*
X010757Y006430D01*
X010297Y006430D01*
X010297Y006470D01*
X010297Y006930D01*
X010257Y006930D02*
X010079Y006930D01*
X009797Y006649D01*
X009797Y006470D01*
X010257Y006470D01*
X010257Y006930D01*
X010257Y006871D02*
X010297Y006871D01*
X010297Y006712D02*
X010257Y006712D01*
X010257Y006554D02*
X010297Y006554D01*
X010297Y006395D02*
X010257Y006395D01*
X010257Y006237D02*
X010297Y006237D01*
X010297Y006078D02*
X010257Y006078D01*
X010584Y006078D02*
X010970Y006078D01*
X011079Y005970D02*
X010797Y006251D01*
X010797Y006430D01*
X011257Y006430D01*
X011257Y006470D01*
X010797Y006470D01*
X010797Y006649D01*
X011079Y006930D01*
X011257Y006930D01*
X011257Y006470D01*
X011297Y006470D01*
X011297Y006930D01*
X011476Y006930D01*
X011757Y006649D01*
X011757Y006470D01*
X011297Y006470D01*
X011297Y006430D01*
X011297Y005970D01*
X011476Y005970D01*
X011757Y006251D01*
X011757Y006430D01*
X011297Y006430D01*
X011257Y006430D01*
X011257Y005970D01*
X011079Y005970D01*
X011079Y005930D02*
X010797Y005649D01*
X010797Y005470D01*
X011257Y005470D01*
X011257Y005430D01*
X010797Y005430D01*
X010797Y005251D01*
X011079Y004970D01*
X011257Y004970D01*
X011257Y005430D01*
X011297Y005430D01*
X011297Y004970D01*
X011476Y004970D01*
X011757Y005251D01*
X011757Y005430D01*
X011297Y005430D01*
X011297Y005470D01*
X011257Y005470D01*
X011257Y005930D01*
X011079Y005930D01*
X011068Y005920D02*
X008515Y005920D01*
X008476Y005970D02*
X008757Y006251D01*
X008757Y006430D01*
X008297Y006430D01*
X008297Y005970D01*
X008476Y005970D01*
X008584Y006078D02*
X008970Y006078D01*
X009079Y005970D02*
X009257Y005970D01*
X009257Y006430D01*
X008797Y006430D01*
X008797Y006251D01*
X009079Y005970D01*
X009257Y006078D02*
X009297Y006078D01*
X009297Y005970D02*
X009476Y005970D01*
X009757Y006251D01*
X009757Y006430D01*
X009297Y006430D01*
X009297Y005970D01*
X009297Y006237D02*
X009257Y006237D01*
X009257Y006395D02*
X009297Y006395D01*
X009297Y006430D02*
X009257Y006430D01*
X009257Y006470D01*
X008797Y006470D01*
X008797Y006649D01*
X009079Y006930D01*
X009257Y006930D01*
X009257Y006470D01*
X009297Y006470D01*
X009297Y006930D01*
X009476Y006930D01*
X009757Y006649D01*
X009757Y006470D01*
X009297Y006470D01*
X009297Y006430D01*
X009297Y006554D02*
X009257Y006554D01*
X009257Y006712D02*
X009297Y006712D01*
X009297Y006871D02*
X009257Y006871D01*
X009257Y006970D02*
X009079Y006970D01*
X008797Y007251D01*
X008797Y007430D01*
X009257Y007430D01*
X009257Y007470D01*
X008797Y007470D01*
X008797Y007649D01*
X009079Y007930D01*
X009257Y007930D01*
X009257Y007470D01*
X009297Y007470D01*
X009297Y007930D01*
X009476Y007930D01*
X009757Y007649D01*
X009757Y007470D01*
X009297Y007470D01*
X009297Y007430D01*
X009297Y006970D01*
X009476Y006970D01*
X009757Y007251D01*
X009757Y007430D01*
X009297Y007430D01*
X009257Y007430D01*
X009257Y006970D01*
X009257Y007029D02*
X009297Y007029D01*
X009297Y007188D02*
X009257Y007188D01*
X009257Y007346D02*
X009297Y007346D01*
X009297Y007505D02*
X009257Y007505D01*
X009257Y007663D02*
X009297Y007663D01*
X009297Y007822D02*
X009257Y007822D01*
X009585Y007822D02*
X009970Y007822D01*
X009812Y007663D02*
X009743Y007663D01*
X009757Y007505D02*
X009797Y007505D01*
X009797Y007346D02*
X009757Y007346D01*
X009694Y007188D02*
X009861Y007188D01*
X010019Y007029D02*
X009535Y007029D01*
X009536Y006871D02*
X010019Y006871D01*
X009861Y006712D02*
X009694Y006712D01*
X009757Y006554D02*
X009797Y006554D01*
X009797Y006395D02*
X009757Y006395D01*
X009743Y006237D02*
X009812Y006237D01*
X009970Y006078D02*
X009584Y006078D01*
X010018Y005761D02*
X008673Y005761D01*
X008257Y005970D02*
X008257Y006430D01*
X007797Y006430D01*
X007797Y006251D01*
X008079Y005970D01*
X008257Y005970D01*
X008257Y006078D02*
X008297Y006078D01*
X008297Y006237D02*
X008257Y006237D01*
X008257Y006395D02*
X008297Y006395D01*
X008297Y006430D02*
X008257Y006430D01*
X008257Y006470D01*
X007797Y006470D01*
X007797Y006649D01*
X008079Y006930D01*
X008257Y006930D01*
X008257Y006470D01*
X008297Y006470D01*
X008297Y006930D01*
X008476Y006930D01*
X008757Y006649D01*
X008757Y006470D01*
X008297Y006470D01*
X008297Y006430D01*
X008297Y006554D02*
X008257Y006554D01*
X008257Y006712D02*
X008297Y006712D01*
X008297Y006871D02*
X008257Y006871D01*
X008257Y007029D02*
X008297Y007029D01*
X008297Y007188D02*
X008257Y007188D01*
X008257Y007346D02*
X008297Y007346D01*
X008535Y007029D02*
X009019Y007029D01*
X009019Y006871D02*
X008536Y006871D01*
X008694Y006712D02*
X008861Y006712D01*
X008797Y006554D02*
X008757Y006554D01*
X008757Y006395D02*
X008797Y006395D01*
X008812Y006237D02*
X008743Y006237D01*
X008277Y005450D02*
X010081Y005450D01*
X010199Y005332D01*
X010379Y005761D02*
X010910Y005761D01*
X010797Y005603D02*
X010587Y005603D01*
X010656Y005444D02*
X011257Y005444D01*
X011277Y005450D02*
X011773Y005946D01*
X016191Y005946D01*
X016230Y005907D01*
X016322Y005761D02*
X015673Y005761D01*
X015777Y005603D02*
X016163Y005603D01*
X016158Y005444D02*
X015777Y005444D01*
X015777Y005286D02*
X016158Y005286D01*
X016239Y005127D02*
X015662Y005127D01*
X015503Y004969D02*
X016397Y004969D01*
X016371Y004810D02*
X015624Y004810D01*
X015777Y004652D02*
X016212Y004652D01*
X016158Y004493D02*
X015777Y004493D01*
X015777Y004335D02*
X016158Y004335D01*
X016190Y004176D02*
X015711Y004176D01*
X015552Y004018D02*
X016348Y004018D01*
X016420Y003859D02*
X015575Y003859D01*
X015734Y003701D02*
X016261Y003701D01*
X016158Y003542D02*
X015777Y003542D01*
X015777Y003384D02*
X016158Y003384D01*
X016234Y002674D02*
X015761Y002674D01*
X015777Y002657D01*
X015777Y002243D01*
X015725Y002191D01*
X016175Y002191D01*
X016158Y002208D01*
X016158Y002597D01*
X016234Y002674D01*
X016158Y002591D02*
X015777Y002591D01*
X015777Y002433D02*
X016158Y002433D01*
X016158Y002274D02*
X015777Y002274D01*
X015777Y001631D02*
X016213Y001631D01*
X016158Y001496D01*
X016158Y001309D01*
X016200Y001208D01*
X015742Y001208D01*
X015777Y001243D01*
X015777Y001631D01*
X015777Y001482D02*
X016158Y001482D01*
X016158Y001323D02*
X015777Y001323D01*
X014813Y001208D02*
X014742Y001208D01*
X014777Y001243D01*
X014777Y001631D01*
X014777Y001631D01*
X014777Y001243D01*
X014813Y001208D01*
X014777Y001323D02*
X014777Y001323D01*
X014777Y001482D02*
X014777Y001482D01*
X014725Y002191D02*
X014777Y002243D01*
X014777Y002657D01*
X014761Y002674D01*
X014794Y002674D01*
X014777Y002657D01*
X014777Y002243D01*
X014830Y002191D01*
X014725Y002191D01*
X014777Y002274D02*
X014777Y002274D01*
X014777Y002433D02*
X014777Y002433D01*
X014777Y002591D02*
X014777Y002591D01*
X014768Y003234D02*
X014777Y003243D01*
X014777Y003657D01*
X014777Y003243D01*
X014786Y003234D01*
X014768Y003234D01*
X014777Y003384D02*
X014777Y003384D01*
X014777Y003542D02*
X014777Y003542D01*
X014734Y003701D02*
X014821Y003701D01*
X014979Y003859D02*
X014575Y003859D01*
X014552Y004018D02*
X015003Y004018D01*
X014844Y004176D02*
X014711Y004176D01*
X014777Y004335D02*
X014777Y004335D01*
X014777Y004493D02*
X014777Y004493D01*
X014777Y004652D02*
X014777Y004652D01*
X014624Y004810D02*
X014930Y004810D01*
X015052Y004969D02*
X014503Y004969D01*
X014662Y005127D02*
X014893Y005127D01*
X014777Y005286D02*
X014777Y005286D01*
X014777Y005444D02*
X014777Y005444D01*
X014777Y005603D02*
X014777Y005603D01*
X014673Y005761D02*
X014881Y005761D01*
X015040Y005920D02*
X014515Y005920D01*
X014613Y006078D02*
X014942Y006078D01*
X014784Y006237D02*
X014771Y006237D01*
X014777Y006395D02*
X014777Y006395D01*
X014777Y006554D02*
X014777Y006554D01*
X014765Y007230D02*
X014777Y007243D01*
X014777Y007554D01*
X014777Y007554D01*
X014777Y007243D01*
X014790Y007230D01*
X014765Y007230D01*
X014777Y007346D02*
X014777Y007346D01*
X014777Y007505D02*
X014777Y007505D01*
X014781Y007954D02*
X014277Y007450D01*
X013942Y007822D02*
X013613Y007822D01*
X013485Y007950D02*
X013070Y007950D01*
X013485Y007950D01*
X013777Y007657D01*
X013777Y007243D01*
X013765Y007230D01*
X013790Y007230D01*
X013777Y007243D01*
X013777Y007657D01*
X014070Y007950D01*
X014381Y007950D01*
X014381Y007950D01*
X014070Y007950D01*
X013777Y008243D01*
X013777Y008609D01*
X013777Y008609D01*
X013777Y008243D01*
X013485Y007950D01*
X013515Y007980D02*
X014040Y007980D01*
X013882Y008139D02*
X013673Y008139D01*
X013777Y008297D02*
X013777Y008297D01*
X013777Y008456D02*
X013777Y008456D01*
X013277Y008505D02*
X013730Y008958D01*
X015836Y008958D01*
X016033Y009155D01*
X016033Y009627D01*
X016628Y010222D01*
X016628Y010403D01*
X017098Y010358D02*
X017158Y010358D01*
X017158Y010329D02*
X017098Y010269D01*
X017098Y010597D01*
X017069Y010627D01*
X017187Y010627D01*
X017158Y010597D01*
X017158Y010329D01*
X017158Y010516D02*
X017098Y010516D01*
X017494Y010873D02*
X017554Y010933D01*
X017823Y010933D01*
X017839Y010949D01*
X017839Y010857D01*
X017823Y010873D01*
X017494Y010873D01*
X017628Y010403D02*
X017136Y009911D01*
X017136Y009096D01*
X016939Y008899D01*
X016329Y008899D01*
X015974Y008544D01*
X015974Y008151D01*
X015777Y007954D01*
X014781Y007954D01*
X014786Y008234D02*
X014768Y008234D01*
X014777Y008243D01*
X014777Y008657D01*
X014757Y008678D01*
X014798Y008678D01*
X014777Y008657D01*
X014777Y008243D01*
X014786Y008234D01*
X014777Y008297D02*
X014777Y008297D01*
X014777Y008456D02*
X014777Y008456D01*
X014777Y008614D02*
X014777Y008614D01*
X014772Y009238D02*
X014777Y009243D01*
X014777Y009657D01*
X014772Y009662D01*
X014782Y009662D01*
X014777Y009657D01*
X014777Y009243D01*
X014782Y009238D01*
X014772Y009238D01*
X014777Y009248D02*
X014777Y009248D01*
X014777Y009407D02*
X014777Y009407D01*
X014777Y009565D02*
X014777Y009565D01*
X014757Y010222D02*
X014777Y010243D01*
X014777Y010657D01*
X014557Y010877D01*
X014557Y010905D01*
X014614Y010961D01*
X015928Y010961D01*
X015875Y010908D01*
X015796Y010829D01*
X015753Y010726D01*
X015753Y010681D01*
X015485Y010950D01*
X015070Y010950D01*
X014777Y010657D01*
X014777Y010243D01*
X014798Y010222D01*
X014757Y010222D01*
X014777Y010358D02*
X014777Y010358D01*
X014777Y010516D02*
X014777Y010516D01*
X014760Y010675D02*
X014795Y010675D01*
X014953Y010833D02*
X014601Y010833D01*
X014277Y011021D02*
X014498Y011241D01*
X016466Y011241D01*
X016628Y011403D01*
X017098Y011467D02*
X017158Y011467D01*
X017158Y011597D02*
X017158Y011329D01*
X017098Y011269D01*
X017098Y011597D01*
X017065Y011631D01*
X017191Y011631D01*
X017158Y011597D01*
X017186Y011626D02*
X017070Y011626D01*
X017098Y011309D02*
X017138Y011309D01*
X016191Y011631D02*
X016158Y011597D01*
X016158Y011521D01*
X015764Y011521D01*
X015874Y011631D01*
X016191Y011631D01*
X016186Y011626D02*
X015869Y011626D01*
X015800Y010833D02*
X015601Y010833D01*
X014277Y011021D02*
X014277Y010450D01*
X013953Y010833D02*
X013601Y010833D01*
X013485Y010950D02*
X013070Y010950D01*
X012777Y010657D01*
X012485Y010950D01*
X012070Y010950D01*
X011777Y010657D01*
X011777Y010243D01*
X012070Y009950D01*
X012427Y009950D01*
X012427Y009950D01*
X012002Y009882D02*
X011524Y009882D01*
X011476Y009930D02*
X011297Y009930D01*
X011297Y009470D01*
X011757Y009470D01*
X011757Y009649D01*
X011476Y009930D01*
X011476Y009970D02*
X011757Y010251D01*
X011757Y010430D01*
X011297Y010430D01*
X011297Y009970D01*
X011476Y009970D01*
X011547Y010041D02*
X011980Y010041D01*
X011821Y010199D02*
X011705Y010199D01*
X011757Y010358D02*
X011777Y010358D01*
X011757Y010470D02*
X011757Y010649D01*
X011476Y010930D01*
X011297Y010930D01*
X011297Y010470D01*
X011257Y010470D01*
X011257Y010430D01*
X010797Y010430D01*
X010797Y010251D01*
X011079Y009970D01*
X011257Y009970D01*
X011257Y010430D01*
X011297Y010430D01*
X011297Y010470D01*
X011757Y010470D01*
X011757Y010516D02*
X011777Y010516D01*
X011795Y010675D02*
X011732Y010675D01*
X011573Y010833D02*
X011953Y010833D01*
X011849Y011061D02*
X012081Y011061D01*
X012126Y011074D01*
X012159Y011093D01*
X012210Y011041D01*
X012888Y011041D01*
X013005Y011158D01*
X013005Y011333D01*
X013063Y011275D01*
X013202Y011218D01*
X013353Y011218D01*
X013492Y011275D01*
X013572Y011355D01*
X014216Y011355D01*
X014040Y011179D01*
X013997Y011077D01*
X013997Y010877D01*
X013777Y010657D01*
X013485Y010950D01*
X013525Y011309D02*
X014169Y011309D01*
X014028Y011150D02*
X012997Y011150D01*
X013005Y011309D02*
X013030Y011309D01*
X012549Y011537D02*
X012549Y012304D01*
X012673Y012741D02*
X012230Y012741D01*
X012136Y012646D01*
X012041Y012741D01*
X012002Y012741D01*
X012002Y013048D01*
X012640Y013048D01*
X012624Y013009D01*
X012624Y012859D01*
X012673Y012741D01*
X012624Y012894D02*
X012002Y012894D01*
X012047Y012735D02*
X012225Y012735D01*
X011722Y012304D02*
X011722Y013269D01*
X011663Y013328D01*
X011309Y013328D01*
X010266Y013328D01*
X010069Y013131D01*
X010069Y011871D01*
X009833Y011635D01*
X006253Y011635D01*
X005473Y012415D01*
X005037Y012418D02*
X004098Y012418D01*
X004098Y012260D02*
X005037Y012260D01*
X005037Y012101D02*
X003991Y012101D01*
X003832Y011943D02*
X005099Y011943D01*
X005285Y011784D02*
X003911Y011784D01*
X004070Y011626D02*
X005866Y011626D01*
X005708Y011784D02*
X005662Y011784D01*
X006025Y011467D02*
X004098Y011467D01*
X004098Y011309D02*
X007742Y011309D01*
X007931Y011309D02*
X009632Y011309D01*
X010033Y011309D02*
X011365Y011309D01*
X011365Y011218D02*
X011365Y011489D01*
X011753Y011489D01*
X011753Y011585D01*
X011365Y011585D01*
X011365Y011856D01*
X011376Y011896D01*
X011286Y011985D01*
X011286Y012623D01*
X011403Y012741D01*
X011442Y012741D01*
X011442Y012974D01*
X011384Y012950D01*
X011234Y012950D01*
X011095Y013007D01*
X011054Y013048D01*
X010798Y013048D01*
X010833Y013037D01*
X010892Y013007D01*
X010945Y012968D01*
X010991Y012922D01*
X011029Y012869D01*
X011059Y012811D01*
X011079Y012748D01*
X011090Y012684D01*
X011090Y012415D01*
X010674Y012415D01*
X010674Y012415D01*
X011090Y012415D01*
X011090Y012146D01*
X011079Y012081D01*
X011059Y012019D01*
X011029Y011960D01*
X010991Y011907D01*
X010945Y011861D01*
X010892Y011822D01*
X010833Y011793D01*
X010771Y011772D01*
X010706Y011762D01*
X010673Y011762D01*
X010673Y012415D01*
X010673Y012415D01*
X010673Y012260D02*
X010673Y012260D01*
X010673Y012101D02*
X010673Y012101D01*
X010673Y011943D02*
X010673Y011943D01*
X010673Y011784D02*
X010673Y011784D01*
X010659Y011674D02*
X010797Y011537D01*
X011801Y011537D01*
X011753Y011489D02*
X011849Y011489D01*
X011849Y011061D01*
X011849Y011150D02*
X011753Y011150D01*
X011753Y011061D02*
X011521Y011061D01*
X011476Y011074D01*
X011435Y011097D01*
X011401Y011131D01*
X011377Y011172D01*
X011365Y011218D01*
X011390Y011150D02*
X008189Y011150D01*
X008279Y010992D02*
X013997Y010992D01*
X013795Y010675D02*
X013760Y010675D01*
X013777Y010657D02*
X013777Y010243D01*
X013757Y010222D01*
X013798Y010222D01*
X013777Y010243D01*
X013777Y010657D01*
X013777Y010516D02*
X013777Y010516D01*
X013777Y010358D02*
X013777Y010358D01*
X013772Y009662D02*
X013782Y009662D01*
X013777Y009657D01*
X013772Y009662D01*
X013777Y009657D02*
X013777Y009243D01*
X013772Y009238D01*
X013782Y009238D01*
X013777Y009243D01*
X013777Y009657D01*
X013777Y009565D02*
X013777Y009565D01*
X013777Y009407D02*
X013777Y009407D01*
X013777Y009248D02*
X013777Y009248D01*
X013326Y008950D02*
X013326Y008950D01*
X013070Y008950D01*
X013326Y008950D01*
X013051Y008931D02*
X012503Y008931D01*
X012624Y009090D02*
X012931Y009090D01*
X012777Y009248D02*
X012777Y009248D01*
X012777Y009407D02*
X012777Y009407D01*
X012662Y008773D02*
X012893Y008773D01*
X012777Y008614D02*
X012777Y008614D01*
X012777Y008456D02*
X012777Y008456D01*
X012777Y008297D02*
X012777Y008297D01*
X012673Y008139D02*
X012882Y008139D01*
X013040Y007980D02*
X012515Y007980D01*
X012613Y007822D02*
X012942Y007822D01*
X012783Y007663D02*
X012771Y007663D01*
X012777Y007657D02*
X012777Y007243D01*
X012765Y007230D01*
X012790Y007230D01*
X012777Y007243D01*
X012777Y007657D01*
X012777Y007505D02*
X012777Y007505D01*
X012777Y007346D02*
X012777Y007346D01*
X012777Y006950D02*
X012277Y006450D01*
X011942Y006078D02*
X011584Y006078D01*
X011476Y005930D02*
X011297Y005930D01*
X011297Y005470D01*
X011757Y005470D01*
X011757Y005649D01*
X011476Y005930D01*
X011487Y005920D02*
X012040Y005920D01*
X011881Y005761D02*
X011645Y005761D01*
X011757Y005603D02*
X011777Y005603D01*
X011777Y005444D02*
X011297Y005444D01*
X011297Y005286D02*
X011257Y005286D01*
X011257Y005127D02*
X011297Y005127D01*
X011297Y004930D02*
X011476Y004930D01*
X011757Y004649D01*
X011757Y004470D01*
X011297Y004470D01*
X011257Y004470D01*
X011257Y004430D01*
X010797Y004430D01*
X010797Y004251D01*
X011079Y003970D01*
X011257Y003970D01*
X011257Y004430D01*
X011297Y004430D01*
X011297Y003970D01*
X011476Y003970D01*
X011757Y004251D01*
X011757Y004430D01*
X011297Y004430D01*
X011297Y004470D01*
X011297Y004930D01*
X011257Y004930D02*
X011079Y004930D01*
X010797Y004649D01*
X010797Y004470D01*
X011257Y004470D01*
X011257Y004930D01*
X011257Y004810D02*
X011297Y004810D01*
X011297Y004652D02*
X011257Y004652D01*
X011257Y004493D02*
X011297Y004493D01*
X011297Y004335D02*
X011257Y004335D01*
X011257Y004176D02*
X011297Y004176D01*
X011297Y004018D02*
X011257Y004018D01*
X011257Y003859D02*
X011297Y003859D01*
X011297Y003701D02*
X011257Y003701D01*
X011257Y003542D02*
X011297Y003542D01*
X011297Y003384D02*
X011257Y003384D01*
X011257Y003225D02*
X011297Y003225D01*
X011297Y003067D02*
X011257Y003067D01*
X011297Y002930D02*
X011476Y002930D01*
X011757Y002649D01*
X011757Y002470D01*
X011297Y002470D01*
X011297Y002930D01*
X011297Y002908D02*
X011257Y002908D01*
X011257Y002750D02*
X011297Y002750D01*
X011297Y002591D02*
X011257Y002591D01*
X011257Y002433D02*
X010300Y002433D01*
X010362Y002274D02*
X010797Y002274D01*
X010933Y002116D02*
X010362Y002116D01*
X010362Y001957D02*
X012063Y001957D01*
X012070Y001950D02*
X012485Y001950D01*
X012070Y001950D01*
X011919Y001799D02*
X011608Y001799D01*
X011476Y001930D02*
X011297Y001930D01*
X011297Y001470D01*
X011757Y001470D01*
X011757Y001649D01*
X011476Y001930D01*
X011257Y001930D02*
X011079Y001930D01*
X010797Y001649D01*
X010797Y001470D01*
X011257Y001470D01*
X011257Y001930D01*
X011257Y001799D02*
X011297Y001799D01*
X011297Y001640D02*
X011257Y001640D01*
X011257Y001482D02*
X011297Y001482D01*
X011757Y001482D02*
X011777Y001482D01*
X011777Y001640D02*
X011757Y001640D01*
X011757Y001323D02*
X011777Y001323D01*
X012485Y001950D02*
X012777Y001657D01*
X012777Y001243D01*
X012742Y001208D01*
X012813Y001208D01*
X012777Y001243D01*
X012777Y001657D01*
X013070Y001950D01*
X013381Y001950D01*
X013381Y001950D01*
X013070Y001950D01*
X012777Y002243D01*
X012777Y002554D01*
X012777Y002554D01*
X012777Y002243D01*
X012485Y001950D01*
X012492Y001957D02*
X013063Y001957D01*
X012919Y001799D02*
X012636Y001799D01*
X012777Y001640D02*
X012777Y001640D01*
X012777Y001482D02*
X012777Y001482D01*
X012777Y001323D02*
X012777Y001323D01*
X013277Y001450D02*
X013738Y001911D01*
X017116Y001911D01*
X017136Y001930D01*
X017514Y001933D02*
X017514Y001873D01*
X017823Y001873D01*
X017839Y001857D01*
X017839Y001949D01*
X017823Y001933D01*
X017514Y001933D01*
X017158Y002308D02*
X017098Y002308D01*
X017098Y002597D01*
X017021Y002674D01*
X017093Y002674D01*
X017196Y002717D01*
X017294Y002815D01*
X017373Y002894D01*
X017402Y002964D01*
X017433Y002933D01*
X017823Y002933D01*
X017839Y002949D01*
X017839Y002857D01*
X017823Y002873D01*
X017433Y002873D01*
X017158Y002597D01*
X017158Y002308D01*
X017158Y002433D02*
X017098Y002433D01*
X017098Y002591D02*
X017158Y002591D01*
X017229Y002750D02*
X017310Y002750D01*
X017379Y002908D02*
X017839Y002908D01*
X017136Y003052D02*
X017136Y005895D01*
X016628Y006403D01*
X017098Y006395D02*
X017158Y006395D01*
X017098Y006329D02*
X017098Y006572D01*
X017158Y006572D01*
X017158Y006269D01*
X017098Y006329D01*
X017098Y006554D02*
X017158Y006554D01*
X017077Y006891D02*
X016565Y006891D01*
X016506Y006950D01*
X012777Y006950D01*
X012381Y006950D02*
X012381Y006950D01*
X012070Y006950D01*
X012381Y006950D01*
X011991Y007029D02*
X011535Y007029D01*
X011536Y006871D02*
X011991Y006871D01*
X011832Y006712D02*
X011694Y006712D01*
X011757Y006554D02*
X011777Y006554D01*
X011777Y006395D02*
X011757Y006395D01*
X011743Y006237D02*
X011784Y006237D01*
X011297Y006237D02*
X011257Y006237D01*
X011257Y006395D02*
X011297Y006395D01*
X011297Y006554D02*
X011257Y006554D01*
X011257Y006712D02*
X011297Y006712D01*
X011297Y006871D02*
X011257Y006871D01*
X011257Y007029D02*
X011297Y007029D01*
X011297Y007188D02*
X011257Y007188D01*
X011257Y007346D02*
X011297Y007346D01*
X011019Y007029D02*
X010535Y007029D01*
X010536Y006871D02*
X011019Y006871D01*
X010861Y006712D02*
X010694Y006712D01*
X010757Y006554D02*
X010797Y006554D01*
X010797Y006395D02*
X010757Y006395D01*
X010743Y006237D02*
X010812Y006237D01*
X011257Y006078D02*
X011297Y006078D01*
X011297Y005920D02*
X011257Y005920D01*
X011257Y005761D02*
X011297Y005761D01*
X011297Y005603D02*
X011257Y005603D01*
X010797Y005286D02*
X010664Y005286D01*
X010618Y005127D02*
X010921Y005127D01*
X010959Y004810D02*
X008624Y004810D01*
X008503Y004969D02*
X009903Y004969D01*
X009779Y005127D02*
X008662Y005127D01*
X008777Y004652D02*
X010800Y004652D01*
X010797Y004493D02*
X008777Y004493D01*
X008777Y004335D02*
X010797Y004335D01*
X010872Y004176D02*
X008711Y004176D01*
X008552Y004018D02*
X011031Y004018D01*
X011008Y003859D02*
X008083Y003859D01*
X007924Y003701D02*
X010849Y003701D01*
X010797Y003542D02*
X007766Y003542D01*
X007607Y003384D02*
X010797Y003384D01*
X010823Y003225D02*
X007449Y003225D01*
X007123Y002750D02*
X006046Y002750D01*
X006205Y002591D02*
X006964Y002591D01*
X006806Y002433D02*
X006363Y002433D01*
X006425Y002274D02*
X006744Y002274D01*
X006744Y002116D02*
X006425Y002116D01*
X006425Y001957D02*
X006744Y001957D01*
X006744Y001799D02*
X006425Y001799D01*
X006378Y001640D02*
X006791Y001640D01*
X006949Y001482D02*
X006220Y001482D01*
X006061Y001323D02*
X007108Y001323D01*
X008030Y001323D02*
X009076Y001323D01*
X008918Y001482D02*
X008188Y001482D01*
X008347Y001640D02*
X008759Y001640D01*
X008712Y001799D02*
X008394Y001799D01*
X008394Y001957D02*
X008712Y001957D01*
X008712Y002116D02*
X008394Y002116D01*
X008394Y002274D02*
X008712Y002274D01*
X008774Y002433D02*
X008332Y002433D01*
X008173Y002591D02*
X008933Y002591D01*
X009091Y002750D02*
X008015Y002750D01*
X009983Y002750D02*
X010898Y002750D01*
X010797Y002591D02*
X010142Y002591D01*
X010362Y001799D02*
X010947Y001799D01*
X010797Y001640D02*
X010315Y001640D01*
X010157Y001482D02*
X010797Y001482D01*
X010797Y001323D02*
X009998Y001323D01*
X011257Y002116D02*
X011297Y002116D01*
X011297Y002274D02*
X011257Y002274D01*
X011297Y002433D02*
X011777Y002433D01*
X011777Y002591D02*
X011757Y002591D01*
X011657Y002750D02*
X011870Y002750D01*
X012028Y002908D02*
X011498Y002908D01*
X011573Y003067D02*
X011954Y003067D01*
X012070Y002950D02*
X012381Y002950D01*
X012381Y002950D01*
X012070Y002950D01*
X011795Y003225D02*
X011731Y003225D01*
X011757Y003384D02*
X011777Y003384D01*
X011777Y003542D02*
X011757Y003542D01*
X011706Y003701D02*
X011821Y003701D01*
X011979Y003859D02*
X011547Y003859D01*
X011524Y004018D02*
X012003Y004018D01*
X011844Y004176D02*
X011682Y004176D01*
X011757Y004335D02*
X011777Y004335D01*
X011777Y004493D02*
X011757Y004493D01*
X011755Y004652D02*
X011777Y004652D01*
X011930Y004810D02*
X011596Y004810D01*
X011633Y005127D02*
X011893Y005127D01*
X011777Y005286D02*
X011757Y005286D01*
X012052Y004969D02*
X010494Y004969D01*
X012503Y004969D02*
X013052Y004969D01*
X012930Y004810D02*
X012624Y004810D01*
X012777Y004652D02*
X012777Y004652D01*
X012777Y004493D02*
X012777Y004493D01*
X012777Y004335D02*
X012777Y004335D01*
X012711Y004176D02*
X012844Y004176D01*
X013003Y004018D02*
X012552Y004018D01*
X012575Y003859D02*
X012979Y003859D01*
X012821Y003701D02*
X012734Y003701D01*
X012777Y003657D02*
X012777Y003243D01*
X012768Y003234D01*
X012786Y003234D01*
X012777Y003243D01*
X012777Y003657D01*
X012777Y003542D02*
X012777Y003542D01*
X012777Y003384D02*
X012777Y003384D01*
X012781Y002954D02*
X017037Y002954D01*
X017136Y003052D01*
X017416Y003855D02*
X017416Y003950D01*
X017433Y003933D01*
X017823Y003933D01*
X017839Y003949D01*
X017839Y003857D01*
X017823Y003873D01*
X017433Y003873D01*
X017416Y003855D01*
X017416Y003859D02*
X017420Y003859D01*
X017836Y003859D02*
X017839Y003859D01*
X016856Y003859D02*
X016836Y003859D01*
X017416Y004855D02*
X017416Y004950D01*
X017433Y004933D01*
X017823Y004933D01*
X017839Y004949D01*
X017839Y004857D01*
X017823Y004873D01*
X017433Y004873D01*
X017416Y004855D01*
X017416Y005855D02*
X017416Y005950D01*
X017433Y005933D01*
X017823Y005933D01*
X017839Y005949D01*
X017839Y005857D01*
X017823Y005873D01*
X017433Y005873D01*
X017416Y005855D01*
X017416Y005920D02*
X017839Y005920D01*
X017839Y006857D02*
X017823Y006873D01*
X017513Y006873D01*
X017514Y006875D01*
X017514Y006933D01*
X017823Y006933D01*
X017839Y006949D01*
X017839Y006857D01*
X017839Y006871D02*
X017825Y006871D01*
X017158Y007328D02*
X017098Y007328D01*
X017098Y007597D01*
X016823Y007873D01*
X016433Y007873D01*
X016158Y007597D01*
X016158Y007230D01*
X015765Y007230D01*
X015777Y007243D01*
X015777Y007657D01*
X015761Y007674D01*
X015833Y007674D01*
X015936Y007717D01*
X016015Y007795D01*
X016212Y007992D01*
X016254Y008095D01*
X016254Y008140D01*
X016441Y007953D01*
X016618Y007953D01*
X016618Y008393D01*
X016638Y008393D01*
X016638Y008413D01*
X017078Y008413D01*
X017078Y008589D01*
X017032Y008635D01*
X017097Y008661D01*
X017176Y008740D01*
X017373Y008937D01*
X017389Y008976D01*
X017433Y008933D01*
X017823Y008933D01*
X017839Y008949D01*
X017839Y008857D01*
X017823Y008873D01*
X017433Y008873D01*
X017158Y008597D01*
X017158Y008208D01*
X017433Y007933D01*
X017823Y007933D01*
X017839Y007949D01*
X017839Y007857D01*
X017823Y007873D01*
X017433Y007873D01*
X017158Y007597D01*
X017158Y007328D01*
X017158Y007346D02*
X017098Y007346D01*
X017098Y007505D02*
X017158Y007505D01*
X017224Y007663D02*
X017032Y007663D01*
X016874Y007822D02*
X017382Y007822D01*
X017386Y007980D02*
X016842Y007980D01*
X016814Y007953D02*
X017078Y008216D01*
X017078Y008393D01*
X016638Y008393D01*
X016638Y007953D01*
X016814Y007953D01*
X016638Y007980D02*
X016618Y007980D01*
X016618Y008139D02*
X016638Y008139D01*
X016638Y008297D02*
X016618Y008297D01*
X016414Y007980D02*
X016200Y007980D01*
X016254Y008139D02*
X016256Y008139D01*
X016382Y007822D02*
X016041Y007822D01*
X016224Y007663D02*
X015771Y007663D01*
X015777Y007505D02*
X016158Y007505D01*
X016158Y007346D02*
X015777Y007346D01*
X015777Y006554D02*
X016158Y006554D01*
X016158Y006395D02*
X015777Y006395D01*
X015771Y006237D02*
X016158Y006237D01*
X016288Y006078D02*
X015613Y006078D01*
X015515Y005920D02*
X016715Y005920D01*
X017077Y006891D02*
X017136Y006950D01*
X017227Y008139D02*
X017000Y008139D01*
X017078Y008297D02*
X017158Y008297D01*
X017158Y008456D02*
X017078Y008456D01*
X017053Y008614D02*
X017175Y008614D01*
X017209Y008773D02*
X017333Y008773D01*
X017367Y008931D02*
X017839Y008931D01*
X017839Y009857D02*
X017823Y009873D01*
X017494Y009873D01*
X017554Y009933D01*
X017823Y009933D01*
X017839Y009949D01*
X017839Y009857D01*
X017839Y009882D02*
X017503Y009882D01*
X016856Y009882D02*
X016684Y009882D01*
X016675Y009873D02*
X016735Y009933D01*
X016823Y009933D01*
X016856Y009966D01*
X016856Y009840D01*
X016823Y009873D01*
X016675Y009873D01*
X016296Y012735D02*
X015802Y012735D01*
X015643Y012894D02*
X017839Y012894D01*
X016314Y013052D02*
X015485Y013052D01*
X015168Y012577D02*
X013127Y012577D01*
X013947Y013328D02*
X014203Y013584D01*
X013965Y013742D02*
X013831Y013608D01*
X011936Y013608D01*
X012055Y013657D01*
X012161Y013763D01*
X012219Y013902D01*
X012219Y013960D01*
X012823Y014564D01*
X013038Y014564D01*
X013132Y014470D01*
X013038Y014375D01*
X013038Y013816D01*
X013155Y013699D01*
X013872Y013699D01*
X013989Y013816D01*
X013989Y014105D01*
X014021Y014073D01*
X014080Y014073D01*
X014080Y013857D01*
X013965Y013742D01*
X013909Y013686D02*
X012084Y013686D01*
X012195Y013845D02*
X013038Y013845D01*
X013038Y014003D02*
X012262Y014003D01*
X012420Y014162D02*
X013038Y014162D01*
X013038Y014320D02*
X012579Y014320D01*
X012737Y014479D02*
X013123Y014479D01*
X013514Y014844D02*
X012707Y014844D01*
X011840Y013978D01*
X005403Y013978D01*
X005010Y013584D01*
X004643Y013686D02*
X003981Y013686D01*
X004078Y013589D02*
X003814Y013853D01*
X003638Y013853D01*
X003638Y013413D01*
X004078Y013413D01*
X004078Y013589D01*
X004078Y013528D02*
X004632Y013528D01*
X004690Y013369D02*
X004078Y013369D01*
X004072Y013211D02*
X004923Y013211D01*
X005097Y013211D02*
X006838Y013211D01*
X006797Y013369D02*
X005330Y013369D01*
X005388Y013528D02*
X006797Y013528D01*
X006835Y013686D02*
X005508Y013686D01*
X005033Y014003D02*
X003893Y014003D01*
X003823Y013933D02*
X004098Y014208D01*
X004098Y014597D01*
X003823Y014873D01*
X003433Y014873D01*
X003158Y014597D01*
X003158Y014208D01*
X003433Y013933D01*
X003823Y013933D01*
X003822Y013845D02*
X004736Y013845D01*
X004887Y014162D02*
X004051Y014162D01*
X004098Y014320D02*
X004797Y014320D01*
X004797Y014470D02*
X005257Y014470D01*
X005257Y014930D01*
X005079Y014930D01*
X004797Y014649D01*
X004797Y014470D01*
X004797Y014479D02*
X004098Y014479D01*
X004058Y014637D02*
X004797Y014637D01*
X004944Y014796D02*
X003900Y014796D01*
X003823Y014933D02*
X004098Y015208D01*
X004098Y015597D01*
X003823Y015873D01*
X003433Y015873D01*
X003158Y015597D01*
X003158Y015208D01*
X003433Y014933D01*
X003823Y014933D01*
X003844Y014954D02*
X006066Y014954D01*
X005916Y014796D02*
X005611Y014796D01*
X005476Y014930D02*
X005757Y014649D01*
X005757Y014470D01*
X005297Y014470D01*
X005297Y014930D01*
X005476Y014930D01*
X005476Y014970D02*
X005757Y015251D01*
X005757Y015430D01*
X005297Y015430D01*
X005297Y014970D01*
X005476Y014970D01*
X005619Y015113D02*
X005908Y015113D01*
X005777Y015271D02*
X005757Y015271D01*
X005757Y015430D02*
X005777Y015430D01*
X005757Y015470D02*
X005757Y015649D01*
X005476Y015930D01*
X005297Y015930D01*
X005297Y015470D01*
X005257Y015470D01*
X005257Y015430D01*
X004797Y015430D01*
X004797Y015251D01*
X005079Y014970D01*
X005257Y014970D01*
X005257Y015430D01*
X005297Y015430D01*
X005297Y015470D01*
X005757Y015470D01*
X005757Y015588D02*
X005777Y015588D01*
X005867Y015747D02*
X005660Y015747D01*
X005501Y015905D02*
X006025Y015905D01*
X005957Y016064D02*
X005570Y016064D01*
X005728Y016222D02*
X005798Y016222D01*
X005777Y016381D02*
X005757Y016381D01*
X005757Y016539D02*
X005777Y016539D01*
X005297Y016381D02*
X005257Y016381D01*
X005257Y016222D02*
X005297Y016222D01*
X005297Y016064D02*
X005257Y016064D01*
X005257Y015930D02*
X005079Y015930D01*
X004797Y015649D01*
X004797Y015470D01*
X005257Y015470D01*
X005257Y015930D01*
X005257Y015905D02*
X005297Y015905D01*
X005297Y015747D02*
X005257Y015747D01*
X005257Y015588D02*
X005297Y015588D01*
X005297Y015430D02*
X005257Y015430D01*
X005257Y015271D02*
X005297Y015271D01*
X005297Y015113D02*
X005257Y015113D01*
X005257Y014796D02*
X005297Y014796D01*
X005297Y014637D02*
X005257Y014637D01*
X005257Y014479D02*
X005297Y014479D01*
X005757Y014479D02*
X005777Y014479D01*
X005777Y014637D02*
X005757Y014637D01*
X005757Y014320D02*
X005777Y014320D01*
X006489Y014954D02*
X007066Y014954D01*
X006916Y014796D02*
X006639Y014796D01*
X006777Y014657D02*
X006777Y014258D01*
X006777Y014258D01*
X006777Y014657D01*
X006777Y014637D02*
X006777Y014637D01*
X006777Y014479D02*
X006777Y014479D01*
X006777Y014320D02*
X006777Y014320D01*
X006647Y015113D02*
X006908Y015113D01*
X006777Y015271D02*
X006777Y015271D01*
X006777Y015430D02*
X006777Y015430D01*
X006777Y015588D02*
X006777Y015588D01*
X006688Y015747D02*
X006867Y015747D01*
X007025Y015905D02*
X006529Y015905D01*
X006598Y016064D02*
X006957Y016064D01*
X006798Y016222D02*
X006757Y016222D01*
X006777Y016381D02*
X006777Y016381D01*
X006777Y016539D02*
X006777Y016539D01*
X006777Y017250D02*
X006777Y017657D01*
X006761Y017674D01*
X006794Y017674D01*
X006777Y017657D01*
X006777Y017250D01*
X006777Y017250D01*
X006777Y017332D02*
X006777Y017332D01*
X006777Y017490D02*
X006777Y017490D01*
X006777Y017649D02*
X006777Y017649D01*
X006827Y018283D02*
X004144Y018283D01*
X004098Y018441D02*
X007257Y018441D01*
X007277Y018450D02*
X005439Y018450D01*
X005246Y018643D01*
X005640Y019075D02*
X005717Y019075D01*
X005875Y018917D02*
X002417Y018917D01*
X002417Y019075D02*
X002603Y019075D01*
X002544Y019234D02*
X002417Y019234D01*
X002417Y019392D02*
X002544Y019392D01*
X002507Y019551D02*
X002417Y019551D01*
X002417Y020050D02*
X002417Y020173D01*
X002539Y020173D01*
X002525Y020159D01*
X002417Y020050D01*
X002618Y018758D02*
X002638Y018758D01*
X002638Y018600D02*
X002618Y018600D01*
X002618Y018441D02*
X002638Y018441D01*
X002628Y018403D02*
X003628Y017403D01*
X005230Y017403D01*
X005277Y017450D01*
X005257Y017470D02*
X005257Y017430D01*
X004797Y017430D01*
X004797Y017251D01*
X004858Y017191D01*
X004052Y017191D01*
X004078Y017216D01*
X004078Y017393D01*
X003638Y017393D01*
X003638Y017413D01*
X004078Y017413D01*
X004078Y017589D01*
X003973Y017694D01*
X004021Y017674D01*
X004823Y017674D01*
X004797Y017649D01*
X004797Y017470D01*
X005257Y017470D01*
X005297Y017470D02*
X005757Y017470D01*
X005757Y017649D01*
X005732Y017674D01*
X005794Y017674D01*
X005777Y017657D01*
X005777Y017250D01*
X005756Y017250D01*
X005757Y017251D01*
X005757Y017430D01*
X005297Y017430D01*
X005297Y017470D01*
X005757Y017490D02*
X005777Y017490D01*
X005777Y017332D02*
X005757Y017332D01*
X005757Y017649D02*
X005777Y017649D01*
X004797Y017649D02*
X004018Y017649D01*
X004078Y017490D02*
X004797Y017490D01*
X004797Y017332D02*
X004078Y017332D01*
X003638Y017490D02*
X003618Y017490D01*
X003618Y017649D02*
X003638Y017649D01*
X003638Y017807D02*
X003618Y017807D01*
X004077Y017954D02*
X003628Y018403D01*
X003937Y018758D02*
X006034Y018758D01*
X006192Y019392D02*
X006797Y019392D01*
X006797Y019551D02*
X006033Y019551D01*
X005910Y019709D02*
X006858Y019709D01*
X007539Y019868D02*
X007988Y019868D01*
X007829Y019709D02*
X007697Y019709D01*
X007757Y019551D02*
X007777Y019551D01*
X007777Y019392D02*
X007757Y019392D01*
X007798Y018678D02*
X007700Y018678D01*
X007722Y018634D01*
X007746Y018562D01*
X007757Y018488D01*
X007757Y018470D01*
X007297Y018470D01*
X007297Y018430D01*
X007757Y018430D01*
X007757Y018412D01*
X007746Y018338D01*
X007722Y018266D01*
X007706Y018234D01*
X007786Y018234D01*
X007777Y018243D01*
X007777Y018657D01*
X007798Y018678D01*
X007777Y018600D02*
X007733Y018600D01*
X007777Y018441D02*
X007297Y018441D01*
X006821Y018600D02*
X004096Y018600D01*
X004077Y017954D02*
X012411Y017954D01*
X012750Y017615D01*
X012750Y016635D01*
X013220Y016698D02*
X013280Y016698D01*
X013280Y016856D02*
X013220Y016856D01*
X013213Y017015D02*
X013287Y017015D01*
X013353Y017173D02*
X013146Y017173D01*
X013030Y017332D02*
X013552Y017332D01*
X013280Y016539D02*
X013220Y016539D01*
X013220Y016381D02*
X013280Y016381D01*
X013300Y016222D02*
X013199Y016222D01*
X013113Y016064D02*
X013387Y016064D01*
X013470Y015905D02*
X012868Y015905D01*
X012632Y015905D02*
X011529Y015905D01*
X011598Y016064D02*
X012387Y016064D01*
X012300Y016222D02*
X011757Y016222D01*
X011777Y016381D02*
X012280Y016381D01*
X012280Y016539D02*
X011777Y016539D01*
X011737Y016698D02*
X012280Y016698D01*
X012280Y016856D02*
X011578Y016856D01*
X011549Y017015D02*
X012287Y017015D01*
X012353Y017173D02*
X011708Y017173D01*
X011777Y017332D02*
X012470Y017332D01*
X012470Y017490D02*
X011777Y017490D01*
X011777Y017649D02*
X012321Y017649D01*
X011006Y017015D02*
X010549Y017015D01*
X010578Y016856D02*
X010976Y016856D01*
X010818Y016698D02*
X010737Y016698D01*
X010777Y016539D02*
X010777Y016539D01*
X010777Y016381D02*
X010777Y016381D01*
X010757Y016222D02*
X010798Y016222D01*
X010957Y016064D02*
X010598Y016064D01*
X010529Y015905D02*
X011025Y015905D01*
X010867Y015747D02*
X010688Y015747D01*
X010777Y015588D02*
X010777Y015588D01*
X010777Y015430D02*
X010777Y015430D01*
X010777Y015271D02*
X010777Y015271D01*
X010647Y015113D02*
X010908Y015113D01*
X010997Y014954D02*
X010489Y014954D01*
X010639Y014796D02*
X010916Y014796D01*
X010777Y014657D02*
X010777Y014258D01*
X010777Y014258D01*
X010777Y014657D01*
X010777Y014637D02*
X010777Y014637D01*
X010777Y014479D02*
X010777Y014479D01*
X010777Y014320D02*
X010777Y014320D01*
X011277Y014450D02*
X011277Y015450D01*
X011647Y015113D02*
X012624Y015113D01*
X012421Y014954D02*
X011557Y014954D01*
X011639Y014796D02*
X012263Y014796D01*
X012104Y014637D02*
X011777Y014637D01*
X011777Y014479D02*
X011946Y014479D01*
X011777Y015271D02*
X013832Y015271D01*
X013989Y015114D02*
X014100Y015003D01*
X014100Y014867D01*
X014021Y014867D01*
X013989Y014834D01*
X013989Y015114D01*
X013989Y015113D02*
X013990Y015113D01*
X013989Y014954D02*
X014100Y014954D01*
X013904Y014479D02*
X013904Y014460D01*
X013895Y014470D01*
X013904Y014479D01*
X013904Y014479D01*
X013989Y014003D02*
X014080Y014003D01*
X014067Y013845D02*
X013989Y013845D01*
X013947Y013328D02*
X011663Y013328D01*
X011745Y013608D02*
X011564Y013608D01*
X011523Y013648D01*
X011405Y013698D01*
X011586Y013698D01*
X011626Y013657D01*
X011745Y013608D01*
X011597Y013686D02*
X011432Y013686D01*
X011186Y013686D02*
X009748Y013686D01*
X009777Y013528D02*
X010069Y013528D01*
X009911Y013369D02*
X009777Y013369D01*
X009799Y013211D02*
X009745Y013211D01*
X009789Y013052D02*
X009587Y013052D01*
X009541Y012894D02*
X009789Y012894D01*
X009789Y012735D02*
X009699Y012735D01*
X009777Y012577D02*
X009789Y012577D01*
X009777Y012418D02*
X009789Y012418D01*
X009777Y012260D02*
X009789Y012260D01*
X009789Y012101D02*
X009636Y012101D01*
X009605Y011943D02*
X006341Y011943D01*
X006996Y013052D02*
X005644Y013052D01*
X005303Y013052D02*
X003914Y013052D01*
X003638Y013052D02*
X003618Y013052D01*
X003618Y013211D02*
X003638Y013211D01*
X003618Y013528D02*
X003638Y013528D01*
X003638Y013686D02*
X003618Y013686D01*
X003618Y013845D02*
X003638Y013845D01*
X003433Y013845D02*
X002851Y013845D01*
X002893Y014003D02*
X003363Y014003D01*
X003204Y014162D02*
X003051Y014162D01*
X003098Y014320D02*
X003158Y014320D01*
X003158Y014479D02*
X003098Y014479D01*
X003058Y014637D02*
X003198Y014637D01*
X003356Y014796D02*
X002900Y014796D01*
X002844Y014954D02*
X003412Y014954D01*
X003253Y015113D02*
X003002Y015113D01*
X003098Y015271D02*
X003158Y015271D01*
X003158Y015430D02*
X003098Y015430D01*
X003098Y015588D02*
X003158Y015588D01*
X003307Y015747D02*
X002949Y015747D01*
X002417Y015905D02*
X005054Y015905D01*
X004985Y016064D02*
X003953Y016064D01*
X004098Y016222D02*
X004826Y016222D01*
X004797Y016381D02*
X004098Y016381D01*
X004098Y016539D02*
X004797Y016539D01*
X004895Y015747D02*
X003949Y015747D01*
X004098Y015588D02*
X004797Y015588D01*
X004797Y015430D02*
X004098Y015430D01*
X004098Y015271D02*
X004797Y015271D01*
X004936Y015113D02*
X004002Y015113D01*
X003420Y012894D02*
X005102Y012894D01*
X005037Y012735D02*
X003960Y012735D01*
X004098Y012577D02*
X005037Y012577D01*
X004040Y011150D02*
X007484Y011150D01*
X007394Y010992D02*
X003881Y010992D01*
X003862Y010833D02*
X004284Y010833D01*
X004478Y010631D02*
X005955Y010631D01*
X005919Y010199D02*
X005991Y010199D01*
X005110Y010351D02*
X005079Y010320D01*
X005009Y010149D01*
X005009Y009964D01*
X005079Y009792D01*
X005142Y009730D01*
X003965Y009730D01*
X003823Y009873D01*
X003433Y009873D01*
X003420Y009859D01*
X003420Y009946D01*
X003433Y009933D01*
X003823Y009933D01*
X004013Y010123D01*
X004306Y010123D01*
X004408Y010165D01*
X004594Y010351D01*
X005110Y010351D01*
X005029Y010199D02*
X004442Y010199D01*
X004250Y010403D02*
X004478Y010631D01*
X004250Y010403D02*
X003628Y010403D01*
X003930Y010041D02*
X005009Y010041D01*
X005042Y009882D02*
X003420Y009882D01*
X002860Y009882D02*
X002417Y009882D01*
X002433Y009873D02*
X002417Y009857D01*
X002417Y009949D01*
X002433Y009933D01*
X002823Y009933D01*
X002860Y009970D01*
X002860Y009836D01*
X002823Y009873D01*
X002433Y009873D01*
X002417Y010857D02*
X002417Y010949D01*
X002433Y010933D01*
X002823Y010933D01*
X002860Y010970D01*
X002860Y010836D01*
X002823Y010873D01*
X002433Y010873D01*
X002417Y010857D01*
X002417Y011857D02*
X002417Y011949D01*
X002433Y011933D01*
X002823Y011933D01*
X002860Y011970D01*
X002860Y011836D01*
X002823Y011873D01*
X002433Y011873D01*
X002417Y011857D01*
X002417Y011943D02*
X002423Y011943D01*
X002832Y011943D02*
X002860Y011943D01*
X003420Y011943D02*
X003423Y011943D01*
X002762Y012873D02*
X002433Y012873D01*
X002417Y012857D01*
X002417Y012949D01*
X002433Y012933D01*
X002702Y012933D01*
X002762Y012873D01*
X002741Y012894D02*
X002417Y012894D01*
X002417Y008949D02*
X002433Y008933D01*
X002823Y008933D01*
X002860Y008970D01*
X002860Y008836D01*
X002823Y008873D01*
X002433Y008873D01*
X002417Y008857D01*
X002417Y008949D01*
X002417Y008931D02*
X002860Y008931D01*
X002860Y007970D02*
X002860Y007836D01*
X002823Y007873D01*
X002433Y007873D01*
X002417Y007857D01*
X002417Y007949D01*
X002433Y007933D01*
X002823Y007933D01*
X002860Y007970D01*
X005564Y007029D02*
X005991Y007029D01*
X005991Y006871D02*
X005564Y006871D01*
X005722Y006712D02*
X005832Y006712D01*
X005777Y006657D02*
X005777Y006243D01*
X005777Y006657D01*
X005777Y006554D02*
X005777Y006554D01*
X005777Y006395D02*
X005777Y006395D01*
X005777Y006243D02*
X005761Y006226D01*
X005794Y006226D01*
X005777Y006243D01*
X005771Y006237D02*
X005784Y006237D01*
X005833Y007188D02*
X005722Y007188D01*
X005777Y007346D02*
X005777Y007346D01*
X005777Y007505D02*
X005777Y007505D01*
X005771Y007663D02*
X005783Y007663D01*
X007515Y005920D02*
X008040Y005920D01*
X007970Y006078D02*
X007613Y006078D01*
X007771Y006237D02*
X007812Y006237D01*
X007797Y006395D02*
X007777Y006395D01*
X007777Y006554D02*
X007797Y006554D01*
X007861Y006712D02*
X007722Y006712D01*
X007564Y006871D02*
X008019Y006871D01*
X008019Y007029D02*
X007564Y007029D01*
X007722Y007188D02*
X007861Y007188D01*
X007797Y007346D02*
X007777Y007346D01*
X007777Y007505D02*
X007797Y007505D01*
X007812Y007663D02*
X007771Y007663D01*
X008585Y007822D02*
X008970Y007822D01*
X008812Y007663D02*
X008743Y007663D01*
X008757Y007505D02*
X008797Y007505D01*
X008797Y007346D02*
X008757Y007346D01*
X008694Y007188D02*
X008861Y007188D01*
X008673Y008139D02*
X010910Y008139D01*
X010797Y008297D02*
X008777Y008297D01*
X007777Y009248D02*
X007777Y009248D01*
X007777Y009407D02*
X007777Y009407D01*
X008168Y010516D02*
X010092Y010516D01*
X010306Y010516D02*
X010797Y010516D01*
X010797Y010470D02*
X011257Y010470D01*
X011257Y010930D01*
X011079Y010930D01*
X010797Y010649D01*
X010797Y010470D01*
X010797Y010358D02*
X010556Y010358D01*
X010644Y010199D02*
X010849Y010199D01*
X011008Y010041D02*
X010664Y010041D01*
X010631Y009882D02*
X011031Y009882D01*
X011257Y009882D02*
X011297Y009882D01*
X011297Y009724D02*
X011257Y009724D01*
X011257Y009565D02*
X011297Y009565D01*
X011297Y009407D02*
X011257Y009407D01*
X011257Y009248D02*
X011297Y009248D01*
X011297Y009090D02*
X011257Y009090D01*
X011596Y009090D02*
X011931Y009090D01*
X011777Y009248D02*
X011754Y009248D01*
X011757Y009407D02*
X011777Y009407D01*
X011777Y009565D02*
X011757Y009565D01*
X011683Y009724D02*
X011844Y009724D01*
X011297Y010041D02*
X011257Y010041D01*
X011257Y010199D02*
X011297Y010199D01*
X011297Y010358D02*
X011257Y010358D01*
X011257Y010516D02*
X011297Y010516D01*
X011297Y010675D02*
X011257Y010675D01*
X011257Y010833D02*
X011297Y010833D01*
X010982Y010833D02*
X008302Y010833D01*
X008271Y010675D02*
X010823Y010675D01*
X011365Y011467D02*
X010172Y011467D01*
X010219Y011626D02*
X011365Y011626D01*
X011365Y011784D02*
X010807Y011784D01*
X011017Y011943D02*
X011329Y011943D01*
X011286Y012101D02*
X011083Y012101D01*
X011090Y012260D02*
X011286Y012260D01*
X011286Y012418D02*
X011090Y012418D01*
X011090Y012577D02*
X011286Y012577D01*
X011398Y012735D02*
X011082Y012735D01*
X011012Y012894D02*
X011442Y012894D01*
X010549Y013048D02*
X010514Y013037D01*
X010455Y013007D01*
X010402Y012968D01*
X010356Y012922D01*
X010349Y012912D01*
X010349Y013015D01*
X010382Y013048D01*
X010549Y013048D01*
X010540Y011784D02*
X010336Y011784D01*
X011753Y011489D02*
X011753Y011061D01*
X011753Y011309D02*
X011849Y011309D01*
X011849Y011467D02*
X011753Y011467D01*
X012601Y010833D02*
X012953Y010833D01*
X012795Y010675D02*
X012760Y010675D01*
X012777Y010657D02*
X012777Y010320D01*
X012777Y010320D01*
X012777Y010657D01*
X012777Y010516D02*
X012777Y010516D01*
X012777Y010358D02*
X012777Y010358D01*
X013277Y008505D02*
X013277Y008450D01*
X013771Y007663D02*
X013783Y007663D01*
X013777Y007505D02*
X013777Y007505D01*
X013777Y007346D02*
X013777Y007346D01*
X013777Y006554D02*
X013777Y006554D01*
X013777Y006395D02*
X013777Y006395D01*
X013771Y006237D02*
X013784Y006237D01*
X013942Y006078D02*
X013613Y006078D01*
X013515Y005920D02*
X014040Y005920D01*
X013881Y005761D02*
X013673Y005761D01*
X013777Y005603D02*
X013777Y005603D01*
X013777Y005444D02*
X013777Y005444D01*
X013777Y005286D02*
X013777Y005286D01*
X013662Y005127D02*
X013893Y005127D01*
X014052Y004969D02*
X013503Y004969D01*
X013624Y004810D02*
X013930Y004810D01*
X013777Y004652D02*
X013777Y004652D01*
X013777Y004493D02*
X013777Y004493D01*
X013777Y004335D02*
X013777Y004335D01*
X013711Y004176D02*
X013844Y004176D01*
X014003Y004018D02*
X013552Y004018D01*
X013575Y003859D02*
X013979Y003859D01*
X013821Y003701D02*
X013734Y003701D01*
X013777Y003657D02*
X013777Y003243D01*
X013768Y003234D01*
X013786Y003234D01*
X013777Y003243D01*
X013777Y003657D01*
X013777Y003542D02*
X013777Y003542D01*
X013777Y003384D02*
X013777Y003384D01*
X013761Y002674D02*
X013794Y002674D01*
X013777Y002657D01*
X013761Y002674D01*
X013777Y002657D02*
X013777Y002243D01*
X013725Y002191D01*
X013830Y002191D01*
X013777Y002243D01*
X013777Y002657D01*
X013777Y002591D02*
X013777Y002591D01*
X013777Y002433D02*
X013777Y002433D01*
X013777Y002274D02*
X013777Y002274D01*
X013777Y001554D02*
X013777Y001243D01*
X013777Y001554D01*
X013777Y001554D01*
X013777Y001482D02*
X013777Y001482D01*
X013777Y001323D02*
X013777Y001323D01*
X013777Y001243D02*
X013742Y001208D01*
X013813Y001208D01*
X013777Y001243D01*
X012905Y002116D02*
X012650Y002116D01*
X012777Y002274D02*
X012777Y002274D01*
X012777Y002433D02*
X012777Y002433D01*
X012277Y002450D02*
X012781Y002954D01*
X011777Y002274D02*
X011757Y002274D01*
X011622Y002116D02*
X011905Y002116D01*
X012662Y005127D02*
X012893Y005127D01*
X012777Y005286D02*
X012777Y005286D01*
X012777Y005444D02*
X012777Y005444D01*
X012777Y005603D02*
X012777Y005603D01*
X012673Y005761D02*
X012881Y005761D01*
X013040Y005920D02*
X012515Y005920D01*
X012613Y006078D02*
X012942Y006078D01*
X012784Y006237D02*
X012771Y006237D01*
X012777Y006395D02*
X012777Y006395D01*
X012777Y006554D02*
X012777Y006554D01*
X011833Y007188D02*
X011694Y007188D01*
X011757Y007346D02*
X011777Y007346D01*
X011777Y007505D02*
X011757Y007505D01*
X011743Y007663D02*
X011783Y007663D01*
X011942Y007822D02*
X011585Y007822D01*
X011486Y007980D02*
X012040Y007980D01*
X011882Y008139D02*
X011645Y008139D01*
X011757Y008297D02*
X011777Y008297D01*
X010812Y007663D02*
X010743Y007663D01*
X010757Y007505D02*
X010797Y007505D01*
X010797Y007346D02*
X010757Y007346D01*
X010694Y007188D02*
X010861Y007188D01*
X007881Y005761D02*
X007673Y005761D01*
X007777Y005603D02*
X007777Y005603D01*
X007777Y005444D02*
X007777Y005444D01*
X007777Y005286D02*
X007777Y005286D01*
X007662Y005127D02*
X007893Y005127D01*
X003310Y002750D02*
X002946Y002750D01*
X003098Y002591D02*
X003158Y002591D01*
X003158Y002433D02*
X003098Y002433D01*
X003098Y002274D02*
X003158Y002274D01*
X003250Y002116D02*
X003005Y002116D01*
X007607Y012101D02*
X007919Y012101D01*
X007777Y012260D02*
X007719Y012260D01*
X007757Y012418D02*
X007777Y012418D01*
X007777Y012577D02*
X007741Y012577D01*
X007664Y012735D02*
X007855Y012735D01*
X008541Y012894D02*
X009014Y012894D01*
X008968Y013052D02*
X008587Y013052D01*
X008745Y013211D02*
X008810Y013211D01*
X008777Y013369D02*
X008777Y013369D01*
X008777Y013528D02*
X008777Y013528D01*
X008748Y013686D02*
X008806Y013686D01*
X008777Y014258D02*
X008777Y014657D01*
X008777Y014258D01*
X008777Y014258D01*
X008777Y014320D02*
X008777Y014320D01*
X008777Y014479D02*
X008777Y014479D01*
X008777Y014637D02*
X008777Y014637D01*
X008639Y014796D02*
X008916Y014796D01*
X009066Y014954D02*
X008489Y014954D01*
X008647Y015113D02*
X008908Y015113D01*
X008777Y015271D02*
X008777Y015271D01*
X008777Y015430D02*
X008777Y015430D01*
X008777Y015588D02*
X008777Y015588D01*
X008688Y015747D02*
X008867Y015747D01*
X009025Y015905D02*
X008529Y015905D01*
X008598Y016064D02*
X008957Y016064D01*
X008798Y016222D02*
X008757Y016222D01*
X008777Y016381D02*
X008777Y016381D01*
X008777Y016539D02*
X008777Y016539D01*
X008737Y016698D02*
X008818Y016698D01*
X008976Y016856D02*
X008578Y016856D01*
X008485Y016950D02*
X008163Y016950D01*
X008485Y016950D01*
X008549Y017015D02*
X009006Y017015D01*
X008847Y017173D02*
X008708Y017173D01*
X008777Y017332D02*
X008777Y017332D01*
X008777Y017490D02*
X008777Y017490D01*
X008777Y017649D02*
X008777Y017649D01*
X008768Y018234D02*
X008777Y018243D01*
X008777Y018657D01*
X008757Y018678D01*
X008798Y018678D01*
X008777Y018657D01*
X008777Y018243D01*
X008786Y018234D01*
X008768Y018234D01*
X008777Y018283D02*
X008777Y018283D01*
X008777Y018441D02*
X008777Y018441D01*
X008777Y018600D02*
X008777Y018600D01*
X008772Y019238D02*
X008777Y019243D01*
X008777Y019657D01*
X008777Y019243D01*
X008782Y019238D01*
X008772Y019238D01*
X008777Y019392D02*
X008777Y019392D01*
X008777Y019551D02*
X008777Y019551D01*
X008725Y019709D02*
X008829Y019709D01*
X008988Y019868D02*
X008567Y019868D01*
X009777Y018420D02*
X009964Y018234D01*
X009768Y018234D01*
X009777Y018243D01*
X009777Y018420D01*
X009777Y018283D02*
X009915Y018283D01*
X009777Y017649D02*
X009777Y017649D01*
X009777Y017490D02*
X009777Y017490D01*
X009777Y017332D02*
X009777Y017332D01*
X009708Y017173D02*
X009847Y017173D01*
X010006Y017015D02*
X009549Y017015D01*
X009578Y016856D02*
X009976Y016856D01*
X009818Y016698D02*
X009737Y016698D01*
X009777Y016539D02*
X009777Y016539D01*
X009777Y016381D02*
X009777Y016381D01*
X009757Y016222D02*
X009798Y016222D01*
X009957Y016064D02*
X009598Y016064D01*
X009529Y015905D02*
X010025Y015905D01*
X009867Y015747D02*
X009688Y015747D01*
X009777Y015588D02*
X009777Y015588D01*
X009777Y015430D02*
X009777Y015430D01*
X009777Y015271D02*
X009777Y015271D01*
X009647Y015113D02*
X009908Y015113D01*
X010066Y014954D02*
X009489Y014954D01*
X009639Y014796D02*
X009916Y014796D01*
X009777Y014657D02*
X009777Y014258D01*
X009777Y014258D01*
X009777Y014657D01*
X009777Y014637D02*
X009777Y014637D01*
X009777Y014479D02*
X009777Y014479D01*
X009777Y014320D02*
X009777Y014320D01*
X008855Y012735D02*
X008699Y012735D01*
X008777Y012577D02*
X008777Y012577D01*
X008777Y012418D02*
X008777Y012418D01*
X008777Y012260D02*
X008777Y012260D01*
X008636Y012101D02*
X008919Y012101D01*
X011777Y015430D02*
X013673Y015430D01*
X013515Y015588D02*
X011777Y015588D01*
X011688Y015747D02*
X013470Y015747D01*
X014030Y015905D02*
X014632Y015905D01*
X014387Y016064D02*
X014113Y016064D01*
X014199Y016222D02*
X014300Y016222D01*
X014280Y016381D02*
X014220Y016381D01*
X014220Y016539D02*
X014280Y016539D01*
X014750Y016635D02*
X014750Y017674D01*
X014970Y017895D01*
X017120Y017895D01*
X017628Y018403D01*
X017319Y018758D02*
X016909Y018758D01*
X016819Y018848D02*
X017176Y018848D01*
X017180Y018852D01*
X017192Y018852D01*
X017196Y018856D01*
X017204Y018856D01*
X017208Y018860D01*
X017216Y018860D01*
X017220Y018864D01*
X017224Y018864D01*
X017228Y018868D01*
X017232Y018868D01*
X017236Y018872D01*
X017240Y018876D01*
X017244Y018876D01*
X017252Y018884D01*
X017256Y018884D01*
X017260Y018888D01*
X017264Y018892D01*
X017268Y018896D01*
X017272Y018900D01*
X017276Y018904D01*
X017280Y018908D01*
X017284Y018912D01*
X017288Y018916D01*
X017405Y019033D01*
X017405Y019037D01*
X017417Y019049D01*
X017417Y019053D01*
X017425Y019061D01*
X017425Y019065D01*
X017433Y019073D01*
X017433Y019077D01*
X017437Y019081D01*
X017437Y019085D01*
X017441Y019089D01*
X017441Y019093D01*
X017445Y019097D01*
X017445Y019101D01*
X017449Y019105D01*
X017449Y019109D01*
X017453Y019113D01*
X017453Y019117D01*
X017457Y019121D01*
X017457Y019125D01*
X017461Y019129D01*
X017461Y019137D01*
X017465Y019141D01*
X017465Y019145D01*
X017553Y019233D01*
X017565Y019245D01*
X017565Y019249D01*
X017569Y019253D01*
X017569Y019265D01*
X017573Y019269D01*
X017573Y019446D01*
X017569Y019450D01*
X017569Y019458D01*
X017565Y019462D01*
X017565Y019466D01*
X017561Y019470D01*
X017557Y019474D01*
X017553Y019478D01*
X017549Y019482D01*
X017549Y019482D01*
X017477Y019554D01*
X017477Y019562D01*
X017473Y019566D01*
X017473Y019570D01*
X017469Y019574D01*
X017469Y019578D01*
X017465Y019582D01*
X017465Y019582D01*
X017461Y019586D01*
X017461Y019590D01*
X017457Y019594D01*
X017453Y019598D01*
X017449Y019602D01*
X017449Y019602D01*
X017332Y019720D01*
X017324Y019728D01*
X017320Y019728D01*
X017312Y019736D01*
X017308Y019736D01*
X017304Y019740D01*
X017300Y019740D01*
X017296Y019744D01*
X017292Y019744D01*
X017288Y019748D01*
X017276Y019748D01*
X017272Y019752D01*
X017272Y019752D01*
X017273Y019753D01*
X017281Y019761D01*
X017281Y019765D01*
X017289Y019773D01*
X017293Y019777D01*
X017293Y019781D01*
X017305Y019793D01*
X017305Y019797D01*
X017309Y019801D01*
X017317Y019809D01*
X017317Y019813D01*
X017329Y019825D01*
X017329Y019829D01*
X017333Y019833D01*
X017341Y019841D01*
X017341Y019845D01*
X017349Y019853D01*
X017349Y019857D01*
X017365Y019873D01*
X017365Y019877D01*
X017369Y019881D01*
X017373Y019885D01*
X017373Y019889D01*
X017377Y019893D01*
X017385Y019901D01*
X017385Y019905D01*
X017393Y019913D01*
X017397Y019917D01*
X017397Y019921D01*
X017409Y019933D01*
X017409Y019937D01*
X017421Y019949D01*
X017421Y019953D01*
X017433Y019965D01*
X017433Y019969D01*
X017437Y019973D01*
X017445Y019981D01*
X017445Y019985D01*
X017453Y019993D01*
X017457Y019997D01*
X017457Y020001D01*
X017469Y020013D01*
X017469Y020017D01*
X017477Y020025D01*
X017477Y020173D01*
X017839Y020173D01*
X017839Y018857D01*
X017823Y018873D01*
X017433Y018873D01*
X017158Y018597D01*
X017158Y018329D01*
X017078Y018249D01*
X017078Y018393D01*
X016638Y018393D01*
X016638Y018413D01*
X017078Y018413D01*
X017078Y018589D01*
X016819Y018848D01*
X017067Y018600D02*
X017160Y018600D01*
X017158Y018441D02*
X017078Y018441D01*
X017078Y018283D02*
X017112Y018283D01*
X016628Y018403D02*
X016628Y018481D01*
X016618Y018441D02*
X016638Y018441D01*
X016441Y019075D02*
X015402Y019075D01*
X015402Y019234D02*
X016320Y019234D01*
X016301Y019269D02*
X016301Y019269D01*
X016301Y019392D02*
X015402Y019392D01*
X015402Y019551D02*
X016393Y019551D01*
X016325Y019482D02*
X016325Y019482D01*
X016301Y019446D02*
X016301Y019446D01*
X016528Y019709D02*
X015268Y019709D01*
X015109Y019868D02*
X016514Y019868D01*
X016521Y019861D02*
X016521Y019861D01*
X016397Y020026D02*
X014951Y020026D01*
X017273Y019753D02*
X017273Y019753D01*
X017289Y019773D02*
X017289Y019773D01*
X017309Y019801D02*
X017309Y019801D01*
X017333Y019833D02*
X017333Y019833D01*
X017360Y019868D02*
X017839Y019868D01*
X017839Y020026D02*
X017477Y020026D01*
X017453Y019993D02*
X017453Y019993D01*
X017437Y019973D02*
X017437Y019973D01*
X017393Y019913D02*
X017393Y019913D01*
X017377Y019893D02*
X017377Y019893D01*
X017369Y019881D02*
X017369Y019881D01*
X017332Y019720D02*
X017332Y019720D01*
X017342Y019709D02*
X017839Y019709D01*
X017839Y019551D02*
X017481Y019551D01*
X017573Y019392D02*
X017839Y019392D01*
X017839Y019234D02*
X017554Y019234D01*
X017553Y019233D02*
X017553Y019233D01*
X017433Y019075D02*
X017839Y019075D01*
X017839Y018917D02*
X017289Y018917D01*
X017264Y018892D02*
X017264Y018892D01*
X017260Y018888D02*
X017260Y018888D01*
X017554Y017933D02*
X017494Y017873D01*
X017823Y017873D01*
X017839Y017857D01*
X017839Y017949D01*
X017823Y017933D01*
X017554Y017933D01*
X017158Y017490D02*
X017098Y017490D01*
X017098Y017332D02*
X017158Y017332D01*
X017193Y017173D02*
X017063Y017173D01*
X017839Y015905D02*
X014868Y015905D01*
X010847Y017173D02*
X010708Y017173D01*
X010777Y017332D02*
X010777Y017332D01*
X010777Y017490D02*
X010777Y017490D01*
X010777Y017649D02*
X010777Y017649D01*
X008163Y016950D02*
X008163Y016950D01*
X007777Y017387D02*
X007777Y017657D01*
X007761Y017674D01*
X007794Y017674D01*
X007777Y017657D01*
X007777Y017387D01*
X007777Y017387D01*
X007777Y017490D02*
X007777Y017490D01*
X007777Y017649D02*
X007777Y017649D01*
X007777Y018283D02*
X007728Y018283D01*
X002638Y018283D02*
X002618Y018283D01*
X002618Y018124D02*
X002638Y018124D01*
X002638Y017966D02*
X002618Y017966D01*
X002429Y017966D02*
X002417Y017966D01*
X017075Y001552D02*
X017158Y001552D01*
X017158Y001208D01*
X017158Y001208D01*
X017056Y001208D01*
X017098Y001309D01*
X017098Y001496D01*
X017075Y001552D01*
X017098Y001482D02*
X017158Y001482D01*
X017158Y001323D02*
X017098Y001323D01*
D11*
X003255Y019225D02*
X003255Y019505D01*
X003395Y019505D01*
X003442Y019459D01*
X003442Y019365D01*
X003395Y019319D01*
X003255Y019319D01*
X003152Y019225D02*
X003058Y019225D01*
X003105Y019225D02*
X003105Y019505D01*
X003058Y019505D02*
X003152Y019505D01*
X002951Y019459D02*
X002951Y019272D01*
X002904Y019225D01*
X002764Y019225D01*
X002764Y019505D01*
X002904Y019505D01*
X002951Y019459D01*
X002911Y019705D02*
X002911Y019985D01*
X003098Y019705D01*
X003098Y019985D01*
X003206Y019985D02*
X003299Y019985D01*
X003252Y019985D02*
X003252Y019705D01*
X003206Y019705D02*
X003299Y019705D01*
X003402Y019752D02*
X003449Y019705D01*
X003542Y019705D01*
X003589Y019752D01*
X003589Y019939D01*
X003542Y019985D01*
X003449Y019985D01*
X003402Y019939D01*
X003402Y019752D01*
X003697Y019705D02*
X003697Y019985D01*
X003884Y019705D01*
X003884Y019985D01*
X002803Y019939D02*
X002803Y019752D01*
X002757Y019705D01*
X002663Y019705D01*
X002616Y019752D01*
X002616Y019939D01*
X002663Y019985D01*
X002757Y019985D01*
X002803Y019939D01*
D12*
X002628Y001403D03*
X016628Y001403D03*
D13*
X016628Y002403D03*
X016628Y003403D03*
X016628Y004403D03*
X016628Y005403D03*
X016628Y006403D03*
X016628Y007403D03*
X016628Y008403D03*
X016628Y009403D03*
X016628Y010403D03*
X016628Y011403D03*
X016628Y012403D03*
X016628Y013403D03*
X016628Y014403D03*
X016628Y015403D03*
X016628Y016403D03*
X016628Y017403D03*
X016628Y018403D03*
X017628Y018403D03*
X017628Y017403D03*
X017628Y016403D03*
X017628Y015403D03*
X017628Y014403D03*
X017628Y013403D03*
X017628Y012403D03*
X017628Y011403D03*
X017628Y010403D03*
X017628Y009403D03*
X017628Y008403D03*
X017628Y007403D03*
X017628Y006403D03*
X017628Y005403D03*
X017628Y004403D03*
X017628Y003403D03*
X017628Y002403D03*
X017628Y001403D03*
X003628Y001403D03*
X003628Y002403D03*
X003628Y003403D03*
X003628Y004403D03*
X003628Y005403D03*
X003628Y006403D03*
X003628Y007403D03*
X003628Y008403D03*
X003628Y009403D03*
X003628Y010403D03*
X003628Y011403D03*
X003628Y012403D03*
X003628Y013403D03*
X003628Y014403D03*
X003628Y015403D03*
X003628Y016403D03*
X003628Y017403D03*
X003628Y018403D03*
X002628Y018403D03*
X002628Y017403D03*
X002628Y016403D03*
X002628Y015403D03*
X002628Y014403D03*
X002628Y013403D03*
X002628Y012403D03*
X002628Y011403D03*
X002628Y010403D03*
X002628Y009403D03*
X002628Y008403D03*
X002628Y007403D03*
X002628Y006403D03*
X002628Y005403D03*
X002628Y004403D03*
X002628Y003403D03*
X002628Y002403D03*
D14*
X016937Y019050D03*
X016941Y019562D03*
X016937Y019862D03*
X016937Y019866D03*
D15*
X016937Y019054D03*
D16*
X016937Y019058D03*
D17*
X016937Y019062D03*
X016913Y019546D03*
D18*
X016937Y019926D03*
X016937Y019930D03*
X016937Y020186D03*
X016937Y019066D03*
D19*
X016937Y019070D03*
D20*
X016937Y019074D03*
X016937Y019946D03*
X016937Y020182D03*
D21*
X016937Y019078D03*
D22*
X016937Y019082D03*
D23*
X016937Y019086D03*
D24*
X016937Y019090D03*
X016937Y020174D03*
D25*
X016937Y019982D03*
X016937Y019094D03*
D26*
X016937Y019098D03*
D27*
X016937Y019102D03*
X016937Y019994D03*
D28*
X016937Y020166D03*
X016937Y019106D03*
D29*
X016937Y019110D03*
X016937Y020002D03*
X016937Y020006D03*
D30*
X016937Y020010D03*
X016937Y019114D03*
D31*
X016937Y019118D03*
D32*
X016937Y019122D03*
X016937Y020014D03*
X016937Y020162D03*
D33*
X016937Y020022D03*
X016937Y019126D03*
D34*
X016937Y019130D03*
X016937Y020026D03*
D35*
X016937Y020030D03*
X016937Y019134D03*
D36*
X016937Y019138D03*
D37*
X016937Y019142D03*
X016937Y020034D03*
X016937Y020154D03*
D38*
X016937Y019150D03*
X016937Y019146D03*
D39*
X016937Y019154D03*
X016937Y020150D03*
D40*
X016937Y019158D03*
D41*
X016937Y019162D03*
D42*
X016937Y019166D03*
X016937Y019170D03*
D43*
X016937Y019174D03*
X016937Y020142D03*
D44*
X016937Y019178D03*
D45*
X016937Y019182D03*
X016937Y019186D03*
D46*
X016937Y019190D03*
X016937Y019194D03*
D47*
X016937Y019198D03*
D48*
X016937Y019202D03*
X016937Y020134D03*
D49*
X016937Y019210D03*
X016937Y019206D03*
D50*
X016937Y019214D03*
X016937Y019222D03*
X016937Y020130D03*
D51*
X016937Y019218D03*
D52*
X016937Y019226D03*
X016937Y019230D03*
X016937Y020094D03*
X016937Y020126D03*
D53*
X016937Y020122D03*
X016937Y020102D03*
X016937Y019234D03*
D54*
X016937Y019238D03*
X016937Y020098D03*
D55*
X016937Y020106D03*
X016941Y019474D03*
X016937Y019250D03*
X016937Y019246D03*
X016937Y019242D03*
D56*
X016937Y019254D03*
X016937Y019470D03*
X016937Y020110D03*
X016937Y020114D03*
D57*
X016937Y019258D03*
D58*
X016937Y019262D03*
X016937Y019266D03*
X016937Y019466D03*
D59*
X016937Y019274D03*
X016937Y019270D03*
D60*
X016939Y019278D03*
D61*
X016939Y019282D03*
X016939Y019286D03*
D62*
X016939Y019290D03*
X016939Y019294D03*
D63*
X016937Y019298D03*
D64*
X016937Y019302D03*
D65*
X016935Y019306D03*
D66*
X016937Y019310D03*
X016937Y019402D03*
D67*
X016937Y019314D03*
D68*
X016937Y019318D03*
D69*
X016937Y019322D03*
X016937Y019390D03*
D70*
X016937Y019386D03*
X016937Y019326D03*
D71*
X016937Y019330D03*
X016937Y019382D03*
D72*
X016935Y019334D03*
D73*
X016937Y019338D03*
D74*
X016937Y019342D03*
X016937Y019370D03*
X016937Y019374D03*
D75*
X016935Y019366D03*
X016935Y019350D03*
X016935Y019346D03*
D76*
X016937Y019354D03*
X016937Y019362D03*
D77*
X016937Y019358D03*
D78*
X016935Y019378D03*
D79*
X016937Y019394D03*
D80*
X016937Y019398D03*
D81*
X016927Y019434D03*
X016931Y019446D03*
D82*
X016929Y019438D03*
D83*
X016929Y019442D03*
D84*
X016931Y019450D03*
X016931Y019454D03*
D85*
X016933Y019458D03*
D86*
X016935Y019462D03*
D87*
X016943Y019478D03*
D88*
X016943Y019482D03*
X016943Y019486D03*
D89*
X017043Y019490D03*
D90*
X016711Y019506D03*
X016707Y019494D03*
X016707Y019490D03*
D91*
X017045Y019494D03*
D92*
X017045Y019498D03*
D93*
X016709Y019498D03*
D94*
X017045Y019502D03*
D95*
X016709Y019502D03*
D96*
X017049Y019506D03*
D97*
X017051Y019510D03*
D98*
X016749Y019514D03*
X016745Y019510D03*
X016829Y019886D03*
X016825Y019890D03*
D99*
X016639Y019510D03*
D100*
X017053Y019514D03*
X016937Y019922D03*
D101*
X016937Y019662D03*
X016621Y019514D03*
D102*
X017055Y019518D03*
D103*
X016755Y019518D03*
X017099Y019958D03*
D104*
X017049Y020046D03*
X017065Y019522D03*
D105*
X016937Y019590D03*
X016937Y019746D03*
X016817Y019906D03*
X016757Y019522D03*
D106*
X017071Y019526D03*
D107*
X016763Y019526D03*
X016815Y019910D03*
D108*
X017005Y019966D03*
X017069Y019530D03*
D109*
X016769Y019530D03*
D110*
X017067Y019534D03*
D111*
X016939Y019586D03*
X016775Y019534D03*
D112*
X017061Y019538D03*
X016937Y020198D03*
D113*
X016819Y019918D03*
X016783Y019538D03*
D114*
X017055Y019542D03*
D115*
X016801Y019542D03*
D116*
X016937Y019706D03*
X016937Y019710D03*
X017165Y019546D03*
D117*
X017163Y019550D03*
X017063Y019574D03*
D118*
X016915Y019550D03*
D119*
X016919Y019554D03*
D120*
X016923Y019558D03*
X017043Y020038D03*
D121*
X016771Y019562D03*
D122*
X016943Y019566D03*
D123*
X017063Y019570D03*
D124*
X016909Y019570D03*
X016937Y019814D03*
X017137Y020082D03*
X016937Y020206D03*
D125*
X017125Y020062D03*
X017129Y020066D03*
X016909Y019574D03*
D126*
X017067Y019578D03*
D127*
X016939Y019578D03*
D128*
X016825Y019578D03*
D129*
X017067Y019582D03*
D130*
X016939Y019582D03*
D131*
X016937Y019686D03*
X016821Y019582D03*
D132*
X017069Y019586D03*
D133*
X016939Y019610D03*
X016819Y019586D03*
D134*
X016813Y019594D03*
X017069Y019590D03*
D135*
X016815Y019590D03*
D136*
X017071Y019594D03*
D137*
X016939Y019594D03*
X017095Y019950D03*
X016763Y019974D03*
D138*
X016939Y019598D03*
D139*
X016809Y019598D03*
D140*
X016939Y019602D03*
D141*
X016939Y019606D03*
D142*
X016937Y019658D03*
D143*
X016937Y019666D03*
D144*
X016937Y019670D03*
D145*
X016937Y019674D03*
D146*
X016937Y019678D03*
D147*
X016937Y019682D03*
D148*
X016937Y019690D03*
X016937Y019694D03*
D149*
X016937Y019698D03*
D150*
X016937Y019702D03*
D151*
X016937Y019714D03*
D152*
X016937Y019718D03*
D153*
X016937Y019722D03*
X016937Y019726D03*
D154*
X016937Y019730D03*
D155*
X016937Y019734D03*
X016761Y019970D03*
D156*
X016939Y019738D03*
D157*
X016937Y019742D03*
X016821Y019894D03*
X016817Y019902D03*
X017097Y019954D03*
D158*
X016937Y019750D03*
X016817Y019914D03*
D159*
X016937Y019754D03*
D160*
X016937Y019758D03*
D161*
X016937Y019762D03*
D162*
X016937Y019766D03*
X016937Y019770D03*
D163*
X016937Y019774D03*
D164*
X016937Y019778D03*
D165*
X016937Y019782D03*
X016937Y019786D03*
D166*
X016937Y019790D03*
X017009Y019886D03*
X017013Y019890D03*
X017017Y019894D03*
D167*
X017021Y019906D03*
X016937Y019794D03*
D168*
X016937Y019798D03*
D169*
X016937Y019802D03*
D170*
X016937Y019806D03*
D171*
X016937Y019810D03*
X017133Y020074D03*
D172*
X016937Y019818D03*
D173*
X016937Y019822D03*
D174*
X016937Y019826D03*
D175*
X016937Y019830D03*
X016937Y019834D03*
D176*
X016937Y019838D03*
D177*
X016937Y019842D03*
X016937Y020202D03*
D178*
X016937Y019850D03*
X016937Y019846D03*
D179*
X016937Y019854D03*
D180*
X016937Y019858D03*
D181*
X016937Y019870D03*
D182*
X016937Y019874D03*
D183*
X016937Y019878D03*
D184*
X016937Y019882D03*
D185*
X017017Y019898D03*
D186*
X016821Y019898D03*
D187*
X016751Y020042D03*
X017019Y019902D03*
D188*
X017021Y019910D03*
X017021Y019914D03*
D189*
X017019Y019918D03*
D190*
X016937Y019934D03*
D191*
X016937Y019938D03*
D192*
X016935Y019942D03*
D193*
X016869Y019950D03*
D194*
X016927Y019954D03*
X016931Y019962D03*
D195*
X016769Y019954D03*
X016765Y019962D03*
D196*
X016929Y019958D03*
D197*
X016765Y019958D03*
D198*
X017099Y019962D03*
D199*
X016763Y019966D03*
D200*
X017007Y019970D03*
D201*
X017005Y019974D03*
D202*
X016937Y019978D03*
D203*
X016937Y019986D03*
X016937Y019990D03*
X016937Y020170D03*
D204*
X016937Y019998D03*
D205*
X016937Y020018D03*
D206*
X016757Y020038D03*
D207*
X016807Y020066D03*
X016807Y020070D03*
X017047Y020042D03*
D208*
X016749Y020046D03*
D209*
X017051Y020050D03*
D210*
X016747Y020050D03*
D211*
X017049Y020054D03*
D212*
X016751Y020054D03*
D213*
X016937Y020058D03*
D214*
X016811Y020062D03*
X016803Y020074D03*
D215*
X017131Y020070D03*
D216*
X017135Y020078D03*
D217*
X016801Y020078D03*
D218*
X016801Y020082D03*
X016801Y020086D03*
D219*
X017135Y020086D03*
D220*
X017135Y020090D03*
D221*
X016801Y020090D03*
D222*
X016937Y020118D03*
D223*
X016937Y020138D03*
D224*
X016935Y020146D03*
D225*
X016937Y020158D03*
D226*
X016937Y020178D03*
D227*
X016937Y020190D03*
D228*
X016937Y020194D03*
D229*
X016939Y020210D03*
D230*
X016935Y020214D03*
D231*
X014577Y019233D03*
X012608Y019233D03*
X009537Y002029D03*
X007569Y002029D03*
X005600Y002029D03*
D232*
X005473Y012178D02*
X005473Y012651D01*
X010673Y012651D02*
X010673Y012178D01*
X010673Y019478D02*
X010673Y019951D01*
X005473Y019951D02*
X005473Y019478D01*
D233*
X011722Y012304D03*
X012549Y012304D03*
D234*
X012549Y011537D03*
X011801Y011537D03*
D235*
X012750Y016365D02*
X012750Y016905D01*
X013750Y016905D02*
X013750Y016365D01*
X014750Y016365D02*
X014750Y016905D01*
D236*
X010199Y010056D03*
X007836Y010844D03*
X005474Y010056D03*
X005474Y005332D03*
X010199Y005332D03*
D237*
X013514Y014096D03*
X013514Y014844D03*
X014380Y014470D03*
D238*
X011277Y014450D03*
X011277Y015450D03*
X010277Y015450D03*
X010277Y014450D03*
X009277Y014450D03*
X009277Y015450D03*
X009277Y016450D03*
X009277Y017450D03*
X009277Y018450D03*
X009277Y019450D03*
X008277Y019450D03*
X008277Y018450D03*
X008277Y017450D03*
X007277Y017450D03*
X006277Y017450D03*
X005277Y017450D03*
X005277Y016450D03*
X005277Y015450D03*
X005277Y014450D03*
X006277Y014450D03*
X006277Y015450D03*
X006277Y016450D03*
X007277Y016450D03*
X007277Y015450D03*
X007277Y014450D03*
X007277Y013450D03*
X008277Y013450D03*
X008277Y012450D03*
X009277Y012450D03*
X009277Y013450D03*
X008277Y014450D03*
X008277Y015450D03*
X008277Y016450D03*
X010277Y016450D03*
X010277Y017450D03*
X011277Y017450D03*
X011277Y016450D03*
X007277Y019450D03*
X011277Y010450D03*
X011277Y009450D03*
X011277Y008450D03*
X011277Y007450D03*
X010277Y007450D03*
X009277Y007450D03*
X009277Y006450D03*
X010277Y006450D03*
X011277Y006450D03*
X011277Y005450D03*
X011277Y004450D03*
X011277Y003450D03*
X011277Y002450D03*
X011277Y001450D03*
X012277Y001450D03*
X012277Y002450D03*
X012277Y003450D03*
X012277Y004450D03*
X012277Y005450D03*
X012277Y006450D03*
X012277Y007450D03*
X012277Y008450D03*
X012277Y009450D03*
X012277Y010450D03*
X013277Y010450D03*
X013277Y009450D03*
X013277Y008450D03*
X013277Y007450D03*
X013277Y006450D03*
X013277Y005450D03*
X013277Y004450D03*
X013277Y003450D03*
X013277Y002450D03*
X013277Y001450D03*
X014277Y001450D03*
X014277Y002450D03*
X014277Y003450D03*
X014277Y004450D03*
X014277Y005450D03*
X014277Y006450D03*
X014277Y007450D03*
X014277Y008450D03*
X014277Y009450D03*
X014277Y010450D03*
X015277Y010450D03*
X015277Y009450D03*
X015277Y008450D03*
X015277Y007450D03*
X015277Y006450D03*
X015277Y005450D03*
X015277Y004450D03*
X015277Y003450D03*
X015277Y002450D03*
X015277Y001450D03*
X008277Y004450D03*
X007277Y004450D03*
X007277Y005450D03*
X007277Y006450D03*
X006277Y006450D03*
X006277Y005450D03*
X005277Y006450D03*
X005277Y007450D03*
X006277Y007450D03*
X007277Y007450D03*
X007277Y008450D03*
X007277Y009450D03*
X006277Y009450D03*
X008277Y009450D03*
X008277Y008450D03*
X008277Y007450D03*
X008277Y006450D03*
X008277Y005450D03*
D239*
X006277Y004450D03*
X006277Y008450D03*
X007277Y012450D03*
X007277Y018450D03*
D240*
X007785Y017009D03*
X005246Y018643D03*
X005758Y013623D03*
X005010Y013584D03*
X006506Y010926D03*
X009833Y011635D03*
X011309Y013328D03*
X011840Y013978D03*
X013002Y012934D03*
X014242Y013269D03*
X013277Y011596D03*
X012805Y009942D03*
X016230Y005907D03*
X017136Y006950D03*
X017136Y001930D03*
M02*
