G75*
%MOIN*%
%OFA0B0*%
%FSLAX24Y24*%
%IPPOS*%
%LPD*%
%AMOC8*
5,1,8,0,0,1.08239X$1,22.5*
%
%ADD10C,0.0160*%
%ADD11C,0.0060*%
%ADD12C,0.0540*%
%ADD13OC8,0.0540*%
%ADD14OC8,0.1250*%
%ADD15C,0.0472*%
%ADD16C,0.0540*%
%ADD17C,0.0531*%
%ADD18R,0.0480X0.0880*%
%ADD19R,0.1417X0.0866*%
%ADD20OC8,0.0600*%
%ADD21C,0.0600*%
%ADD22R,0.0160X0.0480*%
%ADD23R,0.0591X0.0512*%
%ADD24R,0.0945X0.0945*%
%ADD25C,0.0600*%
%ADD26R,0.0421X0.0004*%
%ADD27R,0.0465X0.0004*%
%ADD28R,0.0492X0.0004*%
%ADD29R,0.0516X0.0004*%
%ADD30R,0.0531X0.0004*%
%ADD31R,0.0547X0.0004*%
%ADD32R,0.0563X0.0004*%
%ADD33R,0.0575X0.0004*%
%ADD34R,0.0587X0.0004*%
%ADD35R,0.0598X0.0004*%
%ADD36R,0.0610X0.0004*%
%ADD37R,0.0618X0.0004*%
%ADD38R,0.0626X0.0004*%
%ADD39R,0.0638X0.0004*%
%ADD40R,0.0646X0.0004*%
%ADD41R,0.0650X0.0004*%
%ADD42R,0.0657X0.0004*%
%ADD43R,0.0665X0.0004*%
%ADD44R,0.0673X0.0004*%
%ADD45R,0.0677X0.0004*%
%ADD46R,0.0685X0.0004*%
%ADD47R,0.0689X0.0004*%
%ADD48R,0.0693X0.0004*%
%ADD49R,0.0701X0.0004*%
%ADD50R,0.0705X0.0004*%
%ADD51R,0.0709X0.0004*%
%ADD52R,0.0717X0.0004*%
%ADD53R,0.0720X0.0004*%
%ADD54R,0.0724X0.0004*%
%ADD55R,0.0728X0.0004*%
%ADD56R,0.0732X0.0004*%
%ADD57R,0.0736X0.0004*%
%ADD58R,0.0740X0.0004*%
%ADD59R,0.0744X0.0004*%
%ADD60R,0.0748X0.0004*%
%ADD61R,0.0752X0.0004*%
%ADD62R,0.0756X0.0004*%
%ADD63R,0.0760X0.0004*%
%ADD64R,0.0764X0.0004*%
%ADD65R,0.0768X0.0004*%
%ADD66R,0.0772X0.0004*%
%ADD67R,0.0776X0.0004*%
%ADD68R,0.0780X0.0004*%
%ADD69R,0.0783X0.0004*%
%ADD70R,0.0787X0.0004*%
%ADD71R,0.0791X0.0004*%
%ADD72R,0.0795X0.0004*%
%ADD73R,0.0799X0.0004*%
%ADD74R,0.0803X0.0004*%
%ADD75R,0.0807X0.0004*%
%ADD76R,0.0811X0.0004*%
%ADD77R,0.0815X0.0004*%
%ADD78R,0.0819X0.0004*%
%ADD79R,0.0823X0.0004*%
%ADD80R,0.0827X0.0004*%
%ADD81R,0.0831X0.0004*%
%ADD82R,0.0835X0.0004*%
%ADD83R,0.0839X0.0004*%
%ADD84R,0.0909X0.0004*%
%ADD85R,0.0937X0.0004*%
%ADD86R,0.0953X0.0004*%
%ADD87R,0.0961X0.0004*%
%ADD88R,0.0969X0.0004*%
%ADD89R,0.0976X0.0004*%
%ADD90R,0.0980X0.0004*%
%ADD91R,0.0984X0.0004*%
%ADD92R,0.0965X0.0004*%
%ADD93R,0.0957X0.0004*%
%ADD94R,0.0945X0.0004*%
%ADD95R,0.0921X0.0004*%
%ADD96R,0.0232X0.0004*%
%ADD97R,0.0555X0.0004*%
%ADD98R,0.0224X0.0004*%
%ADD99R,0.0543X0.0004*%
%ADD100R,0.0539X0.0004*%
%ADD101R,0.0220X0.0004*%
%ADD102R,0.0535X0.0004*%
%ADD103R,0.0528X0.0004*%
%ADD104R,0.0520X0.0004*%
%ADD105R,0.0512X0.0004*%
%ADD106R,0.0500X0.0004*%
%ADD107R,0.0488X0.0004*%
%ADD108R,0.0484X0.0004*%
%ADD109R,0.0476X0.0004*%
%ADD110R,0.0449X0.0004*%
%ADD111R,0.0370X0.0004*%
%ADD112R,0.0043X0.0004*%
%ADD113R,0.0228X0.0004*%
%ADD114R,0.0358X0.0004*%
%ADD115R,0.0350X0.0004*%
%ADD116R,0.0343X0.0004*%
%ADD117R,0.0331X0.0004*%
%ADD118R,0.0319X0.0004*%
%ADD119R,0.0311X0.0004*%
%ADD120R,0.0307X0.0004*%
%ADD121R,0.0303X0.0004*%
%ADD122R,0.0063X0.0004*%
%ADD123R,0.0130X0.0004*%
%ADD124R,0.0445X0.0004*%
%ADD125R,0.0437X0.0004*%
%ADD126R,0.0433X0.0004*%
%ADD127R,0.0362X0.0004*%
%ADD128R,0.0047X0.0004*%
%ADD129R,0.0354X0.0004*%
%ADD130R,0.0031X0.0004*%
%ADD131R,0.0346X0.0004*%
%ADD132R,0.0339X0.0004*%
%ADD133R,0.0055X0.0004*%
%ADD134R,0.0177X0.0004*%
%ADD135R,0.0035X0.0004*%
%ADD136R,0.0161X0.0004*%
%ADD137R,0.0051X0.0004*%
%ADD138R,0.0142X0.0004*%
%ADD139R,0.0118X0.0004*%
%ADD140R,0.0091X0.0004*%
%ADD141R,0.0024X0.0004*%
%ADD142R,0.0020X0.0004*%
%ADD143R,0.0008X0.0004*%
%ADD144R,0.0004X0.0004*%
%ADD145R,0.0012X0.0004*%
%ADD146R,0.0028X0.0004*%
%ADD147R,0.0059X0.0004*%
%ADD148R,0.0067X0.0004*%
%ADD149R,0.0075X0.0004*%
%ADD150R,0.0083X0.0004*%
%ADD151R,0.0098X0.0004*%
%ADD152R,0.0106X0.0004*%
%ADD153R,0.0114X0.0004*%
%ADD154R,0.0122X0.0004*%
%ADD155R,0.0138X0.0004*%
%ADD156R,0.0146X0.0004*%
%ADD157R,0.0154X0.0004*%
%ADD158R,0.0165X0.0004*%
%ADD159R,0.0169X0.0004*%
%ADD160R,0.0185X0.0004*%
%ADD161R,0.0189X0.0004*%
%ADD162R,0.0193X0.0004*%
%ADD163R,0.0201X0.0004*%
%ADD164R,0.0209X0.0004*%
%ADD165R,0.0213X0.0004*%
%ADD166R,0.0217X0.0004*%
%ADD167R,0.0236X0.0004*%
%ADD168R,0.0240X0.0004*%
%ADD169R,0.0248X0.0004*%
%ADD170R,0.0256X0.0004*%
%ADD171R,0.0264X0.0004*%
%ADD172R,0.0272X0.0004*%
%ADD173R,0.0280X0.0004*%
%ADD174R,0.0287X0.0004*%
%ADD175R,0.0295X0.0004*%
%ADD176R,0.0299X0.0004*%
%ADD177R,0.0126X0.0004*%
%ADD178R,0.0157X0.0004*%
%ADD179R,0.0134X0.0004*%
%ADD180R,0.0173X0.0004*%
%ADD181R,0.0366X0.0004*%
%ADD182R,0.0374X0.0004*%
%ADD183R,0.0382X0.0004*%
%ADD184R,0.0390X0.0004*%
%ADD185R,0.0394X0.0004*%
%ADD186R,0.0398X0.0004*%
%ADD187R,0.0406X0.0004*%
%ADD188R,0.0409X0.0004*%
%ADD189R,0.0417X0.0004*%
%ADD190R,0.0429X0.0004*%
%ADD191R,0.0441X0.0004*%
%ADD192R,0.0453X0.0004*%
%ADD193R,0.0457X0.0004*%
%ADD194R,0.0469X0.0004*%
%ADD195R,0.0480X0.0004*%
%ADD196R,0.0504X0.0004*%
%ADD197R,0.0508X0.0004*%
%ADD198R,0.0551X0.0004*%
%ADD199R,0.0567X0.0004*%
%ADD200R,0.0579X0.0004*%
%ADD201R,0.0413X0.0004*%
%ADD202R,0.0425X0.0004*%
%ADD203R,0.0181X0.0004*%
%ADD204R,0.0634X0.0004*%
%ADD205R,0.0654X0.0004*%
%ADD206R,0.0661X0.0004*%
%ADD207R,0.0669X0.0004*%
%ADD208R,0.0697X0.0004*%
%ADD209R,0.0244X0.0004*%
%ADD210R,0.0252X0.0004*%
%ADD211R,0.0461X0.0004*%
%ADD212R,0.0094X0.0004*%
%ADD213R,0.0622X0.0004*%
%ADD214R,0.0102X0.0004*%
%ADD215R,0.0630X0.0004*%
%ADD216R,0.0614X0.0004*%
%ADD217R,0.0583X0.0004*%
%ADD218R,0.0327X0.0004*%
%ADD219C,0.0356*%
%ADD220C,0.0100*%
%ADD221C,0.0240*%
%ADD222C,0.0660*%
D10*
X002057Y000848D02*
X018199Y000848D01*
X018199Y020533D01*
X002057Y020533D01*
X002057Y000848D01*
X002417Y001824D02*
X002417Y001949D01*
X002433Y001933D01*
X002823Y001933D01*
X003098Y002208D01*
X003098Y002597D01*
X002823Y002873D01*
X002433Y002873D01*
X002417Y002857D01*
X002417Y002949D01*
X002433Y002933D01*
X002823Y002933D01*
X003098Y003208D01*
X003098Y003597D01*
X002823Y003873D01*
X002433Y003873D01*
X002417Y003857D01*
X002417Y003949D01*
X002433Y003933D01*
X002823Y003933D01*
X003098Y004208D01*
X003098Y004597D01*
X002823Y004873D01*
X002433Y004873D01*
X002417Y004857D01*
X002417Y004949D01*
X002433Y004933D01*
X002823Y004933D01*
X003098Y005208D01*
X003098Y005597D01*
X002823Y005873D01*
X002433Y005873D01*
X002417Y005857D01*
X002417Y005949D01*
X002433Y005933D01*
X002823Y005933D01*
X002871Y005981D01*
X002902Y005906D01*
X003060Y005748D01*
X003139Y005669D01*
X003203Y005643D01*
X003158Y005597D01*
X003158Y005208D01*
X003433Y004933D01*
X003823Y004933D01*
X004098Y005208D01*
X004098Y005597D01*
X004069Y005627D01*
X004164Y005627D01*
X004205Y005586D01*
X004344Y005529D01*
X004494Y005529D01*
X004633Y005586D01*
X004740Y005693D01*
X004797Y005831D01*
X004797Y005982D01*
X004740Y006121D01*
X004633Y006227D01*
X004494Y006285D01*
X004344Y006285D01*
X004205Y006227D01*
X004164Y006187D01*
X004076Y006187D01*
X004098Y006208D01*
X004098Y006597D01*
X003823Y006873D01*
X003433Y006873D01*
X003420Y006859D01*
X003420Y006946D01*
X003433Y006933D01*
X003823Y006933D01*
X004098Y007208D01*
X004098Y007597D01*
X003823Y007873D01*
X003433Y007873D01*
X003420Y007859D01*
X003420Y007946D01*
X003433Y007933D01*
X003823Y007933D01*
X004098Y008208D01*
X004098Y008597D01*
X003823Y008873D01*
X003433Y008873D01*
X003420Y008859D01*
X003420Y008946D01*
X003433Y008933D01*
X003823Y008933D01*
X004098Y009208D01*
X004098Y009597D01*
X003823Y009873D01*
X003433Y009873D01*
X003420Y009859D01*
X003420Y009946D01*
X003433Y009933D01*
X003823Y009933D01*
X004098Y010208D01*
X004098Y010597D01*
X003823Y010873D01*
X003433Y010873D01*
X003420Y010859D01*
X003420Y010946D01*
X003433Y010933D01*
X003823Y010933D01*
X004098Y011208D01*
X004098Y011597D01*
X003823Y011873D01*
X003433Y011873D01*
X003420Y011859D01*
X003420Y011946D01*
X003433Y011933D01*
X003823Y011933D01*
X004098Y012208D01*
X004098Y012597D01*
X003823Y012873D01*
X003433Y012873D01*
X003420Y012859D01*
X003420Y012947D01*
X003400Y012994D01*
X003441Y012953D01*
X003618Y012953D01*
X003618Y013393D01*
X003178Y013393D01*
X003178Y013249D01*
X003098Y013329D01*
X003098Y013597D01*
X003076Y013619D01*
X003207Y013619D01*
X003178Y013589D01*
X003178Y013413D01*
X003618Y013413D01*
X003618Y013393D01*
X003638Y013393D01*
X003638Y013413D01*
X004078Y013413D01*
X004078Y013589D01*
X004048Y013619D01*
X004179Y013619D01*
X004179Y013390D01*
X004221Y013287D01*
X004434Y013074D01*
X004434Y007957D01*
X004477Y007854D01*
X004556Y007776D01*
X004777Y007554D01*
X004777Y007243D01*
X004997Y007023D01*
X004997Y006877D01*
X004777Y006657D01*
X004777Y006243D01*
X005070Y005950D01*
X005415Y005950D01*
X005292Y005899D01*
X005174Y005781D01*
X004749Y005357D01*
X004669Y005162D01*
X004669Y002325D01*
X004749Y002130D01*
X004775Y002104D01*
X004775Y001687D01*
X005255Y001208D01*
X004097Y001208D01*
X004098Y001208D01*
X004098Y001597D01*
X003823Y001873D01*
X003433Y001873D01*
X003158Y001597D01*
X003158Y001208D01*
X003158Y001208D01*
X003056Y001208D01*
X003098Y001309D01*
X003098Y001496D01*
X003026Y001669D01*
X002894Y001801D01*
X002721Y001873D01*
X002534Y001873D01*
X002417Y001824D01*
X002847Y001957D02*
X003409Y001957D01*
X003433Y001933D02*
X003823Y001933D01*
X004098Y002208D01*
X004098Y002597D01*
X003823Y002873D01*
X003433Y002873D01*
X003158Y002597D01*
X003158Y002208D01*
X003433Y001933D01*
X003359Y001799D02*
X002897Y001799D01*
X003038Y001640D02*
X003201Y001640D01*
X003158Y001482D02*
X003098Y001482D01*
X003098Y001323D02*
X003158Y001323D01*
X003847Y001957D02*
X004775Y001957D01*
X004775Y001799D02*
X003897Y001799D01*
X004055Y001640D02*
X004822Y001640D01*
X004981Y001482D02*
X004098Y001482D01*
X004098Y001323D02*
X005139Y001323D01*
X005946Y001208D02*
X006425Y001687D01*
X006425Y002370D01*
X005942Y002854D01*
X005729Y002854D01*
X005729Y004837D01*
X005812Y004920D01*
X006106Y004920D01*
X005994Y004874D01*
X005854Y004733D01*
X005777Y004549D01*
X005777Y004351D01*
X005854Y004167D01*
X005994Y004026D01*
X006178Y003950D01*
X006377Y003950D01*
X006561Y004026D01*
X006701Y004167D01*
X006747Y004278D01*
X006747Y002374D01*
X006744Y002370D01*
X006744Y001687D01*
X007223Y001208D01*
X005946Y001208D01*
X006061Y001323D02*
X007108Y001323D01*
X006949Y001482D02*
X006220Y001482D01*
X006378Y001640D02*
X006791Y001640D01*
X006744Y001799D02*
X006425Y001799D01*
X006425Y001957D02*
X006744Y001957D01*
X006744Y002116D02*
X006425Y002116D01*
X006425Y002274D02*
X006744Y002274D01*
X006747Y002433D02*
X006363Y002433D01*
X006205Y002591D02*
X006747Y002591D01*
X006747Y002750D02*
X006046Y002750D01*
X005729Y002908D02*
X006747Y002908D01*
X006747Y003067D02*
X005729Y003067D01*
X005729Y003225D02*
X006747Y003225D01*
X006747Y003384D02*
X005729Y003384D01*
X005729Y003542D02*
X006747Y003542D01*
X006747Y003701D02*
X005729Y003701D01*
X005729Y003859D02*
X006747Y003859D01*
X006747Y004018D02*
X006540Y004018D01*
X006705Y004176D02*
X006747Y004176D01*
X006747Y004622D02*
X006701Y004733D01*
X006561Y004874D01*
X006416Y004934D01*
X006455Y004950D01*
X006485Y004950D01*
X006505Y004971D01*
X006578Y005001D01*
X006727Y005150D01*
X006747Y005200D01*
X006747Y004622D01*
X006747Y004652D02*
X006735Y004652D01*
X006747Y004810D02*
X006624Y004810D01*
X006503Y004969D02*
X006747Y004969D01*
X006747Y005127D02*
X006704Y005127D01*
X006747Y005700D02*
X006727Y005750D01*
X006578Y005899D01*
X006505Y005929D01*
X006485Y005950D01*
X006455Y005950D01*
X006455Y005950D01*
X006485Y005950D01*
X006747Y006213D01*
X006747Y005700D01*
X006747Y005761D02*
X006716Y005761D01*
X006747Y005920D02*
X006529Y005920D01*
X006613Y006078D02*
X006747Y006078D01*
X006747Y006687D02*
X006485Y006950D01*
X006070Y006950D01*
X005777Y006657D01*
X005557Y006877D01*
X005557Y007023D01*
X005777Y007243D01*
X005777Y007657D01*
X005485Y007950D01*
X005173Y007950D01*
X004994Y008129D01*
X004994Y009865D01*
X005040Y009819D01*
X005074Y009805D01*
X005079Y009792D01*
X005210Y009661D01*
X005382Y009591D01*
X005567Y009591D01*
X005738Y009661D01*
X005869Y009792D01*
X005901Y009870D01*
X005911Y009860D01*
X005981Y009860D01*
X005777Y009657D01*
X005777Y009243D01*
X006070Y008950D01*
X006485Y008950D01*
X006747Y009213D01*
X006747Y008622D01*
X006701Y008733D01*
X006561Y008874D01*
X006377Y008950D01*
X006178Y008950D01*
X005994Y008874D01*
X005854Y008733D01*
X005777Y008549D01*
X005777Y008351D01*
X005854Y008167D01*
X005994Y008026D01*
X006178Y007950D01*
X006377Y007950D01*
X006561Y008026D01*
X006701Y008167D01*
X006747Y008278D01*
X006747Y007687D01*
X006485Y007950D01*
X006070Y007950D01*
X005777Y007657D01*
X005777Y007243D01*
X006070Y006950D01*
X006485Y006950D01*
X006747Y007213D01*
X006747Y006687D01*
X006747Y006712D02*
X006722Y006712D01*
X006747Y006871D02*
X006564Y006871D01*
X006564Y007029D02*
X006747Y007029D01*
X006747Y007188D02*
X006722Y007188D01*
X006747Y007822D02*
X006613Y007822D01*
X006747Y007980D02*
X006450Y007980D01*
X006673Y008139D02*
X006747Y008139D01*
X006747Y008773D02*
X006662Y008773D01*
X006747Y008931D02*
X006422Y008931D01*
X006624Y009090D02*
X006747Y009090D01*
X006747Y009687D02*
X006574Y009860D01*
X006667Y009860D01*
X006747Y009940D01*
X006747Y009687D01*
X006747Y009724D02*
X006711Y009724D01*
X006689Y009882D02*
X006747Y009882D01*
X006289Y010316D02*
X005994Y010316D01*
X005305Y011005D01*
X005305Y012246D01*
X005473Y012415D01*
X005910Y012418D02*
X006777Y012418D01*
X006777Y012351D02*
X006854Y012167D01*
X006944Y012076D01*
X005903Y012076D01*
X005910Y012092D01*
X005910Y012738D01*
X005843Y012898D01*
X005721Y013021D01*
X005560Y013087D01*
X005387Y013087D01*
X005290Y013047D01*
X005290Y013329D01*
X005330Y013370D01*
X005388Y013509D01*
X005388Y013659D01*
X005330Y013798D01*
X005224Y013904D01*
X005085Y013962D01*
X004934Y013962D01*
X004796Y013904D01*
X004724Y013833D01*
X004696Y013900D01*
X004617Y013979D01*
X004460Y014136D01*
X004357Y014179D01*
X004069Y014179D01*
X004098Y014208D01*
X004098Y014597D01*
X003823Y014873D01*
X003433Y014873D01*
X003158Y014597D01*
X003158Y014269D01*
X003098Y014329D01*
X003098Y014597D01*
X002823Y014873D01*
X002433Y014873D01*
X002417Y014857D01*
X002417Y014949D01*
X002433Y014933D01*
X002823Y014933D01*
X003098Y015208D01*
X003098Y015597D01*
X002823Y015873D01*
X002433Y015873D01*
X002417Y015857D01*
X002417Y015949D01*
X002433Y015933D01*
X002823Y015933D01*
X003098Y016208D01*
X003098Y016597D01*
X002823Y016873D01*
X002433Y016873D01*
X002417Y016857D01*
X002417Y016949D01*
X002433Y016933D01*
X002823Y016933D01*
X003098Y017208D01*
X003098Y017597D01*
X002823Y017873D01*
X002433Y017873D01*
X002417Y017857D01*
X002417Y017977D01*
X002441Y017953D01*
X002618Y017953D01*
X002618Y018393D01*
X002638Y018393D01*
X002638Y018413D01*
X003078Y018413D01*
X003078Y018589D01*
X002899Y018768D01*
X003172Y018768D01*
X003197Y018793D01*
X003220Y018769D01*
X003222Y018768D01*
X003316Y018768D01*
X003328Y018768D01*
X003158Y018597D01*
X003158Y018208D01*
X003433Y017933D01*
X003823Y017933D01*
X004098Y018208D01*
X004098Y018597D01*
X003920Y018775D01*
X003939Y018785D01*
X004014Y018810D01*
X004022Y018827D01*
X004039Y018835D01*
X004064Y018910D01*
X004246Y019274D01*
X004185Y019455D01*
X004032Y019531D01*
X004154Y019653D01*
X004227Y019726D01*
X004227Y019917D01*
X004093Y020051D01*
X004039Y020051D01*
X004081Y020093D01*
X004081Y020173D01*
X005093Y020173D01*
X005037Y020038D01*
X005037Y019392D01*
X004206Y019392D01*
X004226Y019234D02*
X005103Y019234D01*
X005104Y019231D02*
X005226Y019109D01*
X005387Y019042D01*
X005560Y019042D01*
X005721Y019109D01*
X005843Y019231D01*
X005910Y019392D01*
X006797Y019392D01*
X006797Y019430D02*
X006797Y019251D01*
X007079Y018970D01*
X007257Y018970D01*
X007257Y019430D01*
X006797Y019430D01*
X006797Y019470D02*
X007257Y019470D01*
X007257Y019430D01*
X007297Y019430D01*
X007297Y018970D01*
X007476Y018970D01*
X007757Y019251D01*
X007757Y019430D01*
X007297Y019430D01*
X007297Y019470D01*
X007257Y019470D01*
X007257Y019930D01*
X007079Y019930D01*
X006797Y019649D01*
X006797Y019470D01*
X006797Y019551D02*
X005910Y019551D01*
X005910Y019709D02*
X006858Y019709D01*
X007016Y019868D02*
X005910Y019868D01*
X005910Y020026D02*
X010264Y020026D01*
X010268Y020048D02*
X010257Y019984D01*
X010257Y019715D01*
X010673Y019715D01*
X010673Y019715D01*
X010257Y019715D01*
X010257Y019446D01*
X010268Y019381D01*
X010288Y019319D01*
X010318Y019260D01*
X010356Y019207D01*
X010402Y019161D01*
X010455Y019122D01*
X010514Y019093D01*
X010576Y019072D01*
X010641Y019062D01*
X010673Y019062D01*
X010673Y019715D01*
X010673Y019715D01*
X010674Y019715D02*
X011090Y019715D01*
X011090Y019984D01*
X011079Y020048D01*
X011059Y020111D01*
X011029Y020169D01*
X011027Y020173D01*
X016457Y020173D01*
X016457Y020141D01*
X016465Y020133D01*
X016465Y020129D01*
X016477Y020117D01*
X016477Y020113D01*
X016481Y020109D01*
X016489Y020101D01*
X016489Y020097D01*
X016501Y020086D01*
X016501Y020082D01*
X016512Y020070D01*
X016512Y020066D01*
X016524Y020054D01*
X016524Y020050D01*
X016536Y020038D01*
X016536Y020034D01*
X016548Y020023D01*
X016548Y020019D01*
X016560Y020007D01*
X016560Y020003D01*
X016572Y019991D01*
X016572Y019987D01*
X016583Y019975D01*
X016583Y019971D01*
X016591Y019964D01*
X016591Y019960D01*
X016603Y019948D01*
X016603Y019944D01*
X016615Y019932D01*
X016615Y019928D01*
X016627Y019916D01*
X016627Y019912D01*
X016638Y019901D01*
X016638Y019897D01*
X016650Y019885D01*
X016650Y019881D01*
X016662Y019869D01*
X016662Y019865D01*
X016674Y019853D01*
X016674Y019849D01*
X016686Y019838D01*
X016686Y019834D01*
X016698Y019822D01*
X016698Y019818D01*
X016709Y019806D01*
X016709Y019802D01*
X016717Y019794D01*
X016673Y019750D01*
X016622Y019750D01*
X016618Y019746D01*
X016610Y019746D01*
X016606Y019743D01*
X016602Y019743D01*
X016598Y019739D01*
X016594Y019739D01*
X016477Y019621D01*
X016473Y019617D01*
X016469Y019614D01*
X016465Y019610D01*
X016461Y019606D01*
X016457Y019602D01*
X016453Y019598D01*
X016453Y019594D01*
X016363Y019503D01*
X016359Y019499D01*
X016355Y019495D01*
X016351Y019492D01*
X016347Y019488D01*
X016347Y019480D01*
X016343Y019476D01*
X016343Y019259D01*
X016347Y019255D01*
X016347Y019247D01*
X016434Y019160D01*
X016434Y019157D01*
X016438Y019153D01*
X016438Y019145D01*
X016442Y019141D01*
X016442Y019129D01*
X016446Y019125D01*
X016446Y019117D01*
X016449Y019113D01*
X016449Y019109D01*
X016453Y019105D01*
X016453Y019097D01*
X016457Y019094D01*
X016457Y019090D01*
X016461Y019086D01*
X016461Y019078D01*
X016465Y019074D01*
X016465Y019070D01*
X016469Y019066D01*
X016469Y019062D01*
X016473Y019058D01*
X016473Y019054D01*
X016477Y019050D01*
X016477Y019046D01*
X016485Y019038D01*
X016485Y019034D01*
X016493Y019027D01*
X016493Y019023D01*
X016501Y019015D01*
X016501Y019011D01*
X016618Y018894D01*
X016622Y018890D01*
X016626Y018886D01*
X016630Y018882D01*
X016634Y018878D01*
X016637Y018874D01*
X016641Y018870D01*
X016645Y018866D01*
X016649Y018862D01*
X016653Y018862D01*
X016657Y018858D01*
X016657Y018858D01*
X016661Y018854D01*
X016665Y018854D01*
X016667Y018853D01*
X016638Y018853D01*
X016638Y018413D01*
X016618Y018413D01*
X016618Y018853D01*
X016441Y018853D01*
X016178Y018589D01*
X016178Y018413D01*
X016618Y018413D01*
X016618Y018393D01*
X016178Y018393D01*
X016178Y018216D01*
X016441Y017953D01*
X016618Y017953D01*
X016618Y018393D01*
X016638Y018393D01*
X016638Y018413D01*
X017078Y018413D01*
X017078Y018589D01*
X016844Y018823D01*
X017331Y018823D01*
X017335Y018827D01*
X017354Y018827D01*
X017358Y018831D01*
X017366Y018831D01*
X017370Y018835D01*
X017378Y018835D01*
X017382Y018839D01*
X017386Y018839D01*
X017390Y018843D01*
X017394Y018843D01*
X017398Y018846D01*
X017402Y018846D01*
X017406Y018850D01*
X017409Y018850D01*
X017417Y018858D01*
X017419Y018858D01*
X017158Y018597D01*
X017158Y018208D01*
X017433Y017933D01*
X017823Y017933D01*
X017839Y017949D01*
X017839Y017857D01*
X017823Y017873D01*
X017433Y017873D01*
X017158Y017597D01*
X017158Y017208D01*
X017433Y016933D01*
X017823Y016933D01*
X017839Y016949D01*
X017839Y016857D01*
X017823Y016873D01*
X017433Y016873D01*
X017158Y016597D01*
X017158Y016208D01*
X017433Y015933D01*
X017823Y015933D01*
X017839Y015949D01*
X017839Y015857D01*
X017823Y015873D01*
X017433Y015873D01*
X017158Y015597D01*
X017158Y015208D01*
X017433Y014933D01*
X017823Y014933D01*
X017839Y014949D01*
X017839Y014857D01*
X017823Y014873D01*
X017433Y014873D01*
X017158Y014597D01*
X017158Y014269D01*
X017098Y014329D01*
X017098Y014597D01*
X016823Y014873D01*
X016433Y014873D01*
X016158Y014597D01*
X016158Y014208D01*
X016433Y013933D01*
X016702Y013933D01*
X016762Y013873D01*
X016433Y013873D01*
X016158Y013597D01*
X016158Y013208D01*
X016433Y012933D01*
X016823Y012933D01*
X016836Y012946D01*
X016836Y012859D01*
X016823Y012873D01*
X016433Y012873D01*
X016158Y012597D01*
X016158Y012208D01*
X016433Y011933D01*
X016823Y011933D01*
X016836Y011946D01*
X016836Y011859D01*
X016823Y011873D01*
X016433Y011873D01*
X016158Y011597D01*
X016158Y011208D01*
X016179Y011187D01*
X015678Y011187D01*
X015576Y011144D01*
X015381Y010950D01*
X015070Y010950D01*
X015033Y010913D01*
X015011Y010967D01*
X014759Y011219D01*
X014777Y011237D01*
X014777Y011329D01*
X014812Y011303D01*
X014880Y011269D01*
X014952Y011246D01*
X015026Y011234D01*
X015344Y011234D01*
X015344Y011694D01*
X015384Y011694D01*
X015384Y011734D01*
X015344Y011734D01*
X015344Y012194D01*
X015026Y012194D01*
X014952Y012182D01*
X014880Y012159D01*
X014812Y012124D01*
X014777Y012098D01*
X014777Y012294D01*
X014781Y012290D01*
X014965Y012214D01*
X015763Y012214D01*
X015947Y012290D01*
X016088Y012431D01*
X016164Y012614D01*
X016164Y012813D01*
X016088Y012997D01*
X015947Y013138D01*
X015763Y013214D01*
X015947Y013290D01*
X016088Y013431D01*
X016164Y013614D01*
X016164Y013813D01*
X016088Y013997D01*
X015947Y014138D01*
X015763Y014214D01*
X015947Y014290D01*
X016088Y014431D01*
X016164Y014614D01*
X016164Y014813D01*
X016088Y014997D01*
X015947Y015138D01*
X015763Y015214D01*
X015947Y015290D01*
X016088Y015431D01*
X016164Y015614D01*
X016164Y015813D01*
X016088Y015997D01*
X015947Y016138D01*
X015763Y016214D01*
X015947Y016290D01*
X016088Y016431D01*
X016164Y016614D01*
X016164Y016813D01*
X016088Y016997D01*
X015947Y017138D01*
X015763Y017214D01*
X014965Y017214D01*
X014781Y017138D01*
X014728Y017085D01*
X014728Y017117D01*
X014656Y017289D01*
X014524Y017422D01*
X014351Y017493D01*
X014164Y017493D01*
X013992Y017422D01*
X013859Y017289D01*
X013788Y017117D01*
X013788Y016390D01*
X013832Y016283D01*
X013684Y016283D01*
X013728Y016390D01*
X013728Y017117D01*
X013656Y017289D01*
X013524Y017422D01*
X013351Y017493D01*
X013164Y017493D01*
X012992Y017422D01*
X012859Y017289D01*
X012788Y017117D01*
X012788Y016390D01*
X012832Y016283D01*
X012684Y016283D01*
X012728Y016390D01*
X012728Y017117D01*
X012656Y017289D01*
X012524Y017422D01*
X012351Y017493D01*
X012164Y017493D01*
X011992Y017422D01*
X011859Y017289D01*
X011788Y017117D01*
X011788Y016390D01*
X011859Y016217D01*
X011992Y016085D01*
X012164Y016013D01*
X012351Y016013D01*
X012388Y016029D01*
X012388Y015134D01*
X012476Y015047D01*
X012476Y014916D01*
X012534Y014777D01*
X012640Y014671D01*
X012779Y014613D01*
X012929Y014613D01*
X013017Y014650D01*
X013017Y013850D01*
X012974Y013850D01*
X012857Y013733D01*
X012857Y012687D01*
X012864Y012681D01*
X012648Y012465D01*
X011817Y012465D01*
X011699Y012348D01*
X011699Y011237D01*
X011817Y011120D01*
X012189Y011120D01*
X012040Y010971D01*
X012004Y010884D01*
X011777Y010657D01*
X011777Y010243D01*
X011997Y010023D01*
X011997Y009877D01*
X011777Y009657D01*
X011777Y009243D01*
X012070Y008950D01*
X011777Y008657D01*
X011777Y008243D01*
X011997Y008023D01*
X011997Y007877D01*
X011777Y007657D01*
X011777Y007348D01*
X011757Y007348D01*
X011757Y007430D01*
X011297Y007430D01*
X011297Y006970D01*
X011384Y006970D01*
X011384Y006930D01*
X011297Y006930D01*
X011297Y006470D01*
X011257Y006470D01*
X011257Y006430D01*
X010797Y006430D01*
X010797Y006251D01*
X011079Y005970D01*
X011257Y005970D01*
X011257Y006430D01*
X011297Y006430D01*
X011297Y005970D01*
X011441Y005970D01*
X011441Y005930D01*
X011297Y005930D01*
X011297Y005470D01*
X011257Y005470D01*
X011257Y005430D01*
X010797Y005430D01*
X010797Y005251D01*
X011079Y004970D01*
X011257Y004970D01*
X011257Y005430D01*
X011297Y005430D01*
X011297Y004970D01*
X011441Y004970D01*
X011441Y004930D01*
X011297Y004930D01*
X011297Y004470D01*
X011257Y004470D01*
X011257Y004430D01*
X010797Y004430D01*
X010797Y004251D01*
X011079Y003970D01*
X011257Y003970D01*
X011257Y004430D01*
X011297Y004430D01*
X011297Y003970D01*
X011441Y003970D01*
X011441Y003930D01*
X011297Y003930D01*
X011297Y003470D01*
X011257Y003470D01*
X011257Y003430D01*
X010797Y003430D01*
X010797Y003251D01*
X011079Y002970D01*
X011257Y002970D01*
X011257Y003430D01*
X011297Y003430D01*
X011297Y002970D01*
X011441Y002970D01*
X011441Y002955D01*
X011451Y002930D01*
X011297Y002930D01*
X011297Y002470D01*
X011257Y002470D01*
X011257Y002430D01*
X010797Y002430D01*
X010797Y002251D01*
X011079Y001970D01*
X011257Y001970D01*
X011257Y002430D01*
X011297Y002430D01*
X011297Y001970D01*
X011476Y001970D01*
X011757Y002251D01*
X011757Y002430D01*
X011297Y002430D01*
X011297Y002470D01*
X011757Y002470D01*
X011757Y002585D01*
X011777Y002565D01*
X011777Y002243D01*
X011997Y002023D01*
X011997Y001877D01*
X011777Y001657D01*
X011777Y001243D01*
X011813Y001208D01*
X011714Y001208D01*
X011757Y001251D01*
X011757Y001430D01*
X011297Y001430D01*
X011297Y001470D01*
X011257Y001470D01*
X011257Y001430D01*
X010797Y001430D01*
X010797Y001251D01*
X010841Y001208D01*
X009883Y001208D01*
X010362Y001687D01*
X010362Y002370D01*
X010067Y002665D01*
X010067Y004727D01*
X010143Y004802D01*
X010304Y004802D01*
X010499Y004883D01*
X010648Y005032D01*
X010729Y005226D01*
X010729Y005437D01*
X010648Y005632D01*
X010499Y005781D01*
X010304Y005862D01*
X009818Y005862D01*
X009623Y005781D01*
X009474Y005632D01*
X009088Y005246D01*
X009007Y005051D01*
X009007Y002665D01*
X008712Y002370D01*
X008712Y001687D01*
X009192Y001208D01*
X007914Y001208D01*
X008394Y001687D01*
X008394Y002370D01*
X007910Y002854D01*
X007807Y002854D01*
X007807Y004213D01*
X008070Y003950D01*
X008485Y003950D01*
X008777Y004243D01*
X008777Y004657D01*
X008485Y004950D01*
X008777Y005243D01*
X008777Y005657D01*
X008485Y005950D01*
X008070Y005950D01*
X007807Y005687D01*
X007807Y006241D01*
X008079Y005970D01*
X008257Y005970D01*
X008257Y006430D01*
X008297Y006430D01*
X008297Y005970D01*
X008476Y005970D01*
X008757Y006251D01*
X008757Y006430D01*
X008297Y006430D01*
X008297Y006470D01*
X008257Y006470D01*
X008257Y006930D01*
X008079Y006930D01*
X007807Y006659D01*
X007807Y007241D01*
X008079Y006970D01*
X008257Y006970D01*
X008257Y007430D01*
X008297Y007430D01*
X008297Y006970D01*
X008476Y006970D01*
X008757Y007251D01*
X008757Y007430D01*
X008297Y007430D01*
X008297Y007470D01*
X008257Y007470D01*
X008257Y007930D01*
X008079Y007930D01*
X007807Y007659D01*
X007807Y008213D01*
X008070Y007950D01*
X008485Y007950D01*
X008777Y008243D01*
X008777Y008657D01*
X008485Y008950D01*
X008777Y009243D01*
X008777Y009657D01*
X008618Y009817D01*
X008747Y009817D01*
X008835Y009904D01*
X008922Y009817D01*
X009247Y009817D01*
X009352Y009921D01*
X009360Y009906D01*
X009394Y009873D01*
X009435Y009849D01*
X009481Y009837D01*
X009585Y009837D01*
X009688Y009837D01*
X009734Y009849D01*
X009771Y009871D01*
X009804Y009792D01*
X009935Y009661D01*
X010106Y009591D01*
X010291Y009591D01*
X010463Y009661D01*
X010594Y009792D01*
X010664Y009964D01*
X010664Y010149D01*
X010594Y010320D01*
X010519Y010395D01*
X010519Y011381D01*
X010519Y011381D01*
X010577Y011520D01*
X010577Y011671D01*
X010528Y011788D01*
X010576Y011772D01*
X010641Y011762D01*
X010673Y011762D01*
X010673Y012415D01*
X010673Y013067D01*
X010641Y013067D01*
X010576Y013057D01*
X010565Y013053D01*
X010626Y013114D01*
X010683Y013253D01*
X010683Y013403D01*
X010626Y013542D01*
X010519Y013648D01*
X010380Y013706D01*
X010230Y013706D01*
X010091Y013648D01*
X009984Y013542D01*
X009927Y013403D01*
X009927Y013402D01*
X009879Y013285D01*
X009879Y011810D01*
X009878Y011810D01*
X009865Y011777D01*
X009865Y011840D01*
X009857Y011848D01*
X009857Y011888D01*
X009814Y011990D01*
X009735Y012069D01*
X009670Y012135D01*
X009777Y012243D01*
X009777Y012657D01*
X009557Y012877D01*
X009557Y013023D01*
X009777Y013243D01*
X009777Y013657D01*
X009485Y013950D01*
X009777Y014243D01*
X009777Y014657D01*
X009557Y014877D01*
X009557Y015023D01*
X009777Y015243D01*
X009777Y015657D01*
X009557Y015877D01*
X009557Y016023D01*
X009777Y016243D01*
X009777Y016657D01*
X009557Y016877D01*
X009557Y017023D01*
X009777Y017243D01*
X009777Y017657D01*
X009505Y017930D01*
X010050Y017930D01*
X009777Y017657D01*
X009777Y017243D01*
X009997Y017023D01*
X009997Y016877D01*
X009777Y016657D01*
X009777Y016243D01*
X009997Y016023D01*
X009997Y015877D01*
X009777Y015657D01*
X009777Y015243D01*
X009997Y015023D01*
X009997Y014877D01*
X009777Y014657D01*
X009777Y014243D01*
X010070Y013950D01*
X010485Y013950D01*
X010777Y014243D01*
X010777Y014657D01*
X010557Y014877D01*
X010557Y015023D01*
X010777Y015243D01*
X010777Y015657D01*
X010557Y015877D01*
X010557Y016023D01*
X010777Y016243D01*
X010777Y016657D01*
X010557Y016877D01*
X010557Y017023D01*
X010777Y017243D01*
X010777Y017657D01*
X010505Y017930D01*
X010957Y017930D01*
X010997Y017889D01*
X010997Y017877D01*
X010777Y017657D01*
X010777Y017243D01*
X010997Y017023D01*
X010997Y016877D01*
X010777Y016657D01*
X010777Y016243D01*
X010997Y016023D01*
X010997Y015877D01*
X010777Y015657D01*
X010777Y015243D01*
X011070Y014950D01*
X010777Y014657D01*
X010777Y014243D01*
X010957Y014063D01*
X010957Y013467D01*
X010931Y013403D01*
X010931Y013253D01*
X010988Y013114D01*
X011095Y013007D01*
X011234Y012950D01*
X011384Y012950D01*
X011523Y013007D01*
X011629Y013114D01*
X011687Y013253D01*
X011687Y013403D01*
X011629Y013542D01*
X011597Y013574D01*
X011597Y014063D01*
X011777Y014243D01*
X011777Y014657D01*
X011485Y014950D01*
X011070Y014950D01*
X011485Y014950D01*
X011777Y015243D01*
X011777Y015657D01*
X011557Y015877D01*
X011557Y016023D01*
X011777Y016243D01*
X011777Y016657D01*
X011557Y016877D01*
X011557Y017023D01*
X011777Y017243D01*
X011777Y017657D01*
X011557Y017877D01*
X011557Y018061D01*
X011515Y018164D01*
X011310Y018368D01*
X011231Y018447D01*
X011128Y018490D01*
X009777Y018490D01*
X009777Y018657D01*
X009557Y018877D01*
X009557Y019023D01*
X009777Y019243D01*
X009777Y019657D01*
X009485Y019950D01*
X009070Y019950D01*
X008777Y019657D01*
X008485Y019950D01*
X008070Y019950D01*
X007777Y019657D01*
X007777Y019243D01*
X007997Y019023D01*
X007997Y018877D01*
X007777Y018657D01*
X007777Y018346D01*
X007734Y018303D01*
X007746Y018338D01*
X007757Y018412D01*
X007757Y018430D01*
X007297Y018430D01*
X007297Y017970D01*
X007315Y017970D01*
X007390Y017982D01*
X007462Y018005D01*
X007513Y018031D01*
X007505Y018014D01*
X007505Y017929D01*
X007485Y017950D01*
X007070Y017950D01*
X006777Y017657D01*
X006485Y017950D01*
X006070Y017950D01*
X005777Y017657D01*
X005777Y017243D01*
X005997Y017023D01*
X005997Y016877D01*
X005777Y016657D01*
X005777Y016243D01*
X005997Y016023D01*
X005997Y015877D01*
X005777Y015657D01*
X005777Y015243D01*
X005997Y015023D01*
X005997Y014877D01*
X005777Y014657D01*
X005777Y014243D01*
X006070Y013950D01*
X006485Y013950D01*
X006777Y014243D01*
X006777Y014657D01*
X006557Y014877D01*
X006557Y015023D01*
X006777Y015243D01*
X006777Y015657D01*
X006557Y015877D01*
X006557Y016023D01*
X006777Y016243D01*
X006777Y016657D01*
X006557Y016877D01*
X006557Y017023D01*
X006777Y017243D01*
X006777Y017657D01*
X006777Y017243D01*
X006997Y017023D01*
X006997Y016877D01*
X006777Y016657D01*
X006777Y016243D01*
X006997Y016023D01*
X006997Y015877D01*
X006777Y015657D01*
X006777Y015243D01*
X006997Y015023D01*
X006997Y014877D01*
X006777Y014657D01*
X006777Y014243D01*
X007070Y013950D01*
X007485Y013950D01*
X007777Y014243D01*
X007777Y014657D01*
X007557Y014877D01*
X007557Y015023D01*
X007777Y015243D01*
X007777Y015657D01*
X007557Y015877D01*
X007557Y016023D01*
X007777Y016243D01*
X007777Y016631D01*
X007777Y016631D01*
X007777Y016243D01*
X007997Y016023D01*
X007997Y015877D01*
X007777Y015657D01*
X007777Y015243D01*
X007997Y015023D01*
X007997Y014877D01*
X007777Y014657D01*
X007777Y014243D01*
X008070Y013950D01*
X008485Y013950D01*
X008777Y014243D01*
X008777Y014657D01*
X008557Y014877D01*
X008557Y015023D01*
X008777Y015243D01*
X008777Y015657D01*
X008557Y015877D01*
X008557Y016023D01*
X008777Y016243D01*
X008777Y016657D01*
X008557Y016877D01*
X008557Y017023D01*
X008777Y017243D01*
X008777Y017657D01*
X008485Y017950D01*
X008777Y018243D01*
X008777Y018657D01*
X008557Y018877D01*
X008557Y019023D01*
X008777Y019243D01*
X008777Y019657D01*
X008777Y019243D01*
X008997Y019023D01*
X008997Y018877D01*
X008777Y018657D01*
X008777Y018243D01*
X009070Y017950D01*
X008777Y017657D01*
X008777Y017243D01*
X008997Y017023D01*
X008997Y016877D01*
X008777Y016657D01*
X008777Y016243D01*
X008997Y016023D01*
X008997Y015877D01*
X008777Y015657D01*
X008777Y015243D01*
X008997Y015023D01*
X008997Y014877D01*
X008777Y014657D01*
X008777Y014243D01*
X009070Y013950D01*
X009485Y013950D01*
X009070Y013950D01*
X008777Y013657D01*
X008485Y013950D01*
X008070Y013950D01*
X007777Y013657D01*
X007485Y013950D01*
X007070Y013950D01*
X006777Y013657D01*
X006777Y013243D01*
X006997Y013023D01*
X006997Y012875D01*
X006994Y012874D01*
X006854Y012733D01*
X006777Y012549D01*
X006777Y012351D01*
X006815Y012260D02*
X005910Y012260D01*
X005910Y012101D02*
X006919Y012101D01*
X007277Y011796D02*
X007277Y012450D01*
X007277Y013450D01*
X006965Y013845D02*
X005284Y013845D01*
X005297Y013970D02*
X005476Y013970D01*
X005757Y014251D01*
X005757Y014430D01*
X005297Y014430D01*
X005297Y013970D01*
X005297Y014003D02*
X005257Y014003D01*
X005257Y013970D02*
X005257Y014430D01*
X004797Y014430D01*
X004797Y014251D01*
X005079Y013970D01*
X005257Y013970D01*
X005277Y014104D02*
X006250Y013131D01*
X005845Y012894D02*
X006997Y012894D01*
X006968Y013052D02*
X005644Y013052D01*
X005303Y013052D02*
X005290Y013052D01*
X005290Y013211D02*
X006810Y013211D01*
X006777Y013369D02*
X005330Y013369D01*
X005388Y013528D02*
X006777Y013528D01*
X006806Y013686D02*
X005377Y013686D01*
X005509Y014003D02*
X006017Y014003D01*
X005859Y014162D02*
X005668Y014162D01*
X005757Y014320D02*
X005777Y014320D01*
X005757Y014470D02*
X005757Y014649D01*
X005476Y014930D01*
X005297Y014930D01*
X005297Y014470D01*
X005257Y014470D01*
X005257Y014430D01*
X005297Y014430D01*
X005297Y014470D01*
X005757Y014470D01*
X005757Y014479D02*
X005777Y014479D01*
X005777Y014637D02*
X005757Y014637D01*
X005611Y014796D02*
X005916Y014796D01*
X005997Y014954D02*
X003844Y014954D01*
X003823Y014933D02*
X004098Y015208D01*
X004098Y015597D01*
X003823Y015873D01*
X003433Y015873D01*
X003158Y015597D01*
X003158Y015208D01*
X003433Y014933D01*
X003823Y014933D01*
X003900Y014796D02*
X004944Y014796D01*
X005079Y014930D02*
X004797Y014649D01*
X004797Y014470D01*
X005257Y014470D01*
X005257Y014930D01*
X005079Y014930D01*
X005079Y014970D02*
X005257Y014970D01*
X005257Y015430D01*
X004797Y015430D01*
X004797Y015251D01*
X005079Y014970D01*
X004936Y015113D02*
X004002Y015113D01*
X004098Y015271D02*
X004797Y015271D01*
X004797Y015430D02*
X004098Y015430D01*
X004098Y015588D02*
X004797Y015588D01*
X004797Y015649D02*
X004797Y015470D01*
X005257Y015470D01*
X005257Y015430D01*
X005297Y015430D01*
X005297Y014970D01*
X005476Y014970D01*
X005757Y015251D01*
X005757Y015430D01*
X005297Y015430D01*
X005297Y015470D01*
X005257Y015470D01*
X005257Y015930D01*
X005079Y015930D01*
X004797Y015649D01*
X004895Y015747D02*
X003949Y015747D01*
X003823Y015933D02*
X004098Y016208D01*
X004098Y016597D01*
X003823Y016873D01*
X003433Y016873D01*
X003158Y016597D01*
X003158Y016208D01*
X003433Y015933D01*
X003823Y015933D01*
X003953Y016064D02*
X004985Y016064D01*
X005079Y015970D02*
X004797Y016251D01*
X004797Y016430D01*
X005257Y016430D01*
X005257Y016470D01*
X004797Y016470D01*
X004797Y016649D01*
X005079Y016930D01*
X005257Y016930D01*
X005257Y016470D01*
X005297Y016470D01*
X005297Y016930D01*
X005476Y016930D01*
X005757Y016649D01*
X005757Y016470D01*
X005297Y016470D01*
X005297Y016430D01*
X005297Y015970D01*
X005476Y015970D01*
X005757Y016251D01*
X005757Y016430D01*
X005297Y016430D01*
X005257Y016430D01*
X005257Y015970D01*
X005079Y015970D01*
X005054Y015905D02*
X002417Y015905D01*
X002949Y015747D02*
X003307Y015747D01*
X003158Y015588D02*
X003098Y015588D01*
X003098Y015430D02*
X003158Y015430D01*
X003158Y015271D02*
X003098Y015271D01*
X003002Y015113D02*
X003253Y015113D01*
X003412Y014954D02*
X002844Y014954D01*
X002900Y014796D02*
X003356Y014796D01*
X003198Y014637D02*
X003058Y014637D01*
X003098Y014479D02*
X003158Y014479D01*
X003158Y014320D02*
X003106Y014320D01*
X003132Y013899D02*
X004301Y013899D01*
X004459Y013741D01*
X004459Y013446D01*
X004714Y013190D01*
X004714Y008013D01*
X005277Y007450D01*
X005277Y006450D01*
X004942Y006078D02*
X004757Y006078D01*
X004784Y006237D02*
X004611Y006237D01*
X004777Y006395D02*
X004098Y006395D01*
X004098Y006237D02*
X004228Y006237D01*
X004419Y005907D02*
X003297Y005907D01*
X003140Y006064D01*
X003140Y012891D01*
X002628Y013403D01*
X002762Y013873D02*
X002433Y013873D01*
X002417Y013857D01*
X002417Y013949D01*
X002433Y013933D01*
X002702Y013933D01*
X002762Y013873D01*
X003132Y013899D02*
X002628Y014403D01*
X003098Y013528D02*
X003178Y013528D01*
X003178Y013369D02*
X003098Y013369D01*
X003618Y013369D02*
X003638Y013369D01*
X003638Y013393D02*
X003638Y012953D01*
X003814Y012953D01*
X004078Y013216D01*
X004078Y013393D01*
X003638Y013393D01*
X003638Y013211D02*
X003618Y013211D01*
X003618Y013052D02*
X003638Y013052D01*
X003420Y012894D02*
X004434Y012894D01*
X004434Y013052D02*
X003914Y013052D01*
X004072Y013211D02*
X004298Y013211D01*
X004187Y013369D02*
X004078Y013369D01*
X004078Y013528D02*
X004179Y013528D01*
X004593Y014003D02*
X005045Y014003D01*
X004887Y014162D02*
X004398Y014162D01*
X004098Y014320D02*
X004797Y014320D01*
X004797Y014479D02*
X004098Y014479D01*
X004058Y014637D02*
X004797Y014637D01*
X005257Y014637D02*
X005297Y014637D01*
X005297Y014479D02*
X005257Y014479D01*
X005277Y014450D02*
X005277Y014104D01*
X005257Y014162D02*
X005297Y014162D01*
X005297Y014320D02*
X005257Y014320D01*
X005277Y014450D02*
X005277Y015450D01*
X005277Y016450D01*
X005277Y017450D01*
X005246Y017481D01*
X005246Y018643D01*
X005307Y019075D02*
X004146Y019075D01*
X004067Y018917D02*
X007160Y018917D01*
X007165Y018918D02*
X007093Y018895D01*
X007026Y018861D01*
X006965Y018816D01*
X006911Y018763D01*
X006867Y018702D01*
X006833Y018634D01*
X006809Y018562D01*
X006797Y018488D01*
X006797Y018470D01*
X007257Y018470D01*
X007257Y018430D01*
X006797Y018430D01*
X006797Y018412D01*
X006809Y018338D01*
X006833Y018266D01*
X006867Y018198D01*
X006911Y018137D01*
X006965Y018084D01*
X007026Y018039D01*
X007093Y018005D01*
X007165Y017982D01*
X007240Y017970D01*
X007257Y017970D01*
X007257Y018430D01*
X007297Y018430D01*
X007297Y018470D01*
X007257Y018470D01*
X007257Y018930D01*
X007240Y018930D01*
X007165Y018918D01*
X007257Y018917D02*
X007297Y018917D01*
X007297Y018930D02*
X007297Y018470D01*
X007757Y018470D01*
X007757Y018488D01*
X007746Y018562D01*
X007722Y018634D01*
X007688Y018702D01*
X007644Y018763D01*
X007590Y018816D01*
X007529Y018861D01*
X007462Y018895D01*
X007390Y018918D01*
X007315Y018930D01*
X007297Y018930D01*
X007394Y018917D02*
X007997Y018917D01*
X007945Y019075D02*
X007581Y019075D01*
X007740Y019234D02*
X007787Y019234D01*
X007777Y019392D02*
X007757Y019392D01*
X007757Y019470D02*
X007757Y019649D01*
X007476Y019930D01*
X007297Y019930D01*
X007297Y019470D01*
X007757Y019470D01*
X007757Y019551D02*
X007777Y019551D01*
X007829Y019709D02*
X007697Y019709D01*
X007539Y019868D02*
X007988Y019868D01*
X008277Y019450D02*
X008277Y018450D01*
X007785Y017958D01*
X007785Y017009D01*
X007777Y016539D02*
X007777Y016539D01*
X007777Y016381D02*
X007777Y016381D01*
X007757Y016222D02*
X007798Y016222D01*
X007957Y016064D02*
X007598Y016064D01*
X007557Y015905D02*
X007997Y015905D01*
X007867Y015747D02*
X007688Y015747D01*
X007777Y015588D02*
X007777Y015588D01*
X007777Y015430D02*
X007777Y015430D01*
X007777Y015271D02*
X007777Y015271D01*
X007647Y015113D02*
X007908Y015113D01*
X007997Y014954D02*
X007557Y014954D01*
X007639Y014796D02*
X007916Y014796D01*
X007777Y014637D02*
X007777Y014637D01*
X007777Y014479D02*
X007777Y014479D01*
X007777Y014320D02*
X007777Y014320D01*
X007696Y014162D02*
X007859Y014162D01*
X008017Y014003D02*
X007538Y014003D01*
X007590Y013845D02*
X007965Y013845D01*
X007806Y013686D02*
X007748Y013686D01*
X007777Y013657D02*
X007777Y013243D01*
X007557Y013023D01*
X007557Y012875D01*
X007561Y012874D01*
X007701Y012733D01*
X007777Y012549D01*
X007777Y012351D01*
X007713Y012195D01*
X007725Y012207D01*
X007787Y012233D01*
X007777Y012243D01*
X007777Y012657D01*
X007997Y012877D01*
X007997Y013023D01*
X007777Y013243D01*
X007777Y013657D01*
X007777Y013528D02*
X007777Y013528D01*
X007777Y013369D02*
X007777Y013369D01*
X007745Y013211D02*
X007810Y013211D01*
X007968Y013052D02*
X007587Y013052D01*
X007557Y012894D02*
X007997Y012894D01*
X007855Y012735D02*
X007699Y012735D01*
X007766Y012577D02*
X007777Y012577D01*
X007777Y012418D02*
X007777Y012418D01*
X007777Y012260D02*
X007740Y012260D01*
X007884Y011970D02*
X009439Y011970D01*
X009577Y011832D01*
X009577Y011525D01*
X009585Y011517D01*
X009865Y011414D02*
X009865Y011194D01*
X009747Y011077D01*
X009422Y011077D01*
X009335Y011164D01*
X009247Y011077D01*
X008922Y011077D01*
X008835Y011164D01*
X008747Y011077D01*
X008422Y011077D01*
X008305Y011194D01*
X008305Y011690D01*
X008000Y011690D01*
X007684Y011374D01*
X007942Y011374D01*
X008137Y011293D01*
X008286Y011144D01*
X008366Y010949D01*
X008366Y010738D01*
X008286Y010543D01*
X008137Y010394D01*
X007942Y010314D01*
X007807Y010314D01*
X007807Y009687D01*
X008070Y009950D01*
X008305Y009950D01*
X008305Y010580D01*
X008422Y010697D01*
X008747Y010697D01*
X008835Y010610D01*
X008922Y010697D01*
X009247Y010697D01*
X009352Y010593D01*
X009360Y010608D01*
X009394Y010641D01*
X009435Y010665D01*
X009481Y010677D01*
X009585Y010677D01*
X009585Y010257D01*
X009778Y010257D01*
X009778Y010257D01*
X009585Y010257D01*
X009585Y010257D01*
X009585Y010257D01*
X009585Y009837D01*
X009585Y010257D01*
X009585Y010257D01*
X009585Y007757D01*
X009277Y007450D01*
X009277Y006450D01*
X009257Y006470D02*
X009257Y006430D01*
X008797Y006430D01*
X008797Y006251D01*
X009079Y005970D01*
X009257Y005970D01*
X009257Y006430D01*
X009297Y006430D01*
X009297Y005970D01*
X009476Y005970D01*
X009757Y006251D01*
X009757Y006430D01*
X009297Y006430D01*
X009297Y006470D01*
X009257Y006470D01*
X008797Y006470D01*
X008797Y006649D01*
X009079Y006930D01*
X009257Y006930D01*
X009257Y006470D01*
X009297Y006470D02*
X009297Y006930D01*
X009476Y006930D01*
X009757Y006649D01*
X009757Y006470D01*
X009297Y006470D01*
X009297Y006395D02*
X009257Y006395D01*
X009257Y006237D02*
X009297Y006237D01*
X009297Y006078D02*
X009257Y006078D01*
X009584Y006078D02*
X009970Y006078D01*
X010079Y005970D02*
X010257Y005970D01*
X010257Y006430D01*
X009797Y006430D01*
X009797Y006251D01*
X010079Y005970D01*
X010257Y006078D02*
X010297Y006078D01*
X010297Y005970D02*
X010476Y005970D01*
X010757Y006251D01*
X010757Y006430D01*
X010297Y006430D01*
X010297Y005970D01*
X010297Y006237D02*
X010257Y006237D01*
X010257Y006395D02*
X010297Y006395D01*
X010297Y006430D02*
X010257Y006430D01*
X010257Y006470D01*
X009797Y006470D01*
X009797Y006649D01*
X010079Y006930D01*
X010257Y006930D01*
X010257Y006470D01*
X010297Y006470D01*
X010297Y006930D01*
X010476Y006930D01*
X010757Y006649D01*
X010757Y006470D01*
X010297Y006470D01*
X010297Y006430D01*
X010277Y006450D02*
X010277Y007450D01*
X010257Y007470D02*
X010257Y007430D01*
X009797Y007430D01*
X009797Y007251D01*
X010079Y006970D01*
X010257Y006970D01*
X010257Y007430D01*
X010297Y007430D01*
X010297Y006970D01*
X010476Y006970D01*
X010757Y007251D01*
X010757Y007430D01*
X010297Y007430D01*
X010297Y007470D01*
X010257Y007470D01*
X009797Y007470D01*
X009797Y007649D01*
X010079Y007930D01*
X010257Y007930D01*
X010257Y007470D01*
X010257Y007505D02*
X010297Y007505D01*
X010297Y007470D02*
X010297Y007930D01*
X010476Y007930D01*
X010757Y007649D01*
X010757Y007470D01*
X010297Y007470D01*
X010297Y007346D02*
X010257Y007346D01*
X010257Y007188D02*
X010297Y007188D01*
X010297Y007029D02*
X010257Y007029D01*
X010257Y006871D02*
X010297Y006871D01*
X010297Y006712D02*
X010257Y006712D01*
X010257Y006554D02*
X010297Y006554D01*
X010536Y006871D02*
X011019Y006871D01*
X011079Y006930D02*
X010797Y006649D01*
X010797Y006470D01*
X011257Y006470D01*
X011257Y006930D01*
X011079Y006930D01*
X011079Y006970D02*
X011257Y006970D01*
X011257Y007430D01*
X010797Y007430D01*
X010797Y007251D01*
X011079Y006970D01*
X011019Y007029D02*
X010535Y007029D01*
X010694Y007188D02*
X010861Y007188D01*
X010797Y007346D02*
X010757Y007346D01*
X010797Y007470D02*
X010797Y007649D01*
X011079Y007930D01*
X011257Y007930D01*
X011257Y007470D01*
X011257Y007430D01*
X011297Y007430D01*
X011297Y007470D01*
X011257Y007470D01*
X010797Y007470D01*
X010797Y007505D02*
X010757Y007505D01*
X010743Y007663D02*
X010812Y007663D01*
X010970Y007822D02*
X010585Y007822D01*
X010297Y007822D02*
X010257Y007822D01*
X010257Y007663D02*
X010297Y007663D01*
X009970Y007822D02*
X009585Y007822D01*
X009476Y007930D02*
X009297Y007930D01*
X009297Y007470D01*
X009257Y007470D01*
X009257Y007430D01*
X008797Y007430D01*
X008797Y007251D01*
X009079Y006970D01*
X009257Y006970D01*
X009257Y007430D01*
X009297Y007430D01*
X009297Y006970D01*
X009476Y006970D01*
X009757Y007251D01*
X009757Y007430D01*
X009297Y007430D01*
X009297Y007470D01*
X009757Y007470D01*
X009757Y007649D01*
X009476Y007930D01*
X009297Y007822D02*
X009257Y007822D01*
X009257Y007930D02*
X009079Y007930D01*
X008797Y007649D01*
X008797Y007470D01*
X009257Y007470D01*
X009257Y007930D01*
X009257Y007663D02*
X009297Y007663D01*
X009297Y007505D02*
X009257Y007505D01*
X009257Y007346D02*
X009297Y007346D01*
X009297Y007188D02*
X009257Y007188D01*
X009257Y007029D02*
X009297Y007029D01*
X009297Y006871D02*
X009257Y006871D01*
X009257Y006712D02*
X009297Y006712D01*
X009297Y006554D02*
X009257Y006554D01*
X009536Y006871D02*
X010019Y006871D01*
X010019Y007029D02*
X009535Y007029D01*
X009694Y007188D02*
X009861Y007188D01*
X009797Y007346D02*
X009757Y007346D01*
X009757Y007505D02*
X009797Y007505D01*
X009812Y007663D02*
X009743Y007663D01*
X008970Y007822D02*
X008585Y007822D01*
X008476Y007930D02*
X008757Y007649D01*
X008757Y007470D01*
X008297Y007470D01*
X008297Y007930D01*
X008476Y007930D01*
X008515Y007980D02*
X011068Y007980D01*
X011079Y007970D02*
X011257Y007970D01*
X011257Y008430D01*
X010797Y008430D01*
X010797Y008251D01*
X011079Y007970D01*
X011257Y007980D02*
X011297Y007980D01*
X011297Y007970D02*
X011476Y007970D01*
X011757Y008251D01*
X011757Y008430D01*
X011297Y008430D01*
X011297Y007970D01*
X011297Y007930D02*
X011297Y007470D01*
X011757Y007470D01*
X011757Y007649D01*
X011476Y007930D01*
X011297Y007930D01*
X011297Y007822D02*
X011257Y007822D01*
X011257Y007663D02*
X011297Y007663D01*
X011297Y007505D02*
X011257Y007505D01*
X011277Y007450D02*
X011277Y008450D01*
X011277Y009450D01*
X011277Y010450D01*
X011277Y011811D01*
X010673Y012415D01*
X010673Y012415D01*
X010673Y013067D01*
X010706Y013067D01*
X010771Y013057D01*
X010833Y013037D01*
X010892Y013007D01*
X010945Y012968D01*
X010991Y012922D01*
X011029Y012869D01*
X011059Y012811D01*
X011079Y012748D01*
X011090Y012684D01*
X011090Y012415D01*
X010674Y012415D01*
X010674Y012415D01*
X011090Y012415D01*
X011090Y012146D01*
X011079Y012081D01*
X011059Y012019D01*
X011029Y011960D01*
X010991Y011907D01*
X010945Y011861D01*
X010892Y011822D01*
X010833Y011793D01*
X010771Y011772D01*
X010706Y011762D01*
X010673Y011762D01*
X010673Y012415D01*
X011213Y012954D01*
X012175Y012954D01*
X012387Y013166D01*
X012387Y013210D01*
X012347Y013211D02*
X011670Y013211D01*
X011687Y013369D02*
X011967Y013369D01*
X011967Y013250D02*
X012347Y013250D01*
X012347Y013170D01*
X011967Y013170D01*
X011967Y012747D01*
X011980Y012701D01*
X012003Y012660D01*
X012037Y012626D01*
X012078Y012603D01*
X012124Y012590D01*
X012347Y012590D01*
X012347Y013170D01*
X012427Y013170D01*
X012427Y012590D01*
X012651Y012590D01*
X012697Y012603D01*
X012738Y012626D01*
X012771Y012660D01*
X012795Y012701D01*
X012807Y012747D01*
X012807Y013170D01*
X012427Y013170D01*
X012427Y013250D01*
X012347Y013250D01*
X012347Y013830D01*
X012124Y013830D01*
X012078Y013818D01*
X012037Y013794D01*
X012003Y013761D01*
X011980Y013720D01*
X011967Y013674D01*
X011967Y013250D01*
X011967Y013052D02*
X011568Y013052D01*
X011309Y013328D02*
X011277Y013359D01*
X011050Y013052D02*
X010785Y013052D01*
X010673Y013052D02*
X010673Y013052D01*
X010673Y012894D02*
X010673Y012894D01*
X010673Y012735D02*
X010673Y012735D01*
X010673Y012577D02*
X010673Y012577D01*
X010673Y012418D02*
X010673Y012418D01*
X010673Y012415D02*
X010673Y012415D01*
X010673Y012260D02*
X010673Y012260D01*
X010673Y012101D02*
X010673Y012101D01*
X010673Y011943D02*
X010673Y011943D01*
X010673Y011784D02*
X010673Y011784D01*
X010540Y011784D02*
X010530Y011784D01*
X010577Y011626D02*
X011699Y011626D01*
X011699Y011784D02*
X010807Y011784D01*
X011017Y011943D02*
X011699Y011943D01*
X011699Y012101D02*
X011083Y012101D01*
X011090Y012260D02*
X011699Y012260D01*
X011770Y012418D02*
X011090Y012418D01*
X011090Y012577D02*
X012760Y012577D01*
X012804Y012735D02*
X012857Y012735D01*
X012857Y012894D02*
X012807Y012894D01*
X012807Y013052D02*
X012857Y013052D01*
X012857Y013211D02*
X012427Y013211D01*
X012427Y013250D02*
X012807Y013250D01*
X012807Y013674D01*
X012795Y013720D01*
X012771Y013761D01*
X012738Y013794D01*
X012697Y013818D01*
X012651Y013830D01*
X012427Y013830D01*
X012427Y013250D01*
X012427Y013369D02*
X012347Y013369D01*
X012347Y013528D02*
X012427Y013528D01*
X012427Y013686D02*
X012347Y013686D01*
X011971Y013686D02*
X011597Y013686D01*
X011597Y013845D02*
X012969Y013845D01*
X013017Y014003D02*
X011597Y014003D01*
X011696Y014162D02*
X013017Y014162D01*
X013017Y014320D02*
X011777Y014320D01*
X011777Y014479D02*
X013017Y014479D01*
X013017Y014637D02*
X012987Y014637D01*
X012721Y014637D02*
X011777Y014637D01*
X011639Y014796D02*
X012526Y014796D01*
X012476Y014954D02*
X011489Y014954D01*
X011647Y015113D02*
X012410Y015113D01*
X012388Y015271D02*
X011777Y015271D01*
X011777Y015430D02*
X012388Y015430D01*
X012388Y015588D02*
X011777Y015588D01*
X011688Y015747D02*
X012388Y015747D01*
X012388Y015905D02*
X011557Y015905D01*
X011598Y016064D02*
X012042Y016064D01*
X011857Y016222D02*
X011757Y016222D01*
X011777Y016381D02*
X011791Y016381D01*
X011777Y016539D02*
X011788Y016539D01*
X011788Y016698D02*
X011737Y016698D01*
X011788Y016856D02*
X011578Y016856D01*
X011557Y017015D02*
X011788Y017015D01*
X011811Y017173D02*
X011708Y017173D01*
X011777Y017332D02*
X011902Y017332D01*
X011777Y017490D02*
X012157Y017490D01*
X012358Y017490D02*
X013157Y017490D01*
X013358Y017490D02*
X014157Y017490D01*
X014358Y017490D02*
X016158Y017490D01*
X016158Y017597D02*
X016158Y017208D01*
X016433Y016933D01*
X016823Y016933D01*
X017098Y017208D01*
X017098Y017597D01*
X016823Y017873D01*
X016433Y017873D01*
X016158Y017597D01*
X016209Y017649D02*
X011777Y017649D01*
X011627Y017807D02*
X016368Y017807D01*
X016429Y017966D02*
X011557Y017966D01*
X011531Y018124D02*
X016270Y018124D01*
X016178Y018283D02*
X011396Y018283D01*
X011237Y018441D02*
X012262Y018441D01*
X012275Y018428D02*
X012558Y018428D01*
X012558Y019183D01*
X012658Y019183D01*
X012658Y018428D01*
X012942Y018428D01*
X013413Y018900D01*
X013413Y019183D01*
X012658Y019183D01*
X012658Y019283D01*
X013413Y019283D01*
X013413Y019567D01*
X012942Y020038D01*
X012658Y020038D01*
X012658Y019283D01*
X012558Y019283D01*
X012558Y019183D01*
X011803Y019183D01*
X011803Y018900D01*
X012275Y018428D01*
X012103Y018600D02*
X009777Y018600D01*
X009676Y018758D02*
X011945Y018758D01*
X011803Y018917D02*
X009557Y018917D01*
X009610Y019075D02*
X010567Y019075D01*
X010673Y019075D02*
X010673Y019075D01*
X010673Y019062D02*
X010706Y019062D01*
X010771Y019072D01*
X010833Y019093D01*
X010892Y019122D01*
X010945Y019161D01*
X010991Y019207D01*
X011029Y019260D01*
X011059Y019319D01*
X011079Y019381D01*
X011090Y019446D01*
X011090Y019715D01*
X010674Y019715D01*
X010674Y019715D01*
X010673Y019715D02*
X010673Y019062D01*
X010780Y019075D02*
X011803Y019075D01*
X011803Y019283D02*
X012558Y019283D01*
X012558Y020038D01*
X012275Y020038D01*
X011803Y019567D01*
X011803Y019283D01*
X011803Y019392D02*
X011081Y019392D01*
X011090Y019551D02*
X011803Y019551D01*
X011945Y019709D02*
X011090Y019709D01*
X011090Y019868D02*
X012104Y019868D01*
X012262Y020026D02*
X011083Y020026D01*
X010673Y019709D02*
X010673Y019709D01*
X010673Y019551D02*
X010673Y019551D01*
X010673Y019392D02*
X010673Y019392D01*
X010673Y019234D02*
X010673Y019234D01*
X010337Y019234D02*
X009768Y019234D01*
X009777Y019392D02*
X010266Y019392D01*
X010257Y019551D02*
X009777Y019551D01*
X009725Y019709D02*
X010257Y019709D01*
X010257Y019868D02*
X009567Y019868D01*
X009277Y019450D02*
X009277Y018450D01*
X009518Y018210D01*
X011073Y018210D01*
X011277Y018005D01*
X011277Y017450D01*
X011277Y016450D01*
X011277Y015450D01*
X010908Y015113D02*
X010647Y015113D01*
X010557Y014954D02*
X011066Y014954D01*
X010916Y014796D02*
X010639Y014796D01*
X010777Y014637D02*
X010777Y014637D01*
X010777Y014479D02*
X010777Y014479D01*
X010777Y014320D02*
X010777Y014320D01*
X010696Y014162D02*
X010859Y014162D01*
X010957Y014003D02*
X010538Y014003D01*
X010428Y013686D02*
X010957Y013686D01*
X010957Y013528D02*
X010632Y013528D01*
X010683Y013369D02*
X010931Y013369D01*
X010948Y013211D02*
X010666Y013211D01*
X011012Y012894D02*
X011967Y012894D01*
X011970Y012735D02*
X011082Y012735D01*
X011635Y013528D02*
X011967Y013528D01*
X012347Y013052D02*
X012427Y013052D01*
X012427Y012894D02*
X012347Y012894D01*
X012347Y012735D02*
X012427Y012735D01*
X012807Y013369D02*
X012857Y013369D01*
X012857Y013528D02*
X012807Y013528D01*
X012804Y013686D02*
X012857Y013686D01*
X013297Y013210D02*
X013297Y012718D01*
X012372Y011793D01*
X011787Y011150D02*
X010519Y011150D01*
X010519Y010992D02*
X012061Y010992D01*
X011953Y010833D02*
X011573Y010833D01*
X011476Y010930D02*
X011297Y010930D01*
X011297Y010470D01*
X011257Y010470D01*
X011257Y010430D01*
X010797Y010430D01*
X010797Y010251D01*
X011079Y009970D01*
X011257Y009970D01*
X011257Y010430D01*
X011297Y010430D01*
X011297Y009970D01*
X011476Y009970D01*
X011757Y010251D01*
X011757Y010430D01*
X011297Y010430D01*
X011297Y010470D01*
X011757Y010470D01*
X011757Y010649D01*
X011476Y010930D01*
X011297Y010833D02*
X011257Y010833D01*
X011257Y010930D02*
X011079Y010930D01*
X010797Y010649D01*
X010797Y010470D01*
X011257Y010470D01*
X011257Y010930D01*
X011257Y010675D02*
X011297Y010675D01*
X011297Y010516D02*
X011257Y010516D01*
X011257Y010358D02*
X011297Y010358D01*
X011297Y010199D02*
X011257Y010199D01*
X011257Y010041D02*
X011297Y010041D01*
X011297Y009930D02*
X011476Y009930D01*
X011757Y009649D01*
X011757Y009470D01*
X011297Y009470D01*
X011257Y009470D01*
X011257Y009430D01*
X010797Y009430D01*
X010797Y009251D01*
X011079Y008970D01*
X011257Y008970D01*
X011257Y009430D01*
X011297Y009430D01*
X011297Y008970D01*
X011476Y008970D01*
X011757Y009251D01*
X011757Y009430D01*
X011297Y009430D01*
X011297Y009470D01*
X011297Y009930D01*
X011257Y009930D02*
X011079Y009930D01*
X010797Y009649D01*
X010797Y009470D01*
X011257Y009470D01*
X011257Y009930D01*
X011257Y009882D02*
X011297Y009882D01*
X011297Y009724D02*
X011257Y009724D01*
X011257Y009565D02*
X011297Y009565D01*
X011297Y009407D02*
X011257Y009407D01*
X011257Y009248D02*
X011297Y009248D01*
X011297Y009090D02*
X011257Y009090D01*
X011257Y008930D02*
X011079Y008930D01*
X010797Y008649D01*
X010797Y008470D01*
X011257Y008470D01*
X011257Y008430D01*
X011297Y008430D01*
X011297Y008470D01*
X011257Y008470D01*
X011257Y008930D01*
X011297Y008930D02*
X011476Y008930D01*
X011757Y008649D01*
X011757Y008470D01*
X011297Y008470D01*
X011297Y008930D01*
X011297Y008773D02*
X011257Y008773D01*
X011257Y008614D02*
X011297Y008614D01*
X011297Y008456D02*
X011777Y008456D01*
X011777Y008614D02*
X011757Y008614D01*
X011634Y008773D02*
X011893Y008773D01*
X012051Y008931D02*
X008503Y008931D01*
X008485Y008950D02*
X008070Y008950D01*
X008485Y008950D01*
X008624Y009090D02*
X010959Y009090D01*
X010800Y009248D02*
X008777Y009248D01*
X008777Y009407D02*
X010797Y009407D01*
X010797Y009565D02*
X008777Y009565D01*
X008711Y009724D02*
X009873Y009724D01*
X009585Y009882D02*
X009585Y009882D01*
X009585Y010041D02*
X009585Y010041D01*
X009585Y010199D02*
X009585Y010199D01*
X009585Y010257D02*
X009365Y010257D01*
X009585Y010257D01*
X009585Y010677D01*
X009688Y010677D01*
X009734Y010665D01*
X009775Y010641D01*
X009809Y010608D01*
X009832Y010566D01*
X009845Y010521D01*
X009845Y010361D01*
X009879Y010395D01*
X009879Y011381D01*
X009878Y011381D01*
X009865Y011414D01*
X009865Y011309D02*
X009879Y011309D01*
X009879Y011150D02*
X009821Y011150D01*
X009879Y010992D02*
X008349Y010992D01*
X008349Y011150D02*
X008280Y011150D01*
X008305Y011309D02*
X008099Y011309D01*
X008305Y011467D02*
X007777Y011467D01*
X007936Y011626D02*
X008305Y011626D01*
X008821Y011150D02*
X008849Y011150D01*
X008899Y010675D02*
X008770Y010675D01*
X008399Y010675D02*
X008340Y010675D01*
X008366Y010833D02*
X009879Y010833D01*
X009879Y010675D02*
X009697Y010675D01*
X009585Y010675D02*
X009585Y010675D01*
X009472Y010675D02*
X009270Y010675D01*
X009585Y010516D02*
X009585Y010516D01*
X009585Y010358D02*
X009585Y010358D01*
X009585Y010257D02*
X009585Y010257D01*
X009365Y010257D02*
X009365Y010257D01*
X009385Y009882D02*
X009312Y009882D01*
X008857Y009882D02*
X008813Y009882D01*
X008305Y010041D02*
X007807Y010041D01*
X007807Y010199D02*
X008305Y010199D01*
X008305Y010358D02*
X008048Y010358D01*
X008258Y010516D02*
X008305Y010516D01*
X008002Y009882D02*
X007807Y009882D01*
X007807Y009724D02*
X007844Y009724D01*
X007807Y009213D02*
X008070Y008950D01*
X007807Y008687D01*
X007807Y009213D01*
X007807Y009090D02*
X007931Y009090D01*
X008051Y008931D02*
X007807Y008931D01*
X007807Y008773D02*
X007893Y008773D01*
X007882Y008139D02*
X007807Y008139D01*
X007807Y007980D02*
X008040Y007980D01*
X007970Y007822D02*
X007807Y007822D01*
X007807Y007663D02*
X007812Y007663D01*
X008257Y007663D02*
X008297Y007663D01*
X008297Y007505D02*
X008257Y007505D01*
X008277Y007450D02*
X008277Y006450D01*
X008297Y006470D02*
X008297Y006930D01*
X008476Y006930D01*
X008757Y006649D01*
X008757Y006470D01*
X008297Y006470D01*
X008297Y006395D02*
X008257Y006395D01*
X008257Y006237D02*
X008297Y006237D01*
X008297Y006078D02*
X008257Y006078D01*
X008040Y005920D02*
X007807Y005920D01*
X007807Y006078D02*
X007970Y006078D01*
X007812Y006237D02*
X007807Y006237D01*
X007807Y005761D02*
X007881Y005761D01*
X007807Y005213D02*
X008070Y004950D01*
X008485Y004950D01*
X008070Y004950D01*
X007807Y004687D01*
X007807Y005213D01*
X007807Y005127D02*
X007893Y005127D01*
X007807Y004969D02*
X008052Y004969D01*
X007930Y004810D02*
X007807Y004810D01*
X007807Y004176D02*
X007844Y004176D01*
X007807Y004018D02*
X008003Y004018D01*
X007807Y003859D02*
X009007Y003859D01*
X009007Y003701D02*
X007807Y003701D01*
X007807Y003542D02*
X009007Y003542D01*
X009007Y003384D02*
X007807Y003384D01*
X007807Y003225D02*
X009007Y003225D01*
X009007Y003067D02*
X007807Y003067D01*
X007807Y002908D02*
X009007Y002908D01*
X009007Y002750D02*
X008015Y002750D01*
X008173Y002591D02*
X008933Y002591D01*
X008774Y002433D02*
X008332Y002433D01*
X008394Y002274D02*
X008712Y002274D01*
X008712Y002116D02*
X008394Y002116D01*
X008394Y001957D02*
X008712Y001957D01*
X008712Y001799D02*
X008394Y001799D01*
X008347Y001640D02*
X008759Y001640D01*
X008918Y001482D02*
X008188Y001482D01*
X008030Y001323D02*
X009076Y001323D01*
X009998Y001323D02*
X010797Y001323D01*
X010797Y001470D02*
X011257Y001470D01*
X011257Y001930D01*
X011079Y001930D01*
X010797Y001649D01*
X010797Y001470D01*
X010797Y001482D02*
X010157Y001482D01*
X010315Y001640D02*
X010797Y001640D01*
X010947Y001799D02*
X010362Y001799D01*
X010362Y001957D02*
X011997Y001957D01*
X011919Y001799D02*
X011608Y001799D01*
X011476Y001930D02*
X011297Y001930D01*
X011297Y001470D01*
X011757Y001470D01*
X011757Y001649D01*
X011476Y001930D01*
X011297Y001799D02*
X011257Y001799D01*
X011257Y001640D02*
X011297Y001640D01*
X011297Y001482D02*
X011257Y001482D01*
X011277Y001450D02*
X011277Y002450D01*
X011277Y003450D01*
X011277Y004450D01*
X011277Y005450D01*
X011277Y006450D01*
X011277Y007450D01*
X011257Y007346D02*
X011297Y007346D01*
X011297Y007188D02*
X011257Y007188D01*
X011257Y007029D02*
X011297Y007029D01*
X011297Y006871D02*
X011257Y006871D01*
X011257Y006712D02*
X011297Y006712D01*
X011297Y006554D02*
X011257Y006554D01*
X011257Y006395D02*
X011297Y006395D01*
X011297Y006237D02*
X011257Y006237D01*
X011257Y006078D02*
X011297Y006078D01*
X011257Y005930D02*
X011079Y005930D01*
X010797Y005649D01*
X010797Y005470D01*
X011257Y005470D01*
X011257Y005930D01*
X011257Y005920D02*
X011297Y005920D01*
X011297Y005761D02*
X011257Y005761D01*
X011257Y005603D02*
X011297Y005603D01*
X011257Y005444D02*
X010726Y005444D01*
X010729Y005286D02*
X010797Y005286D01*
X010688Y005127D02*
X010921Y005127D01*
X011079Y004930D02*
X010797Y004649D01*
X010797Y004470D01*
X011257Y004470D01*
X011257Y004930D01*
X011079Y004930D01*
X010959Y004810D02*
X010324Y004810D01*
X010067Y004652D02*
X010800Y004652D01*
X010797Y004493D02*
X010067Y004493D01*
X010067Y004335D02*
X010797Y004335D01*
X010872Y004176D02*
X010067Y004176D01*
X010067Y004018D02*
X011031Y004018D01*
X011079Y003930D02*
X010797Y003649D01*
X010797Y003470D01*
X011257Y003470D01*
X011257Y003930D01*
X011079Y003930D01*
X011008Y003859D02*
X010067Y003859D01*
X010067Y003701D02*
X010849Y003701D01*
X010797Y003542D02*
X010067Y003542D01*
X010067Y003384D02*
X010797Y003384D01*
X010823Y003225D02*
X010067Y003225D01*
X010067Y003067D02*
X010982Y003067D01*
X011079Y002930D02*
X010797Y002649D01*
X010797Y002470D01*
X011257Y002470D01*
X011257Y002930D01*
X011079Y002930D01*
X011057Y002908D02*
X010067Y002908D01*
X010067Y002750D02*
X010898Y002750D01*
X010797Y002591D02*
X010142Y002591D01*
X010300Y002433D02*
X011257Y002433D01*
X011297Y002433D02*
X011777Y002433D01*
X011777Y002274D02*
X011757Y002274D01*
X011622Y002116D02*
X011905Y002116D01*
X012277Y002450D02*
X012277Y001450D01*
X012636Y001799D02*
X012919Y001799D01*
X012997Y001877D02*
X012777Y001657D01*
X012557Y001877D01*
X012557Y002023D01*
X012777Y002243D01*
X012777Y002657D01*
X012485Y002950D01*
X012099Y002950D01*
X012099Y002950D01*
X012485Y002950D01*
X012777Y003243D01*
X012777Y003596D01*
X012777Y003243D01*
X013070Y002950D01*
X012777Y002657D01*
X012777Y002243D01*
X012997Y002023D01*
X012997Y001877D01*
X012997Y001957D02*
X012557Y001957D01*
X012650Y002116D02*
X012905Y002116D01*
X012777Y002274D02*
X012777Y002274D01*
X012777Y002433D02*
X012777Y002433D01*
X012777Y002591D02*
X012777Y002591D01*
X012685Y002750D02*
X012870Y002750D01*
X013028Y002908D02*
X012526Y002908D01*
X012601Y003067D02*
X012954Y003067D01*
X013070Y002950D02*
X013391Y002950D01*
X013391Y002950D01*
X013070Y002950D01*
X012795Y003225D02*
X012760Y003225D01*
X012777Y003384D02*
X012777Y003384D01*
X012777Y003542D02*
X012777Y003542D01*
X012777Y003596D02*
X012777Y003596D01*
X012594Y003840D02*
X012485Y003950D01*
X012131Y003950D01*
X012131Y003950D01*
X012485Y003950D01*
X012594Y004060D01*
X012594Y003840D01*
X012594Y003859D02*
X012575Y003859D01*
X012552Y004018D02*
X012594Y004018D01*
X013131Y003950D02*
X013485Y003950D01*
X013131Y003950D01*
X013131Y003950D01*
X013485Y003950D02*
X013520Y003915D01*
X013520Y003985D01*
X013485Y003950D01*
X013777Y004304D02*
X013777Y004596D01*
X013777Y004596D01*
X013777Y004304D01*
X013777Y004304D01*
X013777Y004335D02*
X013777Y004335D01*
X013777Y004493D02*
X013777Y004493D01*
X014020Y004899D02*
X014020Y005001D01*
X014070Y004950D01*
X014485Y004950D01*
X014777Y005243D01*
X014777Y005657D01*
X014527Y005907D01*
X014527Y005993D01*
X014777Y006243D01*
X014777Y006657D01*
X014485Y006950D01*
X014070Y006950D01*
X013777Y006657D01*
X013485Y006950D01*
X013777Y007243D01*
X013777Y007657D01*
X013557Y007877D01*
X013557Y008023D01*
X013777Y008243D01*
X013777Y008657D01*
X013485Y008950D01*
X013777Y009243D01*
X013777Y009657D01*
X013557Y009877D01*
X013557Y010023D01*
X013777Y010243D01*
X013777Y010657D01*
X013512Y010922D01*
X013515Y010925D01*
X013557Y011028D01*
X013557Y011120D01*
X014066Y011120D01*
X014236Y010950D01*
X014070Y010950D01*
X013777Y010657D01*
X013777Y010243D01*
X013997Y010023D01*
X013997Y009877D01*
X013777Y009657D01*
X013777Y009243D01*
X014070Y008950D01*
X013777Y008657D01*
X013777Y008243D01*
X013997Y008023D01*
X013997Y007877D01*
X013777Y007657D01*
X013777Y007243D01*
X014070Y006950D01*
X014485Y006950D01*
X014777Y007243D01*
X014777Y007657D01*
X014557Y007877D01*
X014557Y008023D01*
X014777Y008243D01*
X014777Y008554D01*
X014777Y008554D01*
X014777Y008243D01*
X014997Y008023D01*
X014997Y007877D01*
X014777Y007657D01*
X014777Y007243D01*
X014997Y007023D01*
X014997Y006877D01*
X014777Y006657D01*
X014777Y006243D01*
X014997Y006023D01*
X014997Y005877D01*
X014777Y005657D01*
X014777Y005243D01*
X014997Y005023D01*
X014997Y004877D01*
X014777Y004657D01*
X014485Y004950D01*
X014070Y004950D01*
X014020Y004899D01*
X014020Y004969D02*
X014052Y004969D01*
X014503Y004969D02*
X014997Y004969D01*
X014930Y004810D02*
X014624Y004810D01*
X014777Y004657D02*
X014777Y004243D01*
X014485Y003950D01*
X014131Y003950D01*
X014131Y003950D01*
X014485Y003950D01*
X014777Y003657D01*
X014777Y003243D01*
X014485Y002950D01*
X014148Y002950D01*
X014148Y002950D01*
X014485Y002950D01*
X014777Y002657D01*
X014777Y002243D01*
X014485Y001950D01*
X014070Y001950D01*
X013777Y002243D01*
X013777Y002576D01*
X013777Y002576D01*
X013777Y002243D01*
X013557Y002023D01*
X013557Y001877D01*
X013777Y001657D01*
X013777Y001243D01*
X013742Y001208D01*
X013813Y001208D01*
X013777Y001243D01*
X013777Y001657D01*
X014070Y001950D01*
X014485Y001950D01*
X014777Y001657D01*
X014777Y001243D01*
X014742Y001208D01*
X014813Y001208D01*
X014777Y001243D01*
X014777Y001657D01*
X014997Y001877D01*
X014997Y002023D01*
X014777Y002243D01*
X014777Y002657D01*
X015070Y002950D01*
X015381Y002950D01*
X015381Y002950D01*
X015070Y002950D01*
X014777Y003243D01*
X014777Y003657D01*
X014997Y003877D01*
X014997Y004023D01*
X014777Y004243D01*
X014777Y004657D01*
X014777Y004652D02*
X014777Y004652D01*
X014777Y004493D02*
X014777Y004493D01*
X014777Y004335D02*
X014777Y004335D01*
X014711Y004176D02*
X014844Y004176D01*
X014997Y004018D02*
X014552Y004018D01*
X014575Y003859D02*
X014979Y003859D01*
X014821Y003701D02*
X014734Y003701D01*
X014777Y003542D02*
X014777Y003542D01*
X014777Y003384D02*
X014777Y003384D01*
X014760Y003225D02*
X014795Y003225D01*
X014954Y003067D02*
X014601Y003067D01*
X014526Y002908D02*
X015028Y002908D01*
X014870Y002750D02*
X014685Y002750D01*
X014777Y002591D02*
X014777Y002591D01*
X014777Y002433D02*
X014777Y002433D01*
X014777Y002274D02*
X014777Y002274D01*
X014650Y002116D02*
X014905Y002116D01*
X014997Y001957D02*
X014492Y001957D01*
X014636Y001799D02*
X014919Y001799D01*
X014777Y001640D02*
X014777Y001640D01*
X014777Y001482D02*
X014777Y001482D01*
X014777Y001323D02*
X014777Y001323D01*
X015277Y001450D02*
X015277Y002450D01*
X015876Y003048D01*
X015876Y008852D01*
X015277Y009450D01*
X015277Y010450D01*
X015734Y010907D01*
X016919Y010907D01*
X017116Y011104D01*
X017116Y013915D01*
X016628Y014403D01*
X017098Y014479D02*
X017158Y014479D01*
X017158Y014320D02*
X017106Y014320D01*
X017058Y014637D02*
X017198Y014637D01*
X017356Y014796D02*
X016900Y014796D01*
X016823Y014933D02*
X017098Y015208D01*
X017098Y015597D01*
X016823Y015873D01*
X016433Y015873D01*
X016158Y015597D01*
X016158Y015208D01*
X016433Y014933D01*
X016823Y014933D01*
X016844Y014954D02*
X017412Y014954D01*
X017253Y015113D02*
X017002Y015113D01*
X017098Y015271D02*
X017158Y015271D01*
X017158Y015430D02*
X017098Y015430D01*
X017098Y015588D02*
X017158Y015588D01*
X017307Y015747D02*
X016949Y015747D01*
X016823Y015933D02*
X017098Y016208D01*
X017098Y016597D01*
X016823Y016873D01*
X016433Y016873D01*
X016158Y016597D01*
X016158Y016208D01*
X016433Y015933D01*
X016823Y015933D01*
X016953Y016064D02*
X017302Y016064D01*
X017158Y016222D02*
X017098Y016222D01*
X017098Y016381D02*
X017158Y016381D01*
X017158Y016539D02*
X017098Y016539D01*
X016998Y016698D02*
X017258Y016698D01*
X017417Y016856D02*
X016839Y016856D01*
X016904Y017015D02*
X017351Y017015D01*
X017193Y017173D02*
X017063Y017173D01*
X017098Y017332D02*
X017158Y017332D01*
X017158Y017490D02*
X017098Y017490D01*
X017047Y017649D02*
X017209Y017649D01*
X017368Y017807D02*
X016888Y017807D01*
X016814Y017953D02*
X017078Y018216D01*
X017078Y018393D01*
X016638Y018393D01*
X016638Y017953D01*
X016814Y017953D01*
X016827Y017966D02*
X017400Y017966D01*
X017242Y018124D02*
X016986Y018124D01*
X017078Y018283D02*
X017158Y018283D01*
X017158Y018441D02*
X017078Y018441D01*
X017067Y018600D02*
X017160Y018600D01*
X017319Y018758D02*
X016909Y018758D01*
X016638Y018758D02*
X016618Y018758D01*
X016618Y018600D02*
X016638Y018600D01*
X016638Y018441D02*
X016618Y018441D01*
X016618Y018283D02*
X016638Y018283D01*
X016638Y018124D02*
X016618Y018124D01*
X016618Y017966D02*
X016638Y017966D01*
X016178Y018441D02*
X014951Y018441D01*
X014918Y018408D02*
X015402Y018892D01*
X015402Y019575D01*
X014918Y020058D01*
X014235Y020058D01*
X013752Y019575D01*
X013752Y018892D01*
X014235Y018408D01*
X014918Y018408D01*
X015110Y018600D02*
X016188Y018600D01*
X016347Y018758D02*
X015268Y018758D01*
X015402Y018917D02*
X016595Y018917D01*
X016464Y019075D02*
X015402Y019075D01*
X015402Y019234D02*
X016361Y019234D01*
X016343Y019392D02*
X015402Y019392D01*
X015402Y019551D02*
X016410Y019551D01*
X016565Y019709D02*
X015268Y019709D01*
X015109Y019868D02*
X016662Y019868D01*
X016544Y020026D02*
X014951Y020026D01*
X014203Y020026D02*
X012954Y020026D01*
X013112Y019868D02*
X014044Y019868D01*
X013886Y019709D02*
X013271Y019709D01*
X013413Y019551D02*
X013752Y019551D01*
X013752Y019392D02*
X013413Y019392D01*
X013413Y019075D02*
X013752Y019075D01*
X013752Y018917D02*
X013413Y018917D01*
X013271Y018758D02*
X013885Y018758D01*
X014044Y018600D02*
X013113Y018600D01*
X012954Y018441D02*
X014202Y018441D01*
X013752Y019234D02*
X012658Y019234D01*
X012558Y019234D02*
X011010Y019234D01*
X010268Y020048D02*
X010288Y020111D01*
X010318Y020169D01*
X010320Y020173D01*
X005854Y020173D01*
X005910Y020038D01*
X005910Y019392D01*
X005844Y019234D02*
X006815Y019234D01*
X006973Y019075D02*
X005640Y019075D01*
X005104Y019231D02*
X005037Y019392D01*
X005037Y019551D02*
X004052Y019551D01*
X003949Y019518D02*
X003851Y019485D01*
X003688Y019539D01*
X003671Y019556D01*
X003694Y019579D01*
X003755Y019518D01*
X003949Y019518D01*
X003723Y019551D02*
X003677Y019551D01*
X004210Y019709D02*
X005037Y019709D01*
X005037Y019868D02*
X004227Y019868D01*
X004118Y020026D02*
X005037Y020026D01*
X003937Y018758D02*
X006908Y018758D01*
X006821Y018600D02*
X004096Y018600D01*
X004098Y018441D02*
X007257Y018441D01*
X007277Y018450D02*
X007277Y019450D01*
X007257Y019392D02*
X007297Y019392D01*
X007297Y019234D02*
X007257Y019234D01*
X007257Y019075D02*
X007297Y019075D01*
X007297Y018758D02*
X007257Y018758D01*
X007257Y018600D02*
X007297Y018600D01*
X007297Y018441D02*
X007777Y018441D01*
X007777Y018600D02*
X007733Y018600D01*
X007647Y018758D02*
X007878Y018758D01*
X007297Y018283D02*
X007257Y018283D01*
X007257Y018124D02*
X007297Y018124D01*
X007505Y017966D02*
X003855Y017966D01*
X003814Y017853D02*
X003638Y017853D01*
X003638Y017413D01*
X003618Y017413D01*
X003618Y017853D01*
X003441Y017853D01*
X003178Y017589D01*
X003178Y017413D01*
X003618Y017413D01*
X003618Y017393D01*
X003178Y017393D01*
X003178Y017216D01*
X003441Y016953D01*
X003618Y016953D01*
X003618Y017393D01*
X003638Y017393D01*
X003638Y017413D01*
X004078Y017413D01*
X004078Y017589D01*
X003814Y017853D01*
X003860Y017807D02*
X004956Y017807D01*
X005079Y017930D02*
X004797Y017649D01*
X004797Y017470D01*
X005257Y017470D01*
X005257Y017430D01*
X004797Y017430D01*
X004797Y017251D01*
X005079Y016970D01*
X005257Y016970D01*
X005257Y017430D01*
X005297Y017430D01*
X005297Y016970D01*
X005476Y016970D01*
X005757Y017251D01*
X005757Y017430D01*
X005297Y017430D01*
X005297Y017470D01*
X005257Y017470D01*
X005257Y017930D01*
X005079Y017930D01*
X005257Y017807D02*
X005297Y017807D01*
X005297Y017930D02*
X005476Y017930D01*
X005757Y017649D01*
X005757Y017470D01*
X005297Y017470D01*
X005297Y017930D01*
X005297Y017649D02*
X005257Y017649D01*
X005257Y017490D02*
X005297Y017490D01*
X005297Y017332D02*
X005257Y017332D01*
X005257Y017173D02*
X005297Y017173D01*
X005297Y017015D02*
X005257Y017015D01*
X005257Y016856D02*
X005297Y016856D01*
X005297Y016698D02*
X005257Y016698D01*
X005257Y016539D02*
X005297Y016539D01*
X005297Y016381D02*
X005257Y016381D01*
X005257Y016222D02*
X005297Y016222D01*
X005297Y016064D02*
X005257Y016064D01*
X005297Y015930D02*
X005476Y015930D01*
X005757Y015649D01*
X005757Y015470D01*
X005297Y015470D01*
X005297Y015930D01*
X005297Y015905D02*
X005257Y015905D01*
X005257Y015747D02*
X005297Y015747D01*
X005297Y015588D02*
X005257Y015588D01*
X005257Y015430D02*
X005297Y015430D01*
X005297Y015271D02*
X005257Y015271D01*
X005257Y015113D02*
X005297Y015113D01*
X005297Y014796D02*
X005257Y014796D01*
X005619Y015113D02*
X005908Y015113D01*
X005777Y015271D02*
X005757Y015271D01*
X005757Y015430D02*
X005777Y015430D01*
X005777Y015588D02*
X005757Y015588D01*
X005660Y015747D02*
X005867Y015747D01*
X005997Y015905D02*
X005501Y015905D01*
X005570Y016064D02*
X005957Y016064D01*
X005798Y016222D02*
X005728Y016222D01*
X005757Y016381D02*
X005777Y016381D01*
X005777Y016539D02*
X005757Y016539D01*
X005709Y016698D02*
X005818Y016698D01*
X005976Y016856D02*
X005550Y016856D01*
X005521Y017015D02*
X005997Y017015D01*
X005847Y017173D02*
X005679Y017173D01*
X005757Y017332D02*
X005777Y017332D01*
X005777Y017490D02*
X005757Y017490D01*
X005757Y017649D02*
X005777Y017649D01*
X005927Y017807D02*
X005599Y017807D01*
X006277Y017450D02*
X006277Y016450D01*
X006277Y015450D01*
X006277Y014450D01*
X006639Y014796D02*
X006916Y014796D01*
X006997Y014954D02*
X006557Y014954D01*
X006647Y015113D02*
X006908Y015113D01*
X006777Y015271D02*
X006777Y015271D01*
X006777Y015430D02*
X006777Y015430D01*
X006777Y015588D02*
X006777Y015588D01*
X006688Y015747D02*
X006867Y015747D01*
X006997Y015905D02*
X006557Y015905D01*
X006598Y016064D02*
X006957Y016064D01*
X006798Y016222D02*
X006757Y016222D01*
X006777Y016381D02*
X006777Y016381D01*
X006777Y016539D02*
X006777Y016539D01*
X006737Y016698D02*
X006818Y016698D01*
X006976Y016856D02*
X006578Y016856D01*
X006557Y017015D02*
X006997Y017015D01*
X006847Y017173D02*
X006708Y017173D01*
X006777Y017332D02*
X006777Y017332D01*
X006777Y017490D02*
X006777Y017490D01*
X006777Y017649D02*
X006777Y017649D01*
X006627Y017807D02*
X006927Y017807D01*
X006924Y018124D02*
X004014Y018124D01*
X004098Y018283D02*
X006827Y018283D01*
X007277Y017450D02*
X007277Y016450D01*
X007277Y015450D01*
X007277Y014450D01*
X006777Y014479D02*
X006777Y014479D01*
X006777Y014637D02*
X006777Y014637D01*
X006777Y014320D02*
X006777Y014320D01*
X006696Y014162D02*
X006859Y014162D01*
X007017Y014003D02*
X006538Y014003D01*
X006855Y012735D02*
X005910Y012735D01*
X005910Y012577D02*
X006789Y012577D01*
X007277Y011796D02*
X005919Y011796D01*
X005679Y011556D01*
X005794Y011195D02*
X005754Y011178D01*
X005604Y011178D01*
X005585Y011186D01*
X005585Y011121D01*
X005794Y010912D01*
X005794Y011195D01*
X005794Y011150D02*
X005585Y011150D01*
X005714Y010992D02*
X005794Y010992D01*
X006289Y011064D02*
X006545Y011064D01*
X006722Y011241D01*
X007155Y011241D01*
X007884Y011970D01*
X008277Y012450D02*
X009277Y013450D01*
X009277Y012450D01*
X009777Y012418D02*
X009879Y012418D01*
X009879Y012260D02*
X009777Y012260D01*
X009703Y012101D02*
X009879Y012101D01*
X009879Y011943D02*
X009834Y011943D01*
X009865Y011784D02*
X009867Y011784D01*
X010555Y011467D02*
X011699Y011467D01*
X011699Y011309D02*
X010519Y011309D01*
X010519Y010833D02*
X010982Y010833D01*
X010823Y010675D02*
X010519Y010675D01*
X010519Y010516D02*
X010797Y010516D01*
X010797Y010358D02*
X010556Y010358D01*
X010644Y010199D02*
X010849Y010199D01*
X011008Y010041D02*
X010664Y010041D01*
X010631Y009882D02*
X011031Y009882D01*
X010872Y009724D02*
X010525Y009724D01*
X009879Y010516D02*
X009845Y010516D01*
X009349Y011150D02*
X009321Y011150D01*
X008777Y012250D02*
X008777Y012554D01*
X008777Y012554D01*
X008777Y012250D01*
X008777Y012250D01*
X008777Y012260D02*
X008777Y012260D01*
X008777Y012418D02*
X008777Y012418D01*
X008277Y012450D02*
X008277Y013450D01*
X008590Y013845D02*
X008965Y013845D01*
X009017Y014003D02*
X008538Y014003D01*
X008696Y014162D02*
X008859Y014162D01*
X008777Y014320D02*
X008777Y014320D01*
X008777Y014479D02*
X008777Y014479D01*
X008777Y014637D02*
X008777Y014637D01*
X008639Y014796D02*
X008916Y014796D01*
X008997Y014954D02*
X008557Y014954D01*
X008647Y015113D02*
X008908Y015113D01*
X008777Y015271D02*
X008777Y015271D01*
X008777Y015430D02*
X008777Y015430D01*
X008777Y015588D02*
X008777Y015588D01*
X008688Y015747D02*
X008867Y015747D01*
X008997Y015905D02*
X008557Y015905D01*
X008598Y016064D02*
X008957Y016064D01*
X008798Y016222D02*
X008757Y016222D01*
X008777Y016381D02*
X008777Y016381D01*
X008777Y016539D02*
X008777Y016539D01*
X008737Y016698D02*
X008818Y016698D01*
X008976Y016856D02*
X008578Y016856D01*
X008557Y017015D02*
X008997Y017015D01*
X008847Y017173D02*
X008708Y017173D01*
X008777Y017332D02*
X008777Y017332D01*
X008777Y017490D02*
X008777Y017490D01*
X008777Y017649D02*
X008777Y017649D01*
X008627Y017807D02*
X008927Y017807D01*
X009070Y017950D02*
X009413Y017950D01*
X009413Y017950D01*
X009070Y017950D01*
X009055Y017966D02*
X008500Y017966D01*
X008485Y017950D02*
X008173Y017950D01*
X008173Y017950D01*
X008485Y017950D01*
X008659Y018124D02*
X008896Y018124D01*
X008777Y018283D02*
X008777Y018283D01*
X008777Y018441D02*
X008777Y018441D01*
X008777Y018600D02*
X008777Y018600D01*
X008676Y018758D02*
X008878Y018758D01*
X008997Y018917D02*
X008557Y018917D01*
X008610Y019075D02*
X008945Y019075D01*
X008787Y019234D02*
X008768Y019234D01*
X008777Y019392D02*
X008777Y019392D01*
X008777Y019551D02*
X008777Y019551D01*
X008725Y019709D02*
X008829Y019709D01*
X008988Y019868D02*
X008567Y019868D01*
X007297Y019868D02*
X007257Y019868D01*
X007257Y019709D02*
X007297Y019709D01*
X007297Y019551D02*
X007257Y019551D01*
X008277Y017450D02*
X008277Y016450D01*
X008277Y015450D01*
X008277Y014450D01*
X008748Y013686D02*
X008806Y013686D01*
X008777Y013657D02*
X008777Y013346D01*
X008777Y013657D01*
X008777Y013528D02*
X008777Y013528D01*
X008777Y013369D02*
X008777Y013369D01*
X008777Y013346D02*
X008777Y013346D01*
X009587Y013052D02*
X009879Y013052D01*
X009879Y012894D02*
X009557Y012894D01*
X009699Y012735D02*
X009879Y012735D01*
X009879Y012577D02*
X009777Y012577D01*
X009745Y013211D02*
X009879Y013211D01*
X009913Y013369D02*
X009777Y013369D01*
X009777Y013528D02*
X009978Y013528D01*
X010182Y013686D02*
X009748Y013686D01*
X009590Y013845D02*
X010957Y013845D01*
X010277Y014450D02*
X010277Y015450D01*
X010277Y016450D01*
X010277Y017450D01*
X009927Y017807D02*
X009627Y017807D01*
X009777Y017649D02*
X009777Y017649D01*
X009777Y017490D02*
X009777Y017490D01*
X009777Y017332D02*
X009777Y017332D01*
X009708Y017173D02*
X009847Y017173D01*
X009997Y017015D02*
X009557Y017015D01*
X009578Y016856D02*
X009976Y016856D01*
X009818Y016698D02*
X009737Y016698D01*
X009777Y016539D02*
X009777Y016539D01*
X009777Y016381D02*
X009777Y016381D01*
X009757Y016222D02*
X009798Y016222D01*
X009957Y016064D02*
X009598Y016064D01*
X009557Y015905D02*
X009997Y015905D01*
X009867Y015747D02*
X009688Y015747D01*
X009777Y015588D02*
X009777Y015588D01*
X009777Y015430D02*
X009777Y015430D01*
X009777Y015271D02*
X009777Y015271D01*
X009647Y015113D02*
X009908Y015113D01*
X009997Y014954D02*
X009557Y014954D01*
X009639Y014796D02*
X009916Y014796D01*
X009777Y014637D02*
X009777Y014637D01*
X009777Y014479D02*
X009777Y014479D01*
X009777Y014320D02*
X009777Y014320D01*
X009696Y014162D02*
X009859Y014162D01*
X010017Y014003D02*
X009538Y014003D01*
X009277Y014450D02*
X009277Y015450D01*
X009277Y016450D01*
X009277Y017450D01*
X010557Y017015D02*
X010997Y017015D01*
X010976Y016856D02*
X010578Y016856D01*
X010737Y016698D02*
X010818Y016698D01*
X010777Y016539D02*
X010777Y016539D01*
X010777Y016381D02*
X010777Y016381D01*
X010757Y016222D02*
X010798Y016222D01*
X010957Y016064D02*
X010598Y016064D01*
X010557Y015905D02*
X010997Y015905D01*
X010867Y015747D02*
X010688Y015747D01*
X010777Y015588D02*
X010777Y015588D01*
X010777Y015430D02*
X010777Y015430D01*
X010777Y015271D02*
X010777Y015271D01*
X010708Y017173D02*
X010847Y017173D01*
X010777Y017332D02*
X010777Y017332D01*
X010777Y017490D02*
X010777Y017490D01*
X010777Y017649D02*
X010777Y017649D01*
X010627Y017807D02*
X010927Y017807D01*
X012558Y018441D02*
X012658Y018441D01*
X012658Y018600D02*
X012558Y018600D01*
X012558Y018758D02*
X012658Y018758D01*
X012658Y018917D02*
X012558Y018917D01*
X012558Y019075D02*
X012658Y019075D01*
X012658Y019392D02*
X012558Y019392D01*
X012558Y019551D02*
X012658Y019551D01*
X012658Y019709D02*
X012558Y019709D01*
X012558Y019868D02*
X012658Y019868D01*
X012658Y020026D02*
X012558Y020026D01*
X012614Y017332D02*
X012902Y017332D01*
X012811Y017173D02*
X012704Y017173D01*
X012728Y017015D02*
X012788Y017015D01*
X012788Y016856D02*
X012728Y016856D01*
X012728Y016698D02*
X012788Y016698D01*
X012788Y016539D02*
X012728Y016539D01*
X012724Y016381D02*
X012791Y016381D01*
X013297Y015650D02*
X013297Y015434D01*
X012854Y014991D01*
X013297Y015650D02*
X013297Y013210D01*
X013737Y013211D02*
X013767Y013211D01*
X013767Y013369D02*
X013737Y013369D01*
X013737Y013528D02*
X013767Y013528D01*
X013767Y013686D02*
X013737Y013686D01*
X013737Y013733D02*
X013620Y013850D01*
X013577Y013850D01*
X013577Y015017D01*
X014089Y015017D01*
X014206Y015134D01*
X014206Y016013D01*
X014351Y016013D01*
X014524Y016085D01*
X014656Y016217D01*
X014714Y016357D01*
X014781Y016290D01*
X014965Y016214D01*
X014781Y016138D01*
X014640Y015997D01*
X014564Y015813D01*
X014564Y015614D01*
X014640Y015431D01*
X014781Y015290D01*
X014965Y015214D01*
X015763Y015214D01*
X014965Y015214D01*
X014781Y015138D01*
X014640Y014997D01*
X014564Y014813D01*
X014564Y014614D01*
X014640Y014431D01*
X014781Y014290D01*
X014965Y014214D01*
X015763Y014214D01*
X014965Y014214D01*
X014781Y014138D01*
X014640Y013997D01*
X014565Y013815D01*
X014530Y013850D01*
X013884Y013850D01*
X013767Y013733D01*
X013767Y012742D01*
X013737Y012742D01*
X013737Y013733D01*
X013625Y013845D02*
X013879Y013845D01*
X013577Y014003D02*
X014646Y014003D01*
X014577Y013845D02*
X014535Y013845D01*
X014839Y014162D02*
X013577Y014162D01*
X013577Y014320D02*
X014751Y014320D01*
X014620Y014479D02*
X013577Y014479D01*
X013577Y014637D02*
X014564Y014637D01*
X014564Y014796D02*
X013577Y014796D01*
X013577Y014954D02*
X014622Y014954D01*
X014756Y015113D02*
X014184Y015113D01*
X014206Y015271D02*
X014826Y015271D01*
X014641Y015430D02*
X014206Y015430D01*
X014206Y015588D02*
X014575Y015588D01*
X014564Y015747D02*
X014206Y015747D01*
X014206Y015905D02*
X014602Y015905D01*
X014707Y016064D02*
X014473Y016064D01*
X014658Y016222D02*
X014944Y016222D01*
X014965Y016214D02*
X015763Y016214D01*
X014965Y016214D01*
X015784Y016222D02*
X016158Y016222D01*
X016158Y016381D02*
X016038Y016381D01*
X016133Y016539D02*
X016158Y016539D01*
X016164Y016698D02*
X016258Y016698D01*
X016146Y016856D02*
X016417Y016856D01*
X016351Y017015D02*
X016070Y017015D01*
X016193Y017173D02*
X015862Y017173D01*
X016158Y017332D02*
X014614Y017332D01*
X014704Y017173D02*
X014867Y017173D01*
X013902Y017332D02*
X013614Y017332D01*
X013704Y017173D02*
X013811Y017173D01*
X013788Y017015D02*
X013728Y017015D01*
X013728Y016856D02*
X013788Y016856D01*
X013788Y016698D02*
X013728Y016698D01*
X013728Y016539D02*
X013788Y016539D01*
X013791Y016381D02*
X013724Y016381D01*
X015902Y015271D02*
X016158Y015271D01*
X016158Y015430D02*
X016087Y015430D01*
X016153Y015588D02*
X016158Y015588D01*
X016164Y015747D02*
X016307Y015747D01*
X016126Y015905D02*
X017839Y015905D01*
X016412Y014954D02*
X016106Y014954D01*
X016164Y014796D02*
X016356Y014796D01*
X016198Y014637D02*
X016164Y014637D01*
X016158Y014479D02*
X016108Y014479D01*
X016158Y014320D02*
X015978Y014320D01*
X015889Y014162D02*
X016204Y014162D01*
X016082Y014003D02*
X016363Y014003D01*
X016405Y013845D02*
X016151Y013845D01*
X016164Y013686D02*
X016247Y013686D01*
X016158Y013528D02*
X016128Y013528D01*
X016158Y013369D02*
X016027Y013369D01*
X016158Y013211D02*
X015771Y013211D01*
X015763Y013214D02*
X014994Y013214D01*
X014994Y013214D01*
X015763Y013214D01*
X016033Y013052D02*
X016314Y013052D01*
X016131Y012894D02*
X016836Y012894D01*
X017396Y012894D02*
X017839Y012894D01*
X017823Y012873D02*
X017433Y012873D01*
X017396Y012836D01*
X017396Y012970D01*
X017433Y012933D01*
X017823Y012933D01*
X017839Y012949D01*
X017839Y012857D01*
X017823Y012873D01*
X017839Y011949D02*
X017839Y011857D01*
X017823Y011873D01*
X017433Y011873D01*
X017396Y011836D01*
X017396Y011970D01*
X017433Y011933D01*
X017823Y011933D01*
X017839Y011949D01*
X017839Y011943D02*
X017832Y011943D01*
X017423Y011943D02*
X017396Y011943D01*
X016836Y011943D02*
X016832Y011943D01*
X016423Y011943D02*
X016086Y011943D01*
X016075Y011965D02*
X016030Y012026D01*
X015977Y012080D01*
X015916Y012124D01*
X015848Y012159D01*
X015776Y012182D01*
X015702Y012194D01*
X015384Y012194D01*
X015384Y011734D01*
X016144Y011734D01*
X016144Y011752D01*
X016132Y011826D01*
X016109Y011898D01*
X016075Y011965D01*
X015947Y012101D02*
X016265Y012101D01*
X016158Y012260D02*
X015874Y012260D01*
X016076Y012418D02*
X016158Y012418D01*
X016148Y012577D02*
X016158Y012577D01*
X016164Y012735D02*
X016296Y012735D01*
X016345Y011784D02*
X016139Y011784D01*
X016144Y011694D02*
X015384Y011694D01*
X015384Y011234D01*
X015702Y011234D01*
X015776Y011246D01*
X015848Y011269D01*
X015916Y011303D01*
X015977Y011348D01*
X016030Y011401D01*
X016075Y011462D01*
X016109Y011530D01*
X016132Y011601D01*
X016144Y011676D01*
X016144Y011694D01*
X016136Y011626D02*
X016186Y011626D01*
X016158Y011467D02*
X016077Y011467D01*
X016158Y011309D02*
X015923Y011309D01*
X015590Y011150D02*
X014828Y011150D01*
X014805Y011309D02*
X014777Y011309D01*
X014986Y010992D02*
X015423Y010992D01*
X015384Y011309D02*
X015344Y011309D01*
X015344Y011467D02*
X015384Y011467D01*
X015384Y011626D02*
X015344Y011626D01*
X015344Y011784D02*
X015384Y011784D01*
X015384Y011943D02*
X015344Y011943D01*
X015344Y012101D02*
X015384Y012101D01*
X014854Y012260D02*
X014777Y012260D01*
X014777Y012101D02*
X014781Y012101D01*
X014626Y012465D02*
X014461Y012465D01*
X014502Y012564D01*
X014502Y012570D01*
X014530Y012570D01*
X014567Y012607D01*
X014626Y012465D01*
X014580Y012577D02*
X014536Y012577D01*
X014222Y012619D02*
X014222Y013195D01*
X014207Y013210D01*
X014207Y013210D01*
X014616Y013210D01*
X014222Y012619D02*
X014065Y012462D01*
X013553Y012462D01*
X013277Y012186D01*
X013277Y011084D01*
X013179Y010985D01*
X012451Y010985D01*
X012277Y010812D01*
X012277Y010450D01*
X012277Y009450D01*
X011931Y009090D02*
X011596Y009090D01*
X011754Y009248D02*
X011777Y009248D01*
X011777Y009407D02*
X011757Y009407D01*
X011757Y009565D02*
X011777Y009565D01*
X011844Y009724D02*
X011683Y009724D01*
X011524Y009882D02*
X011997Y009882D01*
X011980Y010041D02*
X011547Y010041D01*
X011705Y010199D02*
X011821Y010199D01*
X011777Y010358D02*
X011757Y010358D01*
X011757Y010516D02*
X011777Y010516D01*
X011795Y010675D02*
X011732Y010675D01*
X012729Y010705D02*
X012777Y010657D01*
X012777Y010320D01*
X012777Y010320D01*
X012777Y010657D01*
X012826Y010705D01*
X012729Y010705D01*
X012760Y010675D02*
X012795Y010675D01*
X012777Y010516D02*
X012777Y010516D01*
X012777Y010358D02*
X012777Y010358D01*
X012805Y009942D02*
X012785Y009922D01*
X012785Y008958D01*
X012277Y008450D01*
X012277Y007450D01*
X011942Y007822D02*
X011585Y007822D01*
X011486Y007980D02*
X011997Y007980D01*
X011882Y008139D02*
X011645Y008139D01*
X011757Y008297D02*
X011777Y008297D01*
X011297Y008297D02*
X011257Y008297D01*
X011257Y008139D02*
X011297Y008139D01*
X011257Y008456D02*
X008777Y008456D01*
X008777Y008614D02*
X010797Y008614D01*
X010921Y008773D02*
X008662Y008773D01*
X008777Y008297D02*
X010797Y008297D01*
X010910Y008139D02*
X008673Y008139D01*
X008297Y007822D02*
X008257Y007822D01*
X008257Y007346D02*
X008297Y007346D01*
X008297Y007188D02*
X008257Y007188D01*
X008257Y007029D02*
X008297Y007029D01*
X008297Y006871D02*
X008257Y006871D01*
X008257Y006712D02*
X008297Y006712D01*
X008297Y006554D02*
X008257Y006554D01*
X008019Y006871D02*
X007807Y006871D01*
X007807Y007029D02*
X008019Y007029D01*
X007861Y007188D02*
X007807Y007188D01*
X007807Y006712D02*
X007861Y006712D01*
X008536Y006871D02*
X009019Y006871D01*
X009019Y007029D02*
X008535Y007029D01*
X008694Y007188D02*
X008861Y007188D01*
X008797Y007346D02*
X008757Y007346D01*
X008757Y007505D02*
X008797Y007505D01*
X008812Y007663D02*
X008743Y007663D01*
X008694Y006712D02*
X008861Y006712D01*
X008797Y006554D02*
X008757Y006554D01*
X008757Y006395D02*
X008797Y006395D01*
X008812Y006237D02*
X008743Y006237D01*
X008584Y006078D02*
X008970Y006078D01*
X008673Y005761D02*
X009603Y005761D01*
X009444Y005603D02*
X008777Y005603D01*
X008777Y005444D02*
X009286Y005444D01*
X009127Y005286D02*
X008777Y005286D01*
X008662Y005127D02*
X009039Y005127D01*
X009007Y004969D02*
X008503Y004969D01*
X008624Y004810D02*
X009007Y004810D01*
X009007Y004652D02*
X008777Y004652D01*
X008777Y004493D02*
X009007Y004493D01*
X009007Y004335D02*
X008777Y004335D01*
X008711Y004176D02*
X009007Y004176D01*
X009007Y004018D02*
X008552Y004018D01*
X008515Y005920D02*
X011068Y005920D01*
X010970Y006078D02*
X010584Y006078D01*
X010743Y006237D02*
X010812Y006237D01*
X010797Y006395D02*
X010757Y006395D01*
X010757Y006554D02*
X010797Y006554D01*
X010861Y006712D02*
X010694Y006712D01*
X009861Y006712D02*
X009694Y006712D01*
X009757Y006554D02*
X009797Y006554D01*
X009797Y006395D02*
X009757Y006395D01*
X009743Y006237D02*
X009812Y006237D01*
X010519Y005761D02*
X010910Y005761D01*
X010797Y005603D02*
X010660Y005603D01*
X010585Y004969D02*
X011441Y004969D01*
X011297Y005127D02*
X011257Y005127D01*
X011257Y005286D02*
X011297Y005286D01*
X011297Y004810D02*
X011257Y004810D01*
X011257Y004652D02*
X011297Y004652D01*
X011297Y004493D02*
X011257Y004493D01*
X011257Y004335D02*
X011297Y004335D01*
X011297Y004176D02*
X011257Y004176D01*
X011257Y004018D02*
X011297Y004018D01*
X011297Y003859D02*
X011257Y003859D01*
X011257Y003701D02*
X011297Y003701D01*
X011297Y003542D02*
X011257Y003542D01*
X011257Y003384D02*
X011297Y003384D01*
X011297Y003225D02*
X011257Y003225D01*
X011257Y003067D02*
X011297Y003067D01*
X011297Y002908D02*
X011257Y002908D01*
X011257Y002750D02*
X011297Y002750D01*
X011297Y002591D02*
X011257Y002591D01*
X011257Y002274D02*
X011297Y002274D01*
X011297Y002116D02*
X011257Y002116D01*
X010933Y002116D02*
X010362Y002116D01*
X010362Y002274D02*
X010797Y002274D01*
X011757Y001640D02*
X011777Y001640D01*
X011777Y001482D02*
X011757Y001482D01*
X011757Y001323D02*
X011777Y001323D01*
X012742Y001208D02*
X012777Y001243D01*
X012777Y001657D01*
X012777Y001243D01*
X012813Y001208D01*
X012742Y001208D01*
X012777Y001323D02*
X012777Y001323D01*
X012777Y001482D02*
X012777Y001482D01*
X012777Y001640D02*
X012777Y001640D01*
X013277Y001450D02*
X013277Y002450D01*
X013650Y002116D02*
X013905Y002116D01*
X013777Y002274D02*
X013777Y002274D01*
X013777Y002433D02*
X013777Y002433D01*
X013557Y001957D02*
X014063Y001957D01*
X013919Y001799D02*
X013636Y001799D01*
X013777Y001640D02*
X013777Y001640D01*
X013777Y001482D02*
X013777Y001482D01*
X013777Y001323D02*
X013777Y001323D01*
X015557Y001877D02*
X015557Y002023D01*
X015777Y002243D01*
X015777Y002554D01*
X016034Y002811D01*
X016113Y002890D01*
X016156Y002993D01*
X016156Y008907D01*
X016113Y009010D01*
X015777Y009346D01*
X015777Y009657D01*
X015557Y009877D01*
X015557Y010023D01*
X015777Y010243D01*
X015777Y010554D01*
X015850Y010627D01*
X016187Y010627D01*
X016158Y010597D01*
X016158Y010208D01*
X016433Y009933D01*
X016823Y009933D01*
X017098Y010208D01*
X017098Y010597D01*
X017041Y010654D01*
X017078Y010669D01*
X017157Y010748D01*
X017353Y010945D01*
X017373Y010993D01*
X017433Y010933D01*
X017823Y010933D01*
X017839Y010949D01*
X017839Y010857D01*
X017823Y010873D01*
X017433Y010873D01*
X017158Y010597D01*
X017158Y010208D01*
X017433Y009933D01*
X017823Y009933D01*
X017839Y009949D01*
X017839Y009857D01*
X017823Y009873D01*
X017433Y009873D01*
X017158Y009597D01*
X017158Y009286D01*
X017098Y009226D01*
X017098Y009597D01*
X016823Y009873D01*
X016433Y009873D01*
X016158Y009597D01*
X016158Y009208D01*
X016433Y008933D01*
X016823Y008933D01*
X017009Y009120D01*
X016984Y009059D01*
X016984Y008683D01*
X016814Y008853D01*
X016638Y008853D01*
X016638Y008413D01*
X016618Y008413D01*
X016618Y008853D01*
X016441Y008853D01*
X016178Y008589D01*
X016178Y008413D01*
X016618Y008413D01*
X016618Y008393D01*
X016178Y008393D01*
X016178Y008216D01*
X016441Y007953D01*
X016618Y007953D01*
X016618Y008393D01*
X016638Y008393D01*
X016638Y007953D01*
X016814Y007953D01*
X016984Y008123D01*
X016984Y007711D01*
X016823Y007873D01*
X016433Y007873D01*
X016158Y007597D01*
X016158Y007208D01*
X016433Y006933D01*
X016823Y006933D01*
X016984Y007094D01*
X016984Y007038D01*
X017022Y006946D01*
X017033Y006935D01*
X017033Y006835D01*
X017091Y006696D01*
X017174Y006613D01*
X017158Y006597D01*
X017158Y006286D01*
X017098Y006226D01*
X017098Y006597D01*
X016823Y006873D01*
X016433Y006873D01*
X016158Y006597D01*
X016158Y006208D01*
X016433Y005933D01*
X016823Y005933D01*
X016832Y005942D01*
X016807Y005882D01*
X016807Y005873D01*
X016433Y005873D01*
X016158Y005597D01*
X016158Y005208D01*
X016433Y004933D01*
X016807Y004933D01*
X016807Y004873D01*
X016433Y004873D01*
X016158Y004597D01*
X016158Y004208D01*
X016433Y003933D01*
X016807Y003933D01*
X016807Y003873D01*
X016433Y003873D01*
X016158Y003597D01*
X016158Y003208D01*
X016433Y002933D01*
X016807Y002933D01*
X016807Y002873D01*
X016433Y002873D01*
X016158Y002597D01*
X016158Y002208D01*
X016433Y001933D01*
X016807Y001933D01*
X016807Y001869D01*
X016796Y001842D01*
X016721Y001873D01*
X016534Y001873D01*
X016362Y001801D01*
X016229Y001669D01*
X016158Y001496D01*
X016158Y001309D01*
X016200Y001208D01*
X015742Y001208D01*
X015777Y001243D01*
X015777Y001657D01*
X015557Y001877D01*
X015557Y001957D02*
X016409Y001957D01*
X016359Y001799D02*
X015636Y001799D01*
X015777Y001640D02*
X016217Y001640D01*
X016158Y001482D02*
X015777Y001482D01*
X015777Y001323D02*
X016158Y001323D01*
X016250Y002116D02*
X015650Y002116D01*
X015777Y002274D02*
X016158Y002274D01*
X016158Y002433D02*
X015777Y002433D01*
X015815Y002591D02*
X016158Y002591D01*
X016310Y002750D02*
X015973Y002750D01*
X016121Y002908D02*
X016807Y002908D01*
X017307Y002908D02*
X017839Y002908D01*
X017823Y002933D02*
X017839Y002949D01*
X017839Y002857D01*
X017823Y002873D01*
X017433Y002873D01*
X017307Y002747D01*
X017307Y003059D01*
X017433Y002933D01*
X017823Y002933D01*
X017310Y002750D02*
X017307Y002750D01*
X017307Y002059D02*
X017433Y001933D01*
X017823Y001933D01*
X017839Y001949D01*
X017839Y001857D01*
X017823Y001873D01*
X017463Y001873D01*
X017456Y001889D01*
X017350Y001995D01*
X017307Y002013D01*
X017307Y002059D01*
X017388Y001957D02*
X017409Y001957D01*
X017158Y001296D02*
X017092Y001296D01*
X017056Y001208D01*
X017158Y001208D01*
X017158Y001296D01*
X017158Y001208D02*
X017158Y001208D01*
X016299Y003067D02*
X016156Y003067D01*
X016156Y003225D02*
X016158Y003225D01*
X016156Y003384D02*
X016158Y003384D01*
X016156Y003542D02*
X016158Y003542D01*
X016156Y003701D02*
X016261Y003701D01*
X016156Y003859D02*
X016420Y003859D01*
X016348Y004018D02*
X016156Y004018D01*
X016156Y004176D02*
X016190Y004176D01*
X016156Y004335D02*
X016158Y004335D01*
X016156Y004493D02*
X016158Y004493D01*
X016156Y004652D02*
X016212Y004652D01*
X016156Y004810D02*
X016371Y004810D01*
X016397Y004969D02*
X016156Y004969D01*
X016156Y005127D02*
X016239Y005127D01*
X016158Y005286D02*
X016156Y005286D01*
X016156Y005444D02*
X016158Y005444D01*
X016156Y005603D02*
X016163Y005603D01*
X016156Y005761D02*
X016322Y005761D01*
X016289Y005926D02*
X016112Y006104D01*
X016112Y007737D01*
X016628Y008253D01*
X016628Y008403D01*
X016618Y008456D02*
X016638Y008456D01*
X016638Y008614D02*
X016618Y008614D01*
X016618Y008773D02*
X016638Y008773D01*
X016894Y008773D02*
X016984Y008773D01*
X016984Y008931D02*
X016146Y008931D01*
X016156Y008773D02*
X016361Y008773D01*
X016203Y008614D02*
X016156Y008614D01*
X016156Y008456D02*
X016178Y008456D01*
X016178Y008297D02*
X016156Y008297D01*
X016156Y008139D02*
X016256Y008139D01*
X016156Y007980D02*
X016414Y007980D01*
X016382Y007822D02*
X016156Y007822D01*
X016156Y007663D02*
X016224Y007663D01*
X016158Y007505D02*
X016156Y007505D01*
X016156Y007346D02*
X016158Y007346D01*
X016156Y007188D02*
X016178Y007188D01*
X016156Y007029D02*
X016337Y007029D01*
X016431Y006871D02*
X016156Y006871D01*
X016156Y006712D02*
X016273Y006712D01*
X016158Y006554D02*
X016156Y006554D01*
X016156Y006395D02*
X016158Y006395D01*
X016156Y006237D02*
X016158Y006237D01*
X016156Y006078D02*
X016288Y006078D01*
X016156Y005920D02*
X016823Y005920D01*
X017098Y006237D02*
X017108Y006237D01*
X017098Y006395D02*
X017158Y006395D01*
X017158Y006554D02*
X017098Y006554D01*
X017084Y006712D02*
X016983Y006712D01*
X017033Y006871D02*
X016825Y006871D01*
X016919Y007029D02*
X016988Y007029D01*
X016984Y007822D02*
X016874Y007822D01*
X016842Y007980D02*
X016984Y007980D01*
X016638Y007980D02*
X016618Y007980D01*
X016618Y008139D02*
X016638Y008139D01*
X016638Y008297D02*
X016618Y008297D01*
X016276Y009090D02*
X016034Y009090D01*
X016158Y009248D02*
X015875Y009248D01*
X015777Y009407D02*
X016158Y009407D01*
X016158Y009565D02*
X015777Y009565D01*
X015711Y009724D02*
X016284Y009724D01*
X016325Y010041D02*
X015575Y010041D01*
X015557Y009882D02*
X017839Y009882D01*
X017325Y010041D02*
X016930Y010041D01*
X017089Y010199D02*
X017167Y010199D01*
X017158Y010358D02*
X017098Y010358D01*
X017098Y010516D02*
X017158Y010516D01*
X017083Y010675D02*
X017235Y010675D01*
X017157Y010748D02*
X017157Y010748D01*
X017242Y010833D02*
X017394Y010833D01*
X017373Y010992D02*
X017374Y010992D01*
X017284Y009724D02*
X016972Y009724D01*
X017098Y009565D02*
X017158Y009565D01*
X017158Y009407D02*
X017098Y009407D01*
X017098Y009248D02*
X017120Y009248D01*
X016997Y009090D02*
X016979Y009090D01*
X017484Y008906D02*
X017511Y008933D01*
X017823Y008933D01*
X017839Y008949D01*
X017839Y008857D01*
X017823Y008873D01*
X017484Y008873D01*
X017484Y008906D01*
X017510Y008931D02*
X017839Y008931D01*
X017839Y007949D02*
X017839Y007857D01*
X017823Y007873D01*
X017484Y007873D01*
X017484Y007933D01*
X017823Y007933D01*
X017839Y007949D01*
X017839Y006949D02*
X017839Y006857D01*
X017823Y006873D01*
X017789Y006873D01*
X017789Y006933D01*
X017823Y006933D01*
X017839Y006949D01*
X017839Y006871D02*
X017825Y006871D01*
X017839Y005949D02*
X017839Y005857D01*
X017823Y005873D01*
X017451Y005873D01*
X017511Y005933D01*
X017823Y005933D01*
X017839Y005949D01*
X017839Y005920D02*
X017498Y005920D01*
X017307Y005059D02*
X017433Y004933D01*
X017823Y004933D01*
X017839Y004949D01*
X017839Y004857D01*
X017823Y004873D01*
X017433Y004873D01*
X017307Y004747D01*
X017307Y005059D01*
X017307Y004969D02*
X017397Y004969D01*
X017371Y004810D02*
X017307Y004810D01*
X017307Y004059D02*
X017433Y003933D01*
X017823Y003933D01*
X017839Y003949D01*
X017839Y003857D01*
X017823Y003873D01*
X017433Y003873D01*
X017307Y003747D01*
X017307Y004059D01*
X017307Y004018D02*
X017348Y004018D01*
X017307Y003859D02*
X017420Y003859D01*
X017836Y003859D02*
X017839Y003859D01*
X015596Y003859D02*
X015575Y003859D01*
X015557Y003877D02*
X015557Y004023D01*
X015596Y004061D01*
X015596Y003839D01*
X015557Y003877D01*
X015557Y004018D02*
X015596Y004018D01*
X015277Y004450D02*
X015277Y003450D01*
X015277Y004450D02*
X015277Y005450D01*
X015277Y006450D01*
X015277Y007450D01*
X015277Y008450D01*
X014773Y008954D01*
X014773Y010808D01*
X014104Y011478D01*
X014104Y011793D01*
X014242Y012167D01*
X013767Y012894D02*
X013737Y012894D01*
X013737Y013052D02*
X013767Y013052D01*
X013542Y010992D02*
X014194Y010992D01*
X013953Y010833D02*
X013601Y010833D01*
X013789Y010789D02*
X013789Y007974D01*
X013882Y008139D02*
X013673Y008139D01*
X013777Y008297D02*
X013777Y008297D01*
X013777Y008456D02*
X013777Y008456D01*
X013777Y008614D02*
X013777Y008614D01*
X013662Y008773D02*
X013893Y008773D01*
X014051Y008931D02*
X013503Y008931D01*
X013485Y008950D02*
X013070Y008950D01*
X013485Y008950D01*
X013624Y009090D02*
X013931Y009090D01*
X014070Y008950D02*
X014485Y008950D01*
X014070Y008950D01*
X013777Y009248D02*
X013777Y009248D01*
X013777Y009407D02*
X013777Y009407D01*
X013777Y009565D02*
X013777Y009565D01*
X013711Y009724D02*
X013844Y009724D01*
X013997Y009882D02*
X013557Y009882D01*
X013575Y010041D02*
X013980Y010041D01*
X013821Y010199D02*
X013734Y010199D01*
X013777Y010358D02*
X013777Y010358D01*
X013777Y010516D02*
X013777Y010516D01*
X013760Y010675D02*
X013795Y010675D01*
X014277Y010450D02*
X014277Y009450D01*
X014493Y008959D02*
X014493Y008941D01*
X014485Y008950D01*
X014493Y008959D01*
X014277Y008450D02*
X014277Y007450D01*
X013942Y007822D02*
X013613Y007822D01*
X013557Y007980D02*
X013997Y007980D01*
X013783Y007663D02*
X013771Y007663D01*
X013777Y007505D02*
X013777Y007505D01*
X013777Y007346D02*
X013777Y007346D01*
X013722Y007188D02*
X013833Y007188D01*
X013991Y007029D02*
X013564Y007029D01*
X013485Y006950D02*
X013070Y006950D01*
X012777Y007243D01*
X012777Y007657D01*
X012557Y007877D01*
X012557Y008023D01*
X012777Y008243D01*
X012777Y008554D01*
X012777Y008554D01*
X012777Y008243D01*
X012997Y008023D01*
X012997Y007877D01*
X012777Y007657D01*
X012777Y007243D01*
X012485Y006950D01*
X012140Y006950D01*
X012140Y006950D01*
X012485Y006950D01*
X012777Y006657D01*
X012777Y006544D01*
X012777Y006544D01*
X012777Y006657D01*
X013070Y006950D01*
X013485Y006950D01*
X013564Y006871D02*
X013991Y006871D01*
X013832Y006712D02*
X013722Y006712D01*
X013777Y006657D02*
X013777Y006304D01*
X013777Y006304D01*
X013777Y006657D01*
X013777Y006554D02*
X013777Y006554D01*
X013777Y006395D02*
X013777Y006395D01*
X014020Y006001D02*
X014027Y005993D01*
X014027Y005907D01*
X014020Y005899D01*
X014020Y006001D01*
X014020Y005920D02*
X014027Y005920D01*
X014527Y005920D02*
X014997Y005920D01*
X014942Y006078D02*
X014613Y006078D01*
X014771Y006237D02*
X014784Y006237D01*
X014777Y006395D02*
X014777Y006395D01*
X014777Y006554D02*
X014777Y006554D01*
X014722Y006712D02*
X014832Y006712D01*
X014991Y006871D02*
X014564Y006871D01*
X014564Y007029D02*
X014991Y007029D01*
X014833Y007188D02*
X014722Y007188D01*
X014777Y007346D02*
X014777Y007346D01*
X014777Y007505D02*
X014777Y007505D01*
X014771Y007663D02*
X014783Y007663D01*
X014942Y007822D02*
X014613Y007822D01*
X014557Y007980D02*
X014997Y007980D01*
X014882Y008139D02*
X014673Y008139D01*
X014777Y008297D02*
X014777Y008297D01*
X014777Y008456D02*
X014777Y008456D01*
X015173Y008950D02*
X015381Y008950D01*
X015381Y008950D01*
X015173Y008950D01*
X015173Y008950D01*
X015596Y008061D02*
X015557Y008023D01*
X015557Y007877D01*
X015596Y007839D01*
X015596Y008061D01*
X015596Y007980D02*
X015557Y007980D01*
X015596Y007061D02*
X015557Y007023D01*
X015557Y006877D01*
X015596Y006839D01*
X015596Y007061D01*
X015596Y007029D02*
X015564Y007029D01*
X015564Y006871D02*
X015596Y006871D01*
X015596Y006061D02*
X015557Y006023D01*
X015557Y005877D01*
X015596Y005839D01*
X015596Y006061D01*
X015596Y005920D02*
X015557Y005920D01*
X014881Y005761D02*
X014673Y005761D01*
X014777Y005603D02*
X014777Y005603D01*
X014777Y005444D02*
X014777Y005444D01*
X014777Y005286D02*
X014777Y005286D01*
X014662Y005127D02*
X014893Y005127D01*
X015557Y005023D02*
X015557Y004877D01*
X015596Y004839D01*
X015596Y005061D01*
X015557Y005023D01*
X015557Y004969D02*
X015596Y004969D01*
X013424Y005950D02*
X013070Y005950D01*
X012976Y006044D01*
X012976Y005856D01*
X013070Y005950D01*
X013424Y005950D01*
X013424Y005950D01*
X013040Y005920D02*
X012976Y005920D01*
X012476Y005950D02*
X012070Y005950D01*
X011941Y006080D01*
X011941Y005820D01*
X012070Y005950D01*
X012476Y005950D01*
X012476Y005950D01*
X012040Y005920D02*
X011941Y005920D01*
X011941Y006078D02*
X011942Y006078D01*
X012722Y006712D02*
X012832Y006712D01*
X012777Y006554D02*
X012777Y006554D01*
X012564Y006871D02*
X012991Y006871D01*
X012991Y007029D02*
X012564Y007029D01*
X012722Y007188D02*
X012833Y007188D01*
X012777Y007346D02*
X012777Y007346D01*
X012777Y007505D02*
X012777Y007505D01*
X012771Y007663D02*
X012783Y007663D01*
X012942Y007822D02*
X012613Y007822D01*
X012557Y007980D02*
X012997Y007980D01*
X012882Y008139D02*
X012673Y008139D01*
X012777Y008297D02*
X012777Y008297D01*
X012777Y008456D02*
X012777Y008456D01*
X013277Y008450D02*
X013277Y007450D01*
X011777Y007505D02*
X011757Y007505D01*
X011743Y007663D02*
X011783Y007663D01*
X012070Y008950D02*
X012381Y008950D01*
X012381Y008950D01*
X012070Y008950D01*
X013065Y008955D02*
X013070Y008950D01*
X013065Y008945D01*
X013065Y008955D01*
X013277Y009450D02*
X013277Y010450D01*
X015734Y010199D02*
X016167Y010199D01*
X016158Y010358D02*
X015777Y010358D01*
X015777Y010516D02*
X016158Y010516D01*
X017396Y013836D02*
X017396Y013970D01*
X017433Y013933D01*
X017823Y013933D01*
X017839Y013949D01*
X017839Y013857D01*
X017823Y013873D01*
X017433Y013873D01*
X017396Y013836D01*
X017396Y013845D02*
X017405Y013845D01*
X016253Y015113D02*
X015972Y015113D01*
X016021Y016064D02*
X016302Y016064D01*
X017436Y018873D02*
X017437Y018874D01*
X017441Y018874D01*
X017445Y018878D01*
X017562Y018995D01*
X017562Y018999D01*
X017582Y019019D01*
X017582Y019023D01*
X017590Y019031D01*
X017590Y019034D01*
X017598Y019042D01*
X017598Y019046D01*
X017601Y019050D01*
X017601Y019054D01*
X017605Y019058D01*
X017605Y019062D01*
X017609Y019066D01*
X017609Y019070D01*
X017613Y019074D01*
X017613Y019078D01*
X017617Y019082D01*
X017617Y019090D01*
X017621Y019094D01*
X017621Y019097D01*
X017625Y019101D01*
X017625Y019109D01*
X017629Y019113D01*
X017629Y019121D01*
X017633Y019125D01*
X017633Y019133D01*
X017637Y019137D01*
X017637Y019145D01*
X017641Y019149D01*
X017641Y019160D01*
X017645Y019164D01*
X017645Y019168D01*
X017723Y019247D01*
X017723Y019251D01*
X017727Y019255D01*
X017727Y019480D01*
X017723Y019484D01*
X017723Y019488D01*
X017720Y019492D01*
X017720Y019495D01*
X017716Y019499D01*
X017625Y019590D01*
X017625Y019594D01*
X017621Y019598D01*
X017621Y019602D01*
X017617Y019606D01*
X017617Y019610D01*
X017613Y019614D01*
X017609Y019617D01*
X017609Y019621D01*
X017605Y019625D01*
X017601Y019629D01*
X017598Y019633D01*
X017594Y019637D01*
X017590Y019641D01*
X017586Y019645D01*
X017469Y019762D01*
X017465Y019762D01*
X017461Y019766D01*
X017461Y019766D01*
X017457Y019770D01*
X017453Y019770D01*
X017449Y019774D01*
X017445Y019774D01*
X017441Y019778D01*
X017433Y019778D01*
X017429Y019782D01*
X017417Y019782D01*
X017413Y019786D01*
X017353Y019786D01*
X017353Y019786D01*
X017353Y019790D01*
X017365Y019802D01*
X017365Y019806D01*
X017377Y019818D01*
X017377Y019822D01*
X017385Y019830D01*
X017385Y019834D01*
X017397Y019846D01*
X017397Y019849D01*
X017409Y019861D01*
X017409Y019865D01*
X017412Y019869D01*
X017420Y019877D01*
X017420Y019881D01*
X017432Y019893D01*
X017432Y019897D01*
X017440Y019905D01*
X017440Y019908D01*
X017452Y019920D01*
X017452Y019924D01*
X017464Y019936D01*
X017464Y019940D01*
X017475Y019952D01*
X017475Y019956D01*
X017487Y019968D01*
X017487Y019971D01*
X017495Y019979D01*
X017495Y019983D01*
X017507Y019995D01*
X017507Y019999D01*
X017511Y020003D01*
X017519Y020011D01*
X017519Y020015D01*
X017531Y020027D01*
X017531Y020031D01*
X017542Y020042D01*
X017542Y020046D01*
X017554Y020058D01*
X017554Y020062D01*
X017562Y020070D01*
X017562Y020074D01*
X017574Y020086D01*
X017574Y020090D01*
X017586Y020101D01*
X017586Y020105D01*
X017590Y020109D01*
X017598Y020117D01*
X017598Y020121D01*
X017609Y020133D01*
X017609Y020137D01*
X017617Y020145D01*
X017617Y020173D01*
X017839Y020173D01*
X017839Y018857D01*
X017823Y018873D01*
X017436Y018873D01*
X017484Y018917D02*
X017839Y018917D01*
X017839Y019075D02*
X017613Y019075D01*
X017710Y019234D02*
X017839Y019234D01*
X017839Y019392D02*
X017727Y019392D01*
X017664Y019551D02*
X017839Y019551D01*
X017839Y019709D02*
X017522Y019709D01*
X017411Y019868D02*
X017839Y019868D01*
X017839Y020026D02*
X017530Y020026D01*
X017511Y020003D02*
X017511Y020003D01*
X017590Y020109D02*
X017590Y020109D01*
X017412Y019869D02*
X017412Y019869D01*
X016481Y020109D02*
X016481Y020109D01*
X006854Y010887D02*
X006828Y010860D01*
X006785Y010755D01*
X006785Y010863D01*
X006798Y010863D01*
X006854Y010887D01*
X006817Y010833D02*
X006785Y010833D01*
X006763Y010704D02*
X006755Y010684D01*
X006749Y010690D01*
X006763Y010704D01*
X005844Y009724D02*
X005800Y009724D01*
X005777Y009565D02*
X004994Y009565D01*
X004994Y009407D02*
X005777Y009407D01*
X005777Y009248D02*
X004994Y009248D01*
X004994Y009090D02*
X005931Y009090D01*
X006132Y008931D02*
X004994Y008931D01*
X004994Y008773D02*
X005893Y008773D01*
X005804Y008614D02*
X004994Y008614D01*
X004994Y008456D02*
X005777Y008456D01*
X005800Y008297D02*
X004994Y008297D01*
X004994Y008139D02*
X005882Y008139D01*
X006105Y007980D02*
X005143Y007980D01*
X004668Y007663D02*
X004032Y007663D01*
X004098Y007505D02*
X004777Y007505D01*
X004777Y007346D02*
X004098Y007346D01*
X004077Y007188D02*
X004833Y007188D01*
X004991Y007029D02*
X003919Y007029D01*
X003825Y006871D02*
X004991Y006871D01*
X004832Y006712D02*
X003983Y006712D01*
X004098Y006554D02*
X004777Y006554D01*
X004797Y005920D02*
X005341Y005920D01*
X005515Y005980D02*
X005777Y006243D01*
X005777Y006657D01*
X005777Y006243D01*
X006040Y005980D01*
X005515Y005980D01*
X005613Y006078D02*
X005942Y006078D01*
X005784Y006237D02*
X005771Y006237D01*
X005777Y006395D02*
X005777Y006395D01*
X005777Y006554D02*
X005777Y006554D01*
X005722Y006712D02*
X005832Y006712D01*
X005991Y006871D02*
X005564Y006871D01*
X005564Y007029D02*
X005991Y007029D01*
X005833Y007188D02*
X005722Y007188D01*
X005777Y007346D02*
X005777Y007346D01*
X005777Y007505D02*
X005777Y007505D01*
X005771Y007663D02*
X005783Y007663D01*
X005942Y007822D02*
X005613Y007822D01*
X004510Y007822D02*
X003874Y007822D01*
X003870Y007980D02*
X004434Y007980D01*
X004434Y008139D02*
X004028Y008139D01*
X004098Y008297D02*
X004434Y008297D01*
X004434Y008456D02*
X004098Y008456D01*
X004081Y008614D02*
X004434Y008614D01*
X004434Y008773D02*
X003923Y008773D01*
X003979Y009090D02*
X004434Y009090D01*
X004434Y009248D02*
X004098Y009248D01*
X004098Y009407D02*
X004434Y009407D01*
X004434Y009565D02*
X004098Y009565D01*
X003972Y009724D02*
X004434Y009724D01*
X004434Y009882D02*
X003420Y009882D01*
X003930Y010041D02*
X004434Y010041D01*
X004434Y010199D02*
X004089Y010199D01*
X004098Y010358D02*
X004434Y010358D01*
X004434Y010516D02*
X004098Y010516D01*
X004021Y010675D02*
X004434Y010675D01*
X004434Y010833D02*
X003862Y010833D01*
X003881Y010992D02*
X004434Y010992D01*
X004434Y011150D02*
X004040Y011150D01*
X004098Y011309D02*
X004434Y011309D01*
X004434Y011467D02*
X004098Y011467D01*
X004070Y011626D02*
X004434Y011626D01*
X004434Y011784D02*
X003911Y011784D01*
X003832Y011943D02*
X004434Y011943D01*
X004434Y012101D02*
X003991Y012101D01*
X004098Y012260D02*
X004434Y012260D01*
X004434Y012418D02*
X004098Y012418D01*
X004098Y012577D02*
X004434Y012577D01*
X004434Y012735D02*
X003960Y012735D01*
X003423Y011943D02*
X003420Y011943D01*
X002860Y011943D02*
X002832Y011943D01*
X002823Y011933D02*
X002860Y011970D01*
X002860Y011836D01*
X002823Y011873D01*
X002433Y011873D01*
X002417Y011857D01*
X002417Y011949D01*
X002433Y011933D01*
X002823Y011933D01*
X002423Y011943D02*
X002417Y011943D01*
X002417Y012857D02*
X002417Y012949D01*
X002433Y012933D01*
X002702Y012933D01*
X002762Y012873D01*
X002433Y012873D01*
X002417Y012857D01*
X002417Y012894D02*
X002741Y012894D01*
X002860Y010970D02*
X002860Y010836D01*
X002823Y010873D01*
X002433Y010873D01*
X002417Y010857D01*
X002417Y010949D01*
X002433Y010933D01*
X002823Y010933D01*
X002860Y010970D01*
X002860Y009970D02*
X002860Y009836D01*
X002823Y009873D01*
X002433Y009873D01*
X002417Y009857D01*
X002417Y009949D01*
X002433Y009933D01*
X002823Y009933D01*
X002860Y009970D01*
X002860Y009882D02*
X002417Y009882D01*
X002417Y008949D02*
X002433Y008933D01*
X002823Y008933D01*
X002860Y008970D01*
X002860Y008836D01*
X002823Y008873D01*
X002433Y008873D01*
X002417Y008857D01*
X002417Y008949D01*
X002417Y008931D02*
X002860Y008931D01*
X003420Y008931D02*
X004434Y008931D01*
X004994Y009724D02*
X005148Y009724D01*
X005199Y010056D02*
X005010Y010245D01*
X005010Y013584D01*
X004736Y013845D02*
X004719Y013845D01*
X003302Y016064D02*
X002953Y016064D01*
X003098Y016222D02*
X003158Y016222D01*
X003158Y016381D02*
X003098Y016381D01*
X003098Y016539D02*
X003158Y016539D01*
X003258Y016698D02*
X002998Y016698D01*
X002839Y016856D02*
X003417Y016856D01*
X003380Y017015D02*
X002904Y017015D01*
X003063Y017173D02*
X003221Y017173D01*
X003178Y017332D02*
X003098Y017332D01*
X003098Y017490D02*
X003178Y017490D01*
X003237Y017649D02*
X003047Y017649D01*
X002888Y017807D02*
X003396Y017807D01*
X003400Y017966D02*
X002827Y017966D01*
X002814Y017953D02*
X003078Y018216D01*
X003078Y018393D01*
X002638Y018393D01*
X002638Y017953D01*
X002814Y017953D01*
X002638Y017966D02*
X002618Y017966D01*
X002618Y018124D02*
X002638Y018124D01*
X002638Y018283D02*
X002618Y018283D01*
X002429Y017966D02*
X002417Y017966D01*
X002986Y018124D02*
X003242Y018124D01*
X003158Y018283D02*
X003078Y018283D01*
X003078Y018441D02*
X003158Y018441D01*
X003160Y018600D02*
X003067Y018600D01*
X002909Y018758D02*
X003319Y018758D01*
X003222Y018768D02*
X003222Y018768D01*
X003013Y019450D02*
X002930Y019534D01*
X002912Y019551D01*
X002930Y019569D01*
X002981Y019518D01*
X003071Y019518D01*
X003013Y019460D01*
X003013Y019450D01*
X003013Y019460D02*
X003013Y019460D01*
X003013Y019460D01*
X002949Y019551D02*
X002913Y019551D01*
X002571Y019635D02*
X002470Y019534D01*
X002470Y019228D01*
X002458Y019228D01*
X002417Y019187D01*
X002417Y020173D01*
X002553Y020173D01*
X002553Y019653D01*
X002555Y019651D01*
X002571Y019635D01*
X002553Y019709D02*
X002417Y019709D01*
X002417Y019551D02*
X002487Y019551D01*
X002470Y019392D02*
X002417Y019392D01*
X002417Y019234D02*
X002470Y019234D01*
X002417Y019868D02*
X002553Y019868D01*
X002553Y020026D02*
X002417Y020026D01*
X003618Y017807D02*
X003638Y017807D01*
X003638Y017649D02*
X003618Y017649D01*
X003618Y017490D02*
X003638Y017490D01*
X003638Y017393D02*
X004078Y017393D01*
X004078Y017216D01*
X003814Y016953D01*
X003638Y016953D01*
X003638Y017393D01*
X003638Y017332D02*
X003618Y017332D01*
X003618Y017173D02*
X003638Y017173D01*
X003638Y017015D02*
X003618Y017015D01*
X003839Y016856D02*
X005005Y016856D01*
X005034Y017015D02*
X003876Y017015D01*
X004035Y017173D02*
X004875Y017173D01*
X004797Y017332D02*
X004078Y017332D01*
X004078Y017490D02*
X004797Y017490D01*
X004797Y017649D02*
X004018Y017649D01*
X003998Y016698D02*
X004846Y016698D01*
X004797Y016539D02*
X004098Y016539D01*
X004098Y016381D02*
X004797Y016381D01*
X004826Y016222D02*
X004098Y016222D01*
X005290Y010624D02*
X005392Y010522D01*
X005382Y010522D01*
X005290Y010484D01*
X005290Y010624D01*
X005290Y010516D02*
X005367Y010516D01*
X005474Y010056D02*
X005199Y010056D01*
X002860Y007970D02*
X002860Y007836D01*
X002823Y007873D01*
X002433Y007873D01*
X002417Y007857D01*
X002417Y007949D01*
X002433Y007933D01*
X002823Y007933D01*
X002860Y007970D01*
X002860Y006970D02*
X002860Y006836D01*
X002823Y006873D01*
X002433Y006873D01*
X002417Y006857D01*
X002417Y006949D01*
X002433Y006933D01*
X002823Y006933D01*
X002860Y006970D01*
X002860Y006871D02*
X002825Y006871D01*
X002431Y006871D02*
X002417Y006871D01*
X002417Y005920D02*
X002896Y005920D01*
X002934Y005761D02*
X003047Y005761D01*
X003093Y005603D02*
X003163Y005603D01*
X003158Y005444D02*
X003098Y005444D01*
X003098Y005286D02*
X003158Y005286D01*
X003239Y005127D02*
X003017Y005127D01*
X002858Y004969D02*
X003397Y004969D01*
X003433Y004873D02*
X003158Y004597D01*
X003158Y004208D01*
X003433Y003933D01*
X003823Y003933D01*
X004098Y004208D01*
X004098Y004597D01*
X003823Y004873D01*
X003433Y004873D01*
X003371Y004810D02*
X002885Y004810D01*
X003044Y004652D02*
X003212Y004652D01*
X003158Y004493D02*
X003098Y004493D01*
X003098Y004335D02*
X003158Y004335D01*
X003190Y004176D02*
X003066Y004176D01*
X002907Y004018D02*
X003348Y004018D01*
X003433Y003873D02*
X003158Y003597D01*
X003158Y003208D01*
X003433Y002933D01*
X003823Y002933D01*
X004098Y003208D01*
X004098Y003597D01*
X003823Y003873D01*
X003433Y003873D01*
X003420Y003859D02*
X002836Y003859D01*
X002995Y003701D02*
X003261Y003701D01*
X003158Y003542D02*
X003098Y003542D01*
X003098Y003384D02*
X003158Y003384D01*
X003158Y003225D02*
X003098Y003225D01*
X002956Y003067D02*
X003299Y003067D01*
X003310Y002750D02*
X002946Y002750D01*
X003098Y002591D02*
X003158Y002591D01*
X003158Y002433D02*
X003098Y002433D01*
X003098Y002274D02*
X003158Y002274D01*
X003250Y002116D02*
X003005Y002116D01*
X002417Y002908D02*
X004669Y002908D01*
X004669Y002750D02*
X003946Y002750D01*
X004098Y002591D02*
X004669Y002591D01*
X004669Y002433D02*
X004098Y002433D01*
X004098Y002274D02*
X004690Y002274D01*
X004764Y002116D02*
X004005Y002116D01*
X003956Y003067D02*
X004669Y003067D01*
X004669Y003225D02*
X004098Y003225D01*
X004098Y003384D02*
X004669Y003384D01*
X004669Y003542D02*
X004098Y003542D01*
X003995Y003701D02*
X004669Y003701D01*
X004669Y003859D02*
X003836Y003859D01*
X003907Y004018D02*
X004669Y004018D01*
X004669Y004176D02*
X004066Y004176D01*
X004098Y004335D02*
X004669Y004335D01*
X004669Y004493D02*
X004098Y004493D01*
X004044Y004652D02*
X004669Y004652D01*
X004669Y004810D02*
X003885Y004810D01*
X003858Y004969D02*
X004669Y004969D01*
X004669Y005127D02*
X004017Y005127D01*
X004098Y005286D02*
X004720Y005286D01*
X004837Y005444D02*
X004098Y005444D01*
X004093Y005603D02*
X004188Y005603D01*
X004650Y005603D02*
X004996Y005603D01*
X005154Y005761D02*
X004768Y005761D01*
X005474Y005332D02*
X005592Y005450D01*
X005729Y004810D02*
X005930Y004810D01*
X005820Y004652D02*
X005729Y004652D01*
X005729Y004493D02*
X005777Y004493D01*
X005784Y004335D02*
X005729Y004335D01*
X005729Y004176D02*
X005850Y004176D01*
X005729Y004018D02*
X006015Y004018D01*
X003431Y006871D02*
X003420Y006871D01*
X002420Y003859D02*
X002417Y003859D01*
X012131Y004950D02*
X012476Y004950D01*
X012476Y004950D01*
X012131Y004950D01*
X012131Y004950D01*
D11*
X003851Y018998D02*
X003704Y019292D01*
X003537Y019365D02*
X003537Y019071D01*
X003243Y019365D01*
X003243Y019071D01*
X003317Y018998D01*
X003464Y018998D01*
X003537Y019071D01*
X003537Y019365D02*
X003464Y019438D01*
X003317Y019438D01*
X003243Y019365D01*
X003077Y019071D02*
X003003Y019071D01*
X003003Y018998D01*
X003077Y018998D01*
X003077Y019071D01*
X002846Y018998D02*
X002553Y018998D01*
X002700Y018998D02*
X002700Y019438D01*
X002846Y019292D01*
X002783Y019748D02*
X002783Y020188D01*
X003077Y020188D02*
X003077Y019748D01*
X002930Y019895D01*
X002783Y019748D01*
X003243Y019748D02*
X003464Y019968D01*
X003537Y019895D02*
X003243Y020188D01*
X003537Y020188D02*
X003537Y019748D01*
X003777Y019821D02*
X003777Y020188D01*
X003704Y020188D02*
X003851Y020188D01*
X003777Y019821D02*
X003851Y019748D01*
X003924Y019748D01*
X003997Y019821D01*
X003997Y019292D02*
X003851Y018998D01*
D12*
X002628Y001403D03*
X016628Y001403D03*
D13*
X016628Y002403D03*
X016628Y003403D03*
X016628Y004403D03*
X016628Y005403D03*
X016628Y006403D03*
X016628Y007403D03*
X016628Y008403D03*
X016628Y009403D03*
X016628Y010403D03*
X016628Y011403D03*
X016628Y012403D03*
X016628Y013403D03*
X016628Y014403D03*
X016628Y015403D03*
X016628Y016403D03*
X016628Y017403D03*
X016628Y018403D03*
X017628Y018403D03*
X017628Y017403D03*
X017628Y016403D03*
X017628Y015403D03*
X017628Y014403D03*
X017628Y013403D03*
X017628Y012403D03*
X017628Y011403D03*
X017628Y010403D03*
X017628Y009403D03*
X017628Y008403D03*
X017628Y007403D03*
X017628Y006403D03*
X017628Y005403D03*
X017628Y004403D03*
X017628Y003403D03*
X017628Y002403D03*
X017628Y001403D03*
X003628Y001403D03*
X003628Y002403D03*
X003628Y003403D03*
X003628Y004403D03*
X003628Y005403D03*
X003628Y006403D03*
X003628Y007403D03*
X003628Y008403D03*
X003628Y009403D03*
X003628Y010403D03*
X003628Y011403D03*
X003628Y012403D03*
X003628Y013403D03*
X003628Y014403D03*
X003628Y015403D03*
X003628Y016403D03*
X003628Y017403D03*
X003628Y018403D03*
X002628Y018403D03*
X002628Y017403D03*
X002628Y016403D03*
X002628Y015403D03*
X002628Y014403D03*
X002628Y013403D03*
X002628Y012403D03*
X002628Y011403D03*
X002628Y010403D03*
X002628Y009403D03*
X002628Y008403D03*
X002628Y007403D03*
X002628Y006403D03*
X002628Y005403D03*
X002628Y004403D03*
X002628Y003403D03*
X002628Y002403D03*
D14*
X005600Y002029D03*
X007569Y002029D03*
X009537Y002029D03*
X012608Y019233D03*
X014577Y019233D03*
D15*
X010673Y019478D02*
X010673Y019951D01*
X005473Y019951D02*
X005473Y019478D01*
X005473Y012651D02*
X005473Y012178D01*
X010673Y012178D02*
X010673Y012651D01*
D16*
X012258Y016483D02*
X012258Y017023D01*
X013258Y017023D02*
X013258Y016483D01*
X014258Y016483D02*
X014258Y017023D01*
D17*
X010199Y010056D03*
X007836Y010844D03*
X005474Y010056D03*
X005474Y005332D03*
X010199Y005332D03*
D18*
X012387Y013210D03*
X013297Y013210D03*
X014207Y013210D03*
D19*
X013297Y015650D03*
D20*
X011277Y015450D03*
X011277Y014450D03*
X010277Y014450D03*
X010277Y015450D03*
X009277Y015450D03*
X009277Y014450D03*
X009277Y013450D03*
X009277Y012450D03*
X008277Y012450D03*
X008277Y013450D03*
X007277Y013450D03*
X007277Y014450D03*
X007277Y015450D03*
X006277Y015450D03*
X006277Y014450D03*
X005277Y014450D03*
X005277Y015450D03*
X005277Y016450D03*
X005277Y017450D03*
X006277Y017450D03*
X006277Y016450D03*
X007277Y016450D03*
X007277Y017450D03*
X008277Y017450D03*
X008277Y016450D03*
X008277Y015450D03*
X008277Y014450D03*
X009277Y016450D03*
X009277Y017450D03*
X009277Y018450D03*
X009277Y019450D03*
X008277Y019450D03*
X008277Y018450D03*
X007277Y019450D03*
X010277Y017450D03*
X010277Y016450D03*
X011277Y016450D03*
X011277Y017450D03*
X011277Y010450D03*
X011277Y009450D03*
X011277Y008450D03*
X011277Y007450D03*
X010277Y007450D03*
X009277Y007450D03*
X009277Y006450D03*
X010277Y006450D03*
X011277Y006450D03*
X011277Y005450D03*
X011277Y004450D03*
X011277Y003450D03*
X011277Y002450D03*
X011277Y001450D03*
X012277Y001450D03*
X012277Y002450D03*
X012277Y003450D03*
X012277Y004450D03*
X012277Y005450D03*
X012277Y006450D03*
X012277Y007450D03*
X012277Y008450D03*
X012277Y009450D03*
X012277Y010450D03*
X013277Y010450D03*
X013277Y009450D03*
X013277Y008450D03*
X013277Y007450D03*
X013277Y006450D03*
X013277Y005450D03*
X013277Y004450D03*
X013277Y003450D03*
X013277Y002450D03*
X013277Y001450D03*
X014277Y001450D03*
X014277Y002450D03*
X014277Y003450D03*
X014277Y004450D03*
X014277Y005450D03*
X014277Y006450D03*
X014277Y007450D03*
X014277Y008450D03*
X014277Y009450D03*
X014277Y010450D03*
X015277Y010450D03*
X015277Y009450D03*
X015277Y008450D03*
X015277Y007450D03*
X015277Y006450D03*
X015277Y005450D03*
X015277Y004450D03*
X015277Y003450D03*
X015277Y002450D03*
X015277Y001450D03*
X008277Y004450D03*
X007277Y004450D03*
X007277Y005450D03*
X007277Y006450D03*
X006277Y006450D03*
X006277Y005450D03*
X005277Y006450D03*
X005277Y007450D03*
X006277Y007450D03*
X007277Y007450D03*
X007277Y008450D03*
X007277Y009450D03*
X006277Y009450D03*
X008277Y009450D03*
X008277Y008450D03*
X008277Y007450D03*
X008277Y006450D03*
X008277Y005450D03*
D21*
X006277Y004450D03*
X006277Y008450D03*
X007277Y012450D03*
X007277Y018450D03*
D22*
X008585Y011517D03*
X009085Y011517D03*
X009585Y011517D03*
X009585Y010257D03*
X009085Y010257D03*
X008585Y010257D03*
D23*
X006289Y010316D03*
X006289Y011064D03*
D24*
X012372Y011793D03*
X014104Y011793D03*
D25*
X015064Y011714D02*
X015664Y011714D01*
X015664Y012714D02*
X015064Y012714D01*
X015064Y013714D02*
X015664Y013714D01*
X015664Y014714D02*
X015064Y014714D01*
X015064Y015714D02*
X015664Y015714D01*
X015664Y016714D02*
X015064Y016714D01*
D26*
X017037Y019025D03*
X017037Y020001D03*
D27*
X017035Y020029D03*
X016917Y019541D03*
X017039Y019029D03*
D28*
X017037Y019033D03*
X017037Y020048D03*
X017037Y020300D03*
D29*
X017037Y020296D03*
X017037Y020064D03*
X017037Y019037D03*
D30*
X017037Y019041D03*
X017037Y020076D03*
X017037Y020293D03*
D31*
X017037Y020289D03*
X016915Y019493D03*
X017037Y019044D03*
D32*
X017037Y019048D03*
X017037Y020096D03*
D33*
X017035Y020104D03*
X017039Y019052D03*
D34*
X017037Y019056D03*
D35*
X017039Y019060D03*
X017035Y020277D03*
D36*
X017037Y019064D03*
D37*
X017037Y019068D03*
X016974Y020218D03*
D38*
X016970Y020226D03*
X016970Y020230D03*
X016978Y020237D03*
X017037Y020139D03*
X017037Y019072D03*
D39*
X017039Y019076D03*
X017035Y020147D03*
D40*
X017035Y020151D03*
X017035Y020265D03*
X017039Y019080D03*
D41*
X017037Y019084D03*
X017037Y020155D03*
D42*
X017037Y019088D03*
D43*
X017037Y019092D03*
D44*
X017037Y019096D03*
X017037Y020170D03*
X017037Y020257D03*
D45*
X017035Y020174D03*
X017039Y019100D03*
D46*
X017039Y019104D03*
X017035Y020178D03*
D47*
X017037Y019107D03*
D48*
X017039Y019111D03*
X017035Y020182D03*
D49*
X017039Y019115D03*
D50*
X017037Y019119D03*
D51*
X017039Y019123D03*
D52*
X017039Y019127D03*
D53*
X017037Y019131D03*
D54*
X017039Y019135D03*
X017035Y020206D03*
D55*
X017037Y019139D03*
D56*
X017039Y019143D03*
D57*
X017037Y019147D03*
D58*
X017039Y019151D03*
D59*
X017037Y019155D03*
D60*
X017039Y019159D03*
D61*
X017037Y019163D03*
D62*
X017039Y019167D03*
X017039Y019170D03*
D63*
X017037Y019174D03*
D64*
X017039Y019178D03*
D65*
X017037Y019182D03*
D66*
X017039Y019186D03*
X017039Y019190D03*
D67*
X017037Y019194D03*
D68*
X017039Y019198D03*
D69*
X017037Y019202D03*
X017037Y019206D03*
D70*
X017039Y019210D03*
D71*
X017037Y019214D03*
X017037Y019218D03*
X017037Y019485D03*
D72*
X017035Y019481D03*
X017039Y019226D03*
X017039Y019222D03*
D73*
X017037Y019230D03*
X017037Y019474D03*
X017037Y019478D03*
D74*
X017035Y019470D03*
X017035Y019466D03*
X017039Y019237D03*
X017039Y019233D03*
D75*
X017037Y019241D03*
X017037Y019245D03*
X017037Y019454D03*
X017037Y019458D03*
X017037Y019462D03*
D76*
X017039Y019253D03*
X017039Y019249D03*
D77*
X017037Y019257D03*
D78*
X017039Y019261D03*
X017039Y019265D03*
X017039Y019269D03*
D79*
X017037Y019273D03*
X017037Y019277D03*
D80*
X017039Y019281D03*
X017039Y019285D03*
D81*
X017037Y019289D03*
X017037Y019293D03*
D82*
X017039Y019296D03*
X017039Y019300D03*
D83*
X017037Y019304D03*
X017037Y019308D03*
D84*
X017037Y019312D03*
D85*
X017035Y019316D03*
D86*
X017035Y019320D03*
D87*
X017035Y019324D03*
D88*
X017035Y019328D03*
X017035Y019407D03*
D89*
X017035Y019403D03*
X017035Y019399D03*
X017035Y019336D03*
X017035Y019332D03*
D90*
X017037Y019340D03*
X017037Y019395D03*
D91*
X017035Y019391D03*
X017035Y019387D03*
X017035Y019383D03*
X017035Y019379D03*
X017035Y019375D03*
X017035Y019371D03*
X017035Y019367D03*
X017035Y019363D03*
X017035Y019359D03*
X017035Y019356D03*
X017035Y019352D03*
X017035Y019348D03*
X017035Y019344D03*
D92*
X017037Y019411D03*
D93*
X017037Y019415D03*
D94*
X017035Y019419D03*
D95*
X017035Y019422D03*
D96*
X017258Y019568D03*
X017270Y019560D03*
X017273Y019556D03*
X017317Y019489D03*
X017037Y019871D03*
X016809Y020253D03*
D97*
X017037Y020092D03*
X016919Y019489D03*
D98*
X017037Y019867D03*
X017234Y019580D03*
X017285Y019548D03*
X017289Y019544D03*
X017293Y019541D03*
X017297Y019537D03*
X017301Y019529D03*
X017305Y019525D03*
X017309Y019517D03*
X017313Y019509D03*
X017317Y019501D03*
X017317Y019497D03*
X017317Y019493D03*
X017037Y020340D03*
D99*
X017035Y020084D03*
X016917Y019497D03*
D100*
X016915Y019501D03*
X017037Y020080D03*
D101*
X017299Y019533D03*
X017307Y019521D03*
X017311Y019513D03*
X017315Y019505D03*
D102*
X016917Y019505D03*
D103*
X016917Y019509D03*
X016917Y019513D03*
X017035Y020072D03*
D104*
X017035Y020068D03*
X016917Y019517D03*
D105*
X016917Y019521D03*
D106*
X016915Y019525D03*
X017037Y020052D03*
D107*
X017035Y020044D03*
X016913Y019529D03*
D108*
X016915Y019533D03*
D109*
X016915Y019537D03*
X017037Y020037D03*
X017037Y020304D03*
D110*
X017157Y020253D03*
X017161Y020249D03*
X016917Y019544D03*
D111*
X016953Y019548D03*
X017035Y019966D03*
D112*
X017037Y019745D03*
X016915Y019639D03*
X016726Y019548D03*
D113*
X017244Y019576D03*
X017252Y019572D03*
X017264Y019564D03*
X017279Y019552D03*
D114*
X016951Y019552D03*
X017037Y020324D03*
D115*
X016951Y019556D03*
D116*
X016947Y019560D03*
D117*
X016945Y019564D03*
D118*
X016943Y019568D03*
D119*
X016939Y019572D03*
D120*
X016941Y019576D03*
X016949Y019584D03*
D121*
X016943Y019580D03*
D122*
X016921Y019627D03*
X017299Y019584D03*
D123*
X017179Y019584D03*
X017037Y019804D03*
X016935Y019942D03*
D124*
X017037Y020017D03*
X017022Y019592D03*
X017022Y019588D03*
D125*
X017022Y019596D03*
D126*
X017023Y019600D03*
X017035Y020009D03*
D127*
X017059Y019604D03*
D128*
X017043Y019647D03*
X016917Y019635D03*
X016838Y019604D03*
D129*
X017059Y019607D03*
X017059Y019611D03*
D130*
X017039Y019737D03*
X016913Y019643D03*
X016835Y019607D03*
D131*
X017059Y019615D03*
X017059Y019619D03*
D132*
X017059Y019623D03*
D133*
X017197Y019627D03*
D134*
X017053Y019627D03*
X017037Y019836D03*
X017124Y019954D03*
X017037Y020344D03*
D135*
X017037Y019741D03*
X017203Y019631D03*
D136*
X017053Y019631D03*
X017037Y019824D03*
X017108Y019922D03*
X017116Y019930D03*
X017120Y019938D03*
X016825Y020111D03*
X016821Y020115D03*
X016817Y020119D03*
X016817Y020123D03*
D137*
X017037Y019753D03*
X017037Y019749D03*
X016919Y019631D03*
D138*
X017051Y019635D03*
X016933Y019950D03*
X016933Y019954D03*
D139*
X017047Y019639D03*
D140*
X017045Y019643D03*
X017037Y019777D03*
D141*
X016913Y019647D03*
D142*
X016911Y019651D03*
X017037Y019730D03*
D143*
X016909Y019655D03*
D144*
X017037Y019718D03*
D145*
X017037Y019722D03*
X017037Y019726D03*
D146*
X017037Y019733D03*
D147*
X017037Y019757D03*
D148*
X017037Y019761D03*
D149*
X017037Y019765D03*
X017037Y019769D03*
D150*
X017037Y019773D03*
D151*
X017037Y019781D03*
X017037Y019785D03*
X017364Y020226D03*
D152*
X017037Y020348D03*
X017037Y019789D03*
D153*
X017037Y019793D03*
D154*
X017037Y019796D03*
X017037Y019800D03*
X016943Y019926D03*
D155*
X017037Y019808D03*
D156*
X017037Y019812D03*
X017037Y019816D03*
D157*
X017037Y019820D03*
X016935Y019958D03*
D158*
X017035Y019828D03*
X017122Y019942D03*
X016815Y020127D03*
D159*
X017124Y019946D03*
X017037Y019832D03*
D160*
X017037Y019840D03*
D161*
X017035Y019844D03*
X017122Y019958D03*
D162*
X017037Y019848D03*
D163*
X017037Y019852D03*
D164*
X017037Y019856D03*
D165*
X017035Y019859D03*
D166*
X017037Y019863D03*
D167*
X017035Y019875D03*
X016803Y020249D03*
D168*
X017037Y019879D03*
X017266Y020190D03*
X017270Y020194D03*
D169*
X017037Y019883D03*
D170*
X017037Y019887D03*
X017037Y019891D03*
X016797Y020241D03*
D171*
X017037Y020336D03*
X017037Y019895D03*
D172*
X017037Y019899D03*
D173*
X017037Y019903D03*
X017037Y019907D03*
D174*
X017037Y019911D03*
D175*
X017037Y019915D03*
X017037Y020332D03*
D176*
X017035Y019919D03*
D177*
X016949Y019922D03*
X016941Y019930D03*
X016937Y019934D03*
X016937Y019938D03*
D178*
X017114Y019926D03*
X017118Y019934D03*
D179*
X016933Y019946D03*
D180*
X017122Y019950D03*
X016815Y020131D03*
D181*
X017037Y019962D03*
D182*
X017037Y019970D03*
D183*
X017037Y019974D03*
X017037Y020320D03*
D184*
X017037Y019978D03*
D185*
X017035Y019981D03*
D186*
X017037Y019985D03*
D187*
X017037Y019989D03*
X017128Y020115D03*
X017132Y020119D03*
X017037Y020316D03*
D188*
X017134Y020123D03*
X017126Y020111D03*
X017035Y019993D03*
D189*
X017035Y019997D03*
X017134Y020131D03*
D190*
X017037Y020005D03*
X017037Y020312D03*
D191*
X017035Y020013D03*
D192*
X017037Y020021D03*
X016911Y020190D03*
X016907Y020194D03*
X017037Y020308D03*
D193*
X017165Y020245D03*
X017035Y020025D03*
X016905Y020198D03*
D194*
X017037Y020033D03*
X017167Y020241D03*
D195*
X017035Y020041D03*
D196*
X017035Y020056D03*
D197*
X017037Y020060D03*
D198*
X017035Y020088D03*
D199*
X017035Y020100D03*
X017035Y020285D03*
D200*
X017037Y020107D03*
D201*
X017136Y020127D03*
D202*
X017134Y020135D03*
D203*
X016815Y020135D03*
D204*
X017037Y020143D03*
D205*
X017035Y020159D03*
D206*
X017035Y020163D03*
X017035Y020261D03*
D207*
X017035Y020167D03*
D208*
X017037Y020186D03*
D209*
X017272Y020198D03*
X016799Y020245D03*
D210*
X017272Y020202D03*
D211*
X016907Y020202D03*
D212*
X017354Y020210D03*
X017358Y020214D03*
X017362Y020218D03*
X017362Y020222D03*
D213*
X016980Y020210D03*
X016976Y020214D03*
X016972Y020222D03*
D214*
X017358Y020237D03*
X017362Y020233D03*
X017366Y020230D03*
D215*
X017035Y020269D03*
X016972Y020233D03*
D216*
X017035Y020273D03*
D217*
X017035Y020281D03*
D218*
X017037Y020328D03*
D219*
X012854Y014991D03*
X011309Y013328D03*
X010305Y013328D03*
X010199Y011596D03*
X012805Y009942D03*
X013789Y010789D03*
X014616Y013210D03*
X013789Y007974D03*
X011762Y006970D03*
X013770Y002954D03*
X016289Y005926D03*
X017411Y006911D03*
X017136Y001674D03*
X006722Y011241D03*
X005679Y011556D03*
X006250Y013131D03*
X005010Y013584D03*
X007785Y017009D03*
X005246Y018643D03*
X004419Y005907D03*
D220*
X011691Y006930D02*
X011691Y003005D01*
X012246Y002450D01*
X012277Y002450D01*
X012277Y003450D02*
X011860Y003867D01*
X011860Y005033D01*
X012277Y005450D01*
X012726Y004840D02*
X012336Y004450D01*
X012277Y004450D01*
X012726Y004840D02*
X012726Y006241D01*
X012518Y006450D01*
X012277Y006450D01*
X012459Y006450D01*
X011762Y006970D02*
X011691Y006930D01*
X013277Y006450D02*
X013770Y005958D01*
X013770Y004942D01*
X013277Y004450D01*
X012844Y004667D02*
X012844Y003883D01*
X013277Y003450D01*
X013770Y003942D02*
X013770Y002954D01*
X013770Y003942D02*
X014277Y004450D01*
X014277Y005450D02*
X014277Y006450D01*
X013277Y005450D02*
X013277Y005100D01*
X012844Y004667D01*
X017057Y005832D02*
X017057Y001753D01*
X017136Y001674D01*
X017057Y005832D02*
X017628Y006403D01*
X017411Y006911D02*
X017234Y007088D01*
X017234Y009009D01*
X017628Y009403D01*
D221*
X011277Y013359D02*
X011277Y014450D01*
X010305Y013328D02*
X010199Y013222D01*
X010199Y011596D01*
X010199Y010056D01*
D222*
X007836Y010844D02*
X007561Y010844D01*
X007277Y010560D01*
X007277Y009450D01*
X007277Y008450D01*
X007277Y007450D01*
X007277Y006450D01*
X007277Y005450D01*
X007277Y004450D01*
X007277Y002320D01*
X007569Y002029D01*
X009537Y002029D02*
X009537Y004946D01*
X009923Y005332D01*
X010199Y005332D01*
X006277Y005450D02*
X005592Y005450D01*
X005474Y005332D02*
X005199Y005056D01*
X005199Y002430D01*
X005600Y002029D01*
M02*
