%
M48
M72
T01C0.0236
T02C0.0315
T03C0.0354
T04C0.0360
T05C0.0400
T06C0.0520
%
T01
X6506Y10926
X5010Y13584
X5758Y13623
X7785Y17009
X5246Y18643
X11309Y13328
X11840Y13978
X13002Y12934
X14242Y13269
X13277Y11596
X12805Y9942
X9833Y11635
X16230Y5907
X17136Y6950
X17136Y1930
T02
X10673Y12415
X5473Y12415
X5473Y19715
X10673Y19715
T03
X7836Y10844
X5474Y10056
X5474Y5332
X10199Y5332
X10199Y10056
T04
X2628Y1403
X2628Y2403
X2628Y3403
X2628Y4403
X2628Y5403
X2628Y6403
X2628Y7403
X2628Y8403
X2628Y9403
X2628Y10403
X2628Y11403
X2628Y12403
X2628Y13403
X2628Y14403
X2628Y15403
X2628Y16403
X2628Y17403
X2628Y18403
X3628Y18403
X3628Y17403
X3628Y16403
X3628Y15403
X3628Y14403
X3628Y13403
X3628Y12403
X3628Y11403
X3628Y10403
X3628Y9403
X3628Y8403
X3628Y7403
X3628Y6403
X3628Y5403
X3628Y4403
X3628Y3403
X3628Y2403
X3628Y1403
X16628Y1403
X16628Y2403
X16628Y3403
X16628Y4403
X16628Y5403
X16628Y6403
X16628Y7403
X16628Y8403
X16628Y9403
X16628Y10403
X16628Y11403
X16628Y12403
X16628Y13403
X16628Y14403
X16628Y15403
X16628Y16403
X16628Y17403
X16628Y18403
X17628Y18403
X17628Y17403
X17628Y16403
X17628Y15403
X17628Y14403
X17628Y13403
X17628Y12403
X17628Y11403
X17628Y10403
X17628Y9403
X17628Y8403
X17628Y7403
X17628Y6403
X17628Y5403
X17628Y4403
X17628Y3403
X17628Y2403
X17628Y1403
X14750Y16635
X13750Y16635
X12750Y16635
T05
X11277Y16450
X10277Y16450
X9277Y16450
X9277Y15450
X9277Y14450
X9277Y13450
X9277Y12450
X8277Y12450
X7277Y12450
X7277Y13450
X7277Y14450
X7277Y15450
X6277Y15450
X6277Y14450
X5277Y14450
X5277Y15450
X5277Y16450
X5277Y17450
X6277Y17450
X6277Y16450
X7277Y16450
X7277Y17450
X7277Y18450
X7277Y19450
X8277Y19450
X8277Y18450
X8277Y17450
X8277Y16450
X8277Y15450
X8277Y14450
X8277Y13450
X10277Y14450
X10277Y15450
X11277Y15450
X11277Y14450
X11277Y17450
X10277Y17450
X9277Y17450
X9277Y18450
X9277Y19450
X11277Y10450
X11277Y9450
X11277Y8450
X11277Y7450
X10277Y7450
X9277Y7450
X9277Y6450
X10277Y6450
X11277Y6450
X11277Y5450
X11277Y4450
X11277Y3450
X11277Y2450
X11277Y1450
X12277Y1450
X12277Y2450
X12277Y3450
X12277Y4450
X12277Y5450
X12277Y6450
X12277Y7450
X12277Y8450
X12277Y9450
X12277Y10450
X13277Y10450
X13277Y9450
X13277Y8450
X13277Y7450
X13277Y6450
X13277Y5450
X13277Y4450
X13277Y3450
X13277Y2450
X13277Y1450
X14277Y1450
X14277Y2450
X14277Y3450
X14277Y4450
X14277Y5450
X14277Y6450
X14277Y7450
X14277Y8450
X14277Y9450
X14277Y10450
X15277Y10450
X15277Y9450
X15277Y8450
X15277Y7450
X15277Y6450
X15277Y5450
X15277Y4450
X15277Y3450
X15277Y2450
X15277Y1450
X8277Y4450
X7277Y4450
X6277Y4450
X6277Y5450
X6277Y6450
X5277Y6450
X5277Y7450
X6277Y7450
X6277Y8450
X6277Y9450
X7277Y9450
X7277Y8450
X7277Y7450
X7277Y6450
X7277Y5450
X8277Y5450
X8277Y6450
X8277Y7450
X8277Y8450
X8277Y9450
T06
X7569Y2029
X9537Y2029
X5600Y2029
X12608Y19233
X14577Y19233
M30
