G75*
%MOIN*%
%OFA0B0*%
%FSLAX24Y24*%
%IPPOS*%
%LPD*%
%AMOC8*
5,1,8,0,0,1.08239X$1,22.5*
%
%ADD10C,0.0160*%
%ADD11C,0.0060*%
%ADD12C,0.0540*%
%ADD13OC8,0.0540*%
%ADD14OC8,0.1250*%
%ADD15C,0.0472*%
%ADD16R,0.0472X0.0472*%
%ADD17R,0.0512X0.0591*%
%ADD18C,0.0540*%
%ADD19C,0.0531*%
%ADD20R,0.0551X0.0394*%
%ADD21OC8,0.0600*%
%ADD22C,0.0600*%
%ADD23C,0.0600*%
%ADD24R,0.0421X0.0004*%
%ADD25R,0.0465X0.0004*%
%ADD26R,0.0492X0.0004*%
%ADD27R,0.0516X0.0004*%
%ADD28R,0.0531X0.0004*%
%ADD29R,0.0547X0.0004*%
%ADD30R,0.0563X0.0004*%
%ADD31R,0.0575X0.0004*%
%ADD32R,0.0587X0.0004*%
%ADD33R,0.0598X0.0004*%
%ADD34R,0.0610X0.0004*%
%ADD35R,0.0618X0.0004*%
%ADD36R,0.0626X0.0004*%
%ADD37R,0.0638X0.0004*%
%ADD38R,0.0646X0.0004*%
%ADD39R,0.0650X0.0004*%
%ADD40R,0.0657X0.0004*%
%ADD41R,0.0665X0.0004*%
%ADD42R,0.0673X0.0004*%
%ADD43R,0.0677X0.0004*%
%ADD44R,0.0685X0.0004*%
%ADD45R,0.0689X0.0004*%
%ADD46R,0.0693X0.0004*%
%ADD47R,0.0701X0.0004*%
%ADD48R,0.0705X0.0004*%
%ADD49R,0.0709X0.0004*%
%ADD50R,0.0717X0.0004*%
%ADD51R,0.0720X0.0004*%
%ADD52R,0.0724X0.0004*%
%ADD53R,0.0728X0.0004*%
%ADD54R,0.0732X0.0004*%
%ADD55R,0.0736X0.0004*%
%ADD56R,0.0740X0.0004*%
%ADD57R,0.0744X0.0004*%
%ADD58R,0.0748X0.0004*%
%ADD59R,0.0752X0.0004*%
%ADD60R,0.0756X0.0004*%
%ADD61R,0.0760X0.0004*%
%ADD62R,0.0764X0.0004*%
%ADD63R,0.0768X0.0004*%
%ADD64R,0.0772X0.0004*%
%ADD65R,0.0776X0.0004*%
%ADD66R,0.0780X0.0004*%
%ADD67R,0.0783X0.0004*%
%ADD68R,0.0787X0.0004*%
%ADD69R,0.0791X0.0004*%
%ADD70R,0.0795X0.0004*%
%ADD71R,0.0799X0.0004*%
%ADD72R,0.0803X0.0004*%
%ADD73R,0.0807X0.0004*%
%ADD74R,0.0811X0.0004*%
%ADD75R,0.0815X0.0004*%
%ADD76R,0.0819X0.0004*%
%ADD77R,0.0823X0.0004*%
%ADD78R,0.0827X0.0004*%
%ADD79R,0.0831X0.0004*%
%ADD80R,0.0835X0.0004*%
%ADD81R,0.0839X0.0004*%
%ADD82R,0.0909X0.0004*%
%ADD83R,0.0937X0.0004*%
%ADD84R,0.0953X0.0004*%
%ADD85R,0.0961X0.0004*%
%ADD86R,0.0969X0.0004*%
%ADD87R,0.0976X0.0004*%
%ADD88R,0.0980X0.0004*%
%ADD89R,0.0984X0.0004*%
%ADD90R,0.0965X0.0004*%
%ADD91R,0.0957X0.0004*%
%ADD92R,0.0945X0.0004*%
%ADD93R,0.0921X0.0004*%
%ADD94R,0.0232X0.0004*%
%ADD95R,0.0555X0.0004*%
%ADD96R,0.0224X0.0004*%
%ADD97R,0.0543X0.0004*%
%ADD98R,0.0539X0.0004*%
%ADD99R,0.0220X0.0004*%
%ADD100R,0.0535X0.0004*%
%ADD101R,0.0528X0.0004*%
%ADD102R,0.0520X0.0004*%
%ADD103R,0.0512X0.0004*%
%ADD104R,0.0500X0.0004*%
%ADD105R,0.0488X0.0004*%
%ADD106R,0.0484X0.0004*%
%ADD107R,0.0476X0.0004*%
%ADD108R,0.0449X0.0004*%
%ADD109R,0.0370X0.0004*%
%ADD110R,0.0043X0.0004*%
%ADD111R,0.0228X0.0004*%
%ADD112R,0.0358X0.0004*%
%ADD113R,0.0350X0.0004*%
%ADD114R,0.0343X0.0004*%
%ADD115R,0.0331X0.0004*%
%ADD116R,0.0319X0.0004*%
%ADD117R,0.0311X0.0004*%
%ADD118R,0.0307X0.0004*%
%ADD119R,0.0303X0.0004*%
%ADD120R,0.0063X0.0004*%
%ADD121R,0.0130X0.0004*%
%ADD122R,0.0445X0.0004*%
%ADD123R,0.0437X0.0004*%
%ADD124R,0.0433X0.0004*%
%ADD125R,0.0362X0.0004*%
%ADD126R,0.0047X0.0004*%
%ADD127R,0.0354X0.0004*%
%ADD128R,0.0031X0.0004*%
%ADD129R,0.0346X0.0004*%
%ADD130R,0.0339X0.0004*%
%ADD131R,0.0055X0.0004*%
%ADD132R,0.0177X0.0004*%
%ADD133R,0.0035X0.0004*%
%ADD134R,0.0161X0.0004*%
%ADD135R,0.0051X0.0004*%
%ADD136R,0.0142X0.0004*%
%ADD137R,0.0118X0.0004*%
%ADD138R,0.0091X0.0004*%
%ADD139R,0.0024X0.0004*%
%ADD140R,0.0020X0.0004*%
%ADD141R,0.0008X0.0004*%
%ADD142R,0.0004X0.0004*%
%ADD143R,0.0012X0.0004*%
%ADD144R,0.0028X0.0004*%
%ADD145R,0.0059X0.0004*%
%ADD146R,0.0067X0.0004*%
%ADD147R,0.0075X0.0004*%
%ADD148R,0.0083X0.0004*%
%ADD149R,0.0098X0.0004*%
%ADD150R,0.0106X0.0004*%
%ADD151R,0.0114X0.0004*%
%ADD152R,0.0122X0.0004*%
%ADD153R,0.0138X0.0004*%
%ADD154R,0.0146X0.0004*%
%ADD155R,0.0154X0.0004*%
%ADD156R,0.0165X0.0004*%
%ADD157R,0.0169X0.0004*%
%ADD158R,0.0185X0.0004*%
%ADD159R,0.0189X0.0004*%
%ADD160R,0.0193X0.0004*%
%ADD161R,0.0201X0.0004*%
%ADD162R,0.0209X0.0004*%
%ADD163R,0.0213X0.0004*%
%ADD164R,0.0217X0.0004*%
%ADD165R,0.0236X0.0004*%
%ADD166R,0.0240X0.0004*%
%ADD167R,0.0248X0.0004*%
%ADD168R,0.0256X0.0004*%
%ADD169R,0.0264X0.0004*%
%ADD170R,0.0272X0.0004*%
%ADD171R,0.0280X0.0004*%
%ADD172R,0.0287X0.0004*%
%ADD173R,0.0295X0.0004*%
%ADD174R,0.0299X0.0004*%
%ADD175R,0.0126X0.0004*%
%ADD176R,0.0157X0.0004*%
%ADD177R,0.0134X0.0004*%
%ADD178R,0.0173X0.0004*%
%ADD179R,0.0366X0.0004*%
%ADD180R,0.0374X0.0004*%
%ADD181R,0.0382X0.0004*%
%ADD182R,0.0390X0.0004*%
%ADD183R,0.0394X0.0004*%
%ADD184R,0.0398X0.0004*%
%ADD185R,0.0406X0.0004*%
%ADD186R,0.0409X0.0004*%
%ADD187R,0.0417X0.0004*%
%ADD188R,0.0429X0.0004*%
%ADD189R,0.0441X0.0004*%
%ADD190R,0.0453X0.0004*%
%ADD191R,0.0457X0.0004*%
%ADD192R,0.0469X0.0004*%
%ADD193R,0.0480X0.0004*%
%ADD194R,0.0504X0.0004*%
%ADD195R,0.0508X0.0004*%
%ADD196R,0.0551X0.0004*%
%ADD197R,0.0567X0.0004*%
%ADD198R,0.0579X0.0004*%
%ADD199R,0.0413X0.0004*%
%ADD200R,0.0425X0.0004*%
%ADD201R,0.0181X0.0004*%
%ADD202R,0.0634X0.0004*%
%ADD203R,0.0654X0.0004*%
%ADD204R,0.0661X0.0004*%
%ADD205R,0.0669X0.0004*%
%ADD206R,0.0697X0.0004*%
%ADD207R,0.0244X0.0004*%
%ADD208R,0.0252X0.0004*%
%ADD209R,0.0461X0.0004*%
%ADD210R,0.0094X0.0004*%
%ADD211R,0.0622X0.0004*%
%ADD212R,0.0102X0.0004*%
%ADD213R,0.0630X0.0004*%
%ADD214R,0.0614X0.0004*%
%ADD215R,0.0583X0.0004*%
%ADD216R,0.0327X0.0004*%
%ADD217C,0.0356*%
%ADD218C,0.0100*%
%ADD219C,0.0240*%
%ADD220C,0.0660*%
D10*
X002057Y000848D02*
X018199Y000848D01*
X018199Y020533D01*
X002057Y020533D01*
X002057Y000848D01*
X002417Y001824D02*
X002417Y001949D01*
X002433Y001933D01*
X002823Y001933D01*
X003098Y002208D01*
X003098Y002597D01*
X002823Y002873D01*
X002433Y002873D01*
X002417Y002857D01*
X002417Y002949D01*
X002433Y002933D01*
X002823Y002933D01*
X003098Y003208D01*
X003098Y003477D01*
X003158Y003537D01*
X003158Y003208D01*
X003433Y002933D01*
X003823Y002933D01*
X004012Y003123D01*
X007286Y003123D01*
X007389Y003165D01*
X008173Y003950D01*
X008485Y003950D01*
X008777Y004243D01*
X008777Y004657D01*
X008515Y004920D01*
X009861Y004920D01*
X009898Y004883D01*
X010093Y004802D01*
X010304Y004802D01*
X010499Y004883D01*
X010648Y005032D01*
X010729Y005226D01*
X010729Y005437D01*
X010648Y005632D01*
X010381Y005899D01*
X010210Y005970D01*
X010257Y005970D01*
X010257Y006430D01*
X009797Y006430D01*
X009797Y006251D01*
X010069Y005980D01*
X009486Y005980D01*
X009757Y006251D01*
X009757Y006430D01*
X009297Y006430D01*
X009297Y006470D01*
X009257Y006470D01*
X009257Y006430D01*
X008797Y006430D01*
X008797Y006251D01*
X009069Y005980D01*
X008486Y005980D01*
X008757Y006251D01*
X008757Y006430D01*
X008297Y006430D01*
X008297Y006470D01*
X008257Y006470D01*
X008257Y006430D01*
X007797Y006430D01*
X007797Y006251D01*
X008079Y005970D01*
X008148Y005970D01*
X008100Y005950D01*
X008070Y005950D01*
X008050Y005929D01*
X007977Y005899D01*
X007828Y005750D01*
X007798Y005678D01*
X007777Y005657D01*
X007485Y005950D01*
X007777Y006243D01*
X007777Y006657D01*
X007485Y006950D01*
X007777Y007243D01*
X007777Y007657D01*
X007761Y007674D01*
X007823Y007674D01*
X007797Y007649D01*
X007797Y007470D01*
X008257Y007470D01*
X008257Y007430D01*
X007797Y007430D01*
X007797Y007251D01*
X008079Y006970D01*
X008257Y006970D01*
X008257Y007430D01*
X008297Y007430D01*
X008297Y006970D01*
X008476Y006970D01*
X008757Y007251D01*
X008757Y007430D01*
X008297Y007430D01*
X008297Y007470D01*
X008257Y007470D01*
X008257Y007930D01*
X008153Y007930D01*
X008173Y007950D01*
X008485Y007950D01*
X008777Y008243D01*
X008777Y008657D01*
X008485Y008950D01*
X008070Y008950D01*
X007777Y008657D01*
X007485Y008950D01*
X007070Y008950D01*
X006777Y008657D01*
X006777Y008243D01*
X006786Y008234D01*
X006729Y008234D01*
X006777Y008351D01*
X006777Y008549D01*
X006701Y008733D01*
X006561Y008874D01*
X006377Y008950D01*
X006178Y008950D01*
X005994Y008874D01*
X005854Y008733D01*
X005833Y008683D01*
X004013Y008683D01*
X003823Y008873D01*
X003433Y008873D01*
X003158Y008597D01*
X003158Y008208D01*
X003433Y007933D01*
X003762Y007933D01*
X003702Y007873D01*
X003433Y007873D01*
X003158Y007597D01*
X003158Y007208D01*
X003433Y006933D01*
X003823Y006933D01*
X004098Y007208D01*
X004098Y007477D01*
X004295Y007674D01*
X004794Y007674D01*
X004777Y007657D01*
X004777Y007243D01*
X005070Y006950D01*
X004777Y006657D01*
X004777Y006243D01*
X004834Y006187D01*
X004674Y006187D01*
X004633Y006227D01*
X004494Y006285D01*
X004344Y006285D01*
X004205Y006227D01*
X004099Y006121D01*
X004041Y005982D01*
X004041Y005831D01*
X004099Y005693D01*
X004205Y005586D01*
X004344Y005529D01*
X004494Y005529D01*
X004633Y005586D01*
X004674Y005627D01*
X005110Y005627D01*
X005079Y005596D01*
X005009Y005425D01*
X005009Y005239D01*
X005079Y005068D01*
X005210Y004937D01*
X005382Y004866D01*
X005567Y004866D01*
X005738Y004937D01*
X005869Y005068D01*
X005893Y005127D01*
X006070Y004950D01*
X006485Y004950D01*
X006777Y005243D01*
X006777Y005657D01*
X006485Y005950D01*
X006777Y006243D01*
X006777Y006657D01*
X006557Y006877D01*
X006557Y007023D01*
X006777Y007243D01*
X006777Y007657D01*
X006761Y007674D01*
X006794Y007674D01*
X006777Y007657D01*
X006777Y007243D01*
X007070Y006950D01*
X007485Y006950D01*
X007070Y006950D01*
X006777Y006657D01*
X006777Y006243D01*
X007070Y005950D01*
X007485Y005950D01*
X007070Y005950D01*
X006777Y005657D01*
X006777Y005243D01*
X007070Y004950D01*
X006777Y004657D01*
X006777Y004243D01*
X007070Y003950D01*
X007381Y003950D01*
X007114Y003683D01*
X005906Y003683D01*
X006175Y003951D01*
X006178Y003950D01*
X006377Y003950D01*
X006561Y004026D01*
X006701Y004167D01*
X006777Y004351D01*
X006777Y004549D01*
X006701Y004733D01*
X006561Y004874D01*
X006377Y004950D01*
X006178Y004950D01*
X005994Y004874D01*
X005854Y004733D01*
X005777Y004549D01*
X005777Y004351D01*
X005779Y004347D01*
X005630Y004199D01*
X004088Y004199D01*
X004098Y004208D01*
X004098Y004597D01*
X003823Y004873D01*
X003433Y004873D01*
X003158Y004597D01*
X003158Y004208D01*
X003167Y004199D01*
X003088Y004199D01*
X003098Y004208D01*
X003098Y004597D01*
X002823Y004873D01*
X002433Y004873D01*
X002417Y004857D01*
X002417Y004949D01*
X002433Y004933D01*
X002823Y004933D01*
X003098Y005208D01*
X003098Y005597D01*
X002823Y005873D01*
X002433Y005873D01*
X002417Y005857D01*
X002417Y005949D01*
X002433Y005933D01*
X002823Y005933D01*
X003098Y006208D01*
X003098Y006597D01*
X002823Y006873D01*
X002433Y006873D01*
X002417Y006857D01*
X002417Y006949D01*
X002433Y006933D01*
X002823Y006933D01*
X003098Y007208D01*
X003098Y007597D01*
X002823Y007873D01*
X002433Y007873D01*
X002417Y007857D01*
X002417Y007949D01*
X002433Y007933D01*
X002823Y007933D01*
X003098Y008208D01*
X003098Y008597D01*
X002823Y008873D01*
X002433Y008873D01*
X002417Y008857D01*
X002417Y008949D01*
X002433Y008933D01*
X002823Y008933D01*
X003098Y009208D01*
X003098Y009597D01*
X002823Y009873D01*
X002433Y009873D01*
X002417Y009857D01*
X002417Y009949D01*
X002433Y009933D01*
X002823Y009933D01*
X003098Y010208D01*
X003098Y010477D01*
X003158Y010537D01*
X003158Y010208D01*
X003433Y009933D01*
X003823Y009933D01*
X004013Y010123D01*
X004306Y010123D01*
X004408Y010165D01*
X004594Y010351D01*
X005110Y010351D01*
X005079Y010320D01*
X005009Y010149D01*
X005009Y009964D01*
X005079Y009792D01*
X005142Y009730D01*
X003965Y009730D01*
X003823Y009873D01*
X003433Y009873D01*
X003158Y009597D01*
X003158Y009208D01*
X003433Y008933D01*
X003823Y008933D01*
X004060Y009170D01*
X005850Y009170D01*
X006070Y008950D01*
X006485Y008950D01*
X006777Y009243D01*
X006777Y009657D01*
X006485Y009950D01*
X006070Y009950D01*
X005850Y009730D01*
X005807Y009730D01*
X005869Y009792D01*
X005940Y009964D01*
X005940Y010149D01*
X005869Y010320D01*
X005838Y010351D01*
X005839Y010351D01*
X005993Y010197D01*
X006072Y010118D01*
X006174Y010076D01*
X007256Y010076D01*
X007381Y009950D01*
X007070Y009950D01*
X006777Y009657D01*
X006777Y009243D01*
X007070Y008950D01*
X007485Y008950D01*
X007777Y009243D01*
X007777Y009554D01*
X007777Y009554D01*
X007777Y009243D01*
X008070Y008950D01*
X008485Y008950D01*
X008777Y009243D01*
X008777Y009657D01*
X008485Y009950D01*
X008173Y009950D01*
X007745Y010378D01*
X007929Y010378D01*
X008100Y010449D01*
X008231Y010580D01*
X008302Y010751D01*
X008302Y010936D01*
X008231Y011108D01*
X008100Y011239D01*
X007929Y011309D01*
X007744Y011309D01*
X007573Y011239D01*
X007442Y011108D01*
X007371Y010936D01*
X007371Y010751D01*
X007419Y010636D01*
X006465Y010636D01*
X006546Y010669D01*
X006740Y010863D01*
X006798Y010863D01*
X006936Y010921D01*
X007043Y011027D01*
X007100Y011166D01*
X007100Y011315D01*
X009945Y011315D01*
X009985Y011275D01*
X010123Y011218D01*
X010274Y011218D01*
X010413Y011275D01*
X010519Y011381D01*
X010577Y011520D01*
X010577Y011671D01*
X010528Y011788D01*
X010576Y011772D01*
X010641Y011762D01*
X010673Y011762D01*
X010673Y012415D01*
X010673Y012415D01*
X010257Y012415D01*
X010257Y012684D01*
X010268Y012748D01*
X010288Y012811D01*
X010318Y012869D01*
X010356Y012922D01*
X010387Y012952D01*
X010380Y012950D01*
X010230Y012950D01*
X010091Y013007D01*
X009984Y013114D01*
X009927Y013253D01*
X009927Y013403D01*
X009984Y013542D01*
X010091Y013648D01*
X010209Y013698D01*
X009737Y013698D01*
X009777Y013657D01*
X009777Y013243D01*
X009485Y012950D01*
X009070Y012950D01*
X008777Y012657D01*
X008485Y012950D01*
X008070Y012950D01*
X007777Y012657D01*
X007777Y012243D01*
X008065Y011955D01*
X007389Y011955D01*
X007561Y012026D01*
X007701Y012167D01*
X007777Y012351D01*
X007777Y012549D01*
X007701Y012733D01*
X007561Y012874D01*
X007377Y012950D01*
X007178Y012950D01*
X006994Y012874D01*
X006854Y012733D01*
X006777Y012549D01*
X006777Y012351D01*
X006854Y012167D01*
X006994Y012026D01*
X007166Y011955D01*
X006386Y011955D01*
X005910Y012431D01*
X005910Y012738D01*
X005843Y012898D01*
X005721Y013021D01*
X005560Y013087D01*
X005387Y013087D01*
X005226Y013021D01*
X005104Y012898D01*
X005037Y012738D01*
X005037Y012092D01*
X005104Y011931D01*
X005226Y011809D01*
X005353Y011756D01*
X005322Y011683D01*
X004013Y011683D01*
X003823Y011873D01*
X003433Y011873D01*
X003158Y011597D01*
X003158Y011208D01*
X003179Y011187D01*
X003076Y011187D01*
X003098Y011208D01*
X003098Y011597D01*
X002823Y011873D01*
X002433Y011873D01*
X002417Y011857D01*
X002417Y011949D01*
X002433Y011933D01*
X002823Y011933D01*
X003098Y012208D01*
X003098Y012597D01*
X002823Y012873D01*
X002433Y012873D01*
X002417Y012857D01*
X002417Y012949D01*
X002433Y012933D01*
X002823Y012933D01*
X003098Y013208D01*
X003098Y013597D01*
X002823Y013873D01*
X002433Y013873D01*
X002417Y013857D01*
X002417Y013949D01*
X002433Y013933D01*
X002823Y013933D01*
X003098Y014208D01*
X003098Y014597D01*
X002823Y014873D01*
X002433Y014873D01*
X002417Y014857D01*
X002417Y014949D01*
X002433Y014933D01*
X002823Y014933D01*
X003098Y015208D01*
X003098Y015597D01*
X002823Y015873D01*
X002433Y015873D01*
X002417Y015857D01*
X002417Y015949D01*
X002433Y015933D01*
X002823Y015933D01*
X003098Y016208D01*
X003098Y016477D01*
X003158Y016537D01*
X003158Y016208D01*
X003433Y015933D01*
X003823Y015933D01*
X004098Y016208D01*
X004098Y016597D01*
X004065Y016631D01*
X004797Y016631D01*
X004797Y016470D01*
X005257Y016470D01*
X005257Y016430D01*
X004797Y016430D01*
X004797Y016251D01*
X005079Y015970D01*
X005257Y015970D01*
X005257Y016430D01*
X005297Y016430D01*
X005297Y015970D01*
X005476Y015970D01*
X005757Y016251D01*
X005757Y016430D01*
X005297Y016430D01*
X005297Y016470D01*
X005757Y016470D01*
X005757Y016649D01*
X005717Y016690D01*
X005810Y016690D01*
X005777Y016657D01*
X005777Y016243D01*
X006070Y015950D01*
X005777Y015657D01*
X005777Y015243D01*
X006070Y014950D01*
X006485Y014950D01*
X006777Y015243D01*
X006777Y015657D01*
X006485Y015950D01*
X006070Y015950D01*
X006485Y015950D01*
X006777Y016243D01*
X006777Y016657D01*
X006745Y016690D01*
X006810Y016690D01*
X006777Y016657D01*
X006777Y016243D01*
X007070Y015950D01*
X006777Y015657D01*
X006777Y015243D01*
X007070Y014950D01*
X007485Y014950D01*
X007777Y015243D01*
X007777Y015657D01*
X007485Y015950D01*
X007070Y015950D01*
X007485Y015950D01*
X007777Y016243D01*
X007777Y016631D01*
X007777Y016631D01*
X007777Y016243D01*
X008070Y015950D01*
X007777Y015657D01*
X007777Y015243D01*
X008070Y014950D01*
X008485Y014950D01*
X008777Y015243D01*
X008777Y015657D01*
X008485Y015950D01*
X008070Y015950D01*
X008485Y015950D01*
X008777Y016243D01*
X008777Y016657D01*
X008485Y016950D01*
X008777Y017243D01*
X008777Y017634D01*
X008777Y017634D01*
X008777Y017243D01*
X009070Y016950D01*
X008777Y016657D01*
X008777Y016243D01*
X009070Y015950D01*
X009485Y015950D01*
X009777Y016243D01*
X009777Y016657D01*
X009485Y016950D01*
X009070Y016950D01*
X009485Y016950D01*
X009777Y017243D01*
X009777Y017634D01*
X009777Y017634D01*
X009777Y017243D01*
X010070Y016950D01*
X009777Y016657D01*
X009777Y016243D01*
X010070Y015950D01*
X010485Y015950D01*
X010777Y016243D01*
X010777Y016657D01*
X010485Y016950D01*
X010070Y016950D01*
X010485Y016950D01*
X010777Y017243D01*
X010777Y017634D01*
X010777Y017634D01*
X010777Y017243D01*
X011070Y016950D01*
X010777Y016657D01*
X010777Y016243D01*
X011070Y015950D01*
X010777Y015657D01*
X010485Y015950D01*
X010070Y015950D01*
X009777Y015657D01*
X009485Y015950D01*
X009070Y015950D01*
X008777Y015657D01*
X008777Y015243D01*
X009070Y014950D01*
X009485Y014950D01*
X009777Y015243D01*
X009777Y015657D01*
X009777Y015243D01*
X010070Y014950D01*
X010485Y014950D01*
X010777Y015243D01*
X010777Y015657D01*
X010777Y015243D01*
X010957Y015063D01*
X010957Y014837D01*
X010777Y014657D01*
X010485Y014950D01*
X010070Y014950D01*
X009777Y014657D01*
X009485Y014950D01*
X009070Y014950D01*
X008777Y014657D01*
X008485Y014950D01*
X008070Y014950D01*
X007777Y014657D01*
X007485Y014950D01*
X007070Y014950D01*
X006777Y014657D01*
X006485Y014950D01*
X006070Y014950D01*
X005777Y014657D01*
X005777Y014258D01*
X005757Y014258D01*
X005757Y014430D01*
X005297Y014430D01*
X005297Y014470D01*
X005257Y014470D01*
X005257Y014430D01*
X004797Y014430D01*
X004797Y014251D01*
X005039Y014009D01*
X004992Y013962D01*
X004934Y013962D01*
X004796Y013904D01*
X004689Y013798D01*
X004632Y013659D01*
X004632Y013509D01*
X004689Y013370D01*
X004796Y013263D01*
X004934Y013206D01*
X005085Y013206D01*
X005224Y013263D01*
X005330Y013370D01*
X005388Y013509D01*
X005388Y013566D01*
X005519Y013698D01*
X006818Y013698D01*
X006777Y013657D01*
X006777Y013243D01*
X007070Y012950D01*
X007485Y012950D01*
X007777Y013243D01*
X007777Y013657D01*
X007737Y013698D01*
X007818Y013698D01*
X007777Y013657D01*
X007777Y013243D01*
X008070Y012950D01*
X008485Y012950D01*
X008777Y013243D01*
X008777Y013657D01*
X008737Y013698D01*
X008818Y013698D01*
X008777Y013657D01*
X008777Y013243D01*
X009070Y012950D01*
X009485Y012950D01*
X009777Y012657D01*
X009777Y012243D01*
X009490Y011955D01*
X010078Y011955D01*
X010123Y011974D01*
X010274Y011974D01*
X010322Y011954D01*
X010318Y011960D01*
X010288Y012019D01*
X010268Y012081D01*
X010257Y012146D01*
X010257Y012415D01*
X010673Y012415D01*
X010134Y012954D01*
X006427Y012954D01*
X006250Y013131D01*
X004655Y013131D01*
X004384Y013403D01*
X003628Y013403D01*
X003638Y013413D02*
X003618Y013413D01*
X003618Y013853D01*
X003441Y013853D01*
X003178Y013589D01*
X003178Y013413D01*
X003618Y013413D01*
X003618Y013393D01*
X003178Y013393D01*
X003178Y013216D01*
X003441Y012953D01*
X003618Y012953D01*
X003618Y013393D01*
X003638Y013393D01*
X003638Y013413D01*
X003638Y013853D01*
X003814Y013853D01*
X004078Y013589D01*
X004078Y013413D01*
X003638Y013413D01*
X003638Y013393D02*
X004078Y013393D01*
X004078Y013216D01*
X003814Y012953D01*
X003638Y012953D01*
X003638Y013393D01*
X003638Y013369D02*
X003618Y013369D01*
X003618Y013211D02*
X003638Y013211D01*
X003638Y013052D02*
X003618Y013052D01*
X003433Y012873D02*
X003158Y012597D01*
X003158Y012208D01*
X003433Y011933D01*
X003823Y011933D01*
X004098Y012208D01*
X004098Y012597D01*
X003823Y012873D01*
X003433Y012873D01*
X003296Y012735D02*
X002960Y012735D01*
X003098Y012577D02*
X003158Y012577D01*
X003158Y012418D02*
X003098Y012418D01*
X003098Y012260D02*
X003158Y012260D01*
X003265Y012101D02*
X002991Y012101D01*
X002832Y011943D02*
X003423Y011943D01*
X003345Y011784D02*
X002911Y011784D01*
X003070Y011626D02*
X003186Y011626D01*
X003158Y011467D02*
X003098Y011467D01*
X003098Y011309D02*
X003158Y011309D01*
X003132Y010907D02*
X006388Y010907D01*
X006722Y011241D01*
X006344Y011259D02*
X006344Y011315D01*
X006189Y011315D01*
X006072Y011364D01*
X006027Y011408D01*
X006000Y011342D01*
X005893Y011236D01*
X005775Y011187D01*
X006272Y011187D01*
X006344Y011259D01*
X006344Y011309D02*
X005966Y011309D01*
X005679Y011556D02*
X005525Y011403D01*
X003628Y011403D01*
X003911Y011784D02*
X005285Y011784D01*
X005099Y011943D02*
X003832Y011943D01*
X003991Y012101D02*
X005037Y012101D01*
X005037Y012260D02*
X004098Y012260D01*
X004098Y012418D02*
X005037Y012418D01*
X005037Y012577D02*
X004098Y012577D01*
X003960Y012735D02*
X005037Y012735D01*
X005102Y012894D02*
X002417Y012894D01*
X002942Y013052D02*
X003342Y013052D01*
X003184Y013211D02*
X003098Y013211D01*
X003098Y013369D02*
X003178Y013369D01*
X003178Y013528D02*
X003098Y013528D01*
X003009Y013686D02*
X003275Y013686D01*
X003433Y013845D02*
X002851Y013845D01*
X002893Y014003D02*
X003363Y014003D01*
X003433Y013933D02*
X003823Y013933D01*
X004098Y014208D01*
X004098Y014597D01*
X003823Y014873D01*
X003433Y014873D01*
X003158Y014597D01*
X003158Y014208D01*
X003433Y013933D01*
X003618Y013845D02*
X003638Y013845D01*
X003638Y013686D02*
X003618Y013686D01*
X003618Y013528D02*
X003638Y013528D01*
X003822Y013845D02*
X004736Y013845D01*
X004643Y013686D02*
X003981Y013686D01*
X004078Y013528D02*
X004632Y013528D01*
X004690Y013369D02*
X004078Y013369D01*
X004072Y013211D02*
X004923Y013211D01*
X005097Y013211D02*
X006810Y013211D01*
X006777Y013369D02*
X005330Y013369D01*
X005388Y013528D02*
X006777Y013528D01*
X006806Y013686D02*
X005508Y013686D01*
X005403Y013978D02*
X005010Y013584D01*
X005033Y014003D02*
X003893Y014003D01*
X004051Y014162D02*
X004887Y014162D01*
X004797Y014320D02*
X004098Y014320D01*
X004098Y014479D02*
X004797Y014479D01*
X004797Y014470D02*
X005257Y014470D01*
X005257Y014930D01*
X005079Y014930D01*
X004797Y014649D01*
X004797Y014470D01*
X004797Y014637D02*
X004058Y014637D01*
X003900Y014796D02*
X004944Y014796D01*
X005079Y014970D02*
X005257Y014970D01*
X005257Y015430D01*
X004797Y015430D01*
X004797Y015251D01*
X005079Y014970D01*
X004936Y015113D02*
X004002Y015113D01*
X004098Y015208D02*
X003823Y014933D01*
X003433Y014933D01*
X003158Y015208D01*
X003158Y015597D01*
X003433Y015873D01*
X003823Y015873D01*
X004098Y015597D01*
X004098Y015208D01*
X004098Y015271D02*
X004797Y015271D01*
X004797Y015430D02*
X004098Y015430D01*
X004098Y015588D02*
X004797Y015588D01*
X004797Y015649D02*
X004797Y015470D01*
X005257Y015470D01*
X005257Y015430D01*
X005297Y015430D01*
X005297Y014970D01*
X005476Y014970D01*
X005757Y015251D01*
X005757Y015430D01*
X005297Y015430D01*
X005297Y015470D01*
X005257Y015470D01*
X005257Y015930D01*
X005079Y015930D01*
X004797Y015649D01*
X004895Y015747D02*
X003949Y015747D01*
X003953Y016064D02*
X004985Y016064D01*
X005054Y015905D02*
X002417Y015905D01*
X002628Y016403D02*
X003136Y016911D01*
X004990Y016911D01*
X005049Y016970D01*
X007746Y016970D01*
X007785Y017009D01*
X007777Y017387D02*
X007777Y017634D01*
X007777Y017634D01*
X007777Y017387D01*
X007777Y017387D01*
X007777Y017490D02*
X007777Y017490D01*
X008163Y016950D02*
X008485Y016950D01*
X008163Y016950D01*
X008163Y016950D01*
X008549Y017015D02*
X009006Y017015D01*
X008976Y016856D02*
X008578Y016856D01*
X008737Y016698D02*
X008818Y016698D01*
X008777Y016539D02*
X008777Y016539D01*
X008777Y016381D02*
X008777Y016381D01*
X008757Y016222D02*
X008798Y016222D01*
X008957Y016064D02*
X008598Y016064D01*
X008529Y015905D02*
X009025Y015905D01*
X008867Y015747D02*
X008688Y015747D01*
X008777Y015588D02*
X008777Y015588D01*
X008777Y015430D02*
X008777Y015430D01*
X008777Y015271D02*
X008777Y015271D01*
X008647Y015113D02*
X008908Y015113D01*
X009066Y014954D02*
X008489Y014954D01*
X008639Y014796D02*
X008916Y014796D01*
X008777Y014657D02*
X008777Y014258D01*
X008777Y014258D01*
X008777Y014657D01*
X008777Y014637D02*
X008777Y014637D01*
X008777Y014479D02*
X008777Y014479D01*
X008777Y014320D02*
X008777Y014320D01*
X008748Y013686D02*
X008806Y013686D01*
X008777Y013528D02*
X008777Y013528D01*
X008777Y013369D02*
X008777Y013369D01*
X008745Y013211D02*
X008810Y013211D01*
X008968Y013052D02*
X008587Y013052D01*
X008541Y012894D02*
X009014Y012894D01*
X008855Y012735D02*
X008699Y012735D01*
X008777Y012657D02*
X008777Y012243D01*
X008490Y011955D01*
X009065Y011955D01*
X008777Y012243D01*
X008777Y012657D01*
X008777Y012577D02*
X008777Y012577D01*
X008777Y012418D02*
X008777Y012418D01*
X008777Y012260D02*
X008777Y012260D01*
X008636Y012101D02*
X008919Y012101D01*
X009636Y012101D02*
X010264Y012101D01*
X010257Y012260D02*
X009777Y012260D01*
X009777Y012418D02*
X010257Y012418D01*
X010257Y012577D02*
X009777Y012577D01*
X009699Y012735D02*
X010265Y012735D01*
X010335Y012894D02*
X009541Y012894D01*
X009587Y013052D02*
X010046Y013052D01*
X009944Y013211D02*
X009745Y013211D01*
X009777Y013369D02*
X009927Y013369D01*
X009978Y013528D02*
X009777Y013528D01*
X009748Y013686D02*
X010182Y013686D01*
X010401Y013698D02*
X011213Y013698D01*
X011095Y013648D01*
X011094Y013648D01*
X010520Y013648D01*
X010519Y013648D01*
X010401Y013698D01*
X010428Y013686D02*
X011186Y013686D01*
X011405Y013698D02*
X011896Y013698D01*
X011999Y013740D01*
X012872Y014613D01*
X012929Y014613D01*
X013068Y014671D01*
X013108Y014711D01*
X013172Y014647D01*
X013077Y014553D01*
X013077Y013993D01*
X013195Y013876D01*
X013911Y013876D01*
X014029Y013993D01*
X014029Y014282D01*
X014061Y014250D01*
X014139Y014250D01*
X014139Y013916D01*
X013831Y013608D01*
X011564Y013608D01*
X011523Y013648D01*
X011405Y013698D01*
X011432Y013686D02*
X013909Y013686D01*
X014067Y013845D02*
X012103Y013845D01*
X012262Y014003D02*
X013077Y014003D01*
X013077Y014162D02*
X012420Y014162D01*
X012579Y014320D02*
X013077Y014320D01*
X013077Y014479D02*
X012737Y014479D01*
X012987Y014637D02*
X013162Y014637D01*
X013228Y014991D02*
X012854Y014991D01*
X011840Y013978D01*
X005403Y013978D01*
X005757Y014320D02*
X005777Y014320D01*
X005757Y014470D02*
X005757Y014649D01*
X005476Y014930D01*
X005297Y014930D01*
X005297Y014470D01*
X005757Y014470D01*
X005757Y014479D02*
X005777Y014479D01*
X005777Y014637D02*
X005757Y014637D01*
X005611Y014796D02*
X005916Y014796D01*
X006066Y014954D02*
X003844Y014954D01*
X003412Y014954D02*
X002844Y014954D01*
X002900Y014796D02*
X003356Y014796D01*
X003198Y014637D02*
X003058Y014637D01*
X003098Y014479D02*
X003158Y014479D01*
X003158Y014320D02*
X003098Y014320D01*
X003051Y014162D02*
X003204Y014162D01*
X003253Y015113D02*
X003002Y015113D01*
X003098Y015271D02*
X003158Y015271D01*
X003158Y015430D02*
X003098Y015430D01*
X003098Y015588D02*
X003158Y015588D01*
X003307Y015747D02*
X002949Y015747D01*
X002953Y016064D02*
X003302Y016064D01*
X003158Y016222D02*
X003098Y016222D01*
X003098Y016381D02*
X003158Y016381D01*
X002702Y016873D02*
X002433Y016873D01*
X002417Y016857D01*
X002417Y016949D01*
X002433Y016933D01*
X002762Y016933D01*
X002702Y016873D01*
X003080Y017191D02*
X003098Y017208D01*
X003098Y017597D01*
X002823Y017873D01*
X002433Y017873D01*
X002417Y017857D01*
X002417Y017977D01*
X002441Y017953D01*
X002618Y017953D01*
X002618Y018393D01*
X002638Y018393D01*
X002638Y018413D01*
X003078Y018413D01*
X003078Y018589D01*
X002847Y018820D01*
X002906Y018820D01*
X003002Y018820D01*
X003027Y018844D01*
X003052Y018820D01*
X003380Y018820D01*
X003158Y018597D01*
X003158Y018208D01*
X003433Y017933D01*
X003645Y017933D01*
X003725Y017853D01*
X003638Y017853D01*
X003638Y017413D01*
X003618Y017413D01*
X003618Y017853D01*
X003441Y017853D01*
X003178Y017589D01*
X003178Y017413D01*
X003618Y017413D01*
X003618Y017393D01*
X003178Y017393D01*
X003178Y017216D01*
X003204Y017191D01*
X003080Y017191D01*
X003098Y017332D02*
X003178Y017332D01*
X003178Y017490D02*
X003098Y017490D01*
X003047Y017649D02*
X003237Y017649D01*
X003396Y017807D02*
X002888Y017807D01*
X002814Y017953D02*
X003078Y018216D01*
X003078Y018393D01*
X002638Y018393D01*
X002638Y017953D01*
X002814Y017953D01*
X002827Y017966D02*
X003400Y017966D01*
X003242Y018124D02*
X002986Y018124D01*
X003078Y018283D02*
X003158Y018283D01*
X003158Y018441D02*
X003078Y018441D01*
X003067Y018600D02*
X003160Y018600D01*
X003319Y018758D02*
X002909Y018758D01*
X002558Y018853D02*
X002441Y018853D01*
X002417Y018828D01*
X002417Y019587D01*
X002434Y019570D01*
X002456Y019570D01*
X002456Y018954D01*
X002558Y018853D01*
X002494Y018917D02*
X002417Y018917D01*
X002417Y019075D02*
X002456Y019075D01*
X002456Y019234D02*
X002417Y019234D01*
X002417Y019392D02*
X002456Y019392D01*
X002456Y019551D02*
X002417Y019551D01*
X002628Y018403D02*
X003628Y017403D01*
X005230Y017403D01*
X005277Y017450D01*
X005257Y017470D02*
X005257Y017430D01*
X004797Y017430D01*
X004797Y017251D01*
X004858Y017191D01*
X004052Y017191D01*
X004078Y017216D01*
X004078Y017393D01*
X003638Y017393D01*
X003638Y017413D01*
X004078Y017413D01*
X004078Y017589D01*
X004033Y017634D01*
X004797Y017634D01*
X004797Y017470D01*
X005257Y017470D01*
X005297Y017470D02*
X005757Y017470D01*
X005757Y017634D01*
X005777Y017634D01*
X005777Y017250D01*
X005756Y017250D01*
X005757Y017251D01*
X005757Y017430D01*
X005297Y017430D01*
X005297Y017470D01*
X005757Y017490D02*
X005777Y017490D01*
X005777Y017332D02*
X005757Y017332D01*
X005757Y016539D02*
X005777Y016539D01*
X005777Y016381D02*
X005757Y016381D01*
X005728Y016222D02*
X005798Y016222D01*
X005957Y016064D02*
X005570Y016064D01*
X005476Y015930D02*
X005297Y015930D01*
X005297Y015470D01*
X005757Y015470D01*
X005757Y015649D01*
X005476Y015930D01*
X005501Y015905D02*
X006025Y015905D01*
X005867Y015747D02*
X005660Y015747D01*
X005757Y015588D02*
X005777Y015588D01*
X005777Y015430D02*
X005757Y015430D01*
X005757Y015271D02*
X005777Y015271D01*
X005908Y015113D02*
X005619Y015113D01*
X005297Y015113D02*
X005257Y015113D01*
X005257Y015271D02*
X005297Y015271D01*
X005297Y015430D02*
X005257Y015430D01*
X005257Y015588D02*
X005297Y015588D01*
X005297Y015747D02*
X005257Y015747D01*
X005257Y015905D02*
X005297Y015905D01*
X005297Y016064D02*
X005257Y016064D01*
X005257Y016222D02*
X005297Y016222D01*
X005297Y016381D02*
X005257Y016381D01*
X004826Y016222D02*
X004098Y016222D01*
X004098Y016381D02*
X004797Y016381D01*
X004797Y016539D02*
X004098Y016539D01*
X004078Y017332D02*
X004797Y017332D01*
X004797Y017490D02*
X004078Y017490D01*
X003638Y017490D02*
X003618Y017490D01*
X003618Y017649D02*
X003638Y017649D01*
X003638Y017807D02*
X003618Y017807D01*
X004098Y018385D02*
X004098Y018597D01*
X003823Y018873D01*
X003602Y018873D01*
X003684Y018954D01*
X003684Y018966D01*
X003769Y018966D01*
X003769Y018966D01*
X003771Y018968D01*
X003843Y019040D01*
X003872Y019069D01*
X003977Y019174D01*
X003977Y019174D01*
X003977Y019174D01*
X003977Y019321D01*
X003977Y019342D01*
X003977Y019365D01*
X003977Y019512D01*
X003920Y019570D01*
X003999Y019570D01*
X004024Y019594D01*
X004049Y019570D01*
X004240Y019570D01*
X004285Y019615D01*
X004299Y019593D01*
X004325Y019588D01*
X004343Y019570D01*
X004415Y019570D01*
X004486Y019555D01*
X004508Y019570D01*
X004533Y019570D01*
X004584Y019621D01*
X004645Y019661D01*
X004650Y019686D01*
X004668Y019704D01*
X004668Y019777D01*
X004682Y019848D01*
X004668Y019869D01*
X004668Y020173D01*
X005093Y020173D01*
X005037Y020038D01*
X005037Y019392D01*
X003977Y019392D01*
X003977Y019365D02*
X003977Y019365D01*
X003977Y019321D02*
X003977Y019321D01*
X003977Y019234D02*
X005103Y019234D01*
X005104Y019231D02*
X005226Y019109D01*
X005387Y019042D01*
X005560Y019042D01*
X005694Y019098D01*
X006072Y018721D01*
X006174Y018678D01*
X006855Y018678D01*
X006833Y018634D01*
X006809Y018562D01*
X006797Y018488D01*
X006797Y018470D01*
X007257Y018470D01*
X007257Y018430D01*
X006797Y018430D01*
X006797Y018412D01*
X006809Y018338D01*
X006830Y018274D01*
X004209Y018274D01*
X004098Y018385D01*
X004098Y018441D02*
X007257Y018441D01*
X007277Y018450D02*
X005439Y018450D01*
X005246Y018643D01*
X005307Y019075D02*
X003878Y019075D01*
X003843Y019040D02*
X003843Y019040D01*
X003646Y018917D02*
X005875Y018917D01*
X005717Y019075D02*
X005640Y019075D01*
X006034Y018758D02*
X003937Y018758D01*
X004096Y018600D02*
X006821Y018600D01*
X006827Y018283D02*
X004200Y018283D01*
X005104Y019231D02*
X005037Y019392D01*
X005037Y019551D02*
X003938Y019551D01*
X003977Y019512D02*
X003977Y019512D01*
X003977Y019512D01*
X004668Y019709D02*
X005037Y019709D01*
X005037Y019868D02*
X004669Y019868D01*
X004668Y020026D02*
X005037Y020026D01*
X005473Y019715D02*
X006230Y018958D01*
X009636Y018958D01*
X010207Y018387D01*
X014321Y018387D01*
X014577Y018643D01*
X014577Y019233D01*
X013976Y018667D02*
X013180Y018667D01*
X013413Y018900D01*
X013413Y019183D01*
X012658Y019183D01*
X012658Y019283D01*
X013413Y019283D01*
X013413Y019567D01*
X012942Y020038D01*
X012658Y020038D01*
X012658Y019283D01*
X012558Y019283D01*
X012558Y019183D01*
X011803Y019183D01*
X011803Y018900D01*
X012036Y018667D01*
X010323Y018667D01*
X009873Y019116D01*
X009794Y019195D01*
X009749Y019214D01*
X009777Y019243D01*
X009777Y019657D01*
X009485Y019950D01*
X009070Y019950D01*
X008777Y019657D01*
X008485Y019950D01*
X008070Y019950D01*
X007777Y019657D01*
X007777Y019243D01*
X007782Y019238D01*
X007744Y019238D01*
X007757Y019251D01*
X007757Y019430D01*
X007297Y019430D01*
X007297Y019470D01*
X007257Y019470D01*
X007257Y019430D01*
X006797Y019430D01*
X006797Y019251D01*
X006811Y019238D01*
X006346Y019238D01*
X005910Y019674D01*
X005910Y020038D01*
X005854Y020173D01*
X010320Y020173D01*
X010318Y020169D01*
X010288Y020111D01*
X010268Y020048D01*
X010257Y019984D01*
X010257Y019715D01*
X010673Y019715D01*
X010673Y019715D01*
X010257Y019715D01*
X010257Y019446D01*
X010268Y019381D01*
X010288Y019319D01*
X010318Y019260D01*
X010356Y019207D01*
X010402Y019161D01*
X010455Y019122D01*
X010514Y019093D01*
X010576Y019072D01*
X010641Y019062D01*
X010673Y019062D01*
X010673Y019715D01*
X010159Y019715D01*
X009833Y020041D01*
X007868Y020041D01*
X007277Y019450D01*
X007257Y019470D02*
X006797Y019470D01*
X006797Y019649D01*
X007079Y019930D01*
X007257Y019930D01*
X007257Y019470D01*
X007297Y019470D02*
X007297Y019930D01*
X007476Y019930D01*
X007757Y019649D01*
X007757Y019470D01*
X007297Y019470D01*
X007297Y019551D02*
X007257Y019551D01*
X007257Y019709D02*
X007297Y019709D01*
X007297Y019868D02*
X007257Y019868D01*
X007016Y019868D02*
X005910Y019868D01*
X005910Y020026D02*
X010264Y020026D01*
X010257Y019868D02*
X009567Y019868D01*
X009725Y019709D02*
X010257Y019709D01*
X010257Y019551D02*
X009777Y019551D01*
X009777Y019392D02*
X010266Y019392D01*
X010337Y019234D02*
X009768Y019234D01*
X009914Y019075D02*
X010567Y019075D01*
X010673Y019075D02*
X010673Y019075D01*
X010673Y019062D02*
X010706Y019062D01*
X010771Y019072D01*
X010833Y019093D01*
X010892Y019122D01*
X010945Y019161D01*
X010991Y019207D01*
X011029Y019260D01*
X011059Y019319D01*
X011079Y019381D01*
X011090Y019446D01*
X011090Y019715D01*
X011090Y019984D01*
X011079Y020048D01*
X011059Y020111D01*
X011029Y020169D01*
X011027Y020173D01*
X016457Y020173D01*
X016457Y020145D01*
X016465Y020137D01*
X016465Y020133D01*
X016477Y020121D01*
X016477Y020117D01*
X016481Y020113D01*
X016489Y020105D01*
X016489Y020101D01*
X016501Y020090D01*
X016501Y020086D01*
X016512Y020074D01*
X016512Y020070D01*
X016520Y020062D01*
X016520Y020058D01*
X016532Y020046D01*
X016532Y020042D01*
X016544Y020031D01*
X016544Y020027D01*
X016556Y020015D01*
X016556Y020011D01*
X016560Y020007D01*
X016568Y019999D01*
X016568Y019995D01*
X016579Y019983D01*
X016579Y019979D01*
X016587Y019971D01*
X016587Y019968D01*
X016599Y019956D01*
X016599Y019952D01*
X016611Y019940D01*
X016611Y019936D01*
X016623Y019924D01*
X016623Y019920D01*
X016635Y019908D01*
X016635Y019905D01*
X016642Y019897D01*
X016642Y019893D01*
X016654Y019881D01*
X016654Y019877D01*
X016662Y019869D01*
X016666Y019865D01*
X016666Y019861D01*
X016678Y019849D01*
X016678Y019846D01*
X016690Y019834D01*
X016690Y019830D01*
X016698Y019822D01*
X016698Y019818D01*
X016709Y019806D01*
X016709Y019802D01*
X016721Y019790D01*
X016721Y019786D01*
X016722Y019786D01*
X016661Y019786D01*
X016657Y019782D01*
X016645Y019782D01*
X016641Y019778D01*
X016634Y019778D01*
X016630Y019774D01*
X016626Y019774D01*
X016622Y019770D01*
X016618Y019770D01*
X016610Y019762D01*
X016606Y019762D01*
X016489Y019645D01*
X016485Y019641D01*
X016481Y019637D01*
X016477Y019633D01*
X016473Y019629D01*
X016469Y019625D01*
X016465Y019621D01*
X016465Y019617D01*
X016461Y019614D01*
X016457Y019610D01*
X016457Y019606D01*
X016453Y019602D01*
X016453Y019598D01*
X016449Y019594D01*
X016449Y019590D01*
X016359Y019499D01*
X016355Y019495D01*
X016355Y019492D01*
X016351Y019488D01*
X016351Y019484D01*
X016347Y019480D01*
X016347Y019255D01*
X016351Y019251D01*
X016351Y019247D01*
X016430Y019168D01*
X016430Y019164D01*
X016434Y019160D01*
X016434Y019149D01*
X016438Y019145D01*
X016438Y019137D01*
X016442Y019133D01*
X016442Y019125D01*
X016446Y019121D01*
X016446Y019113D01*
X016449Y019109D01*
X016449Y019101D01*
X016453Y019097D01*
X016453Y019094D01*
X016457Y019090D01*
X016457Y019082D01*
X016461Y019078D01*
X016461Y019074D01*
X016465Y019070D01*
X016465Y019066D01*
X016469Y019062D01*
X016469Y019058D01*
X016473Y019054D01*
X016473Y019050D01*
X016477Y019046D01*
X016477Y019042D01*
X016485Y019034D01*
X016485Y019031D01*
X016493Y019023D01*
X016493Y019019D01*
X016512Y018999D01*
X016512Y018995D01*
X016630Y018878D01*
X016634Y018874D01*
X016637Y018874D01*
X016641Y018870D01*
X016645Y018866D01*
X016645Y018866D01*
X016649Y018862D01*
X016649Y018862D01*
X016653Y018858D01*
X016657Y018858D01*
X016661Y018854D01*
X016663Y018853D01*
X016638Y018853D01*
X016638Y018413D01*
X016618Y018413D01*
X016618Y018853D01*
X016441Y018853D01*
X016178Y018589D01*
X016178Y018413D01*
X016618Y018413D01*
X016618Y018393D01*
X016178Y018393D01*
X016178Y018216D01*
X016219Y018175D01*
X014505Y018175D01*
X014558Y018228D01*
X014738Y018408D01*
X014918Y018408D01*
X015402Y018892D01*
X015402Y019575D01*
X014918Y020058D01*
X014235Y020058D01*
X013752Y019575D01*
X013752Y018892D01*
X013976Y018667D01*
X013885Y018758D02*
X013271Y018758D01*
X013413Y018917D02*
X013752Y018917D01*
X013752Y019075D02*
X013413Y019075D01*
X013413Y019392D02*
X013752Y019392D01*
X013752Y019234D02*
X012658Y019234D01*
X012608Y019233D02*
X013435Y020060D01*
X015581Y020060D01*
X015915Y019726D01*
X015915Y019194D01*
X016628Y018481D01*
X016628Y018403D01*
X016638Y018393D02*
X016638Y018413D01*
X017078Y018413D01*
X017078Y018589D01*
X016844Y018823D01*
X017331Y018823D01*
X017335Y018827D01*
X017350Y018827D01*
X017354Y018831D01*
X017366Y018831D01*
X017370Y018835D01*
X017378Y018835D01*
X017382Y018839D01*
X017386Y018839D01*
X017390Y018843D01*
X017394Y018843D01*
X017398Y018846D01*
X017402Y018846D01*
X017406Y018850D01*
X017409Y018854D01*
X017413Y018854D01*
X017421Y018862D01*
X017423Y018862D01*
X017158Y018597D01*
X017158Y018329D01*
X017078Y018249D01*
X017078Y018393D01*
X016638Y018393D01*
X016638Y018441D02*
X016618Y018441D01*
X016618Y018600D02*
X016638Y018600D01*
X016638Y018758D02*
X016618Y018758D01*
X016591Y018917D02*
X015402Y018917D01*
X015402Y019075D02*
X016461Y019075D01*
X016364Y019234D02*
X015402Y019234D01*
X015402Y019392D02*
X016347Y019392D01*
X016410Y019551D02*
X015402Y019551D01*
X015268Y019709D02*
X016553Y019709D01*
X016664Y019868D02*
X015109Y019868D01*
X014951Y020026D02*
X016544Y020026D01*
X016560Y020007D02*
X016560Y020007D01*
X016481Y020113D02*
X016481Y020113D01*
X016662Y019869D02*
X016662Y019869D01*
X017358Y019794D02*
X017365Y019802D01*
X017365Y019806D01*
X017377Y019818D01*
X017377Y019822D01*
X017389Y019834D01*
X017389Y019838D01*
X017401Y019849D01*
X017401Y019853D01*
X017412Y019865D01*
X017412Y019869D01*
X017424Y019881D01*
X017424Y019885D01*
X017436Y019897D01*
X017436Y019901D01*
X017448Y019912D01*
X017448Y019916D01*
X017460Y019928D01*
X017460Y019932D01*
X017472Y019944D01*
X017472Y019948D01*
X017483Y019960D01*
X017483Y019964D01*
X017491Y019971D01*
X017491Y019975D01*
X017503Y019987D01*
X017503Y019991D01*
X017515Y020003D01*
X017515Y020007D01*
X017527Y020019D01*
X017527Y020023D01*
X017538Y020034D01*
X017538Y020038D01*
X017550Y020050D01*
X017550Y020054D01*
X017562Y020066D01*
X017562Y020070D01*
X017574Y020082D01*
X017574Y020086D01*
X017586Y020097D01*
X017586Y020101D01*
X017594Y020109D01*
X017594Y020109D01*
X017598Y020113D01*
X017598Y020117D01*
X017609Y020129D01*
X017609Y020133D01*
X017617Y020141D01*
X017617Y020173D01*
X017839Y020173D01*
X017839Y018857D01*
X017823Y018873D01*
X017436Y018873D01*
X017437Y018874D01*
X017441Y018878D01*
X017445Y018882D01*
X017449Y018886D01*
X017453Y018890D01*
X017457Y018894D01*
X017574Y019011D01*
X017574Y019015D01*
X017582Y019023D01*
X017582Y019027D01*
X017590Y019034D01*
X017590Y019038D01*
X017598Y019046D01*
X017598Y019050D01*
X017601Y019054D01*
X017601Y019058D01*
X017605Y019062D01*
X017605Y019066D01*
X017609Y019070D01*
X017609Y019074D01*
X017613Y019078D01*
X017613Y019086D01*
X017617Y019090D01*
X017617Y019094D01*
X017621Y019097D01*
X017621Y019105D01*
X017625Y019109D01*
X017625Y019113D01*
X017629Y019117D01*
X017629Y019125D01*
X017633Y019129D01*
X017633Y019141D01*
X017637Y019145D01*
X017637Y019153D01*
X017641Y019157D01*
X017641Y019160D01*
X017727Y019247D01*
X017727Y019255D01*
X017731Y019259D01*
X017731Y019476D01*
X017727Y019480D01*
X017727Y019488D01*
X017723Y019492D01*
X017720Y019495D01*
X017716Y019499D01*
X017712Y019503D01*
X017621Y019594D01*
X017621Y019598D01*
X017617Y019602D01*
X017613Y019606D01*
X017609Y019610D01*
X017605Y019614D01*
X017601Y019617D01*
X017598Y019621D01*
X017480Y019739D01*
X017476Y019739D01*
X017472Y019743D01*
X017469Y019743D01*
X017465Y019746D01*
X017457Y019746D01*
X017453Y019750D01*
X017402Y019750D01*
X017358Y019794D01*
X017412Y019868D02*
X017839Y019868D01*
X017839Y020026D02*
X017530Y020026D01*
X017510Y019709D02*
X017839Y019709D01*
X017839Y019551D02*
X017664Y019551D01*
X017731Y019392D02*
X017839Y019392D01*
X017839Y019234D02*
X017714Y019234D01*
X017611Y019075D02*
X017839Y019075D01*
X017839Y018917D02*
X017480Y018917D01*
X017319Y018758D02*
X016909Y018758D01*
X017067Y018600D02*
X017160Y018600D01*
X017158Y018441D02*
X017078Y018441D01*
X017078Y018283D02*
X017112Y018283D01*
X017120Y017895D02*
X014380Y017895D01*
X014262Y017777D01*
X014262Y016678D01*
X014258Y016753D01*
X013788Y016698D02*
X013728Y016698D01*
X013728Y016856D02*
X013788Y016856D01*
X013788Y017015D02*
X013728Y017015D01*
X013728Y017117D02*
X013656Y017289D01*
X013524Y017422D01*
X013351Y017493D01*
X013164Y017493D01*
X012992Y017422D01*
X012859Y017289D01*
X012788Y017117D01*
X012788Y016390D01*
X012859Y016217D01*
X012889Y016187D01*
X012627Y016187D01*
X012656Y016217D01*
X012728Y016390D01*
X012728Y017117D01*
X012656Y017289D01*
X012578Y017368D01*
X012578Y017640D01*
X012529Y017757D01*
X012179Y018107D01*
X014196Y018107D01*
X014103Y018014D01*
X014024Y017935D01*
X013982Y017832D01*
X013982Y017412D01*
X013859Y017289D01*
X013788Y017117D01*
X013788Y016390D01*
X013859Y016217D01*
X013992Y016085D01*
X014164Y016013D01*
X014351Y016013D01*
X014524Y016085D01*
X014656Y016217D01*
X014714Y016357D01*
X014781Y016290D01*
X014965Y016214D01*
X014781Y016138D01*
X014640Y015997D01*
X014564Y015813D01*
X014564Y015614D01*
X014640Y015431D01*
X014781Y015290D01*
X014965Y015214D01*
X014781Y015138D01*
X014687Y015044D01*
X014061Y015044D01*
X014029Y015012D01*
X014029Y015301D01*
X013911Y015418D01*
X013195Y015418D01*
X013079Y015302D01*
X013068Y015312D01*
X012929Y015369D01*
X012779Y015369D01*
X012640Y015312D01*
X012534Y015206D01*
X012476Y015067D01*
X012476Y015009D01*
X011777Y014311D01*
X011777Y014657D01*
X011597Y014837D01*
X011597Y015063D01*
X011777Y015243D01*
X011777Y015497D01*
X011827Y015547D01*
X013144Y015547D01*
X013262Y015596D01*
X013439Y015773D01*
X013529Y015863D01*
X013578Y015981D01*
X013578Y016138D01*
X013656Y016217D01*
X013728Y016390D01*
X013728Y017117D01*
X013704Y017173D02*
X013811Y017173D01*
X013902Y017332D02*
X013614Y017332D01*
X013358Y017490D02*
X013982Y017490D01*
X013982Y017649D02*
X012574Y017649D01*
X012578Y017490D02*
X013157Y017490D01*
X012902Y017332D02*
X012614Y017332D01*
X012704Y017173D02*
X012811Y017173D01*
X012788Y017015D02*
X012728Y017015D01*
X012728Y016856D02*
X012788Y016856D01*
X012788Y016698D02*
X012728Y016698D01*
X012728Y016539D02*
X012788Y016539D01*
X012791Y016381D02*
X012724Y016381D01*
X012658Y016222D02*
X012857Y016222D01*
X013412Y015747D02*
X014564Y015747D01*
X014575Y015588D02*
X013243Y015588D01*
X013546Y015905D02*
X014602Y015905D01*
X014707Y016064D02*
X014473Y016064D01*
X014658Y016222D02*
X014944Y016222D01*
X014965Y016214D02*
X015763Y016214D01*
X015832Y016242D01*
X015832Y016220D01*
X015808Y016195D01*
X015763Y016214D01*
X014965Y016214D01*
X015364Y015714D02*
X015722Y015714D01*
X016112Y016104D01*
X016112Y016887D01*
X016628Y017403D01*
X017098Y017332D02*
X017158Y017332D01*
X017158Y017208D02*
X017433Y016933D01*
X017823Y016933D01*
X017839Y016949D01*
X017839Y016857D01*
X017823Y016873D01*
X017433Y016873D01*
X017158Y016597D01*
X017158Y016269D01*
X017098Y016329D01*
X017098Y016597D01*
X016823Y016873D01*
X016494Y016873D01*
X016554Y016933D01*
X016823Y016933D01*
X017098Y017208D01*
X017098Y017597D01*
X017080Y017615D01*
X017175Y017615D01*
X017158Y017597D01*
X017158Y017208D01*
X017193Y017173D02*
X017063Y017173D01*
X016904Y017015D02*
X017351Y017015D01*
X017417Y016856D02*
X016839Y016856D01*
X016998Y016698D02*
X017258Y016698D01*
X017158Y016539D02*
X017098Y016539D01*
X017098Y016381D02*
X017158Y016381D01*
X017458Y015933D02*
X017823Y015933D01*
X017839Y015949D01*
X017839Y015857D01*
X017823Y015873D01*
X017475Y015873D01*
X017475Y015892D01*
X017458Y015933D01*
X017469Y015905D02*
X017839Y015905D01*
X017195Y015836D02*
X016628Y016403D01*
X016702Y015933D02*
X016433Y015933D01*
X016370Y015996D01*
X016349Y015945D01*
X016271Y015866D01*
X016164Y015760D01*
X016164Y015614D01*
X016088Y015431D01*
X015947Y015290D01*
X015763Y015214D01*
X014965Y015214D01*
X015763Y015214D01*
X015947Y015138D01*
X015998Y015087D01*
X016052Y015140D01*
X016155Y015183D01*
X016183Y015183D01*
X016158Y015208D01*
X016158Y015597D01*
X016433Y015873D01*
X016762Y015873D01*
X016702Y015933D01*
X016729Y015905D02*
X016310Y015905D01*
X016307Y015747D02*
X016164Y015747D01*
X016153Y015588D02*
X016158Y015588D01*
X016158Y015430D02*
X016087Y015430D01*
X016158Y015271D02*
X015902Y015271D01*
X015972Y015113D02*
X016024Y015113D01*
X016210Y014903D02*
X016978Y014903D01*
X017195Y015119D01*
X017195Y015836D01*
X017419Y014947D02*
X017433Y014933D01*
X017823Y014933D01*
X017839Y014949D01*
X017839Y014857D01*
X017823Y014873D01*
X017433Y014873D01*
X017158Y014597D01*
X017158Y014208D01*
X017433Y013933D01*
X017823Y013933D01*
X017839Y013949D01*
X017839Y013857D01*
X017823Y013873D01*
X017433Y013873D01*
X017158Y013597D01*
X017158Y013208D01*
X017433Y012933D01*
X017823Y012933D01*
X017839Y012949D01*
X017839Y012857D01*
X017823Y012873D01*
X017433Y012873D01*
X017158Y012597D01*
X017158Y012329D01*
X017098Y012269D01*
X017098Y012597D01*
X016823Y012873D01*
X016766Y012873D01*
X016706Y012933D01*
X016823Y012933D01*
X017098Y013208D01*
X017098Y013597D01*
X016823Y013873D01*
X016433Y013873D01*
X016158Y013597D01*
X016158Y013461D01*
X016109Y013482D01*
X016164Y013614D01*
X016164Y013813D01*
X016088Y013997D01*
X015947Y014138D01*
X015763Y014214D01*
X015947Y014290D01*
X016088Y014431D01*
X016092Y014440D01*
X016158Y014467D01*
X016158Y014208D01*
X016433Y013933D01*
X016823Y013933D01*
X017098Y014208D01*
X017098Y014597D01*
X017061Y014634D01*
X017137Y014665D01*
X017353Y014882D01*
X017419Y014947D01*
X017356Y014796D02*
X017267Y014796D01*
X017198Y014637D02*
X017069Y014637D01*
X017098Y014479D02*
X017158Y014479D01*
X017158Y014320D02*
X017098Y014320D01*
X017051Y014162D02*
X017204Y014162D01*
X017363Y014003D02*
X016893Y014003D01*
X016851Y013845D02*
X017405Y013845D01*
X017247Y013686D02*
X017009Y013686D01*
X017098Y013528D02*
X017158Y013528D01*
X017158Y013369D02*
X017098Y013369D01*
X017098Y013211D02*
X017158Y013211D01*
X017314Y013052D02*
X016942Y013052D01*
X016745Y012894D02*
X017839Y012894D01*
X017628Y012403D02*
X017136Y011911D01*
X016388Y011911D01*
X016033Y012265D01*
X013415Y012265D01*
X013277Y012127D01*
X013277Y010450D01*
X012953Y010833D02*
X012601Y010833D01*
X012485Y010950D02*
X012070Y010950D01*
X011777Y010657D01*
X011777Y010243D01*
X012070Y009950D01*
X011777Y009657D01*
X011777Y009243D01*
X012070Y008950D01*
X011777Y008657D01*
X011777Y008243D01*
X012070Y007950D01*
X012485Y007950D01*
X012777Y008243D01*
X012777Y008657D01*
X012485Y008950D01*
X012070Y008950D01*
X012485Y008950D01*
X012777Y009243D01*
X012777Y009564D01*
X012777Y009564D01*
X012777Y009243D01*
X013070Y008950D01*
X012777Y008657D01*
X012777Y008243D01*
X013070Y007950D01*
X012777Y007657D01*
X012485Y007950D01*
X012070Y007950D01*
X011777Y007657D01*
X011777Y007348D01*
X011757Y007348D01*
X011757Y007430D01*
X011297Y007430D01*
X011297Y006970D01*
X011384Y006970D01*
X011384Y006930D01*
X011297Y006930D01*
X011297Y006470D01*
X011257Y006470D01*
X011257Y006430D01*
X010797Y006430D01*
X010797Y006251D01*
X011079Y005970D01*
X011257Y005970D01*
X011257Y006430D01*
X011297Y006430D01*
X011297Y005970D01*
X011476Y005970D01*
X011568Y006062D01*
X011747Y005883D01*
X011817Y005813D01*
X011899Y005779D01*
X011777Y005657D01*
X011777Y005243D01*
X012070Y004950D01*
X011777Y004657D01*
X011777Y004243D01*
X012070Y003950D01*
X011777Y003657D01*
X011777Y003243D01*
X012070Y002950D01*
X011777Y002657D01*
X011777Y002243D01*
X012070Y001950D01*
X012485Y001950D01*
X012777Y002243D01*
X012777Y002657D01*
X012485Y002950D01*
X012070Y002950D01*
X012485Y002950D01*
X012777Y003243D01*
X012777Y003596D01*
X012777Y003596D01*
X012777Y003243D01*
X013070Y002950D01*
X012777Y002657D01*
X012777Y002243D01*
X013070Y001950D01*
X012777Y001657D01*
X012485Y001950D01*
X012070Y001950D01*
X011777Y001657D01*
X011777Y001243D01*
X011813Y001208D01*
X011714Y001208D01*
X011757Y001251D01*
X011757Y001430D01*
X011297Y001430D01*
X011297Y001470D01*
X011257Y001470D01*
X011257Y001430D01*
X010797Y001430D01*
X010797Y001251D01*
X010841Y001208D01*
X009883Y001208D01*
X010362Y001687D01*
X010362Y002370D01*
X009879Y002854D01*
X009196Y002854D01*
X008712Y002370D01*
X008712Y001687D01*
X009192Y001208D01*
X007914Y001208D01*
X008394Y001687D01*
X008394Y002370D01*
X007910Y002854D01*
X007227Y002854D01*
X006744Y002370D01*
X006744Y001687D01*
X007223Y001208D01*
X005946Y001208D01*
X006425Y001687D01*
X006425Y002370D01*
X005942Y002854D01*
X005259Y002854D01*
X004775Y002370D01*
X004775Y001687D01*
X005255Y001208D01*
X004097Y001208D01*
X004098Y001208D01*
X004098Y001597D01*
X003823Y001873D01*
X003433Y001873D01*
X003158Y001597D01*
X003158Y001208D01*
X003158Y001208D01*
X003056Y001208D01*
X003098Y001309D01*
X003098Y001496D01*
X003026Y001669D01*
X002894Y001801D01*
X002721Y001873D01*
X002534Y001873D01*
X002417Y001824D01*
X002847Y001957D02*
X003409Y001957D01*
X003433Y001933D02*
X003823Y001933D01*
X004098Y002208D01*
X004098Y002597D01*
X003823Y002873D01*
X003433Y002873D01*
X003158Y002597D01*
X003158Y002208D01*
X003433Y001933D01*
X003359Y001799D02*
X002897Y001799D01*
X003038Y001640D02*
X003201Y001640D01*
X003158Y001482D02*
X003098Y001482D01*
X003098Y001323D02*
X003158Y001323D01*
X003847Y001957D02*
X004775Y001957D01*
X004775Y001799D02*
X003897Y001799D01*
X004055Y001640D02*
X004822Y001640D01*
X004981Y001482D02*
X004098Y001482D01*
X004098Y001323D02*
X005139Y001323D01*
X004775Y002116D02*
X004005Y002116D01*
X004098Y002274D02*
X004775Y002274D01*
X004837Y002433D02*
X004098Y002433D01*
X004098Y002591D02*
X004996Y002591D01*
X005154Y002750D02*
X003946Y002750D01*
X003956Y003067D02*
X010982Y003067D01*
X011079Y002970D02*
X010797Y003251D01*
X010797Y003430D01*
X011257Y003430D01*
X011257Y003470D01*
X010797Y003470D01*
X010797Y003649D01*
X011079Y003930D01*
X011257Y003930D01*
X011257Y003470D01*
X011297Y003470D01*
X011297Y003930D01*
X011476Y003930D01*
X011757Y003649D01*
X011757Y003470D01*
X011297Y003470D01*
X011297Y003430D01*
X011297Y002970D01*
X011476Y002970D01*
X011757Y003251D01*
X011757Y003430D01*
X011297Y003430D01*
X011257Y003430D01*
X011257Y002970D01*
X011079Y002970D01*
X011079Y002930D02*
X010797Y002649D01*
X010797Y002470D01*
X011257Y002470D01*
X011257Y002430D01*
X010797Y002430D01*
X010797Y002251D01*
X011079Y001970D01*
X011257Y001970D01*
X011257Y002430D01*
X011297Y002430D01*
X011297Y001970D01*
X011476Y001970D01*
X011757Y002251D01*
X011757Y002430D01*
X011297Y002430D01*
X011297Y002470D01*
X011257Y002470D01*
X011257Y002930D01*
X011079Y002930D01*
X011057Y002908D02*
X002417Y002908D01*
X002628Y003403D02*
X003144Y003919D01*
X005746Y003919D01*
X006277Y004450D01*
X005820Y004652D02*
X004044Y004652D01*
X004098Y004493D02*
X005777Y004493D01*
X005766Y004335D02*
X004098Y004335D01*
X003885Y004810D02*
X005930Y004810D01*
X006052Y004969D02*
X005770Y004969D01*
X005179Y004969D02*
X003858Y004969D01*
X003823Y004933D02*
X004098Y005208D01*
X004098Y005597D01*
X003823Y005873D01*
X003433Y005873D01*
X003158Y005597D01*
X003158Y005208D01*
X003433Y004933D01*
X003823Y004933D01*
X004017Y005127D02*
X005055Y005127D01*
X005009Y005286D02*
X004098Y005286D01*
X004098Y005444D02*
X005017Y005444D01*
X005086Y005603D02*
X004650Y005603D01*
X004419Y005907D02*
X005974Y005907D01*
X005984Y005908D01*
X005994Y005912D01*
X006002Y005918D01*
X006008Y005927D01*
X006012Y005936D01*
X006013Y005946D01*
X006014Y005946D02*
X006270Y006202D01*
X006270Y006442D01*
X006277Y006450D01*
X006277Y007450D01*
X005991Y007029D02*
X005564Y007029D01*
X005485Y006950D02*
X005070Y006950D01*
X005485Y006950D01*
X005777Y006657D01*
X005777Y006243D01*
X005721Y006187D01*
X005834Y006187D01*
X005777Y006243D01*
X005777Y006657D01*
X005997Y006877D01*
X005997Y007023D01*
X005777Y007243D01*
X005777Y007657D01*
X005761Y007674D01*
X005794Y007674D01*
X005777Y007657D01*
X005777Y007243D01*
X005485Y006950D01*
X005564Y006871D02*
X005991Y006871D01*
X005832Y006712D02*
X005722Y006712D01*
X005777Y006554D02*
X005777Y006554D01*
X005777Y006395D02*
X005777Y006395D01*
X005771Y006237D02*
X005784Y006237D01*
X006414Y005950D02*
X006485Y005950D01*
X006414Y005950D01*
X006414Y005950D01*
X006515Y005920D02*
X007040Y005920D01*
X006942Y006078D02*
X006613Y006078D01*
X006771Y006237D02*
X006784Y006237D01*
X006777Y006395D02*
X006777Y006395D01*
X006777Y006554D02*
X006777Y006554D01*
X006722Y006712D02*
X006832Y006712D01*
X006991Y006871D02*
X006564Y006871D01*
X006564Y007029D02*
X006991Y007029D01*
X006833Y007188D02*
X006722Y007188D01*
X006777Y007346D02*
X006777Y007346D01*
X006777Y007505D02*
X006777Y007505D01*
X006771Y007663D02*
X006783Y007663D01*
X006755Y008297D02*
X006777Y008297D01*
X006777Y008456D02*
X006777Y008456D01*
X006777Y008614D02*
X006751Y008614D01*
X006662Y008773D02*
X006893Y008773D01*
X007051Y008931D02*
X006422Y008931D01*
X006624Y009090D02*
X006931Y009090D01*
X006777Y009248D02*
X006777Y009248D01*
X006777Y009407D02*
X006777Y009407D01*
X006777Y009565D02*
X006777Y009565D01*
X006711Y009724D02*
X006844Y009724D01*
X007002Y009882D02*
X006552Y009882D01*
X006277Y009450D02*
X003675Y009450D01*
X003628Y009403D01*
X003158Y009407D02*
X003098Y009407D01*
X003098Y009565D02*
X003158Y009565D01*
X003284Y009724D02*
X002972Y009724D01*
X002930Y010041D02*
X003325Y010041D01*
X003167Y010199D02*
X003089Y010199D01*
X003098Y010358D02*
X003158Y010358D01*
X003158Y010516D02*
X003137Y010516D01*
X003132Y010907D02*
X002628Y010403D01*
X002702Y010873D02*
X002433Y010873D01*
X002417Y010857D01*
X002417Y010949D01*
X002433Y010933D01*
X002762Y010933D01*
X002702Y010873D01*
X002417Y009882D02*
X005042Y009882D01*
X005009Y010041D02*
X003930Y010041D01*
X003628Y010403D02*
X004250Y010403D01*
X004478Y010631D01*
X005955Y010631D01*
X006230Y010356D01*
X007372Y010356D01*
X008277Y009450D01*
X007931Y009090D02*
X007624Y009090D01*
X007503Y008931D02*
X008051Y008931D01*
X007893Y008773D02*
X007662Y008773D01*
X007777Y008657D02*
X007777Y008346D01*
X007777Y008346D01*
X007777Y008657D01*
X007777Y008614D02*
X007777Y008614D01*
X007777Y008456D02*
X007777Y008456D01*
X008277Y008450D02*
X007781Y007954D01*
X004179Y007954D01*
X003628Y007403D01*
X003158Y007346D02*
X003098Y007346D01*
X003098Y007505D02*
X003158Y007505D01*
X003224Y007663D02*
X003032Y007663D01*
X002874Y007822D02*
X003382Y007822D01*
X003386Y007980D02*
X002870Y007980D01*
X003028Y008139D02*
X003227Y008139D01*
X003158Y008297D02*
X003098Y008297D01*
X003098Y008456D02*
X003158Y008456D01*
X003175Y008614D02*
X003081Y008614D01*
X002923Y008773D02*
X003333Y008773D01*
X003628Y008403D02*
X006230Y008403D01*
X006277Y008450D01*
X005893Y008773D02*
X003923Y008773D01*
X003979Y009090D02*
X005931Y009090D01*
X006132Y008931D02*
X002417Y008931D01*
X002979Y009090D02*
X003276Y009090D01*
X003158Y009248D02*
X003098Y009248D01*
X004442Y010199D02*
X005029Y010199D01*
X005919Y010199D02*
X005991Y010199D01*
X005940Y010041D02*
X007291Y010041D01*
X007766Y010358D02*
X009841Y010358D01*
X009804Y010320D02*
X009935Y010451D01*
X010106Y010522D01*
X010291Y010522D01*
X010463Y010451D01*
X010594Y010320D01*
X010664Y010149D01*
X010664Y009964D01*
X010594Y009792D01*
X010463Y009661D01*
X010291Y009591D01*
X010106Y009591D01*
X009935Y009661D01*
X009804Y009792D01*
X009733Y009964D01*
X009733Y010149D01*
X009804Y010320D01*
X009754Y010199D02*
X007924Y010199D01*
X008083Y010041D02*
X009733Y010041D01*
X009767Y009882D02*
X008552Y009882D01*
X008711Y009724D02*
X009873Y009724D01*
X010525Y009724D02*
X010872Y009724D01*
X010797Y009649D02*
X010797Y009470D01*
X011257Y009470D01*
X011257Y009430D01*
X010797Y009430D01*
X010797Y009251D01*
X011079Y008970D01*
X011257Y008970D01*
X011257Y009430D01*
X011297Y009430D01*
X011297Y008970D01*
X011476Y008970D01*
X011757Y009251D01*
X011757Y009430D01*
X011297Y009430D01*
X011297Y009470D01*
X011257Y009470D01*
X011257Y009930D01*
X011079Y009930D01*
X010797Y009649D01*
X010797Y009565D02*
X008777Y009565D01*
X008777Y009407D02*
X010797Y009407D01*
X010800Y009248D02*
X008777Y009248D01*
X008624Y009090D02*
X010959Y009090D01*
X011079Y008930D02*
X010797Y008649D01*
X010797Y008470D01*
X011257Y008470D01*
X011257Y008430D01*
X010797Y008430D01*
X010797Y008251D01*
X011079Y007970D01*
X011257Y007970D01*
X011257Y008430D01*
X011297Y008430D01*
X011297Y007970D01*
X011476Y007970D01*
X011757Y008251D01*
X011757Y008430D01*
X011297Y008430D01*
X011297Y008470D01*
X011257Y008470D01*
X011257Y008930D01*
X011079Y008930D01*
X011297Y008930D02*
X011476Y008930D01*
X011757Y008649D01*
X011757Y008470D01*
X011297Y008470D01*
X011297Y008930D01*
X011297Y008773D02*
X011257Y008773D01*
X011257Y008614D02*
X011297Y008614D01*
X011297Y008456D02*
X011777Y008456D01*
X011777Y008614D02*
X011757Y008614D01*
X011634Y008773D02*
X011893Y008773D01*
X012051Y008931D02*
X008503Y008931D01*
X008662Y008773D02*
X010921Y008773D01*
X010797Y008614D02*
X008777Y008614D01*
X008777Y008456D02*
X011257Y008456D01*
X011277Y008450D02*
X011754Y007974D01*
X013789Y007974D01*
X013882Y008139D02*
X013673Y008139D01*
X013777Y008243D02*
X013777Y008609D01*
X013777Y008609D01*
X013777Y008243D01*
X013485Y007950D01*
X013070Y007950D01*
X013485Y007950D01*
X013777Y007657D01*
X013777Y007243D01*
X013485Y006950D01*
X013070Y006950D01*
X012777Y007243D01*
X012777Y007657D01*
X012777Y007243D01*
X012485Y006950D01*
X012140Y006950D01*
X012140Y006950D01*
X012485Y006950D01*
X012777Y006657D01*
X012777Y006275D01*
X012777Y006275D01*
X012777Y006657D01*
X013070Y006950D01*
X013485Y006950D01*
X013777Y006657D01*
X013777Y006275D01*
X013777Y006275D01*
X013777Y006657D01*
X014070Y006950D01*
X014424Y006950D01*
X014424Y006950D01*
X014070Y006950D01*
X013777Y007243D01*
X013777Y007657D01*
X014070Y007950D01*
X014381Y007950D01*
X014381Y007950D01*
X014070Y007950D01*
X013777Y008243D01*
X013777Y008297D02*
X013777Y008297D01*
X013777Y008456D02*
X013777Y008456D01*
X013277Y008505D02*
X013730Y008958D01*
X015836Y008958D01*
X016033Y009155D01*
X016033Y009627D01*
X016628Y010222D01*
X016628Y010403D01*
X017098Y010358D02*
X017158Y010358D01*
X017158Y010329D02*
X017098Y010269D01*
X017098Y010597D01*
X017069Y010627D01*
X017187Y010627D01*
X017158Y010597D01*
X017158Y010329D01*
X017158Y010516D02*
X017098Y010516D01*
X017132Y010907D02*
X016270Y010907D01*
X016033Y010670D01*
X016033Y010100D01*
X015876Y009942D01*
X012805Y009942D01*
X012427Y009950D02*
X012070Y009950D01*
X012427Y009950D01*
X012427Y009950D01*
X012002Y009882D02*
X011524Y009882D01*
X011476Y009930D02*
X011297Y009930D01*
X011297Y009470D01*
X011757Y009470D01*
X011757Y009649D01*
X011476Y009930D01*
X011476Y009970D02*
X011757Y010251D01*
X011757Y010430D01*
X011297Y010430D01*
X011297Y009970D01*
X011476Y009970D01*
X011547Y010041D02*
X011980Y010041D01*
X011821Y010199D02*
X011705Y010199D01*
X011757Y010358D02*
X011777Y010358D01*
X011757Y010470D02*
X011757Y010649D01*
X011476Y010930D01*
X011297Y010930D01*
X011297Y010470D01*
X011257Y010470D01*
X011257Y010430D01*
X010797Y010430D01*
X010797Y010251D01*
X011079Y009970D01*
X011257Y009970D01*
X011257Y010430D01*
X011297Y010430D01*
X011297Y010470D01*
X011757Y010470D01*
X011757Y010516D02*
X011777Y010516D01*
X011795Y010675D02*
X011732Y010675D01*
X011573Y010833D02*
X011953Y010833D01*
X011849Y011061D02*
X012081Y011061D01*
X012126Y011074D01*
X012159Y011093D01*
X012210Y011041D01*
X012888Y011041D01*
X012997Y011151D01*
X012997Y010877D01*
X012777Y010657D01*
X012485Y010950D01*
X012760Y010675D02*
X012795Y010675D01*
X012777Y010657D02*
X012777Y010320D01*
X012777Y010657D01*
X012777Y010516D02*
X012777Y010516D01*
X012777Y010358D02*
X012777Y010358D01*
X012777Y010320D02*
X012777Y010320D01*
X012997Y010992D02*
X008279Y010992D01*
X008302Y010833D02*
X010982Y010833D01*
X011079Y010930D02*
X010797Y010649D01*
X010797Y010470D01*
X011257Y010470D01*
X011257Y010930D01*
X011079Y010930D01*
X011257Y010833D02*
X011297Y010833D01*
X011297Y010675D02*
X011257Y010675D01*
X011257Y010516D02*
X011297Y010516D01*
X011297Y010358D02*
X011257Y010358D01*
X011257Y010199D02*
X011297Y010199D01*
X011297Y010041D02*
X011257Y010041D01*
X011257Y009882D02*
X011297Y009882D01*
X011297Y009724D02*
X011257Y009724D01*
X011257Y009565D02*
X011297Y009565D01*
X011297Y009407D02*
X011257Y009407D01*
X011257Y009248D02*
X011297Y009248D01*
X011297Y009090D02*
X011257Y009090D01*
X011596Y009090D02*
X011931Y009090D01*
X011777Y009248D02*
X011754Y009248D01*
X011757Y009407D02*
X011777Y009407D01*
X011777Y009565D02*
X011757Y009565D01*
X011683Y009724D02*
X011844Y009724D01*
X011031Y009882D02*
X010631Y009882D01*
X010664Y010041D02*
X011008Y010041D01*
X010849Y010199D02*
X010644Y010199D01*
X010556Y010358D02*
X010797Y010358D01*
X010797Y010516D02*
X010306Y010516D01*
X010092Y010516D02*
X008168Y010516D01*
X008271Y010675D02*
X010823Y010675D01*
X011377Y011172D02*
X011365Y011218D01*
X011365Y011489D01*
X011753Y011489D01*
X011753Y011585D01*
X011365Y011585D01*
X011365Y011856D01*
X011376Y011896D01*
X011286Y011985D01*
X011286Y012623D01*
X011403Y012741D01*
X011442Y012741D01*
X011442Y012974D01*
X011384Y012950D01*
X011234Y012950D01*
X011095Y013007D01*
X011094Y013008D01*
X010889Y013008D01*
X010892Y013007D01*
X010945Y012968D01*
X010991Y012922D01*
X011029Y012869D01*
X011059Y012811D01*
X011079Y012748D01*
X011090Y012684D01*
X011090Y012415D01*
X010674Y012415D01*
X010674Y012415D01*
X011090Y012415D01*
X011090Y012146D01*
X011079Y012081D01*
X011059Y012019D01*
X011029Y011960D01*
X010991Y011907D01*
X010945Y011861D01*
X010892Y011822D01*
X010833Y011793D01*
X010771Y011772D01*
X010706Y011762D01*
X010673Y011762D01*
X010673Y012415D01*
X010659Y012400D01*
X010659Y011674D01*
X010797Y011537D01*
X011801Y011537D01*
X011753Y011489D02*
X011849Y011489D01*
X011849Y011061D01*
X011849Y011150D02*
X011753Y011150D01*
X011753Y011061D02*
X011521Y011061D01*
X011476Y011074D01*
X011435Y011097D01*
X011401Y011131D01*
X011377Y011172D01*
X011390Y011150D02*
X008189Y011150D01*
X007931Y011309D02*
X009951Y011309D01*
X010446Y011309D02*
X011365Y011309D01*
X011365Y011467D02*
X010555Y011467D01*
X010577Y011626D02*
X011365Y011626D01*
X011365Y011784D02*
X010807Y011784D01*
X010673Y011784D02*
X010673Y011784D01*
X010540Y011784D02*
X010530Y011784D01*
X010673Y011943D02*
X010673Y011943D01*
X010673Y012101D02*
X010673Y012101D01*
X010673Y012260D02*
X010673Y012260D01*
X010673Y012415D02*
X010673Y012415D01*
X011090Y012418D02*
X011286Y012418D01*
X011286Y012260D02*
X011090Y012260D01*
X011083Y012101D02*
X011286Y012101D01*
X011329Y011943D02*
X011017Y011943D01*
X011090Y012577D02*
X011286Y012577D01*
X011398Y012735D02*
X011082Y012735D01*
X011012Y012894D02*
X011442Y012894D01*
X011309Y013328D02*
X011663Y013328D01*
X011722Y013269D01*
X011722Y012304D01*
X012002Y012741D02*
X012002Y013048D01*
X013891Y013048D01*
X014002Y013048D01*
X014105Y013091D01*
X014238Y013223D01*
X014238Y013135D01*
X014295Y012996D01*
X014402Y012889D01*
X014541Y012832D01*
X014572Y012832D01*
X014564Y012813D01*
X014564Y012614D01*
X014593Y012545D01*
X013360Y012545D01*
X013257Y012502D01*
X013178Y012424D01*
X013040Y012286D01*
X012997Y012183D01*
X012997Y011922D01*
X012960Y011960D01*
X012985Y011985D01*
X012985Y012623D01*
X012868Y012741D01*
X012230Y012741D01*
X012136Y012646D01*
X012041Y012741D01*
X012002Y012741D01*
X012047Y012735D02*
X012225Y012735D01*
X012002Y012894D02*
X014397Y012894D01*
X014272Y013052D02*
X014013Y013052D01*
X014225Y013211D02*
X014238Y013211D01*
X013947Y013328D02*
X014419Y013800D01*
X014419Y014647D01*
X013944Y014656D02*
X013944Y014638D01*
X013934Y014647D01*
X013944Y014656D01*
X014029Y015113D02*
X014756Y015113D01*
X014826Y015271D02*
X014029Y015271D01*
X013553Y015021D02*
X013258Y015021D01*
X013228Y014991D01*
X013258Y015021D02*
X012884Y015021D01*
X012854Y014991D01*
X012599Y015271D02*
X011777Y015271D01*
X011777Y015430D02*
X014641Y015430D01*
X014042Y016064D02*
X013578Y016064D01*
X013658Y016222D02*
X013857Y016222D01*
X013791Y016381D02*
X013724Y016381D01*
X013728Y016539D02*
X013788Y016539D01*
X014614Y017332D02*
X016158Y017332D01*
X016158Y017329D02*
X015957Y017128D01*
X015947Y017138D01*
X015763Y017214D01*
X014965Y017214D01*
X014781Y017138D01*
X014728Y017085D01*
X014728Y017117D01*
X014656Y017289D01*
X014542Y017404D01*
X014542Y017615D01*
X016175Y017615D01*
X016158Y017597D01*
X016158Y017329D01*
X016158Y017490D02*
X014542Y017490D01*
X014704Y017173D02*
X014867Y017173D01*
X015862Y017173D02*
X016002Y017173D01*
X015832Y016222D02*
X015784Y016222D01*
X016210Y014903D02*
X016022Y014714D01*
X015364Y014714D01*
X014965Y014214D02*
X014781Y014138D01*
X014699Y014056D01*
X014699Y014250D01*
X014778Y014250D01*
X014807Y014279D01*
X014965Y014214D01*
X015763Y014214D01*
X014965Y014214D01*
X014839Y014162D02*
X014699Y014162D01*
X014139Y014162D02*
X014029Y014162D01*
X014029Y014003D02*
X014139Y014003D01*
X013947Y013328D02*
X011663Y013328D01*
X011777Y014320D02*
X011787Y014320D01*
X011777Y014479D02*
X011946Y014479D01*
X012104Y014637D02*
X011777Y014637D01*
X011639Y014796D02*
X012263Y014796D01*
X012421Y014954D02*
X011597Y014954D01*
X011647Y015113D02*
X012495Y015113D01*
X011889Y016187D02*
X011722Y016187D01*
X011777Y016243D01*
X011777Y016657D01*
X011485Y016950D01*
X011070Y016950D01*
X011485Y016950D01*
X011777Y017243D01*
X011777Y017604D01*
X011938Y017443D01*
X011938Y017368D01*
X011859Y017289D01*
X011788Y017117D01*
X011788Y016390D01*
X011859Y016217D01*
X011889Y016187D01*
X011857Y016222D02*
X011757Y016222D01*
X011777Y016381D02*
X011791Y016381D01*
X011777Y016539D02*
X011788Y016539D01*
X011788Y016698D02*
X011737Y016698D01*
X011788Y016856D02*
X011578Y016856D01*
X011549Y017015D02*
X011788Y017015D01*
X011811Y017173D02*
X011708Y017173D01*
X011777Y017332D02*
X011902Y017332D01*
X011891Y017490D02*
X011777Y017490D01*
X012321Y017966D02*
X014055Y017966D01*
X013982Y017807D02*
X012479Y017807D01*
X011945Y018758D02*
X010231Y018758D01*
X010073Y018917D02*
X011803Y018917D01*
X011803Y019075D02*
X010780Y019075D01*
X010673Y019062D02*
X010673Y019715D01*
X012127Y019715D01*
X012608Y019233D01*
X012558Y019234D02*
X011010Y019234D01*
X011081Y019392D02*
X011803Y019392D01*
X011803Y019283D02*
X012558Y019283D01*
X012558Y020038D01*
X012275Y020038D01*
X011803Y019567D01*
X011803Y019283D01*
X011803Y019551D02*
X011090Y019551D01*
X011090Y019709D02*
X011945Y019709D01*
X012104Y019868D02*
X011090Y019868D01*
X011090Y019715D02*
X010674Y019715D01*
X010674Y019715D01*
X011090Y019715D01*
X011083Y020026D02*
X012262Y020026D01*
X012558Y020026D02*
X012658Y020026D01*
X012658Y019868D02*
X012558Y019868D01*
X012558Y019709D02*
X012658Y019709D01*
X012658Y019551D02*
X012558Y019551D01*
X012558Y019392D02*
X012658Y019392D01*
X013112Y019868D02*
X014044Y019868D01*
X014203Y020026D02*
X012954Y020026D01*
X013271Y019709D02*
X013886Y019709D01*
X013752Y019551D02*
X013413Y019551D01*
X014612Y018283D02*
X016178Y018283D01*
X016178Y018441D02*
X014951Y018441D01*
X015110Y018600D02*
X016188Y018600D01*
X016347Y018758D02*
X015268Y018758D01*
X017120Y017895D02*
X017628Y018403D01*
X017554Y017933D02*
X017494Y017873D01*
X017823Y017873D01*
X017839Y017857D01*
X017839Y017949D01*
X017823Y017933D01*
X017554Y017933D01*
X017158Y017490D02*
X017098Y017490D01*
X016158Y014320D02*
X015978Y014320D01*
X015889Y014162D02*
X016204Y014162D01*
X016082Y014003D02*
X016363Y014003D01*
X016405Y013845D02*
X016151Y013845D01*
X016164Y013686D02*
X016247Y013686D01*
X016158Y013528D02*
X016128Y013528D01*
X016033Y013210D02*
X014616Y013210D01*
X014564Y012735D02*
X012874Y012735D01*
X012985Y012577D02*
X014580Y012577D01*
X014668Y011985D02*
X014654Y011965D01*
X014619Y011898D01*
X014596Y011826D01*
X014584Y011752D01*
X014584Y011734D01*
X015344Y011734D01*
X015344Y011694D01*
X014584Y011694D01*
X014584Y011676D01*
X014596Y011601D01*
X014619Y011530D01*
X014654Y011462D01*
X014698Y011401D01*
X014751Y011348D01*
X014812Y011303D01*
X014880Y011269D01*
X014951Y011246D01*
X014737Y011246D01*
X014635Y011203D01*
X014381Y010950D01*
X014070Y010950D01*
X013777Y010657D01*
X013557Y010877D01*
X013557Y011985D01*
X014668Y011985D01*
X014642Y011943D02*
X013557Y011943D01*
X013557Y011784D02*
X014589Y011784D01*
X014714Y011714D02*
X013789Y010789D01*
X013795Y010675D02*
X013760Y010675D01*
X013777Y010657D02*
X013777Y010243D01*
X013757Y010222D01*
X013798Y010222D01*
X013777Y010243D01*
X013777Y010657D01*
X013777Y010516D02*
X013777Y010516D01*
X013777Y010358D02*
X013777Y010358D01*
X013601Y010833D02*
X013953Y010833D01*
X013557Y010992D02*
X014423Y010992D01*
X014582Y011150D02*
X013557Y011150D01*
X013557Y011309D02*
X014805Y011309D01*
X014651Y011467D02*
X013557Y011467D01*
X013557Y011626D02*
X014592Y011626D01*
X014714Y011714D02*
X015364Y011714D01*
X015384Y011734D02*
X016144Y011734D01*
X016144Y011752D01*
X016143Y011760D01*
X016229Y011673D01*
X016232Y011672D01*
X016158Y011597D01*
X016158Y011585D01*
X016112Y011539D01*
X016132Y011601D01*
X016144Y011676D01*
X016144Y011694D01*
X015384Y011694D01*
X015384Y011734D01*
X015777Y011246D02*
X015839Y011266D01*
X015819Y011246D01*
X015777Y011246D01*
X015935Y010966D02*
X014793Y010966D01*
X014277Y010450D01*
X014777Y010516D02*
X014777Y010516D01*
X014777Y010554D02*
X014777Y010554D01*
X014777Y010243D01*
X014757Y010222D01*
X014798Y010222D01*
X014777Y010243D01*
X014777Y010554D01*
X014777Y010358D02*
X014777Y010358D01*
X014772Y009662D02*
X014782Y009662D01*
X014777Y009657D01*
X014772Y009662D01*
X014777Y009657D02*
X014777Y009243D01*
X014772Y009238D01*
X014782Y009238D01*
X014777Y009243D01*
X014777Y009657D01*
X014777Y009565D02*
X014777Y009565D01*
X014777Y009407D02*
X014777Y009407D01*
X014777Y009248D02*
X014777Y009248D01*
X014757Y008678D02*
X014798Y008678D01*
X014777Y008657D01*
X014757Y008678D01*
X014777Y008657D02*
X014777Y008243D01*
X014768Y008234D01*
X014786Y008234D01*
X014777Y008243D01*
X014777Y008657D01*
X014777Y008614D02*
X014777Y008614D01*
X014777Y008456D02*
X014777Y008456D01*
X014777Y008297D02*
X014777Y008297D01*
X014781Y007954D02*
X014277Y007450D01*
X014648Y007113D02*
X014777Y007243D01*
X014777Y007554D01*
X014777Y007554D01*
X014777Y007243D01*
X014907Y007113D01*
X014648Y007113D01*
X014722Y007188D02*
X014833Y007188D01*
X014777Y007346D02*
X014777Y007346D01*
X014777Y007505D02*
X014777Y007505D01*
X014781Y007954D02*
X015777Y007954D01*
X015974Y008151D01*
X015974Y008544D01*
X016329Y008899D01*
X016939Y008899D01*
X017136Y009096D01*
X017136Y009911D01*
X017628Y010403D01*
X017554Y009933D02*
X017494Y009873D01*
X017823Y009873D01*
X017839Y009857D01*
X017839Y009949D01*
X017823Y009933D01*
X017554Y009933D01*
X017503Y009882D02*
X017839Y009882D01*
X017839Y010857D02*
X017823Y010873D01*
X017494Y010873D01*
X017554Y010933D01*
X017823Y010933D01*
X017839Y010949D01*
X017839Y010857D01*
X017628Y011403D02*
X017132Y010907D01*
X017098Y011269D02*
X017098Y011597D01*
X017065Y011631D01*
X017191Y011631D01*
X017158Y011597D01*
X017158Y011329D01*
X017098Y011269D01*
X017098Y011309D02*
X017138Y011309D01*
X017158Y011467D02*
X017098Y011467D01*
X017070Y011626D02*
X017186Y011626D01*
X017494Y011873D02*
X017554Y011933D01*
X017823Y011933D01*
X017839Y011949D01*
X017839Y011857D01*
X017823Y011873D01*
X017494Y011873D01*
X017832Y011943D02*
X017839Y011943D01*
X017158Y012418D02*
X017098Y012418D01*
X017098Y012577D02*
X017158Y012577D01*
X017296Y012735D02*
X016960Y012735D01*
X016628Y012615D02*
X016628Y012403D01*
X016628Y012615D02*
X016033Y013210D01*
X016164Y012683D02*
X016204Y012643D01*
X016158Y012597D01*
X016158Y012516D01*
X016129Y012529D01*
X016164Y012614D01*
X016164Y012683D01*
X016158Y012577D02*
X016148Y012577D01*
X016136Y011626D02*
X016186Y011626D01*
X016372Y011403D02*
X015935Y010966D01*
X015753Y010686D02*
X015753Y010681D01*
X015749Y010686D01*
X015753Y010686D01*
X016372Y011403D02*
X016628Y011403D01*
X016856Y009966D02*
X016856Y009840D01*
X016823Y009873D01*
X016675Y009873D01*
X016735Y009933D01*
X016823Y009933D01*
X016856Y009966D01*
X016856Y009882D02*
X016684Y009882D01*
X017389Y008976D02*
X017433Y008933D01*
X017823Y008933D01*
X017839Y008949D01*
X017839Y008857D01*
X017823Y008873D01*
X017433Y008873D01*
X017158Y008597D01*
X017158Y008208D01*
X017433Y007933D01*
X017823Y007933D01*
X017839Y007949D01*
X017839Y007857D01*
X017823Y007873D01*
X017433Y007873D01*
X017158Y007597D01*
X017158Y007208D01*
X017166Y007200D01*
X017091Y007125D01*
X017086Y007113D01*
X017003Y007113D01*
X017098Y007208D01*
X017098Y007597D01*
X016823Y007873D01*
X016433Y007873D01*
X016158Y007597D01*
X016158Y007208D01*
X016253Y007113D01*
X015648Y007113D01*
X015777Y007243D01*
X015777Y007657D01*
X015761Y007674D01*
X015833Y007674D01*
X015936Y007717D01*
X016015Y007795D01*
X016212Y007992D01*
X016254Y008095D01*
X016254Y008140D01*
X016441Y007953D01*
X016618Y007953D01*
X016618Y008393D01*
X016638Y008393D01*
X016638Y008413D01*
X017078Y008413D01*
X017078Y008589D01*
X017032Y008635D01*
X017097Y008661D01*
X017176Y008740D01*
X017373Y008937D01*
X017389Y008976D01*
X017367Y008931D02*
X017839Y008931D01*
X017333Y008773D02*
X017209Y008773D01*
X017175Y008614D02*
X017053Y008614D01*
X017078Y008456D02*
X017158Y008456D01*
X017078Y008393D02*
X017078Y008216D01*
X016814Y007953D01*
X016638Y007953D01*
X016638Y008393D01*
X017078Y008393D01*
X017078Y008297D02*
X017158Y008297D01*
X017227Y008139D02*
X017000Y008139D01*
X016842Y007980D02*
X017386Y007980D01*
X017382Y007822D02*
X016874Y007822D01*
X017032Y007663D02*
X017224Y007663D01*
X017158Y007505D02*
X017098Y007505D01*
X017098Y007346D02*
X017158Y007346D01*
X017154Y007188D02*
X017077Y007188D01*
X017082Y006613D02*
X017174Y006613D01*
X017158Y006597D01*
X017158Y006208D01*
X017433Y005933D01*
X017823Y005933D01*
X017839Y005949D01*
X017839Y005857D01*
X017823Y005873D01*
X017433Y005873D01*
X017158Y005597D01*
X017158Y005286D01*
X017098Y005226D01*
X017098Y005597D01*
X016823Y005873D01*
X016433Y005873D01*
X016158Y005597D01*
X016158Y005286D01*
X016146Y005275D01*
X015777Y005275D01*
X015777Y005657D01*
X015634Y005801D01*
X015663Y005813D01*
X015733Y005883D01*
X016003Y006153D01*
X016213Y006153D01*
X016433Y005933D01*
X016823Y005933D01*
X017098Y006208D01*
X017098Y006597D01*
X017082Y006613D01*
X017098Y006554D02*
X017158Y006554D01*
X017158Y006395D02*
X017098Y006395D01*
X017098Y006237D02*
X017158Y006237D01*
X017288Y006078D02*
X016968Y006078D01*
X016934Y005761D02*
X017322Y005761D01*
X017163Y005603D02*
X017093Y005603D01*
X017098Y005444D02*
X017158Y005444D01*
X017157Y005286D02*
X017098Y005286D01*
X017451Y004873D02*
X017511Y004933D01*
X017823Y004933D01*
X017839Y004949D01*
X017839Y004857D01*
X017823Y004873D01*
X017451Y004873D01*
X017199Y004639D02*
X017158Y004597D01*
X017158Y004286D01*
X017098Y004226D01*
X017098Y004597D01*
X017082Y004613D01*
X017138Y004613D01*
X017199Y004639D01*
X017158Y004493D02*
X017098Y004493D01*
X017098Y004335D02*
X017158Y004335D01*
X017511Y003933D02*
X017823Y003933D01*
X017839Y003949D01*
X017839Y003857D01*
X017823Y003873D01*
X017451Y003873D01*
X017511Y003933D01*
X017199Y003639D02*
X017158Y003597D01*
X017158Y003208D01*
X017433Y002933D01*
X017823Y002933D01*
X017839Y002949D01*
X017839Y002857D01*
X017823Y002873D01*
X017433Y002873D01*
X017158Y002597D01*
X017158Y002286D01*
X017098Y002226D01*
X017098Y002597D01*
X016823Y002873D01*
X016511Y002873D01*
X016451Y002933D01*
X016823Y002933D01*
X017098Y003208D01*
X017098Y003597D01*
X017082Y003613D01*
X017138Y003613D01*
X017199Y003639D01*
X017158Y003542D02*
X017098Y003542D01*
X017098Y003384D02*
X017158Y003384D01*
X017158Y003225D02*
X017098Y003225D01*
X016956Y003067D02*
X017299Y003067D01*
X017310Y002750D02*
X016946Y002750D01*
X017098Y002591D02*
X017158Y002591D01*
X017158Y002433D02*
X017098Y002433D01*
X017098Y002274D02*
X017146Y002274D01*
X017511Y001933D02*
X017459Y001881D01*
X017463Y001873D01*
X017823Y001873D01*
X017839Y001857D01*
X017839Y001949D01*
X017823Y001933D01*
X017511Y001933D01*
X017158Y001296D02*
X017092Y001296D01*
X017056Y001208D01*
X017158Y001208D01*
X017158Y001296D01*
X017158Y001208D02*
X017158Y001208D01*
X016200Y001208D02*
X015742Y001208D01*
X015777Y001243D01*
X015777Y001613D01*
X015918Y001613D01*
X015951Y001581D01*
X016043Y001543D01*
X016177Y001543D01*
X016158Y001496D01*
X016158Y001309D01*
X016200Y001208D01*
X016158Y001323D02*
X015777Y001323D01*
X015777Y001482D02*
X016158Y001482D01*
X016158Y002272D02*
X016158Y002519D01*
X015993Y002684D01*
X015750Y002684D01*
X015777Y002657D01*
X015777Y002279D01*
X016142Y002279D01*
X016158Y002272D01*
X016158Y002274D02*
X016153Y002274D01*
X016158Y002433D02*
X015777Y002433D01*
X015777Y002591D02*
X016086Y002591D01*
X016476Y002908D02*
X017839Y002908D01*
X017836Y003859D02*
X017839Y003859D01*
X016207Y003159D02*
X016146Y003184D01*
X015719Y003184D01*
X015777Y003243D01*
X015777Y003613D01*
X016174Y003613D01*
X016158Y003597D01*
X016158Y003208D01*
X016207Y003159D01*
X016158Y003225D02*
X015760Y003225D01*
X015777Y003384D02*
X016158Y003384D01*
X016158Y003542D02*
X015777Y003542D01*
X015777Y004287D02*
X015777Y004613D01*
X016174Y004613D01*
X016158Y004597D01*
X016158Y004287D01*
X015777Y004287D01*
X015777Y004335D02*
X016158Y004335D01*
X016158Y004493D02*
X015777Y004493D01*
X015777Y005286D02*
X016157Y005286D01*
X016158Y005444D02*
X015777Y005444D01*
X015777Y005603D02*
X016163Y005603D01*
X016322Y005761D02*
X015673Y005761D01*
X015770Y005920D02*
X017839Y005920D01*
X017839Y006857D02*
X017823Y006873D01*
X017789Y006873D01*
X017789Y006933D01*
X017823Y006933D01*
X017839Y006949D01*
X017839Y006857D01*
X017839Y006871D02*
X017825Y006871D01*
X016638Y007980D02*
X016618Y007980D01*
X016618Y008139D02*
X016638Y008139D01*
X016638Y008297D02*
X016618Y008297D01*
X016414Y007980D02*
X016200Y007980D01*
X016254Y008139D02*
X016256Y008139D01*
X016382Y007822D02*
X016041Y007822D01*
X016224Y007663D02*
X015771Y007663D01*
X015777Y007505D02*
X016158Y007505D01*
X016158Y007346D02*
X015777Y007346D01*
X015722Y007188D02*
X016178Y007188D01*
X016288Y006078D02*
X015928Y006078D01*
X014895Y005775D02*
X014777Y005657D01*
X014660Y005775D01*
X014895Y005775D01*
X014881Y005761D02*
X014673Y005761D01*
X014777Y005657D02*
X014777Y005275D01*
X014777Y005275D01*
X014777Y005657D01*
X014777Y005603D02*
X014777Y005603D01*
X014777Y005444D02*
X014777Y005444D01*
X014777Y005286D02*
X014777Y005286D01*
X014777Y004613D02*
X014777Y004287D01*
X014777Y004287D01*
X014777Y004613D01*
X014777Y004613D01*
X014777Y004493D02*
X014777Y004493D01*
X014777Y004335D02*
X014777Y004335D01*
X014777Y003613D02*
X014777Y003304D01*
X014777Y003304D01*
X014777Y003613D01*
X014777Y003613D01*
X014777Y003542D02*
X014777Y003542D01*
X014777Y003384D02*
X014777Y003384D01*
X014424Y002950D02*
X014148Y002950D01*
X014424Y002950D01*
X014424Y002950D01*
X014148Y002950D02*
X014148Y002950D01*
X013777Y003332D02*
X013777Y003613D01*
X013777Y003332D01*
X013777Y003332D01*
X013777Y003384D02*
X013777Y003384D01*
X013777Y003542D02*
X013777Y003542D01*
X013777Y003613D02*
X013777Y003613D01*
X013777Y004287D02*
X013777Y004613D01*
X013777Y004287D01*
X013777Y004287D01*
X013777Y004335D02*
X013777Y004335D01*
X013777Y004493D02*
X013777Y004493D01*
X013777Y004613D02*
X013777Y004613D01*
X013777Y005275D02*
X013777Y005657D01*
X013660Y005775D01*
X013895Y005775D01*
X013777Y005657D01*
X013777Y005275D01*
X013777Y005275D01*
X013777Y005286D02*
X013777Y005286D01*
X013777Y005444D02*
X013777Y005444D01*
X013777Y005603D02*
X013777Y005603D01*
X013673Y005761D02*
X013881Y005761D01*
X013777Y006395D02*
X013777Y006395D01*
X013777Y006554D02*
X013777Y006554D01*
X013722Y006712D02*
X013832Y006712D01*
X013991Y006871D02*
X013564Y006871D01*
X013564Y007029D02*
X013991Y007029D01*
X013833Y007188D02*
X013722Y007188D01*
X013777Y007346D02*
X013777Y007346D01*
X013777Y007505D02*
X013777Y007505D01*
X013771Y007663D02*
X013783Y007663D01*
X013942Y007822D02*
X013613Y007822D01*
X013515Y007980D02*
X014040Y007980D01*
X013277Y008450D02*
X013277Y008505D01*
X013326Y008950D02*
X013070Y008950D01*
X013326Y008950D01*
X013326Y008950D01*
X013051Y008931D02*
X012503Y008931D01*
X012624Y009090D02*
X012931Y009090D01*
X012777Y009248D02*
X012777Y009248D01*
X012777Y009407D02*
X012777Y009407D01*
X012662Y008773D02*
X012893Y008773D01*
X012777Y008614D02*
X012777Y008614D01*
X012777Y008456D02*
X012777Y008456D01*
X012777Y008297D02*
X012777Y008297D01*
X012673Y008139D02*
X012882Y008139D01*
X013040Y007980D02*
X012515Y007980D01*
X012613Y007822D02*
X012942Y007822D01*
X012783Y007663D02*
X012771Y007663D01*
X012777Y007505D02*
X012777Y007505D01*
X012777Y007346D02*
X012777Y007346D01*
X012722Y007188D02*
X012833Y007188D01*
X012991Y007029D02*
X012564Y007029D01*
X012564Y006871D02*
X012991Y006871D01*
X012832Y006712D02*
X012722Y006712D01*
X012777Y006554D02*
X012777Y006554D01*
X012777Y006395D02*
X012777Y006395D01*
X012660Y005775D02*
X012895Y005775D01*
X012777Y005657D01*
X012660Y005775D01*
X012673Y005761D02*
X012881Y005761D01*
X012777Y005657D02*
X012777Y005275D01*
X012777Y005657D01*
X012777Y005603D02*
X012777Y005603D01*
X012777Y005444D02*
X012777Y005444D01*
X012777Y005286D02*
X012777Y005286D01*
X012777Y005275D02*
X012777Y005275D01*
X012341Y004950D02*
X012341Y004950D01*
X012070Y004950D01*
X012341Y004950D01*
X012052Y004969D02*
X010585Y004969D01*
X010688Y005127D02*
X010921Y005127D01*
X010797Y005251D02*
X011079Y004970D01*
X011257Y004970D01*
X011257Y005430D01*
X010797Y005430D01*
X010797Y005251D01*
X010797Y005286D02*
X010729Y005286D01*
X010726Y005444D02*
X011257Y005444D01*
X011257Y005430D02*
X011257Y005470D01*
X010797Y005470D01*
X010797Y005649D01*
X011079Y005930D01*
X011257Y005930D01*
X011257Y005470D01*
X011297Y005470D01*
X011297Y005930D01*
X011476Y005930D01*
X011757Y005649D01*
X011757Y005470D01*
X011297Y005470D01*
X011297Y005430D01*
X011297Y004970D01*
X011476Y004970D01*
X011757Y005251D01*
X011757Y005430D01*
X011297Y005430D01*
X011257Y005430D01*
X011297Y005444D02*
X011777Y005444D01*
X011777Y005286D02*
X011757Y005286D01*
X011633Y005127D02*
X011893Y005127D01*
X011930Y004810D02*
X011596Y004810D01*
X011476Y004930D02*
X011757Y004649D01*
X011757Y004470D01*
X011297Y004470D01*
X011257Y004470D01*
X011257Y004430D01*
X010797Y004430D01*
X010797Y004251D01*
X011079Y003970D01*
X011257Y003970D01*
X011257Y004430D01*
X011297Y004430D01*
X011297Y003970D01*
X011476Y003970D01*
X011757Y004251D01*
X011757Y004430D01*
X011297Y004430D01*
X011297Y004470D01*
X011297Y004930D01*
X011476Y004930D01*
X011297Y004810D02*
X011257Y004810D01*
X011257Y004930D02*
X011079Y004930D01*
X010797Y004649D01*
X010797Y004470D01*
X011257Y004470D01*
X011257Y004930D01*
X011257Y005127D02*
X011297Y005127D01*
X011297Y005286D02*
X011257Y005286D01*
X011257Y005603D02*
X011297Y005603D01*
X011297Y005761D02*
X011257Y005761D01*
X011257Y005920D02*
X011297Y005920D01*
X011297Y006078D02*
X011257Y006078D01*
X011257Y006237D02*
X011297Y006237D01*
X011297Y006395D02*
X011257Y006395D01*
X011257Y006470D02*
X010797Y006470D01*
X010797Y006649D01*
X011079Y006930D01*
X011257Y006930D01*
X011257Y006470D01*
X011257Y006554D02*
X011297Y006554D01*
X011297Y006712D02*
X011257Y006712D01*
X011257Y006871D02*
X011297Y006871D01*
X011257Y006970D02*
X011079Y006970D01*
X010797Y007251D01*
X010797Y007430D01*
X011257Y007430D01*
X011257Y007470D01*
X010797Y007470D01*
X010797Y007649D01*
X011079Y007930D01*
X011257Y007930D01*
X011257Y007470D01*
X011297Y007470D01*
X011297Y007930D01*
X011476Y007930D01*
X011757Y007649D01*
X011757Y007470D01*
X011297Y007470D01*
X011297Y007430D01*
X011257Y007430D01*
X011257Y006970D01*
X011257Y007029D02*
X011297Y007029D01*
X011297Y007188D02*
X011257Y007188D01*
X011257Y007346D02*
X011297Y007346D01*
X011277Y007450D02*
X010277Y007450D01*
X009277Y007450D01*
X008277Y007450D01*
X008297Y007470D02*
X008297Y007930D01*
X008476Y007930D01*
X008757Y007649D01*
X008757Y007470D01*
X008297Y007470D01*
X008297Y007505D02*
X008257Y007505D01*
X008257Y007663D02*
X008297Y007663D01*
X008297Y007822D02*
X008257Y007822D01*
X008515Y007980D02*
X011068Y007980D01*
X010970Y007822D02*
X010585Y007822D01*
X010476Y007930D02*
X010297Y007930D01*
X010297Y007470D01*
X010257Y007470D01*
X010257Y007430D01*
X009797Y007430D01*
X009797Y007251D01*
X010079Y006970D01*
X010257Y006970D01*
X010257Y007430D01*
X010297Y007430D01*
X010297Y006970D01*
X010476Y006970D01*
X010757Y007251D01*
X010757Y007430D01*
X010297Y007430D01*
X010297Y007470D01*
X010757Y007470D01*
X010757Y007649D01*
X010476Y007930D01*
X010297Y007822D02*
X010257Y007822D01*
X010257Y007930D02*
X010079Y007930D01*
X009797Y007649D01*
X009797Y007470D01*
X010257Y007470D01*
X010257Y007930D01*
X010257Y007663D02*
X010297Y007663D01*
X010297Y007505D02*
X010257Y007505D01*
X010257Y007346D02*
X010297Y007346D01*
X010297Y007188D02*
X010257Y007188D01*
X010257Y007029D02*
X010297Y007029D01*
X010297Y006930D02*
X010297Y006470D01*
X010257Y006470D01*
X010257Y006430D01*
X010297Y006430D01*
X010297Y005970D01*
X010476Y005970D01*
X010757Y006251D01*
X010757Y006430D01*
X010297Y006430D01*
X010297Y006470D01*
X010757Y006470D01*
X010757Y006649D01*
X010476Y006930D01*
X010297Y006930D01*
X010257Y006930D02*
X010079Y006930D01*
X009797Y006649D01*
X009797Y006470D01*
X010257Y006470D01*
X010257Y006930D01*
X010257Y006871D02*
X010297Y006871D01*
X010297Y006712D02*
X010257Y006712D01*
X010257Y006554D02*
X010297Y006554D01*
X010297Y006395D02*
X010257Y006395D01*
X010257Y006237D02*
X010297Y006237D01*
X010297Y006078D02*
X010257Y006078D01*
X010332Y005920D02*
X011068Y005920D01*
X010970Y006078D02*
X010584Y006078D01*
X010743Y006237D02*
X010812Y006237D01*
X010797Y006395D02*
X010757Y006395D01*
X010757Y006554D02*
X010797Y006554D01*
X010861Y006712D02*
X010694Y006712D01*
X010536Y006871D02*
X011019Y006871D01*
X011019Y007029D02*
X010535Y007029D01*
X010694Y007188D02*
X010861Y007188D01*
X010797Y007346D02*
X010757Y007346D01*
X010757Y007505D02*
X010797Y007505D01*
X010812Y007663D02*
X010743Y007663D01*
X010910Y008139D02*
X008673Y008139D01*
X008777Y008297D02*
X010797Y008297D01*
X011257Y008297D02*
X011297Y008297D01*
X011297Y008139D02*
X011257Y008139D01*
X011257Y007980D02*
X011297Y007980D01*
X011297Y007822D02*
X011257Y007822D01*
X011257Y007663D02*
X011297Y007663D01*
X011297Y007505D02*
X011257Y007505D01*
X011585Y007822D02*
X011942Y007822D01*
X012040Y007980D02*
X011486Y007980D01*
X011645Y008139D02*
X011882Y008139D01*
X011777Y008297D02*
X011757Y008297D01*
X011743Y007663D02*
X011783Y007663D01*
X011777Y007505D02*
X011757Y007505D01*
X011710Y005920D02*
X011487Y005920D01*
X011645Y005761D02*
X011881Y005761D01*
X011777Y005603D02*
X011757Y005603D01*
X010910Y005761D02*
X010519Y005761D01*
X010660Y005603D02*
X010797Y005603D01*
X010959Y004810D02*
X010324Y004810D01*
X010073Y004810D02*
X008624Y004810D01*
X008777Y004652D02*
X010800Y004652D01*
X010797Y004493D02*
X008777Y004493D01*
X008777Y004335D02*
X010797Y004335D01*
X010872Y004176D02*
X008711Y004176D01*
X008552Y004018D02*
X011031Y004018D01*
X011008Y003859D02*
X008083Y003859D01*
X007924Y003701D02*
X010849Y003701D01*
X010797Y003542D02*
X007766Y003542D01*
X007607Y003384D02*
X010797Y003384D01*
X010823Y003225D02*
X007449Y003225D01*
X007230Y003403D02*
X008277Y004450D01*
X007930Y004810D02*
X007624Y004810D01*
X007485Y004950D02*
X007070Y004950D01*
X007485Y004950D01*
X007777Y004657D01*
X007777Y004346D01*
X007777Y004346D01*
X007777Y004657D01*
X008070Y004950D01*
X008100Y004950D01*
X008100Y004950D01*
X008070Y004950D01*
X008050Y004971D01*
X007977Y005001D01*
X007828Y005150D01*
X007798Y005222D01*
X007777Y005243D01*
X007777Y005272D01*
X007777Y005243D01*
X007485Y004950D01*
X007503Y004969D02*
X008052Y004969D01*
X007851Y005127D02*
X007662Y005127D01*
X007777Y005272D02*
X007777Y005272D01*
X007777Y005628D02*
X007777Y005657D01*
X007777Y005628D01*
X007777Y005628D01*
X007839Y005761D02*
X007673Y005761D01*
X007515Y005920D02*
X008026Y005920D01*
X007970Y006078D02*
X007613Y006078D01*
X007771Y006237D02*
X007812Y006237D01*
X007797Y006395D02*
X007777Y006395D01*
X007797Y006470D02*
X008257Y006470D01*
X008257Y006930D01*
X008079Y006930D01*
X007797Y006649D01*
X007797Y006470D01*
X007797Y006554D02*
X007777Y006554D01*
X007722Y006712D02*
X007861Y006712D01*
X008019Y006871D02*
X007564Y006871D01*
X007564Y007029D02*
X008019Y007029D01*
X007861Y007188D02*
X007722Y007188D01*
X007777Y007346D02*
X007797Y007346D01*
X007797Y007505D02*
X007777Y007505D01*
X007771Y007663D02*
X007812Y007663D01*
X008257Y007346D02*
X008297Y007346D01*
X008297Y007188D02*
X008257Y007188D01*
X008257Y007029D02*
X008297Y007029D01*
X008297Y006930D02*
X008297Y006470D01*
X008757Y006470D01*
X008757Y006649D01*
X008476Y006930D01*
X008297Y006930D01*
X008297Y006871D02*
X008257Y006871D01*
X008257Y006712D02*
X008297Y006712D01*
X008297Y006554D02*
X008257Y006554D01*
X008536Y006871D02*
X009019Y006871D01*
X009079Y006930D02*
X008797Y006649D01*
X008797Y006470D01*
X009257Y006470D01*
X009257Y006930D01*
X009079Y006930D01*
X009079Y006970D02*
X009257Y006970D01*
X009257Y007430D01*
X008797Y007430D01*
X008797Y007251D01*
X009079Y006970D01*
X009019Y007029D02*
X008535Y007029D01*
X008694Y007188D02*
X008861Y007188D01*
X008797Y007346D02*
X008757Y007346D01*
X008797Y007470D02*
X009257Y007470D01*
X009257Y007430D01*
X009297Y007430D01*
X009297Y006970D01*
X009476Y006970D01*
X009757Y007251D01*
X009757Y007430D01*
X009297Y007430D01*
X009297Y007470D01*
X009257Y007470D01*
X009257Y007930D01*
X009079Y007930D01*
X008797Y007649D01*
X008797Y007470D01*
X008797Y007505D02*
X008757Y007505D01*
X008743Y007663D02*
X008812Y007663D01*
X008970Y007822D02*
X008585Y007822D01*
X009257Y007822D02*
X009297Y007822D01*
X009297Y007930D02*
X009476Y007930D01*
X009757Y007649D01*
X009757Y007470D01*
X009297Y007470D01*
X009297Y007930D01*
X009297Y007663D02*
X009257Y007663D01*
X009257Y007505D02*
X009297Y007505D01*
X009297Y007346D02*
X009257Y007346D01*
X009257Y007188D02*
X009297Y007188D01*
X009297Y007029D02*
X009257Y007029D01*
X009297Y006930D02*
X009476Y006930D01*
X009757Y006649D01*
X009757Y006470D01*
X009297Y006470D01*
X009297Y006930D01*
X009297Y006871D02*
X009257Y006871D01*
X009257Y006712D02*
X009297Y006712D01*
X009297Y006554D02*
X009257Y006554D01*
X009536Y006871D02*
X010019Y006871D01*
X010019Y007029D02*
X009535Y007029D01*
X009694Y007188D02*
X009861Y007188D01*
X009797Y007346D02*
X009757Y007346D01*
X009757Y007505D02*
X009797Y007505D01*
X009812Y007663D02*
X009743Y007663D01*
X009585Y007822D02*
X009970Y007822D01*
X009861Y006712D02*
X009694Y006712D01*
X009757Y006554D02*
X009797Y006554D01*
X009797Y006395D02*
X009757Y006395D01*
X009743Y006237D02*
X009812Y006237D01*
X009970Y006078D02*
X009584Y006078D01*
X008970Y006078D02*
X008584Y006078D01*
X008743Y006237D02*
X008812Y006237D01*
X008797Y006395D02*
X008757Y006395D01*
X008757Y006554D02*
X008797Y006554D01*
X008861Y006712D02*
X008694Y006712D01*
X007052Y004969D02*
X006503Y004969D01*
X006624Y004810D02*
X006930Y004810D01*
X006777Y004652D02*
X006735Y004652D01*
X006777Y004493D02*
X006777Y004493D01*
X006771Y004335D02*
X006777Y004335D01*
X006844Y004176D02*
X006705Y004176D01*
X006540Y004018D02*
X007003Y004018D01*
X007291Y003859D02*
X006083Y003859D01*
X005924Y003701D02*
X007132Y003701D01*
X007230Y003403D02*
X003628Y003403D01*
X003299Y003067D02*
X002956Y003067D01*
X003098Y003225D02*
X003158Y003225D01*
X003158Y003384D02*
X003098Y003384D01*
X002702Y003873D02*
X002433Y003873D01*
X002417Y003857D01*
X002417Y003949D01*
X002433Y003933D01*
X002762Y003933D01*
X002702Y003873D01*
X002420Y003859D02*
X002417Y003859D01*
X003098Y004335D02*
X003158Y004335D01*
X003158Y004493D02*
X003098Y004493D01*
X003044Y004652D02*
X003212Y004652D01*
X003371Y004810D02*
X002885Y004810D01*
X002858Y004969D02*
X003397Y004969D01*
X003239Y005127D02*
X003017Y005127D01*
X003098Y005286D02*
X003158Y005286D01*
X003158Y005444D02*
X003098Y005444D01*
X003093Y005603D02*
X003163Y005603D01*
X003322Y005761D02*
X002934Y005761D01*
X002968Y006078D02*
X003288Y006078D01*
X003158Y006208D02*
X003433Y005933D01*
X003823Y005933D01*
X004098Y006208D01*
X004098Y006597D01*
X003823Y006873D01*
X003433Y006873D01*
X003158Y006597D01*
X003158Y006208D01*
X003158Y006237D02*
X003098Y006237D01*
X003098Y006395D02*
X003158Y006395D01*
X003158Y006554D02*
X003098Y006554D01*
X002983Y006712D02*
X003273Y006712D01*
X003431Y006871D02*
X002825Y006871D01*
X002919Y007029D02*
X003337Y007029D01*
X003178Y007188D02*
X003077Y007188D01*
X002431Y006871D02*
X002417Y006871D01*
X002417Y005920D02*
X004041Y005920D01*
X004070Y005761D02*
X003934Y005761D01*
X004093Y005603D02*
X004188Y005603D01*
X004081Y006078D02*
X003968Y006078D01*
X004098Y006237D02*
X004228Y006237D01*
X004098Y006395D02*
X004777Y006395D01*
X004784Y006237D02*
X004611Y006237D01*
X004777Y006554D02*
X004098Y006554D01*
X003983Y006712D02*
X004832Y006712D01*
X004991Y006871D02*
X003825Y006871D01*
X003919Y007029D02*
X004991Y007029D01*
X004833Y007188D02*
X004077Y007188D01*
X004098Y007346D02*
X004777Y007346D01*
X004777Y007505D02*
X004126Y007505D01*
X004284Y007663D02*
X004783Y007663D01*
X005771Y007663D02*
X005783Y007663D01*
X005777Y007505D02*
X005777Y007505D01*
X005777Y007346D02*
X005777Y007346D01*
X005722Y007188D02*
X005833Y007188D01*
X006673Y005761D02*
X006881Y005761D01*
X006777Y005603D02*
X006777Y005603D01*
X006777Y005444D02*
X006777Y005444D01*
X006777Y005286D02*
X006777Y005286D01*
X006662Y005127D02*
X006893Y005127D01*
X007777Y004652D02*
X007777Y004652D01*
X007777Y004493D02*
X007777Y004493D01*
X008015Y002750D02*
X009091Y002750D01*
X008933Y002591D02*
X008173Y002591D01*
X008332Y002433D02*
X008774Y002433D01*
X008712Y002274D02*
X008394Y002274D01*
X008394Y002116D02*
X008712Y002116D01*
X008712Y001957D02*
X008394Y001957D01*
X008394Y001799D02*
X008712Y001799D01*
X008759Y001640D02*
X008347Y001640D01*
X008188Y001482D02*
X008918Y001482D01*
X009076Y001323D02*
X008030Y001323D01*
X007108Y001323D02*
X006061Y001323D01*
X006220Y001482D02*
X006949Y001482D01*
X006791Y001640D02*
X006378Y001640D01*
X006425Y001799D02*
X006744Y001799D01*
X006744Y001957D02*
X006425Y001957D01*
X006425Y002116D02*
X006744Y002116D01*
X006744Y002274D02*
X006425Y002274D01*
X006363Y002433D02*
X006806Y002433D01*
X006964Y002591D02*
X006205Y002591D01*
X006046Y002750D02*
X007123Y002750D01*
X009983Y002750D02*
X010898Y002750D01*
X010797Y002591D02*
X010142Y002591D01*
X010300Y002433D02*
X011257Y002433D01*
X011297Y002433D02*
X011777Y002433D01*
X011757Y002470D02*
X011757Y002649D01*
X011476Y002930D01*
X011297Y002930D01*
X011297Y002470D01*
X011757Y002470D01*
X011757Y002591D02*
X011777Y002591D01*
X011870Y002750D02*
X011657Y002750D01*
X011498Y002908D02*
X012028Y002908D01*
X011954Y003067D02*
X011573Y003067D01*
X011731Y003225D02*
X011795Y003225D01*
X011777Y003384D02*
X011757Y003384D01*
X011757Y003542D02*
X011777Y003542D01*
X011821Y003701D02*
X011706Y003701D01*
X011547Y003859D02*
X011979Y003859D01*
X012070Y003950D02*
X012424Y003950D01*
X012424Y003950D01*
X012070Y003950D01*
X012003Y004018D02*
X011524Y004018D01*
X011682Y004176D02*
X011844Y004176D01*
X011777Y004335D02*
X011757Y004335D01*
X011757Y004493D02*
X011777Y004493D01*
X011777Y004652D02*
X011755Y004652D01*
X011297Y004652D02*
X011257Y004652D01*
X011257Y004493D02*
X011297Y004493D01*
X011297Y004335D02*
X011257Y004335D01*
X011257Y004176D02*
X011297Y004176D01*
X011297Y004018D02*
X011257Y004018D01*
X011257Y003859D02*
X011297Y003859D01*
X011297Y003701D02*
X011257Y003701D01*
X011257Y003542D02*
X011297Y003542D01*
X011297Y003384D02*
X011257Y003384D01*
X011257Y003225D02*
X011297Y003225D01*
X011297Y003067D02*
X011257Y003067D01*
X011257Y002908D02*
X011297Y002908D01*
X011297Y002750D02*
X011257Y002750D01*
X011257Y002591D02*
X011297Y002591D01*
X011297Y002274D02*
X011257Y002274D01*
X011257Y002116D02*
X011297Y002116D01*
X011297Y001930D02*
X011297Y001470D01*
X011757Y001470D01*
X011757Y001649D01*
X011476Y001930D01*
X011297Y001930D01*
X011257Y001930D02*
X011079Y001930D01*
X010797Y001649D01*
X010797Y001470D01*
X011257Y001470D01*
X011257Y001930D01*
X011257Y001799D02*
X011297Y001799D01*
X011297Y001640D02*
X011257Y001640D01*
X011257Y001482D02*
X011297Y001482D01*
X011608Y001799D02*
X011919Y001799D01*
X011777Y001640D02*
X011757Y001640D01*
X011757Y001482D02*
X011777Y001482D01*
X011777Y001323D02*
X011757Y001323D01*
X012063Y001957D02*
X010362Y001957D01*
X010362Y001799D02*
X010947Y001799D01*
X010797Y001640D02*
X010315Y001640D01*
X010157Y001482D02*
X010797Y001482D01*
X010797Y001323D02*
X009998Y001323D01*
X010362Y002116D02*
X010933Y002116D01*
X010797Y002274D02*
X010362Y002274D01*
X011622Y002116D02*
X011905Y002116D01*
X011777Y002274D02*
X011757Y002274D01*
X012492Y001957D02*
X013063Y001957D01*
X013070Y001950D02*
X013424Y001950D01*
X013424Y001950D01*
X013070Y001950D01*
X012919Y001799D02*
X012636Y001799D01*
X012777Y001657D02*
X012777Y001243D01*
X012742Y001208D01*
X012813Y001208D01*
X012777Y001243D01*
X012777Y001657D01*
X012777Y001640D02*
X012777Y001640D01*
X012777Y001482D02*
X012777Y001482D01*
X012777Y001323D02*
X012777Y001323D01*
X012650Y002116D02*
X012905Y002116D01*
X012777Y002274D02*
X012777Y002274D01*
X012777Y002433D02*
X012777Y002433D01*
X012777Y002591D02*
X012777Y002591D01*
X012685Y002750D02*
X012870Y002750D01*
X013028Y002908D02*
X012526Y002908D01*
X012601Y003067D02*
X012954Y003067D01*
X013070Y002950D02*
X013391Y002950D01*
X013391Y002950D01*
X013070Y002950D01*
X012795Y003225D02*
X012760Y003225D01*
X012777Y003384D02*
X012777Y003384D01*
X012777Y003542D02*
X012777Y003542D01*
X012777Y004271D02*
X012777Y004657D01*
X012766Y004668D01*
X012873Y004775D01*
X012895Y004775D01*
X012777Y004657D01*
X012777Y004271D01*
X012777Y004271D01*
X012777Y004335D02*
X012777Y004335D01*
X012777Y004493D02*
X012777Y004493D01*
X012777Y004652D02*
X012777Y004652D01*
X014777Y006275D02*
X014777Y006596D01*
X014777Y006596D01*
X014777Y006275D01*
X014777Y006275D01*
X014777Y006395D02*
X014777Y006395D01*
X014777Y006554D02*
X014777Y006554D01*
X013782Y009238D02*
X013772Y009238D01*
X013777Y009243D01*
X013777Y009657D01*
X013772Y009662D01*
X013782Y009662D01*
X013777Y009657D01*
X013777Y009243D01*
X013782Y009238D01*
X013777Y009248D02*
X013777Y009248D01*
X013777Y009407D02*
X013777Y009407D01*
X013777Y009565D02*
X013777Y009565D01*
X012997Y011150D02*
X012997Y011150D01*
X012549Y011537D02*
X012549Y012304D01*
X012985Y012260D02*
X013029Y012260D01*
X012997Y012101D02*
X012985Y012101D01*
X012977Y011943D02*
X012997Y011943D01*
X012985Y012418D02*
X013172Y012418D01*
X011849Y011467D02*
X011753Y011467D01*
X011753Y011489D02*
X011753Y011061D01*
X011753Y011309D02*
X011849Y011309D01*
X010777Y014258D02*
X010777Y014657D01*
X010777Y014258D01*
X010777Y014258D01*
X010777Y014320D02*
X010777Y014320D01*
X010777Y014479D02*
X010777Y014479D01*
X010777Y014637D02*
X010777Y014637D01*
X010639Y014796D02*
X010916Y014796D01*
X010957Y014954D02*
X010489Y014954D01*
X010647Y015113D02*
X010908Y015113D01*
X010777Y015271D02*
X010777Y015271D01*
X010777Y015430D02*
X010777Y015430D01*
X010777Y015588D02*
X010777Y015588D01*
X010688Y015747D02*
X010867Y015747D01*
X011025Y015905D02*
X010529Y015905D01*
X010598Y016064D02*
X010957Y016064D01*
X011070Y015950D02*
X011325Y015950D01*
X011325Y015950D01*
X011070Y015950D01*
X010798Y016222D02*
X010757Y016222D01*
X010777Y016381D02*
X010777Y016381D01*
X010777Y016539D02*
X010777Y016539D01*
X010737Y016698D02*
X010818Y016698D01*
X010976Y016856D02*
X010578Y016856D01*
X010549Y017015D02*
X011006Y017015D01*
X010847Y017173D02*
X010708Y017173D01*
X010777Y017332D02*
X010777Y017332D01*
X010777Y017490D02*
X010777Y017490D01*
X010006Y017015D02*
X009549Y017015D01*
X009578Y016856D02*
X009976Y016856D01*
X009818Y016698D02*
X009737Y016698D01*
X009777Y016539D02*
X009777Y016539D01*
X009777Y016381D02*
X009777Y016381D01*
X009757Y016222D02*
X009798Y016222D01*
X009957Y016064D02*
X009598Y016064D01*
X009529Y015905D02*
X010025Y015905D01*
X009867Y015747D02*
X009688Y015747D01*
X009777Y015588D02*
X009777Y015588D01*
X009777Y015430D02*
X009777Y015430D01*
X009777Y015271D02*
X009777Y015271D01*
X009647Y015113D02*
X009908Y015113D01*
X010066Y014954D02*
X009489Y014954D01*
X009639Y014796D02*
X009916Y014796D01*
X009777Y014657D02*
X009777Y014258D01*
X009777Y014258D01*
X009777Y014657D01*
X009777Y014637D02*
X009777Y014637D01*
X009777Y014479D02*
X009777Y014479D01*
X009777Y014320D02*
X009777Y014320D01*
X008066Y014954D02*
X007489Y014954D01*
X007639Y014796D02*
X007916Y014796D01*
X007777Y014657D02*
X007777Y014258D01*
X007777Y014258D01*
X007777Y014657D01*
X007777Y014637D02*
X007777Y014637D01*
X007777Y014479D02*
X007777Y014479D01*
X007777Y014320D02*
X007777Y014320D01*
X007748Y013686D02*
X007806Y013686D01*
X007777Y013528D02*
X007777Y013528D01*
X007777Y013369D02*
X007777Y013369D01*
X007745Y013211D02*
X007810Y013211D01*
X007968Y013052D02*
X007587Y013052D01*
X007513Y012894D02*
X008014Y012894D01*
X007855Y012735D02*
X007699Y012735D01*
X007766Y012577D02*
X007777Y012577D01*
X007777Y012418D02*
X007777Y012418D01*
X007777Y012260D02*
X007740Y012260D01*
X007636Y012101D02*
X007919Y012101D01*
X007742Y011309D02*
X007100Y011309D01*
X007094Y011150D02*
X007484Y011150D01*
X007394Y010992D02*
X007007Y010992D01*
X006710Y010833D02*
X007371Y010833D01*
X007402Y010675D02*
X006552Y010675D01*
X006002Y009882D02*
X005906Y009882D01*
X007777Y009407D02*
X007777Y009407D01*
X007777Y009248D02*
X007777Y009248D01*
X006919Y012101D02*
X006239Y012101D01*
X006081Y012260D02*
X006815Y012260D01*
X006777Y012418D02*
X005922Y012418D01*
X005910Y012577D02*
X006789Y012577D01*
X006855Y012735D02*
X005910Y012735D01*
X005845Y012894D02*
X007042Y012894D01*
X006968Y013052D02*
X005644Y013052D01*
X005303Y013052D02*
X003914Y013052D01*
X005257Y014479D02*
X005297Y014479D01*
X005297Y014637D02*
X005257Y014637D01*
X005257Y014796D02*
X005297Y014796D01*
X006489Y014954D02*
X007066Y014954D01*
X006916Y014796D02*
X006639Y014796D01*
X006777Y014657D02*
X006777Y014258D01*
X006777Y014258D01*
X006777Y014657D01*
X006777Y014637D02*
X006777Y014637D01*
X006777Y014479D02*
X006777Y014479D01*
X006777Y014320D02*
X006777Y014320D01*
X006647Y015113D02*
X006908Y015113D01*
X006777Y015271D02*
X006777Y015271D01*
X006777Y015430D02*
X006777Y015430D01*
X006777Y015588D02*
X006777Y015588D01*
X006688Y015747D02*
X006867Y015747D01*
X007025Y015905D02*
X006529Y015905D01*
X006598Y016064D02*
X006957Y016064D01*
X006798Y016222D02*
X006757Y016222D01*
X006777Y016381D02*
X006777Y016381D01*
X006777Y016539D02*
X006777Y016539D01*
X006777Y017250D02*
X006777Y017634D01*
X006777Y017634D01*
X006777Y017250D01*
X006777Y017250D01*
X006777Y017332D02*
X006777Y017332D01*
X006777Y017490D02*
X006777Y017490D01*
X007297Y018430D02*
X007297Y018470D01*
X007757Y018470D01*
X007757Y018488D01*
X007746Y018562D01*
X007722Y018634D01*
X007700Y018678D01*
X007798Y018678D01*
X007777Y018657D01*
X007777Y018274D01*
X007725Y018274D01*
X007746Y018338D01*
X007757Y018412D01*
X007757Y018430D01*
X007297Y018430D01*
X007297Y018441D02*
X007777Y018441D01*
X007777Y018283D02*
X007728Y018283D01*
X007733Y018600D02*
X007777Y018600D01*
X007757Y019392D02*
X007777Y019392D01*
X007777Y019551D02*
X007757Y019551D01*
X007697Y019709D02*
X007829Y019709D01*
X007988Y019868D02*
X007539Y019868D01*
X006858Y019709D02*
X005910Y019709D01*
X006033Y019551D02*
X006797Y019551D01*
X006797Y019392D02*
X006192Y019392D01*
X008567Y019868D02*
X008988Y019868D01*
X008829Y019709D02*
X008725Y019709D01*
X008777Y019657D02*
X008777Y019243D01*
X008772Y019238D01*
X008782Y019238D01*
X008777Y019243D01*
X008777Y019657D01*
X008777Y019551D02*
X008777Y019551D01*
X008777Y019392D02*
X008777Y019392D01*
X008757Y018678D02*
X008798Y018678D01*
X008777Y018657D01*
X008777Y018274D01*
X008777Y018274D01*
X008777Y018657D01*
X008757Y018678D01*
X008777Y018600D02*
X008777Y018600D01*
X008777Y018441D02*
X008777Y018441D01*
X008777Y018283D02*
X008777Y018283D01*
X008777Y017490D02*
X008777Y017490D01*
X008777Y017332D02*
X008777Y017332D01*
X008708Y017173D02*
X008847Y017173D01*
X009708Y017173D02*
X009847Y017173D01*
X009777Y017332D02*
X009777Y017332D01*
X009777Y017490D02*
X009777Y017490D01*
X009777Y018274D02*
X009777Y018420D01*
X009924Y018274D01*
X009777Y018274D01*
X009777Y018283D02*
X009915Y018283D01*
X010673Y019234D02*
X010673Y019234D01*
X010673Y019392D02*
X010673Y019392D01*
X010673Y019551D02*
X010673Y019551D01*
X010673Y019709D02*
X010673Y019709D01*
X010673Y019715D02*
X010673Y019715D01*
X007777Y016539D02*
X007777Y016539D01*
X007777Y016381D02*
X007777Y016381D01*
X007757Y016222D02*
X007798Y016222D01*
X007957Y016064D02*
X007598Y016064D01*
X007529Y015905D02*
X008025Y015905D01*
X007867Y015747D02*
X007688Y015747D01*
X007777Y015588D02*
X007777Y015588D01*
X007777Y015430D02*
X007777Y015430D01*
X007777Y015271D02*
X007777Y015271D01*
X007647Y015113D02*
X007908Y015113D01*
X002638Y017966D02*
X002618Y017966D01*
X002618Y018124D02*
X002638Y018124D01*
X002638Y018283D02*
X002618Y018283D01*
X002429Y017966D02*
X002417Y017966D01*
X002417Y011943D02*
X002423Y011943D01*
X002946Y002750D02*
X003310Y002750D01*
X003158Y002591D02*
X003098Y002591D01*
X003098Y002433D02*
X003158Y002433D01*
X003158Y002274D02*
X003098Y002274D01*
X003005Y002116D02*
X003250Y002116D01*
X013742Y001208D02*
X013777Y001243D01*
X013777Y001596D01*
X013777Y001596D01*
X013777Y001243D01*
X013813Y001208D01*
X013742Y001208D01*
X013777Y001323D02*
X013777Y001323D01*
X013777Y001482D02*
X013777Y001482D01*
X014777Y001482D02*
X014777Y001482D01*
X014777Y001613D02*
X014777Y001243D01*
X014777Y001613D01*
X014777Y001613D01*
X014777Y001323D02*
X014777Y001323D01*
X014777Y001243D02*
X014742Y001208D01*
X014813Y001208D01*
X014777Y001243D01*
X014777Y002279D02*
X014777Y002657D01*
X014750Y002684D01*
X014805Y002684D01*
X014777Y002657D01*
X014777Y002279D01*
X014777Y002279D01*
X014777Y002433D02*
X014777Y002433D01*
X014777Y002591D02*
X014777Y002591D01*
D11*
X003674Y019196D02*
X003454Y019196D01*
X003454Y019050D02*
X003454Y019490D01*
X003674Y019490D01*
X003747Y019417D01*
X003747Y019270D01*
X003674Y019196D01*
X003294Y019050D02*
X003147Y019050D01*
X003220Y019050D02*
X003220Y019490D01*
X003147Y019490D02*
X003294Y019490D01*
X003377Y019800D02*
X003524Y019800D01*
X003450Y019800D02*
X003450Y020240D01*
X003377Y020240D02*
X003524Y020240D01*
X003684Y020167D02*
X003684Y019873D01*
X003757Y019800D01*
X003904Y019800D01*
X003978Y019873D01*
X003978Y020167D01*
X003904Y020240D01*
X003757Y020240D01*
X003684Y020167D01*
X004144Y020240D02*
X004144Y019800D01*
X004438Y019800D02*
X004144Y020240D01*
X004438Y020240D02*
X004438Y019800D01*
X003210Y019800D02*
X003210Y020240D01*
X002917Y020240D02*
X003210Y019800D01*
X002917Y019800D02*
X002917Y020240D01*
X002750Y020167D02*
X002750Y019873D01*
X002676Y019800D01*
X002530Y019800D01*
X002456Y019873D01*
X002456Y020167D01*
X002530Y020240D01*
X002676Y020240D01*
X002750Y020167D01*
X002686Y019490D02*
X002907Y019490D01*
X002980Y019417D01*
X002980Y019123D01*
X002907Y019050D01*
X002686Y019050D01*
X002686Y019490D01*
D12*
X002628Y001403D03*
X016628Y001403D03*
D13*
X016628Y002403D03*
X016628Y003403D03*
X016628Y004403D03*
X016628Y005403D03*
X016628Y006403D03*
X016628Y007403D03*
X016628Y008403D03*
X016628Y009403D03*
X016628Y010403D03*
X016628Y011403D03*
X016628Y012403D03*
X016628Y013403D03*
X016628Y014403D03*
X016628Y015403D03*
X016628Y016403D03*
X016628Y017403D03*
X016628Y018403D03*
X017628Y018403D03*
X017628Y017403D03*
X017628Y016403D03*
X017628Y015403D03*
X017628Y014403D03*
X017628Y013403D03*
X017628Y012403D03*
X017628Y011403D03*
X017628Y010403D03*
X017628Y009403D03*
X017628Y008403D03*
X017628Y007403D03*
X017628Y006403D03*
X017628Y005403D03*
X017628Y004403D03*
X017628Y003403D03*
X017628Y002403D03*
X017628Y001403D03*
X003628Y001403D03*
X003628Y002403D03*
X003628Y003403D03*
X003628Y004403D03*
X003628Y005403D03*
X003628Y006403D03*
X003628Y007403D03*
X003628Y008403D03*
X003628Y009403D03*
X003628Y010403D03*
X003628Y011403D03*
X003628Y012403D03*
X003628Y013403D03*
X003628Y014403D03*
X003628Y015403D03*
X003628Y016403D03*
X003628Y017403D03*
X003628Y018403D03*
X002628Y018403D03*
X002628Y017403D03*
X002628Y016403D03*
X002628Y015403D03*
X002628Y014403D03*
X002628Y013403D03*
X002628Y012403D03*
X002628Y011403D03*
X002628Y010403D03*
X002628Y009403D03*
X002628Y008403D03*
X002628Y007403D03*
X002628Y006403D03*
X002628Y005403D03*
X002628Y004403D03*
X002628Y003403D03*
X002628Y002403D03*
D14*
X005600Y002029D03*
X007569Y002029D03*
X009537Y002029D03*
X012608Y019233D03*
X014577Y019233D03*
D15*
X010673Y019478D02*
X010673Y019951D01*
X005473Y019951D02*
X005473Y019478D01*
X005473Y012651D02*
X005473Y012178D01*
X010673Y012178D02*
X010673Y012651D01*
D16*
X011722Y012304D03*
X012549Y012304D03*
D17*
X012549Y011537D03*
X011801Y011537D03*
D18*
X012258Y016483D02*
X012258Y017023D01*
X013258Y017023D02*
X013258Y016483D01*
X014258Y016483D02*
X014258Y017023D01*
D19*
X010199Y010056D03*
X007836Y010844D03*
X005474Y010056D03*
X005474Y005332D03*
X010199Y005332D03*
D20*
X013553Y014273D03*
X013553Y015021D03*
X014419Y014647D03*
D21*
X011277Y014450D03*
X011277Y015450D03*
X010277Y015450D03*
X010277Y014450D03*
X009277Y014450D03*
X009277Y015450D03*
X009277Y016450D03*
X009277Y017450D03*
X009277Y018450D03*
X009277Y019450D03*
X008277Y019450D03*
X008277Y018450D03*
X008277Y017450D03*
X007277Y017450D03*
X006277Y017450D03*
X005277Y017450D03*
X005277Y016450D03*
X005277Y015450D03*
X005277Y014450D03*
X006277Y014450D03*
X006277Y015450D03*
X006277Y016450D03*
X007277Y016450D03*
X007277Y015450D03*
X007277Y014450D03*
X007277Y013450D03*
X008277Y013450D03*
X008277Y012450D03*
X009277Y012450D03*
X009277Y013450D03*
X008277Y014450D03*
X008277Y015450D03*
X008277Y016450D03*
X010277Y016450D03*
X010277Y017450D03*
X011277Y017450D03*
X011277Y016450D03*
X007277Y019450D03*
X011277Y010450D03*
X011277Y009450D03*
X011277Y008450D03*
X011277Y007450D03*
X010277Y007450D03*
X009277Y007450D03*
X009277Y006450D03*
X010277Y006450D03*
X011277Y006450D03*
X011277Y005450D03*
X011277Y004450D03*
X011277Y003450D03*
X011277Y002450D03*
X011277Y001450D03*
X012277Y001450D03*
X012277Y002450D03*
X012277Y003450D03*
X012277Y004450D03*
X012277Y005450D03*
X012277Y006450D03*
X012277Y007450D03*
X012277Y008450D03*
X012277Y009450D03*
X012277Y010450D03*
X013277Y010450D03*
X013277Y009450D03*
X013277Y008450D03*
X013277Y007450D03*
X013277Y006450D03*
X013277Y005450D03*
X013277Y004450D03*
X013277Y003450D03*
X013277Y002450D03*
X013277Y001450D03*
X014277Y001450D03*
X014277Y002450D03*
X014277Y003450D03*
X014277Y004450D03*
X014277Y005450D03*
X014277Y006450D03*
X014277Y007450D03*
X014277Y008450D03*
X014277Y009450D03*
X014277Y010450D03*
X015277Y010450D03*
X015277Y009450D03*
X015277Y008450D03*
X015277Y007450D03*
X015277Y006450D03*
X015277Y005450D03*
X015277Y004450D03*
X015277Y003450D03*
X015277Y002450D03*
X015277Y001450D03*
X008277Y004450D03*
X007277Y004450D03*
X007277Y005450D03*
X007277Y006450D03*
X006277Y006450D03*
X006277Y005450D03*
X005277Y006450D03*
X005277Y007450D03*
X006277Y007450D03*
X007277Y007450D03*
X007277Y008450D03*
X007277Y009450D03*
X006277Y009450D03*
X008277Y009450D03*
X008277Y008450D03*
X008277Y007450D03*
X008277Y006450D03*
X008277Y005450D03*
D22*
X006277Y004450D03*
X006277Y008450D03*
X007277Y012450D03*
X007277Y018450D03*
D23*
X015064Y016714D02*
X015664Y016714D01*
X015664Y015714D02*
X015064Y015714D01*
X015064Y014714D02*
X015664Y014714D01*
X015664Y013714D02*
X015064Y013714D01*
X015064Y012714D02*
X015664Y012714D01*
X015664Y011714D02*
X015064Y011714D01*
D24*
X017037Y019025D03*
X017037Y020001D03*
D25*
X017039Y020029D03*
X017157Y019541D03*
X017035Y019029D03*
D26*
X017037Y019033D03*
X017037Y020048D03*
X017037Y020300D03*
D27*
X017037Y020296D03*
X017037Y020064D03*
X017037Y019037D03*
D28*
X017037Y019041D03*
X017037Y020076D03*
X017037Y020293D03*
D29*
X017037Y020289D03*
X017159Y019493D03*
X017037Y019044D03*
D30*
X017037Y019048D03*
X017037Y020096D03*
D31*
X017039Y020104D03*
X017035Y019052D03*
D32*
X017037Y019056D03*
D33*
X017035Y019060D03*
X017039Y020277D03*
D34*
X017037Y019064D03*
D35*
X017037Y019068D03*
X017100Y020218D03*
D36*
X017104Y020226D03*
X017104Y020230D03*
X017096Y020237D03*
X017037Y020139D03*
X017037Y019072D03*
D37*
X017035Y019076D03*
X017039Y020147D03*
D38*
X017039Y020151D03*
X017039Y020265D03*
X017035Y019080D03*
D39*
X017037Y019084D03*
X017037Y020155D03*
D40*
X017037Y019088D03*
D41*
X017037Y019092D03*
D42*
X017037Y019096D03*
X017037Y020170D03*
X017037Y020257D03*
D43*
X017039Y020174D03*
X017035Y019100D03*
D44*
X017035Y019104D03*
X017039Y020178D03*
D45*
X017037Y019107D03*
D46*
X017035Y019111D03*
X017039Y020182D03*
D47*
X017035Y019115D03*
D48*
X017037Y019119D03*
D49*
X017035Y019123D03*
D50*
X017035Y019127D03*
D51*
X017037Y019131D03*
D52*
X017035Y019135D03*
X017039Y020206D03*
D53*
X017037Y019139D03*
D54*
X017035Y019143D03*
D55*
X017037Y019147D03*
D56*
X017035Y019151D03*
D57*
X017037Y019155D03*
D58*
X017035Y019159D03*
D59*
X017037Y019163D03*
D60*
X017035Y019167D03*
X017035Y019170D03*
D61*
X017037Y019174D03*
D62*
X017035Y019178D03*
D63*
X017037Y019182D03*
D64*
X017035Y019186D03*
X017035Y019190D03*
D65*
X017037Y019194D03*
D66*
X017035Y019198D03*
D67*
X017037Y019202D03*
X017037Y019206D03*
D68*
X017035Y019210D03*
D69*
X017037Y019214D03*
X017037Y019218D03*
X017037Y019485D03*
D70*
X017039Y019481D03*
X017035Y019226D03*
X017035Y019222D03*
D71*
X017037Y019230D03*
X017037Y019474D03*
X017037Y019478D03*
D72*
X017039Y019470D03*
X017039Y019466D03*
X017035Y019237D03*
X017035Y019233D03*
D73*
X017037Y019241D03*
X017037Y019245D03*
X017037Y019454D03*
X017037Y019458D03*
X017037Y019462D03*
D74*
X017035Y019253D03*
X017035Y019249D03*
D75*
X017037Y019257D03*
D76*
X017035Y019261D03*
X017035Y019265D03*
X017035Y019269D03*
D77*
X017037Y019273D03*
X017037Y019277D03*
D78*
X017035Y019281D03*
X017035Y019285D03*
D79*
X017037Y019289D03*
X017037Y019293D03*
D80*
X017035Y019296D03*
X017035Y019300D03*
D81*
X017037Y019304D03*
X017037Y019308D03*
D82*
X017037Y019312D03*
D83*
X017039Y019316D03*
D84*
X017039Y019320D03*
D85*
X017039Y019324D03*
D86*
X017039Y019328D03*
X017039Y019407D03*
D87*
X017039Y019403D03*
X017039Y019399D03*
X017039Y019336D03*
X017039Y019332D03*
D88*
X017037Y019340D03*
X017037Y019395D03*
D89*
X017039Y019391D03*
X017039Y019387D03*
X017039Y019383D03*
X017039Y019379D03*
X017039Y019375D03*
X017039Y019371D03*
X017039Y019367D03*
X017039Y019363D03*
X017039Y019359D03*
X017039Y019356D03*
X017039Y019352D03*
X017039Y019348D03*
X017039Y019344D03*
D90*
X017037Y019411D03*
D91*
X017037Y019415D03*
D92*
X017039Y019419D03*
D93*
X017039Y019422D03*
D94*
X016817Y019568D03*
X016805Y019560D03*
X016801Y019556D03*
X016758Y019489D03*
X017037Y019871D03*
X017266Y020253D03*
D95*
X017037Y020092D03*
X017155Y019489D03*
D96*
X016840Y019580D03*
X016789Y019548D03*
X016785Y019544D03*
X016781Y019541D03*
X016777Y019537D03*
X016773Y019529D03*
X016770Y019525D03*
X016766Y019517D03*
X016762Y019509D03*
X016758Y019501D03*
X016758Y019497D03*
X016758Y019493D03*
X017037Y019867D03*
X017037Y020340D03*
D97*
X017039Y020084D03*
X017157Y019497D03*
D98*
X017159Y019501D03*
X017037Y020080D03*
D99*
X016775Y019533D03*
X016768Y019521D03*
X016764Y019513D03*
X016760Y019505D03*
D100*
X017157Y019505D03*
D101*
X017157Y019509D03*
X017157Y019513D03*
X017039Y020072D03*
D102*
X017039Y020068D03*
X017157Y019517D03*
D103*
X017157Y019521D03*
D104*
X017159Y019525D03*
X017037Y020052D03*
D105*
X017039Y020044D03*
X017161Y019529D03*
D106*
X017159Y019533D03*
D107*
X017159Y019537D03*
X017037Y020037D03*
X017037Y020304D03*
D108*
X016917Y020253D03*
X016913Y020249D03*
X017157Y019544D03*
D109*
X017122Y019548D03*
X017039Y019966D03*
D110*
X017037Y019745D03*
X017159Y019639D03*
X017348Y019548D03*
D111*
X016831Y019576D03*
X016823Y019572D03*
X016811Y019564D03*
X016795Y019552D03*
D112*
X017124Y019552D03*
X017037Y020324D03*
D113*
X017124Y019556D03*
D114*
X017128Y019560D03*
D115*
X017130Y019564D03*
D116*
X017132Y019568D03*
D117*
X017136Y019572D03*
D118*
X017134Y019576D03*
X017126Y019584D03*
D119*
X017132Y019580D03*
D120*
X017153Y019627D03*
X016775Y019584D03*
D121*
X016896Y019584D03*
X017037Y019804D03*
X017140Y019942D03*
D122*
X017037Y020017D03*
X017053Y019592D03*
X017053Y019588D03*
D123*
X017053Y019596D03*
D124*
X017051Y019600D03*
X017039Y020009D03*
D125*
X017016Y019604D03*
D126*
X017031Y019647D03*
X017157Y019635D03*
X017236Y019604D03*
D127*
X017016Y019607D03*
X017016Y019611D03*
D128*
X017035Y019737D03*
X017161Y019643D03*
X017240Y019607D03*
D129*
X017016Y019615D03*
X017016Y019619D03*
D130*
X017016Y019623D03*
D131*
X016878Y019627D03*
D132*
X017022Y019627D03*
X017037Y019836D03*
X016951Y019954D03*
X017037Y020344D03*
D133*
X017037Y019741D03*
X016872Y019631D03*
D134*
X017022Y019631D03*
X017037Y019824D03*
X016966Y019922D03*
X016959Y019930D03*
X016955Y019938D03*
X017250Y020111D03*
X017254Y020115D03*
X017258Y020119D03*
X017258Y020123D03*
D135*
X017037Y019753D03*
X017037Y019749D03*
X017155Y019631D03*
D136*
X017023Y019635D03*
X017142Y019950D03*
X017142Y019954D03*
D137*
X017027Y019639D03*
D138*
X017029Y019643D03*
X017037Y019777D03*
D139*
X017161Y019647D03*
D140*
X017163Y019651D03*
X017037Y019730D03*
D141*
X017165Y019655D03*
D142*
X017037Y019718D03*
D143*
X017037Y019722D03*
X017037Y019726D03*
D144*
X017037Y019733D03*
D145*
X017037Y019757D03*
D146*
X017037Y019761D03*
D147*
X017037Y019765D03*
X017037Y019769D03*
D148*
X017037Y019773D03*
D149*
X017037Y019781D03*
X017037Y019785D03*
X016710Y020226D03*
D150*
X017037Y020348D03*
X017037Y019789D03*
D151*
X017037Y019793D03*
D152*
X017037Y019796D03*
X017037Y019800D03*
X017132Y019926D03*
D153*
X017037Y019808D03*
D154*
X017037Y019812D03*
X017037Y019816D03*
D155*
X017037Y019820D03*
X017140Y019958D03*
D156*
X017039Y019828D03*
X016953Y019942D03*
X017260Y020127D03*
D157*
X016951Y019946D03*
X017037Y019832D03*
D158*
X017037Y019840D03*
D159*
X017039Y019844D03*
X016953Y019958D03*
D160*
X017037Y019848D03*
D161*
X017037Y019852D03*
D162*
X017037Y019856D03*
D163*
X017039Y019859D03*
D164*
X017037Y019863D03*
D165*
X017039Y019875D03*
X017272Y020249D03*
D166*
X017037Y019879D03*
X016809Y020190D03*
X016805Y020194D03*
D167*
X017037Y019883D03*
D168*
X017037Y019887D03*
X017037Y019891D03*
X017277Y020241D03*
D169*
X017037Y020336D03*
X017037Y019895D03*
D170*
X017037Y019899D03*
D171*
X017037Y019903D03*
X017037Y019907D03*
D172*
X017037Y019911D03*
D173*
X017037Y019915D03*
X017037Y020332D03*
D174*
X017039Y019919D03*
D175*
X017126Y019922D03*
X017134Y019930D03*
X017138Y019934D03*
X017138Y019938D03*
D176*
X016960Y019926D03*
X016957Y019934D03*
D177*
X017142Y019946D03*
D178*
X016953Y019950D03*
X017260Y020131D03*
D179*
X017037Y019962D03*
D180*
X017037Y019970D03*
D181*
X017037Y019974D03*
X017037Y020320D03*
D182*
X017037Y019978D03*
D183*
X017039Y019981D03*
D184*
X017037Y019985D03*
D185*
X017037Y019989D03*
X016947Y020115D03*
X016943Y020119D03*
X017037Y020316D03*
D186*
X016941Y020123D03*
X016949Y020111D03*
X017039Y019993D03*
D187*
X017039Y019997D03*
X016941Y020131D03*
D188*
X017037Y020005D03*
X017037Y020312D03*
D189*
X017039Y020013D03*
D190*
X017037Y020021D03*
X017163Y020190D03*
X017167Y020194D03*
X017037Y020308D03*
D191*
X016909Y020245D03*
X017039Y020025D03*
X017169Y020198D03*
D192*
X017037Y020033D03*
X016907Y020241D03*
D193*
X017039Y020041D03*
D194*
X017039Y020056D03*
D195*
X017037Y020060D03*
D196*
X017039Y020088D03*
D197*
X017039Y020100D03*
X017039Y020285D03*
D198*
X017037Y020107D03*
D199*
X016939Y020127D03*
D200*
X016941Y020135D03*
D201*
X017260Y020135D03*
D202*
X017037Y020143D03*
D203*
X017039Y020159D03*
D204*
X017039Y020163D03*
X017039Y020261D03*
D205*
X017039Y020167D03*
D206*
X017037Y020186D03*
D207*
X016803Y020198D03*
X017275Y020245D03*
D208*
X016803Y020202D03*
D209*
X017167Y020202D03*
D210*
X016720Y020210D03*
X016716Y020214D03*
X016712Y020218D03*
X016712Y020222D03*
D211*
X017094Y020210D03*
X017098Y020214D03*
X017102Y020222D03*
D212*
X016716Y020237D03*
X016712Y020233D03*
X016709Y020230D03*
D213*
X017039Y020269D03*
X017102Y020233D03*
D214*
X017039Y020273D03*
D215*
X017039Y020281D03*
D216*
X017037Y020328D03*
D217*
X012854Y014991D03*
X011309Y013328D03*
X010305Y013328D03*
X010199Y011596D03*
X012805Y009942D03*
X013789Y010789D03*
X014616Y013210D03*
X013789Y007974D03*
X011762Y006970D03*
X013770Y002954D03*
X016289Y005926D03*
X017411Y006911D03*
X017136Y001674D03*
X006722Y011241D03*
X005679Y011556D03*
X006250Y013131D03*
X005010Y013584D03*
X007785Y017009D03*
X005246Y018643D03*
X004419Y005907D03*
D218*
X011277Y005450D02*
X011691Y005863D01*
X016226Y005863D01*
X016289Y005926D01*
X016628Y006403D02*
X015899Y006403D01*
X015522Y006025D01*
X011959Y006025D01*
X011762Y006222D01*
X011762Y006970D01*
X012770Y005025D02*
X012277Y004533D01*
X012277Y004450D01*
X012864Y004037D02*
X016262Y004037D01*
X016628Y004403D01*
X017088Y004863D02*
X017628Y005403D01*
X017088Y004863D02*
X013651Y004863D01*
X013277Y004489D01*
X013277Y004450D01*
X012864Y004037D02*
X012277Y003450D01*
X013277Y003450D02*
X013277Y003493D01*
X013648Y003863D01*
X017088Y003863D01*
X017628Y004403D01*
X016628Y005403D02*
X016250Y005025D01*
X012770Y005025D01*
X014277Y006450D02*
X014691Y006863D01*
X017352Y006863D01*
X017411Y006911D01*
X014277Y003450D02*
X014793Y002934D01*
X016096Y002934D01*
X016628Y002403D01*
X016151Y001970D02*
X017195Y001970D01*
X017628Y002403D01*
X017018Y001793D02*
X017136Y001674D01*
X017018Y001793D02*
X016092Y001793D01*
X016022Y001863D01*
X013691Y001863D01*
X013277Y001450D01*
X014025Y002029D02*
X013770Y002285D01*
X013770Y002954D01*
X014025Y002029D02*
X016092Y002029D01*
X016151Y001970D01*
D219*
X010199Y011596D02*
X010159Y011635D01*
X006253Y011635D01*
X005473Y012415D01*
X010305Y013328D02*
X011309Y013328D01*
X011277Y014450D02*
X011277Y015450D01*
X011695Y015867D01*
X013081Y015867D01*
X013258Y016044D01*
X013258Y016753D01*
X012258Y016753D02*
X012258Y017576D01*
X011880Y017954D01*
X004077Y017954D01*
X003628Y018403D01*
D220*
X008277Y005450D02*
X010081Y005450D01*
X010199Y005332D01*
M02*
