G75*
%MOIN*%
%OFA0B0*%
%FSLAX24Y24*%
%IPPOS*%
%LPD*%
%AMOC8*
5,1,8,0,0,1.08239X$1,22.5*
%
%ADD10C,0.0160*%
%ADD11C,0.0080*%
%ADD12C,0.0040*%
%ADD13C,0.0100*%
%ADD14C,0.0060*%
D10*
X002057Y000848D02*
X018199Y000848D01*
X018199Y020533D01*
X002057Y020533D01*
X002057Y000848D01*
D11*
X013162Y011399D02*
X013162Y012186D01*
X013565Y011793D01*
X013162Y011399D01*
X012007Y013730D02*
X014587Y013730D01*
X014587Y015130D01*
X012007Y015130D01*
X012007Y013730D01*
D12*
X013049Y014547D02*
X013126Y014470D01*
X013280Y014470D01*
X013356Y014547D01*
X013510Y014547D02*
X013510Y014624D01*
X013587Y014701D01*
X013740Y014701D01*
X013817Y014777D01*
X013817Y014854D01*
X013740Y014931D01*
X013587Y014931D01*
X013510Y014854D01*
X013356Y014854D02*
X013280Y014931D01*
X013126Y014931D01*
X013049Y014854D01*
X013049Y014777D01*
X013126Y014701D01*
X013049Y014624D01*
X013049Y014547D01*
X013126Y014701D02*
X013203Y014701D01*
X013510Y014547D02*
X013587Y014470D01*
X013740Y014470D01*
X013817Y014547D01*
X013970Y014547D02*
X013970Y014931D01*
X014277Y014931D02*
X014277Y014547D01*
X014200Y014470D01*
X014047Y014470D01*
X013970Y014547D01*
X013663Y014394D02*
X013663Y015007D01*
X014128Y012543D02*
X012348Y012543D01*
X011745Y011568D02*
X011515Y011568D01*
X011438Y011491D01*
X011438Y011184D01*
X011515Y011107D01*
X011745Y011107D01*
X011745Y011568D01*
X011285Y011491D02*
X011208Y011568D01*
X011055Y011568D01*
X010978Y011491D01*
X010978Y011414D01*
X011285Y011107D01*
X010978Y011107D01*
X010840Y011224D02*
X010764Y011147D01*
X010840Y011224D02*
X010840Y011377D01*
X010764Y011454D01*
X010687Y011454D01*
X010380Y011147D01*
X010380Y011454D01*
X010457Y010993D02*
X010380Y010917D01*
X010380Y010763D01*
X010457Y010686D01*
X010764Y010686D01*
X010840Y010763D01*
X010840Y010917D01*
X010764Y010993D01*
X010840Y010533D02*
X010840Y010379D01*
X010840Y010456D02*
X010380Y010456D01*
X010380Y010379D02*
X010380Y010533D01*
X012348Y011043D02*
X014128Y011043D01*
X005691Y010988D02*
X005230Y010988D01*
X005230Y011141D02*
X005230Y010834D01*
X005230Y010681D02*
X005384Y010527D01*
X005384Y010604D02*
X005384Y010374D01*
X005230Y010374D02*
X005691Y010374D01*
X005691Y010604D01*
X005614Y010681D01*
X005461Y010681D01*
X005384Y010604D01*
X005537Y010834D02*
X005691Y010988D01*
D13*
X008355Y011597D02*
X008355Y010177D01*
X009815Y010177D01*
X009815Y011597D01*
X008355Y011597D01*
D14*
X008535Y011287D02*
X008537Y011307D01*
X008543Y011325D01*
X008552Y011343D01*
X008564Y011358D01*
X008579Y011370D01*
X008597Y011379D01*
X008615Y011385D01*
X008635Y011387D01*
X008655Y011385D01*
X008673Y011379D01*
X008691Y011370D01*
X008706Y011358D01*
X008718Y011343D01*
X008727Y011325D01*
X008733Y011307D01*
X008735Y011287D01*
X008733Y011267D01*
X008727Y011249D01*
X008718Y011231D01*
X008706Y011216D01*
X008691Y011204D01*
X008673Y011195D01*
X008655Y011189D01*
X008635Y011187D01*
X008615Y011189D01*
X008597Y011195D01*
X008579Y011204D01*
X008564Y011216D01*
X008552Y011231D01*
X008543Y011249D01*
X008537Y011267D01*
X008535Y011287D01*
M02*
