G75*
%MOIN*%
%OFA0B0*%
%FSLAX24Y24*%
%IPPOS*%
%LPD*%
%AMOC8*
5,1,8,0,0,1.08239X$1,22.5*
%
%ADD10C,0.0160*%
%ADD11C,0.0240*%
%ADD12C,0.0060*%
%ADD13C,0.0100*%
%ADD14C,0.0050*%
%ADD15R,0.0118X0.0059*%
%ADD16R,0.0118X0.0118*%
%ADD17C,0.0080*%
%ADD18C,0.0040*%
%ADD19R,0.1455X0.0013*%
%ADD20R,0.1573X0.0013*%
%ADD21R,0.1665X0.0013*%
%ADD22R,0.1731X0.0013*%
%ADD23R,0.1796X0.0013*%
%ADD24R,0.1849X0.0013*%
%ADD25R,0.1888X0.0013*%
%ADD26R,0.1927X0.0013*%
%ADD27R,0.1967X0.0013*%
%ADD28R,0.2006X0.0013*%
%ADD29R,0.2045X0.0013*%
%ADD30R,0.2071X0.0013*%
%ADD31R,0.2098X0.0013*%
%ADD32R,0.2137X0.0013*%
%ADD33R,0.2150X0.0013*%
%ADD34R,0.2176X0.0013*%
%ADD35R,0.2203X0.0013*%
%ADD36R,0.2229X0.0013*%
%ADD37R,0.2242X0.0013*%
%ADD38R,0.2268X0.0013*%
%ADD39R,0.2281X0.0013*%
%ADD40R,0.2307X0.0013*%
%ADD41R,0.2321X0.0013*%
%ADD42R,0.2334X0.0013*%
%ADD43R,0.2360X0.0013*%
%ADD44R,0.2373X0.0013*%
%ADD45R,0.2386X0.0013*%
%ADD46R,0.2399X0.0013*%
%ADD47R,0.2412X0.0013*%
%ADD48R,0.2439X0.0013*%
%ADD49R,0.2452X0.0013*%
%ADD50R,0.2465X0.0013*%
%ADD51R,0.2478X0.0013*%
%ADD52R,0.2491X0.0013*%
%ADD53R,0.2504X0.0013*%
%ADD54R,0.2517X0.0013*%
%ADD55R,0.2530X0.0013*%
%ADD56R,0.2543X0.0013*%
%ADD57R,0.2556X0.0013*%
%ADD58R,0.2570X0.0013*%
%ADD59R,0.2583X0.0013*%
%ADD60R,0.2596X0.0013*%
%ADD61R,0.2609X0.0013*%
%ADD62R,0.2622X0.0013*%
%ADD63R,0.2635X0.0013*%
%ADD64R,0.2648X0.0013*%
%ADD65R,0.2661X0.0013*%
%ADD66R,0.2674X0.0013*%
%ADD67R,0.2688X0.0013*%
%ADD68R,0.2701X0.0013*%
%ADD69R,0.2714X0.0013*%
%ADD70R,0.2727X0.0013*%
%ADD71R,0.2740X0.0013*%
%ADD72R,0.2753X0.0013*%
%ADD73R,0.2766X0.0013*%
%ADD74R,0.2779X0.0013*%
%ADD75R,0.2792X0.0013*%
%ADD76R,0.2806X0.0013*%
%ADD77R,0.3081X0.0013*%
%ADD78R,0.3146X0.0013*%
%ADD79R,0.3186X0.0013*%
%ADD80R,0.3225X0.0013*%
%ADD81R,0.3251X0.0013*%
%ADD82R,0.3264X0.0013*%
%ADD83R,0.3278X0.0013*%
%ADD84R,0.3238X0.0013*%
%ADD85R,0.3199X0.0013*%
%ADD86R,0.3160X0.0013*%
%ADD87R,0.3107X0.0013*%
%ADD88R,0.0774X0.0013*%
%ADD89R,0.0760X0.0013*%
%ADD90R,0.1822X0.0013*%
%ADD91R,0.0747X0.0013*%
%ADD92R,0.0734X0.0013*%
%ADD93R,0.1783X0.0013*%
%ADD94R,0.1770X0.0013*%
%ADD95R,0.1757X0.0013*%
%ADD96R,0.1704X0.0013*%
%ADD97R,0.1678X0.0013*%
%ADD98R,0.1639X0.0013*%
%ADD99R,0.1613X0.0013*%
%ADD100R,0.1586X0.0013*%
%ADD101R,0.1560X0.0013*%
%ADD102R,0.1508X0.0013*%
%ADD103R,0.1232X0.0013*%
%ADD104R,0.0184X0.0013*%
%ADD105R,0.1193X0.0013*%
%ADD106R,0.1180X0.0013*%
%ADD107R,0.1141X0.0013*%
%ADD108R,0.1101X0.0013*%
%ADD109R,0.1075X0.0013*%
%ADD110R,0.1036X0.0013*%
%ADD111R,0.1023X0.0013*%
%ADD112R,0.1009X0.0013*%
%ADD113R,0.0249X0.0013*%
%ADD114R,0.0446X0.0013*%
%ADD115R,0.1495X0.0013*%
%ADD116R,0.1481X0.0013*%
%ADD117R,0.1468X0.0013*%
%ADD118R,0.1442X0.0013*%
%ADD119R,0.1206X0.0013*%
%ADD120R,0.0197X0.0013*%
%ADD121R,0.0118X0.0013*%
%ADD122R,0.0052X0.0013*%
%ADD123R,0.1154X0.0013*%
%ADD124R,0.0210X0.0013*%
%ADD125R,0.0616X0.0013*%
%ADD126R,0.0144X0.0013*%
%ADD127R,0.0564X0.0013*%
%ADD128R,0.0026X0.0013*%
%ADD129R,0.0498X0.0013*%
%ADD130R,0.0170X0.0013*%
%ADD131R,0.0420X0.0013*%
%ADD132R,0.0341X0.0013*%
%ADD133R,0.0105X0.0013*%
%ADD134R,0.0066X0.0013*%
%ADD135R,0.0039X0.0013*%
%ADD136R,0.0013X0.0013*%
%ADD137R,0.0092X0.0013*%
%ADD138R,0.0223X0.0013*%
%ADD139R,0.0275X0.0013*%
%ADD140R,0.0302X0.0013*%
%ADD141R,0.0328X0.0013*%
%ADD142R,0.0354X0.0013*%
%ADD143R,0.0367X0.0013*%
%ADD144R,0.0380X0.0013*%
%ADD145R,0.0406X0.0013*%
%ADD146R,0.0433X0.0013*%
%ADD147R,0.0459X0.0013*%
%ADD148R,0.0485X0.0013*%
%ADD149R,0.0511X0.0013*%
%ADD150R,0.0538X0.0013*%
%ADD151R,0.0590X0.0013*%
%ADD152R,0.0642X0.0013*%
%ADD153R,0.0669X0.0013*%
%ADD154R,0.0695X0.0013*%
%ADD155R,0.0721X0.0013*%
%ADD156R,0.0800X0.0013*%
%ADD157R,0.0813X0.0013*%
%ADD158R,0.0826X0.0013*%
%ADD159R,0.0852X0.0013*%
%ADD160R,0.0878X0.0013*%
%ADD161R,0.0891X0.0013*%
%ADD162R,0.0905X0.0013*%
%ADD163R,0.0931X0.0013*%
%ADD164R,0.0957X0.0013*%
%ADD165R,0.0970X0.0013*%
%ADD166R,0.0983X0.0013*%
%ADD167R,0.0551X0.0013*%
%ADD168R,0.0524X0.0013*%
%ADD169R,0.0472X0.0013*%
%ADD170R,0.0629X0.0013*%
%ADD171R,0.1219X0.0013*%
%ADD172R,0.1245X0.0013*%
%ADD173R,0.1259X0.0013*%
%ADD174R,0.1272X0.0013*%
%ADD175R,0.1298X0.0013*%
%ADD176R,0.1324X0.0013*%
%ADD177R,0.1337X0.0013*%
%ADD178R,0.1350X0.0013*%
%ADD179R,0.1377X0.0013*%
%ADD180R,0.1403X0.0013*%
%ADD181R,0.1416X0.0013*%
%ADD182R,0.1429X0.0013*%
%ADD183R,0.1534X0.0013*%
%ADD184R,0.1547X0.0013*%
%ADD185R,0.1626X0.0013*%
%ADD186R,0.1652X0.0013*%
%ADD187R,0.1691X0.0013*%
%ADD188R,0.1744X0.0013*%
%ADD189R,0.1809X0.0013*%
%ADD190R,0.1862X0.0013*%
%ADD191R,0.1901X0.0013*%
%ADD192R,0.1940X0.0013*%
%ADD193R,0.1363X0.0013*%
%ADD194R,0.0577X0.0013*%
%ADD195R,0.0603X0.0013*%
%ADD196R,0.2111X0.0013*%
%ADD197R,0.2189X0.0013*%
%ADD198R,0.2216X0.0013*%
%ADD199R,0.2255X0.0013*%
%ADD200R,0.2294X0.0013*%
%ADD201R,0.1521X0.0013*%
%ADD202R,0.0839X0.0013*%
%ADD203R,0.2425X0.0013*%
%ADD204R,0.0315X0.0013*%
%ADD205R,0.2085X0.0013*%
%ADD206R,0.0787X0.0013*%
%ADD207R,0.2163X0.0013*%
%ADD208R,0.2124X0.0013*%
%ADD209R,0.2019X0.0013*%
%ADD210R,0.1953X0.0013*%
%ADD211R,0.1717X0.0013*%
%ADD212R,0.1599X0.0013*%
%ADD213R,0.1114X0.0013*%
D10*
X002057Y000180D02*
X018199Y000180D01*
X018199Y019865D01*
X002057Y019865D01*
X002057Y000180D01*
X004222Y000180D02*
X016033Y000180D01*
X011762Y000456D02*
X011722Y000416D01*
X010974Y000416D01*
X010915Y000475D01*
X010915Y007326D01*
X010836Y007404D01*
X009813Y007404D01*
X009714Y007306D01*
X009714Y005574D01*
X009478Y005337D01*
X008022Y005337D01*
X007805Y005554D01*
X007805Y007050D01*
X008041Y007286D01*
X008514Y007286D01*
X008947Y007719D01*
X010817Y007719D01*
X010915Y007818D01*
X010915Y010200D01*
X011053Y010337D01*
X011466Y010337D01*
X011762Y010042D01*
X011762Y000475D01*
X014344Y010908D02*
X014346Y010929D01*
X014352Y010950D01*
X014361Y010969D01*
X014374Y010985D01*
X014390Y011000D01*
X014408Y011011D01*
X014428Y011019D01*
X014448Y011023D01*
X014470Y011023D01*
X014490Y011019D01*
X014510Y011011D01*
X014528Y011000D01*
X014544Y010985D01*
X014557Y010969D01*
X014566Y010950D01*
X014572Y010929D01*
X014574Y010908D01*
X014572Y010887D01*
X014566Y010866D01*
X014557Y010847D01*
X014544Y010831D01*
X014528Y010816D01*
X014510Y010805D01*
X014490Y010797D01*
X014470Y010793D01*
X014448Y010793D01*
X014428Y010797D01*
X014408Y010805D01*
X014390Y010816D01*
X014374Y010831D01*
X014361Y010847D01*
X014352Y010866D01*
X014346Y010887D01*
X014344Y010908D01*
X016033Y019865D02*
X004222Y019865D01*
D11*
X011624Y019432D02*
X011624Y016794D01*
X015561Y016794D01*
X015561Y019432D01*
X011624Y019432D01*
X010522Y003133D02*
X004537Y003133D01*
X004537Y000495D01*
X010522Y000495D01*
X010522Y003133D01*
D12*
X010137Y001961D02*
X009937Y001961D01*
X010137Y001961D02*
X010137Y001761D01*
X010137Y000961D02*
X010137Y000761D01*
X009937Y000761D01*
X009137Y000761D02*
X008937Y000761D01*
X008937Y000961D01*
X008169Y000961D02*
X008169Y000761D01*
X007969Y000761D01*
X007169Y000761D02*
X006969Y000761D01*
X006969Y000961D01*
X006200Y000961D02*
X006200Y000761D01*
X006000Y000761D01*
X005200Y000761D02*
X005000Y000761D01*
X005000Y000961D01*
X004328Y000485D02*
X004328Y017985D01*
X004326Y018015D01*
X004321Y018045D01*
X004312Y018074D01*
X004299Y018101D01*
X004284Y018127D01*
X004265Y018151D01*
X004244Y018172D01*
X004220Y018191D01*
X004194Y018206D01*
X004167Y018219D01*
X004138Y018228D01*
X004108Y018233D01*
X004078Y018235D01*
X002178Y018235D01*
X002148Y018233D01*
X002118Y018228D01*
X002089Y018219D01*
X002062Y018206D01*
X002036Y018191D01*
X002012Y018172D01*
X001991Y018151D01*
X001972Y018127D01*
X001957Y018101D01*
X001944Y018074D01*
X001935Y018045D01*
X001930Y018015D01*
X001928Y017985D01*
X001928Y000485D01*
X001930Y000455D01*
X001935Y000425D01*
X001944Y000396D01*
X001957Y000369D01*
X001972Y000343D01*
X001991Y000319D01*
X002012Y000298D01*
X002036Y000279D01*
X002062Y000264D01*
X002089Y000251D01*
X002118Y000242D01*
X002148Y000237D01*
X002178Y000235D01*
X004078Y000235D01*
X004108Y000237D01*
X004138Y000242D01*
X004167Y000251D01*
X004194Y000264D01*
X004220Y000279D01*
X004244Y000298D01*
X004265Y000319D01*
X004284Y000343D01*
X004299Y000369D01*
X004312Y000396D01*
X004321Y000425D01*
X004326Y000455D01*
X004328Y000485D01*
X005000Y001761D02*
X005000Y001961D01*
X005200Y001961D01*
X006000Y001961D02*
X006200Y001961D01*
X006200Y001761D01*
X006969Y001761D02*
X006969Y001961D01*
X007169Y001961D01*
X007969Y001961D02*
X008169Y001961D01*
X008169Y001761D01*
X008937Y001761D02*
X008937Y001961D01*
X009137Y001961D01*
X015928Y000485D02*
X015928Y017985D01*
X015930Y018015D01*
X015935Y018045D01*
X015944Y018074D01*
X015957Y018101D01*
X015972Y018127D01*
X015991Y018151D01*
X016012Y018172D01*
X016036Y018191D01*
X016062Y018206D01*
X016089Y018219D01*
X016118Y018228D01*
X016148Y018233D01*
X016178Y018235D01*
X018078Y018235D01*
X018108Y018233D01*
X018138Y018228D01*
X018167Y018219D01*
X018194Y018206D01*
X018220Y018191D01*
X018244Y018172D01*
X018265Y018151D01*
X018284Y018127D01*
X018299Y018101D01*
X018312Y018074D01*
X018321Y018045D01*
X018326Y018015D01*
X018328Y017985D01*
X018328Y000485D01*
X018326Y000455D01*
X018321Y000425D01*
X018312Y000396D01*
X018299Y000369D01*
X018284Y000343D01*
X018265Y000319D01*
X018244Y000298D01*
X018220Y000279D01*
X018194Y000264D01*
X018167Y000251D01*
X018138Y000242D01*
X018108Y000237D01*
X018078Y000235D01*
X016178Y000235D01*
X016148Y000237D01*
X016118Y000242D01*
X016089Y000251D01*
X016062Y000264D01*
X016036Y000279D01*
X016012Y000298D01*
X015991Y000319D01*
X015972Y000343D01*
X015957Y000369D01*
X015944Y000396D01*
X015935Y000425D01*
X015930Y000455D01*
X015928Y000485D01*
X015614Y010546D02*
X015114Y010546D01*
X014864Y010796D01*
X014864Y011296D01*
X015114Y011546D01*
X014864Y011796D01*
X014864Y012296D01*
X015114Y012546D01*
X015614Y012546D01*
X015864Y012296D01*
X015864Y011796D01*
X015614Y011546D01*
X015864Y011296D01*
X015864Y010796D01*
X015614Y010546D01*
X015614Y011546D02*
X015114Y011546D01*
X015114Y012546D02*
X014864Y012796D01*
X014864Y013296D01*
X015114Y013546D01*
X014864Y013796D01*
X014864Y014296D01*
X015114Y014546D01*
X014864Y014796D01*
X014864Y015296D01*
X015114Y015546D01*
X014864Y015796D01*
X014864Y016296D01*
X015114Y016546D01*
X015614Y016546D01*
X015864Y016296D01*
X015864Y015796D01*
X015614Y015546D01*
X015864Y015296D01*
X015864Y014796D01*
X015614Y014546D01*
X015864Y014296D01*
X015864Y013796D01*
X015614Y013546D01*
X015864Y013296D01*
X015864Y012796D01*
X015614Y012546D01*
X015614Y013546D02*
X015114Y013546D01*
X014246Y013833D02*
X014246Y014053D01*
X014246Y013833D02*
X013926Y013833D01*
X014246Y014733D02*
X014246Y014953D01*
X013926Y014953D01*
X013858Y015586D02*
X014658Y015586D01*
X014758Y015686D01*
X014758Y016486D01*
X014658Y016586D01*
X013858Y016586D01*
X013758Y016486D01*
X013658Y016586D01*
X012858Y016586D01*
X012758Y016486D01*
X012658Y016586D01*
X011858Y016586D01*
X011758Y016486D01*
X011758Y015686D01*
X011858Y015586D01*
X012658Y015586D01*
X012758Y015686D01*
X012858Y015586D01*
X013658Y015586D01*
X013758Y015686D01*
X013858Y015586D01*
X015114Y015546D02*
X015614Y015546D01*
X015614Y014546D02*
X015114Y014546D01*
X015177Y017966D02*
X014977Y017966D01*
X015177Y017966D02*
X015177Y018166D01*
X015177Y018966D02*
X015177Y019166D01*
X014977Y019166D01*
X014177Y019166D02*
X013977Y019166D01*
X013977Y018966D01*
X013208Y018966D02*
X013208Y019166D01*
X013008Y019166D01*
X012208Y019166D02*
X012008Y019166D01*
X012008Y018966D01*
X012008Y018166D02*
X012008Y017966D01*
X012208Y017966D01*
X013008Y017966D02*
X013208Y017966D01*
X013208Y018166D01*
X013977Y018166D02*
X013977Y017966D01*
X014177Y017966D01*
X009777Y018532D02*
X009777Y019032D01*
X009527Y019282D01*
X009027Y019282D01*
X008777Y019032D01*
X008527Y019282D01*
X008027Y019282D01*
X007777Y019032D01*
X007527Y019282D01*
X007027Y019282D01*
X006777Y019032D01*
X006777Y018532D01*
X007027Y018282D01*
X007527Y018282D01*
X007777Y018532D01*
X008027Y018282D01*
X008527Y018282D01*
X008777Y018532D01*
X009027Y018282D01*
X009527Y018282D01*
X009777Y018532D01*
X009527Y012282D02*
X009027Y012282D01*
X008777Y012032D01*
X008527Y012282D01*
X008027Y012282D01*
X007777Y012032D01*
X007527Y012282D01*
X007027Y012282D01*
X006777Y012032D01*
X006777Y011532D01*
X007027Y011282D01*
X007527Y011282D01*
X007777Y011532D01*
X008027Y011282D01*
X008527Y011282D01*
X008777Y011532D01*
X009027Y011282D01*
X009527Y011282D01*
X009777Y011532D01*
X009777Y012032D01*
X009527Y012282D01*
X001217Y007146D02*
X001217Y007039D01*
X001217Y007146D02*
X001110Y007252D01*
X000576Y007252D01*
X000683Y007470D02*
X000576Y007577D01*
X000576Y007790D01*
X000683Y007897D01*
X000790Y007897D01*
X000790Y007470D01*
X000897Y007470D02*
X000683Y007470D01*
X000897Y007470D02*
X001003Y007577D01*
X001003Y007790D01*
X000897Y008221D02*
X001003Y008328D01*
X000897Y008221D02*
X000470Y008221D01*
X000576Y008114D02*
X000576Y008328D01*
X000683Y009189D02*
X000576Y009295D01*
X000576Y009509D01*
X000683Y009616D01*
X000897Y009616D01*
X001003Y009509D01*
X001003Y009295D01*
X000897Y009189D01*
X000683Y009189D01*
X000576Y009833D02*
X001003Y009833D01*
X000790Y009833D02*
X000576Y010047D01*
X000576Y010153D01*
X000683Y010370D02*
X000576Y010477D01*
X000576Y010797D01*
X000363Y010797D02*
X001003Y010797D01*
X001003Y010477D01*
X000897Y010370D01*
X000683Y010370D01*
X000683Y011015D02*
X000576Y011122D01*
X000576Y011335D01*
X000683Y011442D01*
X000790Y011442D01*
X000790Y011015D01*
X000897Y011015D02*
X000683Y011015D01*
X000897Y011015D02*
X001003Y011122D01*
X001003Y011335D01*
X001003Y011659D02*
X000576Y011659D01*
X000790Y011659D02*
X000576Y011873D01*
X000576Y011980D01*
X000683Y012197D02*
X000576Y012303D01*
X000576Y012517D01*
X000683Y012624D01*
X000790Y012624D01*
X000790Y012197D01*
X000897Y012197D02*
X000683Y012197D01*
X000897Y012197D02*
X001003Y012303D01*
X001003Y012517D01*
X000897Y012841D02*
X000683Y012841D01*
X000576Y012948D01*
X000576Y013268D01*
X000363Y013268D02*
X001003Y013268D01*
X001003Y012948D01*
X000897Y012841D01*
X001003Y007252D02*
X001003Y006932D01*
X000897Y006825D01*
X000576Y006825D01*
X000576Y005965D02*
X000576Y005751D01*
X000470Y005858D02*
X000897Y005858D01*
X001003Y005965D01*
X000897Y005534D02*
X000683Y005534D01*
X000576Y005427D01*
X000576Y005213D01*
X000683Y005107D01*
X000897Y005107D01*
X001003Y005213D01*
X001003Y005427D01*
X000897Y005534D01*
X001003Y004889D02*
X000683Y004889D01*
X000576Y004782D01*
X000576Y004462D01*
X001003Y004462D01*
D13*
X004852Y005515D02*
X005029Y005337D01*
X005462Y005337D01*
X005679Y005554D01*
X005679Y006952D01*
X005462Y007168D01*
X005069Y007168D01*
X004852Y006952D01*
X004852Y005534D01*
X005856Y005515D02*
X005856Y006932D01*
X006073Y007149D01*
X006466Y007149D01*
X006683Y006932D01*
X006683Y005534D01*
X006466Y005318D01*
X006033Y005318D01*
X005856Y005495D01*
X006860Y004550D02*
X006860Y008015D01*
X007057Y008211D01*
X007490Y008211D01*
X007726Y007975D01*
X007707Y004550D01*
X007490Y004334D01*
X007077Y004334D01*
X006860Y004550D01*
X011899Y004609D02*
X012116Y004393D01*
X013474Y004393D01*
X013710Y004629D01*
X013710Y006026D01*
X013533Y006204D01*
X012136Y006204D01*
X011899Y005967D01*
X011899Y004629D01*
X012136Y004196D02*
X013533Y004196D01*
X013710Y004019D01*
X013710Y002621D01*
X013474Y002385D01*
X012116Y002385D01*
X011899Y002601D01*
X011899Y002621D02*
X011899Y003960D01*
X012136Y004196D01*
X013868Y004550D02*
X014045Y004373D01*
X014478Y004373D01*
X014695Y004589D01*
X014695Y005987D01*
X014478Y006204D01*
X014085Y006204D01*
X013868Y005987D01*
X013868Y004570D01*
X014852Y004550D02*
X014852Y005967D01*
X015069Y006184D01*
X015462Y006184D01*
X015679Y005967D01*
X015679Y004570D01*
X015462Y004353D01*
X015029Y004353D01*
X014852Y004530D01*
X015088Y004215D02*
X015482Y004215D01*
X015699Y003999D01*
X015699Y002601D01*
X015482Y002385D01*
X015049Y002385D01*
X014872Y002562D01*
X014872Y002582D02*
X014872Y003999D01*
X015088Y004215D01*
X015088Y002208D02*
X014852Y001971D01*
X014852Y000633D01*
X015088Y000397D01*
X015423Y000397D01*
X015718Y000692D01*
X015718Y001912D01*
X015423Y002208D01*
X015088Y002208D01*
X013710Y001952D02*
X013710Y001578D01*
X013533Y001400D01*
X012136Y001400D01*
X011899Y001617D01*
X011899Y001971D01*
X011919Y002030D02*
X012096Y002208D01*
X013455Y002208D01*
X013710Y001952D01*
X013474Y001204D02*
X013710Y000967D01*
X013710Y000613D01*
X013474Y000377D01*
X012155Y000377D01*
X011899Y000633D01*
X011899Y000948D01*
X011899Y000967D02*
X012136Y001204D01*
X013474Y001204D01*
X013494Y006361D02*
X013061Y006361D01*
X012884Y006538D01*
X012884Y006558D02*
X012884Y007975D01*
X013100Y008192D01*
X013494Y008192D01*
X013710Y007975D01*
X013710Y006578D01*
X013494Y006361D01*
X013848Y006519D02*
X014025Y006341D01*
X014459Y006341D01*
X014675Y006558D01*
X014675Y007956D01*
X014459Y008172D01*
X014065Y008172D01*
X013848Y007956D01*
X013848Y006538D01*
X014872Y006578D02*
X015049Y006400D01*
X015482Y006400D01*
X015699Y006617D01*
X015699Y008015D01*
X015482Y008231D01*
X015088Y008231D01*
X014872Y008015D01*
X014872Y006597D01*
X015049Y008369D02*
X014872Y008546D01*
X014872Y008566D02*
X014872Y009983D01*
X015088Y010200D01*
X015482Y010200D01*
X015699Y009983D01*
X015699Y008586D01*
X015482Y008369D01*
X015049Y008369D01*
X014714Y008605D02*
X014498Y008389D01*
X014065Y008389D01*
X013888Y008566D01*
X013888Y008586D02*
X013888Y010003D01*
X014104Y010219D01*
X014498Y010219D01*
X014714Y010003D01*
X014714Y008605D01*
X013710Y008605D02*
X013494Y008389D01*
X013061Y008389D01*
X012884Y008566D01*
X012884Y008586D02*
X012884Y010003D01*
X013100Y010219D01*
X013494Y010219D01*
X013710Y010003D01*
X013710Y008605D01*
X012726Y008605D02*
X012510Y008389D01*
X012077Y008389D01*
X011899Y008566D01*
X011899Y008586D02*
X011899Y010003D01*
X012116Y010219D01*
X012510Y010219D01*
X012726Y010003D01*
X012726Y008605D01*
X012451Y008192D02*
X012667Y007975D01*
X012667Y006578D01*
X012451Y006361D01*
X012018Y006361D01*
X011840Y006538D01*
X011840Y006558D02*
X011840Y007975D01*
X012057Y008192D01*
X012451Y008192D01*
X011506Y012326D02*
X011092Y012326D01*
X010856Y012562D01*
X010856Y017897D01*
X011092Y018133D01*
X011506Y018133D01*
X011742Y017877D01*
X011742Y012562D01*
X011506Y012326D01*
X011486Y012326D02*
X011270Y012326D01*
X010738Y012582D02*
X010502Y012345D01*
X010088Y012345D01*
X009852Y012582D01*
X009852Y014944D01*
X010088Y015180D01*
X010502Y015180D01*
X010738Y014924D01*
X010738Y012582D01*
X010482Y012345D02*
X010266Y012345D01*
X009734Y012601D02*
X009498Y012365D01*
X009085Y012365D01*
X008848Y012601D01*
X008848Y014963D01*
X009085Y015200D01*
X009498Y015200D01*
X009734Y014944D01*
X009734Y012601D01*
X009478Y012365D02*
X009262Y012365D01*
X008730Y012601D02*
X008494Y012365D01*
X008081Y012365D01*
X007844Y012601D01*
X007844Y014963D01*
X008081Y015200D01*
X008494Y015200D01*
X008730Y014944D01*
X008730Y012601D01*
X008474Y012365D02*
X008258Y012365D01*
X007726Y012601D02*
X007490Y012365D01*
X007077Y012365D01*
X006840Y012601D01*
X006840Y014963D01*
X007077Y015200D01*
X007490Y015200D01*
X007726Y014944D01*
X007726Y012601D01*
X007470Y012365D02*
X007254Y012365D01*
X006722Y012621D02*
X006486Y012385D01*
X006073Y012385D01*
X005836Y012621D01*
X005836Y014983D01*
X006073Y015219D01*
X006486Y015219D01*
X006722Y014963D01*
X006722Y012621D01*
X006466Y012385D02*
X006250Y012385D01*
X005699Y012621D02*
X005462Y012385D01*
X005049Y012385D01*
X004813Y012621D01*
X004813Y017975D01*
X005049Y018211D01*
X005462Y018211D01*
X005699Y017956D01*
X005699Y012621D01*
X005443Y012385D02*
X005226Y012385D01*
X006388Y015219D02*
X006466Y015219D01*
X006466Y015357D02*
X006250Y015357D01*
X006073Y015357D02*
X006486Y015357D01*
X006722Y015593D01*
X006722Y017936D01*
X006486Y018192D01*
X006073Y018192D01*
X005836Y017956D01*
X005836Y015593D01*
X006073Y015357D01*
X006840Y015574D02*
X007077Y015337D01*
X007490Y015337D01*
X007726Y015574D01*
X007726Y017916D01*
X007490Y018172D01*
X007077Y018172D01*
X006840Y017936D01*
X006840Y015574D01*
X007254Y015337D02*
X007470Y015337D01*
X007470Y015200D02*
X007392Y015200D01*
X007844Y015574D02*
X008081Y015337D01*
X008494Y015337D01*
X008730Y015574D01*
X008730Y017916D01*
X008494Y018172D01*
X008081Y018172D01*
X007844Y017936D01*
X007844Y015574D01*
X008258Y015337D02*
X008474Y015337D01*
X008474Y015200D02*
X008396Y015200D01*
X008848Y015574D02*
X009085Y015337D01*
X009498Y015337D01*
X009734Y015574D01*
X009734Y017916D01*
X009498Y018172D01*
X009085Y018172D01*
X008848Y017936D01*
X008848Y015574D01*
X009262Y015337D02*
X009478Y015337D01*
X009478Y015200D02*
X009399Y015200D01*
X009852Y015554D02*
X010088Y015318D01*
X010502Y015318D01*
X010738Y015554D01*
X010738Y017897D01*
X010502Y018152D01*
X010088Y018152D01*
X009852Y017916D01*
X009852Y015554D01*
X010266Y015318D02*
X010482Y015318D01*
X010482Y015180D02*
X010403Y015180D01*
X010403Y018152D02*
X010482Y018152D01*
X011407Y018133D02*
X011486Y018133D01*
X009478Y018172D02*
X009399Y018172D01*
X008474Y018172D02*
X008396Y018172D01*
X007470Y018172D02*
X007392Y018172D01*
X006466Y018192D02*
X006388Y018192D01*
X005443Y018211D02*
X005364Y018211D01*
D14*
X001753Y000760D02*
X001302Y000760D01*
X001453Y000610D01*
X001753Y000610D02*
X001753Y000910D01*
X006302Y011557D02*
X006603Y011557D01*
X006453Y011557D02*
X006453Y012008D01*
X006302Y011858D01*
X004878Y017410D02*
X004953Y017485D01*
X004953Y017635D01*
X004878Y017710D01*
X004803Y017710D01*
X004728Y017635D01*
X004728Y017560D01*
X004728Y017635D02*
X004653Y017710D01*
X004578Y017710D01*
X004502Y017635D01*
X004502Y017485D01*
X004578Y017410D01*
X004728Y017871D02*
X004728Y018096D01*
X004803Y018171D01*
X004878Y018171D01*
X004953Y018096D01*
X004953Y017946D01*
X004878Y017871D01*
X004728Y017871D01*
X004578Y018021D01*
X004502Y018171D01*
X006302Y018557D02*
X006603Y018557D01*
X006453Y018557D02*
X006453Y019008D01*
X006302Y018858D01*
X011924Y017054D02*
X011980Y017111D01*
X012094Y017111D01*
X012150Y017054D01*
X012150Y016997D01*
X012094Y016941D01*
X012150Y016884D01*
X012150Y016827D01*
X012094Y016771D01*
X011980Y016771D01*
X011924Y016827D01*
X012037Y016941D02*
X012094Y016941D01*
X012065Y017065D02*
X012215Y017065D01*
X012290Y017140D01*
X012290Y017290D01*
X012140Y017290D01*
X011990Y017140D02*
X012065Y017065D01*
X011990Y017140D02*
X011990Y017441D01*
X012065Y017516D01*
X012215Y017516D01*
X012290Y017441D01*
X012450Y017516D02*
X012750Y017065D01*
X012750Y017516D01*
X012911Y017516D02*
X013136Y017516D01*
X013211Y017441D01*
X013211Y017140D01*
X013136Y017065D01*
X012911Y017065D01*
X012911Y017516D01*
X012980Y017111D02*
X012924Y017054D01*
X012980Y017111D02*
X013094Y017111D01*
X013150Y017054D01*
X013150Y016997D01*
X012924Y016771D01*
X013150Y016771D01*
X012450Y017065D02*
X012450Y017516D01*
X013974Y017535D02*
X013974Y017235D01*
X014124Y017085D01*
X014274Y017235D01*
X014274Y017535D01*
X014434Y017535D02*
X014584Y017535D01*
X014509Y017535D02*
X014509Y017085D01*
X014434Y017085D02*
X014584Y017085D01*
X014741Y017085D02*
X014741Y017535D01*
X015042Y017085D01*
X015042Y017535D01*
X014150Y016771D02*
X013924Y016771D01*
X014037Y016771D02*
X014037Y017111D01*
X013924Y016997D01*
X018502Y017485D02*
X018502Y017635D01*
X018578Y017710D01*
X018653Y017710D01*
X018728Y017635D01*
X018803Y017710D01*
X018878Y017710D01*
X018953Y017635D01*
X018953Y017485D01*
X018878Y017410D01*
X018728Y017560D02*
X018728Y017635D01*
X018728Y017871D02*
X018728Y018096D01*
X018803Y018171D01*
X018878Y018171D01*
X018953Y018096D01*
X018953Y017946D01*
X018878Y017871D01*
X018728Y017871D01*
X018578Y018021D01*
X018502Y018171D01*
X018502Y017485D02*
X018578Y017410D01*
X015753Y000910D02*
X015753Y000610D01*
X015753Y000760D02*
X015302Y000760D01*
X015453Y000610D01*
D15*
X013809Y010711D03*
X013809Y011184D03*
X013809Y011479D03*
X013809Y011952D03*
X013809Y012227D03*
X013809Y012700D03*
D16*
X013809Y012463D03*
X013809Y011715D03*
X013809Y010948D03*
D17*
X010789Y010767D02*
X010789Y003483D01*
X004884Y003483D01*
X004884Y010767D01*
X010789Y010767D01*
D18*
X011839Y010735D02*
X011839Y011196D01*
X012069Y011196D01*
X012146Y011119D01*
X012146Y010966D01*
X012069Y010889D01*
X011839Y010889D01*
X011993Y010889D02*
X012146Y010735D01*
X012300Y010812D02*
X012376Y010735D01*
X012530Y010735D01*
X012607Y010812D01*
X012607Y010889D01*
X012530Y010966D01*
X012453Y010966D01*
X012530Y010966D02*
X012607Y011042D01*
X012607Y011119D01*
X012530Y011196D01*
X012376Y011196D01*
X012300Y011119D01*
X012546Y011196D02*
X012546Y010735D01*
X012853Y010735D01*
X013007Y010735D02*
X013314Y010735D01*
X013467Y010735D02*
X013697Y010735D01*
X013774Y010812D01*
X013774Y011119D01*
X013697Y011196D01*
X013467Y011196D01*
X013467Y010735D01*
X013160Y010966D02*
X013007Y010966D01*
X013007Y011196D02*
X013007Y010735D01*
X013007Y011196D02*
X013314Y011196D01*
X013314Y011483D02*
X013007Y011483D01*
X013007Y011944D01*
X013314Y011944D01*
X013467Y011944D02*
X013697Y011944D01*
X013774Y011867D01*
X013774Y011560D01*
X013697Y011483D01*
X013467Y011483D01*
X013467Y011944D01*
X013160Y011714D02*
X013007Y011714D01*
X012853Y011483D02*
X012546Y011483D01*
X012546Y011944D01*
X013928Y011790D02*
X014081Y011944D01*
X014081Y011483D01*
X013928Y011483D02*
X014235Y011483D01*
X014158Y011196D02*
X014004Y011196D01*
X013928Y011119D01*
X014158Y011196D02*
X014235Y011119D01*
X014235Y011042D01*
X013928Y010735D01*
X014235Y010735D01*
X013000Y013647D02*
X012693Y013647D01*
X012846Y013647D02*
X012846Y014107D01*
X012693Y013954D01*
X012539Y014031D02*
X012463Y014107D01*
X012232Y014107D01*
X012232Y013647D01*
X012463Y013647D01*
X012539Y013724D01*
X012539Y014031D01*
X010153Y002924D02*
X010153Y002564D01*
X009913Y002924D01*
X009913Y002564D01*
X009785Y002564D02*
X009545Y002564D01*
X009545Y002924D01*
X009785Y002924D01*
X009665Y002744D02*
X009545Y002744D01*
X009417Y002744D02*
X009417Y002864D01*
X009357Y002924D01*
X009176Y002924D01*
X009176Y002564D01*
X009176Y002684D02*
X009357Y002684D01*
X009417Y002744D01*
X009048Y002624D02*
X009048Y002864D01*
X008988Y002924D01*
X008868Y002924D01*
X008808Y002864D01*
X008808Y002624D01*
X008868Y002564D01*
X008988Y002564D01*
X009048Y002624D01*
X008680Y002504D02*
X008440Y002504D01*
X008312Y002564D02*
X008312Y002924D01*
X008071Y002924D02*
X008071Y002564D01*
X008312Y002564D02*
X008071Y002924D01*
X007514Y002393D02*
X007514Y002033D01*
X007274Y002393D01*
X007274Y002033D01*
X007148Y002033D02*
X007028Y002033D01*
X007088Y002033D02*
X007088Y002393D01*
X007028Y002393D02*
X007148Y002393D01*
X007155Y002584D02*
X006915Y002584D01*
X006915Y002944D01*
X007155Y002944D01*
X007035Y002764D02*
X006915Y002764D01*
X006787Y002704D02*
X006787Y002644D01*
X006727Y002584D01*
X006607Y002584D01*
X006547Y002644D01*
X006419Y002644D02*
X006419Y002884D01*
X006359Y002944D01*
X006239Y002944D01*
X006179Y002884D01*
X006179Y002644D01*
X006239Y002584D01*
X006359Y002584D01*
X006419Y002644D01*
X006547Y002824D02*
X006607Y002764D01*
X006727Y002764D01*
X006787Y002704D01*
X006787Y002884D02*
X006727Y002944D01*
X006607Y002944D01*
X006547Y002884D01*
X006547Y002824D01*
X006050Y002584D02*
X005810Y002584D01*
X005810Y002944D01*
X005682Y002884D02*
X005622Y002944D01*
X005502Y002944D01*
X005442Y002884D01*
X005442Y002644D01*
X005502Y002584D01*
X005622Y002584D01*
X005682Y002644D01*
X005314Y002524D02*
X005074Y002524D01*
X004946Y002584D02*
X004946Y002944D01*
X004705Y002944D02*
X004946Y002584D01*
X004705Y002584D02*
X004705Y002944D01*
D19*
X005526Y008126D03*
X005526Y011404D03*
X005526Y012413D03*
D20*
X005533Y011482D03*
X005520Y008139D03*
D21*
X005526Y008152D03*
X005526Y011548D03*
X005526Y012374D03*
D22*
X005533Y011587D03*
X005926Y009765D03*
X005520Y008166D03*
D23*
X005526Y008179D03*
X005933Y009713D03*
X005526Y012348D03*
D24*
X005526Y012335D03*
X005526Y011666D03*
X005920Y009673D03*
X005526Y008192D03*
D25*
X005520Y008205D03*
X005533Y011692D03*
D26*
X005526Y011718D03*
X005526Y008218D03*
D27*
X005520Y008231D03*
D28*
X005526Y008244D03*
D29*
X005520Y008257D03*
D30*
X005520Y008270D03*
X005717Y012072D03*
X005730Y012085D03*
X005743Y012099D03*
X005743Y012112D03*
X005533Y012282D03*
D31*
X005730Y012164D03*
X005743Y012151D03*
X005756Y012138D03*
X005533Y011836D03*
X005520Y008284D03*
D32*
X005526Y008297D03*
X005526Y011863D03*
D33*
X005533Y011876D03*
X005520Y008310D03*
D34*
X005520Y008323D03*
X005533Y011889D03*
D35*
X005520Y008336D03*
D36*
X005520Y008349D03*
X005533Y011928D03*
D37*
X005526Y008362D03*
D38*
X005526Y008375D03*
X005526Y011954D03*
X005526Y012230D03*
D39*
X005520Y008388D03*
D40*
X005520Y008401D03*
X005533Y011981D03*
D41*
X005526Y008415D03*
D42*
X005520Y008428D03*
X005533Y011994D03*
D43*
X005520Y008441D03*
D44*
X005526Y008454D03*
D45*
X005520Y008467D03*
D46*
X005526Y008480D03*
D47*
X005520Y008493D03*
D48*
X005520Y008506D03*
D49*
X005526Y008519D03*
D50*
X005520Y008533D03*
D51*
X005526Y008546D03*
D52*
X005520Y008559D03*
D53*
X005526Y008572D03*
D54*
X005520Y008585D03*
X005520Y008598D03*
D55*
X005526Y008611D03*
D56*
X005520Y008624D03*
D57*
X005526Y008637D03*
D58*
X005520Y008651D03*
X005520Y008664D03*
D59*
X005526Y008677D03*
D60*
X005520Y008690D03*
D61*
X005526Y008703D03*
X005526Y008716D03*
D62*
X005520Y008729D03*
D63*
X005526Y008742D03*
X005526Y008755D03*
D64*
X005520Y008769D03*
X005520Y008782D03*
X005533Y009660D03*
D65*
X005526Y009647D03*
X005526Y009634D03*
X005526Y008795D03*
D66*
X005520Y008808D03*
X005520Y008821D03*
X005533Y009608D03*
X005533Y009621D03*
D67*
X005526Y009595D03*
X005526Y009581D03*
X005526Y009568D03*
X005526Y009555D03*
X005526Y008834D03*
D68*
X005520Y008847D03*
X005520Y008860D03*
D69*
X005526Y008873D03*
X005526Y008887D03*
D70*
X005520Y008900D03*
X005520Y008913D03*
D71*
X005526Y008926D03*
X005526Y008939D03*
D72*
X005520Y008952D03*
X005520Y008965D03*
X005520Y008978D03*
D73*
X005526Y008991D03*
X005526Y009005D03*
D74*
X005520Y009018D03*
X005520Y009031D03*
D75*
X005526Y009044D03*
X005526Y009057D03*
D76*
X005520Y009070D03*
D77*
X005526Y009083D03*
D78*
X005533Y009096D03*
D79*
X005526Y009109D03*
D80*
X005533Y009123D03*
X005533Y009136D03*
X005533Y009411D03*
D81*
X005533Y009385D03*
X005533Y009149D03*
D82*
X005526Y009162D03*
X005526Y009372D03*
D83*
X005533Y009359D03*
X005533Y009345D03*
X005533Y009332D03*
X005533Y009319D03*
X005533Y009306D03*
X005533Y009293D03*
X005533Y009280D03*
X005533Y009267D03*
X005533Y009254D03*
X005533Y009241D03*
X005533Y009227D03*
X005533Y009214D03*
X005533Y009201D03*
X005533Y009188D03*
X005533Y009175D03*
D84*
X005526Y009398D03*
D85*
X005533Y009424D03*
D86*
X005526Y009437D03*
D87*
X005526Y009450D03*
D88*
X004832Y009962D03*
X004805Y009949D03*
X004792Y009935D03*
X004766Y009922D03*
X004753Y009909D03*
X004740Y009896D03*
X004714Y009883D03*
X004596Y009673D03*
X005526Y010945D03*
D89*
X004864Y009975D03*
X004694Y009870D03*
X004589Y009686D03*
D90*
X005933Y009686D03*
X005933Y009699D03*
X005526Y011653D03*
D91*
X005526Y010932D03*
X004687Y009857D03*
X004674Y009844D03*
X004661Y009831D03*
X004648Y009817D03*
X004648Y009804D03*
X004635Y009791D03*
X004622Y009765D03*
X004609Y009752D03*
X004609Y009739D03*
X004596Y009713D03*
X004596Y009699D03*
D92*
X004602Y009726D03*
X004628Y009778D03*
X005533Y010919D03*
D93*
X005533Y011627D03*
X005926Y009726D03*
D94*
X005933Y009739D03*
X005526Y011614D03*
D95*
X005926Y009752D03*
D96*
X005926Y009778D03*
X005533Y011574D03*
D97*
X005939Y009791D03*
D98*
X005946Y009804D03*
D99*
X005933Y009817D03*
X005526Y011509D03*
D100*
X005526Y011496D03*
X005933Y009831D03*
D101*
X005933Y009844D03*
X005094Y012177D03*
D102*
X005107Y012203D03*
X005946Y012007D03*
X005959Y012020D03*
X005526Y011443D03*
X005933Y009857D03*
D103*
X005808Y009870D03*
D104*
X006556Y009870D03*
D105*
X005815Y009883D03*
D106*
X005821Y009896D03*
X005454Y010066D03*
X005454Y010080D03*
X005454Y010093D03*
D107*
X005461Y010119D03*
X005828Y009909D03*
D108*
X005835Y009922D03*
D109*
X005848Y009935D03*
D110*
X005854Y009949D03*
X005828Y009988D03*
X005526Y012479D03*
D111*
X005848Y009962D03*
D112*
X005841Y009975D03*
X005526Y011102D03*
D113*
X005526Y010591D03*
X004661Y009988D03*
D114*
X005048Y009988D03*
X005874Y011181D03*
X005874Y011194D03*
D115*
X005533Y011430D03*
X005127Y012217D03*
X005585Y010001D03*
D116*
X005579Y010014D03*
X005526Y011417D03*
D117*
X005572Y010027D03*
D118*
X005572Y010040D03*
D119*
X005454Y010053D03*
D120*
X005920Y010145D03*
X006182Y010053D03*
X005526Y010552D03*
D121*
X005526Y010499D03*
X005933Y010184D03*
X006195Y010066D03*
D122*
X006202Y010080D03*
D123*
X005454Y010106D03*
D124*
X005507Y010198D03*
X005913Y010132D03*
X004995Y010132D03*
D125*
X005474Y010132D03*
X005526Y010840D03*
D126*
X005526Y010525D03*
X005526Y010512D03*
X005933Y010171D03*
X004976Y010145D03*
D127*
X005474Y010145D03*
X005526Y010801D03*
X005238Y011194D03*
X006274Y011797D03*
D128*
X004956Y010158D03*
D129*
X005481Y010158D03*
D130*
X005526Y010538D03*
X005920Y010158D03*
D131*
X005494Y010171D03*
X005848Y011128D03*
X005848Y011142D03*
X005861Y011155D03*
D132*
X005494Y010184D03*
X004432Y012138D03*
X004458Y012164D03*
D133*
X005939Y010198D03*
D134*
X005946Y010211D03*
X005526Y010460D03*
X005526Y010473D03*
D135*
X005526Y010447D03*
X005946Y010224D03*
D136*
X005526Y010434D03*
D137*
X005526Y010486D03*
D138*
X005526Y010565D03*
X005526Y010578D03*
D139*
X005526Y010604D03*
D140*
X005526Y010617D03*
X005526Y010630D03*
D141*
X005526Y010643D03*
X004438Y012112D03*
X004438Y012125D03*
D142*
X004438Y012151D03*
X005526Y010656D03*
D143*
X005533Y010670D03*
D144*
X005526Y010683D03*
D145*
X005526Y010696D03*
D146*
X005526Y010709D03*
X005526Y010722D03*
X005828Y011115D03*
X005867Y011168D03*
X005526Y012531D03*
D147*
X005526Y010735D03*
D148*
X005526Y010748D03*
X005880Y011220D03*
D149*
X005526Y010774D03*
X005526Y010761D03*
D150*
X005526Y010788D03*
X005264Y011142D03*
X005251Y011155D03*
X006248Y011758D03*
X006261Y011771D03*
D151*
X005238Y011220D03*
X005238Y011207D03*
X005526Y010827D03*
X005526Y010814D03*
D152*
X005526Y010853D03*
X005526Y012518D03*
D153*
X005526Y010879D03*
X005526Y010866D03*
D154*
X005526Y010892D03*
D155*
X005526Y010906D03*
D156*
X005526Y010958D03*
X004753Y012020D03*
X006313Y012203D03*
D157*
X006320Y012190D03*
X005533Y010971D03*
X004760Y012007D03*
X004746Y012033D03*
D158*
X005526Y010984D03*
D159*
X005526Y010997D03*
X006326Y012177D03*
D160*
X005526Y011010D03*
D161*
X005533Y011024D03*
D162*
X005526Y011037D03*
X005526Y012492D03*
D163*
X005526Y011050D03*
D164*
X005526Y011063D03*
D165*
X005533Y011076D03*
D166*
X005526Y011089D03*
D167*
X005284Y011115D03*
X005245Y011168D03*
X005245Y011181D03*
X006241Y011745D03*
X006267Y011784D03*
D168*
X005874Y011233D03*
X005271Y011128D03*
D169*
X005874Y011207D03*
D170*
X005245Y011233D03*
D171*
X005526Y011246D03*
X005526Y012453D03*
D172*
X005526Y011260D03*
D173*
X005533Y011273D03*
D174*
X005526Y011286D03*
D175*
X005526Y011299D03*
X005526Y012439D03*
D176*
X005526Y011312D03*
D177*
X005533Y011325D03*
D178*
X005526Y011338D03*
X005212Y011771D03*
D179*
X005199Y011797D03*
X005526Y011351D03*
X005526Y012426D03*
D180*
X005199Y011810D03*
X005526Y011364D03*
D181*
X005533Y011378D03*
X005205Y011823D03*
D182*
X005526Y011391D03*
D183*
X005526Y011456D03*
X005094Y012190D03*
X005526Y012400D03*
D184*
X005966Y012046D03*
X005533Y011469D03*
D185*
X005533Y011522D03*
D186*
X005533Y011535D03*
D187*
X005526Y011561D03*
D188*
X005526Y011600D03*
D189*
X005533Y011640D03*
D190*
X005533Y011679D03*
D191*
X005526Y011705D03*
X005526Y012321D03*
D192*
X005533Y011731D03*
D193*
X005231Y011745D03*
X005218Y011758D03*
X005205Y011784D03*
D194*
X006267Y011810D03*
D195*
X006267Y011823D03*
D196*
X005526Y011849D03*
D197*
X005526Y011902D03*
D198*
X005526Y011915D03*
X005526Y012243D03*
D199*
X005533Y011941D03*
D200*
X005526Y011967D03*
D201*
X005966Y012033D03*
D202*
X004746Y012046D03*
D203*
X005526Y012059D03*
D204*
X004471Y012072D03*
X004458Y012085D03*
X004445Y012099D03*
D205*
X005749Y012125D03*
D206*
X005520Y012505D03*
X006293Y012217D03*
D207*
X005526Y012256D03*
D208*
X005533Y012269D03*
D209*
X005533Y012295D03*
D210*
X005526Y012308D03*
D211*
X005526Y012361D03*
D212*
X005533Y012387D03*
D213*
X005526Y012466D03*
M02*
