G75*
%MOIN*%
%OFA0B0*%
%FSLAX24Y24*%
%IPPOS*%
%LPD*%
%AMOC8*
5,1,8,0,0,1.08239X$1,22.5*
%
%ADD10C,0.0160*%
%ADD11C,0.0540*%
%ADD12OC8,0.0540*%
%ADD13OC8,0.1250*%
%ADD14C,0.0472*%
%ADD15R,0.0472X0.0472*%
%ADD16R,0.0512X0.0591*%
%ADD17C,0.0540*%
%ADD18C,0.0531*%
%ADD19R,0.0551X0.0394*%
%ADD20OC8,0.0600*%
%ADD21C,0.0600*%
%ADD22C,0.0600*%
D10*
X002057Y000180D02*
X018199Y000180D01*
X018199Y019865D01*
X002057Y019865D01*
X002057Y000180D01*
D11*
X002628Y000735D03*
X016628Y000735D03*
D12*
X017628Y000735D03*
X017628Y001735D03*
X017628Y002735D03*
X017628Y003735D03*
X017628Y004735D03*
X017628Y005735D03*
X017628Y006735D03*
X017628Y007735D03*
X017628Y008735D03*
X017628Y009735D03*
X017628Y010735D03*
X017628Y011735D03*
X017628Y012735D03*
X017628Y013735D03*
X017628Y014735D03*
X017628Y015735D03*
X017628Y016735D03*
X017628Y017735D03*
X016628Y017735D03*
X016628Y016735D03*
X016628Y015735D03*
X016628Y014735D03*
X016628Y013735D03*
X016628Y012735D03*
X016628Y011735D03*
X016628Y010735D03*
X016628Y009735D03*
X016628Y008735D03*
X016628Y007735D03*
X016628Y006735D03*
X016628Y005735D03*
X016628Y004735D03*
X016628Y003735D03*
X016628Y002735D03*
X016628Y001735D03*
X003628Y001735D03*
X003628Y000735D03*
X002628Y001735D03*
X002628Y002735D03*
X003628Y002735D03*
X003628Y003735D03*
X003628Y004735D03*
X003628Y005735D03*
X003628Y006735D03*
X003628Y007735D03*
X003628Y008735D03*
X003628Y009735D03*
X003628Y010735D03*
X003628Y011735D03*
X003628Y012735D03*
X003628Y013735D03*
X003628Y014735D03*
X003628Y015735D03*
X003628Y016735D03*
X003628Y017735D03*
X002628Y017735D03*
X002628Y016735D03*
X002628Y015735D03*
X002628Y014735D03*
X002628Y013735D03*
X002628Y012735D03*
X002628Y011735D03*
X002628Y010735D03*
X002628Y009735D03*
X002628Y008735D03*
X002628Y007735D03*
X002628Y006735D03*
X002628Y005735D03*
X002628Y004735D03*
X002628Y003735D03*
D13*
X005600Y001361D03*
X007569Y001361D03*
X009537Y001361D03*
X012608Y018566D03*
X014577Y018566D03*
D14*
X010673Y018811D02*
X010673Y019283D01*
X005473Y019283D02*
X005473Y018811D01*
X005473Y011983D02*
X005473Y011511D01*
X010673Y011511D02*
X010673Y011983D01*
D15*
X013455Y011715D03*
X013455Y010948D03*
X014281Y010948D03*
X014281Y011715D03*
X014281Y012463D03*
X013455Y012463D03*
D16*
X012864Y012523D03*
X012116Y012523D03*
X012116Y011715D03*
X012864Y011715D03*
X012864Y010908D03*
X012116Y010908D03*
D17*
X012258Y015816D02*
X012258Y016356D01*
X013258Y016356D02*
X013258Y015816D01*
X014258Y015816D02*
X014258Y016356D01*
D18*
X007836Y010176D03*
X005474Y009389D03*
X005474Y004664D03*
X010199Y004664D03*
X010199Y009389D03*
D19*
X013553Y014019D03*
X013553Y014767D03*
X014419Y014393D03*
D20*
X011277Y014782D03*
X011277Y015782D03*
X010277Y015782D03*
X010277Y014782D03*
X009277Y014782D03*
X009277Y015782D03*
X009277Y016782D03*
X009277Y017782D03*
X010277Y017782D03*
X010277Y016782D03*
X011277Y016782D03*
X011277Y017782D03*
X008277Y017782D03*
X007277Y017782D03*
X006277Y017782D03*
X005277Y017782D03*
X005277Y016782D03*
X005277Y015782D03*
X005277Y014782D03*
X005277Y013782D03*
X005277Y012782D03*
X006277Y012782D03*
X006277Y013782D03*
X006277Y014782D03*
X006277Y015782D03*
X006277Y016782D03*
X007277Y016782D03*
X007277Y015782D03*
X007277Y014782D03*
X007277Y013782D03*
X007277Y012782D03*
X008277Y012782D03*
X008277Y013782D03*
X008277Y014782D03*
X008277Y015782D03*
X008277Y016782D03*
X009277Y013782D03*
X009277Y012782D03*
X010277Y012782D03*
X010277Y013782D03*
X011277Y013782D03*
X011277Y012782D03*
X011277Y009782D03*
X011277Y008782D03*
X011277Y007782D03*
X011277Y006782D03*
X010277Y006782D03*
X009277Y006782D03*
X009277Y005782D03*
X010277Y005782D03*
X011277Y005782D03*
X011277Y004782D03*
X011277Y003782D03*
X011277Y002782D03*
X011277Y001782D03*
X011277Y000782D03*
X012277Y000782D03*
X012277Y001782D03*
X012277Y002782D03*
X012277Y003782D03*
X012277Y004782D03*
X012277Y005782D03*
X012277Y006782D03*
X012277Y007782D03*
X012277Y008782D03*
X012277Y009782D03*
X013277Y009782D03*
X013277Y008782D03*
X013277Y007782D03*
X013277Y006782D03*
X013277Y005782D03*
X013277Y004782D03*
X013277Y003782D03*
X013277Y002782D03*
X013277Y001782D03*
X013277Y000782D03*
X014277Y000782D03*
X014277Y001782D03*
X014277Y002782D03*
X014277Y003782D03*
X014277Y004782D03*
X014277Y005782D03*
X014277Y006782D03*
X014277Y007782D03*
X014277Y008782D03*
X014277Y009782D03*
X015277Y009782D03*
X015277Y008782D03*
X015277Y007782D03*
X015277Y006782D03*
X015277Y005782D03*
X015277Y004782D03*
X015277Y003782D03*
X015277Y002782D03*
X015277Y001782D03*
X015277Y000782D03*
X008277Y003782D03*
X007277Y003782D03*
X007277Y004782D03*
X006277Y004782D03*
X006277Y005782D03*
X005277Y005782D03*
X005277Y006782D03*
X006277Y006782D03*
X007277Y006782D03*
X007277Y005782D03*
X008277Y005782D03*
X008277Y004782D03*
X008277Y006782D03*
X008277Y007782D03*
X007277Y007782D03*
X007277Y008782D03*
X006277Y008782D03*
X008277Y008782D03*
D21*
X006277Y007782D03*
X006277Y003782D03*
D22*
X007277Y011482D02*
X007277Y012082D01*
X008277Y012082D02*
X008277Y011482D01*
X009277Y011482D02*
X009277Y012082D01*
X015064Y012046D02*
X015664Y012046D01*
X015664Y011046D02*
X015064Y011046D01*
X015064Y013046D02*
X015664Y013046D01*
X015664Y014046D02*
X015064Y014046D01*
X015064Y015046D02*
X015664Y015046D01*
X015664Y016046D02*
X015064Y016046D01*
X009277Y018482D02*
X009277Y019082D01*
X008277Y019082D02*
X008277Y018482D01*
X007277Y018482D02*
X007277Y019082D01*
M02*
