G75*
%MOIN*%
%OFA0B0*%
%FSLAX24Y24*%
%IPPOS*%
%LPD*%
%AMOC8*
5,1,8,0,0,1.08239X$1,22.5*
%
%ADD10C,0.0160*%
%ADD11C,0.0060*%
%ADD12C,0.0540*%
%ADD13OC8,0.0540*%
%ADD14OC8,0.1250*%
%ADD15C,0.0472*%
%ADD16C,0.0540*%
%ADD17C,0.0531*%
%ADD18R,0.0480X0.0880*%
%ADD19R,0.1417X0.0866*%
%ADD20OC8,0.0600*%
%ADD21C,0.0600*%
%ADD22R,0.0480X0.0160*%
%ADD23R,0.0591X0.0512*%
%ADD24R,0.0945X0.0945*%
%ADD25C,0.0600*%
%ADD26R,0.0421X0.0004*%
%ADD27R,0.0465X0.0004*%
%ADD28R,0.0492X0.0004*%
%ADD29R,0.0516X0.0004*%
%ADD30R,0.0531X0.0004*%
%ADD31R,0.0547X0.0004*%
%ADD32R,0.0563X0.0004*%
%ADD33R,0.0575X0.0004*%
%ADD34R,0.0587X0.0004*%
%ADD35R,0.0598X0.0004*%
%ADD36R,0.0610X0.0004*%
%ADD37R,0.0618X0.0004*%
%ADD38R,0.0626X0.0004*%
%ADD39R,0.0638X0.0004*%
%ADD40R,0.0646X0.0004*%
%ADD41R,0.0650X0.0004*%
%ADD42R,0.0657X0.0004*%
%ADD43R,0.0665X0.0004*%
%ADD44R,0.0673X0.0004*%
%ADD45R,0.0677X0.0004*%
%ADD46R,0.0685X0.0004*%
%ADD47R,0.0689X0.0004*%
%ADD48R,0.0693X0.0004*%
%ADD49R,0.0701X0.0004*%
%ADD50R,0.0705X0.0004*%
%ADD51R,0.0709X0.0004*%
%ADD52R,0.0717X0.0004*%
%ADD53R,0.0720X0.0004*%
%ADD54R,0.0724X0.0004*%
%ADD55R,0.0728X0.0004*%
%ADD56R,0.0732X0.0004*%
%ADD57R,0.0736X0.0004*%
%ADD58R,0.0740X0.0004*%
%ADD59R,0.0744X0.0004*%
%ADD60R,0.0748X0.0004*%
%ADD61R,0.0752X0.0004*%
%ADD62R,0.0756X0.0004*%
%ADD63R,0.0760X0.0004*%
%ADD64R,0.0764X0.0004*%
%ADD65R,0.0768X0.0004*%
%ADD66R,0.0772X0.0004*%
%ADD67R,0.0776X0.0004*%
%ADD68R,0.0780X0.0004*%
%ADD69R,0.0783X0.0004*%
%ADD70R,0.0787X0.0004*%
%ADD71R,0.0791X0.0004*%
%ADD72R,0.0795X0.0004*%
%ADD73R,0.0799X0.0004*%
%ADD74R,0.0803X0.0004*%
%ADD75R,0.0807X0.0004*%
%ADD76R,0.0811X0.0004*%
%ADD77R,0.0815X0.0004*%
%ADD78R,0.0819X0.0004*%
%ADD79R,0.0823X0.0004*%
%ADD80R,0.0827X0.0004*%
%ADD81R,0.0831X0.0004*%
%ADD82R,0.0835X0.0004*%
%ADD83R,0.0839X0.0004*%
%ADD84R,0.0909X0.0004*%
%ADD85R,0.0937X0.0004*%
%ADD86R,0.0953X0.0004*%
%ADD87R,0.0961X0.0004*%
%ADD88R,0.0969X0.0004*%
%ADD89R,0.0976X0.0004*%
%ADD90R,0.0980X0.0004*%
%ADD91R,0.0984X0.0004*%
%ADD92R,0.0965X0.0004*%
%ADD93R,0.0957X0.0004*%
%ADD94R,0.0945X0.0004*%
%ADD95R,0.0921X0.0004*%
%ADD96R,0.0232X0.0004*%
%ADD97R,0.0555X0.0004*%
%ADD98R,0.0224X0.0004*%
%ADD99R,0.0543X0.0004*%
%ADD100R,0.0539X0.0004*%
%ADD101R,0.0220X0.0004*%
%ADD102R,0.0535X0.0004*%
%ADD103R,0.0528X0.0004*%
%ADD104R,0.0520X0.0004*%
%ADD105R,0.0512X0.0004*%
%ADD106R,0.0500X0.0004*%
%ADD107R,0.0488X0.0004*%
%ADD108R,0.0484X0.0004*%
%ADD109R,0.0476X0.0004*%
%ADD110R,0.0449X0.0004*%
%ADD111R,0.0370X0.0004*%
%ADD112R,0.0043X0.0004*%
%ADD113R,0.0228X0.0004*%
%ADD114R,0.0358X0.0004*%
%ADD115R,0.0350X0.0004*%
%ADD116R,0.0343X0.0004*%
%ADD117R,0.0331X0.0004*%
%ADD118R,0.0319X0.0004*%
%ADD119R,0.0311X0.0004*%
%ADD120R,0.0307X0.0004*%
%ADD121R,0.0303X0.0004*%
%ADD122R,0.0063X0.0004*%
%ADD123R,0.0130X0.0004*%
%ADD124R,0.0445X0.0004*%
%ADD125R,0.0437X0.0004*%
%ADD126R,0.0433X0.0004*%
%ADD127R,0.0362X0.0004*%
%ADD128R,0.0047X0.0004*%
%ADD129R,0.0354X0.0004*%
%ADD130R,0.0031X0.0004*%
%ADD131R,0.0346X0.0004*%
%ADD132R,0.0339X0.0004*%
%ADD133R,0.0055X0.0004*%
%ADD134R,0.0177X0.0004*%
%ADD135R,0.0035X0.0004*%
%ADD136R,0.0161X0.0004*%
%ADD137R,0.0051X0.0004*%
%ADD138R,0.0142X0.0004*%
%ADD139R,0.0118X0.0004*%
%ADD140R,0.0091X0.0004*%
%ADD141R,0.0024X0.0004*%
%ADD142R,0.0020X0.0004*%
%ADD143R,0.0008X0.0004*%
%ADD144R,0.0004X0.0004*%
%ADD145R,0.0012X0.0004*%
%ADD146R,0.0028X0.0004*%
%ADD147R,0.0059X0.0004*%
%ADD148R,0.0067X0.0004*%
%ADD149R,0.0075X0.0004*%
%ADD150R,0.0083X0.0004*%
%ADD151R,0.0098X0.0004*%
%ADD152R,0.0106X0.0004*%
%ADD153R,0.0114X0.0004*%
%ADD154R,0.0122X0.0004*%
%ADD155R,0.0138X0.0004*%
%ADD156R,0.0146X0.0004*%
%ADD157R,0.0154X0.0004*%
%ADD158R,0.0165X0.0004*%
%ADD159R,0.0169X0.0004*%
%ADD160R,0.0185X0.0004*%
%ADD161R,0.0189X0.0004*%
%ADD162R,0.0193X0.0004*%
%ADD163R,0.0201X0.0004*%
%ADD164R,0.0209X0.0004*%
%ADD165R,0.0213X0.0004*%
%ADD166R,0.0217X0.0004*%
%ADD167R,0.0236X0.0004*%
%ADD168R,0.0240X0.0004*%
%ADD169R,0.0248X0.0004*%
%ADD170R,0.0256X0.0004*%
%ADD171R,0.0264X0.0004*%
%ADD172R,0.0272X0.0004*%
%ADD173R,0.0280X0.0004*%
%ADD174R,0.0287X0.0004*%
%ADD175R,0.0295X0.0004*%
%ADD176R,0.0299X0.0004*%
%ADD177R,0.0126X0.0004*%
%ADD178R,0.0157X0.0004*%
%ADD179R,0.0134X0.0004*%
%ADD180R,0.0173X0.0004*%
%ADD181R,0.0366X0.0004*%
%ADD182R,0.0374X0.0004*%
%ADD183R,0.0382X0.0004*%
%ADD184R,0.0390X0.0004*%
%ADD185R,0.0394X0.0004*%
%ADD186R,0.0398X0.0004*%
%ADD187R,0.0406X0.0004*%
%ADD188R,0.0409X0.0004*%
%ADD189R,0.0417X0.0004*%
%ADD190R,0.0429X0.0004*%
%ADD191R,0.0441X0.0004*%
%ADD192R,0.0453X0.0004*%
%ADD193R,0.0457X0.0004*%
%ADD194R,0.0469X0.0004*%
%ADD195R,0.0480X0.0004*%
%ADD196R,0.0504X0.0004*%
%ADD197R,0.0508X0.0004*%
%ADD198R,0.0551X0.0004*%
%ADD199R,0.0567X0.0004*%
%ADD200R,0.0579X0.0004*%
%ADD201R,0.0413X0.0004*%
%ADD202R,0.0425X0.0004*%
%ADD203R,0.0181X0.0004*%
%ADD204R,0.0634X0.0004*%
%ADD205R,0.0654X0.0004*%
%ADD206R,0.0661X0.0004*%
%ADD207R,0.0669X0.0004*%
%ADD208R,0.0697X0.0004*%
%ADD209R,0.0244X0.0004*%
%ADD210R,0.0252X0.0004*%
%ADD211R,0.0461X0.0004*%
%ADD212R,0.0094X0.0004*%
%ADD213R,0.0622X0.0004*%
%ADD214R,0.0102X0.0004*%
%ADD215R,0.0630X0.0004*%
%ADD216R,0.0614X0.0004*%
%ADD217R,0.0583X0.0004*%
%ADD218R,0.0327X0.0004*%
%ADD219C,0.0356*%
%ADD220C,0.0100*%
%ADD221C,0.0240*%
%ADD222C,0.0660*%
D10*
X002057Y000180D02*
X018199Y000180D01*
X018199Y019865D01*
X002057Y019865D01*
X002057Y000180D01*
X002417Y001156D02*
X002417Y001281D01*
X002433Y001265D01*
X002823Y001265D01*
X003098Y001540D01*
X003098Y001930D01*
X002823Y002205D01*
X002433Y002205D01*
X002417Y002189D01*
X002417Y002281D01*
X002433Y002265D01*
X002823Y002265D01*
X003098Y002540D01*
X003098Y002930D01*
X002823Y003205D01*
X002433Y003205D01*
X002417Y003189D01*
X002417Y003281D01*
X002433Y003265D01*
X002823Y003265D01*
X003098Y003540D01*
X003098Y003930D01*
X002823Y004205D01*
X002433Y004205D01*
X002417Y004189D01*
X002417Y004281D01*
X002433Y004265D01*
X002823Y004265D01*
X003098Y004540D01*
X003098Y004930D01*
X002823Y005205D01*
X002433Y005205D01*
X002417Y005189D01*
X002417Y005281D01*
X002433Y005265D01*
X002823Y005265D01*
X002871Y005314D01*
X002902Y005238D01*
X003060Y005080D01*
X003139Y005002D01*
X003203Y004975D01*
X003158Y004930D01*
X003158Y004540D01*
X003433Y004265D01*
X003823Y004265D01*
X004098Y004540D01*
X004098Y004930D01*
X004069Y004959D01*
X004164Y004959D01*
X004205Y004919D01*
X004344Y004861D01*
X004494Y004861D01*
X004633Y004919D01*
X004740Y005025D01*
X004797Y005164D01*
X004797Y005314D01*
X004740Y005453D01*
X004633Y005560D01*
X004494Y005617D01*
X004344Y005617D01*
X004205Y005560D01*
X004164Y005519D01*
X004076Y005519D01*
X004098Y005540D01*
X004098Y005930D01*
X003823Y006205D01*
X003433Y006205D01*
X003420Y006192D01*
X003420Y006279D01*
X003433Y006265D01*
X003823Y006265D01*
X004098Y006540D01*
X004098Y006930D01*
X003823Y007205D01*
X003433Y007205D01*
X003420Y007192D01*
X003420Y007279D01*
X003433Y007265D01*
X003823Y007265D01*
X004098Y007540D01*
X004098Y007566D01*
X004777Y006886D01*
X004777Y006575D01*
X004997Y006355D01*
X004997Y006209D01*
X004777Y005989D01*
X004777Y005575D01*
X005070Y005282D01*
X005415Y005282D01*
X005292Y005232D01*
X005174Y005114D01*
X004749Y004689D01*
X004669Y004494D01*
X004669Y001657D01*
X004749Y001462D01*
X004775Y001437D01*
X004775Y001019D01*
X005255Y000540D01*
X004097Y000540D01*
X004098Y000540D01*
X004098Y000930D01*
X003823Y001205D01*
X003433Y001205D01*
X003158Y000930D01*
X003158Y000540D01*
X003056Y000540D01*
X003098Y000642D01*
X003098Y000829D01*
X003026Y001001D01*
X002894Y001134D01*
X002721Y001205D01*
X002534Y001205D01*
X002417Y001156D01*
X002847Y001290D02*
X003409Y001290D01*
X003433Y001265D02*
X003823Y001265D01*
X004098Y001540D01*
X004098Y001930D01*
X003823Y002205D01*
X003433Y002205D01*
X003158Y001930D01*
X003158Y001540D01*
X003433Y001265D01*
X003359Y001131D02*
X002897Y001131D01*
X003038Y000973D02*
X003201Y000973D01*
X003158Y000814D02*
X003098Y000814D01*
X003098Y000656D02*
X003158Y000656D01*
X003158Y000540D02*
X003158Y000540D01*
X003897Y001131D02*
X004775Y001131D01*
X004775Y001290D02*
X003847Y001290D01*
X004005Y001448D02*
X004764Y001448D01*
X004690Y001607D02*
X004098Y001607D01*
X004098Y001765D02*
X004669Y001765D01*
X004669Y001924D02*
X004098Y001924D01*
X003946Y002082D02*
X004669Y002082D01*
X004669Y002241D02*
X002417Y002241D01*
X002946Y002082D02*
X003310Y002082D01*
X003158Y001924D02*
X003098Y001924D01*
X003098Y001765D02*
X003158Y001765D01*
X003158Y001607D02*
X003098Y001607D01*
X003005Y001448D02*
X003250Y001448D01*
X003433Y002265D02*
X003823Y002265D01*
X004098Y002540D01*
X004098Y002930D01*
X003823Y003205D01*
X003433Y003205D01*
X003158Y002930D01*
X003158Y002540D01*
X003433Y002265D01*
X003299Y002399D02*
X002956Y002399D01*
X003098Y002558D02*
X003158Y002558D01*
X003158Y002716D02*
X003098Y002716D01*
X003098Y002875D02*
X003158Y002875D01*
X003261Y003033D02*
X002995Y003033D01*
X002836Y003192D02*
X003420Y003192D01*
X003433Y003265D02*
X003823Y003265D01*
X004098Y003540D01*
X004098Y003930D01*
X003823Y004205D01*
X003433Y004205D01*
X003158Y003930D01*
X003158Y003540D01*
X003433Y003265D01*
X003348Y003350D02*
X002907Y003350D01*
X003066Y003509D02*
X003190Y003509D01*
X003158Y003667D02*
X003098Y003667D01*
X003098Y003826D02*
X003158Y003826D01*
X003212Y003984D02*
X003044Y003984D01*
X002885Y004143D02*
X003371Y004143D01*
X003397Y004301D02*
X002858Y004301D01*
X003017Y004460D02*
X003239Y004460D01*
X003158Y004618D02*
X003098Y004618D01*
X003098Y004777D02*
X003158Y004777D01*
X003163Y004935D02*
X003093Y004935D01*
X003047Y005094D02*
X002934Y005094D01*
X002896Y005252D02*
X002417Y005252D01*
X003140Y005397D02*
X003297Y005239D01*
X004419Y005239D01*
X004188Y004935D02*
X004093Y004935D01*
X004098Y004777D02*
X004837Y004777D01*
X004720Y004618D02*
X004098Y004618D01*
X004017Y004460D02*
X004669Y004460D01*
X004669Y004301D02*
X003858Y004301D01*
X003885Y004143D02*
X004669Y004143D01*
X004669Y003984D02*
X004044Y003984D01*
X004098Y003826D02*
X004669Y003826D01*
X004669Y003667D02*
X004098Y003667D01*
X004066Y003509D02*
X004669Y003509D01*
X004669Y003350D02*
X003907Y003350D01*
X003836Y003192D02*
X004669Y003192D01*
X004669Y003033D02*
X003995Y003033D01*
X004098Y002875D02*
X004669Y002875D01*
X004669Y002716D02*
X004098Y002716D01*
X004098Y002558D02*
X004669Y002558D01*
X004669Y002399D02*
X003956Y002399D01*
X004055Y000973D02*
X004822Y000973D01*
X004981Y000814D02*
X004098Y000814D01*
X004098Y000656D02*
X005139Y000656D01*
X005946Y000540D02*
X006425Y001019D01*
X006425Y001703D01*
X005942Y002186D01*
X005729Y002186D01*
X005729Y004169D01*
X005812Y004252D01*
X006106Y004252D01*
X005994Y004206D01*
X005854Y004066D01*
X005777Y003882D01*
X005777Y003683D01*
X005854Y003499D01*
X005994Y003358D01*
X006178Y003282D01*
X006377Y003282D01*
X006561Y003358D01*
X006701Y003499D01*
X006747Y003610D01*
X006747Y001706D01*
X006744Y001703D01*
X006744Y001019D01*
X007223Y000540D01*
X005946Y000540D01*
X006061Y000656D02*
X007108Y000656D01*
X006949Y000814D02*
X006220Y000814D01*
X006378Y000973D02*
X006791Y000973D01*
X006744Y001131D02*
X006425Y001131D01*
X006425Y001290D02*
X006744Y001290D01*
X006744Y001448D02*
X006425Y001448D01*
X006425Y001607D02*
X006744Y001607D01*
X006747Y001765D02*
X006363Y001765D01*
X006205Y001924D02*
X006747Y001924D01*
X006747Y002082D02*
X006046Y002082D01*
X005729Y002241D02*
X006747Y002241D01*
X006747Y002399D02*
X005729Y002399D01*
X005729Y002558D02*
X006747Y002558D01*
X006747Y002716D02*
X005729Y002716D01*
X005729Y002875D02*
X006747Y002875D01*
X006747Y003033D02*
X005729Y003033D01*
X005729Y003192D02*
X006747Y003192D01*
X006747Y003350D02*
X006540Y003350D01*
X006705Y003509D02*
X006747Y003509D01*
X006747Y003954D02*
X006701Y004066D01*
X006561Y004206D01*
X006416Y004266D01*
X006455Y004282D01*
X006485Y004282D01*
X006505Y004303D01*
X006578Y004333D01*
X006727Y004482D01*
X006747Y004532D01*
X006747Y003954D01*
X006747Y003984D02*
X006735Y003984D01*
X006747Y004143D02*
X006624Y004143D01*
X006503Y004301D02*
X006747Y004301D01*
X006747Y004460D02*
X006704Y004460D01*
X006747Y005033D02*
X006727Y005083D01*
X006578Y005232D01*
X006505Y005262D01*
X006485Y005282D01*
X006455Y005282D01*
X006485Y005282D01*
X006747Y005545D01*
X006747Y005033D01*
X006747Y005094D02*
X006716Y005094D01*
X006747Y005252D02*
X006529Y005252D01*
X006455Y005282D02*
X006455Y005282D01*
X006613Y005411D02*
X006747Y005411D01*
X006747Y006019D02*
X006485Y006282D01*
X006070Y006282D01*
X005777Y005989D01*
X005557Y006209D01*
X005557Y006355D01*
X005777Y006575D01*
X005777Y006989D01*
X005485Y007282D01*
X005173Y007282D01*
X004502Y007953D01*
X004502Y009209D01*
X004560Y009151D01*
X004663Y009109D01*
X005096Y009109D01*
X005210Y008994D01*
X005382Y008923D01*
X005567Y008923D01*
X005738Y008994D01*
X005869Y009125D01*
X005901Y009202D01*
X005911Y009193D01*
X005981Y009193D01*
X005777Y008989D01*
X005777Y008575D01*
X006070Y008282D01*
X006485Y008282D01*
X006747Y008545D01*
X006747Y007954D01*
X006701Y008066D01*
X006561Y008206D01*
X006377Y008282D01*
X006178Y008282D01*
X005994Y008206D01*
X005854Y008066D01*
X005777Y007882D01*
X005777Y007683D01*
X005854Y007499D01*
X005994Y007358D01*
X006178Y007282D01*
X006377Y007282D01*
X006561Y007358D01*
X006701Y007499D01*
X006747Y007610D01*
X006747Y007019D01*
X006485Y007282D01*
X006070Y007282D01*
X005777Y006989D01*
X005777Y006575D01*
X006070Y006282D01*
X006485Y006282D01*
X006747Y006545D01*
X006747Y006019D01*
X006747Y006045D02*
X006722Y006045D01*
X006747Y006203D02*
X006564Y006203D01*
X006564Y006362D02*
X006747Y006362D01*
X006747Y006520D02*
X006722Y006520D01*
X006747Y007154D02*
X006613Y007154D01*
X006747Y007313D02*
X006450Y007313D01*
X006673Y007471D02*
X006747Y007471D01*
X006105Y007313D02*
X005143Y007313D01*
X004985Y007471D02*
X005882Y007471D01*
X005800Y007630D02*
X004826Y007630D01*
X004668Y007788D02*
X005777Y007788D01*
X005804Y007947D02*
X004509Y007947D01*
X004502Y008105D02*
X005893Y008105D01*
X006132Y008264D02*
X004502Y008264D01*
X004502Y008422D02*
X005931Y008422D01*
X005777Y008581D02*
X004502Y008581D01*
X004502Y008739D02*
X005777Y008739D01*
X005777Y008898D02*
X004502Y008898D01*
X004502Y009056D02*
X005148Y009056D01*
X005474Y009389D02*
X004718Y009389D01*
X004459Y009649D01*
X004459Y013900D01*
X004104Y014255D01*
X004318Y014575D02*
X004179Y014633D01*
X004098Y014633D01*
X004098Y014930D01*
X003823Y015205D01*
X003433Y015205D01*
X003158Y014930D01*
X003158Y014540D01*
X003433Y014265D01*
X003726Y014265D01*
X003726Y014205D01*
X003433Y014205D01*
X003158Y013930D01*
X003158Y013601D01*
X003098Y013661D01*
X003098Y013930D01*
X002823Y014205D01*
X002433Y014205D01*
X002417Y014189D01*
X002417Y014281D01*
X002433Y014265D01*
X002823Y014265D01*
X003098Y014540D01*
X003098Y014930D01*
X002823Y015205D01*
X002433Y015205D01*
X002417Y015189D01*
X002417Y015281D01*
X002433Y015265D01*
X002823Y015265D01*
X003098Y015540D01*
X003098Y015930D01*
X002823Y016205D01*
X002433Y016205D01*
X002417Y016189D01*
X002417Y016281D01*
X002433Y016265D01*
X002823Y016265D01*
X003098Y016540D01*
X003098Y016930D01*
X002823Y017205D01*
X002433Y017205D01*
X002417Y017189D01*
X002417Y017310D01*
X002441Y017285D01*
X002618Y017285D01*
X002618Y017725D01*
X002638Y017725D01*
X002638Y017745D01*
X003078Y017745D01*
X003078Y017922D01*
X002899Y018100D01*
X003172Y018100D01*
X003197Y018125D01*
X003220Y018102D01*
X003222Y018100D01*
X003316Y018100D01*
X003328Y018100D01*
X003158Y017930D01*
X003158Y017540D01*
X003433Y017265D01*
X003702Y017265D01*
X003782Y017185D01*
X003638Y017185D01*
X003638Y016745D01*
X003618Y016745D01*
X003618Y017185D01*
X003441Y017185D01*
X003178Y016922D01*
X003178Y016745D01*
X003618Y016745D01*
X003618Y016725D01*
X003638Y016725D01*
X003638Y016285D01*
X003814Y016285D01*
X003915Y016386D01*
X003903Y016358D01*
X003903Y016207D01*
X003961Y016068D01*
X004067Y015962D01*
X004206Y015904D01*
X004357Y015904D01*
X004496Y015962D01*
X004602Y016068D01*
X004659Y016207D01*
X004659Y016358D01*
X004602Y016497D01*
X004561Y016537D01*
X004561Y017137D01*
X004519Y017240D01*
X004098Y017661D01*
X004098Y017930D01*
X003920Y018108D01*
X003939Y018117D01*
X004014Y018142D01*
X004022Y018159D01*
X004039Y018167D01*
X004064Y018242D01*
X004246Y018606D01*
X004185Y018787D01*
X004032Y018864D01*
X004154Y018985D01*
X004227Y019058D01*
X004227Y019249D01*
X004093Y019384D01*
X004039Y019384D01*
X004081Y019425D01*
X004081Y019505D01*
X005093Y019505D01*
X005037Y019370D01*
X005037Y018724D01*
X005104Y018564D01*
X005226Y018441D01*
X005387Y018374D01*
X005560Y018374D01*
X005721Y018441D01*
X005843Y018564D01*
X005910Y018724D01*
X005910Y019370D01*
X005854Y019505D01*
X007050Y019505D01*
X007026Y019493D01*
X006965Y019448D01*
X006911Y019395D01*
X006867Y019334D01*
X006833Y019267D01*
X006809Y019195D01*
X006797Y019120D01*
X006797Y018802D01*
X007257Y018802D01*
X007257Y018762D01*
X006797Y018762D01*
X006797Y018445D01*
X006809Y018370D01*
X006833Y018298D01*
X006867Y018231D01*
X006911Y018170D01*
X006934Y018147D01*
X006777Y017989D01*
X006485Y018282D01*
X006070Y018282D01*
X005777Y017989D01*
X005777Y017575D01*
X005957Y017395D01*
X005957Y017169D01*
X005777Y016989D01*
X005777Y016575D01*
X005957Y016395D01*
X005957Y016169D01*
X005777Y015989D01*
X005777Y015575D01*
X006070Y015282D01*
X005777Y014989D01*
X005777Y014575D01*
X005997Y014355D01*
X005997Y014209D01*
X005777Y013989D01*
X005777Y013575D01*
X005997Y013355D01*
X005997Y013209D01*
X005777Y012989D01*
X005777Y012575D01*
X006070Y012282D01*
X006485Y012282D01*
X006777Y012575D01*
X006777Y012989D01*
X006557Y013209D01*
X006557Y013355D01*
X006777Y013575D01*
X006777Y013989D01*
X006557Y014209D01*
X006557Y014355D01*
X006777Y014575D01*
X006777Y014989D01*
X006485Y015282D01*
X006070Y015282D01*
X006485Y015282D01*
X006777Y015575D01*
X006777Y015989D01*
X006597Y016169D01*
X006597Y016395D01*
X006777Y016575D01*
X006777Y016989D01*
X006597Y017169D01*
X006597Y017395D01*
X006777Y017575D01*
X006777Y017989D01*
X006777Y017575D01*
X006957Y017395D01*
X006957Y017169D01*
X006777Y016989D01*
X006777Y016575D01*
X006957Y016395D01*
X006957Y016169D01*
X006777Y015989D01*
X006777Y015575D01*
X007070Y015282D01*
X006777Y014989D01*
X006777Y014575D01*
X006997Y014355D01*
X006997Y014209D01*
X006777Y013989D01*
X006777Y013575D01*
X006997Y013355D01*
X006997Y013209D01*
X006777Y012989D01*
X006777Y012575D01*
X006920Y012432D01*
X006854Y012366D01*
X006777Y012182D01*
X006777Y011409D01*
X005903Y011409D01*
X005910Y011424D01*
X005910Y012070D01*
X005843Y012230D01*
X005721Y012353D01*
X005584Y012410D01*
X005757Y012584D01*
X005757Y012762D01*
X005297Y012762D01*
X005297Y012802D01*
X005257Y012802D01*
X005257Y012762D01*
X004797Y012762D01*
X004797Y012584D01*
X005079Y012302D01*
X005176Y012302D01*
X005104Y012230D01*
X005037Y012070D01*
X005037Y011664D01*
X005025Y011634D01*
X005025Y010282D01*
X005068Y010179D01*
X005146Y010100D01*
X005392Y009854D01*
X005382Y009854D01*
X005210Y009784D01*
X005096Y009669D01*
X004834Y009669D01*
X004739Y009764D01*
X004739Y013956D01*
X004696Y014059D01*
X004482Y014273D01*
X004482Y014330D01*
X004425Y014469D01*
X004318Y014575D01*
X004250Y014604D02*
X004797Y014604D01*
X004797Y014584D02*
X005079Y014302D01*
X005257Y014302D01*
X005257Y014762D01*
X005297Y014762D01*
X005297Y014302D01*
X005476Y014302D01*
X005757Y014584D01*
X005757Y014762D01*
X005777Y014762D01*
X005757Y014762D02*
X005297Y014762D01*
X005257Y014762D01*
X004797Y014762D01*
X004098Y014762D01*
X004098Y014921D02*
X004797Y014921D01*
X004797Y014981D02*
X004797Y014802D01*
X005257Y014802D01*
X005257Y014762D01*
X005277Y014782D02*
X005277Y013782D01*
X005277Y012782D01*
X005257Y012802D02*
X004797Y012802D01*
X004797Y012981D01*
X005079Y013262D01*
X005257Y013262D01*
X005257Y012802D01*
X005297Y012802D02*
X005297Y013262D01*
X005476Y013262D01*
X005757Y012981D01*
X005757Y012802D01*
X005297Y012802D01*
X005297Y012860D02*
X005257Y012860D01*
X005257Y013019D02*
X005297Y013019D01*
X005297Y013177D02*
X005257Y013177D01*
X005257Y013302D02*
X005257Y013762D01*
X005297Y013762D01*
X005297Y013302D01*
X005476Y013302D01*
X005757Y013584D01*
X005757Y013762D01*
X005297Y013762D01*
X005297Y013802D01*
X005257Y013802D01*
X005257Y013762D01*
X004797Y013762D01*
X004797Y013584D01*
X005079Y013302D01*
X005257Y013302D01*
X005257Y013336D02*
X005297Y013336D01*
X005297Y013494D02*
X005257Y013494D01*
X005257Y013653D02*
X005297Y013653D01*
X005297Y013802D02*
X005757Y013802D01*
X005757Y013981D01*
X005476Y014262D01*
X005297Y014262D01*
X005297Y013802D01*
X005297Y013811D02*
X005257Y013811D01*
X005257Y013802D02*
X005257Y014262D01*
X005079Y014262D01*
X004797Y013981D01*
X004797Y013802D01*
X005257Y013802D01*
X005257Y013970D02*
X005297Y013970D01*
X005297Y014128D02*
X005257Y014128D01*
X004944Y014128D02*
X004627Y014128D01*
X004733Y013970D02*
X004797Y013970D01*
X004797Y013811D02*
X004739Y013811D01*
X004739Y013653D02*
X004797Y013653D01*
X004739Y013494D02*
X004887Y013494D01*
X004739Y013336D02*
X005045Y013336D01*
X004993Y013177D02*
X004739Y013177D01*
X004739Y013019D02*
X004835Y013019D01*
X004797Y012860D02*
X004739Y012860D01*
X004739Y012702D02*
X004797Y012702D01*
X004838Y012543D02*
X004739Y012543D01*
X004739Y012385D02*
X004996Y012385D01*
X005102Y012226D02*
X004739Y012226D01*
X004739Y012068D02*
X005037Y012068D01*
X005037Y011909D02*
X004739Y011909D01*
X004739Y011751D02*
X005037Y011751D01*
X005025Y011592D02*
X004739Y011592D01*
X004739Y011434D02*
X005025Y011434D01*
X005025Y011275D02*
X004739Y011275D01*
X004739Y011117D02*
X005025Y011117D01*
X005025Y010958D02*
X004739Y010958D01*
X004739Y010800D02*
X005025Y010800D01*
X005025Y010641D02*
X004739Y010641D01*
X004739Y010483D02*
X005025Y010483D01*
X005025Y010324D02*
X004739Y010324D01*
X004739Y010166D02*
X005081Y010166D01*
X005239Y010007D02*
X004739Y010007D01*
X004739Y009849D02*
X005367Y009849D01*
X005117Y009690D02*
X004813Y009690D01*
X005305Y010337D02*
X005305Y011578D01*
X005473Y011747D01*
X005910Y011751D02*
X006777Y011751D01*
X006777Y011909D02*
X005910Y011909D01*
X005910Y012068D02*
X006777Y012068D01*
X006796Y012226D02*
X005845Y012226D01*
X005968Y012385D02*
X005644Y012385D01*
X005717Y012543D02*
X005810Y012543D01*
X005777Y012702D02*
X005757Y012702D01*
X005757Y012860D02*
X005777Y012860D01*
X005806Y013019D02*
X005720Y013019D01*
X005562Y013177D02*
X005965Y013177D01*
X005997Y013336D02*
X005509Y013336D01*
X005668Y013494D02*
X005859Y013494D01*
X005777Y013653D02*
X005757Y013653D01*
X005757Y013811D02*
X005777Y013811D01*
X005777Y013970D02*
X005757Y013970D01*
X005611Y014128D02*
X005916Y014128D01*
X005997Y014287D02*
X004482Y014287D01*
X004435Y014445D02*
X004936Y014445D01*
X004797Y014584D02*
X004797Y014762D01*
X004797Y014981D02*
X005079Y015262D01*
X005257Y015262D01*
X005257Y014802D01*
X005297Y014802D01*
X005297Y015262D01*
X005476Y015262D01*
X005757Y014981D01*
X005757Y014802D01*
X005297Y014802D01*
X005297Y014762D01*
X005277Y014782D02*
X005277Y015782D01*
X005277Y016782D01*
X005277Y017782D01*
X005277Y018219D01*
X005447Y018389D01*
X005679Y018389D01*
X006112Y018822D01*
X007238Y018822D01*
X007277Y018782D01*
X007297Y018762D02*
X007297Y018802D01*
X007757Y018802D01*
X007757Y019120D01*
X007746Y019195D01*
X007722Y019267D01*
X007688Y019334D01*
X007644Y019395D01*
X007590Y019448D01*
X007529Y019493D01*
X007505Y019505D01*
X007993Y019505D01*
X007854Y019366D01*
X007777Y019182D01*
X007777Y018678D01*
X007757Y018658D01*
X007757Y018762D01*
X007297Y018762D01*
X006797Y018725D02*
X005910Y018725D01*
X005910Y018883D02*
X006797Y018883D01*
X006797Y019042D02*
X005910Y019042D01*
X005910Y019200D02*
X006811Y019200D01*
X006885Y019359D02*
X005910Y019359D01*
X005844Y018566D02*
X006797Y018566D01*
X006803Y018408D02*
X005640Y018408D01*
X005490Y018249D02*
X006037Y018249D01*
X005878Y018091D02*
X005648Y018091D01*
X005757Y017981D02*
X005476Y018262D01*
X005297Y018262D01*
X005297Y017802D01*
X005257Y017802D01*
X005257Y017762D01*
X005297Y017762D01*
X005297Y017302D01*
X005476Y017302D01*
X005757Y017584D01*
X005757Y017762D01*
X005297Y017762D01*
X005297Y017802D01*
X005757Y017802D01*
X005757Y017981D01*
X005757Y017932D02*
X005777Y017932D01*
X005777Y017774D02*
X005297Y017774D01*
X005257Y017774D02*
X004098Y017774D01*
X004096Y017932D02*
X004797Y017932D01*
X004797Y017981D02*
X004797Y017802D01*
X005257Y017802D01*
X005257Y018262D01*
X005079Y018262D01*
X004797Y017981D01*
X004907Y018091D02*
X003937Y018091D01*
X004067Y018249D02*
X005065Y018249D01*
X005257Y018249D02*
X005297Y018249D01*
X005297Y018091D02*
X005257Y018091D01*
X005257Y017932D02*
X005297Y017932D01*
X005257Y017762D02*
X004797Y017762D01*
X004797Y017584D01*
X005079Y017302D01*
X005257Y017302D01*
X005257Y017762D01*
X005257Y017615D02*
X005297Y017615D01*
X005297Y017457D02*
X005257Y017457D01*
X005257Y017262D02*
X005079Y017262D01*
X004797Y016981D01*
X004561Y016981D01*
X004561Y016823D02*
X004797Y016823D01*
X004797Y016802D02*
X004797Y016981D01*
X004797Y016802D02*
X005257Y016802D01*
X005257Y016762D01*
X005297Y016762D01*
X005297Y016302D01*
X005476Y016302D01*
X005757Y016584D01*
X005757Y016762D01*
X005297Y016762D01*
X005297Y016802D01*
X005257Y016802D01*
X005257Y017262D01*
X005297Y017262D02*
X005476Y017262D01*
X005757Y016981D01*
X005777Y016981D01*
X005757Y016981D02*
X005757Y016802D01*
X005297Y016802D01*
X005297Y017262D01*
X005297Y017140D02*
X005257Y017140D01*
X005257Y016981D02*
X005297Y016981D01*
X005297Y016823D02*
X005257Y016823D01*
X005257Y016762D02*
X004797Y016762D01*
X004797Y016584D01*
X005079Y016302D01*
X005257Y016302D01*
X005257Y016762D01*
X005257Y016664D02*
X005297Y016664D01*
X005297Y016506D02*
X005257Y016506D01*
X005257Y016347D02*
X005297Y016347D01*
X005297Y016262D02*
X005476Y016262D01*
X005757Y015981D01*
X005757Y015802D01*
X005297Y015802D01*
X005257Y015802D01*
X005257Y015762D01*
X005297Y015762D01*
X005297Y015302D01*
X005476Y015302D01*
X005757Y015584D01*
X005757Y015762D01*
X005297Y015762D01*
X005297Y015802D01*
X005297Y016262D01*
X005257Y016262D02*
X005079Y016262D01*
X004797Y015981D01*
X004797Y015802D01*
X005257Y015802D01*
X005257Y016262D01*
X005257Y016189D02*
X005297Y016189D01*
X005297Y016030D02*
X005257Y016030D01*
X005257Y015872D02*
X005297Y015872D01*
X005257Y015762D02*
X004797Y015762D01*
X004797Y015584D01*
X005079Y015302D01*
X005257Y015302D01*
X005257Y015762D01*
X005257Y015713D02*
X005297Y015713D01*
X005297Y015555D02*
X005257Y015555D01*
X005257Y015396D02*
X005297Y015396D01*
X005297Y015238D02*
X005257Y015238D01*
X005257Y015079D02*
X005297Y015079D01*
X005297Y014921D02*
X005257Y014921D01*
X005257Y014604D02*
X005297Y014604D01*
X005297Y014445D02*
X005257Y014445D01*
X005619Y014445D02*
X005908Y014445D01*
X005777Y014604D02*
X005757Y014604D01*
X005757Y014921D02*
X005777Y014921D01*
X005867Y015079D02*
X005660Y015079D01*
X005501Y015238D02*
X006025Y015238D01*
X005957Y015396D02*
X005570Y015396D01*
X005728Y015555D02*
X005798Y015555D01*
X005777Y015713D02*
X005757Y015713D01*
X005757Y015872D02*
X005777Y015872D01*
X005818Y016030D02*
X005709Y016030D01*
X005550Y016189D02*
X005957Y016189D01*
X005957Y016347D02*
X005521Y016347D01*
X005679Y016506D02*
X005847Y016506D01*
X005777Y016664D02*
X005757Y016664D01*
X005757Y016823D02*
X005777Y016823D01*
X005927Y017140D02*
X005599Y017140D01*
X005957Y017298D02*
X004461Y017298D01*
X004560Y017140D02*
X004956Y017140D01*
X004924Y017457D02*
X004302Y017457D01*
X004144Y017615D02*
X004797Y017615D01*
X004281Y017082D02*
X003628Y017735D01*
X003319Y018091D02*
X002909Y018091D01*
X003067Y017932D02*
X003160Y017932D01*
X003158Y017774D02*
X003078Y017774D01*
X003078Y017725D02*
X002638Y017725D01*
X002638Y017285D01*
X002814Y017285D01*
X003078Y017549D01*
X003078Y017725D01*
X003078Y017615D02*
X003158Y017615D01*
X003242Y017457D02*
X002986Y017457D01*
X002827Y017298D02*
X003400Y017298D01*
X003396Y017140D02*
X002888Y017140D01*
X003047Y016981D02*
X003237Y016981D01*
X003178Y016823D02*
X003098Y016823D01*
X003178Y016725D02*
X003178Y016549D01*
X003441Y016285D01*
X003618Y016285D01*
X003618Y016725D01*
X003178Y016725D01*
X003178Y016664D02*
X003098Y016664D01*
X003063Y016506D02*
X003221Y016506D01*
X003380Y016347D02*
X002904Y016347D01*
X002839Y016189D02*
X003417Y016189D01*
X003433Y016205D02*
X003158Y015930D01*
X003158Y015540D01*
X003433Y015265D01*
X003823Y015265D01*
X004098Y015540D01*
X004098Y015930D01*
X003823Y016205D01*
X003433Y016205D01*
X003618Y016347D02*
X003638Y016347D01*
X003638Y016506D02*
X003618Y016506D01*
X003618Y016664D02*
X003638Y016664D01*
X003638Y016823D02*
X003618Y016823D01*
X003618Y016981D02*
X003638Y016981D01*
X003638Y017140D02*
X003618Y017140D01*
X004281Y017082D02*
X004281Y016282D01*
X004564Y016030D02*
X004846Y016030D01*
X004797Y015872D02*
X004098Y015872D01*
X004098Y015713D02*
X004797Y015713D01*
X004826Y015555D02*
X004098Y015555D01*
X003953Y015396D02*
X004985Y015396D01*
X005054Y015238D02*
X002417Y015238D01*
X002949Y015079D02*
X003307Y015079D01*
X003158Y014921D02*
X003098Y014921D01*
X003098Y014762D02*
X003158Y014762D01*
X003158Y014604D02*
X003098Y014604D01*
X003002Y014445D02*
X003253Y014445D01*
X003412Y014287D02*
X002844Y014287D01*
X002900Y014128D02*
X003356Y014128D01*
X003198Y013970D02*
X003058Y013970D01*
X003098Y013811D02*
X003158Y013811D01*
X003158Y013653D02*
X003106Y013653D01*
X003132Y013231D02*
X004085Y013231D01*
X004222Y013093D01*
X004222Y007837D01*
X005277Y006782D01*
X005277Y005782D01*
X004942Y005411D02*
X004757Y005411D01*
X004784Y005569D02*
X004611Y005569D01*
X004777Y005728D02*
X004098Y005728D01*
X004098Y005886D02*
X004777Y005886D01*
X004832Y006045D02*
X003983Y006045D01*
X003825Y006203D02*
X004991Y006203D01*
X004991Y006362D02*
X003919Y006362D01*
X004077Y006520D02*
X004833Y006520D01*
X004777Y006679D02*
X004098Y006679D01*
X004098Y006837D02*
X004777Y006837D01*
X004668Y006996D02*
X004032Y006996D01*
X003874Y007154D02*
X004510Y007154D01*
X004351Y007313D02*
X003870Y007313D01*
X004028Y007471D02*
X004193Y007471D01*
X003942Y008085D02*
X003823Y008205D01*
X003433Y008205D01*
X003420Y008192D01*
X003420Y008279D01*
X003433Y008265D01*
X003823Y008265D01*
X003942Y008385D01*
X003942Y008085D01*
X003942Y008105D02*
X003923Y008105D01*
X003942Y008264D02*
X003420Y008264D01*
X002860Y008264D02*
X002417Y008264D01*
X002433Y008265D02*
X002823Y008265D01*
X002860Y008302D01*
X002860Y008168D01*
X002823Y008205D01*
X002433Y008205D01*
X002417Y008189D01*
X002417Y008281D01*
X002433Y008265D01*
X002860Y007302D02*
X002860Y007168D01*
X002823Y007205D01*
X002433Y007205D01*
X002417Y007189D01*
X002417Y007281D01*
X002433Y007265D01*
X002823Y007265D01*
X002860Y007302D01*
X002860Y006302D02*
X002860Y006168D01*
X002823Y006205D01*
X002433Y006205D01*
X002417Y006189D01*
X002417Y006281D01*
X002433Y006265D01*
X002823Y006265D01*
X002860Y006302D01*
X002860Y006203D02*
X002825Y006203D01*
X002431Y006203D02*
X002417Y006203D01*
X003140Y005397D02*
X003140Y012223D01*
X002628Y012735D01*
X002702Y012265D02*
X002433Y012265D01*
X002417Y012281D01*
X002417Y012189D01*
X002433Y012205D01*
X002762Y012205D01*
X002702Y012265D01*
X002741Y012226D02*
X002417Y012226D01*
X003098Y012930D02*
X003076Y012951D01*
X003207Y012951D01*
X003178Y012922D01*
X003178Y012745D01*
X003618Y012745D01*
X003618Y012725D01*
X003638Y012725D01*
X003638Y012285D01*
X003814Y012285D01*
X003942Y012413D01*
X003942Y012085D01*
X003823Y012205D01*
X003433Y012205D01*
X003420Y012192D01*
X003420Y012279D01*
X003400Y012327D01*
X003441Y012285D01*
X003618Y012285D01*
X003618Y012725D01*
X003178Y012725D01*
X003178Y012581D01*
X003098Y012661D01*
X003098Y012930D01*
X003098Y012860D02*
X003178Y012860D01*
X003178Y012702D02*
X003098Y012702D01*
X003618Y012702D02*
X003638Y012702D01*
X003638Y012543D02*
X003618Y012543D01*
X003618Y012385D02*
X003638Y012385D01*
X003420Y012226D02*
X003942Y012226D01*
X003942Y012385D02*
X003914Y012385D01*
X003132Y013231D02*
X002628Y013735D01*
X002702Y013265D02*
X002433Y013265D01*
X002417Y013281D01*
X002417Y013189D01*
X002433Y013205D01*
X002762Y013205D01*
X002702Y013265D01*
X004069Y013511D02*
X004098Y013540D01*
X004098Y013865D01*
X004179Y013784D01*
X004179Y013495D01*
X004140Y013511D01*
X004069Y013511D01*
X004098Y013653D02*
X004179Y013653D01*
X004152Y013811D02*
X004098Y013811D01*
X003949Y015079D02*
X004895Y015079D01*
X005005Y016189D02*
X004652Y016189D01*
X004659Y016347D02*
X005034Y016347D01*
X004875Y016506D02*
X004593Y016506D01*
X004561Y016664D02*
X004797Y016664D01*
X003903Y016347D02*
X003876Y016347D01*
X003911Y016189D02*
X003839Y016189D01*
X003998Y016030D02*
X003999Y016030D01*
X003302Y015396D02*
X002953Y015396D01*
X003098Y015555D02*
X003158Y015555D01*
X003158Y015713D02*
X003098Y015713D01*
X003098Y015872D02*
X003158Y015872D01*
X003258Y016030D02*
X002998Y016030D01*
X002638Y017298D02*
X002618Y017298D01*
X002618Y017457D02*
X002638Y017457D01*
X002638Y017615D02*
X002618Y017615D01*
X002429Y017298D02*
X002417Y017298D01*
X003222Y018100D02*
X003222Y018100D01*
X003013Y018782D02*
X002930Y018866D01*
X002912Y018884D01*
X002930Y018902D01*
X002981Y018850D01*
X003071Y018850D01*
X003013Y018793D01*
X003013Y018793D01*
X003013Y018782D01*
X003013Y018793D02*
X003013Y018793D01*
X002949Y018883D02*
X002913Y018883D01*
X002571Y018967D02*
X002470Y018866D01*
X002470Y018560D01*
X002458Y018560D01*
X002417Y018520D01*
X002417Y019505D01*
X002553Y019505D01*
X002553Y018985D01*
X002555Y018983D01*
X002571Y018967D01*
X002553Y019042D02*
X002417Y019042D01*
X002417Y019200D02*
X002553Y019200D01*
X002553Y019359D02*
X002417Y019359D01*
X002417Y018883D02*
X002487Y018883D01*
X002470Y018725D02*
X002417Y018725D01*
X002417Y018566D02*
X002470Y018566D01*
X003671Y018889D02*
X003694Y018912D01*
X003755Y018850D01*
X003949Y018850D01*
X003851Y018817D01*
X003688Y018872D01*
X003671Y018889D01*
X003677Y018883D02*
X003723Y018883D01*
X004052Y018883D02*
X005037Y018883D01*
X005037Y018725D02*
X004206Y018725D01*
X004226Y018566D02*
X005103Y018566D01*
X005307Y018408D02*
X004146Y018408D01*
X004210Y019042D02*
X005037Y019042D01*
X005037Y019200D02*
X004227Y019200D01*
X004118Y019359D02*
X005037Y019359D01*
X006518Y018249D02*
X006858Y018249D01*
X006878Y018091D02*
X006676Y018091D01*
X006777Y017932D02*
X006777Y017932D01*
X006777Y017774D02*
X006777Y017774D01*
X006777Y017615D02*
X006777Y017615D01*
X006659Y017457D02*
X006896Y017457D01*
X006957Y017298D02*
X006597Y017298D01*
X006627Y017140D02*
X006927Y017140D01*
X006777Y016981D02*
X006777Y016981D01*
X006777Y016823D02*
X006777Y016823D01*
X006777Y016664D02*
X006777Y016664D01*
X006708Y016506D02*
X006847Y016506D01*
X006957Y016347D02*
X006597Y016347D01*
X006597Y016189D02*
X006957Y016189D01*
X006818Y016030D02*
X006737Y016030D01*
X006777Y015872D02*
X006777Y015872D01*
X006777Y015713D02*
X006777Y015713D01*
X006757Y015555D02*
X006798Y015555D01*
X006957Y015396D02*
X006598Y015396D01*
X006529Y015238D02*
X007025Y015238D01*
X007070Y015282D02*
X007407Y015282D01*
X007407Y015282D01*
X007070Y015282D01*
X006867Y015079D02*
X006688Y015079D01*
X006777Y014921D02*
X006777Y014921D01*
X006777Y014762D02*
X006777Y014762D01*
X006777Y014604D02*
X006777Y014604D01*
X006647Y014445D02*
X006908Y014445D01*
X006997Y014287D02*
X006557Y014287D01*
X006639Y014128D02*
X006916Y014128D01*
X006777Y013970D02*
X006777Y013970D01*
X006777Y013811D02*
X006777Y013811D01*
X006777Y013653D02*
X006777Y013653D01*
X006696Y013494D02*
X006859Y013494D01*
X006997Y013336D02*
X006557Y013336D01*
X006590Y013177D02*
X006965Y013177D01*
X006806Y013019D02*
X006748Y013019D01*
X006777Y012860D02*
X006777Y012860D01*
X006777Y012702D02*
X006777Y012702D01*
X006745Y012543D02*
X006810Y012543D01*
X006872Y012385D02*
X006587Y012385D01*
X006277Y012782D02*
X006277Y013782D01*
X006277Y014782D01*
X007277Y014782D02*
X007277Y013782D01*
X007277Y012782D01*
X007635Y012432D02*
X007777Y012575D01*
X007777Y012989D01*
X007557Y013209D01*
X007557Y013355D01*
X007777Y013575D01*
X007777Y013989D01*
X007557Y014209D01*
X007557Y014355D01*
X007777Y014575D01*
X007777Y014979D01*
X007777Y014979D01*
X007777Y014575D01*
X007997Y014355D01*
X007997Y014209D01*
X007777Y013989D01*
X007777Y013575D01*
X007997Y013355D01*
X007997Y013209D01*
X007777Y012989D01*
X007777Y012575D01*
X007920Y012432D01*
X007854Y012366D01*
X007777Y012182D01*
X007701Y012366D01*
X007635Y012432D01*
X007682Y012385D02*
X007872Y012385D01*
X007810Y012543D02*
X007745Y012543D01*
X007777Y012702D02*
X007777Y012702D01*
X007777Y012860D02*
X007777Y012860D01*
X007748Y013019D02*
X007806Y013019D01*
X007965Y013177D02*
X007590Y013177D01*
X007557Y013336D02*
X007997Y013336D01*
X007859Y013494D02*
X007696Y013494D01*
X007777Y013653D02*
X007777Y013653D01*
X007777Y013811D02*
X007777Y013811D01*
X007777Y013970D02*
X007777Y013970D01*
X007639Y014128D02*
X007916Y014128D01*
X007997Y014287D02*
X007557Y014287D01*
X007647Y014445D02*
X007908Y014445D01*
X007777Y014604D02*
X007777Y014604D01*
X007777Y014762D02*
X007777Y014762D01*
X007777Y014921D02*
X007777Y014921D01*
X007785Y015357D02*
X007785Y018290D01*
X008277Y018782D01*
X007777Y018725D02*
X007757Y018725D01*
X007757Y018883D02*
X007777Y018883D01*
X007777Y019042D02*
X007757Y019042D01*
X007744Y019200D02*
X007785Y019200D01*
X007851Y019359D02*
X007670Y019359D01*
X008562Y019505D02*
X008993Y019505D01*
X008854Y019366D01*
X008777Y019182D01*
X008701Y019366D01*
X008562Y019505D01*
X008704Y019359D02*
X008851Y019359D01*
X008785Y019200D02*
X008770Y019200D01*
X008777Y019182D02*
X008777Y018383D01*
X008777Y019182D01*
X008777Y019042D02*
X008777Y019042D01*
X008777Y018883D02*
X008777Y018883D01*
X008777Y018725D02*
X008777Y018725D01*
X008777Y018566D02*
X008777Y018566D01*
X008777Y018408D02*
X008777Y018408D01*
X008777Y018383D02*
X008854Y018199D01*
X008920Y018132D01*
X008777Y017989D01*
X008635Y018132D01*
X008701Y018199D01*
X008777Y018383D01*
X008722Y018249D02*
X008833Y018249D01*
X008878Y018091D02*
X008676Y018091D01*
X008777Y017989D02*
X008777Y017575D01*
X008597Y017395D01*
X008597Y017169D01*
X008777Y016989D01*
X008777Y016575D01*
X008597Y016395D01*
X008597Y016169D01*
X008777Y015989D01*
X008777Y015575D01*
X008485Y015282D01*
X008163Y015282D01*
X008485Y015282D01*
X008777Y014989D01*
X008777Y014575D01*
X008557Y014355D01*
X008557Y014209D01*
X008777Y013989D01*
X008777Y013575D01*
X008557Y013355D01*
X008557Y013209D01*
X008777Y012989D01*
X008777Y012575D01*
X008635Y012432D01*
X008701Y012366D01*
X008777Y012182D01*
X008777Y011383D01*
X008701Y011199D01*
X008612Y011110D01*
X008943Y011110D01*
X008854Y011199D01*
X008777Y011383D01*
X008777Y012182D01*
X008854Y012366D01*
X008920Y012432D01*
X008777Y012575D01*
X008777Y012989D01*
X008997Y013209D01*
X008997Y013355D01*
X008777Y013575D01*
X008777Y013989D01*
X008997Y014209D01*
X008997Y014355D01*
X008777Y014575D01*
X008777Y014989D01*
X009070Y015282D01*
X009485Y015282D01*
X009777Y014989D01*
X009777Y014575D01*
X009557Y014355D01*
X009557Y014209D01*
X009777Y013989D01*
X009777Y013575D01*
X009557Y013355D01*
X009557Y013209D01*
X009777Y012989D01*
X009777Y012575D01*
X009635Y012432D01*
X009701Y012366D01*
X009777Y012182D01*
X009777Y011383D01*
X009701Y011199D01*
X009577Y011075D01*
X009597Y011067D01*
X009676Y010988D01*
X009719Y010885D01*
X009719Y009548D01*
X009748Y009518D01*
X009804Y009652D01*
X009919Y009767D01*
X009919Y010673D01*
X009878Y010714D01*
X009821Y010853D01*
X009821Y011003D01*
X009878Y011142D01*
X009985Y011249D01*
X010123Y011306D01*
X010274Y011306D01*
X010322Y011286D01*
X010318Y011293D01*
X010288Y011351D01*
X010268Y011413D01*
X010257Y011478D01*
X010257Y011747D01*
X010673Y011747D01*
X010673Y011747D01*
X010257Y011747D01*
X010257Y012016D01*
X010268Y012081D01*
X010288Y012143D01*
X010318Y012201D01*
X010356Y012254D01*
X010384Y012282D01*
X010070Y012282D01*
X009777Y012575D01*
X009777Y012989D01*
X009997Y013209D01*
X009997Y013355D01*
X009777Y013575D01*
X009777Y013989D01*
X009997Y014209D01*
X009997Y014355D01*
X009777Y014575D01*
X009777Y014989D01*
X010070Y015282D01*
X010485Y015282D01*
X010777Y014989D01*
X010777Y014575D01*
X010557Y014355D01*
X010557Y014209D01*
X010777Y013989D01*
X010777Y013575D01*
X010557Y013355D01*
X010557Y013209D01*
X010777Y012989D01*
X010777Y012575D01*
X010594Y012392D01*
X010641Y012399D01*
X010673Y012399D01*
X010673Y011747D01*
X010673Y011747D01*
X010673Y011747D01*
X010673Y011094D01*
X010641Y011094D01*
X010576Y011105D01*
X010528Y011120D01*
X010577Y011003D01*
X010577Y010853D01*
X010519Y010714D01*
X010479Y010673D01*
X010479Y009767D01*
X010594Y009652D01*
X010664Y009481D01*
X010664Y009296D01*
X010594Y009125D01*
X010463Y008994D01*
X010409Y008972D01*
X010648Y008972D01*
X010765Y008855D01*
X010765Y008529D01*
X010678Y008442D01*
X010765Y008355D01*
X010765Y008029D01*
X010678Y007942D01*
X010765Y007855D01*
X010765Y007529D01*
X010648Y007412D01*
X009923Y007412D01*
X009820Y007454D01*
X009556Y007718D01*
X009556Y007718D01*
X009485Y007789D01*
X009485Y007692D01*
X009065Y007692D01*
X009065Y007692D01*
X009065Y007912D01*
X009065Y007912D01*
X009065Y007692D01*
X009065Y007692D01*
X009485Y007692D01*
X009485Y007588D01*
X009472Y007542D01*
X009449Y007501D01*
X009415Y007468D01*
X009374Y007444D01*
X009328Y007432D01*
X009065Y007432D01*
X009065Y007692D01*
X009277Y007479D01*
X009277Y006782D01*
X009277Y005782D01*
X009257Y005762D02*
X009297Y005762D01*
X009297Y005302D01*
X009476Y005302D01*
X009757Y005584D01*
X009757Y005762D01*
X009297Y005762D01*
X009297Y005802D01*
X009257Y005802D01*
X009257Y005762D01*
X009257Y005302D01*
X009079Y005302D01*
X008797Y005584D01*
X008797Y005762D01*
X009257Y005762D01*
X009257Y005728D02*
X009297Y005728D01*
X009297Y005802D02*
X009757Y005802D01*
X009757Y005981D01*
X009476Y006262D01*
X009297Y006262D01*
X009297Y005802D01*
X009257Y005802D02*
X009257Y006262D01*
X009079Y006262D01*
X008797Y005981D01*
X008797Y005802D01*
X009257Y005802D01*
X009257Y005886D02*
X009297Y005886D01*
X009297Y006045D02*
X009257Y006045D01*
X009257Y006203D02*
X009297Y006203D01*
X009297Y006302D02*
X009476Y006302D01*
X009757Y006584D01*
X009757Y006762D01*
X009297Y006762D01*
X009297Y006302D01*
X009257Y006302D02*
X009257Y006762D01*
X009297Y006762D01*
X009297Y006802D01*
X009257Y006802D01*
X009257Y006762D01*
X008797Y006762D01*
X008797Y006584D01*
X009079Y006302D01*
X009257Y006302D01*
X009257Y006362D02*
X009297Y006362D01*
X009297Y006520D02*
X009257Y006520D01*
X009257Y006679D02*
X009297Y006679D01*
X009297Y006802D02*
X009757Y006802D01*
X009757Y006981D01*
X009476Y007262D01*
X009297Y007262D01*
X009297Y006802D01*
X009297Y006837D02*
X009257Y006837D01*
X009257Y006802D02*
X009257Y007262D01*
X009079Y007262D01*
X008797Y006981D01*
X008797Y006802D01*
X009257Y006802D01*
X009257Y006996D02*
X009297Y006996D01*
X009297Y007154D02*
X009257Y007154D01*
X009585Y007154D02*
X009942Y007154D01*
X010070Y007282D02*
X009777Y006989D01*
X009777Y006575D01*
X010070Y006282D01*
X009777Y005989D01*
X009777Y005575D01*
X010070Y005282D01*
X010485Y005282D01*
X010777Y005575D01*
X010777Y005989D01*
X010485Y006282D01*
X010070Y006282D01*
X010485Y006282D01*
X010777Y006575D01*
X010777Y006989D01*
X010485Y007282D01*
X010070Y007282D01*
X009803Y007471D02*
X009419Y007471D01*
X009485Y007630D02*
X009645Y007630D01*
X009485Y007788D02*
X009486Y007788D01*
X009437Y007894D02*
X009415Y007916D01*
X009400Y007925D01*
X009434Y007959D01*
X009434Y007900D01*
X009437Y007894D01*
X009434Y007947D02*
X009422Y007947D01*
X009065Y007788D02*
X009065Y007788D01*
X009065Y007692D02*
X009065Y007692D01*
X009065Y007692D01*
X008777Y007692D01*
X008777Y007692D01*
X009065Y007692D01*
X009065Y007432D01*
X008801Y007432D01*
X008755Y007444D01*
X008714Y007468D01*
X008692Y007490D01*
X008485Y007282D01*
X008070Y007282D01*
X007807Y007545D01*
X007807Y006991D01*
X008079Y007262D01*
X008257Y007262D01*
X008257Y006802D01*
X008297Y006802D01*
X008297Y007262D01*
X008476Y007262D01*
X008757Y006981D01*
X008757Y006802D01*
X008297Y006802D01*
X008297Y006762D01*
X008297Y006302D01*
X008476Y006302D01*
X008757Y006584D01*
X008757Y006762D01*
X008297Y006762D01*
X008257Y006762D01*
X008257Y006302D01*
X008079Y006302D01*
X007807Y006574D01*
X007807Y005991D01*
X008079Y006262D01*
X008257Y006262D01*
X008257Y005802D01*
X008297Y005802D01*
X008297Y006262D01*
X008476Y006262D01*
X008757Y005981D01*
X008757Y005802D01*
X008297Y005802D01*
X008297Y005762D01*
X008297Y005302D01*
X008476Y005302D01*
X008757Y005584D01*
X008757Y005762D01*
X008297Y005762D01*
X008257Y005762D01*
X008257Y005302D01*
X008079Y005302D01*
X007807Y005574D01*
X007807Y005019D01*
X008070Y005282D01*
X008485Y005282D01*
X008777Y004989D01*
X008777Y004575D01*
X008485Y004282D01*
X008070Y004282D01*
X007807Y004019D01*
X007807Y004545D01*
X008070Y004282D01*
X008485Y004282D01*
X008777Y003989D01*
X008777Y003575D01*
X008485Y003282D01*
X008070Y003282D01*
X007807Y003545D01*
X007807Y002186D01*
X007910Y002186D01*
X008394Y001703D01*
X008394Y001019D01*
X007914Y000540D01*
X009192Y000540D01*
X008712Y001019D01*
X008712Y001703D01*
X009007Y001998D01*
X009007Y004384D01*
X009088Y004579D01*
X009474Y004964D01*
X009474Y004964D01*
X009623Y005114D01*
X009818Y005194D01*
X010304Y005194D01*
X010499Y005114D01*
X010648Y004964D01*
X010729Y004770D01*
X010729Y004559D01*
X010648Y004364D01*
X010499Y004215D01*
X010304Y004134D01*
X010143Y004134D01*
X010067Y004059D01*
X010067Y001998D01*
X010362Y001703D01*
X010362Y001019D01*
X009883Y000540D01*
X010841Y000540D01*
X010797Y000584D01*
X010797Y000762D01*
X011257Y000762D01*
X011257Y000802D01*
X010797Y000802D01*
X010797Y000981D01*
X011079Y001262D01*
X011257Y001262D01*
X011257Y000802D01*
X011297Y000802D01*
X011297Y001262D01*
X011476Y001262D01*
X011757Y000981D01*
X011757Y000802D01*
X011297Y000802D01*
X011297Y000762D01*
X011757Y000762D01*
X011757Y000584D01*
X011714Y000540D01*
X011813Y000540D01*
X011777Y000575D01*
X011777Y000989D01*
X011997Y001209D01*
X011997Y001355D01*
X011777Y001575D01*
X011777Y001897D01*
X011757Y001917D01*
X011757Y001802D01*
X011297Y001802D01*
X011257Y001802D01*
X011257Y001762D01*
X011297Y001762D01*
X011297Y001302D01*
X011476Y001302D01*
X011757Y001584D01*
X011757Y001762D01*
X011297Y001762D01*
X011297Y001802D01*
X011297Y002262D01*
X011451Y002262D01*
X011441Y002288D01*
X011441Y002302D01*
X011297Y002302D01*
X011297Y002762D01*
X011257Y002762D01*
X011257Y002302D01*
X011079Y002302D01*
X010797Y002584D01*
X010797Y002762D01*
X011257Y002762D01*
X011257Y002802D01*
X010797Y002802D01*
X010797Y002981D01*
X011079Y003262D01*
X011257Y003262D01*
X011257Y002802D01*
X011297Y002802D01*
X011297Y003262D01*
X011441Y003262D01*
X011441Y003302D01*
X011297Y003302D01*
X011297Y003762D01*
X011257Y003762D01*
X011257Y003302D01*
X011079Y003302D01*
X010797Y003584D01*
X010797Y003762D01*
X011257Y003762D01*
X011257Y003802D01*
X010797Y003802D01*
X010797Y003981D01*
X011079Y004262D01*
X011257Y004262D01*
X011257Y003802D01*
X011297Y003802D01*
X011297Y004262D01*
X011441Y004262D01*
X011441Y004302D01*
X011297Y004302D01*
X011297Y004762D01*
X011257Y004762D01*
X011257Y004302D01*
X011079Y004302D01*
X010797Y004584D01*
X010797Y004762D01*
X011257Y004762D01*
X011257Y004802D01*
X010797Y004802D01*
X010797Y004981D01*
X011079Y005262D01*
X011257Y005262D01*
X011257Y004802D01*
X011297Y004802D01*
X011297Y005262D01*
X011441Y005262D01*
X011441Y005302D01*
X011297Y005302D01*
X011297Y005762D01*
X011257Y005762D01*
X011257Y005302D01*
X011079Y005302D01*
X010797Y005584D01*
X010797Y005762D01*
X011257Y005762D01*
X011257Y005802D01*
X010797Y005802D01*
X010797Y005981D01*
X011079Y006262D01*
X011257Y006262D01*
X011257Y005802D01*
X011297Y005802D01*
X011297Y006262D01*
X011476Y006262D01*
X011757Y005981D01*
X011757Y005893D01*
X011777Y005893D01*
X011777Y005989D01*
X012070Y006282D01*
X012485Y006282D01*
X012777Y005989D01*
X012777Y005876D01*
X012777Y005876D01*
X012777Y005989D01*
X013070Y006282D01*
X013485Y006282D01*
X013777Y005989D01*
X013777Y005636D01*
X013777Y005636D01*
X013777Y005989D01*
X014070Y006282D01*
X014485Y006282D01*
X014513Y006254D01*
X014513Y006311D01*
X014485Y006282D01*
X014070Y006282D01*
X013777Y006575D01*
X013777Y006989D01*
X013557Y007209D01*
X013557Y007355D01*
X013777Y007575D01*
X013777Y007989D01*
X013485Y008282D01*
X013070Y008282D01*
X013065Y008277D01*
X013065Y008287D01*
X013070Y008282D01*
X013485Y008282D01*
X013777Y008575D01*
X013777Y008989D01*
X013557Y009209D01*
X013557Y009355D01*
X013777Y009575D01*
X013777Y009989D01*
X013512Y010255D01*
X013515Y010258D01*
X013557Y010361D01*
X013557Y010452D01*
X014066Y010452D01*
X014236Y010282D01*
X014070Y010282D01*
X013777Y009989D01*
X013777Y009575D01*
X013997Y009355D01*
X013997Y009209D01*
X013777Y008989D01*
X013777Y008575D01*
X014070Y008282D01*
X013777Y007989D01*
X013777Y007575D01*
X013997Y007355D01*
X013997Y007209D01*
X013777Y006989D01*
X013777Y006575D01*
X013485Y006282D01*
X013070Y006282D01*
X012777Y006575D01*
X012777Y006989D01*
X012557Y007209D01*
X012557Y007355D01*
X012777Y007575D01*
X012777Y007886D01*
X012777Y007886D01*
X012777Y007575D01*
X012997Y007355D01*
X012997Y007209D01*
X012777Y006989D01*
X012777Y006575D01*
X012485Y006282D01*
X012070Y006282D01*
X011777Y006575D01*
X011777Y006989D01*
X011997Y007209D01*
X011997Y007355D01*
X011777Y007575D01*
X011777Y007989D01*
X012070Y008282D01*
X012381Y008282D01*
X012381Y008282D01*
X012070Y008282D01*
X011777Y008575D01*
X011777Y008989D01*
X011997Y009209D01*
X011997Y009355D01*
X011777Y009575D01*
X011777Y009900D01*
X011757Y009900D01*
X011757Y009802D01*
X011297Y009802D01*
X011257Y009802D01*
X011257Y009762D01*
X011297Y009762D01*
X011297Y009302D01*
X011476Y009302D01*
X011757Y009584D01*
X011757Y009762D01*
X011297Y009762D01*
X011297Y009802D01*
X011297Y010262D01*
X011423Y010262D01*
X011423Y010354D01*
X011481Y010493D01*
X011521Y010533D01*
X011521Y010610D01*
X011564Y010713D01*
X011699Y010848D01*
X011699Y011680D01*
X011817Y011797D01*
X012648Y011797D01*
X012864Y012013D01*
X012857Y012020D01*
X012857Y013065D01*
X012974Y013183D01*
X013017Y013183D01*
X013017Y013982D01*
X012929Y013946D01*
X012779Y013946D01*
X012640Y014003D01*
X012534Y014110D01*
X012476Y014248D01*
X012476Y014379D01*
X012388Y014467D01*
X012388Y015361D01*
X012351Y015346D01*
X012164Y015346D01*
X011992Y015417D01*
X011859Y015549D01*
X011788Y015722D01*
X011788Y016449D01*
X011859Y016622D01*
X011992Y016754D01*
X012164Y016826D01*
X012351Y016826D01*
X012524Y016754D01*
X012656Y016622D01*
X012728Y016449D01*
X012728Y015722D01*
X012684Y015616D01*
X012832Y015616D01*
X012788Y015722D01*
X012788Y016449D01*
X012859Y016622D01*
X012992Y016754D01*
X013010Y016762D01*
X013040Y016835D01*
X013119Y016913D01*
X013237Y017032D01*
X013340Y017074D01*
X015892Y017074D01*
X015995Y017032D01*
X016074Y016953D01*
X016158Y016869D01*
X016158Y016930D01*
X016433Y017205D01*
X016823Y017205D01*
X017098Y016930D01*
X017098Y016540D01*
X016823Y016265D01*
X016433Y016265D01*
X016431Y016267D01*
X016431Y016203D01*
X016433Y016205D01*
X016823Y016205D01*
X017098Y015930D01*
X017098Y015540D01*
X016823Y015265D01*
X016433Y015265D01*
X016431Y015267D01*
X016431Y015203D01*
X016433Y015205D01*
X016823Y015205D01*
X017098Y014930D01*
X017098Y014540D01*
X016823Y014265D01*
X016433Y014265D01*
X016431Y014267D01*
X016431Y014203D01*
X016433Y014205D01*
X016823Y014205D01*
X017098Y013930D01*
X017098Y013661D01*
X017158Y013601D01*
X017158Y013930D01*
X017433Y014205D01*
X017823Y014205D01*
X017839Y014189D01*
X017839Y014281D01*
X017823Y014265D01*
X017433Y014265D01*
X017158Y014540D01*
X017158Y014930D01*
X017433Y015205D01*
X017823Y015205D01*
X017839Y015189D01*
X017839Y015281D01*
X017823Y015265D01*
X017433Y015265D01*
X017158Y015540D01*
X017158Y015930D01*
X017433Y016205D01*
X017823Y016205D01*
X017839Y016189D01*
X017839Y016281D01*
X017823Y016265D01*
X017433Y016265D01*
X017158Y016540D01*
X017158Y016930D01*
X017433Y017205D01*
X017823Y017205D01*
X017839Y017189D01*
X017839Y017281D01*
X017823Y017265D01*
X017433Y017265D01*
X017158Y017540D01*
X017158Y017930D01*
X017419Y018191D01*
X017417Y018191D01*
X017413Y018187D01*
X017409Y018183D01*
X017406Y018183D01*
X017402Y018179D01*
X017398Y018179D01*
X017394Y018175D01*
X017390Y018175D01*
X017386Y018171D01*
X017382Y018171D01*
X017378Y018167D01*
X017370Y018167D01*
X017366Y018163D01*
X017358Y018163D01*
X017354Y018159D01*
X017335Y018159D01*
X017331Y018155D01*
X016844Y018155D01*
X017078Y017922D01*
X017078Y017745D01*
X016638Y017745D01*
X016638Y017725D01*
X017078Y017725D01*
X017078Y017549D01*
X016814Y017285D01*
X016638Y017285D01*
X016638Y017725D01*
X016618Y017725D01*
X016618Y017285D01*
X016441Y017285D01*
X016178Y017549D01*
X016178Y017725D01*
X016618Y017725D01*
X016618Y017745D01*
X016618Y018185D01*
X016441Y018185D01*
X016178Y017922D01*
X016178Y017745D01*
X016618Y017745D01*
X016638Y017745D01*
X016638Y018185D01*
X016667Y018185D01*
X016665Y018187D01*
X016661Y018187D01*
X016657Y018191D01*
X016653Y018195D01*
X016649Y018195D01*
X016645Y018199D01*
X016641Y018202D01*
X016637Y018206D01*
X016634Y018210D01*
X016630Y018214D01*
X016626Y018218D01*
X016622Y018222D01*
X016618Y018226D01*
X016501Y018343D01*
X016501Y018347D01*
X016493Y018355D01*
X016493Y018359D01*
X016485Y018367D01*
X016485Y018371D01*
X016477Y018379D01*
X016477Y018383D01*
X016473Y018387D01*
X016473Y018390D01*
X016469Y018394D01*
X016469Y018398D01*
X016465Y018402D01*
X016465Y018406D01*
X016461Y018410D01*
X016461Y018418D01*
X016457Y018422D01*
X016457Y018426D01*
X016453Y018430D01*
X016453Y018438D01*
X016449Y018442D01*
X016449Y018446D01*
X016446Y018450D01*
X016446Y018457D01*
X016442Y018461D01*
X016442Y018473D01*
X016438Y018477D01*
X016438Y018485D01*
X016434Y018489D01*
X016434Y018493D01*
X016347Y018579D01*
X016347Y018587D01*
X016343Y018591D01*
X016343Y018808D01*
X016347Y018812D01*
X016347Y018820D01*
X016351Y018824D01*
X016355Y018828D01*
X016359Y018832D01*
X016363Y018836D01*
X016453Y018926D01*
X016453Y018930D01*
X016457Y018934D01*
X016461Y018938D01*
X016465Y018942D01*
X016469Y018946D01*
X016473Y018950D01*
X016477Y018954D01*
X016594Y019071D01*
X016598Y019071D01*
X016602Y019075D01*
X016606Y019075D01*
X016610Y019079D01*
X016618Y019079D01*
X016622Y019083D01*
X016673Y019083D01*
X016717Y019127D01*
X016709Y019135D01*
X016709Y019138D01*
X016698Y019150D01*
X016698Y019154D01*
X016686Y019166D01*
X016686Y019170D01*
X016674Y019182D01*
X016674Y019186D01*
X016662Y019198D01*
X016662Y019201D01*
X016650Y019213D01*
X016650Y019217D01*
X016638Y019229D01*
X016638Y019233D01*
X016627Y019245D01*
X016627Y019249D01*
X016615Y019261D01*
X016615Y019264D01*
X016603Y019276D01*
X016603Y019280D01*
X016591Y019292D01*
X016591Y019296D01*
X016583Y019304D01*
X016583Y019308D01*
X016572Y019320D01*
X016572Y019324D01*
X016560Y019335D01*
X016560Y019339D01*
X016548Y019351D01*
X016548Y019355D01*
X016536Y019367D01*
X016536Y019371D01*
X016524Y019383D01*
X016524Y019387D01*
X016512Y019398D01*
X016512Y019402D01*
X016501Y019414D01*
X016501Y019418D01*
X016489Y019430D01*
X016489Y019434D01*
X016477Y019446D01*
X016477Y019450D01*
X016465Y019461D01*
X016465Y019465D01*
X016457Y019473D01*
X016457Y019505D01*
X011027Y019505D01*
X011029Y019501D01*
X011059Y019443D01*
X011079Y019381D01*
X011090Y019316D01*
X011090Y019047D01*
X010674Y019047D01*
X010674Y019047D01*
X011090Y019047D01*
X011090Y018778D01*
X011079Y018713D01*
X011059Y018651D01*
X011029Y018593D01*
X010991Y018540D01*
X010945Y018493D01*
X010892Y018455D01*
X010833Y018425D01*
X010771Y018405D01*
X010706Y018394D01*
X010673Y018394D01*
X010673Y019047D01*
X010673Y019047D01*
X010257Y019047D01*
X010257Y019316D01*
X010268Y019381D01*
X010288Y019443D01*
X010318Y019501D01*
X010320Y019505D01*
X009562Y019505D01*
X009701Y019366D01*
X009777Y019182D01*
X009777Y018383D01*
X009701Y018199D01*
X009635Y018132D01*
X009777Y017989D01*
X009777Y017575D01*
X009597Y017395D01*
X009597Y017169D01*
X009777Y016989D01*
X009777Y016575D01*
X009597Y016395D01*
X009597Y016169D01*
X009777Y015989D01*
X009777Y015575D01*
X009485Y015282D01*
X009070Y015282D01*
X008777Y015575D01*
X008777Y015989D01*
X008957Y016169D01*
X008957Y016395D01*
X008777Y016575D01*
X008777Y016989D01*
X008957Y017169D01*
X008957Y017395D01*
X008777Y017575D01*
X008777Y017989D01*
X008777Y017932D02*
X008777Y017932D01*
X008777Y017774D02*
X008777Y017774D01*
X008777Y017615D02*
X008777Y017615D01*
X008659Y017457D02*
X008896Y017457D01*
X008957Y017298D02*
X008597Y017298D01*
X008627Y017140D02*
X008927Y017140D01*
X008777Y016981D02*
X008777Y016981D01*
X008777Y016823D02*
X008777Y016823D01*
X008777Y016664D02*
X008777Y016664D01*
X008708Y016506D02*
X008847Y016506D01*
X008957Y016347D02*
X008597Y016347D01*
X008597Y016189D02*
X008957Y016189D01*
X008818Y016030D02*
X008737Y016030D01*
X008777Y015872D02*
X008777Y015872D01*
X008777Y015713D02*
X008777Y015713D01*
X008757Y015555D02*
X008798Y015555D01*
X008957Y015396D02*
X008598Y015396D01*
X008529Y015238D02*
X009025Y015238D01*
X008867Y015079D02*
X008688Y015079D01*
X008777Y014921D02*
X008777Y014921D01*
X008777Y014762D02*
X008777Y014762D01*
X008777Y014604D02*
X008777Y014604D01*
X008647Y014445D02*
X008908Y014445D01*
X008997Y014287D02*
X008557Y014287D01*
X008639Y014128D02*
X008916Y014128D01*
X008777Y013970D02*
X008777Y013970D01*
X008777Y013811D02*
X008777Y013811D01*
X008777Y013653D02*
X008777Y013653D01*
X008696Y013494D02*
X008859Y013494D01*
X008997Y013336D02*
X008557Y013336D01*
X008590Y013177D02*
X008965Y013177D01*
X008806Y013019D02*
X008748Y013019D01*
X008777Y012860D02*
X008777Y012860D01*
X008777Y012702D02*
X008777Y012702D01*
X008745Y012543D02*
X008810Y012543D01*
X008872Y012385D02*
X008682Y012385D01*
X008759Y012226D02*
X008796Y012226D01*
X008777Y012068D02*
X008777Y012068D01*
X008777Y011909D02*
X008777Y011909D01*
X008777Y011751D02*
X008777Y011751D01*
X008777Y011592D02*
X008777Y011592D01*
X008777Y011434D02*
X008777Y011434D01*
X008733Y011275D02*
X008822Y011275D01*
X008936Y011117D02*
X008619Y011117D01*
X008212Y010550D02*
X009159Y010550D01*
X009159Y009376D01*
X009201Y009273D01*
X009280Y009195D01*
X009434Y009040D01*
X009434Y008925D01*
X009388Y008972D01*
X008777Y008972D01*
X008777Y008989D01*
X008485Y009282D01*
X008070Y009282D01*
X007807Y009019D01*
X007807Y009646D01*
X007942Y009646D01*
X008137Y009727D01*
X008286Y009876D01*
X008366Y010071D01*
X008366Y010281D01*
X008286Y010476D01*
X008212Y010550D01*
X008280Y010483D02*
X009159Y010483D01*
X009159Y010324D02*
X008349Y010324D01*
X008366Y010166D02*
X009159Y010166D01*
X009159Y010007D02*
X008340Y010007D01*
X008258Y009849D02*
X009159Y009849D01*
X009159Y009690D02*
X008048Y009690D01*
X007807Y009532D02*
X009159Y009532D01*
X009160Y009373D02*
X007807Y009373D01*
X007807Y009215D02*
X008002Y009215D01*
X007844Y009056D02*
X007807Y009056D01*
X007807Y008545D02*
X008070Y008282D01*
X007807Y008019D01*
X007807Y008545D01*
X007807Y008422D02*
X007931Y008422D01*
X008070Y008282D02*
X008485Y008282D01*
X008625Y008142D01*
X008625Y008355D01*
X008712Y008442D01*
X008678Y008476D01*
X008485Y008282D01*
X008070Y008282D01*
X008051Y008264D02*
X007807Y008264D01*
X007807Y008105D02*
X007893Y008105D01*
X008503Y008264D02*
X008625Y008264D01*
X008624Y008422D02*
X008692Y008422D01*
X008711Y009056D02*
X009419Y009056D01*
X009280Y009195D02*
X009280Y009195D01*
X009260Y009215D02*
X008552Y009215D01*
X009439Y009432D02*
X009714Y009156D01*
X009714Y007956D01*
X009978Y007692D01*
X010325Y007692D01*
X010682Y007947D02*
X010797Y007947D01*
X010797Y007981D02*
X010797Y007802D01*
X011257Y007802D01*
X011257Y007762D01*
X011297Y007762D01*
X011297Y007302D01*
X011476Y007302D01*
X011757Y007584D01*
X011757Y007762D01*
X011297Y007762D01*
X011297Y007802D01*
X011257Y007802D01*
X011257Y008262D01*
X011079Y008262D01*
X010797Y007981D01*
X010765Y008105D02*
X010921Y008105D01*
X010765Y008264D02*
X012051Y008264D01*
X011931Y008422D02*
X011596Y008422D01*
X011476Y008302D02*
X011757Y008584D01*
X011757Y008762D01*
X011297Y008762D01*
X011297Y008302D01*
X011476Y008302D01*
X011476Y008262D02*
X011297Y008262D01*
X011297Y007802D01*
X011757Y007802D01*
X011757Y007981D01*
X011476Y008262D01*
X011257Y008302D02*
X011257Y008762D01*
X011297Y008762D01*
X011297Y008802D01*
X011257Y008802D01*
X011257Y008762D01*
X010797Y008762D01*
X010797Y008584D01*
X011079Y008302D01*
X011257Y008302D01*
X011257Y008422D02*
X011297Y008422D01*
X011297Y008581D02*
X011257Y008581D01*
X011257Y008739D02*
X011297Y008739D01*
X011277Y008782D02*
X011277Y009782D01*
X011277Y012156D01*
X011407Y012286D01*
X011213Y012286D01*
X010673Y011747D01*
X010817Y011890D01*
X010817Y013330D01*
X010817Y018904D01*
X010673Y019047D01*
X010257Y019047D01*
X010257Y018778D01*
X010268Y018713D01*
X010288Y018651D01*
X010318Y018593D01*
X010356Y018540D01*
X010402Y018493D01*
X010455Y018455D01*
X010514Y018425D01*
X010576Y018405D01*
X010641Y018394D01*
X010673Y018394D01*
X010673Y019047D01*
X010673Y019047D01*
X010673Y019042D02*
X010673Y019042D01*
X010673Y018883D02*
X010673Y018883D01*
X010673Y018725D02*
X010673Y018725D01*
X010673Y018566D02*
X010673Y018566D01*
X010673Y018408D02*
X010673Y018408D01*
X010567Y018408D02*
X009777Y018408D01*
X009777Y018566D02*
X010337Y018566D01*
X010266Y018725D02*
X009777Y018725D01*
X009777Y018883D02*
X010257Y018883D01*
X010257Y019042D02*
X009777Y019042D01*
X009770Y019200D02*
X010257Y019200D01*
X010264Y019359D02*
X009704Y019359D01*
X009722Y018249D02*
X010037Y018249D01*
X010070Y018282D02*
X009777Y017989D01*
X009777Y017575D01*
X009957Y017395D01*
X009957Y017169D01*
X009777Y016989D01*
X009777Y016575D01*
X009957Y016395D01*
X009957Y016169D01*
X009777Y015989D01*
X009777Y015575D01*
X010070Y015282D01*
X010485Y015282D01*
X010777Y015575D01*
X010777Y015989D01*
X010597Y016169D01*
X010597Y016395D01*
X010777Y016575D01*
X010777Y016989D01*
X010597Y017169D01*
X010597Y017395D01*
X010777Y017575D01*
X010777Y017989D01*
X010485Y018282D01*
X010070Y018282D01*
X009878Y018091D02*
X009676Y018091D01*
X009777Y017932D02*
X009777Y017932D01*
X009777Y017774D02*
X009777Y017774D01*
X009777Y017615D02*
X009777Y017615D01*
X009659Y017457D02*
X009896Y017457D01*
X009957Y017298D02*
X009597Y017298D01*
X009627Y017140D02*
X009927Y017140D01*
X009777Y016981D02*
X009777Y016981D01*
X009777Y016823D02*
X009777Y016823D01*
X009777Y016664D02*
X009777Y016664D01*
X009708Y016506D02*
X009847Y016506D01*
X009957Y016347D02*
X009597Y016347D01*
X009597Y016189D02*
X009957Y016189D01*
X009818Y016030D02*
X009737Y016030D01*
X009777Y015872D02*
X009777Y015872D01*
X009777Y015713D02*
X009777Y015713D01*
X009757Y015555D02*
X009798Y015555D01*
X009957Y015396D02*
X009598Y015396D01*
X009529Y015238D02*
X010025Y015238D01*
X009867Y015079D02*
X009688Y015079D01*
X009777Y014921D02*
X009777Y014921D01*
X009777Y014762D02*
X009777Y014762D01*
X009777Y014604D02*
X009777Y014604D01*
X009647Y014445D02*
X009908Y014445D01*
X009997Y014287D02*
X009557Y014287D01*
X009639Y014128D02*
X009916Y014128D01*
X009777Y013970D02*
X009777Y013970D01*
X009777Y013811D02*
X009777Y013811D01*
X009777Y013653D02*
X009777Y013653D01*
X009696Y013494D02*
X009859Y013494D01*
X009997Y013336D02*
X009557Y013336D01*
X009590Y013177D02*
X009965Y013177D01*
X009806Y013019D02*
X009748Y013019D01*
X009777Y012860D02*
X009777Y012860D01*
X009777Y012702D02*
X009777Y012702D01*
X009745Y012543D02*
X009810Y012543D01*
X009682Y012385D02*
X009968Y012385D01*
X009759Y012226D02*
X010335Y012226D01*
X010265Y012068D02*
X009777Y012068D01*
X009777Y011909D02*
X010257Y011909D01*
X010257Y011751D02*
X009777Y011751D01*
X009777Y011592D02*
X010257Y011592D01*
X010264Y011434D02*
X009777Y011434D01*
X009733Y011275D02*
X010048Y011275D01*
X009867Y011117D02*
X009619Y011117D01*
X009689Y010958D02*
X009821Y010958D01*
X009843Y010800D02*
X009719Y010800D01*
X009719Y010641D02*
X009919Y010641D01*
X009919Y010483D02*
X009719Y010483D01*
X009719Y010324D02*
X009919Y010324D01*
X009919Y010166D02*
X009719Y010166D01*
X009719Y010007D02*
X009919Y010007D01*
X009919Y009849D02*
X009719Y009849D01*
X009719Y009690D02*
X009841Y009690D01*
X009754Y009532D02*
X009735Y009532D01*
X009439Y009432D02*
X009439Y010830D01*
X007431Y010830D01*
X007175Y010574D01*
X006722Y010574D01*
X006545Y010397D01*
X006289Y010397D01*
X005794Y010324D02*
X005714Y010324D01*
X005794Y010244D02*
X005585Y010453D01*
X005585Y010518D01*
X005604Y010511D01*
X005754Y010511D01*
X005794Y010527D01*
X005794Y010244D01*
X005794Y010483D02*
X005585Y010483D01*
X005305Y010337D02*
X005994Y009649D01*
X006289Y009649D01*
X006574Y009193D02*
X006747Y009019D01*
X006747Y009273D01*
X006667Y009193D01*
X006574Y009193D01*
X006689Y009215D02*
X006747Y009215D01*
X006747Y009056D02*
X006711Y009056D01*
X006747Y008422D02*
X006624Y008422D01*
X006747Y008264D02*
X006422Y008264D01*
X006662Y008105D02*
X006747Y008105D01*
X005844Y009056D02*
X005800Y009056D01*
X006755Y010017D02*
X006749Y010023D01*
X006763Y010037D01*
X006755Y010017D01*
X006785Y010088D02*
X006785Y010196D01*
X006798Y010196D01*
X006854Y010219D01*
X006828Y010193D01*
X006785Y010088D01*
X006785Y010166D02*
X006817Y010166D01*
X007277Y011129D02*
X007277Y011782D01*
X006777Y011592D02*
X005910Y011592D01*
X005910Y011434D02*
X006777Y011434D01*
X007277Y011129D02*
X005919Y011129D01*
X005679Y010889D01*
X003942Y011085D02*
X003823Y011205D01*
X003433Y011205D01*
X003420Y011192D01*
X003420Y011279D01*
X003433Y011265D01*
X003823Y011265D01*
X003942Y011385D01*
X003942Y011085D01*
X003942Y011117D02*
X003911Y011117D01*
X003942Y011275D02*
X003832Y011275D01*
X003423Y011275D02*
X003420Y011275D01*
X002860Y011275D02*
X002832Y011275D01*
X002823Y011265D02*
X002860Y011302D01*
X002860Y011168D01*
X002823Y011205D01*
X002433Y011205D01*
X002417Y011189D01*
X002417Y011281D01*
X002433Y011265D01*
X002823Y011265D01*
X002423Y011275D02*
X002417Y011275D01*
X002417Y010281D02*
X002433Y010265D01*
X002823Y010265D01*
X002860Y010302D01*
X002860Y010168D01*
X002823Y010205D01*
X002433Y010205D01*
X002417Y010189D01*
X002417Y010281D01*
X002417Y009281D02*
X002433Y009265D01*
X002823Y009265D01*
X002860Y009302D01*
X002860Y009168D01*
X002823Y009205D01*
X002433Y009205D01*
X002417Y009189D01*
X002417Y009281D01*
X002417Y009215D02*
X002860Y009215D01*
X003420Y009215D02*
X003942Y009215D01*
X003823Y009205D02*
X003942Y009085D01*
X003942Y009385D01*
X003823Y009265D01*
X003433Y009265D01*
X003420Y009279D01*
X003420Y009192D01*
X003433Y009205D01*
X003823Y009205D01*
X003930Y009373D02*
X003942Y009373D01*
X003942Y010085D02*
X003823Y010205D01*
X003433Y010205D01*
X003420Y010192D01*
X003420Y010279D01*
X003433Y010265D01*
X003823Y010265D01*
X003942Y010385D01*
X003942Y010085D01*
X003942Y010166D02*
X003862Y010166D01*
X003881Y010324D02*
X003942Y010324D01*
X005613Y007154D02*
X005942Y007154D01*
X005783Y006996D02*
X005771Y006996D01*
X005777Y006837D02*
X005777Y006837D01*
X005777Y006679D02*
X005777Y006679D01*
X005722Y006520D02*
X005833Y006520D01*
X005991Y006362D02*
X005564Y006362D01*
X005564Y006203D02*
X005991Y006203D01*
X005832Y006045D02*
X005722Y006045D01*
X005777Y005989D02*
X005777Y005575D01*
X005515Y005312D01*
X006040Y005312D01*
X005777Y005575D01*
X005777Y005989D01*
X005777Y005886D02*
X005777Y005886D01*
X005777Y005728D02*
X005777Y005728D01*
X005771Y005569D02*
X005784Y005569D01*
X005942Y005411D02*
X005613Y005411D01*
X005341Y005252D02*
X004797Y005252D01*
X004768Y005094D02*
X005154Y005094D01*
X004996Y004935D02*
X004650Y004935D01*
X004228Y005569D02*
X004098Y005569D01*
X003431Y006203D02*
X003420Y006203D01*
X005474Y004664D02*
X005592Y004782D01*
X005729Y004143D02*
X005930Y004143D01*
X005820Y003984D02*
X005729Y003984D01*
X005729Y003826D02*
X005777Y003826D01*
X005784Y003667D02*
X005729Y003667D01*
X005729Y003509D02*
X005850Y003509D01*
X005729Y003350D02*
X006015Y003350D01*
X007807Y003350D02*
X008003Y003350D01*
X007844Y003509D02*
X007807Y003509D01*
X007807Y003192D02*
X009007Y003192D01*
X009007Y003350D02*
X008552Y003350D01*
X008711Y003509D02*
X009007Y003509D01*
X009007Y003667D02*
X008777Y003667D01*
X008777Y003826D02*
X009007Y003826D01*
X009007Y003984D02*
X008777Y003984D01*
X008624Y004143D02*
X009007Y004143D01*
X009007Y004301D02*
X008503Y004301D01*
X008662Y004460D02*
X009039Y004460D01*
X009127Y004618D02*
X008777Y004618D01*
X008777Y004777D02*
X009286Y004777D01*
X009444Y004935D02*
X008777Y004935D01*
X008673Y005094D02*
X009603Y005094D01*
X009584Y005411D02*
X009942Y005411D01*
X009784Y005569D02*
X009743Y005569D01*
X009757Y005728D02*
X009777Y005728D01*
X009777Y005886D02*
X009757Y005886D01*
X009694Y006045D02*
X009832Y006045D01*
X009991Y006203D02*
X009536Y006203D01*
X009535Y006362D02*
X009991Y006362D01*
X009833Y006520D02*
X009694Y006520D01*
X009757Y006679D02*
X009777Y006679D01*
X009777Y006837D02*
X009757Y006837D01*
X009743Y006996D02*
X009783Y006996D01*
X009065Y007471D02*
X009065Y007471D01*
X009065Y007630D02*
X009065Y007630D01*
X008711Y007471D02*
X008673Y007471D01*
X008515Y007313D02*
X011068Y007313D01*
X011079Y007302D02*
X011257Y007302D01*
X011257Y007762D01*
X010797Y007762D01*
X010797Y007584D01*
X011079Y007302D01*
X011079Y007262D02*
X010797Y006981D01*
X010797Y006802D01*
X011257Y006802D01*
X011257Y006762D01*
X011297Y006762D01*
X011297Y006302D01*
X011476Y006302D01*
X011757Y006584D01*
X011757Y006762D01*
X011297Y006762D01*
X011297Y006802D01*
X011257Y006802D01*
X011257Y007262D01*
X011079Y007262D01*
X010970Y007154D02*
X010613Y007154D01*
X010771Y006996D02*
X010812Y006996D01*
X010797Y006837D02*
X010777Y006837D01*
X010797Y006762D02*
X010797Y006584D01*
X011079Y006302D01*
X011257Y006302D01*
X011257Y006762D01*
X010797Y006762D01*
X010797Y006679D02*
X010777Y006679D01*
X010722Y006520D02*
X010861Y006520D01*
X011019Y006362D02*
X010564Y006362D01*
X010564Y006203D02*
X011019Y006203D01*
X010861Y006045D02*
X010722Y006045D01*
X010777Y005886D02*
X010797Y005886D01*
X010797Y005728D02*
X010777Y005728D01*
X010771Y005569D02*
X010812Y005569D01*
X010970Y005411D02*
X010613Y005411D01*
X010519Y005094D02*
X010910Y005094D01*
X010797Y004935D02*
X010660Y004935D01*
X010726Y004777D02*
X011257Y004777D01*
X011277Y004782D02*
X011277Y005782D01*
X011277Y006782D01*
X011277Y007782D01*
X011277Y008782D01*
X011257Y008802D02*
X010797Y008802D01*
X010797Y008981D01*
X011079Y009262D01*
X011257Y009262D01*
X011257Y008802D01*
X011297Y008802D02*
X011297Y009262D01*
X011476Y009262D01*
X011757Y008981D01*
X011757Y008802D01*
X011297Y008802D01*
X011297Y008898D02*
X011257Y008898D01*
X011257Y009056D02*
X011297Y009056D01*
X011297Y009215D02*
X011257Y009215D01*
X011257Y009302D02*
X011257Y009762D01*
X010797Y009762D01*
X010797Y009584D01*
X011079Y009302D01*
X011257Y009302D01*
X011257Y009373D02*
X011297Y009373D01*
X011297Y009532D02*
X011257Y009532D01*
X011257Y009690D02*
X011297Y009690D01*
X011257Y009802D02*
X010797Y009802D01*
X010797Y009981D01*
X011079Y010262D01*
X011257Y010262D01*
X011257Y009802D01*
X011257Y009849D02*
X011297Y009849D01*
X011297Y010007D02*
X011257Y010007D01*
X011257Y010166D02*
X011297Y010166D01*
X011423Y010324D02*
X010479Y010324D01*
X010479Y010166D02*
X010982Y010166D01*
X010823Y010007D02*
X010479Y010007D01*
X010479Y009849D02*
X010797Y009849D01*
X010797Y009690D02*
X010556Y009690D01*
X010644Y009532D02*
X010849Y009532D01*
X011008Y009373D02*
X010664Y009373D01*
X010631Y009215D02*
X011031Y009215D01*
X010872Y009056D02*
X010525Y009056D01*
X010722Y008898D02*
X010797Y008898D01*
X010797Y008739D02*
X010765Y008739D01*
X010765Y008581D02*
X010800Y008581D01*
X010697Y008422D02*
X010959Y008422D01*
X011257Y008105D02*
X011297Y008105D01*
X011297Y007947D02*
X011257Y007947D01*
X011257Y007788D02*
X010765Y007788D01*
X010765Y007630D02*
X010797Y007630D01*
X010707Y007471D02*
X010910Y007471D01*
X011257Y007471D02*
X011297Y007471D01*
X011297Y007313D02*
X011257Y007313D01*
X011297Y007262D02*
X011476Y007262D01*
X011757Y006981D01*
X011757Y006802D01*
X011297Y006802D01*
X011297Y007262D01*
X011297Y007154D02*
X011257Y007154D01*
X011257Y006996D02*
X011297Y006996D01*
X011297Y006837D02*
X011257Y006837D01*
X011257Y006679D02*
X011297Y006679D01*
X011297Y006520D02*
X011257Y006520D01*
X011257Y006362D02*
X011297Y006362D01*
X011297Y006203D02*
X011257Y006203D01*
X011257Y006045D02*
X011297Y006045D01*
X011297Y005886D02*
X011257Y005886D01*
X011257Y005728D02*
X011297Y005728D01*
X011297Y005569D02*
X011257Y005569D01*
X011257Y005411D02*
X011297Y005411D01*
X011297Y005252D02*
X011257Y005252D01*
X011257Y005094D02*
X011297Y005094D01*
X011297Y004935D02*
X011257Y004935D01*
X011277Y004782D02*
X011277Y003782D01*
X011277Y002782D01*
X011277Y001782D01*
X011277Y000782D01*
X011257Y000814D02*
X011297Y000814D01*
X011297Y000973D02*
X011257Y000973D01*
X011257Y001131D02*
X011297Y001131D01*
X011257Y001302D02*
X011079Y001302D01*
X010797Y001584D01*
X010797Y001762D01*
X011257Y001762D01*
X011257Y001302D01*
X011257Y001448D02*
X011297Y001448D01*
X011297Y001607D02*
X011257Y001607D01*
X011257Y001765D02*
X010300Y001765D01*
X010362Y001607D02*
X010797Y001607D01*
X010797Y001802D02*
X011257Y001802D01*
X011257Y002262D01*
X011079Y002262D01*
X010797Y001981D01*
X010797Y001802D01*
X010797Y001924D02*
X010142Y001924D01*
X010067Y002082D02*
X010898Y002082D01*
X011057Y002241D02*
X010067Y002241D01*
X010067Y002399D02*
X010982Y002399D01*
X010823Y002558D02*
X010067Y002558D01*
X010067Y002716D02*
X010797Y002716D01*
X010797Y002875D02*
X010067Y002875D01*
X010067Y003033D02*
X010849Y003033D01*
X011008Y003192D02*
X010067Y003192D01*
X010067Y003350D02*
X011031Y003350D01*
X010872Y003509D02*
X010067Y003509D01*
X010067Y003667D02*
X010797Y003667D01*
X010797Y003826D02*
X010067Y003826D01*
X010067Y003984D02*
X010800Y003984D01*
X010959Y004143D02*
X010324Y004143D01*
X010585Y004301D02*
X011441Y004301D01*
X011297Y004143D02*
X011257Y004143D01*
X011257Y003984D02*
X011297Y003984D01*
X011297Y003826D02*
X011257Y003826D01*
X011257Y003667D02*
X011297Y003667D01*
X011297Y003509D02*
X011257Y003509D01*
X011257Y003350D02*
X011297Y003350D01*
X011297Y003192D02*
X011257Y003192D01*
X011257Y003033D02*
X011297Y003033D01*
X011297Y002875D02*
X011257Y002875D01*
X011257Y002716D02*
X011297Y002716D01*
X011297Y002558D02*
X011257Y002558D01*
X011257Y002399D02*
X011297Y002399D01*
X011297Y002241D02*
X011257Y002241D01*
X011257Y002082D02*
X011297Y002082D01*
X011297Y001924D02*
X011257Y001924D01*
X011297Y001765D02*
X011777Y001765D01*
X011777Y001607D02*
X011757Y001607D01*
X011622Y001448D02*
X011905Y001448D01*
X011997Y001290D02*
X010362Y001290D01*
X010362Y001448D02*
X010933Y001448D01*
X010947Y001131D02*
X010362Y001131D01*
X010315Y000973D02*
X010797Y000973D01*
X010797Y000814D02*
X010157Y000814D01*
X009998Y000656D02*
X010797Y000656D01*
X011608Y001131D02*
X011919Y001131D01*
X011777Y000973D02*
X011757Y000973D01*
X011757Y000814D02*
X011777Y000814D01*
X011777Y000656D02*
X011757Y000656D01*
X012277Y000782D02*
X012277Y001782D01*
X012650Y001448D02*
X012905Y001448D01*
X012997Y001355D02*
X012777Y001575D01*
X012777Y001989D01*
X012485Y002282D01*
X012099Y002282D01*
X012485Y002282D01*
X012777Y002575D01*
X012777Y002929D01*
X012777Y002929D01*
X012777Y002575D01*
X013070Y002282D01*
X012777Y001989D01*
X012777Y001575D01*
X012557Y001355D01*
X012557Y001209D01*
X012777Y000989D01*
X012777Y000575D01*
X012742Y000540D01*
X012813Y000540D01*
X012777Y000575D01*
X012777Y000989D01*
X012997Y001209D01*
X012997Y001355D01*
X012997Y001290D02*
X012557Y001290D01*
X012636Y001131D02*
X012919Y001131D01*
X012777Y000973D02*
X012777Y000973D01*
X012777Y000814D02*
X012777Y000814D01*
X012777Y000656D02*
X012777Y000656D01*
X013277Y000782D02*
X013277Y001782D01*
X012777Y001765D02*
X012777Y001765D01*
X012777Y001607D02*
X012777Y001607D01*
X012777Y001924D02*
X012777Y001924D01*
X012685Y002082D02*
X012870Y002082D01*
X013028Y002241D02*
X012526Y002241D01*
X012601Y002399D02*
X012954Y002399D01*
X013070Y002282D02*
X013391Y002282D01*
X013391Y002282D01*
X013070Y002282D01*
X012795Y002558D02*
X012760Y002558D01*
X012777Y002716D02*
X012777Y002716D01*
X012777Y002875D02*
X012777Y002875D01*
X012594Y003173D02*
X012485Y003282D01*
X012131Y003282D01*
X012131Y003282D01*
X012485Y003282D01*
X012594Y003392D01*
X012594Y003173D01*
X012594Y003192D02*
X012575Y003192D01*
X012552Y003350D02*
X012594Y003350D01*
X013131Y003282D02*
X013485Y003282D01*
X013520Y003247D01*
X013520Y003317D01*
X013485Y003282D01*
X013131Y003282D01*
X013131Y003282D01*
X013777Y003636D02*
X013777Y003929D01*
X013777Y003636D01*
X013777Y003636D01*
X013777Y003667D02*
X013777Y003667D01*
X013777Y003826D02*
X013777Y003826D01*
X013777Y003929D02*
X013777Y003929D01*
X014020Y004232D02*
X014020Y004333D01*
X014070Y004282D01*
X014020Y004232D01*
X014020Y004301D02*
X014052Y004301D01*
X014070Y004282D02*
X014485Y004282D01*
X014513Y004254D01*
X014513Y004311D01*
X014485Y004282D01*
X014070Y004282D01*
X014503Y004301D02*
X014513Y004301D01*
X014793Y004267D02*
X014793Y006298D01*
X015277Y006782D01*
X015277Y007782D01*
X014773Y008286D01*
X014773Y010141D01*
X014104Y010810D01*
X014104Y011125D01*
X014537Y011558D01*
X015876Y011558D01*
X016151Y011834D01*
X016151Y016479D01*
X015836Y016794D01*
X013396Y016794D01*
X013277Y016676D01*
X013277Y016105D01*
X013258Y016086D01*
X012788Y016030D02*
X012728Y016030D01*
X012728Y015872D02*
X012788Y015872D01*
X012791Y015713D02*
X012724Y015713D01*
X012728Y016189D02*
X012788Y016189D01*
X012788Y016347D02*
X012728Y016347D01*
X012704Y016506D02*
X012811Y016506D01*
X012902Y016664D02*
X012614Y016664D01*
X012358Y016823D02*
X013035Y016823D01*
X013186Y016981D02*
X011777Y016981D01*
X011777Y016989D02*
X011597Y017169D01*
X011597Y017395D01*
X011777Y017575D01*
X011777Y017989D01*
X011485Y018282D01*
X011070Y018282D01*
X010777Y017989D01*
X010777Y017575D01*
X010957Y017395D01*
X010957Y017169D01*
X010777Y016989D01*
X010777Y016575D01*
X010957Y016395D01*
X010957Y016169D01*
X010777Y015989D01*
X010777Y015575D01*
X010957Y015395D01*
X010957Y015169D01*
X010777Y014989D01*
X010777Y014575D01*
X010957Y014395D01*
X010957Y014169D01*
X010777Y013989D01*
X010777Y013575D01*
X010957Y013395D01*
X010957Y013169D01*
X010777Y012989D01*
X010777Y012575D01*
X011070Y012282D01*
X011485Y012282D01*
X011777Y012575D01*
X011777Y012989D01*
X011597Y013169D01*
X011597Y013395D01*
X011777Y013575D01*
X011777Y013989D01*
X011597Y014169D01*
X011597Y014395D01*
X011777Y014575D01*
X011777Y014989D01*
X011597Y015169D01*
X011597Y015395D01*
X011777Y015575D01*
X011777Y015989D01*
X011597Y016169D01*
X011597Y016395D01*
X011777Y016575D01*
X011777Y016989D01*
X011777Y016823D02*
X012157Y016823D01*
X011902Y016664D02*
X011777Y016664D01*
X011811Y016506D02*
X011708Y016506D01*
X011788Y016347D02*
X011597Y016347D01*
X011597Y016189D02*
X011788Y016189D01*
X011788Y016030D02*
X011737Y016030D01*
X011777Y015872D02*
X011788Y015872D01*
X011777Y015713D02*
X011791Y015713D01*
X011757Y015555D02*
X011857Y015555D01*
X012042Y015396D02*
X011598Y015396D01*
X011597Y015238D02*
X012388Y015238D01*
X012388Y015079D02*
X011688Y015079D01*
X011777Y014921D02*
X012388Y014921D01*
X012388Y014762D02*
X011777Y014762D01*
X011777Y014604D02*
X012388Y014604D01*
X012410Y014445D02*
X011647Y014445D01*
X011597Y014287D02*
X012476Y014287D01*
X012526Y014128D02*
X011639Y014128D01*
X011777Y013970D02*
X012721Y013970D01*
X012987Y013970D02*
X013017Y013970D01*
X013017Y013811D02*
X011777Y013811D01*
X011777Y013653D02*
X013017Y013653D01*
X013017Y013494D02*
X011696Y013494D01*
X011597Y013336D02*
X013017Y013336D01*
X012969Y013177D02*
X011597Y013177D01*
X011748Y013019D02*
X011971Y013019D01*
X011967Y013006D02*
X011967Y012583D01*
X012347Y012583D01*
X012347Y013163D01*
X012124Y013163D01*
X012078Y013150D01*
X012037Y013127D01*
X012003Y013093D01*
X011980Y013052D01*
X011967Y013006D01*
X011967Y012860D02*
X011777Y012860D01*
X011777Y012702D02*
X011967Y012702D01*
X011967Y012503D02*
X011967Y012079D01*
X011980Y012033D01*
X012003Y011992D01*
X012037Y011959D01*
X012078Y011935D01*
X012124Y011923D01*
X012347Y011923D01*
X012347Y012503D01*
X011967Y012503D01*
X011967Y012385D02*
X011587Y012385D01*
X011407Y012286D02*
X012175Y012286D01*
X012387Y012499D01*
X012387Y012543D01*
X012347Y012543D02*
X011745Y012543D01*
X011967Y012226D02*
X011012Y012226D01*
X011029Y012201D02*
X010991Y012254D01*
X010945Y012301D01*
X010892Y012339D01*
X010833Y012369D01*
X010771Y012389D01*
X010706Y012399D01*
X010673Y012399D01*
X010673Y011747D01*
X010673Y011094D01*
X010706Y011094D01*
X010771Y011105D01*
X010833Y011125D01*
X010892Y011155D01*
X010945Y011193D01*
X010991Y011240D01*
X011029Y011293D01*
X011059Y011351D01*
X011079Y011413D01*
X011090Y011478D01*
X011090Y011747D01*
X011090Y012016D01*
X011079Y012081D01*
X011059Y012143D01*
X011029Y012201D01*
X011082Y012068D02*
X011970Y012068D01*
X011770Y011751D02*
X011090Y011751D01*
X011090Y011747D02*
X010674Y011747D01*
X010674Y011747D01*
X011090Y011747D01*
X011090Y011592D02*
X011699Y011592D01*
X011699Y011434D02*
X011083Y011434D01*
X011017Y011275D02*
X011699Y011275D01*
X011699Y011117D02*
X010807Y011117D01*
X010673Y011117D02*
X010673Y011117D01*
X010540Y011117D02*
X010530Y011117D01*
X010577Y010958D02*
X011699Y010958D01*
X011651Y010800D02*
X010555Y010800D01*
X010479Y010641D02*
X011534Y010641D01*
X011476Y010483D02*
X010479Y010483D01*
X010199Y010928D02*
X010199Y009389D01*
X009998Y008968D02*
X009994Y008969D01*
X009994Y008964D01*
X009998Y008968D01*
X009434Y008459D02*
X009434Y008425D01*
X009418Y008442D01*
X009434Y008459D01*
X008970Y007154D02*
X008585Y007154D01*
X008743Y006996D02*
X008812Y006996D01*
X008797Y006837D02*
X008757Y006837D01*
X008757Y006679D02*
X008797Y006679D01*
X008861Y006520D02*
X008694Y006520D01*
X008535Y006362D02*
X009019Y006362D01*
X009019Y006203D02*
X008536Y006203D01*
X008694Y006045D02*
X008861Y006045D01*
X008797Y005886D02*
X008757Y005886D01*
X008757Y005728D02*
X008797Y005728D01*
X008812Y005569D02*
X008743Y005569D01*
X008584Y005411D02*
X008970Y005411D01*
X009257Y005411D02*
X009297Y005411D01*
X009297Y005569D02*
X009257Y005569D01*
X008515Y005252D02*
X011068Y005252D01*
X011257Y004618D02*
X011297Y004618D01*
X011297Y004460D02*
X011257Y004460D01*
X010921Y004460D02*
X010688Y004460D01*
X010729Y004618D02*
X010797Y004618D01*
X011941Y005153D02*
X011941Y005171D01*
X011973Y005185D01*
X011941Y005153D01*
X012084Y005282D02*
X012084Y005282D01*
X012476Y005282D01*
X012084Y005282D01*
X012476Y005282D02*
X012476Y005282D01*
X012976Y005252D02*
X013040Y005252D01*
X013070Y005282D02*
X012976Y005188D01*
X012976Y005376D01*
X013070Y005282D01*
X013424Y005282D01*
X013424Y005282D01*
X013070Y005282D01*
X012777Y005886D02*
X012777Y005886D01*
X012722Y006045D02*
X012832Y006045D01*
X012991Y006203D02*
X012564Y006203D01*
X012564Y006362D02*
X012991Y006362D01*
X012833Y006520D02*
X012722Y006520D01*
X012777Y006679D02*
X012777Y006679D01*
X012777Y006837D02*
X012777Y006837D01*
X012771Y006996D02*
X012783Y006996D01*
X012942Y007154D02*
X012613Y007154D01*
X012557Y007313D02*
X012997Y007313D01*
X012882Y007471D02*
X012673Y007471D01*
X012777Y007630D02*
X012777Y007630D01*
X012777Y007788D02*
X012777Y007788D01*
X012277Y007782D02*
X012785Y008290D01*
X012785Y009255D01*
X012805Y009274D01*
X012777Y009653D02*
X012777Y009653D01*
X012777Y009989D01*
X012729Y010038D01*
X012826Y010038D01*
X012777Y009989D01*
X012777Y009653D01*
X012777Y009690D02*
X012777Y009690D01*
X012777Y009849D02*
X012777Y009849D01*
X012760Y010007D02*
X012795Y010007D01*
X012451Y010318D02*
X013179Y010318D01*
X013277Y010416D01*
X013277Y011519D01*
X013553Y011794D01*
X014065Y011794D01*
X014222Y011952D01*
X014222Y012527D01*
X014207Y012542D01*
X014207Y012543D01*
X014207Y012542D02*
X014773Y012542D01*
X015152Y012546D02*
X015763Y012546D01*
X015871Y012501D01*
X015871Y012591D01*
X015763Y012546D01*
X015152Y012546D01*
X015152Y012546D01*
X015771Y012543D02*
X015871Y012543D01*
X016431Y012267D02*
X016433Y012265D01*
X016823Y012265D01*
X016836Y012279D01*
X016836Y012192D01*
X016823Y012205D01*
X016433Y012205D01*
X016431Y012203D01*
X016431Y012267D01*
X016431Y012226D02*
X016836Y012226D01*
X017396Y012226D02*
X017839Y012226D01*
X017823Y012205D02*
X017433Y012205D01*
X017396Y012168D01*
X017396Y012302D01*
X017433Y012265D01*
X017823Y012265D01*
X017839Y012281D01*
X017839Y012189D01*
X017823Y012205D01*
X017839Y011281D02*
X017839Y011189D01*
X017823Y011205D01*
X017433Y011205D01*
X017396Y011168D01*
X017396Y011302D01*
X017433Y011265D01*
X017823Y011265D01*
X017839Y011281D01*
X017839Y011275D02*
X017832Y011275D01*
X017423Y011275D02*
X017396Y011275D01*
X016836Y011275D02*
X016832Y011275D01*
X016836Y011279D02*
X016836Y011192D01*
X016823Y011205D01*
X016433Y011205D01*
X016158Y010930D01*
X016158Y010540D01*
X016179Y010519D01*
X015678Y010519D01*
X015576Y010476D01*
X015381Y010282D01*
X015070Y010282D01*
X015033Y010245D01*
X015011Y010299D01*
X014759Y010552D01*
X014777Y010570D01*
X014777Y010662D01*
X014812Y010636D01*
X014880Y010601D01*
X014952Y010578D01*
X015026Y010566D01*
X015344Y010566D01*
X015344Y011026D01*
X015384Y011026D01*
X015384Y010566D01*
X015702Y010566D01*
X015776Y010578D01*
X015848Y010601D01*
X015916Y010636D01*
X015977Y010680D01*
X016030Y010733D01*
X016075Y010795D01*
X016109Y010862D01*
X016132Y010934D01*
X016144Y011008D01*
X016144Y011026D01*
X015384Y011026D01*
X015384Y011066D01*
X016144Y011066D01*
X016144Y011084D01*
X016132Y011159D01*
X016109Y011230D01*
X016075Y011298D01*
X016048Y011334D01*
X016206Y011492D01*
X016433Y011265D01*
X016823Y011265D01*
X016836Y011279D01*
X016423Y011275D02*
X016086Y011275D01*
X016139Y011117D02*
X016345Y011117D01*
X016186Y010958D02*
X016136Y010958D01*
X016158Y010800D02*
X016077Y010800D01*
X016158Y010641D02*
X015923Y010641D01*
X015590Y010483D02*
X014828Y010483D01*
X014805Y010641D02*
X014777Y010641D01*
X014986Y010324D02*
X015423Y010324D01*
X015734Y010239D02*
X015277Y009782D01*
X015277Y008782D01*
X015876Y008184D01*
X015876Y002381D01*
X015277Y001782D01*
X015277Y000782D01*
X014919Y001131D02*
X014636Y001131D01*
X014777Y000989D02*
X014485Y001282D01*
X014070Y001282D01*
X013777Y000989D01*
X013557Y001209D01*
X013557Y001355D01*
X013777Y001575D01*
X013777Y001908D01*
X013777Y001908D01*
X013777Y001575D01*
X014070Y001282D01*
X014485Y001282D01*
X014777Y001575D01*
X014777Y001989D01*
X014485Y002282D01*
X014148Y002282D01*
X014485Y002282D01*
X014777Y002575D01*
X014777Y002989D01*
X014485Y003282D01*
X014131Y003282D01*
X014131Y003282D01*
X014485Y003282D01*
X014777Y003575D01*
X014777Y003886D01*
X014777Y003575D01*
X014997Y003355D01*
X014997Y003209D01*
X014777Y002989D01*
X014777Y002575D01*
X015070Y002282D01*
X014777Y001989D01*
X014777Y001575D01*
X014997Y001355D01*
X014997Y001209D01*
X014777Y000989D01*
X014777Y000575D01*
X014742Y000540D01*
X014813Y000540D01*
X014777Y000575D01*
X014777Y000989D01*
X014777Y000973D02*
X014777Y000973D01*
X014777Y000814D02*
X014777Y000814D01*
X014777Y000656D02*
X014777Y000656D01*
X014997Y001290D02*
X014492Y001290D01*
X014650Y001448D02*
X014905Y001448D01*
X014777Y001607D02*
X014777Y001607D01*
X014777Y001765D02*
X014777Y001765D01*
X014777Y001924D02*
X014777Y001924D01*
X014685Y002082D02*
X014870Y002082D01*
X015028Y002241D02*
X014526Y002241D01*
X014601Y002399D02*
X014954Y002399D01*
X015070Y002282D02*
X015381Y002282D01*
X015381Y002282D01*
X015070Y002282D01*
X014795Y002558D02*
X014760Y002558D01*
X014777Y002716D02*
X014777Y002716D01*
X014777Y002875D02*
X014777Y002875D01*
X014734Y003033D02*
X014821Y003033D01*
X014979Y003192D02*
X014575Y003192D01*
X014552Y003350D02*
X014997Y003350D01*
X014844Y003509D02*
X014711Y003509D01*
X014777Y003667D02*
X014777Y003667D01*
X014777Y003826D02*
X014777Y003826D01*
X014777Y003886D02*
X014777Y003886D01*
X014793Y004267D02*
X015277Y003782D01*
X015277Y002782D01*
X015596Y003171D02*
X015557Y003209D01*
X015557Y003355D01*
X015596Y003394D01*
X015596Y003171D01*
X015596Y003192D02*
X015575Y003192D01*
X015557Y003350D02*
X015596Y003350D01*
X016156Y003350D02*
X016348Y003350D01*
X016433Y003265D02*
X016158Y003540D01*
X016158Y003930D01*
X016433Y004205D01*
X016807Y004205D01*
X016807Y004265D01*
X016433Y004265D01*
X016158Y004540D01*
X016158Y004930D01*
X016433Y005205D01*
X016807Y005205D01*
X016807Y005214D01*
X016832Y005275D01*
X016823Y005265D01*
X016433Y005265D01*
X016158Y005540D01*
X016158Y005930D01*
X016433Y006205D01*
X016823Y006205D01*
X017098Y005930D01*
X017098Y005559D01*
X017158Y005619D01*
X017158Y005930D01*
X017174Y005946D01*
X017091Y006029D01*
X017033Y006168D01*
X017033Y006268D01*
X017022Y006279D01*
X016984Y006370D01*
X016984Y006427D01*
X016823Y006265D01*
X016433Y006265D01*
X016158Y006540D01*
X016158Y006930D01*
X016433Y007205D01*
X016823Y007205D01*
X016984Y007043D01*
X016984Y007455D01*
X016814Y007285D01*
X016638Y007285D01*
X016638Y007725D01*
X016618Y007725D01*
X016618Y007285D01*
X016441Y007285D01*
X016178Y007549D01*
X016178Y007725D01*
X016618Y007725D01*
X016618Y007745D01*
X016618Y008185D01*
X016441Y008185D01*
X016178Y007922D01*
X016178Y007745D01*
X016618Y007745D01*
X016638Y007745D01*
X016638Y008185D01*
X016814Y008185D01*
X016984Y008015D01*
X016984Y008391D01*
X017009Y008452D01*
X016823Y008265D01*
X016433Y008265D01*
X016158Y008540D01*
X016158Y008930D01*
X016433Y009205D01*
X016823Y009205D01*
X017098Y008930D01*
X017098Y008559D01*
X017158Y008619D01*
X017158Y008930D01*
X017433Y009205D01*
X017823Y009205D01*
X017839Y009189D01*
X017839Y009281D01*
X017823Y009265D01*
X017433Y009265D01*
X017158Y009540D01*
X017158Y009930D01*
X017433Y010205D01*
X017823Y010205D01*
X017839Y010189D01*
X017839Y010281D01*
X017823Y010265D01*
X017433Y010265D01*
X017373Y010325D01*
X017353Y010277D01*
X017157Y010080D01*
X017078Y010002D01*
X017041Y009987D01*
X017098Y009930D01*
X017098Y009540D01*
X016823Y009265D01*
X016433Y009265D01*
X016158Y009540D01*
X016158Y009930D01*
X016187Y009959D01*
X015850Y009959D01*
X015777Y009886D01*
X015777Y009575D01*
X015557Y009355D01*
X015557Y009209D01*
X015777Y008989D01*
X015777Y008678D01*
X016034Y008421D01*
X016034Y008421D01*
X016113Y008343D01*
X016156Y008240D01*
X016156Y002325D01*
X016113Y002222D01*
X016034Y002143D01*
X015777Y001886D01*
X015777Y001575D01*
X015557Y001355D01*
X015557Y001209D01*
X015777Y000989D01*
X015777Y000575D01*
X015742Y000540D01*
X016200Y000540D01*
X016158Y000642D01*
X016158Y000829D01*
X016229Y001001D01*
X016362Y001134D01*
X016534Y001205D01*
X016721Y001205D01*
X016796Y001174D01*
X016807Y001201D01*
X016807Y001265D01*
X016433Y001265D01*
X016158Y001540D01*
X016158Y001930D01*
X016433Y002205D01*
X016807Y002205D01*
X016807Y002265D01*
X016433Y002265D01*
X016158Y002540D01*
X016158Y002930D01*
X016433Y003205D01*
X016807Y003205D01*
X016807Y003265D01*
X016433Y003265D01*
X016420Y003192D02*
X016156Y003192D01*
X016156Y003033D02*
X016261Y003033D01*
X016158Y002875D02*
X016156Y002875D01*
X016156Y002716D02*
X016158Y002716D01*
X016156Y002558D02*
X016158Y002558D01*
X016156Y002399D02*
X016299Y002399D01*
X016121Y002241D02*
X016807Y002241D01*
X017307Y002241D02*
X017839Y002241D01*
X017823Y002265D02*
X017839Y002281D01*
X017839Y002189D01*
X017823Y002205D01*
X017433Y002205D01*
X017307Y002079D01*
X017307Y002391D01*
X017433Y002265D01*
X017823Y002265D01*
X017310Y002082D02*
X017307Y002082D01*
X017307Y001391D02*
X017433Y001265D01*
X017823Y001265D01*
X017839Y001281D01*
X017839Y001189D01*
X017823Y001205D01*
X017463Y001205D01*
X017456Y001221D01*
X017350Y001327D01*
X017307Y001345D01*
X017307Y001391D01*
X017388Y001290D02*
X017409Y001290D01*
X017158Y000629D02*
X017092Y000629D01*
X017056Y000540D01*
X017158Y000540D01*
X017158Y000540D01*
X017158Y000629D01*
X016409Y001290D02*
X015557Y001290D01*
X015636Y001131D02*
X016359Y001131D01*
X016217Y000973D02*
X015777Y000973D01*
X015777Y000814D02*
X016158Y000814D01*
X016158Y000656D02*
X015777Y000656D01*
X015650Y001448D02*
X016250Y001448D01*
X016158Y001607D02*
X015777Y001607D01*
X015777Y001765D02*
X016158Y001765D01*
X016158Y001924D02*
X015815Y001924D01*
X015973Y002082D02*
X016310Y002082D01*
X017307Y003079D02*
X017307Y003391D01*
X017433Y003265D01*
X017823Y003265D01*
X017839Y003281D01*
X017839Y003189D01*
X017823Y003205D01*
X017433Y003205D01*
X017307Y003079D01*
X017307Y003192D02*
X017420Y003192D01*
X017348Y003350D02*
X017307Y003350D01*
X017836Y003192D02*
X017839Y003192D01*
X017839Y004189D02*
X017823Y004205D01*
X017433Y004205D01*
X017307Y004079D01*
X017307Y004391D01*
X017433Y004265D01*
X017823Y004265D01*
X017839Y004281D01*
X017839Y004189D01*
X017397Y004301D02*
X017307Y004301D01*
X017307Y004143D02*
X017371Y004143D01*
X016397Y004301D02*
X016156Y004301D01*
X016156Y004143D02*
X016371Y004143D01*
X016212Y003984D02*
X016156Y003984D01*
X016156Y003826D02*
X016158Y003826D01*
X016156Y003667D02*
X016158Y003667D01*
X016156Y003509D02*
X016190Y003509D01*
X015596Y004171D02*
X015485Y004282D01*
X015173Y004282D01*
X015485Y004282D01*
X015596Y004394D01*
X015596Y004171D01*
X015596Y004301D02*
X015503Y004301D01*
X015173Y004282D02*
X015173Y004282D01*
X015277Y004782D02*
X015277Y005782D01*
X015596Y005394D02*
X015557Y005355D01*
X015557Y005209D01*
X015596Y005171D01*
X015596Y005394D01*
X015596Y005252D02*
X015557Y005252D01*
X016112Y005436D02*
X016289Y005259D01*
X016156Y005252D02*
X016823Y005252D01*
X017098Y005569D02*
X017108Y005569D01*
X017098Y005728D02*
X017158Y005728D01*
X017158Y005886D02*
X017098Y005886D01*
X017084Y006045D02*
X016983Y006045D01*
X017033Y006203D02*
X016825Y006203D01*
X016919Y006362D02*
X016988Y006362D01*
X016431Y006203D02*
X016156Y006203D01*
X016156Y006045D02*
X016273Y006045D01*
X016158Y005886D02*
X016156Y005886D01*
X016156Y005728D02*
X016158Y005728D01*
X016156Y005569D02*
X016158Y005569D01*
X016112Y005436D02*
X016112Y007070D01*
X016628Y007586D01*
X016628Y007735D01*
X016618Y007788D02*
X016638Y007788D01*
X016638Y007630D02*
X016618Y007630D01*
X016618Y007471D02*
X016638Y007471D01*
X016638Y007313D02*
X016618Y007313D01*
X016414Y007313D02*
X016156Y007313D01*
X016156Y007471D02*
X016256Y007471D01*
X016178Y007630D02*
X016156Y007630D01*
X016156Y007788D02*
X016178Y007788D01*
X016156Y007947D02*
X016203Y007947D01*
X016156Y008105D02*
X016361Y008105D01*
X016146Y008264D02*
X016984Y008264D01*
X016979Y008422D02*
X016997Y008422D01*
X017098Y008581D02*
X017120Y008581D01*
X017098Y008739D02*
X017158Y008739D01*
X017158Y008898D02*
X017098Y008898D01*
X016972Y009056D02*
X017284Y009056D01*
X017325Y009373D02*
X016930Y009373D01*
X017089Y009532D02*
X017167Y009532D01*
X017158Y009690D02*
X017098Y009690D01*
X017098Y009849D02*
X017158Y009849D01*
X017083Y010007D02*
X017235Y010007D01*
X017242Y010166D02*
X017394Y010166D01*
X017373Y010324D02*
X017374Y010324D01*
X017116Y010436D02*
X016919Y010239D01*
X015734Y010239D01*
X015777Y009849D02*
X016158Y009849D01*
X016158Y009690D02*
X015777Y009690D01*
X015734Y009532D02*
X016167Y009532D01*
X016325Y009373D02*
X015575Y009373D01*
X015557Y009215D02*
X017839Y009215D01*
X017839Y008281D02*
X017839Y008189D01*
X017823Y008205D01*
X017484Y008205D01*
X017484Y008238D01*
X017511Y008265D01*
X017823Y008265D01*
X017839Y008281D01*
X017839Y008264D02*
X017510Y008264D01*
X016984Y008105D02*
X016894Y008105D01*
X016638Y008105D02*
X016618Y008105D01*
X016618Y007947D02*
X016638Y007947D01*
X016276Y008422D02*
X016034Y008422D01*
X016158Y008581D02*
X015875Y008581D01*
X015777Y008739D02*
X016158Y008739D01*
X016158Y008898D02*
X015777Y008898D01*
X015711Y009056D02*
X016284Y009056D01*
X015381Y008282D02*
X015173Y008282D01*
X015173Y008282D01*
X015381Y008282D01*
X015381Y008282D01*
X014777Y007886D02*
X014777Y007575D01*
X014777Y007886D01*
X014777Y007886D01*
X014777Y007788D02*
X014777Y007788D01*
X014777Y007630D02*
X014777Y007630D01*
X014777Y007575D02*
X014997Y007355D01*
X014997Y007209D01*
X014777Y006989D01*
X014777Y006678D01*
X014777Y006678D01*
X014777Y006989D01*
X014557Y007209D01*
X014557Y007355D01*
X014777Y007575D01*
X014673Y007471D02*
X014882Y007471D01*
X014997Y007313D02*
X014557Y007313D01*
X014613Y007154D02*
X014942Y007154D01*
X014783Y006996D02*
X014771Y006996D01*
X014777Y006837D02*
X014777Y006837D01*
X014777Y006679D02*
X014777Y006679D01*
X014277Y006782D02*
X014277Y007782D01*
X013893Y008105D02*
X013662Y008105D01*
X013777Y007947D02*
X013777Y007947D01*
X013777Y007788D02*
X013777Y007788D01*
X013777Y007630D02*
X013777Y007630D01*
X013673Y007471D02*
X013882Y007471D01*
X013789Y007306D02*
X013789Y010121D01*
X013795Y010007D02*
X013760Y010007D01*
X013777Y009849D02*
X013777Y009849D01*
X013777Y009690D02*
X013777Y009690D01*
X013734Y009532D02*
X013821Y009532D01*
X013980Y009373D02*
X013575Y009373D01*
X013557Y009215D02*
X013997Y009215D01*
X013844Y009056D02*
X013711Y009056D01*
X013777Y008898D02*
X013777Y008898D01*
X013777Y008739D02*
X013777Y008739D01*
X013777Y008581D02*
X013777Y008581D01*
X013624Y008422D02*
X013931Y008422D01*
X014070Y008282D02*
X014485Y008282D01*
X014493Y008273D01*
X014493Y008291D01*
X014485Y008282D01*
X014070Y008282D01*
X014051Y008264D02*
X013503Y008264D01*
X013277Y007782D02*
X013277Y006782D01*
X013613Y007154D02*
X013942Y007154D01*
X013997Y007313D02*
X013557Y007313D01*
X013771Y006996D02*
X013783Y006996D01*
X013777Y006837D02*
X013777Y006837D01*
X013777Y006679D02*
X013777Y006679D01*
X013722Y006520D02*
X013833Y006520D01*
X013991Y006362D02*
X013564Y006362D01*
X013564Y006203D02*
X013991Y006203D01*
X013832Y006045D02*
X013722Y006045D01*
X013777Y005886D02*
X013777Y005886D01*
X013777Y005728D02*
X013777Y005728D01*
X014020Y005333D02*
X014027Y005325D01*
X014027Y005239D01*
X014020Y005232D01*
X014020Y005333D01*
X014020Y005252D02*
X014027Y005252D01*
X015173Y006282D02*
X015173Y006282D01*
X015485Y006282D01*
X015596Y006171D01*
X015596Y006394D01*
X015485Y006282D01*
X015173Y006282D01*
X015564Y006362D02*
X015596Y006362D01*
X015596Y006203D02*
X015564Y006203D01*
X016156Y006362D02*
X016337Y006362D01*
X016178Y006520D02*
X016156Y006520D01*
X016156Y006679D02*
X016158Y006679D01*
X016156Y006837D02*
X016158Y006837D01*
X016156Y006996D02*
X016224Y006996D01*
X016156Y007154D02*
X016382Y007154D01*
X016842Y007313D02*
X016984Y007313D01*
X016984Y007154D02*
X016874Y007154D01*
X017484Y007205D02*
X017484Y007265D01*
X017823Y007265D01*
X017839Y007281D01*
X017839Y007189D01*
X017823Y007205D01*
X017484Y007205D01*
X017839Y006281D02*
X017839Y006189D01*
X017823Y006205D01*
X017789Y006205D01*
X017789Y006265D01*
X017823Y006265D01*
X017839Y006281D01*
X017839Y006203D02*
X017825Y006203D01*
X017839Y005281D02*
X017839Y005189D01*
X017823Y005205D01*
X017451Y005205D01*
X017511Y005265D01*
X017823Y005265D01*
X017839Y005281D01*
X017839Y005252D02*
X017498Y005252D01*
X016322Y005094D02*
X016156Y005094D01*
X016156Y004935D02*
X016163Y004935D01*
X016156Y004777D02*
X016158Y004777D01*
X016156Y004618D02*
X016158Y004618D01*
X016156Y004460D02*
X016239Y004460D01*
X016288Y005411D02*
X016156Y005411D01*
X015596Y007171D02*
X015557Y007209D01*
X015557Y007355D01*
X015596Y007394D01*
X015596Y007171D01*
X015596Y007313D02*
X015557Y007313D01*
X014277Y008782D02*
X014277Y009782D01*
X013953Y010166D02*
X013601Y010166D01*
X013542Y010324D02*
X014194Y010324D01*
X013277Y009782D02*
X013277Y008782D01*
X012277Y008782D02*
X012277Y009782D01*
X012277Y010145D01*
X012451Y010318D01*
X012189Y010452D02*
X012138Y010452D01*
X012153Y010416D01*
X012189Y010452D01*
X011801Y010554D02*
X011801Y010278D01*
X011801Y010554D02*
X012372Y011125D01*
X013297Y012050D01*
X013297Y012543D01*
X013297Y014983D01*
X013297Y014767D01*
X012854Y014324D01*
X013577Y014350D02*
X014089Y014350D01*
X014206Y014467D01*
X014206Y015346D01*
X014351Y015346D01*
X014524Y015417D01*
X014656Y015549D01*
X014714Y015689D01*
X014781Y015622D01*
X014965Y015546D01*
X014781Y015470D01*
X014640Y015329D01*
X014564Y015146D01*
X014564Y014947D01*
X014640Y014763D01*
X014781Y014622D01*
X014965Y014546D01*
X014781Y014470D01*
X014640Y014329D01*
X014564Y014146D01*
X014564Y013947D01*
X014640Y013763D01*
X014781Y013622D01*
X014965Y013546D01*
X014781Y013470D01*
X014640Y013329D01*
X014565Y013147D01*
X014530Y013183D01*
X013884Y013183D01*
X013767Y013065D01*
X013767Y012074D01*
X013737Y012074D01*
X013737Y013065D01*
X013620Y013183D01*
X013577Y013183D01*
X013577Y014350D01*
X013577Y014287D02*
X014622Y014287D01*
X014564Y014128D02*
X013577Y014128D01*
X013577Y013970D02*
X014564Y013970D01*
X014620Y013811D02*
X013577Y013811D01*
X013577Y013653D02*
X014751Y013653D01*
X014839Y013494D02*
X013577Y013494D01*
X013577Y013336D02*
X014646Y013336D01*
X014577Y013177D02*
X014535Y013177D01*
X014965Y013546D02*
X015763Y013546D01*
X015871Y013501D01*
X015871Y013591D01*
X015763Y013546D01*
X014965Y013546D01*
X014756Y014445D02*
X014184Y014445D01*
X014206Y014604D02*
X014826Y014604D01*
X014965Y014546D02*
X015763Y014546D01*
X014965Y014546D01*
X014641Y014762D02*
X014206Y014762D01*
X014206Y014921D02*
X014575Y014921D01*
X014564Y015079D02*
X014206Y015079D01*
X014206Y015238D02*
X014602Y015238D01*
X014707Y015396D02*
X014473Y015396D01*
X014658Y015555D02*
X014944Y015555D01*
X014965Y015546D02*
X015763Y015546D01*
X015871Y015501D01*
X015871Y015591D01*
X015763Y015546D01*
X014965Y015546D01*
X015784Y015555D02*
X015871Y015555D01*
X016431Y015238D02*
X017839Y015238D01*
X017307Y015079D02*
X016949Y015079D01*
X017098Y014921D02*
X017158Y014921D01*
X017158Y014762D02*
X017098Y014762D01*
X017098Y014604D02*
X017158Y014604D01*
X017253Y014445D02*
X017002Y014445D01*
X016844Y014287D02*
X017412Y014287D01*
X017356Y014128D02*
X016900Y014128D01*
X017058Y013970D02*
X017198Y013970D01*
X017158Y013811D02*
X017098Y013811D01*
X017106Y013653D02*
X017158Y013653D01*
X017116Y013247D02*
X017116Y010436D01*
X016265Y011434D02*
X016147Y011434D01*
X015384Y010958D02*
X015344Y010958D01*
X015344Y010800D02*
X015384Y010800D01*
X015384Y010641D02*
X015344Y010641D01*
X014609Y011838D02*
X014482Y011838D01*
X014478Y011836D01*
X014502Y011896D01*
X014502Y011903D01*
X014530Y011903D01*
X014567Y011940D01*
X014609Y011838D01*
X014580Y011909D02*
X014536Y011909D01*
X013767Y012226D02*
X013737Y012226D01*
X013737Y012385D02*
X013767Y012385D01*
X013767Y012543D02*
X013737Y012543D01*
X013737Y012702D02*
X013767Y012702D01*
X013767Y012860D02*
X013737Y012860D01*
X013737Y013019D02*
X013767Y013019D01*
X013879Y013177D02*
X013625Y013177D01*
X012857Y013019D02*
X012804Y013019D01*
X012807Y013006D02*
X012795Y013052D01*
X012771Y013093D01*
X012738Y013127D01*
X012697Y013150D01*
X012651Y013163D01*
X012427Y013163D01*
X012427Y012583D01*
X012347Y012583D01*
X012347Y012503D01*
X012427Y012503D01*
X012427Y012583D01*
X012807Y012583D01*
X012807Y013006D01*
X012807Y012860D02*
X012857Y012860D01*
X012857Y012702D02*
X012807Y012702D01*
X012857Y012543D02*
X012427Y012543D01*
X012427Y012503D02*
X012807Y012503D01*
X012807Y012079D01*
X012795Y012033D01*
X012771Y011992D01*
X012738Y011959D01*
X012697Y011935D01*
X012651Y011923D01*
X012427Y011923D01*
X012427Y012503D01*
X012427Y012385D02*
X012347Y012385D01*
X012347Y012226D02*
X012427Y012226D01*
X012427Y012068D02*
X012347Y012068D01*
X012760Y011909D02*
X011090Y011909D01*
X010673Y011909D02*
X010673Y011909D01*
X010673Y011751D02*
X010673Y011751D01*
X010673Y011592D02*
X010673Y011592D01*
X010673Y011434D02*
X010673Y011434D01*
X010673Y011275D02*
X010673Y011275D01*
X010673Y012068D02*
X010673Y012068D01*
X010673Y012226D02*
X010673Y012226D01*
X010673Y012385D02*
X010673Y012385D01*
X010785Y012385D02*
X010968Y012385D01*
X010810Y012543D02*
X010745Y012543D01*
X010777Y012702D02*
X010777Y012702D01*
X010777Y012860D02*
X010777Y012860D01*
X010748Y013019D02*
X010806Y013019D01*
X010957Y013177D02*
X010590Y013177D01*
X010557Y013336D02*
X010957Y013336D01*
X010859Y013494D02*
X010696Y013494D01*
X010777Y013653D02*
X010777Y013653D01*
X010777Y013811D02*
X010777Y013811D01*
X010777Y013970D02*
X010777Y013970D01*
X010639Y014128D02*
X010916Y014128D01*
X010957Y014287D02*
X010557Y014287D01*
X010647Y014445D02*
X010908Y014445D01*
X010777Y014604D02*
X010777Y014604D01*
X010777Y014762D02*
X010777Y014762D01*
X010777Y014921D02*
X010777Y014921D01*
X010688Y015079D02*
X010867Y015079D01*
X010957Y015238D02*
X010529Y015238D01*
X010598Y015396D02*
X010957Y015396D01*
X010798Y015555D02*
X010757Y015555D01*
X010777Y015713D02*
X010777Y015713D01*
X010777Y015872D02*
X010777Y015872D01*
X010737Y016030D02*
X010818Y016030D01*
X010957Y016189D02*
X010597Y016189D01*
X010597Y016347D02*
X010957Y016347D01*
X010847Y016506D02*
X010708Y016506D01*
X010777Y016664D02*
X010777Y016664D01*
X010777Y016823D02*
X010777Y016823D01*
X010777Y016981D02*
X010777Y016981D01*
X010627Y017140D02*
X010927Y017140D01*
X010957Y017298D02*
X010597Y017298D01*
X010659Y017457D02*
X010896Y017457D01*
X010777Y017615D02*
X010777Y017615D01*
X010777Y017774D02*
X010777Y017774D01*
X010777Y017932D02*
X010777Y017932D01*
X010676Y018091D02*
X010878Y018091D01*
X011037Y018249D02*
X010518Y018249D01*
X010780Y018408D02*
X011803Y018408D01*
X011803Y018516D02*
X011803Y018232D01*
X012275Y017761D01*
X012558Y017761D01*
X012558Y018516D01*
X011803Y018516D01*
X011803Y018616D02*
X012558Y018616D01*
X012558Y019371D01*
X012275Y019371D01*
X011803Y018899D01*
X011803Y018616D01*
X011803Y018725D02*
X011081Y018725D01*
X011090Y018883D02*
X011803Y018883D01*
X011945Y019042D02*
X011090Y019042D01*
X011090Y019200D02*
X012104Y019200D01*
X012262Y019359D02*
X011083Y019359D01*
X011010Y018566D02*
X012558Y018566D01*
X012558Y018616D02*
X012558Y018516D01*
X012658Y018516D01*
X012658Y018616D01*
X012558Y018616D01*
X012658Y018616D02*
X012658Y019371D01*
X012942Y019371D01*
X013413Y018899D01*
X013413Y018616D01*
X012658Y018616D01*
X012658Y018566D02*
X013752Y018566D01*
X013752Y018408D02*
X013413Y018408D01*
X013413Y018516D02*
X013413Y018232D01*
X012942Y017761D01*
X012658Y017761D01*
X012658Y018516D01*
X013413Y018516D01*
X013413Y018725D02*
X013752Y018725D01*
X013752Y018883D02*
X013413Y018883D01*
X013271Y019042D02*
X013886Y019042D01*
X013752Y018908D02*
X013752Y018224D01*
X014235Y017741D01*
X014918Y017741D01*
X015402Y018224D01*
X015402Y018908D01*
X014918Y019391D01*
X014235Y019391D01*
X013752Y018908D01*
X014044Y019200D02*
X013112Y019200D01*
X012954Y019359D02*
X014203Y019359D01*
X014951Y019359D02*
X016544Y019359D01*
X016662Y019200D02*
X015109Y019200D01*
X015268Y019042D02*
X016565Y019042D01*
X016410Y018883D02*
X015402Y018883D01*
X015402Y018725D02*
X016343Y018725D01*
X016361Y018566D02*
X015402Y018566D01*
X015402Y018408D02*
X016464Y018408D01*
X016595Y018249D02*
X015402Y018249D01*
X015268Y018091D02*
X016347Y018091D01*
X016188Y017932D02*
X015110Y017932D01*
X014951Y017774D02*
X016178Y017774D01*
X016178Y017615D02*
X011777Y017615D01*
X011777Y017774D02*
X012262Y017774D01*
X012103Y017932D02*
X011777Y017932D01*
X011676Y018091D02*
X011945Y018091D01*
X011803Y018249D02*
X011518Y018249D01*
X011277Y017782D02*
X011277Y017337D01*
X011597Y017298D02*
X016429Y017298D01*
X016368Y017140D02*
X011627Y017140D01*
X011659Y017457D02*
X016270Y017457D01*
X016618Y017457D02*
X016638Y017457D01*
X016638Y017615D02*
X016618Y017615D01*
X016618Y017774D02*
X016638Y017774D01*
X016638Y017932D02*
X016618Y017932D01*
X016618Y018091D02*
X016638Y018091D01*
X016909Y018091D02*
X017319Y018091D01*
X017436Y018205D02*
X017437Y018206D01*
X017441Y018206D01*
X017445Y018210D01*
X017562Y018327D01*
X017562Y018331D01*
X017582Y018351D01*
X017582Y018355D01*
X017590Y018363D01*
X017590Y018367D01*
X017598Y018375D01*
X017598Y018379D01*
X017601Y018383D01*
X017601Y018387D01*
X017605Y018390D01*
X017605Y018394D01*
X017609Y018398D01*
X017609Y018402D01*
X017613Y018406D01*
X017613Y018410D01*
X017617Y018414D01*
X017617Y018422D01*
X017621Y018426D01*
X017621Y018430D01*
X017625Y018434D01*
X017625Y018442D01*
X017629Y018446D01*
X017629Y018453D01*
X017633Y018457D01*
X017633Y018465D01*
X017637Y018469D01*
X017637Y018477D01*
X017641Y018481D01*
X017641Y018493D01*
X017645Y018497D01*
X017645Y018501D01*
X017723Y018579D01*
X017723Y018583D01*
X017727Y018587D01*
X017727Y018812D01*
X017723Y018816D01*
X017723Y018820D01*
X017720Y018824D01*
X017720Y018828D01*
X017716Y018832D01*
X017625Y018922D01*
X017625Y018926D01*
X017621Y018930D01*
X017621Y018934D01*
X017617Y018938D01*
X017617Y018942D01*
X017613Y018946D01*
X017609Y018950D01*
X017609Y018954D01*
X017605Y018958D01*
X017601Y018962D01*
X017598Y018966D01*
X017480Y019083D01*
X017469Y019095D01*
X017465Y019095D01*
X017457Y019102D01*
X017453Y019102D01*
X017449Y019106D01*
X017445Y019106D01*
X017441Y019110D01*
X017433Y019110D01*
X017429Y019114D01*
X017417Y019114D01*
X017413Y019118D01*
X017353Y019118D01*
X017353Y019119D01*
X017353Y019123D01*
X017365Y019135D01*
X017365Y019138D01*
X017377Y019150D01*
X017377Y019154D01*
X017385Y019162D01*
X017385Y019166D01*
X017397Y019178D01*
X017397Y019182D01*
X017401Y019186D01*
X017409Y019194D01*
X017409Y019198D01*
X017420Y019209D01*
X017420Y019213D01*
X017432Y019225D01*
X017432Y019229D01*
X017440Y019237D01*
X017440Y019241D01*
X017452Y019253D01*
X017452Y019257D01*
X017464Y019268D01*
X017464Y019272D01*
X017475Y019284D01*
X017475Y019288D01*
X017487Y019300D01*
X017487Y019304D01*
X017495Y019312D01*
X017495Y019316D01*
X017507Y019327D01*
X017507Y019331D01*
X017519Y019343D01*
X017519Y019347D01*
X017531Y019359D01*
X017531Y019363D01*
X017542Y019375D01*
X017542Y019379D01*
X017554Y019390D01*
X017554Y019394D01*
X017562Y019402D01*
X017562Y019406D01*
X017574Y019418D01*
X017574Y019422D01*
X017586Y019434D01*
X017586Y019438D01*
X017598Y019450D01*
X017598Y019453D01*
X017609Y019465D01*
X017609Y019469D01*
X017617Y019477D01*
X017617Y019505D01*
X017839Y019505D01*
X017839Y018189D01*
X017823Y018205D01*
X017436Y018205D01*
X017484Y018249D02*
X017839Y018249D01*
X017839Y018408D02*
X017613Y018408D01*
X017710Y018566D02*
X017839Y018566D01*
X017839Y018725D02*
X017727Y018725D01*
X017664Y018883D02*
X017839Y018883D01*
X017839Y019042D02*
X017522Y019042D01*
X017480Y019083D02*
X017480Y019083D01*
X017401Y019186D02*
X017401Y019186D01*
X017411Y019200D02*
X017839Y019200D01*
X017839Y019359D02*
X017530Y019359D01*
X017160Y017932D02*
X017067Y017932D01*
X017078Y017774D02*
X017158Y017774D01*
X017158Y017615D02*
X017078Y017615D01*
X016986Y017457D02*
X017242Y017457D01*
X017400Y017298D02*
X016827Y017298D01*
X016888Y017140D02*
X017368Y017140D01*
X017209Y016981D02*
X017047Y016981D01*
X017098Y016823D02*
X017158Y016823D01*
X017158Y016664D02*
X017098Y016664D01*
X017063Y016506D02*
X017193Y016506D01*
X017351Y016347D02*
X016904Y016347D01*
X016839Y016189D02*
X017417Y016189D01*
X017258Y016030D02*
X016998Y016030D01*
X017098Y015872D02*
X017158Y015872D01*
X017158Y015713D02*
X017098Y015713D01*
X017098Y015555D02*
X017158Y015555D01*
X017302Y015396D02*
X016953Y015396D01*
X015871Y014591D02*
X015871Y014501D01*
X015763Y014546D01*
X015871Y014591D01*
X016628Y013735D02*
X017116Y013247D01*
X017396Y013302D02*
X017433Y013265D01*
X017823Y013265D01*
X017839Y013281D01*
X017839Y013189D01*
X017823Y013205D01*
X017433Y013205D01*
X017396Y013168D01*
X017396Y013302D01*
X017396Y013177D02*
X017405Y013177D01*
X016762Y013205D02*
X016433Y013205D01*
X016431Y013203D01*
X016431Y013267D01*
X016433Y013265D01*
X016702Y013265D01*
X016762Y013205D01*
X013832Y015616D02*
X013684Y015616D01*
X013728Y015722D01*
X013728Y016449D01*
X013701Y016514D01*
X013815Y016514D01*
X013788Y016449D01*
X013788Y015722D01*
X013832Y015616D01*
X013791Y015713D02*
X013724Y015713D01*
X013728Y015872D02*
X013788Y015872D01*
X013788Y016030D02*
X013728Y016030D01*
X013728Y016189D02*
X013788Y016189D01*
X013788Y016347D02*
X013728Y016347D01*
X013704Y016506D02*
X013811Y016506D01*
X014701Y016514D02*
X014887Y016514D01*
X014781Y016470D01*
X014728Y016417D01*
X014728Y016449D01*
X014701Y016514D01*
X014704Y016506D02*
X014867Y016506D01*
X016046Y016981D02*
X016209Y016981D01*
X016618Y017298D02*
X016638Y017298D01*
X014202Y017774D02*
X012954Y017774D01*
X013113Y017932D02*
X014044Y017932D01*
X013885Y018091D02*
X013271Y018091D01*
X013413Y018249D02*
X013752Y018249D01*
X012658Y018249D02*
X012558Y018249D01*
X012558Y018091D02*
X012658Y018091D01*
X012658Y017932D02*
X012558Y017932D01*
X012558Y017774D02*
X012658Y017774D01*
X012658Y018408D02*
X012558Y018408D01*
X012558Y018725D02*
X012658Y018725D01*
X012658Y018883D02*
X012558Y018883D01*
X012558Y019042D02*
X012658Y019042D01*
X012658Y019200D02*
X012558Y019200D01*
X012558Y019359D02*
X012658Y019359D01*
X010277Y014782D02*
X010277Y013782D01*
X010277Y012782D01*
X009277Y012782D02*
X009277Y013782D01*
X009277Y014782D01*
X008277Y014782D02*
X008277Y013782D01*
X008277Y012782D01*
X007796Y012226D02*
X007759Y012226D01*
X007777Y012182D02*
X007777Y011383D01*
X007701Y011199D01*
X007612Y011110D01*
X007943Y011110D01*
X007854Y011199D01*
X007777Y011383D01*
X007777Y012182D01*
X007777Y012068D02*
X007777Y012068D01*
X007777Y011909D02*
X007777Y011909D01*
X007777Y011751D02*
X007777Y011751D01*
X007777Y011592D02*
X007777Y011592D01*
X007777Y011434D02*
X007777Y011434D01*
X007733Y011275D02*
X007822Y011275D01*
X007936Y011117D02*
X007619Y011117D01*
X007807Y007471D02*
X007882Y007471D01*
X007807Y007313D02*
X008040Y007313D01*
X007970Y007154D02*
X007807Y007154D01*
X007807Y006996D02*
X007812Y006996D01*
X008257Y006996D02*
X008297Y006996D01*
X008297Y007154D02*
X008257Y007154D01*
X008257Y006837D02*
X008297Y006837D01*
X008277Y006782D02*
X008277Y005782D01*
X008257Y005728D02*
X008297Y005728D01*
X008297Y005886D02*
X008257Y005886D01*
X008257Y006045D02*
X008297Y006045D01*
X008297Y006203D02*
X008257Y006203D01*
X008257Y006362D02*
X008297Y006362D01*
X008297Y006520D02*
X008257Y006520D01*
X008257Y006679D02*
X008297Y006679D01*
X008019Y006362D02*
X007807Y006362D01*
X007807Y006520D02*
X007861Y006520D01*
X007807Y006203D02*
X008019Y006203D01*
X007861Y006045D02*
X007807Y006045D01*
X007807Y005569D02*
X007812Y005569D01*
X007807Y005411D02*
X007970Y005411D01*
X008040Y005252D02*
X007807Y005252D01*
X007807Y005094D02*
X007881Y005094D01*
X008257Y005411D02*
X008297Y005411D01*
X008297Y005569D02*
X008257Y005569D01*
X007893Y004460D02*
X007807Y004460D01*
X007807Y004301D02*
X008052Y004301D01*
X007930Y004143D02*
X007807Y004143D01*
X007807Y003033D02*
X009007Y003033D01*
X009007Y002875D02*
X007807Y002875D01*
X007807Y002716D02*
X009007Y002716D01*
X009007Y002558D02*
X007807Y002558D01*
X007807Y002399D02*
X009007Y002399D01*
X009007Y002241D02*
X007807Y002241D01*
X008015Y002082D02*
X009007Y002082D01*
X008933Y001924D02*
X008173Y001924D01*
X008332Y001765D02*
X008774Y001765D01*
X008712Y001607D02*
X008394Y001607D01*
X008394Y001448D02*
X008712Y001448D01*
X008712Y001290D02*
X008394Y001290D01*
X008394Y001131D02*
X008712Y001131D01*
X008759Y000973D02*
X008347Y000973D01*
X008188Y000814D02*
X008918Y000814D01*
X009076Y000656D02*
X008030Y000656D01*
X012099Y002282D02*
X012099Y002282D01*
X013650Y001448D02*
X013905Y001448D01*
X013777Y001607D02*
X013777Y001607D01*
X013777Y001765D02*
X013777Y001765D01*
X013557Y001290D02*
X014063Y001290D01*
X013919Y001131D02*
X013636Y001131D01*
X013777Y000989D02*
X013777Y000575D01*
X013742Y000540D01*
X013813Y000540D01*
X013777Y000575D01*
X013777Y000989D01*
X013777Y000973D02*
X013777Y000973D01*
X013777Y000814D02*
X013777Y000814D01*
X013777Y000656D02*
X013777Y000656D01*
X014148Y002282D02*
X014148Y002282D01*
X012476Y004282D02*
X012131Y004282D01*
X012131Y004282D01*
X012476Y004282D01*
X012476Y004282D01*
X011832Y006045D02*
X011694Y006045D01*
X011536Y006203D02*
X011991Y006203D01*
X011991Y006362D02*
X011535Y006362D01*
X011694Y006520D02*
X011833Y006520D01*
X011777Y006679D02*
X011757Y006679D01*
X011757Y006837D02*
X011777Y006837D01*
X011783Y006996D02*
X011743Y006996D01*
X011585Y007154D02*
X011942Y007154D01*
X011997Y007313D02*
X011486Y007313D01*
X011645Y007471D02*
X011882Y007471D01*
X011777Y007630D02*
X011757Y007630D01*
X011777Y007788D02*
X011297Y007788D01*
X011297Y007630D02*
X011257Y007630D01*
X011757Y007947D02*
X011777Y007947D01*
X011893Y008105D02*
X011634Y008105D01*
X011754Y008581D02*
X011777Y008581D01*
X011777Y008739D02*
X011757Y008739D01*
X011757Y008898D02*
X011777Y008898D01*
X011844Y009056D02*
X011683Y009056D01*
X011524Y009215D02*
X011997Y009215D01*
X011980Y009373D02*
X011547Y009373D01*
X011705Y009532D02*
X011821Y009532D01*
X011777Y009690D02*
X011757Y009690D01*
X011757Y009849D02*
X011777Y009849D01*
X012277Y007782D02*
X012277Y006782D01*
X012804Y012068D02*
X012857Y012068D01*
X012857Y012226D02*
X012807Y012226D01*
X012807Y012385D02*
X012857Y012385D01*
X012427Y012702D02*
X012347Y012702D01*
X012347Y012860D02*
X012427Y012860D01*
X012427Y013019D02*
X012347Y013019D01*
X008163Y015282D02*
X008163Y015282D01*
X005896Y017457D02*
X005630Y017457D01*
X005757Y017615D02*
X005777Y017615D01*
X002420Y003192D02*
X002417Y003192D01*
D11*
X002553Y018330D02*
X002846Y018330D01*
X002700Y018330D02*
X002700Y018771D01*
X002846Y018624D01*
X003003Y018404D02*
X003003Y018330D01*
X003077Y018330D01*
X003077Y018404D01*
X003003Y018404D01*
X003243Y018404D02*
X003317Y018330D01*
X003464Y018330D01*
X003537Y018404D01*
X003243Y018697D01*
X003243Y018404D01*
X003243Y018697D02*
X003317Y018771D01*
X003464Y018771D01*
X003537Y018697D01*
X003537Y018404D01*
X003704Y018624D02*
X003851Y018330D01*
X003997Y018624D01*
X003924Y019080D02*
X003851Y019080D01*
X003777Y019154D01*
X003777Y019521D01*
X003704Y019521D02*
X003851Y019521D01*
X003537Y019521D02*
X003537Y019080D01*
X003537Y019227D02*
X003243Y019521D01*
X003077Y019521D02*
X003077Y019080D01*
X002930Y019227D01*
X002783Y019080D01*
X002783Y019521D01*
X003243Y019080D02*
X003464Y019301D01*
X003924Y019080D02*
X003997Y019154D01*
D12*
X002628Y000735D03*
X016628Y000735D03*
D13*
X017628Y000735D03*
X017628Y001735D03*
X017628Y002735D03*
X017628Y003735D03*
X017628Y004735D03*
X017628Y005735D03*
X017628Y006735D03*
X017628Y007735D03*
X017628Y008735D03*
X017628Y009735D03*
X017628Y010735D03*
X017628Y011735D03*
X017628Y012735D03*
X017628Y013735D03*
X017628Y014735D03*
X017628Y015735D03*
X017628Y016735D03*
X017628Y017735D03*
X016628Y017735D03*
X016628Y016735D03*
X016628Y015735D03*
X016628Y014735D03*
X016628Y013735D03*
X016628Y012735D03*
X016628Y011735D03*
X016628Y010735D03*
X016628Y009735D03*
X016628Y008735D03*
X016628Y007735D03*
X016628Y006735D03*
X016628Y005735D03*
X016628Y004735D03*
X016628Y003735D03*
X016628Y002735D03*
X016628Y001735D03*
X003628Y001735D03*
X003628Y000735D03*
X002628Y001735D03*
X002628Y002735D03*
X003628Y002735D03*
X003628Y003735D03*
X003628Y004735D03*
X003628Y005735D03*
X003628Y006735D03*
X003628Y007735D03*
X003628Y008735D03*
X003628Y009735D03*
X003628Y010735D03*
X003628Y011735D03*
X003628Y012735D03*
X003628Y013735D03*
X003628Y014735D03*
X003628Y015735D03*
X003628Y016735D03*
X003628Y017735D03*
X002628Y017735D03*
X002628Y016735D03*
X002628Y015735D03*
X002628Y014735D03*
X002628Y013735D03*
X002628Y012735D03*
X002628Y011735D03*
X002628Y010735D03*
X002628Y009735D03*
X002628Y008735D03*
X002628Y007735D03*
X002628Y006735D03*
X002628Y005735D03*
X002628Y004735D03*
X002628Y003735D03*
D14*
X005600Y001361D03*
X007569Y001361D03*
X009537Y001361D03*
X012608Y018566D03*
X014577Y018566D03*
D15*
X010673Y018811D02*
X010673Y019283D01*
X005473Y019283D02*
X005473Y018811D01*
X005473Y011983D02*
X005473Y011511D01*
X010673Y011511D02*
X010673Y011983D01*
D16*
X012258Y015816D02*
X012258Y016356D01*
X013258Y016356D02*
X013258Y015816D01*
X014258Y015816D02*
X014258Y016356D01*
D17*
X007836Y010176D03*
X005474Y009389D03*
X005474Y004664D03*
X010199Y004664D03*
X010199Y009389D03*
D18*
X012387Y012543D03*
X013297Y012543D03*
X014207Y012543D03*
D19*
X013297Y014983D03*
D20*
X011277Y014782D03*
X011277Y015782D03*
X010277Y015782D03*
X010277Y014782D03*
X009277Y014782D03*
X009277Y015782D03*
X009277Y016782D03*
X009277Y017782D03*
X010277Y017782D03*
X010277Y016782D03*
X011277Y016782D03*
X011277Y017782D03*
X008277Y017782D03*
X007277Y017782D03*
X006277Y017782D03*
X005277Y017782D03*
X005277Y016782D03*
X005277Y015782D03*
X005277Y014782D03*
X005277Y013782D03*
X005277Y012782D03*
X006277Y012782D03*
X006277Y013782D03*
X006277Y014782D03*
X006277Y015782D03*
X006277Y016782D03*
X007277Y016782D03*
X007277Y015782D03*
X007277Y014782D03*
X007277Y013782D03*
X007277Y012782D03*
X008277Y012782D03*
X008277Y013782D03*
X008277Y014782D03*
X008277Y015782D03*
X008277Y016782D03*
X009277Y013782D03*
X009277Y012782D03*
X010277Y012782D03*
X010277Y013782D03*
X011277Y013782D03*
X011277Y012782D03*
X011277Y009782D03*
X011277Y008782D03*
X011277Y007782D03*
X011277Y006782D03*
X010277Y006782D03*
X009277Y006782D03*
X009277Y005782D03*
X010277Y005782D03*
X011277Y005782D03*
X011277Y004782D03*
X011277Y003782D03*
X011277Y002782D03*
X011277Y001782D03*
X011277Y000782D03*
X012277Y000782D03*
X012277Y001782D03*
X012277Y002782D03*
X012277Y003782D03*
X012277Y004782D03*
X012277Y005782D03*
X012277Y006782D03*
X012277Y007782D03*
X012277Y008782D03*
X012277Y009782D03*
X013277Y009782D03*
X013277Y008782D03*
X013277Y007782D03*
X013277Y006782D03*
X013277Y005782D03*
X013277Y004782D03*
X013277Y003782D03*
X013277Y002782D03*
X013277Y001782D03*
X013277Y000782D03*
X014277Y000782D03*
X014277Y001782D03*
X014277Y002782D03*
X014277Y003782D03*
X014277Y004782D03*
X014277Y005782D03*
X014277Y006782D03*
X014277Y007782D03*
X014277Y008782D03*
X014277Y009782D03*
X015277Y009782D03*
X015277Y008782D03*
X015277Y007782D03*
X015277Y006782D03*
X015277Y005782D03*
X015277Y004782D03*
X015277Y003782D03*
X015277Y002782D03*
X015277Y001782D03*
X015277Y000782D03*
X008277Y003782D03*
X007277Y003782D03*
X007277Y004782D03*
X006277Y004782D03*
X006277Y005782D03*
X005277Y005782D03*
X005277Y006782D03*
X006277Y006782D03*
X007277Y006782D03*
X007277Y005782D03*
X008277Y005782D03*
X008277Y004782D03*
X008277Y006782D03*
X008277Y007782D03*
X007277Y007782D03*
X007277Y008782D03*
X006277Y008782D03*
X008277Y008782D03*
D21*
X006277Y007782D03*
X006277Y003782D03*
D22*
X009065Y007692D03*
X009065Y008192D03*
X009065Y008692D03*
X010325Y008692D03*
X010325Y008192D03*
X010325Y007692D03*
D23*
X006289Y009649D03*
X006289Y010397D03*
D24*
X012372Y011125D03*
X014104Y011125D03*
D25*
X015064Y011046D02*
X015664Y011046D01*
X015664Y012046D02*
X015064Y012046D01*
X015064Y013046D02*
X015664Y013046D01*
X015664Y014046D02*
X015064Y014046D01*
X015064Y015046D02*
X015664Y015046D01*
X015664Y016046D02*
X015064Y016046D01*
X009277Y018482D02*
X009277Y019082D01*
X008277Y019082D02*
X008277Y018482D01*
X007277Y018482D02*
X007277Y019082D01*
X007277Y012082D02*
X007277Y011482D01*
X008277Y011482D02*
X008277Y012082D01*
X009277Y012082D02*
X009277Y011482D01*
D26*
X017037Y018357D03*
X017037Y019334D03*
D27*
X017035Y019361D03*
X016917Y018873D03*
X017039Y018361D03*
D28*
X017037Y018365D03*
X017037Y019381D03*
X017037Y019633D03*
D29*
X017037Y019629D03*
X017037Y019397D03*
X017037Y018369D03*
D30*
X017037Y018373D03*
X017037Y019408D03*
X017037Y019625D03*
D31*
X017037Y019621D03*
X016915Y018826D03*
X017037Y018377D03*
D32*
X017037Y018381D03*
X017037Y019428D03*
D33*
X017035Y019436D03*
X017039Y018385D03*
D34*
X017037Y018389D03*
D35*
X017039Y018393D03*
X017035Y019609D03*
D36*
X017037Y018397D03*
D37*
X017037Y018400D03*
X016974Y019550D03*
D38*
X016970Y019558D03*
X016970Y019562D03*
X016978Y019570D03*
X017037Y019471D03*
X017037Y018404D03*
D39*
X017039Y018408D03*
X017035Y019479D03*
D40*
X017035Y019483D03*
X017035Y019597D03*
X017039Y018412D03*
D41*
X017037Y018416D03*
X017037Y019487D03*
D42*
X017037Y018420D03*
D43*
X017037Y018424D03*
D44*
X017037Y018428D03*
X017037Y019503D03*
X017037Y019589D03*
D45*
X017035Y019507D03*
X017039Y018432D03*
D46*
X017039Y018436D03*
X017035Y019511D03*
D47*
X017037Y018440D03*
D48*
X017039Y018444D03*
X017035Y019515D03*
D49*
X017039Y018448D03*
D50*
X017037Y018452D03*
D51*
X017039Y018456D03*
D52*
X017039Y018460D03*
D53*
X017037Y018463D03*
D54*
X017039Y018467D03*
X017035Y019538D03*
D55*
X017037Y018471D03*
D56*
X017039Y018475D03*
D57*
X017037Y018479D03*
D58*
X017039Y018483D03*
D59*
X017037Y018487D03*
D60*
X017039Y018491D03*
D61*
X017037Y018495D03*
D62*
X017039Y018499D03*
X017039Y018503D03*
D63*
X017037Y018507D03*
D64*
X017039Y018511D03*
D65*
X017037Y018515D03*
D66*
X017039Y018519D03*
X017039Y018523D03*
D67*
X017037Y018526D03*
D68*
X017039Y018530D03*
D69*
X017037Y018534D03*
X017037Y018538D03*
D70*
X017039Y018542D03*
D71*
X017037Y018546D03*
X017037Y018550D03*
X017037Y018818D03*
D72*
X017035Y018814D03*
X017039Y018558D03*
X017039Y018554D03*
D73*
X017037Y018562D03*
X017037Y018806D03*
X017037Y018810D03*
D74*
X017035Y018802D03*
X017035Y018798D03*
X017039Y018570D03*
X017039Y018566D03*
D75*
X017037Y018574D03*
X017037Y018578D03*
X017037Y018786D03*
X017037Y018790D03*
X017037Y018794D03*
D76*
X017039Y018586D03*
X017039Y018582D03*
D77*
X017037Y018589D03*
D78*
X017039Y018593D03*
X017039Y018597D03*
X017039Y018601D03*
D79*
X017037Y018605D03*
X017037Y018609D03*
D80*
X017039Y018613D03*
X017039Y018617D03*
D81*
X017037Y018621D03*
X017037Y018625D03*
D82*
X017039Y018629D03*
X017039Y018633D03*
D83*
X017037Y018637D03*
X017037Y018641D03*
D84*
X017037Y018645D03*
D85*
X017035Y018649D03*
D86*
X017035Y018652D03*
D87*
X017035Y018656D03*
D88*
X017035Y018660D03*
X017035Y018739D03*
D89*
X017035Y018735D03*
X017035Y018731D03*
X017035Y018668D03*
X017035Y018664D03*
D90*
X017037Y018672D03*
X017037Y018727D03*
D91*
X017035Y018723D03*
X017035Y018719D03*
X017035Y018715D03*
X017035Y018711D03*
X017035Y018708D03*
X017035Y018704D03*
X017035Y018700D03*
X017035Y018696D03*
X017035Y018692D03*
X017035Y018688D03*
X017035Y018684D03*
X017035Y018680D03*
X017035Y018676D03*
D92*
X017037Y018743D03*
D93*
X017037Y018747D03*
D94*
X017035Y018751D03*
D95*
X017035Y018755D03*
D96*
X017258Y018900D03*
X017270Y018893D03*
X017273Y018889D03*
X017317Y018822D03*
X017037Y019204D03*
X016809Y019586D03*
D97*
X017037Y019424D03*
X016919Y018822D03*
D98*
X017234Y018912D03*
X017285Y018881D03*
X017289Y018877D03*
X017293Y018873D03*
X017297Y018869D03*
X017301Y018861D03*
X017305Y018857D03*
X017309Y018849D03*
X017313Y018841D03*
X017317Y018834D03*
X017317Y018830D03*
X017317Y018826D03*
X017037Y019200D03*
X017037Y019672D03*
D99*
X017035Y019416D03*
X016917Y018830D03*
D100*
X016915Y018834D03*
X017037Y019412D03*
D101*
X017299Y018865D03*
X017307Y018853D03*
X017311Y018845D03*
X017315Y018837D03*
D102*
X016917Y018837D03*
D103*
X016917Y018841D03*
X016917Y018845D03*
X017035Y019404D03*
D104*
X017035Y019400D03*
X016917Y018849D03*
D105*
X016917Y018853D03*
D106*
X016915Y018857D03*
X017037Y019385D03*
D107*
X017035Y019377D03*
X016913Y018861D03*
D108*
X016915Y018865D03*
D109*
X016915Y018869D03*
X017037Y019369D03*
X017037Y019637D03*
D110*
X017157Y019586D03*
X017161Y019582D03*
X016917Y018877D03*
D111*
X016953Y018881D03*
X017035Y019298D03*
D112*
X017037Y019078D03*
X016915Y018971D03*
X016726Y018881D03*
D113*
X017244Y018908D03*
X017252Y018904D03*
X017264Y018897D03*
X017279Y018885D03*
D114*
X016951Y018885D03*
X017037Y019656D03*
D115*
X016951Y018889D03*
D116*
X016947Y018893D03*
D117*
X016945Y018897D03*
D118*
X016943Y018900D03*
D119*
X016939Y018904D03*
D120*
X016941Y018908D03*
X016949Y018916D03*
D121*
X016943Y018912D03*
D122*
X016921Y018960D03*
X017299Y018916D03*
D123*
X017179Y018916D03*
X017037Y019137D03*
X016935Y019274D03*
D124*
X017037Y019349D03*
X017022Y018924D03*
X017022Y018920D03*
D125*
X017022Y018928D03*
D126*
X017023Y018932D03*
X017035Y019341D03*
D127*
X017059Y018936D03*
D128*
X017043Y018979D03*
X016917Y018967D03*
X016838Y018936D03*
D129*
X017059Y018940D03*
X017059Y018944D03*
D130*
X017039Y019070D03*
X016913Y018975D03*
X016835Y018940D03*
D131*
X017059Y018948D03*
X017059Y018952D03*
D132*
X017059Y018956D03*
D133*
X017197Y018960D03*
D134*
X017053Y018960D03*
X017037Y019168D03*
X017124Y019286D03*
X017037Y019676D03*
D135*
X017037Y019074D03*
X017203Y018963D03*
D136*
X017053Y018963D03*
X017037Y019156D03*
X017108Y019255D03*
X017116Y019263D03*
X017120Y019271D03*
X016825Y019444D03*
X016821Y019448D03*
X016817Y019452D03*
X016817Y019456D03*
D137*
X017037Y019086D03*
X017037Y019082D03*
X016919Y018963D03*
D138*
X017051Y018967D03*
X016933Y019282D03*
X016933Y019286D03*
D139*
X017047Y018971D03*
D140*
X017045Y018975D03*
X017037Y019109D03*
D141*
X016913Y018979D03*
D142*
X016911Y018983D03*
X017037Y019062D03*
D143*
X016909Y018987D03*
D144*
X017037Y019050D03*
D145*
X017037Y019054D03*
X017037Y019058D03*
D146*
X017037Y019066D03*
D147*
X017037Y019089D03*
D148*
X017037Y019093D03*
D149*
X017037Y019097D03*
X017037Y019101D03*
D150*
X017037Y019105D03*
D151*
X017037Y019113D03*
X017037Y019117D03*
X017364Y019558D03*
D152*
X017037Y019680D03*
X017037Y019121D03*
D153*
X017037Y019125D03*
D154*
X017037Y019129D03*
X017037Y019133D03*
X016943Y019259D03*
D155*
X017037Y019141D03*
D156*
X017037Y019145D03*
X017037Y019149D03*
D157*
X017037Y019152D03*
X016935Y019290D03*
D158*
X017035Y019160D03*
X017122Y019274D03*
X016815Y019460D03*
D159*
X017124Y019278D03*
X017037Y019164D03*
D160*
X017037Y019172D03*
D161*
X017035Y019176D03*
X017122Y019290D03*
D162*
X017037Y019180D03*
D163*
X017037Y019184D03*
D164*
X017037Y019188D03*
D165*
X017035Y019192D03*
D166*
X017037Y019196D03*
D167*
X017035Y019208D03*
X016803Y019582D03*
D168*
X017037Y019211D03*
X017266Y019523D03*
X017270Y019526D03*
D169*
X017037Y019215D03*
D170*
X017037Y019219D03*
X017037Y019223D03*
X016797Y019574D03*
D171*
X017037Y019668D03*
X017037Y019227D03*
D172*
X017037Y019231D03*
D173*
X017037Y019235D03*
X017037Y019239D03*
D174*
X017037Y019243D03*
D175*
X017037Y019247D03*
X017037Y019664D03*
D176*
X017035Y019251D03*
D177*
X016949Y019255D03*
X016941Y019263D03*
X016937Y019267D03*
X016937Y019271D03*
D178*
X017114Y019259D03*
X017118Y019267D03*
D179*
X016933Y019278D03*
D180*
X017122Y019282D03*
X016815Y019463D03*
D181*
X017037Y019294D03*
D182*
X017037Y019302D03*
D183*
X017037Y019306D03*
X017037Y019652D03*
D184*
X017037Y019310D03*
D185*
X017035Y019314D03*
D186*
X017037Y019318D03*
D187*
X017037Y019322D03*
X017128Y019448D03*
X017132Y019452D03*
X017037Y019649D03*
D188*
X017134Y019456D03*
X017126Y019444D03*
X017035Y019326D03*
D189*
X017035Y019330D03*
X017134Y019463D03*
D190*
X017037Y019337D03*
X017037Y019645D03*
D191*
X017035Y019345D03*
D192*
X017037Y019353D03*
X016911Y019523D03*
X016907Y019526D03*
X017037Y019641D03*
D193*
X017165Y019578D03*
X017035Y019357D03*
X016905Y019530D03*
D194*
X017037Y019365D03*
X017167Y019574D03*
D195*
X017035Y019373D03*
D196*
X017035Y019389D03*
D197*
X017037Y019393D03*
D198*
X017035Y019420D03*
D199*
X017035Y019432D03*
X017035Y019617D03*
D200*
X017037Y019440D03*
D201*
X017136Y019460D03*
D202*
X017134Y019467D03*
D203*
X016815Y019467D03*
D204*
X017037Y019475D03*
D205*
X017035Y019491D03*
D206*
X017035Y019495D03*
X017035Y019593D03*
D207*
X017035Y019499D03*
D208*
X017037Y019519D03*
D209*
X017272Y019530D03*
X016799Y019578D03*
D210*
X017272Y019534D03*
D211*
X016907Y019534D03*
D212*
X017354Y019542D03*
X017358Y019546D03*
X017362Y019550D03*
X017362Y019554D03*
D213*
X016980Y019542D03*
X016976Y019546D03*
X016972Y019554D03*
D214*
X017358Y019570D03*
X017362Y019566D03*
X017366Y019562D03*
D215*
X017035Y019601D03*
X016972Y019566D03*
D216*
X017035Y019605D03*
D217*
X017035Y019613D03*
D218*
X017037Y019660D03*
D219*
X012854Y014324D03*
X010817Y013330D03*
X010199Y010928D03*
X011801Y010278D03*
X012805Y009274D03*
X013789Y010121D03*
X014773Y012542D03*
X013789Y007306D03*
X011781Y005515D03*
X013770Y002286D03*
X016289Y005259D03*
X017411Y006243D03*
X017136Y001007D03*
X006722Y010574D03*
X005679Y010889D03*
X004104Y014255D03*
X004281Y016282D03*
X007785Y015357D03*
X004419Y005239D03*
D220*
X011691Y005424D02*
X011691Y002337D01*
X012246Y001782D01*
X012277Y001782D01*
X012277Y002782D02*
X011860Y003200D01*
X011860Y004365D01*
X012277Y004782D01*
X012726Y004172D02*
X012336Y003782D01*
X012277Y003782D01*
X012726Y004172D02*
X012726Y005574D01*
X012518Y005782D01*
X012277Y005782D01*
X012459Y005782D01*
X011781Y005515D02*
X011691Y005424D01*
X012844Y003999D02*
X012844Y003215D01*
X013277Y002782D01*
X013770Y003274D02*
X013770Y002286D01*
X013770Y003274D02*
X014277Y003782D01*
X013770Y004274D02*
X013277Y003782D01*
X012844Y003999D02*
X013277Y004432D01*
X013277Y004782D01*
X013770Y005290D02*
X013770Y004274D01*
X014277Y004782D02*
X014277Y005782D01*
X013770Y005290D02*
X013277Y005782D01*
X017057Y005164D02*
X017057Y001086D01*
X017136Y001007D01*
X017057Y005164D02*
X017628Y005735D01*
X017411Y006243D02*
X017234Y006420D01*
X017234Y008341D01*
X017628Y008735D01*
D221*
X011277Y012782D02*
X011277Y013782D01*
X011277Y014782D01*
X011277Y015782D01*
X011277Y016782D01*
X011277Y017782D01*
X010277Y017782D02*
X010277Y016782D01*
X010277Y015782D01*
X009277Y015782D02*
X009277Y016782D01*
X009277Y017782D01*
X008277Y017782D02*
X008277Y016782D01*
X008277Y015782D01*
X007277Y015782D02*
X007277Y016782D01*
X007277Y017782D01*
X006277Y017782D02*
X006277Y016782D01*
X006277Y015782D01*
X011277Y013782D02*
X011277Y013633D01*
D222*
X007836Y010176D02*
X007561Y010176D01*
X007277Y009893D01*
X007277Y008782D01*
X007277Y007782D01*
X007277Y006782D01*
X007277Y005782D01*
X007277Y004782D01*
X007277Y003782D01*
X007277Y001652D01*
X007569Y001361D01*
X009537Y001361D02*
X009537Y004278D01*
X009923Y004664D01*
X010199Y004664D01*
X006277Y004782D02*
X005592Y004782D01*
X005474Y004664D02*
X005199Y004389D01*
X005199Y001763D01*
X005600Y001361D01*
M02*
