%
M48
M72
T01C0.0236
T02C0.0315
T03C0.0354
T04C0.0360
T05C0.0400
T06C0.0520
%
T01
X4419Y5239
X6722Y10574
X5679Y10889
X4104Y14255
X4281Y16282
X7785Y15357
X10817Y13330
X12854Y14324
X14773Y12542
X13789Y10121
X12805Y9274
X11801Y10278
X10199Y10928
X13789Y7306
X11781Y5515
X13770Y2286
X16289Y5259
X17411Y6243
X17136Y1007
T02
X10673Y11747
X5473Y11747
X5473Y19047
X10673Y19047
T03
X7836Y10176
X5474Y9389
X5474Y4664
X10199Y4664
X10199Y9389
T04
X2628Y735
X3628Y735
X3628Y1735
X3628Y2735
X3628Y3735
X3628Y4735
X3628Y5735
X3628Y6735
X3628Y7735
X3628Y8735
X3628Y9735
X3628Y10735
X3628Y11735
X3628Y12735
X3628Y13735
X3628Y14735
X3628Y15735
X3628Y16735
X3628Y17735
X2628Y17735
X2628Y16735
X2628Y15735
X2628Y14735
X2628Y13735
X2628Y12735
X2628Y11735
X2628Y10735
X2628Y9735
X2628Y8735
X2628Y7735
X2628Y6735
X2628Y5735
X2628Y4735
X2628Y3735
X2628Y2735
X2628Y1735
X12258Y16086
X13258Y16086
X14258Y16086
X16628Y15735
X17628Y15735
X17628Y14735
X17628Y13735
X17628Y12735
X17628Y11735
X17628Y10735
X17628Y9735
X17628Y8735
X17628Y7735
X17628Y6735
X17628Y5735
X17628Y4735
X17628Y3735
X17628Y2735
X17628Y1735
X17628Y735
X16628Y735
X16628Y1735
X16628Y2735
X16628Y3735
X16628Y4735
X16628Y5735
X16628Y6735
X16628Y7735
X16628Y8735
X16628Y9735
X16628Y10735
X16628Y11735
X16628Y12735
X16628Y13735
X16628Y14735
X16628Y16735
X17628Y16735
X17628Y17735
X16628Y17735
T05
X15364Y16046
X15364Y15046
X15364Y14046
X15364Y13046
X15364Y12046
X15364Y11046
X15277Y9782
X14277Y9782
X14277Y8782
X14277Y7782
X14277Y6782
X14277Y5782
X14277Y4782
X14277Y3782
X14277Y2782
X14277Y1782
X14277Y782
X15277Y782
X15277Y1782
X15277Y2782
X15277Y3782
X15277Y4782
X15277Y5782
X15277Y6782
X15277Y7782
X15277Y8782
X13277Y8782
X12277Y8782
X11277Y8782
X11277Y7782
X11277Y6782
X10277Y6782
X9277Y6782
X9277Y5782
X10277Y5782
X11277Y5782
X11277Y4782
X11277Y3782
X11277Y2782
X11277Y1782
X11277Y782
X12277Y782
X12277Y1782
X12277Y2782
X12277Y3782
X12277Y4782
X12277Y5782
X12277Y6782
X12277Y7782
X13277Y7782
X13277Y6782
X13277Y5782
X13277Y4782
X13277Y3782
X13277Y2782
X13277Y1782
X13277Y782
X8277Y3782
X7277Y3782
X6277Y3782
X6277Y4782
X6277Y5782
X5277Y5782
X5277Y6782
X6277Y6782
X6277Y7782
X6277Y8782
X7277Y8782
X7277Y7782
X7277Y6782
X7277Y5782
X7277Y4782
X8277Y4782
X8277Y5782
X8277Y6782
X8277Y7782
X8277Y8782
X8277Y11782
X7277Y11782
X7277Y12782
X6277Y12782
X5277Y12782
X5277Y13782
X5277Y14782
X5277Y15782
X5277Y16782
X5277Y17782
X6277Y17782
X6277Y16782
X6277Y15782
X6277Y14782
X6277Y13782
X7277Y13782
X7277Y14782
X7277Y15782
X7277Y16782
X7277Y17782
X7277Y18782
X8277Y18782
X8277Y17782
X8277Y16782
X8277Y15782
X8277Y14782
X8277Y13782
X8277Y12782
X9277Y12782
X9277Y11782
X10277Y12782
X10277Y13782
X9277Y13782
X9277Y14782
X9277Y15782
X9277Y16782
X9277Y17782
X9277Y18782
X10277Y17782
X10277Y16782
X10277Y15782
X10277Y14782
X11277Y14782
X11277Y15782
X11277Y16782
X11277Y17782
X11277Y13782
X11277Y12782
X11277Y9782
X12277Y9782
X13277Y9782
T06
X9537Y1361
X7569Y1361
X5600Y1361
X12608Y18566
X14577Y18566
M30
