G75*
%MOIN*%
%OFA0B0*%
%FSLAX24Y24*%
%IPPOS*%
%LPD*%
%AMOC8*
5,1,8,0,0,1.08239X$1,22.5*
%
%ADD10C,0.0160*%
%ADD11C,0.0060*%
%ADD12C,0.0540*%
%ADD13OC8,0.0540*%
%ADD14OC8,0.1250*%
%ADD15C,0.0472*%
%ADD16R,0.0472X0.0472*%
%ADD17R,0.0512X0.0591*%
%ADD18C,0.0540*%
%ADD19C,0.0531*%
%ADD20R,0.0551X0.0394*%
%ADD21OC8,0.0600*%
%ADD22C,0.0600*%
%ADD23C,0.0600*%
%ADD24R,0.0421X0.0004*%
%ADD25R,0.0465X0.0004*%
%ADD26R,0.0492X0.0004*%
%ADD27R,0.0516X0.0004*%
%ADD28R,0.0531X0.0004*%
%ADD29R,0.0547X0.0004*%
%ADD30R,0.0563X0.0004*%
%ADD31R,0.0575X0.0004*%
%ADD32R,0.0587X0.0004*%
%ADD33R,0.0598X0.0004*%
%ADD34R,0.0610X0.0004*%
%ADD35R,0.0618X0.0004*%
%ADD36R,0.0626X0.0004*%
%ADD37R,0.0638X0.0004*%
%ADD38R,0.0646X0.0004*%
%ADD39R,0.0650X0.0004*%
%ADD40R,0.0657X0.0004*%
%ADD41R,0.0665X0.0004*%
%ADD42R,0.0673X0.0004*%
%ADD43R,0.0677X0.0004*%
%ADD44R,0.0685X0.0004*%
%ADD45R,0.0689X0.0004*%
%ADD46R,0.0693X0.0004*%
%ADD47R,0.0701X0.0004*%
%ADD48R,0.0705X0.0004*%
%ADD49R,0.0709X0.0004*%
%ADD50R,0.0717X0.0004*%
%ADD51R,0.0720X0.0004*%
%ADD52R,0.0724X0.0004*%
%ADD53R,0.0728X0.0004*%
%ADD54R,0.0732X0.0004*%
%ADD55R,0.0736X0.0004*%
%ADD56R,0.0740X0.0004*%
%ADD57R,0.0744X0.0004*%
%ADD58R,0.0748X0.0004*%
%ADD59R,0.0752X0.0004*%
%ADD60R,0.0756X0.0004*%
%ADD61R,0.0760X0.0004*%
%ADD62R,0.0764X0.0004*%
%ADD63R,0.0768X0.0004*%
%ADD64R,0.0772X0.0004*%
%ADD65R,0.0776X0.0004*%
%ADD66R,0.0780X0.0004*%
%ADD67R,0.0783X0.0004*%
%ADD68R,0.0787X0.0004*%
%ADD69R,0.0791X0.0004*%
%ADD70R,0.0795X0.0004*%
%ADD71R,0.0799X0.0004*%
%ADD72R,0.0803X0.0004*%
%ADD73R,0.0807X0.0004*%
%ADD74R,0.0811X0.0004*%
%ADD75R,0.0815X0.0004*%
%ADD76R,0.0819X0.0004*%
%ADD77R,0.0823X0.0004*%
%ADD78R,0.0827X0.0004*%
%ADD79R,0.0831X0.0004*%
%ADD80R,0.0835X0.0004*%
%ADD81R,0.0839X0.0004*%
%ADD82R,0.0909X0.0004*%
%ADD83R,0.0937X0.0004*%
%ADD84R,0.0953X0.0004*%
%ADD85R,0.0961X0.0004*%
%ADD86R,0.0969X0.0004*%
%ADD87R,0.0976X0.0004*%
%ADD88R,0.0980X0.0004*%
%ADD89R,0.0984X0.0004*%
%ADD90R,0.0965X0.0004*%
%ADD91R,0.0957X0.0004*%
%ADD92R,0.0945X0.0004*%
%ADD93R,0.0921X0.0004*%
%ADD94R,0.0232X0.0004*%
%ADD95R,0.0555X0.0004*%
%ADD96R,0.0224X0.0004*%
%ADD97R,0.0543X0.0004*%
%ADD98R,0.0539X0.0004*%
%ADD99R,0.0220X0.0004*%
%ADD100R,0.0535X0.0004*%
%ADD101R,0.0528X0.0004*%
%ADD102R,0.0520X0.0004*%
%ADD103R,0.0512X0.0004*%
%ADD104R,0.0500X0.0004*%
%ADD105R,0.0488X0.0004*%
%ADD106R,0.0484X0.0004*%
%ADD107R,0.0476X0.0004*%
%ADD108R,0.0449X0.0004*%
%ADD109R,0.0370X0.0004*%
%ADD110R,0.0043X0.0004*%
%ADD111R,0.0228X0.0004*%
%ADD112R,0.0358X0.0004*%
%ADD113R,0.0350X0.0004*%
%ADD114R,0.0343X0.0004*%
%ADD115R,0.0331X0.0004*%
%ADD116R,0.0319X0.0004*%
%ADD117R,0.0311X0.0004*%
%ADD118R,0.0307X0.0004*%
%ADD119R,0.0303X0.0004*%
%ADD120R,0.0063X0.0004*%
%ADD121R,0.0130X0.0004*%
%ADD122R,0.0445X0.0004*%
%ADD123R,0.0437X0.0004*%
%ADD124R,0.0433X0.0004*%
%ADD125R,0.0362X0.0004*%
%ADD126R,0.0047X0.0004*%
%ADD127R,0.0354X0.0004*%
%ADD128R,0.0031X0.0004*%
%ADD129R,0.0346X0.0004*%
%ADD130R,0.0339X0.0004*%
%ADD131R,0.0055X0.0004*%
%ADD132R,0.0177X0.0004*%
%ADD133R,0.0035X0.0004*%
%ADD134R,0.0161X0.0004*%
%ADD135R,0.0051X0.0004*%
%ADD136R,0.0142X0.0004*%
%ADD137R,0.0118X0.0004*%
%ADD138R,0.0091X0.0004*%
%ADD139R,0.0024X0.0004*%
%ADD140R,0.0020X0.0004*%
%ADD141R,0.0008X0.0004*%
%ADD142R,0.0004X0.0004*%
%ADD143R,0.0012X0.0004*%
%ADD144R,0.0028X0.0004*%
%ADD145R,0.0059X0.0004*%
%ADD146R,0.0067X0.0004*%
%ADD147R,0.0075X0.0004*%
%ADD148R,0.0083X0.0004*%
%ADD149R,0.0098X0.0004*%
%ADD150R,0.0106X0.0004*%
%ADD151R,0.0114X0.0004*%
%ADD152R,0.0122X0.0004*%
%ADD153R,0.0138X0.0004*%
%ADD154R,0.0146X0.0004*%
%ADD155R,0.0154X0.0004*%
%ADD156R,0.0165X0.0004*%
%ADD157R,0.0169X0.0004*%
%ADD158R,0.0185X0.0004*%
%ADD159R,0.0189X0.0004*%
%ADD160R,0.0193X0.0004*%
%ADD161R,0.0201X0.0004*%
%ADD162R,0.0209X0.0004*%
%ADD163R,0.0213X0.0004*%
%ADD164R,0.0217X0.0004*%
%ADD165R,0.0236X0.0004*%
%ADD166R,0.0240X0.0004*%
%ADD167R,0.0248X0.0004*%
%ADD168R,0.0256X0.0004*%
%ADD169R,0.0264X0.0004*%
%ADD170R,0.0272X0.0004*%
%ADD171R,0.0280X0.0004*%
%ADD172R,0.0287X0.0004*%
%ADD173R,0.0295X0.0004*%
%ADD174R,0.0299X0.0004*%
%ADD175R,0.0126X0.0004*%
%ADD176R,0.0157X0.0004*%
%ADD177R,0.0134X0.0004*%
%ADD178R,0.0173X0.0004*%
%ADD179R,0.0366X0.0004*%
%ADD180R,0.0374X0.0004*%
%ADD181R,0.0382X0.0004*%
%ADD182R,0.0390X0.0004*%
%ADD183R,0.0394X0.0004*%
%ADD184R,0.0398X0.0004*%
%ADD185R,0.0406X0.0004*%
%ADD186R,0.0409X0.0004*%
%ADD187R,0.0417X0.0004*%
%ADD188R,0.0429X0.0004*%
%ADD189R,0.0441X0.0004*%
%ADD190R,0.0453X0.0004*%
%ADD191R,0.0457X0.0004*%
%ADD192R,0.0469X0.0004*%
%ADD193R,0.0480X0.0004*%
%ADD194R,0.0504X0.0004*%
%ADD195R,0.0508X0.0004*%
%ADD196R,0.0551X0.0004*%
%ADD197R,0.0567X0.0004*%
%ADD198R,0.0579X0.0004*%
%ADD199R,0.0413X0.0004*%
%ADD200R,0.0425X0.0004*%
%ADD201R,0.0181X0.0004*%
%ADD202R,0.0634X0.0004*%
%ADD203R,0.0654X0.0004*%
%ADD204R,0.0661X0.0004*%
%ADD205R,0.0669X0.0004*%
%ADD206R,0.0697X0.0004*%
%ADD207R,0.0244X0.0004*%
%ADD208R,0.0252X0.0004*%
%ADD209R,0.0461X0.0004*%
%ADD210R,0.0094X0.0004*%
%ADD211R,0.0622X0.0004*%
%ADD212R,0.0102X0.0004*%
%ADD213R,0.0630X0.0004*%
%ADD214R,0.0614X0.0004*%
%ADD215R,0.0583X0.0004*%
%ADD216R,0.0327X0.0004*%
%ADD217C,0.0356*%
%ADD218C,0.0100*%
%ADD219C,0.0120*%
%ADD220C,0.0240*%
%ADD221C,0.0660*%
D10*
X002057Y000180D02*
X018199Y000180D01*
X018199Y019865D01*
X002057Y019865D01*
X002057Y000180D01*
X002417Y001156D02*
X002417Y001281D01*
X002433Y001265D01*
X002823Y001265D01*
X003098Y001540D01*
X003098Y001930D01*
X002823Y002205D01*
X002433Y002205D01*
X002417Y002189D01*
X002417Y002281D01*
X002433Y002265D01*
X002823Y002265D01*
X003098Y002540D01*
X003098Y002809D01*
X003158Y002869D01*
X003158Y002540D01*
X003433Y002265D01*
X003823Y002265D01*
X004012Y002455D01*
X007286Y002455D01*
X007389Y002498D01*
X008173Y003282D01*
X008485Y003282D01*
X008777Y003575D01*
X008777Y003989D01*
X008515Y004252D01*
X009861Y004252D01*
X009898Y004215D01*
X010093Y004134D01*
X010304Y004134D01*
X010499Y004215D01*
X010648Y004364D01*
X010729Y004559D01*
X010729Y004770D01*
X010648Y004964D01*
X010381Y005232D01*
X010258Y005282D01*
X010485Y005282D01*
X010777Y005575D01*
X010777Y005989D01*
X010754Y006013D01*
X010829Y006013D01*
X010797Y005981D01*
X010797Y005802D01*
X011257Y005802D01*
X011257Y005762D01*
X011297Y005762D01*
X011297Y005302D01*
X011460Y005302D01*
X011461Y005300D01*
X011567Y005194D01*
X011706Y005137D01*
X011818Y005137D01*
X011889Y005107D01*
X011895Y005107D01*
X011777Y004989D01*
X011777Y004575D01*
X012070Y004282D01*
X011777Y003989D01*
X011777Y003575D01*
X012070Y003282D01*
X011777Y002989D01*
X011777Y002575D01*
X012070Y002282D01*
X011777Y001989D01*
X011777Y001575D01*
X012070Y001282D01*
X011777Y000989D01*
X011777Y000575D01*
X011813Y000540D01*
X011714Y000540D01*
X011757Y000584D01*
X011757Y000762D01*
X011297Y000762D01*
X011297Y000802D01*
X011257Y000802D01*
X011257Y000762D01*
X010797Y000762D01*
X010797Y000584D01*
X010841Y000540D01*
X009883Y000540D01*
X010362Y001019D01*
X010362Y001703D01*
X009879Y002186D01*
X009196Y002186D01*
X008712Y001703D01*
X008712Y001019D01*
X009192Y000540D01*
X007914Y000540D01*
X008394Y001019D01*
X008394Y001703D01*
X007910Y002186D01*
X007227Y002186D01*
X006744Y001703D01*
X006744Y001019D01*
X007223Y000540D01*
X005946Y000540D01*
X006425Y001019D01*
X006425Y001703D01*
X005942Y002186D01*
X005259Y002186D01*
X004775Y001703D01*
X004775Y001019D01*
X005255Y000540D01*
X004097Y000540D01*
X004098Y000540D01*
X004098Y000930D01*
X003823Y001205D01*
X003433Y001205D01*
X003158Y000930D01*
X003158Y000540D01*
X003056Y000540D01*
X003098Y000642D01*
X003098Y000829D01*
X003026Y001001D01*
X002894Y001134D01*
X002721Y001205D01*
X002534Y001205D01*
X002417Y001156D01*
X002847Y001290D02*
X003409Y001290D01*
X003433Y001265D02*
X003823Y001265D01*
X004098Y001540D01*
X004098Y001930D01*
X003823Y002205D01*
X003433Y002205D01*
X003158Y001930D01*
X003158Y001540D01*
X003433Y001265D01*
X003359Y001131D02*
X002897Y001131D01*
X003038Y000973D02*
X003201Y000973D01*
X003158Y000814D02*
X003098Y000814D01*
X003098Y000656D02*
X003158Y000656D01*
X003158Y000540D02*
X003158Y000540D01*
X003897Y001131D02*
X004775Y001131D01*
X004775Y001290D02*
X003847Y001290D01*
X004005Y001448D02*
X004775Y001448D01*
X004775Y001607D02*
X004098Y001607D01*
X004098Y001765D02*
X004837Y001765D01*
X004996Y001924D02*
X004098Y001924D01*
X003946Y002082D02*
X005154Y002082D01*
X005906Y003015D02*
X006175Y003284D01*
X006178Y003282D01*
X006377Y003282D01*
X006561Y003358D01*
X006701Y003499D01*
X006777Y003683D01*
X006777Y003882D01*
X006701Y004066D01*
X006561Y004206D01*
X006377Y004282D01*
X006178Y004282D01*
X005994Y004206D01*
X005854Y004066D01*
X005777Y003882D01*
X005777Y003683D01*
X005779Y003680D01*
X005630Y003531D01*
X004088Y003531D01*
X004098Y003540D01*
X004098Y003930D01*
X003823Y004205D01*
X003433Y004205D01*
X003158Y003930D01*
X003158Y003540D01*
X003167Y003531D01*
X003088Y003531D01*
X003098Y003540D01*
X003098Y003930D01*
X002823Y004205D01*
X002433Y004205D01*
X002417Y004189D01*
X002417Y004281D01*
X002433Y004265D01*
X002823Y004265D01*
X003098Y004540D01*
X003098Y004930D01*
X002823Y005205D01*
X002433Y005205D01*
X002417Y005189D01*
X002417Y005281D01*
X002433Y005265D01*
X002823Y005265D01*
X003098Y005540D01*
X003098Y005930D01*
X002823Y006205D01*
X002433Y006205D01*
X002417Y006189D01*
X002417Y006281D01*
X002433Y006265D01*
X002823Y006265D01*
X003098Y006540D01*
X003098Y006930D01*
X002823Y007205D01*
X002433Y007205D01*
X002417Y007189D01*
X002417Y007281D01*
X002433Y007265D01*
X002823Y007265D01*
X003098Y007540D01*
X003098Y007930D01*
X002823Y008205D01*
X002433Y008205D01*
X002417Y008189D01*
X002417Y008281D01*
X002433Y008265D01*
X002823Y008265D01*
X003098Y008540D01*
X003098Y008930D01*
X002823Y009205D01*
X002433Y009205D01*
X002417Y009189D01*
X002417Y009281D01*
X002433Y009265D01*
X002823Y009265D01*
X003098Y009540D01*
X003098Y009809D01*
X003158Y009869D01*
X003158Y009540D01*
X003433Y009265D01*
X003823Y009265D01*
X004013Y009455D01*
X004306Y009455D01*
X004408Y009498D01*
X004594Y009683D01*
X005110Y009683D01*
X005079Y009652D01*
X005009Y009481D01*
X005009Y009296D01*
X005079Y009125D01*
X005142Y009062D01*
X003965Y009062D01*
X003823Y009205D01*
X003433Y009205D01*
X003158Y008930D01*
X003158Y008540D01*
X003433Y008265D01*
X003823Y008265D01*
X004060Y008502D01*
X005850Y008502D01*
X006070Y008282D01*
X006485Y008282D01*
X006777Y008575D01*
X006777Y008989D01*
X006485Y009282D01*
X006070Y009282D01*
X005850Y009062D01*
X005807Y009062D01*
X005869Y009125D01*
X005940Y009296D01*
X005940Y009481D01*
X005869Y009652D01*
X005838Y009683D01*
X005839Y009683D01*
X005993Y009529D01*
X006072Y009451D01*
X006174Y009408D01*
X007256Y009408D01*
X007381Y009282D01*
X007070Y009282D01*
X006777Y008989D01*
X006777Y008575D01*
X007070Y008282D01*
X006777Y007989D01*
X006777Y007575D01*
X006786Y007566D01*
X006729Y007566D01*
X006777Y007683D01*
X006777Y007882D01*
X006701Y008066D01*
X006561Y008206D01*
X006377Y008282D01*
X006178Y008282D01*
X005994Y008206D01*
X005854Y008066D01*
X005833Y008015D01*
X004013Y008015D01*
X003823Y008205D01*
X003433Y008205D01*
X003158Y007930D01*
X003158Y007540D01*
X003433Y007265D01*
X003762Y007265D01*
X003702Y007205D01*
X003433Y007205D01*
X003158Y006930D01*
X003158Y006540D01*
X003433Y006265D01*
X003823Y006265D01*
X004098Y006540D01*
X004098Y006809D01*
X004295Y007006D01*
X004794Y007006D01*
X004777Y006989D01*
X004777Y006575D01*
X005070Y006282D01*
X004777Y005989D01*
X004777Y005575D01*
X004834Y005519D01*
X004674Y005519D01*
X004633Y005560D01*
X004494Y005617D01*
X004344Y005617D01*
X004205Y005560D01*
X004099Y005453D01*
X004041Y005314D01*
X004041Y005164D01*
X004099Y005025D01*
X004205Y004919D01*
X004344Y004861D01*
X004494Y004861D01*
X004633Y004919D01*
X004674Y004959D01*
X005110Y004959D01*
X005079Y004928D01*
X005009Y004757D01*
X005009Y004572D01*
X005079Y004400D01*
X005210Y004269D01*
X005382Y004199D01*
X005567Y004199D01*
X005738Y004269D01*
X005869Y004400D01*
X005893Y004459D01*
X006070Y004282D01*
X006485Y004282D01*
X006777Y004575D01*
X006777Y004989D01*
X006485Y005282D01*
X006414Y005282D01*
X006485Y005282D01*
X006777Y005575D01*
X006777Y005989D01*
X006557Y006209D01*
X006557Y006355D01*
X006777Y006575D01*
X006777Y006989D01*
X006761Y007006D01*
X006794Y007006D01*
X006777Y006989D01*
X006777Y006575D01*
X007070Y006282D01*
X006777Y005989D01*
X006777Y005575D01*
X007070Y005282D01*
X006777Y004989D01*
X006777Y004575D01*
X007070Y004282D01*
X006777Y003989D01*
X006777Y003575D01*
X007070Y003282D01*
X007381Y003282D01*
X007114Y003015D01*
X005906Y003015D01*
X005924Y003033D02*
X007132Y003033D01*
X007291Y003192D02*
X006083Y003192D01*
X005746Y003251D02*
X006277Y003782D01*
X005820Y003984D02*
X004044Y003984D01*
X004098Y003826D02*
X005777Y003826D01*
X005766Y003667D02*
X004098Y003667D01*
X003885Y004143D02*
X005930Y004143D01*
X006052Y004301D02*
X005770Y004301D01*
X005179Y004301D02*
X003858Y004301D01*
X003823Y004265D02*
X004098Y004540D01*
X004098Y004930D01*
X003823Y005205D01*
X003433Y005205D01*
X003158Y004930D01*
X003158Y004540D01*
X003433Y004265D01*
X003823Y004265D01*
X004017Y004460D02*
X005055Y004460D01*
X005009Y004618D02*
X004098Y004618D01*
X004098Y004777D02*
X005017Y004777D01*
X005086Y004935D02*
X004650Y004935D01*
X004419Y005239D02*
X005974Y005239D01*
X005984Y005240D01*
X005994Y005244D01*
X006002Y005250D01*
X006008Y005259D01*
X006012Y005268D01*
X006013Y005278D01*
X006014Y005278D02*
X006270Y005534D01*
X006270Y005774D01*
X006277Y005782D01*
X006277Y006782D01*
X005991Y006362D02*
X005564Y006362D01*
X005485Y006282D02*
X005777Y006575D01*
X005777Y006989D01*
X005761Y007006D01*
X005794Y007006D01*
X005777Y006989D01*
X005777Y006575D01*
X005997Y006355D01*
X005997Y006209D01*
X005777Y005989D01*
X005485Y006282D01*
X005070Y006282D01*
X005485Y006282D01*
X005564Y006203D02*
X005991Y006203D01*
X005832Y006045D02*
X005722Y006045D01*
X005777Y005989D02*
X005777Y005575D01*
X005721Y005519D01*
X005834Y005519D01*
X005777Y005575D01*
X005777Y005989D01*
X005777Y005886D02*
X005777Y005886D01*
X005777Y005728D02*
X005777Y005728D01*
X005771Y005569D02*
X005784Y005569D01*
X006414Y005282D02*
X006414Y005282D01*
X006515Y005252D02*
X007040Y005252D01*
X007070Y005282D02*
X007485Y005282D01*
X007777Y004989D01*
X007777Y004960D01*
X007777Y004960D01*
X007777Y004989D01*
X007798Y005010D01*
X007828Y005083D01*
X007977Y005232D01*
X008050Y005262D01*
X008070Y005282D01*
X008100Y005282D01*
X008148Y005302D01*
X008079Y005302D01*
X007797Y005584D01*
X007797Y005762D01*
X008257Y005762D01*
X008257Y005802D01*
X007797Y005802D01*
X007797Y005981D01*
X008079Y006262D01*
X008257Y006262D01*
X008257Y005802D01*
X008297Y005802D01*
X008297Y006262D01*
X008476Y006262D01*
X008757Y005981D01*
X008757Y005802D01*
X008297Y005802D01*
X008297Y005762D01*
X008757Y005762D01*
X008757Y005584D01*
X008486Y005312D01*
X009069Y005312D01*
X008797Y005584D01*
X008797Y005762D01*
X009257Y005762D01*
X009257Y005802D01*
X008797Y005802D01*
X008797Y005981D01*
X009079Y006262D01*
X009257Y006262D01*
X009257Y005802D01*
X009297Y005802D01*
X009297Y006262D01*
X009476Y006262D01*
X009757Y005981D01*
X009757Y005802D01*
X009297Y005802D01*
X009297Y005762D01*
X009757Y005762D01*
X009757Y005584D01*
X009486Y005312D01*
X010040Y005312D01*
X009777Y005575D01*
X009777Y005989D01*
X009997Y006209D01*
X009997Y006355D01*
X009777Y006575D01*
X009777Y006989D01*
X010070Y007282D01*
X010485Y007282D01*
X010777Y006989D01*
X010777Y006575D01*
X010715Y006513D01*
X010868Y006513D01*
X010797Y006584D01*
X010797Y006762D01*
X011257Y006762D01*
X011257Y006802D01*
X010797Y006802D01*
X010797Y006981D01*
X011079Y007262D01*
X011257Y007262D01*
X011257Y006802D01*
X011297Y006802D01*
X011297Y007262D01*
X011476Y007262D01*
X011757Y006981D01*
X011757Y006802D01*
X011297Y006802D01*
X011297Y006762D01*
X011757Y006762D01*
X011757Y006584D01*
X011687Y006513D01*
X011840Y006513D01*
X011777Y006575D01*
X011777Y006989D01*
X012070Y007282D01*
X012485Y007282D01*
X012777Y006989D01*
X012777Y006575D01*
X012715Y006513D01*
X012840Y006513D01*
X012777Y006575D01*
X012777Y006989D01*
X013070Y007282D01*
X013485Y007282D01*
X013777Y006989D01*
X013777Y006575D01*
X013715Y006513D01*
X013840Y006513D01*
X013777Y006575D01*
X013777Y006989D01*
X014070Y007282D01*
X014381Y007282D01*
X014381Y007282D01*
X014070Y007282D01*
X013777Y007575D01*
X013777Y007942D01*
X013777Y007575D01*
X013485Y007282D01*
X013070Y007282D01*
X012777Y007575D01*
X012777Y007989D01*
X012485Y008282D01*
X012131Y008282D01*
X012131Y008282D01*
X012485Y008282D01*
X012777Y008575D01*
X012777Y008896D01*
X012777Y008896D01*
X012777Y008575D01*
X013070Y008282D01*
X012777Y007989D01*
X012777Y007575D01*
X012485Y007282D01*
X012070Y007282D01*
X011777Y007575D01*
X011777Y007929D01*
X011757Y007949D01*
X011757Y007802D01*
X011297Y007802D01*
X011297Y007762D01*
X011297Y007302D01*
X011476Y007302D01*
X011757Y007584D01*
X011757Y007762D01*
X011297Y007762D01*
X011257Y007762D01*
X011257Y007302D01*
X011079Y007302D01*
X010797Y007584D01*
X010797Y007762D01*
X011257Y007762D01*
X011257Y007802D01*
X010797Y007802D01*
X010797Y007981D01*
X010876Y008060D01*
X010826Y008060D01*
X010734Y008098D01*
X010388Y008444D01*
X010350Y008536D01*
X010350Y008947D01*
X010291Y008923D01*
X010106Y008923D01*
X009935Y008994D01*
X009804Y009125D01*
X009733Y009296D01*
X009733Y009481D01*
X009804Y009652D01*
X009935Y009784D01*
X010106Y009854D01*
X010291Y009854D01*
X010350Y009830D01*
X010350Y010289D01*
X010388Y010381D01*
X010459Y010451D01*
X010832Y010825D01*
X010832Y011125D01*
X010771Y011105D01*
X010706Y011094D01*
X010673Y011094D01*
X010673Y011747D01*
X010673Y011747D01*
X010673Y011094D01*
X010641Y011094D01*
X010576Y011105D01*
X010528Y011120D01*
X010577Y011003D01*
X010577Y010853D01*
X010519Y010714D01*
X010413Y010607D01*
X010274Y010550D01*
X010123Y010550D01*
X009985Y010607D01*
X009945Y010647D01*
X007100Y010647D01*
X007100Y010498D01*
X007043Y010360D01*
X006936Y010253D01*
X006798Y010196D01*
X006740Y010196D01*
X006546Y010002D01*
X006465Y009968D01*
X007419Y009968D01*
X007371Y010083D01*
X007371Y010269D01*
X007442Y010440D01*
X007573Y010571D01*
X007744Y010642D01*
X007929Y010642D01*
X008100Y010571D01*
X008231Y010440D01*
X008302Y010269D01*
X008302Y010083D01*
X008231Y009912D01*
X008100Y009781D01*
X007929Y009710D01*
X007745Y009710D01*
X008173Y009282D01*
X008485Y009282D01*
X008777Y008989D01*
X008777Y008575D01*
X008485Y008282D01*
X008070Y008282D01*
X007777Y007989D01*
X007485Y008282D01*
X007070Y008282D01*
X007485Y008282D01*
X007777Y008575D01*
X007777Y008886D01*
X007777Y008575D01*
X008070Y008282D01*
X008485Y008282D01*
X008777Y007989D01*
X008777Y007575D01*
X008485Y007282D01*
X008173Y007282D01*
X008153Y007262D01*
X008257Y007262D01*
X008257Y006802D01*
X008257Y006762D01*
X008297Y006762D01*
X008297Y006302D01*
X008476Y006302D01*
X008757Y006584D01*
X008757Y006762D01*
X008297Y006762D01*
X008297Y006802D01*
X008257Y006802D01*
X007797Y006802D01*
X007797Y006981D01*
X007823Y007006D01*
X007761Y007006D01*
X007777Y006989D01*
X007777Y006575D01*
X007485Y006282D01*
X007070Y006282D01*
X007485Y006282D01*
X007777Y005989D01*
X007777Y005575D01*
X007485Y005282D01*
X007070Y005282D01*
X006942Y005411D02*
X006613Y005411D01*
X006771Y005569D02*
X006784Y005569D01*
X006777Y005728D02*
X006777Y005728D01*
X006777Y005886D02*
X006777Y005886D01*
X006722Y006045D02*
X006832Y006045D01*
X006991Y006203D02*
X006564Y006203D01*
X006564Y006362D02*
X006991Y006362D01*
X006833Y006520D02*
X006722Y006520D01*
X006777Y006679D02*
X006777Y006679D01*
X006777Y006837D02*
X006777Y006837D01*
X006771Y006996D02*
X006783Y006996D01*
X006755Y007630D02*
X006777Y007630D01*
X006777Y007788D02*
X006777Y007788D01*
X006777Y007947D02*
X006751Y007947D01*
X006662Y008105D02*
X006893Y008105D01*
X007051Y008264D02*
X006422Y008264D01*
X006624Y008422D02*
X006931Y008422D01*
X006777Y008581D02*
X006777Y008581D01*
X006777Y008739D02*
X006777Y008739D01*
X006777Y008898D02*
X006777Y008898D01*
X006711Y009056D02*
X006844Y009056D01*
X007002Y009215D02*
X006552Y009215D01*
X006277Y008782D02*
X003675Y008782D01*
X003628Y008735D01*
X003284Y009056D02*
X002972Y009056D01*
X003098Y008898D02*
X003158Y008898D01*
X003158Y008739D02*
X003098Y008739D01*
X003098Y008581D02*
X003158Y008581D01*
X003276Y008422D02*
X002979Y008422D01*
X002923Y008105D02*
X003333Y008105D01*
X003175Y007947D02*
X003081Y007947D01*
X003098Y007788D02*
X003158Y007788D01*
X003158Y007630D02*
X003098Y007630D01*
X003028Y007471D02*
X003227Y007471D01*
X003386Y007313D02*
X002870Y007313D01*
X002874Y007154D02*
X003382Y007154D01*
X003224Y006996D02*
X003032Y006996D01*
X003098Y006837D02*
X003158Y006837D01*
X003158Y006679D02*
X003098Y006679D01*
X003077Y006520D02*
X003178Y006520D01*
X003337Y006362D02*
X002919Y006362D01*
X002825Y006203D02*
X003431Y006203D01*
X003433Y006205D02*
X003158Y005930D01*
X003158Y005540D01*
X003433Y005265D01*
X003823Y005265D01*
X004098Y005540D01*
X004098Y005930D01*
X003823Y006205D01*
X003433Y006205D01*
X003273Y006045D02*
X002983Y006045D01*
X003098Y005886D02*
X003158Y005886D01*
X003158Y005728D02*
X003098Y005728D01*
X003098Y005569D02*
X003158Y005569D01*
X003288Y005411D02*
X002968Y005411D01*
X002934Y005094D02*
X003322Y005094D01*
X003163Y004935D02*
X003093Y004935D01*
X003098Y004777D02*
X003158Y004777D01*
X003158Y004618D02*
X003098Y004618D01*
X003017Y004460D02*
X003239Y004460D01*
X003397Y004301D02*
X002858Y004301D01*
X002885Y004143D02*
X003371Y004143D01*
X003212Y003984D02*
X003044Y003984D01*
X003098Y003826D02*
X003158Y003826D01*
X003158Y003667D02*
X003098Y003667D01*
X003144Y003251D02*
X005746Y003251D01*
X006540Y003350D02*
X007003Y003350D01*
X006844Y003509D02*
X006705Y003509D01*
X006771Y003667D02*
X006777Y003667D01*
X006777Y003826D02*
X006777Y003826D01*
X006777Y003984D02*
X006735Y003984D01*
X006624Y004143D02*
X006930Y004143D01*
X007070Y004282D02*
X007485Y004282D01*
X007777Y003989D01*
X007777Y003678D01*
X007777Y003678D01*
X007777Y003989D01*
X008070Y004282D01*
X008100Y004282D01*
X008100Y004282D01*
X008070Y004282D01*
X008050Y004303D01*
X007977Y004333D01*
X007828Y004482D01*
X007798Y004555D01*
X007777Y004575D01*
X007777Y004605D01*
X007777Y004605D01*
X007777Y004575D01*
X007485Y004282D01*
X007070Y004282D01*
X007052Y004301D02*
X006503Y004301D01*
X006662Y004460D02*
X006893Y004460D01*
X006777Y004618D02*
X006777Y004618D01*
X006777Y004777D02*
X006777Y004777D01*
X006777Y004935D02*
X006777Y004935D01*
X006673Y005094D02*
X006881Y005094D01*
X007515Y005252D02*
X008026Y005252D01*
X007970Y005411D02*
X007613Y005411D01*
X007771Y005569D02*
X007812Y005569D01*
X007797Y005728D02*
X007777Y005728D01*
X007777Y005886D02*
X007797Y005886D01*
X007861Y006045D02*
X007722Y006045D01*
X007564Y006203D02*
X008019Y006203D01*
X008079Y006302D02*
X008257Y006302D01*
X008257Y006762D01*
X007797Y006762D01*
X007797Y006584D01*
X008079Y006302D01*
X008019Y006362D02*
X007564Y006362D01*
X007722Y006520D02*
X007861Y006520D01*
X007797Y006679D02*
X007777Y006679D01*
X007777Y006837D02*
X007797Y006837D01*
X007812Y006996D02*
X007771Y006996D01*
X007781Y007286D02*
X008277Y007782D01*
X007777Y007788D02*
X007777Y007788D01*
X007777Y007678D02*
X007777Y007678D01*
X007777Y007989D01*
X007777Y007678D01*
X007777Y007947D02*
X007777Y007947D01*
X007662Y008105D02*
X007893Y008105D01*
X008051Y008264D02*
X007503Y008264D01*
X007624Y008422D02*
X007931Y008422D01*
X007777Y008581D02*
X007777Y008581D01*
X007777Y008739D02*
X007777Y008739D01*
X007777Y008886D02*
X007777Y008886D01*
X008277Y008782D02*
X007372Y009688D01*
X006230Y009688D01*
X005955Y009963D01*
X004478Y009963D01*
X004250Y009735D01*
X003628Y009735D01*
X003930Y009373D02*
X005009Y009373D01*
X005029Y009532D02*
X004442Y009532D01*
X005042Y009215D02*
X002417Y009215D01*
X002930Y009373D02*
X003325Y009373D01*
X003167Y009532D02*
X003089Y009532D01*
X003098Y009690D02*
X003158Y009690D01*
X003158Y009849D02*
X003137Y009849D01*
X003132Y010239D02*
X006388Y010239D01*
X006722Y010574D01*
X006344Y010592D02*
X006272Y010519D01*
X005775Y010519D01*
X005893Y010568D01*
X006000Y010674D01*
X006027Y010741D01*
X006072Y010696D01*
X006189Y010647D01*
X006344Y010647D01*
X006344Y010592D01*
X006344Y010641D02*
X005966Y010641D01*
X005679Y010889D02*
X005525Y010735D01*
X003628Y010735D01*
X003345Y011117D02*
X002911Y011117D01*
X002823Y011205D02*
X002433Y011205D01*
X002417Y011189D01*
X002417Y011281D01*
X002433Y011265D01*
X002823Y011265D01*
X003098Y011540D01*
X003098Y011930D01*
X002823Y012205D01*
X002433Y012205D01*
X002417Y012189D01*
X002417Y012281D01*
X002433Y012265D01*
X002823Y012265D01*
X003098Y012540D01*
X003098Y012930D01*
X002823Y013205D01*
X002433Y013205D01*
X002417Y013189D01*
X002417Y013281D01*
X002433Y013265D01*
X002823Y013265D01*
X003098Y013540D01*
X003098Y013930D01*
X002823Y014205D01*
X002433Y014205D01*
X002417Y014189D01*
X002417Y014281D01*
X002433Y014265D01*
X002823Y014265D01*
X003098Y014540D01*
X003098Y014930D01*
X003069Y014959D01*
X003187Y014959D01*
X003158Y014930D01*
X003158Y014540D01*
X003433Y014265D01*
X003726Y014265D01*
X003726Y014205D01*
X003433Y014205D01*
X003158Y013930D01*
X003158Y013540D01*
X003433Y013265D01*
X003823Y013265D01*
X004098Y013540D01*
X004098Y013877D01*
X004179Y013877D01*
X004318Y013934D01*
X004359Y013975D01*
X004797Y013975D01*
X004797Y013802D01*
X005257Y013802D01*
X005257Y013762D01*
X005297Y013762D01*
X005297Y013302D01*
X005476Y013302D01*
X005757Y013584D01*
X005757Y013762D01*
X005297Y013762D01*
X005297Y013802D01*
X005757Y013802D01*
X005757Y013975D01*
X005777Y013975D01*
X005777Y013575D01*
X006070Y013282D01*
X005777Y012989D01*
X005777Y012575D01*
X006070Y012282D01*
X006485Y012282D01*
X006777Y012575D01*
X006777Y012989D01*
X006485Y013282D01*
X006070Y013282D01*
X006485Y013282D01*
X006777Y013575D01*
X006777Y013975D01*
X006777Y013975D01*
X006777Y013575D01*
X007070Y013282D01*
X006777Y012989D01*
X006777Y012575D01*
X006920Y012432D01*
X006854Y012366D01*
X006777Y012182D01*
X006777Y011383D01*
X006817Y011287D01*
X006386Y011287D01*
X005910Y011763D01*
X005910Y012070D01*
X005843Y012230D01*
X005721Y012353D01*
X005584Y012410D01*
X005757Y012584D01*
X005757Y012762D01*
X005297Y012762D01*
X005297Y012802D01*
X005257Y012802D01*
X005257Y012762D01*
X004797Y012762D01*
X004797Y012584D01*
X005079Y012302D01*
X005176Y012302D01*
X005104Y012230D01*
X005037Y012070D01*
X005037Y011424D01*
X005104Y011264D01*
X005226Y011141D01*
X005353Y011089D01*
X005322Y011015D01*
X004013Y011015D01*
X003823Y011205D01*
X003433Y011205D01*
X003158Y010930D01*
X003158Y010540D01*
X003179Y010519D01*
X003076Y010519D01*
X003098Y010540D01*
X003098Y010930D01*
X002823Y011205D01*
X002832Y011275D02*
X003423Y011275D01*
X003433Y011265D02*
X003823Y011265D01*
X004098Y011540D01*
X004098Y011930D01*
X003823Y012205D01*
X003433Y012205D01*
X003158Y011930D01*
X003158Y011540D01*
X003433Y011265D01*
X003265Y011434D02*
X002991Y011434D01*
X003098Y011592D02*
X003158Y011592D01*
X003158Y011751D02*
X003098Y011751D01*
X003098Y011909D02*
X003158Y011909D01*
X003296Y012068D02*
X002960Y012068D01*
X002942Y012385D02*
X003342Y012385D01*
X003441Y012285D02*
X003178Y012549D01*
X003178Y012725D01*
X003618Y012725D01*
X003638Y012725D01*
X003638Y012745D01*
X004078Y012745D01*
X004078Y012922D01*
X003814Y013185D01*
X003638Y013185D01*
X003638Y012745D01*
X003618Y012745D01*
X003618Y013185D01*
X003441Y013185D01*
X003178Y012922D01*
X003178Y012745D01*
X003618Y012745D01*
X003618Y012725D01*
X003618Y012285D01*
X003441Y012285D01*
X003638Y012285D02*
X003814Y012285D01*
X004078Y012549D01*
X004078Y012725D01*
X003638Y012725D01*
X003638Y012285D01*
X003638Y012385D02*
X003618Y012385D01*
X003618Y012543D02*
X003638Y012543D01*
X003638Y012702D02*
X003618Y012702D01*
X003628Y012735D02*
X005230Y012735D01*
X005277Y012782D01*
X005785Y013290D01*
X010777Y013290D01*
X010817Y013330D01*
X010859Y013494D02*
X010696Y013494D01*
X010777Y013575D02*
X010485Y013282D01*
X010070Y013282D01*
X009777Y012989D01*
X009485Y013282D01*
X009070Y013282D01*
X008777Y012989D01*
X008485Y013282D01*
X008070Y013282D01*
X007777Y012989D01*
X007485Y013282D01*
X007070Y013282D01*
X007485Y013282D01*
X007777Y013575D01*
X007777Y013975D01*
X007777Y013975D01*
X007777Y013575D01*
X008070Y013282D01*
X008485Y013282D01*
X008777Y013575D01*
X008777Y013975D01*
X008777Y013975D01*
X008777Y013575D01*
X009070Y013282D01*
X009485Y013282D01*
X009777Y013575D01*
X009777Y013975D01*
X009777Y013975D01*
X009777Y013575D01*
X010070Y013282D01*
X010485Y013282D01*
X010777Y012989D01*
X010777Y012823D01*
X010777Y012823D01*
X010777Y012989D01*
X011070Y013282D01*
X011485Y013282D01*
X011763Y013004D01*
X011777Y013018D01*
X012455Y013018D01*
X012490Y012983D01*
X012525Y013018D01*
X013203Y013018D01*
X013320Y012901D01*
X013320Y012900D01*
X013774Y012900D01*
X013868Y012805D01*
X013897Y012835D01*
X013818Y013142D01*
X013805Y013175D01*
X013805Y013196D01*
X013799Y013216D01*
X013805Y013251D01*
X013805Y013287D01*
X013812Y013306D01*
X013815Y013326D01*
X013833Y013357D01*
X013847Y013390D01*
X013862Y013404D01*
X013872Y013422D01*
X013901Y013443D01*
X014139Y013682D01*
X014139Y013996D01*
X014061Y013996D01*
X014029Y014028D01*
X014029Y013739D01*
X013911Y013622D01*
X013195Y013622D01*
X013077Y013739D01*
X013077Y014012D01*
X013068Y014003D01*
X012929Y013946D01*
X012779Y013946D01*
X012708Y013975D01*
X011777Y013975D01*
X011777Y013575D01*
X011485Y013282D01*
X011070Y013282D01*
X010777Y013575D01*
X010777Y013975D01*
X010777Y013975D01*
X010777Y013575D01*
X010777Y013653D02*
X010777Y013653D01*
X010777Y013811D02*
X010777Y013811D01*
X010777Y013970D02*
X010777Y013970D01*
X010737Y014535D02*
X010777Y014575D01*
X010777Y014989D01*
X010485Y015282D01*
X010070Y015282D01*
X009777Y014989D01*
X009485Y015282D01*
X009070Y015282D01*
X008777Y014989D01*
X008485Y015282D01*
X008163Y015282D01*
X008485Y015282D01*
X008777Y015575D01*
X008777Y015989D01*
X008765Y016002D01*
X008790Y016002D01*
X008777Y015989D01*
X008777Y015575D01*
X009070Y015282D01*
X009485Y015282D01*
X009777Y015575D01*
X009777Y015989D01*
X009765Y016002D01*
X009790Y016002D01*
X009777Y015989D01*
X009777Y015575D01*
X010070Y015282D01*
X010485Y015282D01*
X010777Y015575D01*
X010777Y015989D01*
X010765Y016002D01*
X010790Y016002D01*
X010777Y015989D01*
X010777Y015575D01*
X011070Y015282D01*
X010777Y014989D01*
X010777Y014575D01*
X010818Y014535D01*
X010737Y014535D01*
X010777Y014604D02*
X010777Y014604D01*
X010777Y014762D02*
X010777Y014762D01*
X010777Y014921D02*
X010777Y014921D01*
X010688Y015079D02*
X010867Y015079D01*
X011025Y015238D02*
X010529Y015238D01*
X010598Y015396D02*
X010957Y015396D01*
X011070Y015282D02*
X011325Y015282D01*
X011070Y015282D01*
X011325Y015282D02*
X011325Y015282D01*
X010798Y015555D02*
X010757Y015555D01*
X010777Y015713D02*
X010777Y015713D01*
X010777Y015872D02*
X010777Y015872D01*
X010765Y016562D02*
X010777Y016575D01*
X010777Y016989D01*
X010761Y017006D01*
X010794Y017006D01*
X010777Y016989D01*
X010777Y016575D01*
X010790Y016562D01*
X010765Y016562D01*
X010777Y016664D02*
X010777Y016664D01*
X010777Y016823D02*
X010777Y016823D01*
X010777Y016981D02*
X010777Y016981D01*
X010768Y017566D02*
X010777Y017575D01*
X010777Y017886D01*
X010777Y017575D01*
X010786Y017566D01*
X010768Y017566D01*
X010777Y017615D02*
X010777Y017615D01*
X010777Y017774D02*
X010777Y017774D01*
X010777Y017886D02*
X010777Y017886D01*
X010710Y018349D02*
X010325Y018349D01*
X009892Y018782D01*
X009277Y018782D01*
X009777Y019062D02*
X009836Y019062D01*
X009947Y019062D01*
X010050Y019020D01*
X010257Y018813D01*
X010257Y019047D01*
X010673Y019047D01*
X010673Y019047D01*
X010257Y019047D01*
X010257Y019316D01*
X010268Y019381D01*
X010288Y019443D01*
X010318Y019501D01*
X010320Y019505D01*
X009562Y019505D01*
X009701Y019366D01*
X009777Y019182D01*
X009777Y019062D01*
X009770Y019200D02*
X010257Y019200D01*
X010257Y019042D02*
X009998Y019042D01*
X010187Y018883D02*
X010257Y018883D01*
X010673Y019047D02*
X012127Y019047D01*
X012608Y018566D01*
X013435Y019393D01*
X015581Y019393D01*
X015915Y019058D01*
X015915Y018526D01*
X016628Y017814D01*
X016628Y017735D01*
X016638Y017725D02*
X016638Y017745D01*
X017078Y017745D01*
X017078Y017922D01*
X016844Y018155D01*
X017331Y018155D01*
X017335Y018159D01*
X017350Y018159D01*
X017354Y018163D01*
X017366Y018163D01*
X017370Y018167D01*
X017378Y018167D01*
X017382Y018171D01*
X017386Y018171D01*
X017390Y018175D01*
X017394Y018175D01*
X017398Y018179D01*
X017402Y018179D01*
X017406Y018183D01*
X017409Y018187D01*
X017413Y018187D01*
X017417Y018191D01*
X017421Y018195D01*
X017423Y018195D01*
X017158Y017930D01*
X017158Y017661D01*
X017078Y017581D01*
X017078Y017725D01*
X016638Y017725D01*
X016638Y017745D02*
X016618Y017745D01*
X016618Y018185D01*
X016441Y018185D01*
X016178Y017922D01*
X016178Y017745D01*
X016618Y017745D01*
X016618Y017725D01*
X016178Y017725D01*
X016178Y017549D01*
X016219Y017507D01*
X014324Y017507D01*
X014221Y017465D01*
X014103Y017347D01*
X014024Y017268D01*
X013982Y017165D01*
X013982Y016744D01*
X013859Y016622D01*
X013788Y016449D01*
X013788Y015722D01*
X013859Y015549D01*
X013992Y015417D01*
X014164Y015346D01*
X014351Y015346D01*
X014524Y015417D01*
X014656Y015549D01*
X014714Y015689D01*
X014781Y015622D01*
X014965Y015546D01*
X014781Y015470D01*
X014640Y015329D01*
X014564Y015146D01*
X014564Y014947D01*
X014629Y014789D01*
X014061Y014789D01*
X014029Y014757D01*
X014029Y015046D01*
X013911Y015163D01*
X013497Y015163D01*
X013529Y015196D01*
X013578Y015313D01*
X013578Y015471D01*
X013656Y015549D01*
X013728Y015722D01*
X013728Y016449D01*
X013656Y016622D01*
X013524Y016754D01*
X013351Y016826D01*
X013164Y016826D01*
X012992Y016754D01*
X012859Y016622D01*
X012788Y016449D01*
X012788Y015722D01*
X012859Y015549D01*
X012889Y015520D01*
X012627Y015520D01*
X012656Y015549D01*
X012728Y015722D01*
X012728Y016449D01*
X012656Y016622D01*
X012524Y016754D01*
X012351Y016826D01*
X012164Y016826D01*
X011992Y016754D01*
X011859Y016622D01*
X011835Y016562D01*
X011765Y016562D01*
X011777Y016575D01*
X011777Y016989D01*
X011761Y017006D01*
X013215Y017006D01*
X013318Y017049D01*
X013397Y017128D01*
X014122Y017853D01*
X014235Y017741D01*
X014918Y017741D01*
X015402Y018224D01*
X015402Y018908D01*
X014918Y019391D01*
X014235Y019391D01*
X013752Y018908D01*
X013752Y018275D01*
X013043Y017566D01*
X011768Y017566D01*
X011777Y017575D01*
X011777Y017989D01*
X011485Y018282D01*
X011173Y018282D01*
X010954Y018502D01*
X010991Y018540D01*
X011029Y018593D01*
X011059Y018651D01*
X011079Y018713D01*
X011090Y018778D01*
X011090Y019047D01*
X011090Y019316D01*
X011079Y019381D01*
X011059Y019443D01*
X011029Y019501D01*
X011027Y019505D01*
X016457Y019505D01*
X016457Y019477D01*
X016465Y019469D01*
X016465Y019465D01*
X016477Y019453D01*
X016477Y019450D01*
X016489Y019438D01*
X016489Y019434D01*
X016501Y019422D01*
X016501Y019418D01*
X016512Y019406D01*
X016512Y019402D01*
X016520Y019394D01*
X016520Y019390D01*
X016532Y019379D01*
X016532Y019375D01*
X016544Y019363D01*
X016544Y019359D01*
X016556Y019347D01*
X016556Y019343D01*
X016568Y019331D01*
X016568Y019327D01*
X016572Y019324D01*
X016572Y019324D01*
X016579Y019316D01*
X016579Y019312D01*
X016587Y019304D01*
X016587Y019300D01*
X016599Y019288D01*
X016599Y019284D01*
X016611Y019272D01*
X016611Y019268D01*
X016623Y019257D01*
X016623Y019253D01*
X016635Y019241D01*
X016635Y019237D01*
X016642Y019229D01*
X016642Y019225D01*
X016654Y019213D01*
X016654Y019209D01*
X016666Y019198D01*
X016666Y019194D01*
X016678Y019182D01*
X016678Y019178D01*
X016690Y019166D01*
X016690Y019162D01*
X016698Y019154D01*
X016698Y019150D01*
X016709Y019138D01*
X016709Y019135D01*
X016721Y019123D01*
X016721Y019119D01*
X016722Y019118D01*
X016661Y019118D01*
X016657Y019114D01*
X016645Y019114D01*
X016641Y019110D01*
X016634Y019110D01*
X016630Y019106D01*
X016626Y019106D01*
X016622Y019102D01*
X016618Y019102D01*
X016610Y019095D01*
X016606Y019095D01*
X016489Y018977D01*
X016485Y018973D01*
X016481Y018970D01*
X016477Y018966D01*
X016473Y018962D01*
X016469Y018958D01*
X016465Y018954D01*
X016465Y018950D01*
X016461Y018946D01*
X016457Y018942D01*
X016457Y018938D01*
X016453Y018934D01*
X016453Y018930D01*
X016449Y018926D01*
X016449Y018922D01*
X016359Y018832D01*
X016355Y018828D01*
X016355Y018824D01*
X016351Y018820D01*
X016351Y018816D01*
X016347Y018812D01*
X016347Y018587D01*
X016351Y018583D01*
X016351Y018579D01*
X016359Y018572D01*
X016359Y018572D01*
X016430Y018501D01*
X016430Y018497D01*
X016434Y018493D01*
X016434Y018481D01*
X016438Y018477D01*
X016438Y018469D01*
X016442Y018465D01*
X016442Y018457D01*
X016446Y018453D01*
X016446Y018446D01*
X016449Y018442D01*
X016449Y018434D01*
X016453Y018430D01*
X016453Y018426D01*
X016457Y018422D01*
X016457Y018414D01*
X016461Y018410D01*
X016461Y018406D01*
X016465Y018402D01*
X016465Y018398D01*
X016469Y018394D01*
X016469Y018390D01*
X016473Y018387D01*
X016473Y018383D01*
X016477Y018379D01*
X016477Y018375D01*
X016485Y018367D01*
X016485Y018363D01*
X016493Y018355D01*
X016493Y018351D01*
X016512Y018331D01*
X016512Y018327D01*
X016630Y018210D01*
X016634Y018206D01*
X016637Y018206D01*
X016641Y018202D01*
X016645Y018199D01*
X016649Y018195D01*
X016653Y018191D01*
X016657Y018191D01*
X016661Y018187D01*
X016663Y018185D01*
X016638Y018185D01*
X016638Y017745D01*
X016638Y017774D02*
X016618Y017774D01*
X016618Y017932D02*
X016638Y017932D01*
X016638Y018091D02*
X016618Y018091D01*
X016591Y018249D02*
X015402Y018249D01*
X015402Y018408D02*
X016461Y018408D01*
X016364Y018566D02*
X015402Y018566D01*
X015402Y018725D02*
X016347Y018725D01*
X016410Y018883D02*
X015402Y018883D01*
X015268Y019042D02*
X016553Y019042D01*
X016664Y019200D02*
X015109Y019200D01*
X014951Y019359D02*
X016544Y019359D01*
X017358Y019127D02*
X017365Y019135D01*
X017365Y019138D01*
X017377Y019150D01*
X017377Y019154D01*
X017389Y019166D01*
X017389Y019170D01*
X017401Y019182D01*
X017401Y019186D01*
X017409Y019194D01*
X017412Y019198D01*
X017412Y019201D01*
X017424Y019213D01*
X017424Y019217D01*
X017436Y019229D01*
X017436Y019233D01*
X017448Y019245D01*
X017448Y019249D01*
X017460Y019261D01*
X017460Y019264D01*
X017472Y019276D01*
X017472Y019280D01*
X017483Y019292D01*
X017483Y019296D01*
X017491Y019304D01*
X017491Y019308D01*
X017503Y019320D01*
X017503Y019324D01*
X017515Y019335D01*
X017515Y019339D01*
X017527Y019351D01*
X017527Y019355D01*
X017538Y019367D01*
X017538Y019371D01*
X017550Y019383D01*
X017550Y019387D01*
X017562Y019398D01*
X017562Y019402D01*
X017574Y019414D01*
X017574Y019418D01*
X017586Y019430D01*
X017586Y019434D01*
X017598Y019446D01*
X017598Y019450D01*
X017609Y019461D01*
X017609Y019465D01*
X017617Y019473D01*
X017617Y019505D01*
X017839Y019505D01*
X017839Y018189D01*
X017823Y018205D01*
X017436Y018205D01*
X017437Y018206D01*
X017441Y018210D01*
X017445Y018214D01*
X017449Y018218D01*
X017453Y018222D01*
X017457Y018226D01*
X017574Y018343D01*
X017574Y018347D01*
X017582Y018355D01*
X017582Y018359D01*
X017590Y018367D01*
X017590Y018371D01*
X017598Y018379D01*
X017598Y018383D01*
X017601Y018387D01*
X017601Y018390D01*
X017605Y018394D01*
X017605Y018398D01*
X017609Y018402D01*
X017609Y018406D01*
X017613Y018410D01*
X017613Y018418D01*
X017617Y018422D01*
X017617Y018426D01*
X017621Y018430D01*
X017621Y018438D01*
X017625Y018442D01*
X017625Y018446D01*
X017629Y018450D01*
X017629Y018457D01*
X017633Y018461D01*
X017633Y018473D01*
X017637Y018477D01*
X017637Y018485D01*
X017641Y018489D01*
X017641Y018493D01*
X017720Y018572D01*
X017727Y018579D01*
X017727Y018587D01*
X017731Y018591D01*
X017731Y018808D01*
X017727Y018812D01*
X017727Y018820D01*
X017723Y018824D01*
X017720Y018828D01*
X017716Y018832D01*
X017712Y018836D01*
X017621Y018926D01*
X017621Y018930D01*
X017617Y018934D01*
X017613Y018938D01*
X017609Y018942D01*
X017605Y018946D01*
X017601Y018950D01*
X017598Y018954D01*
X017480Y019071D01*
X017476Y019071D01*
X017472Y019075D01*
X017469Y019075D01*
X017465Y019079D01*
X017457Y019079D01*
X017453Y019083D01*
X017402Y019083D01*
X017358Y019127D01*
X017409Y019194D02*
X017409Y019194D01*
X017412Y019200D02*
X017839Y019200D01*
X017839Y019042D02*
X017510Y019042D01*
X017664Y018883D02*
X017839Y018883D01*
X017839Y018725D02*
X017731Y018725D01*
X017720Y018572D02*
X017720Y018572D01*
X017714Y018566D02*
X017839Y018566D01*
X017839Y018408D02*
X017611Y018408D01*
X017480Y018249D02*
X017839Y018249D01*
X017406Y018183D02*
X017406Y018183D01*
X017319Y018091D02*
X016909Y018091D01*
X017067Y017932D02*
X017160Y017932D01*
X017158Y017774D02*
X017078Y017774D01*
X017078Y017615D02*
X017112Y017615D01*
X017120Y017227D02*
X014380Y017227D01*
X014262Y017109D01*
X014262Y016011D01*
X014258Y016086D01*
X013788Y016030D02*
X013728Y016030D01*
X013728Y015872D02*
X013788Y015872D01*
X013791Y015713D02*
X013724Y015713D01*
X013658Y015555D02*
X013857Y015555D01*
X014042Y015396D02*
X013578Y015396D01*
X013546Y015238D02*
X014602Y015238D01*
X014564Y015079D02*
X013996Y015079D01*
X014029Y014921D02*
X014575Y014921D01*
X014895Y014575D02*
X014965Y014546D01*
X014895Y014517D01*
X014895Y014575D01*
X014965Y014546D02*
X015763Y014546D01*
X014965Y014546D01*
X015364Y014046D02*
X016022Y014046D01*
X016210Y014235D01*
X016978Y014235D01*
X017195Y014452D01*
X017195Y015168D01*
X016628Y015735D01*
X017098Y015713D02*
X017158Y015713D01*
X017098Y015661D02*
X017158Y015601D01*
X017158Y015930D01*
X017433Y016205D01*
X017823Y016205D01*
X017839Y016189D01*
X017839Y016281D01*
X017823Y016265D01*
X017433Y016265D01*
X017158Y016540D01*
X017158Y016930D01*
X017175Y016947D01*
X017080Y016947D01*
X017098Y016930D01*
X017098Y016540D01*
X016823Y016265D01*
X016554Y016265D01*
X016494Y016205D01*
X016823Y016205D01*
X017098Y015930D01*
X017098Y015661D01*
X017098Y015872D02*
X017158Y015872D01*
X017258Y016030D02*
X016998Y016030D01*
X016839Y016189D02*
X017417Y016189D01*
X017351Y016347D02*
X016904Y016347D01*
X017063Y016506D02*
X017193Y016506D01*
X017158Y016664D02*
X017098Y016664D01*
X017098Y016823D02*
X017158Y016823D01*
X017494Y017205D02*
X017554Y017265D01*
X017823Y017265D01*
X017839Y017281D01*
X017839Y017189D01*
X017823Y017205D01*
X017494Y017205D01*
X017120Y017227D02*
X017628Y017735D01*
X016628Y016735D02*
X016112Y016219D01*
X016112Y015436D01*
X015722Y015046D01*
X015364Y015046D01*
X015763Y015546D02*
X014965Y015546D01*
X015763Y015546D01*
X015808Y015528D01*
X015832Y015552D01*
X015832Y015575D01*
X015763Y015546D01*
X015784Y015555D02*
X015832Y015555D01*
X016271Y015199D02*
X016164Y015092D01*
X016164Y014947D01*
X016088Y014763D01*
X015947Y014622D01*
X015763Y014546D01*
X015947Y014470D01*
X015998Y014419D01*
X016052Y014472D01*
X016155Y014515D01*
X016183Y014515D01*
X016158Y014540D01*
X016158Y014930D01*
X016433Y015205D01*
X016762Y015205D01*
X016702Y015265D01*
X016433Y015265D01*
X016370Y015328D01*
X016349Y015277D01*
X016271Y015199D01*
X016310Y015238D02*
X016729Y015238D01*
X016307Y015079D02*
X016164Y015079D01*
X016153Y014921D02*
X016158Y014921D01*
X016158Y014762D02*
X016087Y014762D01*
X016158Y014604D02*
X015902Y014604D01*
X015972Y014445D02*
X016024Y014445D01*
X016158Y013800D02*
X016158Y013540D01*
X016433Y013265D01*
X016823Y013265D01*
X017098Y013540D01*
X017098Y013930D01*
X017061Y013966D01*
X017137Y013998D01*
X017353Y014214D01*
X017419Y014280D01*
X017433Y014265D01*
X017823Y014265D01*
X017839Y014281D01*
X017839Y014189D01*
X017823Y014205D01*
X017433Y014205D01*
X017158Y013930D01*
X017158Y013540D01*
X017433Y013265D01*
X017823Y013265D01*
X017839Y013281D01*
X017839Y013189D01*
X017823Y013205D01*
X017433Y013205D01*
X017158Y012930D01*
X017158Y012540D01*
X017433Y012265D01*
X017823Y012265D01*
X017839Y012281D01*
X017839Y012189D01*
X017823Y012205D01*
X017433Y012205D01*
X017158Y011930D01*
X017158Y011619D01*
X017098Y011559D01*
X017098Y011930D01*
X016823Y012205D01*
X016766Y012205D01*
X016706Y012265D01*
X016823Y012265D01*
X017098Y012540D01*
X017098Y012930D01*
X016823Y013205D01*
X016433Y013205D01*
X016158Y012930D01*
X016158Y012794D01*
X016109Y012814D01*
X016164Y012947D01*
X016164Y013146D01*
X016088Y013329D01*
X015947Y013470D01*
X015763Y013546D01*
X014965Y013546D01*
X014781Y013470D01*
X014640Y013329D01*
X014564Y013146D01*
X014564Y012947D01*
X014584Y012900D01*
X014459Y012900D01*
X014395Y013146D01*
X014578Y013328D01*
X014657Y013407D01*
X014699Y013510D01*
X014699Y013704D01*
X014781Y013622D01*
X014965Y013546D01*
X015763Y013546D01*
X015947Y013622D01*
X016088Y013763D01*
X016092Y013772D01*
X016158Y013800D01*
X016158Y013653D02*
X015978Y013653D01*
X015889Y013494D02*
X016204Y013494D01*
X016082Y013336D02*
X016363Y013336D01*
X016405Y013177D02*
X016151Y013177D01*
X016164Y013019D02*
X016247Y013019D01*
X016158Y012860D02*
X016128Y012860D01*
X016033Y012542D02*
X014773Y012542D01*
X014281Y012463D02*
X014085Y013231D01*
X014419Y013566D01*
X014419Y014393D01*
X013944Y014402D02*
X013944Y014383D01*
X013934Y014393D01*
X013944Y014402D01*
X014029Y014762D02*
X014033Y014762D01*
X013553Y014767D02*
X013297Y014767D01*
X012854Y014324D01*
X012785Y014255D01*
X004104Y014255D01*
X004359Y014535D02*
X004318Y014575D01*
X004179Y014633D01*
X004098Y014633D01*
X004098Y014930D01*
X004069Y014959D01*
X004797Y014959D01*
X004797Y014802D01*
X005257Y014802D01*
X005257Y014762D01*
X004797Y014762D01*
X004098Y014762D01*
X004098Y014921D02*
X004797Y014921D01*
X004797Y014762D02*
X004797Y014584D01*
X004846Y014535D01*
X004359Y014535D01*
X004250Y014604D02*
X004797Y014604D01*
X005297Y014762D02*
X005297Y014802D01*
X005757Y014802D01*
X005757Y014959D01*
X005777Y014959D01*
X005777Y014575D01*
X005818Y014535D01*
X005709Y014535D01*
X005757Y014584D01*
X005757Y014762D01*
X005777Y014762D01*
X005757Y014762D02*
X005297Y014762D01*
X005757Y014604D02*
X005777Y014604D01*
X005757Y014921D02*
X005777Y014921D01*
X005834Y015519D02*
X005693Y015519D01*
X005757Y015584D01*
X005757Y015762D01*
X005297Y015762D01*
X005297Y015802D01*
X005757Y015802D01*
X005757Y015981D01*
X005736Y016002D01*
X005790Y016002D01*
X005777Y015989D01*
X005777Y015575D01*
X005834Y015519D01*
X005798Y015555D02*
X005728Y015555D01*
X005757Y015713D02*
X005777Y015713D01*
X005777Y015872D02*
X005757Y015872D01*
X005257Y015802D02*
X005257Y015762D01*
X004797Y015762D01*
X004797Y015584D01*
X004862Y015519D01*
X004076Y015519D01*
X004098Y015540D01*
X004098Y015930D01*
X003823Y016205D01*
X003433Y016205D01*
X003158Y015930D01*
X003158Y015601D01*
X003098Y015661D01*
X003098Y015930D01*
X002823Y016205D01*
X002433Y016205D01*
X002417Y016189D01*
X002417Y016281D01*
X002433Y016265D01*
X002823Y016265D01*
X003098Y016540D01*
X003098Y016930D01*
X002823Y017205D01*
X002433Y017205D01*
X002417Y017189D01*
X002417Y017310D01*
X002441Y017285D01*
X002618Y017285D01*
X002618Y017725D01*
X002638Y017725D01*
X002638Y017745D01*
X003078Y017745D01*
X003078Y017922D01*
X002847Y018152D01*
X002906Y018152D01*
X003002Y018152D01*
X003027Y018177D01*
X003052Y018152D01*
X003380Y018152D01*
X003158Y017930D01*
X003158Y017540D01*
X003433Y017265D01*
X003823Y017265D01*
X004098Y017540D01*
X004098Y017930D01*
X003823Y018205D01*
X003602Y018205D01*
X003684Y018287D01*
X003684Y018299D01*
X003769Y018299D01*
X003771Y018300D01*
X003843Y018372D01*
X003872Y018401D01*
X003977Y018507D01*
X003977Y018654D01*
X003977Y018654D01*
X003977Y018675D01*
X003977Y018697D01*
X003977Y018844D01*
X003920Y018902D01*
X003999Y018902D01*
X004024Y018927D01*
X004049Y018902D01*
X004240Y018902D01*
X004285Y018947D01*
X004299Y018925D01*
X004325Y018920D01*
X004343Y018902D01*
X004415Y018902D01*
X004486Y018888D01*
X004508Y018902D01*
X004533Y018902D01*
X004584Y018953D01*
X004645Y018993D01*
X004650Y019019D01*
X004668Y019037D01*
X004668Y019109D01*
X004682Y019180D01*
X004668Y019202D01*
X004668Y019505D01*
X005093Y019505D01*
X005037Y019370D01*
X005037Y019007D01*
X004418Y018387D01*
X004375Y018285D01*
X004375Y017447D01*
X004418Y017344D01*
X004497Y017265D01*
X004713Y017049D01*
X004816Y017006D01*
X004823Y017006D01*
X004797Y016981D01*
X004018Y016981D01*
X004078Y016922D02*
X003814Y017185D01*
X003638Y017185D01*
X003638Y016745D01*
X004078Y016745D01*
X004078Y016922D01*
X004078Y016823D02*
X004797Y016823D01*
X004797Y016802D02*
X004797Y016981D01*
X004797Y016802D02*
X005257Y016802D01*
X005257Y016762D01*
X004797Y016762D01*
X004797Y016584D01*
X004819Y016562D01*
X004536Y016562D01*
X004496Y016603D01*
X004357Y016660D01*
X004206Y016660D01*
X004078Y016607D01*
X004078Y016725D01*
X003638Y016725D01*
X003638Y016745D01*
X003618Y016745D01*
X003618Y017185D01*
X003441Y017185D01*
X003178Y016922D01*
X003178Y016745D01*
X003618Y016745D01*
X003618Y016725D01*
X003638Y016725D01*
X003638Y016285D01*
X003814Y016285D01*
X003915Y016386D01*
X003903Y016358D01*
X003903Y016207D01*
X003961Y016068D01*
X004067Y015962D01*
X004206Y015904D01*
X004357Y015904D01*
X004496Y015962D01*
X004536Y016002D01*
X004819Y016002D01*
X004797Y015981D01*
X004797Y015802D01*
X005257Y015802D01*
X004826Y015555D02*
X004098Y015555D01*
X004098Y015713D02*
X004797Y015713D01*
X004797Y015872D02*
X004098Y015872D01*
X003998Y016030D02*
X003999Y016030D01*
X003911Y016189D02*
X003839Y016189D01*
X003876Y016347D02*
X003903Y016347D01*
X003638Y016347D02*
X003618Y016347D01*
X003618Y016285D02*
X003618Y016725D01*
X003178Y016725D01*
X003178Y016549D01*
X003441Y016285D01*
X003618Y016285D01*
X003618Y016506D02*
X003638Y016506D01*
X003638Y016664D02*
X003618Y016664D01*
X003628Y016735D02*
X003675Y016782D01*
X005277Y016782D01*
X005297Y016762D02*
X005297Y016802D01*
X005757Y016802D01*
X005757Y016981D01*
X005777Y016981D01*
X005777Y016989D02*
X005777Y016575D01*
X005790Y016562D01*
X005736Y016562D01*
X005757Y016584D01*
X005757Y016762D01*
X005297Y016762D01*
X005757Y016823D02*
X005777Y016823D01*
X005777Y016664D02*
X005757Y016664D01*
X005757Y016981D02*
X005732Y017006D01*
X005794Y017006D01*
X005777Y016989D01*
X005786Y017566D02*
X005740Y017566D01*
X005757Y017584D01*
X005757Y017762D01*
X005297Y017762D01*
X005297Y017802D01*
X005257Y017802D01*
X005257Y018262D01*
X005085Y018262D01*
X005253Y018430D01*
X005387Y018374D01*
X005560Y018374D01*
X005721Y018441D01*
X005843Y018564D01*
X005910Y018724D01*
X005910Y019370D01*
X005854Y019505D01*
X007050Y019505D01*
X007026Y019493D01*
X006965Y019448D01*
X006911Y019395D01*
X006867Y019334D01*
X006833Y019267D01*
X006809Y019195D01*
X006797Y019120D01*
X006797Y018802D01*
X007257Y018802D01*
X007257Y018762D01*
X006797Y018762D01*
X006797Y018445D01*
X006809Y018370D01*
X006833Y018298D01*
X006867Y018231D01*
X006911Y018170D01*
X006934Y018147D01*
X006777Y017989D01*
X006485Y018282D01*
X006070Y018282D01*
X005777Y017989D01*
X005777Y017575D01*
X005786Y017566D01*
X005777Y017615D02*
X005757Y017615D01*
X005777Y017774D02*
X005297Y017774D01*
X005297Y017802D02*
X005757Y017802D01*
X005757Y017981D01*
X005476Y018262D01*
X005297Y018262D01*
X005297Y017802D01*
X005297Y017932D02*
X005257Y017932D01*
X005257Y018091D02*
X005297Y018091D01*
X005297Y018249D02*
X005257Y018249D01*
X005230Y018408D02*
X005307Y018408D01*
X005490Y018249D02*
X006037Y018249D01*
X005878Y018091D02*
X005648Y018091D01*
X005757Y017932D02*
X005777Y017932D01*
X005640Y018408D02*
X006803Y018408D01*
X006797Y018566D02*
X005844Y018566D01*
X005910Y018725D02*
X006797Y018725D01*
X006797Y018883D02*
X005910Y018883D01*
X005910Y019042D02*
X006797Y019042D01*
X006811Y019200D02*
X005910Y019200D01*
X005910Y019359D02*
X006885Y019359D01*
X007505Y019505D02*
X007993Y019505D01*
X007854Y019366D01*
X007777Y019182D01*
X007777Y018383D01*
X007854Y018199D01*
X007920Y018132D01*
X007777Y017989D01*
X007620Y018147D01*
X007644Y018170D01*
X007688Y018231D01*
X007722Y018298D01*
X007746Y018370D01*
X007757Y018445D01*
X007757Y018762D01*
X007297Y018762D01*
X007297Y018802D01*
X007757Y018802D01*
X007757Y019120D01*
X007746Y019195D01*
X007722Y019267D01*
X007688Y019334D01*
X007644Y019395D01*
X007590Y019448D01*
X007529Y019493D01*
X007505Y019505D01*
X007670Y019359D02*
X007851Y019359D01*
X007785Y019200D02*
X007744Y019200D01*
X007757Y019042D02*
X007777Y019042D01*
X007777Y018883D02*
X007757Y018883D01*
X007757Y018725D02*
X007777Y018725D01*
X007777Y018566D02*
X007757Y018566D01*
X007752Y018408D02*
X007777Y018408D01*
X007833Y018249D02*
X007697Y018249D01*
X007676Y018091D02*
X007878Y018091D01*
X007777Y017989D02*
X007777Y017575D01*
X007768Y017566D01*
X007786Y017566D01*
X007777Y017575D01*
X007777Y017989D01*
X007777Y017932D02*
X007777Y017932D01*
X007777Y017774D02*
X007777Y017774D01*
X007777Y017615D02*
X007777Y017615D01*
X007761Y017006D02*
X007794Y017006D01*
X007777Y016989D01*
X007761Y017006D01*
X007777Y016989D02*
X007777Y016575D01*
X007765Y016562D01*
X007790Y016562D01*
X007777Y016575D01*
X007777Y016989D01*
X007777Y016981D02*
X007777Y016981D01*
X007777Y016823D02*
X007777Y016823D01*
X007777Y016664D02*
X007777Y016664D01*
X007765Y016002D02*
X007790Y016002D01*
X007777Y015989D01*
X007765Y016002D01*
X007777Y015989D02*
X007777Y015735D01*
X007777Y015735D01*
X007777Y015989D01*
X007777Y015872D02*
X007777Y015872D01*
X007785Y015357D02*
X007667Y015239D01*
X003124Y015239D01*
X002628Y015735D01*
X002998Y016030D02*
X003258Y016030D01*
X003158Y015872D02*
X003098Y015872D01*
X003098Y015713D02*
X003158Y015713D01*
X003417Y016189D02*
X002839Y016189D01*
X002904Y016347D02*
X003380Y016347D01*
X003221Y016506D02*
X003063Y016506D01*
X003098Y016664D02*
X003178Y016664D01*
X003178Y016823D02*
X003098Y016823D01*
X003047Y016981D02*
X003237Y016981D01*
X003396Y017140D02*
X002888Y017140D01*
X002814Y017285D02*
X002638Y017285D01*
X002638Y017725D01*
X003078Y017725D01*
X003078Y017549D01*
X002814Y017285D01*
X002827Y017298D02*
X003400Y017298D01*
X003242Y017457D02*
X002986Y017457D01*
X003078Y017615D02*
X003158Y017615D01*
X003158Y017774D02*
X003078Y017774D01*
X003067Y017932D02*
X003160Y017932D01*
X003319Y018091D02*
X002909Y018091D01*
X002558Y018185D02*
X002441Y018185D01*
X002417Y018161D01*
X002417Y018919D01*
X002434Y018902D01*
X002456Y018902D01*
X002456Y018287D01*
X002558Y018185D01*
X002494Y018249D02*
X002417Y018249D01*
X002417Y018408D02*
X002456Y018408D01*
X002456Y018566D02*
X002417Y018566D01*
X002417Y018725D02*
X002456Y018725D01*
X002456Y018883D02*
X002417Y018883D01*
X002628Y017735D02*
X003628Y016735D01*
X003618Y016823D02*
X003638Y016823D01*
X003638Y016981D02*
X003618Y016981D01*
X003618Y017140D02*
X003638Y017140D01*
X003855Y017298D02*
X004464Y017298D01*
X004375Y017457D02*
X004014Y017457D01*
X004098Y017615D02*
X004375Y017615D01*
X004375Y017774D02*
X004098Y017774D01*
X004096Y017932D02*
X004375Y017932D01*
X004375Y018091D02*
X003937Y018091D01*
X003769Y018299D02*
X003769Y018299D01*
X003843Y018372D02*
X003843Y018372D01*
X003878Y018408D02*
X004438Y018408D01*
X004375Y018249D02*
X003646Y018249D01*
X003977Y018507D02*
X003977Y018507D01*
X003977Y018507D01*
X003977Y018566D02*
X004597Y018566D01*
X004755Y018725D02*
X003977Y018725D01*
X003977Y018697D02*
X003977Y018697D01*
X003977Y018844D02*
X003977Y018844D01*
X003977Y018844D01*
X003938Y018883D02*
X004914Y018883D01*
X005037Y019042D02*
X004668Y019042D01*
X004669Y019200D02*
X005037Y019200D01*
X005037Y019359D02*
X004668Y019359D01*
X005473Y019047D02*
X004655Y018229D01*
X004655Y017503D01*
X004872Y017286D01*
X013159Y017286D01*
X014439Y018566D01*
X014577Y018566D01*
X015110Y017932D02*
X016188Y017932D01*
X016178Y017774D02*
X014951Y017774D01*
X015268Y018091D02*
X016347Y018091D01*
X016178Y017615D02*
X013884Y017615D01*
X013726Y017457D02*
X014213Y017457D01*
X014055Y017298D02*
X013567Y017298D01*
X013409Y017140D02*
X013982Y017140D01*
X013982Y016981D02*
X011777Y016981D01*
X011777Y016823D02*
X012157Y016823D01*
X012358Y016823D02*
X013157Y016823D01*
X013358Y016823D02*
X013982Y016823D01*
X013902Y016664D02*
X013614Y016664D01*
X013704Y016506D02*
X013811Y016506D01*
X013788Y016347D02*
X013728Y016347D01*
X013728Y016189D02*
X013788Y016189D01*
X014542Y016736D02*
X014542Y016947D01*
X016175Y016947D01*
X016158Y016930D01*
X016158Y016661D01*
X015957Y016460D01*
X015947Y016470D01*
X015763Y016546D01*
X014965Y016546D01*
X014781Y016470D01*
X014728Y016417D01*
X014728Y016449D01*
X014656Y016622D01*
X014542Y016736D01*
X014542Y016823D02*
X016158Y016823D01*
X016158Y016664D02*
X014614Y016664D01*
X014704Y016506D02*
X014867Y016506D01*
X014944Y015555D02*
X014658Y015555D01*
X014707Y015396D02*
X014473Y015396D01*
X015862Y016506D02*
X016002Y016506D01*
X017458Y015265D02*
X017823Y015265D01*
X017839Y015281D01*
X017839Y015189D01*
X017823Y015205D01*
X017475Y015205D01*
X017475Y015224D01*
X017458Y015265D01*
X017469Y015238D02*
X017839Y015238D01*
X017356Y014128D02*
X017267Y014128D01*
X017198Y013970D02*
X017069Y013970D01*
X017098Y013811D02*
X017158Y013811D01*
X017158Y013653D02*
X017098Y013653D01*
X017051Y013494D02*
X017204Y013494D01*
X017363Y013336D02*
X016893Y013336D01*
X016851Y013177D02*
X017405Y013177D01*
X017247Y013019D02*
X017009Y013019D01*
X017098Y012860D02*
X017158Y012860D01*
X017158Y012702D02*
X017098Y012702D01*
X017098Y012543D02*
X017158Y012543D01*
X017314Y012385D02*
X016942Y012385D01*
X016745Y012226D02*
X017839Y012226D01*
X017296Y012068D02*
X016960Y012068D01*
X017098Y011909D02*
X017158Y011909D01*
X017158Y011751D02*
X017098Y011751D01*
X017098Y011592D02*
X017131Y011592D01*
X017511Y011265D02*
X017823Y011265D01*
X017839Y011281D01*
X017839Y011189D01*
X017823Y011205D01*
X017451Y011205D01*
X017511Y011265D01*
X017246Y011018D02*
X017158Y010930D01*
X017158Y010661D01*
X017098Y010601D01*
X017098Y010930D01*
X017035Y010993D01*
X017185Y010993D01*
X017246Y011018D01*
X017186Y010958D02*
X017070Y010958D01*
X017098Y010800D02*
X017158Y010800D01*
X017138Y010641D02*
X017098Y010641D01*
X017132Y010239D02*
X016270Y010239D01*
X016033Y010003D01*
X016033Y009432D01*
X015876Y009274D01*
X012805Y009274D01*
X012427Y009282D02*
X012131Y009282D01*
X012131Y009282D01*
X012427Y009282D01*
X012427Y009282D01*
X012777Y009653D02*
X012777Y009989D01*
X012485Y010282D01*
X012179Y010282D01*
X012179Y010354D01*
X012155Y010413D01*
X012455Y010413D01*
X012490Y010448D01*
X012525Y010413D01*
X013054Y010413D01*
X013027Y010348D01*
X013027Y010239D01*
X012777Y009989D01*
X012777Y009653D01*
X012777Y009653D01*
X012777Y009690D02*
X012777Y009690D01*
X012777Y009849D02*
X012777Y009849D01*
X012760Y010007D02*
X012795Y010007D01*
X012953Y010166D02*
X012601Y010166D01*
X012179Y010324D02*
X013027Y010324D01*
X013277Y009782D02*
X013277Y009589D01*
X013757Y009554D02*
X013777Y009575D01*
X013777Y009989D01*
X013550Y010217D01*
X013558Y010225D01*
X014013Y010225D01*
X013777Y009989D01*
X013777Y009575D01*
X013798Y009554D01*
X013757Y009554D01*
X013777Y009690D02*
X013777Y009690D01*
X013777Y009849D02*
X013777Y009849D01*
X013760Y010007D02*
X013795Y010007D01*
X013953Y010166D02*
X013601Y010166D01*
X014281Y010948D02*
X014281Y011715D01*
X014281Y012463D01*
X013900Y012089D02*
X013868Y012057D01*
X013836Y012089D01*
X013868Y012122D01*
X013900Y012089D01*
X013878Y012068D02*
X013858Y012068D01*
X013868Y011374D02*
X013910Y011332D01*
X013868Y011290D01*
X013826Y011332D01*
X013868Y011374D01*
X014886Y010599D02*
X014886Y010485D01*
X014879Y010468D01*
X014881Y010469D01*
X015722Y010469D01*
X015898Y010626D01*
X015848Y010601D01*
X015776Y010578D01*
X015702Y010566D01*
X015384Y010566D01*
X015384Y011026D01*
X015344Y011026D01*
X015344Y010566D01*
X015026Y010566D01*
X014952Y010578D01*
X014886Y010599D01*
X014885Y010483D02*
X015736Y010483D01*
X015384Y010641D02*
X015344Y010641D01*
X015344Y010800D02*
X015384Y010800D01*
X015384Y010958D02*
X015344Y010958D01*
X015384Y011026D02*
X015384Y011066D01*
X016144Y011066D01*
X016144Y011084D01*
X016135Y011142D01*
X016246Y011031D01*
X016255Y011027D01*
X016158Y010930D01*
X016158Y010875D01*
X016066Y010783D01*
X016075Y010795D01*
X016109Y010862D01*
X016132Y010934D01*
X016144Y011008D01*
X016144Y011026D01*
X015384Y011026D01*
X016077Y010800D02*
X016083Y010800D01*
X016136Y010958D02*
X016186Y010958D01*
X016161Y011117D02*
X016139Y011117D01*
X016628Y011735D02*
X016628Y011948D01*
X016033Y012542D01*
X016164Y012016D02*
X016204Y011976D01*
X016158Y011930D01*
X016158Y011793D01*
X016122Y011808D01*
X016107Y011808D01*
X016164Y011947D01*
X016164Y012016D01*
X016158Y011909D02*
X016148Y011909D01*
X017628Y010735D02*
X017132Y010239D01*
X017187Y009959D02*
X017069Y009959D01*
X017098Y009930D01*
X017098Y009601D01*
X017158Y009661D01*
X017158Y009930D01*
X017187Y009959D01*
X017158Y009849D02*
X017098Y009849D01*
X017098Y009690D02*
X017158Y009690D01*
X017136Y009243D02*
X017136Y008428D01*
X016939Y008231D01*
X016329Y008231D01*
X015974Y007877D01*
X015974Y007483D01*
X015777Y007286D01*
X014781Y007286D01*
X014277Y006782D01*
X013942Y007154D02*
X013613Y007154D01*
X013515Y007313D02*
X014040Y007313D01*
X013882Y007471D02*
X013673Y007471D01*
X013777Y007630D02*
X013777Y007630D01*
X013777Y007788D02*
X013777Y007788D01*
X013777Y007942D02*
X013777Y007942D01*
X013730Y008290D02*
X015836Y008290D01*
X016033Y008487D01*
X016033Y008960D01*
X016628Y009554D01*
X016628Y009735D01*
X016735Y009265D02*
X016823Y009265D01*
X016856Y009298D01*
X016856Y009172D01*
X016823Y009205D01*
X016675Y009205D01*
X016735Y009265D01*
X016684Y009215D02*
X016856Y009215D01*
X017136Y009243D02*
X017628Y009735D01*
X017494Y010205D02*
X017554Y010265D01*
X017823Y010265D01*
X017839Y010281D01*
X017839Y010189D01*
X017823Y010205D01*
X017494Y010205D01*
X017554Y009265D02*
X017494Y009205D01*
X017823Y009205D01*
X017839Y009189D01*
X017839Y009281D01*
X017823Y009265D01*
X017554Y009265D01*
X017503Y009215D02*
X017839Y009215D01*
X017389Y008309D02*
X017433Y008265D01*
X017823Y008265D01*
X017839Y008281D01*
X017839Y008189D01*
X017823Y008205D01*
X017433Y008205D01*
X017158Y007930D01*
X017158Y007540D01*
X017433Y007265D01*
X017823Y007265D01*
X017839Y007281D01*
X017839Y007189D01*
X017823Y007205D01*
X017433Y007205D01*
X017158Y006930D01*
X017158Y006540D01*
X017166Y006532D01*
X017146Y006513D01*
X017070Y006513D01*
X017098Y006540D01*
X017098Y006930D01*
X016823Y007205D01*
X016433Y007205D01*
X016158Y006930D01*
X016158Y006540D01*
X016186Y006513D01*
X015715Y006513D01*
X015777Y006575D01*
X015777Y006989D01*
X015761Y007006D01*
X015833Y007006D01*
X015936Y007049D01*
X016015Y007128D01*
X016212Y007325D01*
X016254Y007427D01*
X016254Y007472D01*
X016441Y007285D01*
X016618Y007285D01*
X016618Y007725D01*
X016638Y007725D01*
X016638Y007745D01*
X017078Y007745D01*
X017078Y007922D01*
X017032Y007967D01*
X017097Y007994D01*
X017176Y008073D01*
X017373Y008269D01*
X017389Y008309D01*
X017367Y008264D02*
X017839Y008264D01*
X017333Y008105D02*
X017209Y008105D01*
X017176Y008073D02*
X017176Y008073D01*
X017175Y007947D02*
X017053Y007947D01*
X017078Y007788D02*
X017158Y007788D01*
X017078Y007725D02*
X017078Y007549D01*
X016814Y007285D01*
X016638Y007285D01*
X016638Y007725D01*
X017078Y007725D01*
X017078Y007630D02*
X017158Y007630D01*
X017227Y007471D02*
X017000Y007471D01*
X016842Y007313D02*
X017386Y007313D01*
X017382Y007154D02*
X016874Y007154D01*
X017032Y006996D02*
X017224Y006996D01*
X017158Y006837D02*
X017098Y006837D01*
X017098Y006679D02*
X017158Y006679D01*
X017154Y006520D02*
X017077Y006520D01*
X017107Y006013D02*
X017174Y005946D01*
X017158Y005930D01*
X017158Y005540D01*
X017433Y005265D01*
X017823Y005265D01*
X017839Y005281D01*
X017839Y005189D01*
X017823Y005205D01*
X017433Y005205D01*
X017158Y004930D01*
X017158Y004619D01*
X017098Y004559D01*
X017098Y004930D01*
X016823Y005205D01*
X016433Y005205D01*
X016158Y004930D01*
X016158Y004619D01*
X016146Y004607D01*
X015777Y004607D01*
X015777Y004989D01*
X015634Y005133D01*
X015663Y005145D01*
X015733Y005216D01*
X016003Y005485D01*
X016213Y005485D01*
X016433Y005265D01*
X016823Y005265D01*
X017098Y005540D01*
X017098Y005930D01*
X017015Y006013D01*
X017107Y006013D01*
X017098Y005886D02*
X017158Y005886D01*
X017158Y005728D02*
X017098Y005728D01*
X017098Y005569D02*
X017158Y005569D01*
X017288Y005411D02*
X016968Y005411D01*
X016934Y005094D02*
X017322Y005094D01*
X017163Y004935D02*
X017093Y004935D01*
X017098Y004777D02*
X017158Y004777D01*
X017157Y004618D02*
X017098Y004618D01*
X017451Y004205D02*
X017511Y004265D01*
X017823Y004265D01*
X017839Y004281D01*
X017839Y004189D01*
X017823Y004205D01*
X017451Y004205D01*
X017199Y003971D02*
X017158Y003930D01*
X017158Y003619D01*
X017098Y003559D01*
X017098Y003930D01*
X017082Y003946D01*
X017138Y003946D01*
X017199Y003971D01*
X017158Y003826D02*
X017098Y003826D01*
X017098Y003667D02*
X017158Y003667D01*
X017511Y003265D02*
X017823Y003265D01*
X017839Y003281D01*
X017839Y003189D01*
X017823Y003205D01*
X017451Y003205D01*
X017511Y003265D01*
X017836Y003192D02*
X017839Y003192D01*
X017199Y002971D02*
X017158Y002930D01*
X017158Y002540D01*
X017433Y002265D01*
X017823Y002265D01*
X017839Y002281D01*
X017839Y002189D01*
X017823Y002205D01*
X017433Y002205D01*
X017158Y001930D01*
X017158Y001619D01*
X017098Y001559D01*
X017098Y001930D01*
X016823Y002205D01*
X016511Y002205D01*
X016451Y002265D01*
X016823Y002265D01*
X017098Y002540D01*
X017098Y002930D01*
X017082Y002946D01*
X017138Y002946D01*
X017199Y002971D01*
X017158Y002875D02*
X017098Y002875D01*
X017098Y002716D02*
X017158Y002716D01*
X017158Y002558D02*
X017098Y002558D01*
X016956Y002399D02*
X017299Y002399D01*
X017310Y002082D02*
X016946Y002082D01*
X017098Y001924D02*
X017158Y001924D01*
X017158Y001765D02*
X017098Y001765D01*
X017098Y001607D02*
X017146Y001607D01*
X017511Y001265D02*
X017459Y001213D01*
X017463Y001205D01*
X017823Y001205D01*
X017839Y001189D01*
X017839Y001281D01*
X017823Y001265D01*
X017511Y001265D01*
X017158Y000629D02*
X017092Y000629D01*
X017056Y000540D01*
X017158Y000540D01*
X017158Y000540D01*
X017158Y000629D01*
X016200Y000540D02*
X015742Y000540D01*
X015777Y000575D01*
X015777Y000946D01*
X015918Y000946D01*
X015951Y000913D01*
X016043Y000875D01*
X016177Y000875D01*
X016158Y000829D01*
X016158Y000642D01*
X016200Y000540D01*
X016158Y000656D02*
X015777Y000656D01*
X015777Y000814D02*
X016158Y000814D01*
X016158Y001605D02*
X016158Y001852D01*
X015993Y002017D01*
X015750Y002017D01*
X015777Y001989D01*
X015777Y001611D01*
X016142Y001611D01*
X016158Y001605D01*
X016158Y001607D02*
X016153Y001607D01*
X016158Y001765D02*
X015777Y001765D01*
X015777Y001924D02*
X016086Y001924D01*
X016476Y002241D02*
X017839Y002241D01*
X016207Y002491D02*
X016146Y002517D01*
X015719Y002517D01*
X015777Y002575D01*
X015777Y002946D01*
X016174Y002946D01*
X016158Y002930D01*
X016158Y002540D01*
X016207Y002491D01*
X016158Y002558D02*
X015760Y002558D01*
X015777Y002716D02*
X016158Y002716D01*
X016158Y002875D02*
X015777Y002875D01*
X015777Y003619D02*
X015777Y003946D01*
X016174Y003946D01*
X016158Y003930D01*
X016158Y003619D01*
X015777Y003619D01*
X015777Y003667D02*
X016158Y003667D01*
X016158Y003826D02*
X015777Y003826D01*
X015777Y004618D02*
X016157Y004618D01*
X016158Y004777D02*
X015777Y004777D01*
X015777Y004935D02*
X016163Y004935D01*
X016322Y005094D02*
X015673Y005094D01*
X015770Y005252D02*
X017839Y005252D01*
X017839Y006189D02*
X017823Y006205D01*
X017789Y006205D01*
X017789Y006265D01*
X017823Y006265D01*
X017839Y006281D01*
X017839Y006189D01*
X017839Y006203D02*
X017825Y006203D01*
X016638Y007313D02*
X016618Y007313D01*
X016618Y007471D02*
X016638Y007471D01*
X016638Y007630D02*
X016618Y007630D01*
X016414Y007313D02*
X016200Y007313D01*
X016254Y007471D02*
X016256Y007471D01*
X016382Y007154D02*
X016041Y007154D01*
X016224Y006996D02*
X015771Y006996D01*
X015777Y006837D02*
X016158Y006837D01*
X016158Y006679D02*
X015777Y006679D01*
X015722Y006520D02*
X016178Y006520D01*
X016241Y006013D02*
X015754Y006013D01*
X015777Y005989D01*
X015777Y005955D01*
X015850Y005985D01*
X016213Y005985D01*
X016241Y006013D01*
X016288Y005411D02*
X015928Y005411D01*
X014895Y005107D02*
X014777Y004989D01*
X014660Y005107D01*
X014895Y005107D01*
X014881Y005094D02*
X014673Y005094D01*
X014777Y004989D02*
X014777Y004607D01*
X014777Y004607D01*
X014777Y004989D01*
X014777Y004935D02*
X014777Y004935D01*
X014777Y004777D02*
X014777Y004777D01*
X014777Y004618D02*
X014777Y004618D01*
X014777Y003946D02*
X014777Y003619D01*
X014777Y003619D01*
X014777Y003946D01*
X014777Y003946D01*
X014777Y003826D02*
X014777Y003826D01*
X014777Y003667D02*
X014777Y003667D01*
X014777Y002946D02*
X014777Y002636D01*
X014777Y002636D01*
X014777Y002946D01*
X014777Y002946D01*
X014777Y002875D02*
X014777Y002875D01*
X014777Y002716D02*
X014777Y002716D01*
X014424Y002282D02*
X014148Y002282D01*
X014424Y002282D01*
X014424Y002282D01*
X014148Y002282D02*
X014148Y002282D01*
X013777Y002664D02*
X013777Y002664D01*
X013777Y002946D01*
X013777Y002946D01*
X013777Y002664D01*
X013777Y002716D02*
X013777Y002716D01*
X013777Y002875D02*
X013777Y002875D01*
X013391Y002282D02*
X013391Y002282D01*
X013070Y002282D01*
X012777Y001989D01*
X012485Y002282D01*
X012070Y002282D01*
X012485Y002282D01*
X012777Y002575D01*
X012777Y002929D01*
X012777Y002575D01*
X013070Y002282D01*
X013391Y002282D01*
X013028Y002241D02*
X012526Y002241D01*
X012601Y002399D02*
X012954Y002399D01*
X012795Y002558D02*
X012760Y002558D01*
X012777Y002716D02*
X012777Y002716D01*
X012777Y002875D02*
X012777Y002875D01*
X012777Y002929D02*
X012777Y002929D01*
X012424Y003282D02*
X012070Y003282D01*
X012424Y003282D01*
X012424Y003282D01*
X012003Y003350D02*
X011524Y003350D01*
X011476Y003302D02*
X011757Y003584D01*
X011757Y003762D01*
X011297Y003762D01*
X011297Y003302D01*
X011476Y003302D01*
X011476Y003262D02*
X011297Y003262D01*
X011297Y002802D01*
X011257Y002802D01*
X011257Y002762D01*
X011297Y002762D01*
X011297Y002302D01*
X011476Y002302D01*
X011757Y002584D01*
X011757Y002762D01*
X011297Y002762D01*
X011297Y002802D01*
X011757Y002802D01*
X011757Y002981D01*
X011476Y003262D01*
X011547Y003192D02*
X011979Y003192D01*
X011821Y003033D02*
X011706Y003033D01*
X011757Y002875D02*
X011777Y002875D01*
X011777Y002716D02*
X011757Y002716D01*
X011731Y002558D02*
X011795Y002558D01*
X011954Y002399D02*
X011573Y002399D01*
X011476Y002262D02*
X011297Y002262D01*
X011297Y001802D01*
X011257Y001802D01*
X011257Y001762D01*
X011297Y001762D01*
X011297Y001302D01*
X011476Y001302D01*
X011757Y001584D01*
X011757Y001762D01*
X011297Y001762D01*
X011297Y001802D01*
X011757Y001802D01*
X011757Y001981D01*
X011476Y002262D01*
X011498Y002241D02*
X012028Y002241D01*
X011870Y002082D02*
X011657Y002082D01*
X011757Y001924D02*
X011777Y001924D01*
X011777Y001765D02*
X011297Y001765D01*
X011257Y001765D02*
X010300Y001765D01*
X010362Y001607D02*
X010797Y001607D01*
X010797Y001584D02*
X011079Y001302D01*
X011257Y001302D01*
X011257Y001762D01*
X010797Y001762D01*
X010797Y001584D01*
X010933Y001448D02*
X010362Y001448D01*
X010362Y001290D02*
X012063Y001290D01*
X012070Y001282D02*
X012485Y001282D01*
X012070Y001282D01*
X011919Y001131D02*
X011608Y001131D01*
X011476Y001262D02*
X011297Y001262D01*
X011297Y000802D01*
X011757Y000802D01*
X011757Y000981D01*
X011476Y001262D01*
X011257Y001262D02*
X011079Y001262D01*
X010797Y000981D01*
X010797Y000802D01*
X011257Y000802D01*
X011257Y001262D01*
X011257Y001131D02*
X011297Y001131D01*
X011297Y000973D02*
X011257Y000973D01*
X011257Y000814D02*
X011297Y000814D01*
X011757Y000814D02*
X011777Y000814D01*
X011777Y000656D02*
X011757Y000656D01*
X011757Y000973D02*
X011777Y000973D01*
X011905Y001448D02*
X011622Y001448D01*
X011757Y001607D02*
X011777Y001607D01*
X011297Y001607D02*
X011257Y001607D01*
X011257Y001448D02*
X011297Y001448D01*
X011257Y001802D02*
X010797Y001802D01*
X010797Y001981D01*
X011079Y002262D01*
X011257Y002262D01*
X011257Y001802D01*
X011257Y001924D02*
X011297Y001924D01*
X011297Y002082D02*
X011257Y002082D01*
X011257Y002241D02*
X011297Y002241D01*
X011257Y002302D02*
X011257Y002762D01*
X010797Y002762D01*
X010797Y002584D01*
X011079Y002302D01*
X011257Y002302D01*
X011257Y002399D02*
X011297Y002399D01*
X011297Y002558D02*
X011257Y002558D01*
X011257Y002716D02*
X011297Y002716D01*
X011257Y002802D02*
X010797Y002802D01*
X010797Y002981D01*
X011079Y003262D01*
X011257Y003262D01*
X011257Y002802D01*
X011257Y002875D02*
X011297Y002875D01*
X011297Y003033D02*
X011257Y003033D01*
X011257Y003192D02*
X011297Y003192D01*
X011257Y003302D02*
X011079Y003302D01*
X010797Y003584D01*
X010797Y003762D01*
X011257Y003762D01*
X011297Y003762D01*
X011297Y003802D01*
X011257Y003802D01*
X011257Y003762D01*
X011257Y003302D01*
X011257Y003350D02*
X011297Y003350D01*
X011297Y003509D02*
X011257Y003509D01*
X011257Y003667D02*
X011297Y003667D01*
X011297Y003802D02*
X011757Y003802D01*
X011757Y003981D01*
X011476Y004262D01*
X011297Y004262D01*
X011297Y003802D01*
X011297Y003826D02*
X011257Y003826D01*
X011257Y003802D02*
X011257Y004262D01*
X011079Y004262D01*
X010797Y003981D01*
X010797Y003802D01*
X011257Y003802D01*
X011257Y003984D02*
X011297Y003984D01*
X011297Y004143D02*
X011257Y004143D01*
X011257Y004302D02*
X011079Y004302D01*
X010797Y004584D01*
X010797Y004762D01*
X011257Y004762D01*
X011297Y004762D01*
X011297Y004302D01*
X011476Y004302D01*
X011757Y004584D01*
X011757Y004762D01*
X011297Y004762D01*
X011297Y004802D01*
X011257Y004802D01*
X011257Y004762D01*
X011257Y004302D01*
X011257Y004460D02*
X011297Y004460D01*
X011297Y004618D02*
X011257Y004618D01*
X011257Y004777D02*
X010726Y004777D01*
X010797Y004802D02*
X010797Y004981D01*
X011079Y005262D01*
X011257Y005262D01*
X011257Y004802D01*
X010797Y004802D01*
X010797Y004935D02*
X010660Y004935D01*
X010519Y005094D02*
X010910Y005094D01*
X011068Y005252D02*
X010332Y005252D01*
X010613Y005411D02*
X010970Y005411D01*
X011079Y005302D02*
X010797Y005584D01*
X010797Y005762D01*
X011257Y005762D01*
X011257Y005302D01*
X011079Y005302D01*
X011257Y005252D02*
X011297Y005252D01*
X011297Y005262D02*
X011476Y005262D01*
X011757Y004981D01*
X011757Y004802D01*
X011297Y004802D01*
X011297Y005262D01*
X011297Y005411D02*
X011257Y005411D01*
X011257Y005569D02*
X011297Y005569D01*
X011297Y005728D02*
X011257Y005728D01*
X010797Y005728D02*
X010777Y005728D01*
X010777Y005886D02*
X010797Y005886D01*
X010812Y005569D02*
X010771Y005569D01*
X010277Y005782D02*
X010277Y006782D01*
X010285Y006774D01*
X010285Y006302D01*
X009991Y006362D02*
X009535Y006362D01*
X009476Y006302D02*
X009757Y006584D01*
X009757Y006762D01*
X009297Y006762D01*
X009297Y006302D01*
X009476Y006302D01*
X009536Y006203D02*
X009991Y006203D01*
X009832Y006045D02*
X009694Y006045D01*
X009757Y005886D02*
X009777Y005886D01*
X009777Y005728D02*
X009757Y005728D01*
X009743Y005569D02*
X009784Y005569D01*
X009942Y005411D02*
X009584Y005411D01*
X009297Y005886D02*
X009257Y005886D01*
X009257Y006045D02*
X009297Y006045D01*
X009297Y006203D02*
X009257Y006203D01*
X009257Y006302D02*
X009079Y006302D01*
X008797Y006584D01*
X008797Y006762D01*
X009257Y006762D01*
X009297Y006762D01*
X009297Y006802D01*
X009257Y006802D01*
X009257Y006762D01*
X009257Y006302D01*
X009257Y006362D02*
X009297Y006362D01*
X009297Y006520D02*
X009257Y006520D01*
X009257Y006679D02*
X009297Y006679D01*
X009277Y006782D02*
X008277Y006782D01*
X008297Y006802D02*
X008757Y006802D01*
X008757Y006981D01*
X008476Y007262D01*
X008297Y007262D01*
X008297Y006802D01*
X008297Y006837D02*
X008257Y006837D01*
X008257Y006679D02*
X008297Y006679D01*
X008297Y006520D02*
X008257Y006520D01*
X008257Y006362D02*
X008297Y006362D01*
X008297Y006203D02*
X008257Y006203D01*
X008257Y006045D02*
X008297Y006045D01*
X008297Y005886D02*
X008257Y005886D01*
X008536Y006203D02*
X009019Y006203D01*
X009019Y006362D02*
X008535Y006362D01*
X008694Y006520D02*
X008861Y006520D01*
X008797Y006679D02*
X008757Y006679D01*
X008797Y006802D02*
X009257Y006802D01*
X009257Y007262D01*
X009079Y007262D01*
X008797Y006981D01*
X008797Y006802D01*
X008797Y006837D02*
X008757Y006837D01*
X008743Y006996D02*
X008812Y006996D01*
X008970Y007154D02*
X008585Y007154D01*
X008515Y007313D02*
X011068Y007313D01*
X010970Y007154D02*
X010613Y007154D01*
X010771Y006996D02*
X010812Y006996D01*
X010797Y006837D02*
X010777Y006837D01*
X010777Y006679D02*
X010797Y006679D01*
X010861Y006520D02*
X010722Y006520D01*
X011257Y006837D02*
X011297Y006837D01*
X011297Y006996D02*
X011257Y006996D01*
X011257Y007154D02*
X011297Y007154D01*
X011297Y007313D02*
X011257Y007313D01*
X011257Y007471D02*
X011297Y007471D01*
X011297Y007630D02*
X011257Y007630D01*
X011277Y007782D02*
X011754Y007306D01*
X013789Y007306D01*
X013771Y006996D02*
X013783Y006996D01*
X013777Y006837D02*
X013777Y006837D01*
X013777Y006679D02*
X013777Y006679D01*
X013722Y006520D02*
X013833Y006520D01*
X013801Y006013D02*
X013777Y005989D01*
X013777Y005607D01*
X013777Y005607D01*
X013777Y005989D01*
X013754Y006013D01*
X013801Y006013D01*
X013777Y005886D02*
X013777Y005886D01*
X013777Y005728D02*
X013777Y005728D01*
X013660Y005107D02*
X013895Y005107D01*
X013777Y004989D01*
X013660Y005107D01*
X013673Y005094D02*
X013881Y005094D01*
X013777Y004989D02*
X013777Y004607D01*
X013777Y004989D01*
X013777Y004935D02*
X013777Y004935D01*
X013777Y004777D02*
X013777Y004777D01*
X013777Y004618D02*
X013777Y004618D01*
X013777Y004607D02*
X013777Y004607D01*
X013777Y003946D02*
X013777Y003619D01*
X013777Y003619D01*
X013777Y003946D01*
X013777Y003946D01*
X013777Y003826D02*
X013777Y003826D01*
X013777Y003667D02*
X013777Y003667D01*
X012895Y004107D02*
X012777Y003989D01*
X012766Y004000D01*
X012873Y004107D01*
X012895Y004107D01*
X012777Y003989D02*
X012777Y003604D01*
X012777Y003989D01*
X012777Y003984D02*
X012777Y003984D01*
X012777Y003826D02*
X012777Y003826D01*
X012777Y003667D02*
X012777Y003667D01*
X012777Y003604D02*
X012777Y003604D01*
X012341Y004282D02*
X012070Y004282D01*
X012341Y004282D01*
X012341Y004282D01*
X012052Y004301D02*
X010585Y004301D01*
X010688Y004460D02*
X010921Y004460D01*
X010797Y004618D02*
X010729Y004618D01*
X010959Y004143D02*
X010324Y004143D01*
X010073Y004143D02*
X008624Y004143D01*
X008777Y003984D02*
X010800Y003984D01*
X010797Y003826D02*
X008777Y003826D01*
X008777Y003667D02*
X010797Y003667D01*
X010872Y003509D02*
X008711Y003509D01*
X008552Y003350D02*
X011031Y003350D01*
X011008Y003192D02*
X008083Y003192D01*
X007924Y003033D02*
X010849Y003033D01*
X010797Y002875D02*
X007766Y002875D01*
X007607Y002716D02*
X010797Y002716D01*
X010823Y002558D02*
X007449Y002558D01*
X007230Y002735D02*
X008277Y003782D01*
X007930Y004143D02*
X007624Y004143D01*
X007503Y004301D02*
X008052Y004301D01*
X007851Y004460D02*
X007662Y004460D01*
X007777Y003984D02*
X007777Y003984D01*
X007777Y003826D02*
X007777Y003826D01*
X007230Y002735D02*
X003628Y002735D01*
X003956Y002399D02*
X010982Y002399D01*
X011057Y002241D02*
X002417Y002241D01*
X002628Y002735D02*
X003144Y003251D01*
X002762Y003265D02*
X002702Y003205D01*
X002433Y003205D01*
X002417Y003189D01*
X002417Y003281D01*
X002433Y003265D01*
X002762Y003265D01*
X002420Y003192D02*
X002417Y003192D01*
X003098Y002716D02*
X003158Y002716D01*
X003158Y002558D02*
X003098Y002558D01*
X002956Y002399D02*
X003299Y002399D01*
X003310Y002082D02*
X002946Y002082D01*
X003098Y001924D02*
X003158Y001924D01*
X003158Y001765D02*
X003098Y001765D01*
X003098Y001607D02*
X003158Y001607D01*
X003250Y001448D02*
X003005Y001448D01*
X004055Y000973D02*
X004822Y000973D01*
X004981Y000814D02*
X004098Y000814D01*
X004098Y000656D02*
X005139Y000656D01*
X006061Y000656D02*
X007108Y000656D01*
X006949Y000814D02*
X006220Y000814D01*
X006378Y000973D02*
X006791Y000973D01*
X006744Y001131D02*
X006425Y001131D01*
X006425Y001290D02*
X006744Y001290D01*
X006744Y001448D02*
X006425Y001448D01*
X006425Y001607D02*
X006744Y001607D01*
X006806Y001765D02*
X006363Y001765D01*
X006205Y001924D02*
X006964Y001924D01*
X007123Y002082D02*
X006046Y002082D01*
X008015Y002082D02*
X009091Y002082D01*
X008933Y001924D02*
X008173Y001924D01*
X008332Y001765D02*
X008774Y001765D01*
X008712Y001607D02*
X008394Y001607D01*
X008394Y001448D02*
X008712Y001448D01*
X008712Y001290D02*
X008394Y001290D01*
X008394Y001131D02*
X008712Y001131D01*
X008759Y000973D02*
X008347Y000973D01*
X008188Y000814D02*
X008918Y000814D01*
X009076Y000656D02*
X008030Y000656D01*
X009998Y000656D02*
X010797Y000656D01*
X010797Y000814D02*
X010157Y000814D01*
X010315Y000973D02*
X010797Y000973D01*
X010947Y001131D02*
X010362Y001131D01*
X010142Y001924D02*
X010797Y001924D01*
X010898Y002082D02*
X009983Y002082D01*
X011682Y003509D02*
X011844Y003509D01*
X011777Y003667D02*
X011757Y003667D01*
X011757Y003826D02*
X011777Y003826D01*
X011777Y003984D02*
X011755Y003984D01*
X011596Y004143D02*
X011930Y004143D01*
X011893Y004460D02*
X011633Y004460D01*
X011757Y004618D02*
X011777Y004618D01*
X011777Y004777D02*
X011297Y004777D01*
X011297Y004935D02*
X011257Y004935D01*
X011257Y005094D02*
X011297Y005094D01*
X011487Y005252D02*
X011509Y005252D01*
X011645Y005094D02*
X011881Y005094D01*
X011777Y004935D02*
X011757Y004935D01*
X012660Y005107D02*
X012895Y005107D01*
X012777Y004989D01*
X012777Y004607D01*
X012777Y004607D01*
X012777Y004989D01*
X012660Y005107D01*
X012673Y005094D02*
X012881Y005094D01*
X012777Y004935D02*
X012777Y004935D01*
X012777Y004777D02*
X012777Y004777D01*
X012777Y004618D02*
X012777Y004618D01*
X012777Y005607D02*
X012777Y005989D01*
X012754Y006013D01*
X012801Y006013D01*
X012777Y005989D01*
X012777Y005607D01*
X012777Y005607D01*
X012777Y005728D02*
X012777Y005728D01*
X012777Y005886D02*
X012777Y005886D01*
X012722Y006520D02*
X012833Y006520D01*
X012777Y006679D02*
X012777Y006679D01*
X012777Y006837D02*
X012777Y006837D01*
X012771Y006996D02*
X012783Y006996D01*
X012942Y007154D02*
X012613Y007154D01*
X012515Y007313D02*
X013040Y007313D01*
X012882Y007471D02*
X012673Y007471D01*
X012777Y007630D02*
X012777Y007630D01*
X012777Y007788D02*
X012777Y007788D01*
X012777Y007947D02*
X012777Y007947D01*
X012662Y008105D02*
X012893Y008105D01*
X013051Y008264D02*
X012503Y008264D01*
X012624Y008422D02*
X012931Y008422D01*
X013070Y008282D02*
X013326Y008282D01*
X013326Y008282D01*
X013070Y008282D01*
X012777Y008581D02*
X012777Y008581D01*
X012777Y008739D02*
X012777Y008739D01*
X011832Y009044D02*
X011777Y008989D01*
X011777Y008575D01*
X011793Y008560D01*
X011734Y008560D01*
X011757Y008584D01*
X011757Y008762D01*
X011297Y008762D01*
X011297Y008802D01*
X011757Y008802D01*
X011757Y008981D01*
X011694Y009044D01*
X011832Y009044D01*
X011777Y008898D02*
X011757Y008898D01*
X011757Y008739D02*
X011777Y008739D01*
X011777Y008581D02*
X011754Y008581D01*
X011757Y007947D02*
X011760Y007947D01*
X011777Y007788D02*
X011297Y007788D01*
X011257Y007788D02*
X008777Y007788D01*
X008777Y007630D02*
X010797Y007630D01*
X010910Y007471D02*
X008673Y007471D01*
X008297Y007154D02*
X008257Y007154D01*
X008257Y006996D02*
X008297Y006996D01*
X007781Y007286D02*
X004179Y007286D01*
X003628Y006735D01*
X003919Y006362D02*
X004991Y006362D01*
X004991Y006203D02*
X003825Y006203D01*
X003983Y006045D02*
X004832Y006045D01*
X004777Y005886D02*
X004098Y005886D01*
X004098Y005728D02*
X004777Y005728D01*
X004784Y005569D02*
X004611Y005569D01*
X004228Y005569D02*
X004098Y005569D01*
X004081Y005411D02*
X003968Y005411D01*
X004041Y005252D02*
X002417Y005252D01*
X002417Y006203D02*
X002431Y006203D01*
X003934Y005094D02*
X004070Y005094D01*
X004093Y004935D02*
X004188Y004935D01*
X004077Y006520D02*
X004833Y006520D01*
X004777Y006679D02*
X004098Y006679D01*
X004126Y006837D02*
X004777Y006837D01*
X004783Y006996D02*
X004284Y006996D01*
X003628Y007735D02*
X006230Y007735D01*
X006277Y007782D01*
X005893Y008105D02*
X003923Y008105D01*
X003979Y008422D02*
X005931Y008422D01*
X006132Y008264D02*
X002417Y008264D01*
X002628Y009735D02*
X003132Y010239D01*
X002762Y010265D02*
X002702Y010205D01*
X002433Y010205D01*
X002417Y010189D01*
X002417Y010281D01*
X002433Y010265D01*
X002762Y010265D01*
X003098Y010641D02*
X003158Y010641D01*
X003158Y010800D02*
X003098Y010800D01*
X003070Y010958D02*
X003186Y010958D01*
X003832Y011275D02*
X005099Y011275D01*
X005037Y011434D02*
X003991Y011434D01*
X004098Y011592D02*
X005037Y011592D01*
X005037Y011751D02*
X004098Y011751D01*
X004098Y011909D02*
X005037Y011909D01*
X005037Y012068D02*
X003960Y012068D01*
X003914Y012385D02*
X004996Y012385D01*
X005102Y012226D02*
X002417Y012226D01*
X003098Y012543D02*
X003184Y012543D01*
X003178Y012702D02*
X003098Y012702D01*
X003098Y012860D02*
X003178Y012860D01*
X003275Y013019D02*
X003009Y013019D01*
X002851Y013177D02*
X003433Y013177D01*
X003363Y013336D02*
X002893Y013336D01*
X003051Y013494D02*
X003204Y013494D01*
X003158Y013653D02*
X003098Y013653D01*
X003098Y013811D02*
X003158Y013811D01*
X003198Y013970D02*
X003058Y013970D01*
X002900Y014128D02*
X003356Y014128D01*
X003412Y014287D02*
X002844Y014287D01*
X003002Y014445D02*
X003253Y014445D01*
X003158Y014604D02*
X003098Y014604D01*
X003098Y014762D02*
X003158Y014762D01*
X003158Y014921D02*
X003098Y014921D01*
X002762Y015205D02*
X002433Y015205D01*
X002417Y015189D01*
X002417Y015281D01*
X002433Y015265D01*
X002702Y015265D01*
X002762Y015205D01*
X002729Y015238D02*
X002417Y015238D01*
X004078Y016664D02*
X004797Y016664D01*
X004623Y017140D02*
X003860Y017140D01*
X004281Y016282D02*
X012061Y016282D01*
X012258Y016086D01*
X011788Y016002D02*
X011788Y015725D01*
X011777Y015735D01*
X011777Y015989D01*
X011765Y016002D01*
X011788Y016002D01*
X011777Y015872D02*
X011788Y015872D01*
X011777Y016664D02*
X011902Y016664D01*
X012614Y016664D02*
X012902Y016664D01*
X012811Y016506D02*
X012704Y016506D01*
X012728Y016347D02*
X012788Y016347D01*
X012788Y016189D02*
X012728Y016189D01*
X012728Y016030D02*
X012788Y016030D01*
X012788Y015872D02*
X012728Y015872D01*
X012724Y015713D02*
X012791Y015713D01*
X012857Y015555D02*
X012658Y015555D01*
X013014Y014880D02*
X012836Y014702D01*
X012779Y014702D01*
X012640Y014644D01*
X012534Y014538D01*
X012532Y014535D01*
X011737Y014535D01*
X011777Y014575D01*
X011777Y014888D01*
X011796Y014880D01*
X013014Y014880D01*
X012897Y014762D02*
X011777Y014762D01*
X011777Y014604D02*
X012599Y014604D01*
X012854Y014324D02*
X012884Y014353D01*
X012987Y013970D02*
X013077Y013970D01*
X013077Y013811D02*
X011777Y013811D01*
X011777Y013653D02*
X013164Y013653D01*
X012721Y013970D02*
X011777Y013970D01*
X011696Y013494D02*
X013951Y013494D01*
X013942Y013653D02*
X014110Y013653D01*
X014139Y013811D02*
X014029Y013811D01*
X014029Y013970D02*
X014139Y013970D01*
X014699Y013653D02*
X014751Y013653D01*
X014692Y013494D02*
X014839Y013494D01*
X014646Y013336D02*
X014585Y013336D01*
X014577Y013177D02*
X014426Y013177D01*
X014428Y013019D02*
X014564Y013019D01*
X013891Y012860D02*
X013813Y012860D01*
X013850Y013019D02*
X011748Y013019D01*
X011590Y013177D02*
X013805Y013177D01*
X013821Y013336D02*
X011538Y013336D01*
X011017Y013336D02*
X010538Y013336D01*
X010590Y013177D02*
X010965Y013177D01*
X010806Y013019D02*
X010748Y013019D01*
X010777Y012860D02*
X010777Y012860D01*
X011116Y012782D02*
X010797Y012424D01*
X011116Y012782D02*
X011277Y012782D01*
X011456Y011967D02*
X011660Y011967D01*
X011660Y011965D01*
X011454Y011965D01*
X011456Y011967D01*
X011579Y011465D02*
X011579Y010739D01*
X011660Y010820D01*
X011660Y011286D01*
X011686Y011312D01*
X011660Y011337D01*
X011660Y011465D01*
X011579Y011465D01*
X011579Y011434D02*
X011660Y011434D01*
X011660Y011275D02*
X011579Y011275D01*
X011579Y011117D02*
X011660Y011117D01*
X011660Y010958D02*
X011579Y010958D01*
X011579Y010800D02*
X011639Y010800D01*
X011451Y010421D02*
X011423Y010354D01*
X011423Y010262D01*
X011297Y010262D01*
X011297Y009802D01*
X011257Y009802D01*
X011257Y010228D01*
X011451Y010421D01*
X011423Y010324D02*
X011354Y010324D01*
X011297Y010166D02*
X011257Y010166D01*
X011257Y010007D02*
X011297Y010007D01*
X011297Y009849D02*
X011257Y009849D01*
X011297Y009802D02*
X011757Y009802D01*
X011757Y009900D01*
X011777Y009900D01*
X011777Y009636D01*
X011757Y009616D01*
X011757Y009762D01*
X011297Y009762D01*
X011297Y009802D01*
X011757Y009849D02*
X011777Y009849D01*
X011777Y009690D02*
X011757Y009690D01*
X010934Y009118D02*
X010850Y009034D01*
X010850Y009202D01*
X010900Y009153D01*
X010934Y009118D01*
X010872Y009056D02*
X010850Y009056D01*
X010350Y008898D02*
X008777Y008898D01*
X008777Y008739D02*
X010350Y008739D01*
X010350Y008581D02*
X008777Y008581D01*
X008624Y008422D02*
X010410Y008422D01*
X010569Y008264D02*
X008503Y008264D01*
X008662Y008105D02*
X010727Y008105D01*
X010797Y007947D02*
X008777Y007947D01*
X009297Y007262D02*
X009476Y007262D01*
X009757Y006981D01*
X009757Y006802D01*
X009297Y006802D01*
X009297Y007262D01*
X009297Y007154D02*
X009257Y007154D01*
X009257Y006996D02*
X009297Y006996D01*
X009297Y006837D02*
X009257Y006837D01*
X009585Y007154D02*
X009942Y007154D01*
X009783Y006996D02*
X009743Y006996D01*
X009757Y006837D02*
X009777Y006837D01*
X009777Y006679D02*
X009757Y006679D01*
X009694Y006520D02*
X009833Y006520D01*
X008861Y006045D02*
X008694Y006045D01*
X008757Y005886D02*
X008797Y005886D01*
X008797Y005728D02*
X008757Y005728D01*
X008743Y005569D02*
X008812Y005569D01*
X008970Y005411D02*
X008584Y005411D01*
X007839Y005094D02*
X007673Y005094D01*
X005833Y006520D02*
X005722Y006520D01*
X005777Y006679D02*
X005777Y006679D01*
X005777Y006837D02*
X005777Y006837D01*
X005771Y006996D02*
X005783Y006996D01*
X005906Y009215D02*
X006002Y009215D01*
X005940Y009373D02*
X007291Y009373D01*
X007766Y009690D02*
X009841Y009690D01*
X009754Y009532D02*
X007924Y009532D01*
X008083Y009373D02*
X009733Y009373D01*
X009767Y009215D02*
X008552Y009215D01*
X008711Y009056D02*
X009873Y009056D01*
X010092Y009849D02*
X008168Y009849D01*
X008271Y010007D02*
X010350Y010007D01*
X010350Y009849D02*
X010306Y009849D01*
X010350Y010166D02*
X008302Y010166D01*
X008279Y010324D02*
X010365Y010324D01*
X010490Y010483D02*
X008189Y010483D01*
X007931Y010641D02*
X009951Y010641D01*
X010199Y010928D02*
X010199Y011865D01*
X009919Y011870D02*
X009917Y011819D01*
X009919Y011814D01*
X009919Y011287D01*
X009738Y011287D01*
X009777Y011383D01*
X009777Y012182D01*
X009701Y012366D01*
X009635Y012432D01*
X009777Y012575D01*
X009777Y012989D01*
X009777Y012575D01*
X010044Y012308D01*
X009925Y012045D01*
X009921Y011925D01*
X009919Y011921D01*
X009919Y011870D01*
X009919Y011909D02*
X009777Y011909D01*
X009777Y011751D02*
X009919Y011751D01*
X009919Y011592D02*
X009777Y011592D01*
X009777Y011434D02*
X009919Y011434D01*
X009935Y012068D02*
X009777Y012068D01*
X009759Y012226D02*
X010007Y012226D01*
X009968Y012385D02*
X009682Y012385D01*
X009745Y012543D02*
X009810Y012543D01*
X009777Y012702D02*
X009777Y012702D01*
X009777Y012860D02*
X009777Y012860D01*
X009748Y013019D02*
X009806Y013019D01*
X009965Y013177D02*
X009590Y013177D01*
X009538Y013336D02*
X010017Y013336D01*
X009859Y013494D02*
X009696Y013494D01*
X009777Y013653D02*
X009777Y013653D01*
X009777Y013811D02*
X009777Y013811D01*
X009777Y013970D02*
X009777Y013970D01*
X009737Y014535D02*
X009777Y014575D01*
X009777Y014989D01*
X009777Y014575D01*
X009818Y014535D01*
X009737Y014535D01*
X009777Y014604D02*
X009777Y014604D01*
X009777Y014762D02*
X009777Y014762D01*
X009777Y014921D02*
X009777Y014921D01*
X009688Y015079D02*
X009867Y015079D01*
X010025Y015238D02*
X009529Y015238D01*
X009598Y015396D02*
X009957Y015396D01*
X009798Y015555D02*
X009757Y015555D01*
X009777Y015713D02*
X009777Y015713D01*
X009777Y015872D02*
X009777Y015872D01*
X009765Y016562D02*
X009777Y016575D01*
X009777Y016989D01*
X009761Y017006D01*
X009794Y017006D01*
X009777Y016989D01*
X009777Y016575D01*
X009790Y016562D01*
X009765Y016562D01*
X009777Y016664D02*
X009777Y016664D01*
X009777Y016823D02*
X009777Y016823D01*
X009777Y016981D02*
X009777Y016981D01*
X009768Y017566D02*
X009777Y017575D01*
X009777Y017989D01*
X009635Y018132D01*
X009701Y018199D01*
X009777Y018383D01*
X009777Y018501D01*
X010033Y018245D01*
X009777Y017989D01*
X009777Y017575D01*
X009786Y017566D01*
X009768Y017566D01*
X009777Y017615D02*
X009777Y017615D01*
X009777Y017774D02*
X009777Y017774D01*
X009777Y017932D02*
X009777Y017932D01*
X009676Y018091D02*
X009878Y018091D01*
X010029Y018249D02*
X009722Y018249D01*
X009777Y018408D02*
X009870Y018408D01*
X010710Y018349D02*
X011277Y017782D01*
X011676Y018091D02*
X011945Y018091D01*
X011803Y018232D02*
X012275Y017761D01*
X012558Y017761D01*
X012558Y018516D01*
X011803Y018516D01*
X011803Y018232D01*
X011803Y018249D02*
X011518Y018249D01*
X011803Y018408D02*
X011048Y018408D01*
X011010Y018566D02*
X012558Y018566D01*
X012558Y018616D02*
X012558Y018516D01*
X012658Y018516D01*
X012658Y018616D01*
X012558Y018616D01*
X012558Y019371D01*
X012275Y019371D01*
X011803Y018899D01*
X011803Y018616D01*
X012558Y018616D01*
X012658Y018616D02*
X012658Y019371D01*
X012942Y019371D01*
X013413Y018899D01*
X013413Y018616D01*
X012658Y018616D01*
X012658Y018566D02*
X013752Y018566D01*
X013752Y018408D02*
X013413Y018408D01*
X013413Y018516D02*
X013413Y018232D01*
X012942Y017761D01*
X012658Y017761D01*
X012658Y018516D01*
X013413Y018516D01*
X013413Y018725D02*
X013752Y018725D01*
X013752Y018883D02*
X013413Y018883D01*
X013271Y019042D02*
X013886Y019042D01*
X014044Y019200D02*
X013112Y019200D01*
X012954Y019359D02*
X014203Y019359D01*
X013726Y018249D02*
X013413Y018249D01*
X013271Y018091D02*
X013568Y018091D01*
X013409Y017932D02*
X013113Y017932D01*
X013251Y017774D02*
X012954Y017774D01*
X013092Y017615D02*
X011777Y017615D01*
X011777Y017774D02*
X012262Y017774D01*
X012103Y017932D02*
X011777Y017932D01*
X012558Y017932D02*
X012658Y017932D01*
X012658Y017774D02*
X012558Y017774D01*
X012558Y018091D02*
X012658Y018091D01*
X012658Y018249D02*
X012558Y018249D01*
X012558Y018408D02*
X012658Y018408D01*
X012658Y018725D02*
X012558Y018725D01*
X012558Y018883D02*
X012658Y018883D01*
X012658Y019042D02*
X012558Y019042D01*
X012558Y019200D02*
X012658Y019200D01*
X012658Y019359D02*
X012558Y019359D01*
X012262Y019359D02*
X011083Y019359D01*
X011090Y019200D02*
X012104Y019200D01*
X011945Y019042D02*
X011090Y019042D01*
X011090Y019047D02*
X010674Y019047D01*
X011090Y019047D01*
X011090Y018883D02*
X011803Y018883D01*
X011803Y018725D02*
X011081Y018725D01*
X010674Y019047D02*
X010674Y019047D01*
X010264Y019359D02*
X009704Y019359D01*
X008993Y019505D02*
X008854Y019366D01*
X008777Y019182D01*
X008701Y019366D01*
X008562Y019505D01*
X008993Y019505D01*
X008851Y019359D02*
X008704Y019359D01*
X008770Y019200D02*
X008785Y019200D01*
X008777Y019182D02*
X008777Y018383D01*
X008777Y019182D01*
X008777Y019042D02*
X008777Y019042D01*
X008777Y018883D02*
X008777Y018883D01*
X008777Y018725D02*
X008777Y018725D01*
X008777Y018566D02*
X008777Y018566D01*
X008777Y018408D02*
X008777Y018408D01*
X008777Y018383D02*
X008854Y018199D01*
X008920Y018132D01*
X008777Y017989D01*
X008635Y018132D01*
X008701Y018199D01*
X008777Y018383D01*
X008722Y018249D02*
X008833Y018249D01*
X008878Y018091D02*
X008676Y018091D01*
X008777Y017989D02*
X008777Y017575D01*
X008768Y017566D01*
X008786Y017566D01*
X008777Y017575D01*
X008777Y017989D01*
X008777Y017932D02*
X008777Y017932D01*
X008777Y017774D02*
X008777Y017774D01*
X008777Y017615D02*
X008777Y017615D01*
X008761Y017006D02*
X008794Y017006D01*
X008777Y016989D01*
X008761Y017006D01*
X008777Y016989D02*
X008777Y016575D01*
X008765Y016562D01*
X008790Y016562D01*
X008777Y016575D01*
X008777Y016989D01*
X008777Y016981D02*
X008777Y016981D01*
X008777Y016823D02*
X008777Y016823D01*
X008777Y016664D02*
X008777Y016664D01*
X008777Y015872D02*
X008777Y015872D01*
X008777Y015713D02*
X008777Y015713D01*
X008757Y015555D02*
X008798Y015555D01*
X008957Y015396D02*
X008598Y015396D01*
X008529Y015238D02*
X009025Y015238D01*
X008867Y015079D02*
X008688Y015079D01*
X008777Y014989D02*
X008777Y014575D01*
X008737Y014535D01*
X008818Y014535D01*
X008777Y014575D01*
X008777Y014989D01*
X008777Y014921D02*
X008777Y014921D01*
X008777Y014762D02*
X008777Y014762D01*
X008777Y014604D02*
X008777Y014604D01*
X008163Y015282D02*
X008163Y015282D01*
X007777Y014979D02*
X007777Y014575D01*
X007737Y014535D01*
X007818Y014535D01*
X007777Y014575D01*
X007777Y014979D01*
X007777Y014979D01*
X007777Y014921D02*
X007777Y014921D01*
X007777Y014762D02*
X007777Y014762D01*
X007777Y014604D02*
X007777Y014604D01*
X007777Y013970D02*
X007777Y013970D01*
X007777Y013811D02*
X007777Y013811D01*
X007777Y013653D02*
X007777Y013653D01*
X007696Y013494D02*
X007859Y013494D01*
X008017Y013336D02*
X007538Y013336D01*
X007590Y013177D02*
X007965Y013177D01*
X007806Y013019D02*
X007748Y013019D01*
X007777Y012989D02*
X007777Y012575D01*
X007635Y012432D01*
X007701Y012366D01*
X007777Y012182D01*
X007777Y011383D01*
X007738Y011287D01*
X007817Y011287D01*
X007777Y011383D01*
X007777Y012182D01*
X007854Y012366D01*
X007920Y012432D01*
X007777Y012575D01*
X007777Y012989D01*
X007777Y012860D02*
X007777Y012860D01*
X007777Y012702D02*
X007777Y012702D01*
X007745Y012543D02*
X007810Y012543D01*
X007872Y012385D02*
X007682Y012385D01*
X007759Y012226D02*
X007796Y012226D01*
X007777Y012068D02*
X007777Y012068D01*
X007777Y011909D02*
X007777Y011909D01*
X007777Y011751D02*
X007777Y011751D01*
X007777Y011592D02*
X007777Y011592D01*
X007777Y011434D02*
X007777Y011434D01*
X008277Y011782D02*
X009277Y011782D01*
X008777Y011502D02*
X008777Y011383D01*
X008777Y011502D01*
X008777Y011502D01*
X008777Y011434D02*
X008777Y011434D01*
X008777Y011383D02*
X008738Y011287D01*
X008817Y011287D01*
X008777Y011383D01*
X008777Y012062D02*
X008777Y012182D01*
X008701Y012366D01*
X008635Y012432D01*
X008777Y012575D01*
X008777Y012989D01*
X008777Y012575D01*
X008920Y012432D01*
X008854Y012366D01*
X008777Y012182D01*
X008777Y012062D01*
X008777Y012062D01*
X008777Y012068D02*
X008777Y012068D01*
X008759Y012226D02*
X008796Y012226D01*
X008872Y012385D02*
X008682Y012385D01*
X008745Y012543D02*
X008810Y012543D01*
X008777Y012702D02*
X008777Y012702D01*
X008777Y012860D02*
X008777Y012860D01*
X008748Y013019D02*
X008806Y013019D01*
X008965Y013177D02*
X008590Y013177D01*
X008538Y013336D02*
X009017Y013336D01*
X008859Y013494D02*
X008696Y013494D01*
X008777Y013653D02*
X008777Y013653D01*
X008777Y013811D02*
X008777Y013811D01*
X008777Y013970D02*
X008777Y013970D01*
X007017Y013336D02*
X006538Y013336D01*
X006590Y013177D02*
X006965Y013177D01*
X006806Y013019D02*
X006748Y013019D01*
X006777Y012860D02*
X006777Y012860D01*
X006777Y012702D02*
X006777Y012702D01*
X006745Y012543D02*
X006810Y012543D01*
X006872Y012385D02*
X006587Y012385D01*
X006796Y012226D02*
X005845Y012226D01*
X005910Y012068D02*
X006777Y012068D01*
X006777Y011909D02*
X005910Y011909D01*
X005922Y011751D02*
X006777Y011751D01*
X006777Y011592D02*
X006081Y011592D01*
X006239Y011434D02*
X006777Y011434D01*
X007100Y010641D02*
X007742Y010641D01*
X007484Y010483D02*
X007094Y010483D01*
X007007Y010324D02*
X007394Y010324D01*
X007371Y010166D02*
X006710Y010166D01*
X006552Y010007D02*
X007402Y010007D01*
X005991Y009532D02*
X005919Y009532D01*
X005285Y011117D02*
X003911Y011117D01*
X004072Y012543D02*
X004838Y012543D01*
X004797Y012702D02*
X004078Y012702D01*
X004078Y012860D02*
X004797Y012860D01*
X004797Y012802D02*
X005257Y012802D01*
X005257Y013262D01*
X005079Y013262D01*
X004797Y012981D01*
X004797Y012802D01*
X004835Y013019D02*
X003981Y013019D01*
X003822Y013177D02*
X004993Y013177D01*
X005079Y013302D02*
X005257Y013302D01*
X005257Y013762D01*
X004797Y013762D01*
X004797Y013584D01*
X005079Y013302D01*
X005045Y013336D02*
X003893Y013336D01*
X004051Y013494D02*
X004887Y013494D01*
X004797Y013653D02*
X004098Y013653D01*
X004098Y013811D02*
X004797Y013811D01*
X004797Y013970D02*
X004354Y013970D01*
X003638Y013177D02*
X003618Y013177D01*
X003618Y013019D02*
X003638Y013019D01*
X003638Y012860D02*
X003618Y012860D01*
X002423Y011275D02*
X002417Y011275D01*
X005257Y012860D02*
X005297Y012860D01*
X005297Y012802D02*
X005297Y013262D01*
X005476Y013262D01*
X005757Y012981D01*
X005757Y012802D01*
X005297Y012802D01*
X005297Y013019D02*
X005257Y013019D01*
X005257Y013177D02*
X005297Y013177D01*
X005297Y013336D02*
X005257Y013336D01*
X005257Y013494D02*
X005297Y013494D01*
X005297Y013653D02*
X005257Y013653D01*
X005509Y013336D02*
X006017Y013336D01*
X005965Y013177D02*
X005562Y013177D01*
X005720Y013019D02*
X005806Y013019D01*
X005777Y012860D02*
X005757Y012860D01*
X005757Y012702D02*
X005777Y012702D01*
X005810Y012543D02*
X005717Y012543D01*
X005644Y012385D02*
X005968Y012385D01*
X005859Y013494D02*
X005668Y013494D01*
X005757Y013653D02*
X005777Y013653D01*
X005777Y013811D02*
X005757Y013811D01*
X005757Y013970D02*
X005777Y013970D01*
X006696Y013494D02*
X006859Y013494D01*
X006777Y013653D02*
X006777Y013653D01*
X006777Y013811D02*
X006777Y013811D01*
X006777Y013970D02*
X006777Y013970D01*
X006737Y014535D02*
X006777Y014575D01*
X006777Y014959D01*
X006777Y014959D01*
X006777Y014575D01*
X006818Y014535D01*
X006737Y014535D01*
X006777Y014604D02*
X006777Y014604D01*
X006777Y014762D02*
X006777Y014762D01*
X006777Y014921D02*
X006777Y014921D01*
X006721Y015519D02*
X006777Y015575D01*
X006777Y015989D01*
X006765Y016002D01*
X006790Y016002D01*
X006777Y015989D01*
X006777Y015575D01*
X006834Y015519D01*
X006721Y015519D01*
X006757Y015555D02*
X006798Y015555D01*
X006777Y015713D02*
X006777Y015713D01*
X006777Y015872D02*
X006777Y015872D01*
X006765Y016562D02*
X006777Y016575D01*
X006777Y016989D01*
X006761Y017006D01*
X006794Y017006D01*
X006777Y016989D01*
X006777Y016575D01*
X006790Y016562D01*
X006765Y016562D01*
X006777Y016664D02*
X006777Y016664D01*
X006777Y016823D02*
X006777Y016823D01*
X006777Y016981D02*
X006777Y016981D01*
X006768Y017566D02*
X006777Y017575D01*
X006777Y017989D01*
X006777Y017575D01*
X006786Y017566D01*
X006768Y017566D01*
X006777Y017615D02*
X006777Y017615D01*
X006777Y017774D02*
X006777Y017774D01*
X006777Y017932D02*
X006777Y017932D01*
X006676Y018091D02*
X006878Y018091D01*
X006858Y018249D02*
X006518Y018249D01*
X002638Y017615D02*
X002618Y017615D01*
X002618Y017457D02*
X002638Y017457D01*
X002638Y017298D02*
X002618Y017298D01*
X002429Y017298D02*
X002417Y017298D01*
X010530Y011117D02*
X010540Y011117D01*
X010673Y011117D02*
X010673Y011117D01*
X010807Y011117D02*
X010832Y011117D01*
X010832Y010958D02*
X010577Y010958D01*
X010555Y010800D02*
X010807Y010800D01*
X010649Y010641D02*
X010446Y010641D01*
X010673Y011275D02*
X010673Y011275D01*
X010673Y011434D02*
X010673Y011434D01*
X010673Y011592D02*
X010673Y011592D01*
X010198Y011865D02*
X010202Y011910D01*
X010209Y011955D01*
X010219Y011999D01*
X010233Y012043D01*
X010250Y012085D01*
X010270Y012125D01*
X010294Y012164D01*
X010320Y012201D01*
X010350Y012236D01*
X010382Y012268D01*
X010416Y012298D01*
X010453Y012325D01*
X010491Y012349D01*
X010532Y012370D01*
X010574Y012387D01*
X010617Y012401D01*
X010661Y012412D01*
X010706Y012420D01*
X010751Y012423D01*
X010797Y012424D01*
X013772Y008994D02*
X013782Y008994D01*
X013777Y008989D01*
X013772Y008994D01*
X013777Y008989D02*
X013777Y008575D01*
X013772Y008570D01*
X013782Y008570D01*
X013777Y008575D01*
X013777Y008989D01*
X013777Y008898D02*
X013777Y008898D01*
X013777Y008739D02*
X013777Y008739D01*
X013777Y008581D02*
X013777Y008581D01*
X013730Y008290D02*
X013277Y007837D01*
X013277Y007782D01*
X012040Y007313D02*
X011486Y007313D01*
X011585Y007154D02*
X011942Y007154D01*
X011783Y006996D02*
X011743Y006996D01*
X011757Y006837D02*
X011777Y006837D01*
X011777Y006679D02*
X011757Y006679D01*
X011694Y006520D02*
X011833Y006520D01*
X011801Y006013D02*
X011726Y006013D01*
X011757Y005981D01*
X011757Y005893D01*
X011777Y005893D01*
X011777Y005989D01*
X011801Y006013D01*
X011882Y007471D02*
X011645Y007471D01*
X011757Y007630D02*
X011777Y007630D01*
X014542Y010225D02*
X014578Y010188D01*
X014594Y010225D01*
X014542Y010225D01*
X014788Y009554D02*
X014795Y009557D01*
X014798Y009554D01*
X014788Y009554D01*
X014782Y008994D02*
X014777Y008989D01*
X014772Y008994D01*
X014782Y008994D01*
X014777Y008989D02*
X014777Y008575D01*
X014772Y008570D01*
X014782Y008570D01*
X014777Y008575D01*
X014777Y008989D01*
X014777Y008898D02*
X014777Y008898D01*
X014777Y008739D02*
X014777Y008739D01*
X014777Y008581D02*
X014777Y008581D01*
X014757Y008010D02*
X014798Y008010D01*
X014777Y007989D01*
X014757Y008010D01*
X014777Y007989D02*
X014777Y007575D01*
X014768Y007566D01*
X014786Y007566D01*
X014777Y007575D01*
X014777Y007989D01*
X014777Y007947D02*
X014777Y007947D01*
X014777Y007788D02*
X014777Y007788D01*
X014777Y007630D02*
X014777Y007630D01*
X014777Y006886D02*
X014777Y006575D01*
X014715Y006513D01*
X014840Y006513D01*
X014777Y006575D01*
X014777Y006886D01*
X014777Y006886D01*
X014777Y006837D02*
X014777Y006837D01*
X014777Y006679D02*
X014777Y006679D01*
X014722Y006520D02*
X014833Y006520D01*
X014801Y006013D02*
X014777Y005989D01*
X014777Y005607D01*
X014777Y005607D01*
X014777Y005989D01*
X014754Y006013D01*
X014801Y006013D01*
X014777Y005886D02*
X014777Y005886D01*
X014777Y005728D02*
X014777Y005728D01*
X012870Y002082D02*
X012685Y002082D01*
X012777Y001989D02*
X012777Y001575D01*
X012485Y001282D01*
X012777Y000989D01*
X012777Y000575D01*
X012742Y000540D01*
X012813Y000540D01*
X012777Y000575D01*
X012777Y000989D01*
X013070Y001282D01*
X013424Y001282D01*
X013424Y001282D01*
X013070Y001282D01*
X012777Y001575D01*
X012777Y001989D01*
X012777Y001924D02*
X012777Y001924D01*
X012777Y001765D02*
X012777Y001765D01*
X012777Y001607D02*
X012777Y001607D01*
X012650Y001448D02*
X012905Y001448D01*
X013063Y001290D02*
X012492Y001290D01*
X012636Y001131D02*
X012919Y001131D01*
X012777Y000973D02*
X012777Y000973D01*
X012777Y000814D02*
X012777Y000814D01*
X012777Y000656D02*
X012777Y000656D01*
X013742Y000540D02*
X013777Y000575D01*
X013777Y000929D01*
X013777Y000575D01*
X013813Y000540D01*
X013742Y000540D01*
X013777Y000656D02*
X013777Y000656D01*
X013777Y000814D02*
X013777Y000814D01*
X013777Y000929D02*
X013777Y000929D01*
X014777Y000946D02*
X014777Y000575D01*
X014742Y000540D01*
X014813Y000540D01*
X014777Y000575D01*
X014777Y000946D01*
X014777Y000946D01*
X014777Y000814D02*
X014777Y000814D01*
X014777Y000656D02*
X014777Y000656D01*
X014777Y001611D02*
X014777Y001989D01*
X014750Y002017D01*
X014805Y002017D01*
X014777Y001989D01*
X014777Y001611D01*
X014777Y001611D01*
X014777Y001765D02*
X014777Y001765D01*
X014777Y001924D02*
X014777Y001924D01*
X017832Y011275D02*
X017839Y011275D01*
X014202Y017774D02*
X014043Y017774D01*
X017530Y019359D02*
X017839Y019359D01*
D11*
X004438Y019132D02*
X004438Y019572D01*
X004144Y019572D02*
X004144Y019132D01*
X003978Y019205D02*
X003978Y019499D01*
X003904Y019572D01*
X003757Y019572D01*
X003684Y019499D01*
X003684Y019205D01*
X003757Y019132D01*
X003904Y019132D01*
X003978Y019205D01*
X004144Y019572D02*
X004438Y019132D01*
X003747Y018749D02*
X003747Y018602D01*
X003674Y018529D01*
X003454Y018529D01*
X003454Y018382D02*
X003454Y018822D01*
X003674Y018822D01*
X003747Y018749D01*
X003524Y019132D02*
X003377Y019132D01*
X003450Y019132D02*
X003450Y019572D01*
X003377Y019572D02*
X003524Y019572D01*
X003210Y019572D02*
X003210Y019132D01*
X002917Y019572D01*
X002917Y019132D01*
X002750Y019205D02*
X002750Y019499D01*
X002676Y019572D01*
X002530Y019572D01*
X002456Y019499D01*
X002456Y019205D01*
X002530Y019132D01*
X002676Y019132D01*
X002750Y019205D01*
X002686Y018822D02*
X002907Y018822D01*
X002980Y018749D01*
X002980Y018455D01*
X002907Y018382D01*
X002686Y018382D01*
X002686Y018822D01*
X003147Y018822D02*
X003294Y018822D01*
X003220Y018822D02*
X003220Y018382D01*
X003147Y018382D02*
X003294Y018382D01*
D12*
X002628Y000735D03*
X016628Y000735D03*
D13*
X017628Y000735D03*
X017628Y001735D03*
X017628Y002735D03*
X017628Y003735D03*
X017628Y004735D03*
X017628Y005735D03*
X017628Y006735D03*
X017628Y007735D03*
X017628Y008735D03*
X017628Y009735D03*
X017628Y010735D03*
X017628Y011735D03*
X017628Y012735D03*
X017628Y013735D03*
X017628Y014735D03*
X017628Y015735D03*
X017628Y016735D03*
X017628Y017735D03*
X016628Y017735D03*
X016628Y016735D03*
X016628Y015735D03*
X016628Y014735D03*
X016628Y013735D03*
X016628Y012735D03*
X016628Y011735D03*
X016628Y010735D03*
X016628Y009735D03*
X016628Y008735D03*
X016628Y007735D03*
X016628Y006735D03*
X016628Y005735D03*
X016628Y004735D03*
X016628Y003735D03*
X016628Y002735D03*
X016628Y001735D03*
X003628Y001735D03*
X003628Y000735D03*
X002628Y001735D03*
X002628Y002735D03*
X003628Y002735D03*
X003628Y003735D03*
X003628Y004735D03*
X003628Y005735D03*
X003628Y006735D03*
X003628Y007735D03*
X003628Y008735D03*
X003628Y009735D03*
X003628Y010735D03*
X003628Y011735D03*
X003628Y012735D03*
X003628Y013735D03*
X003628Y014735D03*
X003628Y015735D03*
X003628Y016735D03*
X003628Y017735D03*
X002628Y017735D03*
X002628Y016735D03*
X002628Y015735D03*
X002628Y014735D03*
X002628Y013735D03*
X002628Y012735D03*
X002628Y011735D03*
X002628Y010735D03*
X002628Y009735D03*
X002628Y008735D03*
X002628Y007735D03*
X002628Y006735D03*
X002628Y005735D03*
X002628Y004735D03*
X002628Y003735D03*
D14*
X005600Y001361D03*
X007569Y001361D03*
X009537Y001361D03*
X012608Y018566D03*
X014577Y018566D03*
D15*
X010673Y018811D02*
X010673Y019283D01*
X005473Y019283D02*
X005473Y018811D01*
X005473Y011983D02*
X005473Y011511D01*
X010673Y011511D02*
X010673Y011983D01*
D16*
X013455Y011715D03*
X013455Y010948D03*
X014281Y010948D03*
X014281Y011715D03*
X014281Y012463D03*
X013455Y012463D03*
D17*
X012864Y012523D03*
X012116Y012523D03*
X012116Y011715D03*
X012864Y011715D03*
X012864Y010908D03*
X012116Y010908D03*
D18*
X012258Y015816D02*
X012258Y016356D01*
X013258Y016356D02*
X013258Y015816D01*
X014258Y015816D02*
X014258Y016356D01*
D19*
X007836Y010176D03*
X005474Y009389D03*
X005474Y004664D03*
X010199Y004664D03*
X010199Y009389D03*
D20*
X013553Y014019D03*
X013553Y014767D03*
X014419Y014393D03*
D21*
X011277Y014782D03*
X011277Y015782D03*
X010277Y015782D03*
X010277Y014782D03*
X009277Y014782D03*
X009277Y015782D03*
X009277Y016782D03*
X009277Y017782D03*
X010277Y017782D03*
X010277Y016782D03*
X011277Y016782D03*
X011277Y017782D03*
X008277Y017782D03*
X007277Y017782D03*
X006277Y017782D03*
X005277Y017782D03*
X005277Y016782D03*
X005277Y015782D03*
X005277Y014782D03*
X005277Y013782D03*
X005277Y012782D03*
X006277Y012782D03*
X006277Y013782D03*
X006277Y014782D03*
X006277Y015782D03*
X006277Y016782D03*
X007277Y016782D03*
X007277Y015782D03*
X007277Y014782D03*
X007277Y013782D03*
X007277Y012782D03*
X008277Y012782D03*
X008277Y013782D03*
X008277Y014782D03*
X008277Y015782D03*
X008277Y016782D03*
X009277Y013782D03*
X009277Y012782D03*
X010277Y012782D03*
X010277Y013782D03*
X011277Y013782D03*
X011277Y012782D03*
X011277Y009782D03*
X011277Y008782D03*
X011277Y007782D03*
X011277Y006782D03*
X010277Y006782D03*
X009277Y006782D03*
X009277Y005782D03*
X010277Y005782D03*
X011277Y005782D03*
X011277Y004782D03*
X011277Y003782D03*
X011277Y002782D03*
X011277Y001782D03*
X011277Y000782D03*
X012277Y000782D03*
X012277Y001782D03*
X012277Y002782D03*
X012277Y003782D03*
X012277Y004782D03*
X012277Y005782D03*
X012277Y006782D03*
X012277Y007782D03*
X012277Y008782D03*
X012277Y009782D03*
X013277Y009782D03*
X013277Y008782D03*
X013277Y007782D03*
X013277Y006782D03*
X013277Y005782D03*
X013277Y004782D03*
X013277Y003782D03*
X013277Y002782D03*
X013277Y001782D03*
X013277Y000782D03*
X014277Y000782D03*
X014277Y001782D03*
X014277Y002782D03*
X014277Y003782D03*
X014277Y004782D03*
X014277Y005782D03*
X014277Y006782D03*
X014277Y007782D03*
X014277Y008782D03*
X014277Y009782D03*
X015277Y009782D03*
X015277Y008782D03*
X015277Y007782D03*
X015277Y006782D03*
X015277Y005782D03*
X015277Y004782D03*
X015277Y003782D03*
X015277Y002782D03*
X015277Y001782D03*
X015277Y000782D03*
X008277Y003782D03*
X007277Y003782D03*
X007277Y004782D03*
X006277Y004782D03*
X006277Y005782D03*
X005277Y005782D03*
X005277Y006782D03*
X006277Y006782D03*
X007277Y006782D03*
X007277Y005782D03*
X008277Y005782D03*
X008277Y004782D03*
X008277Y006782D03*
X008277Y007782D03*
X007277Y007782D03*
X007277Y008782D03*
X006277Y008782D03*
X008277Y008782D03*
D22*
X006277Y007782D03*
X006277Y003782D03*
D23*
X007277Y011482D02*
X007277Y012082D01*
X008277Y012082D02*
X008277Y011482D01*
X009277Y011482D02*
X009277Y012082D01*
X015064Y012046D02*
X015664Y012046D01*
X015664Y011046D02*
X015064Y011046D01*
X015064Y013046D02*
X015664Y013046D01*
X015664Y014046D02*
X015064Y014046D01*
X015064Y015046D02*
X015664Y015046D01*
X015664Y016046D02*
X015064Y016046D01*
X009277Y018482D02*
X009277Y019082D01*
X008277Y019082D02*
X008277Y018482D01*
X007277Y018482D02*
X007277Y019082D01*
D24*
X017037Y019334D03*
X017037Y018357D03*
D25*
X017035Y018361D03*
X017157Y018873D03*
X017039Y019361D03*
D26*
X017037Y019381D03*
X017037Y019633D03*
X017037Y018365D03*
D27*
X017037Y018369D03*
X017037Y019397D03*
X017037Y019629D03*
D28*
X017037Y019625D03*
X017037Y019408D03*
X017037Y018373D03*
D29*
X017037Y018377D03*
X017159Y018826D03*
X017037Y019621D03*
D30*
X017037Y019428D03*
X017037Y018381D03*
D31*
X017035Y018385D03*
X017039Y019436D03*
D32*
X017037Y018389D03*
D33*
X017035Y018393D03*
X017039Y019609D03*
D34*
X017037Y018397D03*
D35*
X017037Y018400D03*
X017100Y019550D03*
D36*
X017104Y019558D03*
X017104Y019562D03*
X017096Y019570D03*
X017037Y019471D03*
X017037Y018404D03*
D37*
X017035Y018408D03*
X017039Y019479D03*
D38*
X017039Y019483D03*
X017039Y019597D03*
X017035Y018412D03*
D39*
X017037Y018416D03*
X017037Y019487D03*
D40*
X017037Y018420D03*
D41*
X017037Y018424D03*
D42*
X017037Y018428D03*
X017037Y019503D03*
X017037Y019589D03*
D43*
X017039Y019507D03*
X017035Y018432D03*
D44*
X017035Y018436D03*
X017039Y019511D03*
D45*
X017037Y018440D03*
D46*
X017035Y018444D03*
X017039Y019515D03*
D47*
X017035Y018448D03*
D48*
X017037Y018452D03*
D49*
X017035Y018456D03*
D50*
X017035Y018460D03*
D51*
X017037Y018463D03*
D52*
X017035Y018467D03*
X017039Y019538D03*
D53*
X017037Y018471D03*
D54*
X017035Y018475D03*
D55*
X017037Y018479D03*
D56*
X017035Y018483D03*
D57*
X017037Y018487D03*
D58*
X017035Y018491D03*
D59*
X017037Y018495D03*
D60*
X017035Y018499D03*
X017035Y018503D03*
D61*
X017037Y018507D03*
D62*
X017035Y018511D03*
D63*
X017037Y018515D03*
D64*
X017035Y018519D03*
X017035Y018523D03*
D65*
X017037Y018526D03*
D66*
X017035Y018530D03*
D67*
X017037Y018534D03*
X017037Y018538D03*
D68*
X017035Y018542D03*
D69*
X017037Y018546D03*
X017037Y018550D03*
X017037Y018818D03*
D70*
X017039Y018814D03*
X017035Y018558D03*
X017035Y018554D03*
D71*
X017037Y018562D03*
X017037Y018806D03*
X017037Y018810D03*
D72*
X017039Y018802D03*
X017039Y018798D03*
X017035Y018570D03*
X017035Y018566D03*
D73*
X017037Y018574D03*
X017037Y018578D03*
X017037Y018786D03*
X017037Y018790D03*
X017037Y018794D03*
D74*
X017035Y018586D03*
X017035Y018582D03*
D75*
X017037Y018589D03*
D76*
X017035Y018593D03*
X017035Y018597D03*
X017035Y018601D03*
D77*
X017037Y018605D03*
X017037Y018609D03*
D78*
X017035Y018613D03*
X017035Y018617D03*
D79*
X017037Y018621D03*
X017037Y018625D03*
D80*
X017035Y018629D03*
X017035Y018633D03*
D81*
X017037Y018637D03*
X017037Y018641D03*
D82*
X017037Y018645D03*
D83*
X017039Y018649D03*
D84*
X017039Y018652D03*
D85*
X017039Y018656D03*
D86*
X017039Y018660D03*
X017039Y018739D03*
D87*
X017039Y018735D03*
X017039Y018731D03*
X017039Y018668D03*
X017039Y018664D03*
D88*
X017037Y018672D03*
X017037Y018727D03*
D89*
X017039Y018723D03*
X017039Y018719D03*
X017039Y018715D03*
X017039Y018711D03*
X017039Y018708D03*
X017039Y018704D03*
X017039Y018700D03*
X017039Y018696D03*
X017039Y018692D03*
X017039Y018688D03*
X017039Y018684D03*
X017039Y018680D03*
X017039Y018676D03*
D90*
X017037Y018743D03*
D91*
X017037Y018747D03*
D92*
X017039Y018751D03*
D93*
X017039Y018755D03*
D94*
X016817Y018900D03*
X016805Y018893D03*
X016801Y018889D03*
X016758Y018822D03*
X017037Y019204D03*
X017266Y019586D03*
D95*
X017037Y019424D03*
X017155Y018822D03*
D96*
X016840Y018912D03*
X016789Y018881D03*
X016785Y018877D03*
X016781Y018873D03*
X016777Y018869D03*
X016773Y018861D03*
X016770Y018857D03*
X016766Y018849D03*
X016762Y018841D03*
X016758Y018834D03*
X016758Y018830D03*
X016758Y018826D03*
X017037Y019200D03*
X017037Y019672D03*
D97*
X017039Y019416D03*
X017157Y018830D03*
D98*
X017159Y018834D03*
X017037Y019412D03*
D99*
X016775Y018865D03*
X016768Y018853D03*
X016764Y018845D03*
X016760Y018837D03*
D100*
X017157Y018837D03*
D101*
X017157Y018841D03*
X017157Y018845D03*
X017039Y019404D03*
D102*
X017039Y019400D03*
X017157Y018849D03*
D103*
X017157Y018853D03*
D104*
X017159Y018857D03*
X017037Y019385D03*
D105*
X017039Y019377D03*
X017161Y018861D03*
D106*
X017159Y018865D03*
D107*
X017159Y018869D03*
X017037Y019369D03*
X017037Y019637D03*
D108*
X016917Y019586D03*
X016913Y019582D03*
X017157Y018877D03*
D109*
X017122Y018881D03*
X017039Y019298D03*
D110*
X017037Y019078D03*
X017159Y018971D03*
X017348Y018881D03*
D111*
X016831Y018908D03*
X016823Y018904D03*
X016811Y018897D03*
X016795Y018885D03*
D112*
X017124Y018885D03*
X017037Y019656D03*
D113*
X017124Y018889D03*
D114*
X017128Y018893D03*
D115*
X017130Y018897D03*
D116*
X017132Y018900D03*
D117*
X017136Y018904D03*
D118*
X017134Y018908D03*
X017126Y018916D03*
D119*
X017132Y018912D03*
D120*
X017153Y018960D03*
X016775Y018916D03*
D121*
X016896Y018916D03*
X017037Y019137D03*
X017140Y019274D03*
D122*
X017037Y019349D03*
X017053Y018924D03*
X017053Y018920D03*
D123*
X017053Y018928D03*
D124*
X017051Y018932D03*
X017039Y019341D03*
D125*
X017016Y018936D03*
D126*
X017031Y018979D03*
X017157Y018967D03*
X017236Y018936D03*
D127*
X017016Y018940D03*
X017016Y018944D03*
D128*
X017035Y019070D03*
X017161Y018975D03*
X017240Y018940D03*
D129*
X017016Y018948D03*
X017016Y018952D03*
D130*
X017016Y018956D03*
D131*
X016878Y018960D03*
D132*
X017022Y018960D03*
X017037Y019168D03*
X016951Y019286D03*
X017037Y019676D03*
D133*
X017037Y019074D03*
X016872Y018963D03*
D134*
X017022Y018963D03*
X017037Y019156D03*
X016966Y019255D03*
X016959Y019263D03*
X016955Y019271D03*
X017250Y019444D03*
X017254Y019448D03*
X017258Y019452D03*
X017258Y019456D03*
D135*
X017037Y019086D03*
X017037Y019082D03*
X017155Y018963D03*
D136*
X017023Y018967D03*
X017142Y019282D03*
X017142Y019286D03*
D137*
X017027Y018971D03*
D138*
X017029Y018975D03*
X017037Y019109D03*
D139*
X017161Y018979D03*
D140*
X017163Y018983D03*
X017037Y019062D03*
D141*
X017165Y018987D03*
D142*
X017037Y019050D03*
D143*
X017037Y019054D03*
X017037Y019058D03*
D144*
X017037Y019066D03*
D145*
X017037Y019089D03*
D146*
X017037Y019093D03*
D147*
X017037Y019097D03*
X017037Y019101D03*
D148*
X017037Y019105D03*
D149*
X017037Y019113D03*
X017037Y019117D03*
X016710Y019558D03*
D150*
X017037Y019680D03*
X017037Y019121D03*
D151*
X017037Y019125D03*
D152*
X017037Y019129D03*
X017037Y019133D03*
X017132Y019259D03*
D153*
X017037Y019141D03*
D154*
X017037Y019145D03*
X017037Y019149D03*
D155*
X017037Y019152D03*
X017140Y019290D03*
D156*
X017039Y019160D03*
X016953Y019274D03*
X017260Y019460D03*
D157*
X016951Y019278D03*
X017037Y019164D03*
D158*
X017037Y019172D03*
D159*
X017039Y019176D03*
X016953Y019290D03*
D160*
X017037Y019180D03*
D161*
X017037Y019184D03*
D162*
X017037Y019188D03*
D163*
X017039Y019192D03*
D164*
X017037Y019196D03*
D165*
X017039Y019208D03*
X017272Y019582D03*
D166*
X017037Y019211D03*
X016809Y019523D03*
X016805Y019526D03*
D167*
X017037Y019215D03*
D168*
X017037Y019219D03*
X017037Y019223D03*
X017277Y019574D03*
D169*
X017037Y019668D03*
X017037Y019227D03*
D170*
X017037Y019231D03*
D171*
X017037Y019235D03*
X017037Y019239D03*
D172*
X017037Y019243D03*
D173*
X017037Y019247D03*
X017037Y019664D03*
D174*
X017039Y019251D03*
D175*
X017126Y019255D03*
X017134Y019263D03*
X017138Y019267D03*
X017138Y019271D03*
D176*
X016960Y019259D03*
X016957Y019267D03*
D177*
X017142Y019278D03*
D178*
X016953Y019282D03*
X017260Y019463D03*
D179*
X017037Y019294D03*
D180*
X017037Y019302D03*
D181*
X017037Y019306D03*
X017037Y019652D03*
D182*
X017037Y019310D03*
D183*
X017039Y019314D03*
D184*
X017037Y019318D03*
D185*
X017037Y019322D03*
X016947Y019448D03*
X016943Y019452D03*
X017037Y019649D03*
D186*
X016941Y019456D03*
X016949Y019444D03*
X017039Y019326D03*
D187*
X017039Y019330D03*
X016941Y019463D03*
D188*
X017037Y019337D03*
X017037Y019645D03*
D189*
X017039Y019345D03*
D190*
X017037Y019353D03*
X017163Y019523D03*
X017167Y019526D03*
X017037Y019641D03*
D191*
X016909Y019578D03*
X017039Y019357D03*
X017169Y019530D03*
D192*
X017037Y019365D03*
X016907Y019574D03*
D193*
X017039Y019373D03*
D194*
X017039Y019389D03*
D195*
X017037Y019393D03*
D196*
X017039Y019420D03*
D197*
X017039Y019432D03*
X017039Y019617D03*
D198*
X017037Y019440D03*
D199*
X016939Y019460D03*
D200*
X016941Y019467D03*
D201*
X017260Y019467D03*
D202*
X017037Y019475D03*
D203*
X017039Y019491D03*
D204*
X017039Y019495D03*
X017039Y019593D03*
D205*
X017039Y019499D03*
D206*
X017037Y019519D03*
D207*
X016803Y019530D03*
X017275Y019578D03*
D208*
X016803Y019534D03*
D209*
X017167Y019534D03*
D210*
X016720Y019542D03*
X016716Y019546D03*
X016712Y019550D03*
X016712Y019554D03*
D211*
X017094Y019542D03*
X017098Y019546D03*
X017102Y019554D03*
D212*
X016716Y019570D03*
X016712Y019566D03*
X016709Y019562D03*
D213*
X017039Y019601D03*
X017102Y019566D03*
D214*
X017039Y019605D03*
D215*
X017039Y019613D03*
D216*
X017037Y019660D03*
D217*
X012854Y014324D03*
X010817Y013330D03*
X010199Y010928D03*
X011801Y010278D03*
X012805Y009274D03*
X013789Y010121D03*
X014773Y012542D03*
X013789Y007306D03*
X011781Y005515D03*
X013770Y002286D03*
X016289Y005259D03*
X017411Y006243D03*
X017136Y001007D03*
X006722Y010574D03*
X005679Y010889D03*
X004104Y014255D03*
X004281Y016282D03*
X007785Y015357D03*
X004419Y005239D03*
D218*
X009277Y006782D02*
X009781Y007286D01*
X010773Y007286D01*
X011277Y006782D01*
X010325Y006263D02*
X010285Y006302D01*
X010325Y006263D02*
X017392Y006263D01*
X017411Y006243D01*
X016628Y005735D02*
X015899Y005735D01*
X015522Y005357D01*
X011939Y005357D01*
X011781Y005515D01*
X011691Y005196D02*
X011277Y004782D01*
X011691Y005196D02*
X016226Y005196D01*
X016289Y005259D01*
X016628Y004735D02*
X016250Y004357D01*
X012770Y004357D01*
X012277Y003865D01*
X012277Y003782D01*
X012864Y003369D02*
X016262Y003369D01*
X016628Y003735D01*
X017088Y004196D02*
X017628Y004735D01*
X017088Y004196D02*
X013651Y004196D01*
X013277Y003822D01*
X013277Y003782D01*
X012864Y003369D02*
X012277Y002782D01*
X013277Y002782D02*
X013277Y002826D01*
X013648Y003196D01*
X017088Y003196D01*
X017628Y003735D01*
X016096Y002267D02*
X016628Y001735D01*
X016151Y001302D02*
X017195Y001302D01*
X017628Y001735D01*
X017018Y001125D02*
X017136Y001007D01*
X017018Y001125D02*
X016092Y001125D01*
X016022Y001196D01*
X013691Y001196D01*
X013277Y000782D01*
X014025Y001361D02*
X013770Y001617D01*
X013770Y002286D01*
X014277Y002782D02*
X014793Y002267D01*
X016096Y002267D01*
X016092Y001361D02*
X016151Y001302D01*
X016092Y001361D02*
X014025Y001361D01*
X012277Y007782D02*
X011750Y008310D01*
X010876Y008310D01*
X010600Y008586D01*
X010600Y010239D01*
X011092Y010731D01*
X011329Y010652D02*
X011329Y011637D01*
X011407Y011715D01*
X012116Y011715D01*
X011329Y010652D02*
X010797Y010121D01*
X010797Y009609D01*
X011112Y009294D01*
X011789Y009294D01*
X012277Y009782D01*
X011801Y010278D02*
X011781Y010298D01*
X013277Y010298D02*
X013277Y009589D01*
X013277Y010298D02*
X013455Y010475D01*
X014577Y010475D01*
X014636Y010534D01*
X014636Y011341D01*
X014852Y011558D01*
X016073Y011558D01*
X016388Y011243D01*
X017136Y011243D01*
X017628Y011735D01*
X016628Y010735D02*
X016372Y010735D01*
X016181Y010544D01*
X015817Y010219D01*
X014931Y010219D01*
X014813Y010101D01*
X014813Y009904D01*
X014695Y009786D01*
X014281Y009786D01*
X014277Y009782D01*
X013868Y010121D02*
X014045Y010298D01*
X014714Y010298D01*
X015364Y010948D01*
X015364Y011046D01*
X013868Y010121D02*
X013789Y010121D01*
D219*
X012116Y010908D02*
X011781Y010574D01*
X011781Y010298D01*
X011092Y010731D02*
X011092Y011971D01*
X011348Y012227D01*
X011821Y012227D01*
X012116Y012523D01*
D220*
X012136Y012542D01*
X012628Y012444D02*
X012864Y012523D01*
X012628Y012444D02*
X013455Y012463D01*
X013455Y011715D02*
X012864Y011715D01*
X012628Y010948D02*
X012864Y010908D01*
X012628Y010948D02*
X013455Y010948D01*
X010199Y010928D02*
X010159Y010967D01*
X006253Y010967D01*
X005473Y011747D01*
X011277Y015782D02*
X011860Y015200D01*
X013081Y015200D01*
X013258Y015377D01*
X013258Y016086D01*
D221*
X010081Y004782D02*
X008277Y004782D01*
X010081Y004782D02*
X010199Y004664D01*
M02*
