G75*
%MOIN*%
%OFA0B0*%
%FSLAX24Y24*%
%IPPOS*%
%LPD*%
%AMOC8*
5,1,8,0,0,1.08239X$1,22.5*
%
%ADD10C,0.0160*%
%ADD11C,0.0080*%
%ADD12C,0.0040*%
%ADD13C,0.0100*%
%ADD14C,0.0060*%
D10*
X002057Y000180D02*
X018199Y000180D01*
X018199Y019865D01*
X002057Y019865D01*
X002057Y000180D01*
D11*
X013162Y010731D02*
X013162Y011519D01*
X013565Y011125D01*
X013162Y010731D01*
X012007Y013063D02*
X014587Y013063D01*
X014587Y014463D01*
X012007Y014463D01*
X012007Y013063D01*
D12*
X013049Y013879D02*
X013126Y013803D01*
X013280Y013803D01*
X013356Y013879D01*
X013510Y013879D02*
X013510Y013956D01*
X013587Y014033D01*
X013740Y014033D01*
X013817Y014110D01*
X013817Y014186D01*
X013740Y014263D01*
X013587Y014263D01*
X013510Y014186D01*
X013356Y014186D02*
X013280Y014263D01*
X013126Y014263D01*
X013049Y014186D01*
X013049Y014110D01*
X013126Y014033D01*
X013049Y013956D01*
X013049Y013879D01*
X013126Y014033D02*
X013203Y014033D01*
X013510Y013879D02*
X013587Y013803D01*
X013740Y013803D01*
X013817Y013879D01*
X013970Y013879D02*
X013970Y014263D01*
X014277Y014263D02*
X014277Y013879D01*
X014200Y013803D01*
X014047Y013803D01*
X013970Y013879D01*
X013663Y013726D02*
X013663Y014340D01*
X014128Y011875D02*
X012348Y011875D01*
X011745Y010900D02*
X011515Y010900D01*
X011438Y010823D01*
X011438Y010516D01*
X011515Y010440D01*
X011745Y010440D01*
X011745Y010900D01*
X011285Y010823D02*
X011208Y010900D01*
X011055Y010900D01*
X010978Y010823D01*
X010978Y010747D01*
X011285Y010440D01*
X010978Y010440D01*
X012348Y010375D02*
X014128Y010375D01*
X010375Y006897D02*
X010221Y006897D01*
X010298Y006897D02*
X010298Y006436D01*
X010375Y006436D02*
X010221Y006436D01*
X010068Y006513D02*
X009991Y006436D01*
X009838Y006436D01*
X009761Y006513D01*
X009608Y006436D02*
X009301Y006743D01*
X009301Y006820D01*
X009377Y006897D01*
X009531Y006897D01*
X009608Y006820D01*
X009761Y006820D02*
X009838Y006897D01*
X009991Y006897D01*
X010068Y006820D01*
X010068Y006513D01*
X009608Y006436D02*
X009301Y006436D01*
X005612Y009785D02*
X005612Y010015D01*
X005535Y010092D01*
X005382Y010092D01*
X005305Y010015D01*
X005305Y009785D01*
X005152Y009785D02*
X005612Y009785D01*
X005305Y009939D02*
X005152Y010092D01*
X005152Y010246D02*
X005152Y010552D01*
X005152Y010399D02*
X005612Y010399D01*
X005459Y010246D01*
D13*
X008985Y008922D02*
X008985Y007462D01*
X010405Y007462D01*
X010405Y008922D01*
X008985Y008922D01*
D14*
X009995Y008642D02*
X009997Y008662D01*
X010003Y008680D01*
X010012Y008698D01*
X010024Y008713D01*
X010039Y008725D01*
X010057Y008734D01*
X010075Y008740D01*
X010095Y008742D01*
X010115Y008740D01*
X010133Y008734D01*
X010151Y008725D01*
X010166Y008713D01*
X010178Y008698D01*
X010187Y008680D01*
X010193Y008662D01*
X010195Y008642D01*
X010193Y008622D01*
X010187Y008604D01*
X010178Y008586D01*
X010166Y008571D01*
X010151Y008559D01*
X010133Y008550D01*
X010115Y008544D01*
X010095Y008542D01*
X010075Y008544D01*
X010057Y008550D01*
X010039Y008559D01*
X010024Y008571D01*
X010012Y008586D01*
X010003Y008604D01*
X009997Y008622D01*
X009995Y008642D01*
M02*
