G75*
%MOIN*%
%OFA0B0*%
%FSLAX24Y24*%
%IPPOS*%
%LPD*%
%AMOC8*
5,1,8,0,0,1.08239X$1,22.5*
%
%ADD10C,0.0160*%
%ADD11C,0.0000*%
%ADD12R,0.0480X0.0880*%
%ADD13R,0.1417X0.0866*%
%ADD14R,0.0480X0.0160*%
%ADD15R,0.0591X0.0512*%
%ADD16R,0.0945X0.0945*%
%ADD17R,0.0512X0.0591*%
D10*
X002057Y000180D02*
X018199Y000180D01*
X018199Y019865D01*
X003710Y019865D01*
X002057Y018211D01*
X002057Y000180D01*
D11*
X003514Y018979D02*
X003516Y019019D01*
X003522Y019060D01*
X003532Y019099D01*
X003545Y019137D01*
X003563Y019174D01*
X003584Y019208D01*
X003608Y019241D01*
X003635Y019271D01*
X003665Y019298D01*
X003698Y019322D01*
X003732Y019343D01*
X003769Y019361D01*
X003807Y019374D01*
X003846Y019384D01*
X003887Y019390D01*
X003927Y019392D01*
X003967Y019390D01*
X004008Y019384D01*
X004047Y019374D01*
X004085Y019361D01*
X004122Y019343D01*
X004156Y019322D01*
X004189Y019298D01*
X004219Y019271D01*
X004246Y019241D01*
X004270Y019208D01*
X004291Y019174D01*
X004309Y019137D01*
X004322Y019099D01*
X004332Y019060D01*
X004338Y019019D01*
X004340Y018979D01*
X004338Y018939D01*
X004332Y018898D01*
X004322Y018859D01*
X004309Y018821D01*
X004291Y018784D01*
X004270Y018750D01*
X004246Y018717D01*
X004219Y018687D01*
X004189Y018660D01*
X004156Y018636D01*
X004122Y018615D01*
X004085Y018597D01*
X004047Y018584D01*
X004008Y018574D01*
X003967Y018568D01*
X003927Y018566D01*
X003887Y018568D01*
X003846Y018574D01*
X003807Y018584D01*
X003769Y018597D01*
X003732Y018615D01*
X003698Y018636D01*
X003665Y018660D01*
X003635Y018687D01*
X003608Y018717D01*
X003584Y018750D01*
X003563Y018784D01*
X003545Y018821D01*
X003532Y018859D01*
X003522Y018898D01*
X003516Y018939D01*
X003514Y018979D01*
D12*
X012387Y012543D03*
X013297Y012543D03*
X014207Y012543D03*
D13*
X013297Y014983D03*
D14*
X009990Y007963D03*
X009990Y007463D03*
X009990Y006963D03*
X008730Y006963D03*
X008730Y007463D03*
X008730Y007963D03*
D15*
X005974Y008015D03*
X005974Y007267D03*
D16*
X012372Y011125D03*
X014104Y011125D03*
X015679Y018920D03*
X017411Y018920D03*
D17*
X013632Y016322D03*
X012884Y016322D03*
M02*
