%
M48
M72
T01C0.0236
T02C0.0315
T03C0.0335
T04C0.0354
T05C0.0360
T06C0.0400
T07C0.0453
T08C0.0520
T09C0.0827
%
T01
X10199Y10928
X12805Y9274
X13789Y10121
X13002Y12306
X12510Y14235
X10659Y14176
X14793Y12542
X13789Y7306
X11781Y5515
X13770Y2286
X16289Y5259
X17136Y1007
X15935Y18152
T02
X10673Y19047
X5473Y19047
X5473Y11747
X10673Y11747
T03
X9144Y18339
X7175Y18339
T04
X7836Y10176
X5474Y9389
X5474Y4664
X10199Y4664
X10199Y9389
T05
X2628Y735
X3628Y735
X3628Y1735
X3628Y2735
X3628Y3735
X3628Y4735
X3628Y5735
X3628Y6735
X3628Y7735
X3628Y8735
X3628Y9735
X3628Y10735
X3628Y11735
X3628Y12735
X3628Y13735
X3628Y14735
X3628Y15735
X3628Y16735
X3628Y17735
X2628Y17735
X2628Y16735
X2628Y15735
X2628Y14735
X2628Y13735
X2628Y12735
X2628Y11735
X2628Y10735
X2628Y9735
X2628Y8735
X2628Y7735
X2628Y6735
X2628Y5735
X2628Y4735
X2628Y3735
X2628Y2735
X2628Y1735
X16628Y1735
X17628Y1735
X17628Y735
X16628Y735
X16628Y2735
X17628Y2735
X17628Y3735
X17628Y4735
X17628Y5735
X17628Y6735
X17628Y7735
X17628Y8735
X17628Y9735
X17628Y10735
X17628Y11735
X17628Y12735
X17628Y13735
X17628Y14735
X17628Y15735
X17628Y16735
X17628Y17735
X16628Y17735
X16628Y16735
X16628Y15735
X16628Y14735
X16628Y13735
X16628Y12735
X16628Y11735
X16628Y10735
X16628Y9735
X16628Y8735
X16628Y7735
X16628Y6735
X16628Y5735
X16628Y4735
X16628Y3735
T06
X15277Y3782
X14277Y3782
X14277Y2782
X14277Y1782
X14277Y782
X15277Y782
X15277Y1782
X15277Y2782
X15277Y4782
X14277Y4782
X14277Y5782
X14277Y6782
X14277Y7782
X14277Y8782
X14277Y9782
X15277Y9782
X15277Y8782
X15277Y7782
X15277Y6782
X15277Y5782
X13277Y5782
X13277Y6782
X12277Y6782
X12277Y5782
X11277Y5782
X11277Y6782
X11277Y7782
X11277Y8782
X11277Y9782
X12277Y9782
X12277Y8782
X12277Y7782
X13277Y7782
X13277Y8782
X13277Y9782
X15364Y11046
X15364Y12046
X15364Y13046
X15364Y14046
X15364Y15046
X15364Y16046
X11120Y15586
X11120Y16586
X11120Y17586
X10120Y17586
X9120Y17586
X9120Y16586
X10120Y16586
X10120Y15586
X9120Y15586
X9120Y14586
X10120Y14586
X10120Y13586
X9120Y13586
X9120Y12586
X10120Y12586
X11120Y12586
X11120Y13586
X11120Y14586
X8120Y14586
X8120Y15586
X8120Y16586
X8120Y17586
X7120Y17586
X6120Y17586
X6120Y16586
X7120Y16586
X7120Y15586
X6120Y15586
X6120Y14586
X7120Y14586
X7120Y13586
X8120Y13586
X8120Y12586
X7120Y12586
X6120Y12586
X6120Y13586
X5120Y13586
X5120Y14586
X5120Y15586
X5120Y16586
X5120Y17586
X5120Y12586
X11277Y4782
X11277Y3782
X11277Y2782
X11277Y1782
X11277Y782
X12277Y782
X12277Y1782
X12277Y2782
X12277Y3782
X12277Y4782
X13277Y4782
X13277Y3782
X13277Y2782
X13277Y1782
X13277Y782
T07
X9537Y19373
X6781Y19373
T08
X12608Y18566
X14577Y18566
X9537Y1361
X7569Y1361
X5600Y1361
T09
X3927Y18979
M30
