G75*
%MOIN*%
%OFA0B0*%
%FSLAX24Y24*%
%IPPOS*%
%LPD*%
%AMOC8*
5,1,8,0,0,1.08239X$1,22.5*
%
%ADD10C,0.0160*%
%ADD11C,0.0000*%
%ADD12C,0.0540*%
%ADD13OC8,0.0540*%
%ADD14OC8,0.1250*%
%ADD15C,0.0472*%
%ADD16R,0.0472X0.0472*%
%ADD17R,0.0591X0.0512*%
%ADD18C,0.0531*%
%ADD19OC8,0.0600*%
%ADD20C,0.0600*%
%ADD21R,0.0004X0.0421*%
%ADD22R,0.0004X0.0465*%
%ADD23R,0.0004X0.0492*%
%ADD24R,0.0004X0.0516*%
%ADD25R,0.0004X0.0531*%
%ADD26R,0.0004X0.0547*%
%ADD27R,0.0004X0.0563*%
%ADD28R,0.0004X0.0575*%
%ADD29R,0.0004X0.0587*%
%ADD30R,0.0004X0.0598*%
%ADD31R,0.0004X0.0610*%
%ADD32R,0.0004X0.0618*%
%ADD33R,0.0004X0.0626*%
%ADD34R,0.0004X0.0638*%
%ADD35R,0.0004X0.0646*%
%ADD36R,0.0004X0.0650*%
%ADD37R,0.0004X0.0657*%
%ADD38R,0.0004X0.0665*%
%ADD39R,0.0004X0.0673*%
%ADD40R,0.0004X0.0677*%
%ADD41R,0.0004X0.0685*%
%ADD42R,0.0004X0.0689*%
%ADD43R,0.0004X0.0693*%
%ADD44R,0.0004X0.0701*%
%ADD45R,0.0004X0.0705*%
%ADD46R,0.0004X0.0709*%
%ADD47R,0.0004X0.0717*%
%ADD48R,0.0004X0.0720*%
%ADD49R,0.0004X0.0724*%
%ADD50R,0.0004X0.0728*%
%ADD51R,0.0004X0.0732*%
%ADD52R,0.0004X0.0736*%
%ADD53R,0.0004X0.0740*%
%ADD54R,0.0004X0.0744*%
%ADD55R,0.0004X0.0748*%
%ADD56R,0.0004X0.0752*%
%ADD57R,0.0004X0.0756*%
%ADD58R,0.0004X0.0760*%
%ADD59R,0.0004X0.0764*%
%ADD60R,0.0004X0.0768*%
%ADD61R,0.0004X0.0772*%
%ADD62R,0.0004X0.0776*%
%ADD63R,0.0004X0.0780*%
%ADD64R,0.0004X0.0783*%
%ADD65R,0.0004X0.0787*%
%ADD66R,0.0004X0.0791*%
%ADD67R,0.0004X0.0795*%
%ADD68R,0.0004X0.0799*%
%ADD69R,0.0004X0.0803*%
%ADD70R,0.0004X0.0807*%
%ADD71R,0.0004X0.0811*%
%ADD72R,0.0004X0.0815*%
%ADD73R,0.0004X0.0819*%
%ADD74R,0.0004X0.0823*%
%ADD75R,0.0004X0.0827*%
%ADD76R,0.0004X0.0831*%
%ADD77R,0.0004X0.0835*%
%ADD78R,0.0004X0.0839*%
%ADD79R,0.0004X0.0909*%
%ADD80R,0.0004X0.0937*%
%ADD81R,0.0004X0.0953*%
%ADD82R,0.0004X0.0961*%
%ADD83R,0.0004X0.0969*%
%ADD84R,0.0004X0.0976*%
%ADD85R,0.0004X0.0980*%
%ADD86R,0.0004X0.0984*%
%ADD87R,0.0004X0.0965*%
%ADD88R,0.0004X0.0957*%
%ADD89R,0.0004X0.0945*%
%ADD90R,0.0004X0.0921*%
%ADD91R,0.0004X0.0232*%
%ADD92R,0.0004X0.0555*%
%ADD93R,0.0004X0.0224*%
%ADD94R,0.0004X0.0543*%
%ADD95R,0.0004X0.0539*%
%ADD96R,0.0004X0.0220*%
%ADD97R,0.0004X0.0535*%
%ADD98R,0.0004X0.0528*%
%ADD99R,0.0004X0.0520*%
%ADD100R,0.0004X0.0512*%
%ADD101R,0.0004X0.0500*%
%ADD102R,0.0004X0.0488*%
%ADD103R,0.0004X0.0484*%
%ADD104R,0.0004X0.0476*%
%ADD105R,0.0004X0.0449*%
%ADD106R,0.0004X0.0370*%
%ADD107R,0.0004X0.0043*%
%ADD108R,0.0004X0.0228*%
%ADD109R,0.0004X0.0358*%
%ADD110R,0.0004X0.0350*%
%ADD111R,0.0004X0.0343*%
%ADD112R,0.0004X0.0331*%
%ADD113R,0.0004X0.0319*%
%ADD114R,0.0004X0.0311*%
%ADD115R,0.0004X0.0307*%
%ADD116R,0.0004X0.0303*%
%ADD117R,0.0004X0.0063*%
%ADD118R,0.0004X0.0130*%
%ADD119R,0.0004X0.0445*%
%ADD120R,0.0004X0.0437*%
%ADD121R,0.0004X0.0433*%
%ADD122R,0.0004X0.0362*%
%ADD123R,0.0004X0.0047*%
%ADD124R,0.0004X0.0354*%
%ADD125R,0.0004X0.0031*%
%ADD126R,0.0004X0.0346*%
%ADD127R,0.0004X0.0339*%
%ADD128R,0.0004X0.0055*%
%ADD129R,0.0004X0.0177*%
%ADD130R,0.0004X0.0035*%
%ADD131R,0.0004X0.0161*%
%ADD132R,0.0004X0.0051*%
%ADD133R,0.0004X0.0142*%
%ADD134R,0.0004X0.0118*%
%ADD135R,0.0004X0.0091*%
%ADD136R,0.0004X0.0024*%
%ADD137R,0.0004X0.0020*%
%ADD138R,0.0004X0.0008*%
%ADD139R,0.0004X0.0004*%
%ADD140R,0.0004X0.0012*%
%ADD141R,0.0004X0.0028*%
%ADD142R,0.0004X0.0059*%
%ADD143R,0.0004X0.0067*%
%ADD144R,0.0004X0.0075*%
%ADD145R,0.0004X0.0083*%
%ADD146R,0.0004X0.0098*%
%ADD147R,0.0004X0.0106*%
%ADD148R,0.0004X0.0114*%
%ADD149R,0.0004X0.0122*%
%ADD150R,0.0004X0.0138*%
%ADD151R,0.0004X0.0146*%
%ADD152R,0.0004X0.0154*%
%ADD153R,0.0004X0.0165*%
%ADD154R,0.0004X0.0169*%
%ADD155R,0.0004X0.0185*%
%ADD156R,0.0004X0.0189*%
%ADD157R,0.0004X0.0193*%
%ADD158R,0.0004X0.0201*%
%ADD159R,0.0004X0.0209*%
%ADD160R,0.0004X0.0213*%
%ADD161R,0.0004X0.0217*%
%ADD162R,0.0004X0.0236*%
%ADD163R,0.0004X0.0240*%
%ADD164R,0.0004X0.0248*%
%ADD165R,0.0004X0.0256*%
%ADD166R,0.0004X0.0264*%
%ADD167R,0.0004X0.0272*%
%ADD168R,0.0004X0.0280*%
%ADD169R,0.0004X0.0287*%
%ADD170R,0.0004X0.0295*%
%ADD171R,0.0004X0.0299*%
%ADD172R,0.0004X0.0126*%
%ADD173R,0.0004X0.0157*%
%ADD174R,0.0004X0.0134*%
%ADD175R,0.0004X0.0173*%
%ADD176R,0.0004X0.0366*%
%ADD177R,0.0004X0.0374*%
%ADD178R,0.0004X0.0382*%
%ADD179R,0.0004X0.0390*%
%ADD180R,0.0004X0.0394*%
%ADD181R,0.0004X0.0398*%
%ADD182R,0.0004X0.0406*%
%ADD183R,0.0004X0.0409*%
%ADD184R,0.0004X0.0417*%
%ADD185R,0.0004X0.0429*%
%ADD186R,0.0004X0.0441*%
%ADD187R,0.0004X0.0453*%
%ADD188R,0.0004X0.0457*%
%ADD189R,0.0004X0.0469*%
%ADD190R,0.0004X0.0480*%
%ADD191R,0.0004X0.0504*%
%ADD192R,0.0004X0.0508*%
%ADD193R,0.0004X0.0551*%
%ADD194R,0.0004X0.0567*%
%ADD195R,0.0004X0.0579*%
%ADD196R,0.0004X0.0413*%
%ADD197R,0.0004X0.0425*%
%ADD198R,0.0004X0.0181*%
%ADD199R,0.0004X0.0634*%
%ADD200R,0.0004X0.0654*%
%ADD201R,0.0004X0.0661*%
%ADD202R,0.0004X0.0669*%
%ADD203R,0.0004X0.0697*%
%ADD204R,0.0004X0.0244*%
%ADD205R,0.0004X0.0252*%
%ADD206R,0.0004X0.0461*%
%ADD207R,0.0004X0.0094*%
%ADD208R,0.0004X0.0622*%
%ADD209R,0.0004X0.0102*%
%ADD210R,0.0004X0.0630*%
%ADD211R,0.0004X0.0614*%
%ADD212R,0.0004X0.0583*%
%ADD213R,0.0004X0.0327*%
%ADD214R,0.0157X0.0531*%
%ADD215R,0.0591X0.0748*%
%ADD216C,0.0679*%
%ADD217C,0.0502*%
%ADD218R,0.0460X0.0630*%
%ADD219C,0.0100*%
%ADD220C,0.0356*%
%ADD221C,0.0240*%
%ADD222C,0.0120*%
%ADD223C,0.1000*%
%ADD224C,0.0400*%
D10*
X002057Y000180D02*
X018199Y000180D01*
X018199Y019865D01*
X003710Y019865D01*
X002057Y018211D01*
X002057Y000180D01*
X002417Y001156D02*
X002417Y001281D01*
X002433Y001265D01*
X002823Y001265D01*
X003098Y001540D01*
X003098Y001930D01*
X002823Y002205D01*
X002433Y002205D01*
X002417Y002189D01*
X002417Y002281D01*
X002433Y002265D01*
X002823Y002265D01*
X003098Y002540D01*
X003098Y002930D01*
X002823Y003205D01*
X002433Y003205D01*
X002417Y003189D01*
X002417Y003281D01*
X002433Y003265D01*
X002823Y003265D01*
X003098Y003540D01*
X003098Y003930D01*
X002823Y004205D01*
X002433Y004205D01*
X002417Y004189D01*
X002417Y004281D01*
X002433Y004265D01*
X002823Y004265D01*
X003098Y004540D01*
X003098Y004930D01*
X002823Y005205D01*
X002433Y005205D01*
X002417Y005189D01*
X002417Y005281D01*
X002433Y005265D01*
X002823Y005265D01*
X003098Y005540D01*
X003098Y005930D01*
X002823Y006205D01*
X002433Y006205D01*
X002417Y006189D01*
X002417Y006281D01*
X002433Y006265D01*
X002823Y006265D01*
X003098Y006540D01*
X003098Y006930D01*
X002823Y007205D01*
X002433Y007205D01*
X002417Y007189D01*
X002417Y007281D01*
X002433Y007265D01*
X002823Y007265D01*
X003098Y007540D01*
X003098Y007930D01*
X002823Y008205D01*
X002433Y008205D01*
X002417Y008189D01*
X002417Y008281D01*
X002433Y008265D01*
X002823Y008265D01*
X003098Y008540D01*
X003098Y008930D01*
X002823Y009205D01*
X002433Y009205D01*
X002417Y009189D01*
X002417Y009281D01*
X002433Y009265D01*
X002823Y009265D01*
X003098Y009540D01*
X003098Y009930D01*
X002823Y010205D01*
X002433Y010205D01*
X002417Y010189D01*
X002417Y010281D01*
X002433Y010265D01*
X002823Y010265D01*
X003098Y010540D01*
X003098Y010930D01*
X002823Y011205D01*
X002433Y011205D01*
X002417Y011189D01*
X002417Y011281D01*
X002433Y011265D01*
X002823Y011265D01*
X003098Y011540D01*
X003098Y011930D01*
X002823Y012205D01*
X002433Y012205D01*
X002417Y012189D01*
X002417Y012281D01*
X002433Y012265D01*
X002823Y012265D01*
X003098Y012540D01*
X003098Y012930D01*
X002823Y013205D01*
X002433Y013205D01*
X002417Y013189D01*
X002417Y013281D01*
X002433Y013265D01*
X002823Y013265D01*
X003098Y013540D01*
X003098Y013930D01*
X002823Y014205D01*
X002433Y014205D01*
X002417Y014189D01*
X002417Y014281D01*
X002433Y014265D01*
X002823Y014265D01*
X003098Y014540D01*
X003098Y014930D01*
X002823Y015205D01*
X002433Y015205D01*
X002417Y015189D01*
X002417Y015281D01*
X002433Y015265D01*
X002823Y015265D01*
X003098Y015540D01*
X003098Y015930D01*
X002823Y016205D01*
X002433Y016205D01*
X002417Y016189D01*
X002417Y016281D01*
X002433Y016265D01*
X002823Y016265D01*
X003098Y016540D01*
X003098Y016930D01*
X002823Y017205D01*
X002433Y017205D01*
X002417Y017189D01*
X002417Y017310D01*
X002441Y017285D01*
X002618Y017285D01*
X002618Y017725D01*
X002638Y017725D01*
X002638Y017745D01*
X003078Y017745D01*
X003078Y017922D01*
X002814Y018185D01*
X002638Y018185D01*
X002638Y017745D01*
X002618Y017745D01*
X002618Y018185D01*
X002540Y018185D01*
X003234Y018879D01*
X003234Y018841D01*
X003339Y018586D01*
X003534Y018391D01*
X003789Y018286D01*
X004065Y018286D01*
X004320Y018391D01*
X004515Y018586D01*
X004620Y018841D01*
X004620Y019117D01*
X004515Y019372D01*
X004382Y019505D01*
X005093Y019505D01*
X005037Y019370D01*
X005037Y018724D01*
X005104Y018564D01*
X005185Y018482D01*
X005185Y018066D01*
X005140Y018066D01*
X005140Y017606D01*
X005100Y017606D01*
X005100Y018066D01*
X004921Y018066D01*
X004640Y017784D01*
X004640Y017606D01*
X005100Y017606D01*
X005100Y017566D01*
X004640Y017566D01*
X004640Y017387D01*
X004921Y017106D01*
X005100Y017106D01*
X005100Y017566D01*
X005140Y017566D01*
X005140Y017106D01*
X005319Y017106D01*
X005365Y017151D01*
X005383Y017108D01*
X005579Y016911D01*
X005658Y016832D01*
X005659Y016832D01*
X005620Y016793D01*
X005620Y016378D01*
X005913Y016086D01*
X006327Y016086D01*
X006620Y016378D01*
X006913Y016086D01*
X007327Y016086D01*
X007620Y016378D01*
X007913Y016086D01*
X008327Y016086D01*
X008620Y016378D01*
X008913Y016086D01*
X009327Y016086D01*
X009620Y016378D01*
X009913Y016086D01*
X010327Y016086D01*
X010620Y016378D01*
X010913Y016086D01*
X011224Y016086D01*
X011224Y016086D01*
X010913Y016086D01*
X010620Y015793D01*
X010620Y015378D01*
X010620Y015793D01*
X010327Y016086D01*
X009913Y016086D01*
X009620Y015793D01*
X009620Y015378D01*
X009620Y015793D01*
X009327Y016086D01*
X008913Y016086D01*
X008620Y015793D01*
X008620Y015378D01*
X008620Y015793D01*
X008327Y016086D01*
X007913Y016086D01*
X007620Y015793D01*
X007620Y015378D01*
X007620Y015793D01*
X007327Y016086D01*
X006913Y016086D01*
X006620Y015793D01*
X006620Y015378D01*
X006620Y015793D01*
X006327Y016086D01*
X005913Y016086D01*
X005620Y015793D01*
X005620Y015378D01*
X005656Y015342D01*
X005555Y015342D01*
X005600Y015387D01*
X005600Y015566D01*
X005140Y015566D01*
X005140Y015606D01*
X005100Y015606D01*
X005100Y016066D01*
X004921Y016066D01*
X004640Y015784D01*
X004640Y015606D01*
X005100Y015606D01*
X005100Y015566D01*
X004640Y015566D01*
X004640Y015387D01*
X004685Y015342D01*
X004614Y015342D01*
X004561Y015394D01*
X004561Y017137D01*
X004519Y017240D01*
X004440Y017319D01*
X004098Y017661D01*
X004098Y017930D01*
X003823Y018205D01*
X003433Y018205D01*
X003158Y017930D01*
X003158Y017540D01*
X003433Y017265D01*
X003702Y017265D01*
X003782Y017185D01*
X003638Y017185D01*
X003638Y016745D01*
X003618Y016745D01*
X003618Y017185D01*
X003441Y017185D01*
X003178Y016922D01*
X003178Y016745D01*
X003618Y016745D01*
X003618Y016725D01*
X003638Y016725D01*
X003638Y016285D01*
X003814Y016285D01*
X004001Y016472D01*
X004001Y016026D01*
X003823Y016205D01*
X003433Y016205D01*
X003158Y015930D01*
X003158Y015540D01*
X003433Y015265D01*
X003823Y015265D01*
X004001Y015444D01*
X004001Y015223D01*
X004044Y015120D01*
X004123Y015041D01*
X004339Y014825D01*
X004442Y014782D01*
X004640Y014782D01*
X004640Y014606D01*
X005100Y014606D01*
X005100Y014566D01*
X004640Y014566D01*
X004640Y014387D01*
X004921Y014106D01*
X005100Y014106D01*
X005100Y014566D01*
X005140Y014566D01*
X005140Y014606D01*
X005600Y014606D01*
X005600Y014782D01*
X005620Y014782D01*
X005620Y014378D01*
X005913Y014086D01*
X006327Y014086D01*
X006620Y014378D01*
X006913Y014086D01*
X007327Y014086D01*
X007620Y014378D01*
X007913Y014086D01*
X008327Y014086D01*
X008620Y014378D01*
X008913Y014086D01*
X009327Y014086D01*
X009620Y014378D01*
X009913Y014086D01*
X010327Y014086D01*
X010620Y014378D01*
X010913Y014086D01*
X011327Y014086D01*
X011596Y014354D01*
X011617Y014334D01*
X011522Y014239D01*
X011522Y013890D01*
X011327Y014086D01*
X010913Y014086D01*
X010620Y013793D01*
X010620Y013378D01*
X010327Y013086D01*
X009913Y013086D01*
X009620Y013378D01*
X009620Y013793D01*
X009913Y014086D01*
X010327Y014086D01*
X010620Y013793D01*
X010620Y013378D01*
X010913Y013086D01*
X011327Y013086D01*
X011463Y013222D01*
X011463Y013030D01*
X011499Y012995D01*
X011463Y012960D01*
X011463Y012949D01*
X011327Y013086D01*
X010913Y013086D01*
X010620Y012793D01*
X010620Y012396D01*
X010620Y012396D01*
X010620Y012793D01*
X010327Y013086D01*
X009913Y013086D01*
X009620Y012793D01*
X009620Y012378D01*
X009327Y012086D01*
X008913Y012086D01*
X008620Y012378D01*
X008620Y012793D01*
X008913Y013086D01*
X009327Y013086D01*
X009620Y013378D01*
X009620Y013793D01*
X009327Y014086D01*
X008913Y014086D01*
X008620Y013793D01*
X008620Y013378D01*
X008913Y013086D01*
X009327Y013086D01*
X009620Y012793D01*
X009620Y012378D01*
X009913Y012086D01*
X010269Y012086D01*
X010268Y012081D01*
X010257Y012016D01*
X010257Y011974D01*
X010223Y011974D01*
X010179Y012018D01*
X010062Y012067D01*
X005910Y012067D01*
X005910Y012070D01*
X005896Y012102D01*
X005913Y012086D01*
X006327Y012086D01*
X006620Y012378D01*
X006913Y012086D01*
X007327Y012086D01*
X007620Y012378D01*
X007913Y012086D01*
X008327Y012086D01*
X008620Y012378D01*
X008620Y012793D01*
X008327Y013086D01*
X008620Y013378D01*
X008620Y013793D01*
X008327Y014086D01*
X007913Y014086D01*
X007620Y013793D01*
X007620Y013378D01*
X007913Y013086D01*
X008327Y013086D01*
X007913Y013086D01*
X007620Y012793D01*
X007620Y012378D01*
X007620Y012793D01*
X007327Y013086D01*
X007620Y013378D01*
X007620Y013793D01*
X007327Y014086D01*
X006913Y014086D01*
X006620Y013793D01*
X006620Y013378D01*
X006913Y013086D01*
X007327Y013086D01*
X006913Y013086D01*
X006620Y012793D01*
X006620Y012378D01*
X006620Y012793D01*
X006327Y013086D01*
X006620Y013378D01*
X006620Y013793D01*
X006327Y014086D01*
X005913Y014086D01*
X005620Y013793D01*
X005620Y013378D01*
X005913Y013086D01*
X006327Y013086D01*
X005913Y013086D01*
X005620Y012793D01*
X005620Y012395D01*
X005600Y012403D01*
X005600Y012566D01*
X005140Y012566D01*
X005140Y012606D01*
X005100Y012606D01*
X005100Y013066D01*
X004921Y013066D01*
X004640Y012784D01*
X004640Y012606D01*
X005100Y012606D01*
X005100Y012566D01*
X004640Y012566D01*
X004640Y012387D01*
X004921Y012106D01*
X005052Y012106D01*
X005037Y012070D01*
X005037Y011991D01*
X005029Y011991D01*
X005029Y011302D01*
X004025Y011282D01*
X004025Y011003D01*
X003823Y011205D01*
X003433Y011205D01*
X003158Y010930D01*
X003158Y010540D01*
X003433Y010265D01*
X003823Y010265D01*
X004024Y010467D01*
X004023Y010004D01*
X003823Y010205D01*
X003433Y010205D01*
X003158Y009930D01*
X003158Y009540D01*
X003433Y009265D01*
X003823Y009265D01*
X004022Y009465D01*
X004021Y009006D01*
X003823Y009205D01*
X003433Y009205D01*
X003158Y008930D01*
X003158Y008540D01*
X003433Y008265D01*
X003823Y008265D01*
X004020Y008463D01*
X004020Y008008D01*
X003823Y008205D01*
X003433Y008205D01*
X003158Y007930D01*
X003158Y007540D01*
X003433Y007265D01*
X003823Y007265D01*
X004019Y007461D01*
X004018Y007010D01*
X003823Y007205D01*
X003433Y007205D01*
X003158Y006930D01*
X003158Y006540D01*
X003433Y006265D01*
X003823Y006265D01*
X004017Y006460D01*
X004016Y006012D01*
X003823Y006205D01*
X003433Y006205D01*
X003158Y005930D01*
X003158Y005540D01*
X003433Y005265D01*
X003823Y005265D01*
X004015Y005458D01*
X004014Y005013D01*
X003823Y005205D01*
X003433Y005205D01*
X003158Y004930D01*
X003158Y004540D01*
X003433Y004265D01*
X003823Y004265D01*
X004013Y004456D01*
X004013Y004015D01*
X003823Y004205D01*
X003433Y004205D01*
X003158Y003930D01*
X003158Y003540D01*
X003433Y003265D01*
X003823Y003265D01*
X004012Y003454D01*
X004011Y003017D01*
X003823Y003205D01*
X003433Y003205D01*
X003158Y002930D01*
X003158Y002540D01*
X003433Y002265D01*
X003823Y002265D01*
X004010Y002452D01*
X004009Y002019D01*
X003823Y002205D01*
X003433Y002205D01*
X003158Y001930D01*
X003158Y001540D01*
X003433Y001265D01*
X003823Y001265D01*
X004008Y001451D01*
X004007Y001020D01*
X003823Y001205D01*
X003433Y001205D01*
X003158Y000930D01*
X003158Y000540D01*
X003056Y000540D01*
X003098Y000642D01*
X003098Y000829D01*
X003026Y001001D01*
X002894Y001134D01*
X002721Y001205D01*
X002534Y001205D01*
X002417Y001156D01*
X002847Y001290D02*
X003409Y001290D01*
X003359Y001131D02*
X002897Y001131D01*
X003038Y000973D02*
X003201Y000973D01*
X003158Y000814D02*
X003098Y000814D01*
X003098Y000656D02*
X003158Y000656D01*
X003158Y000540D02*
X003158Y000540D01*
X003897Y001131D02*
X004007Y001131D01*
X004008Y001290D02*
X003847Y001290D01*
X004005Y001448D02*
X004008Y001448D01*
X004009Y002082D02*
X003946Y002082D01*
X004009Y002241D02*
X002417Y002241D01*
X002946Y002082D02*
X003310Y002082D01*
X003158Y001924D02*
X003098Y001924D01*
X003098Y001765D02*
X003158Y001765D01*
X003158Y001607D02*
X003098Y001607D01*
X003005Y001448D02*
X003250Y001448D01*
X003299Y002399D02*
X002956Y002399D01*
X003098Y002558D02*
X003158Y002558D01*
X003158Y002716D02*
X003098Y002716D01*
X003098Y002875D02*
X003158Y002875D01*
X003261Y003033D02*
X002995Y003033D01*
X002836Y003192D02*
X003420Y003192D01*
X003348Y003350D02*
X002907Y003350D01*
X003066Y003509D02*
X003190Y003509D01*
X003158Y003667D02*
X003098Y003667D01*
X003098Y003826D02*
X003158Y003826D01*
X003212Y003984D02*
X003044Y003984D01*
X002885Y004143D02*
X003371Y004143D01*
X003397Y004301D02*
X002858Y004301D01*
X003017Y004460D02*
X003239Y004460D01*
X003158Y004618D02*
X003098Y004618D01*
X003098Y004777D02*
X003158Y004777D01*
X003163Y004935D02*
X003093Y004935D01*
X002934Y005094D02*
X003322Y005094D01*
X003288Y005411D02*
X002968Y005411D01*
X003098Y005569D02*
X003158Y005569D01*
X003158Y005728D02*
X003098Y005728D01*
X003098Y005886D02*
X003158Y005886D01*
X003273Y006045D02*
X002983Y006045D01*
X002825Y006203D02*
X003431Y006203D01*
X003337Y006362D02*
X002919Y006362D01*
X003077Y006520D02*
X003178Y006520D01*
X003158Y006679D02*
X003098Y006679D01*
X003098Y006837D02*
X003158Y006837D01*
X003224Y006996D02*
X003032Y006996D01*
X002874Y007154D02*
X003382Y007154D01*
X003386Y007313D02*
X002870Y007313D01*
X003028Y007471D02*
X003227Y007471D01*
X003158Y007630D02*
X003098Y007630D01*
X003098Y007788D02*
X003158Y007788D01*
X003175Y007947D02*
X003081Y007947D01*
X002923Y008105D02*
X003333Y008105D01*
X003276Y008422D02*
X002979Y008422D01*
X003098Y008581D02*
X003158Y008581D01*
X003158Y008739D02*
X003098Y008739D01*
X003098Y008898D02*
X003158Y008898D01*
X003284Y009056D02*
X002972Y009056D01*
X002930Y009373D02*
X003325Y009373D01*
X003167Y009532D02*
X003089Y009532D01*
X003098Y009690D02*
X003158Y009690D01*
X003158Y009849D02*
X003098Y009849D01*
X003021Y010007D02*
X003235Y010007D01*
X003394Y010166D02*
X002862Y010166D01*
X002881Y010324D02*
X003374Y010324D01*
X003216Y010483D02*
X003040Y010483D01*
X003098Y010641D02*
X003158Y010641D01*
X003158Y010800D02*
X003098Y010800D01*
X003070Y010958D02*
X003186Y010958D01*
X003345Y011117D02*
X002911Y011117D01*
X002832Y011275D02*
X003423Y011275D01*
X003433Y011265D02*
X003823Y011265D01*
X004098Y011540D01*
X004098Y011930D01*
X003823Y012205D01*
X003433Y012205D01*
X003158Y011930D01*
X003158Y011540D01*
X003433Y011265D01*
X003265Y011434D02*
X002991Y011434D01*
X003098Y011592D02*
X003158Y011592D01*
X003158Y011751D02*
X003098Y011751D01*
X003098Y011909D02*
X003158Y011909D01*
X003296Y012068D02*
X002960Y012068D01*
X002942Y012385D02*
X003342Y012385D01*
X003441Y012285D02*
X003178Y012549D01*
X003178Y012725D01*
X003618Y012725D01*
X003638Y012725D01*
X003638Y012745D01*
X004078Y012745D01*
X004078Y012922D01*
X003814Y013185D01*
X003638Y013185D01*
X003638Y012745D01*
X003618Y012745D01*
X003618Y013185D01*
X003441Y013185D01*
X003178Y012922D01*
X003178Y012745D01*
X003618Y012745D01*
X003618Y012725D01*
X003618Y012285D01*
X003441Y012285D01*
X003638Y012285D02*
X003814Y012285D01*
X004078Y012549D01*
X004078Y012725D01*
X003638Y012725D01*
X003638Y012285D01*
X003638Y012385D02*
X003618Y012385D01*
X003618Y012543D02*
X003638Y012543D01*
X003777Y012586D02*
X003628Y012735D01*
X003120Y013243D01*
X003120Y017227D01*
X003128Y017235D01*
X003628Y016735D01*
X003618Y016725D02*
X003618Y016285D01*
X003441Y016285D01*
X003178Y016549D01*
X003178Y016725D01*
X003618Y016725D01*
X003618Y016664D02*
X003638Y016664D01*
X003638Y016506D02*
X003618Y016506D01*
X003618Y016347D02*
X003638Y016347D01*
X003876Y016347D02*
X004001Y016347D01*
X004001Y016189D02*
X003839Y016189D01*
X003998Y016030D02*
X004001Y016030D01*
X004561Y016030D02*
X004886Y016030D01*
X004921Y016106D02*
X005100Y016106D01*
X005100Y016566D01*
X004640Y016566D01*
X004640Y016387D01*
X004921Y016106D01*
X004838Y016189D02*
X004561Y016189D01*
X004561Y016347D02*
X004680Y016347D01*
X004640Y016506D02*
X004561Y016506D01*
X004640Y016606D02*
X005100Y016606D01*
X005100Y017066D01*
X004921Y017066D01*
X004640Y016784D01*
X004640Y016606D01*
X004640Y016664D02*
X004561Y016664D01*
X004561Y016823D02*
X004678Y016823D01*
X004561Y016981D02*
X004837Y016981D01*
X004887Y017140D02*
X004560Y017140D01*
X004461Y017298D02*
X004729Y017298D01*
X004640Y017457D02*
X004302Y017457D01*
X004144Y017615D02*
X004640Y017615D01*
X004640Y017774D02*
X004098Y017774D01*
X004096Y017932D02*
X004788Y017932D01*
X005100Y017932D02*
X005140Y017932D01*
X005140Y017774D02*
X005100Y017774D01*
X005100Y017615D02*
X005140Y017615D01*
X005140Y017457D02*
X005100Y017457D01*
X005100Y017298D02*
X005140Y017298D01*
X005140Y017140D02*
X005100Y017140D01*
X005140Y017066D02*
X005319Y017066D01*
X005600Y016784D01*
X005600Y016606D01*
X005140Y016606D01*
X005100Y016606D01*
X005100Y016566D01*
X005140Y016566D01*
X005140Y016606D01*
X005140Y017066D01*
X005140Y016981D02*
X005100Y016981D01*
X005100Y016823D02*
X005140Y016823D01*
X005140Y016664D02*
X005100Y016664D01*
X005140Y016566D02*
X005600Y016566D01*
X005600Y016387D01*
X005319Y016106D01*
X005140Y016106D01*
X005140Y016566D01*
X005140Y016506D02*
X005100Y016506D01*
X005100Y016347D02*
X005140Y016347D01*
X005140Y016189D02*
X005100Y016189D01*
X005140Y016066D02*
X005319Y016066D01*
X005600Y015784D01*
X005600Y015606D01*
X005140Y015606D01*
X005140Y016066D01*
X005140Y016030D02*
X005100Y016030D01*
X005100Y015872D02*
X005140Y015872D01*
X005140Y015713D02*
X005100Y015713D01*
X004727Y015872D02*
X004561Y015872D01*
X004561Y015713D02*
X004640Y015713D01*
X004640Y015555D02*
X004561Y015555D01*
X004561Y015396D02*
X004640Y015396D01*
X004498Y015062D02*
X004281Y015278D01*
X004281Y017082D01*
X003628Y017735D01*
X003937Y018091D02*
X005185Y018091D01*
X005185Y018249D02*
X002604Y018249D01*
X002618Y018091D02*
X002638Y018091D01*
X002638Y017932D02*
X002618Y017932D01*
X002618Y017774D02*
X002638Y017774D01*
X002628Y017735D02*
X003128Y017235D01*
X003242Y017457D02*
X002986Y017457D01*
X003078Y017549D02*
X002814Y017285D01*
X002638Y017285D01*
X002638Y017725D01*
X003078Y017725D01*
X003078Y017549D01*
X003078Y017615D02*
X003158Y017615D01*
X003158Y017774D02*
X003078Y017774D01*
X003067Y017932D02*
X003160Y017932D01*
X003319Y018091D02*
X002909Y018091D01*
X002762Y018408D02*
X003518Y018408D01*
X003360Y018566D02*
X002921Y018566D01*
X003079Y018725D02*
X003282Y018725D01*
X002638Y017615D02*
X002618Y017615D01*
X002618Y017457D02*
X002638Y017457D01*
X002638Y017298D02*
X002618Y017298D01*
X002429Y017298D02*
X002417Y017298D01*
X002827Y017298D02*
X003400Y017298D01*
X003396Y017140D02*
X002888Y017140D01*
X003047Y016981D02*
X003237Y016981D01*
X003178Y016823D02*
X003098Y016823D01*
X003098Y016664D02*
X003178Y016664D01*
X003221Y016506D02*
X003063Y016506D01*
X002904Y016347D02*
X003380Y016347D01*
X003417Y016189D02*
X002839Y016189D01*
X002998Y016030D02*
X003258Y016030D01*
X003158Y015872D02*
X003098Y015872D01*
X003098Y015713D02*
X003158Y015713D01*
X003158Y015555D02*
X003098Y015555D01*
X002953Y015396D02*
X003302Y015396D01*
X003433Y015205D02*
X003158Y014930D01*
X003158Y014540D01*
X003433Y014265D01*
X003823Y014265D01*
X004098Y014540D01*
X004098Y014930D01*
X003823Y015205D01*
X003433Y015205D01*
X003307Y015079D02*
X002949Y015079D01*
X003098Y014921D02*
X003158Y014921D01*
X003158Y014762D02*
X003098Y014762D01*
X003098Y014604D02*
X003158Y014604D01*
X003253Y014445D02*
X003002Y014445D01*
X002844Y014287D02*
X003412Y014287D01*
X003433Y014205D02*
X003158Y013930D01*
X003158Y013540D01*
X003433Y013265D01*
X003823Y013265D01*
X004098Y013540D01*
X004098Y013930D01*
X003823Y014205D01*
X003433Y014205D01*
X003356Y014128D02*
X002900Y014128D01*
X003058Y013970D02*
X003198Y013970D01*
X003158Y013811D02*
X003098Y013811D01*
X003098Y013653D02*
X003158Y013653D01*
X003204Y013494D02*
X003051Y013494D01*
X002893Y013336D02*
X003363Y013336D01*
X003433Y013177D02*
X002851Y013177D01*
X003009Y013019D02*
X003275Y013019D01*
X003178Y012860D02*
X003098Y012860D01*
X003098Y012702D02*
X003178Y012702D01*
X003184Y012543D02*
X003098Y012543D01*
X003618Y012702D02*
X003638Y012702D01*
X003638Y012860D02*
X003618Y012860D01*
X003618Y013019D02*
X003638Y013019D01*
X003638Y013177D02*
X003618Y013177D01*
X003822Y013177D02*
X004850Y013177D01*
X004921Y013106D02*
X005100Y013106D01*
X005100Y013566D01*
X004640Y013566D01*
X004640Y013387D01*
X004921Y013106D01*
X004874Y013019D02*
X003981Y013019D01*
X004078Y012860D02*
X004716Y012860D01*
X004640Y012702D02*
X004078Y012702D01*
X004072Y012543D02*
X004640Y012543D01*
X004642Y012385D02*
X003914Y012385D01*
X003777Y012586D02*
X005120Y012586D01*
X005140Y012606D02*
X005140Y013066D01*
X005319Y013066D01*
X005600Y012784D01*
X005600Y012606D01*
X005140Y012606D01*
X005140Y012702D02*
X005100Y012702D01*
X005100Y012860D02*
X005140Y012860D01*
X005140Y013019D02*
X005100Y013019D01*
X005140Y013106D02*
X005319Y013106D01*
X005600Y013387D01*
X005600Y013566D01*
X005140Y013566D01*
X005140Y013606D01*
X005100Y013606D01*
X005100Y014066D01*
X004921Y014066D01*
X004640Y013784D01*
X004640Y013606D01*
X005100Y013606D01*
X005100Y013566D01*
X005140Y013566D01*
X005140Y013106D01*
X005140Y013177D02*
X005100Y013177D01*
X005100Y013336D02*
X005140Y013336D01*
X005140Y013494D02*
X005100Y013494D01*
X005140Y013606D02*
X005600Y013606D01*
X005600Y013784D01*
X005319Y014066D01*
X005140Y014066D01*
X005140Y013606D01*
X005140Y013653D02*
X005100Y013653D01*
X005100Y013811D02*
X005140Y013811D01*
X005140Y013970D02*
X005100Y013970D01*
X005140Y014106D02*
X005319Y014106D01*
X005600Y014387D01*
X005600Y014566D01*
X005140Y014566D01*
X005140Y014106D01*
X005140Y014128D02*
X005100Y014128D01*
X005100Y014287D02*
X005140Y014287D01*
X005140Y014445D02*
X005100Y014445D01*
X005100Y014604D02*
X004098Y014604D01*
X004098Y014762D02*
X004640Y014762D01*
X004498Y015062D02*
X011427Y015062D01*
X011880Y015515D01*
X012677Y015515D01*
X012247Y015795D02*
X012247Y015912D01*
X012365Y016030D01*
X012997Y016030D01*
X011960Y016030D01*
X012031Y016101D02*
X012984Y016101D01*
X012997Y016088D01*
X012997Y016030D01*
X013277Y016204D02*
X013100Y016381D01*
X011915Y016381D01*
X011120Y015586D01*
X011620Y015651D02*
X011620Y015690D01*
X012031Y016101D01*
X012247Y015872D02*
X011802Y015872D01*
X011824Y015795D02*
X011721Y015752D01*
X011620Y015651D01*
X011643Y015713D02*
X011682Y015713D01*
X011824Y015795D02*
X012247Y015795D01*
X012247Y015235D02*
X011996Y015235D01*
X011944Y015183D01*
X012247Y015183D01*
X012247Y015235D01*
X011959Y014747D02*
X013061Y014747D01*
X013100Y014786D01*
X013612Y014786D01*
X014045Y014786D01*
X014183Y014727D01*
X014085Y014727D01*
X014183Y014727D02*
X014518Y014727D01*
X014616Y014629D01*
X014616Y013763D01*
X014833Y013546D01*
X016439Y013546D01*
X016628Y013735D01*
X017098Y013811D02*
X017158Y013811D01*
X017158Y013930D02*
X017158Y013540D01*
X017433Y013265D01*
X017823Y013265D01*
X017839Y013281D01*
X017839Y013189D01*
X017823Y013205D01*
X017433Y013205D01*
X017158Y012930D01*
X017158Y012540D01*
X017433Y012265D01*
X017823Y012265D01*
X017839Y012281D01*
X017839Y012189D01*
X017823Y012205D01*
X017433Y012205D01*
X017158Y011930D01*
X017158Y011619D01*
X017098Y011559D01*
X017098Y011930D01*
X016823Y012205D01*
X016766Y012205D01*
X016706Y012265D01*
X016823Y012265D01*
X017098Y012540D01*
X017098Y012930D01*
X016823Y013205D01*
X016433Y013205D01*
X016158Y012930D01*
X016158Y012794D01*
X016109Y012814D01*
X016164Y012947D01*
X016164Y013146D01*
X016114Y013266D01*
X016432Y013266D01*
X016433Y013265D01*
X016823Y013265D01*
X017098Y013540D01*
X017098Y013930D01*
X017061Y013966D01*
X017137Y013998D01*
X017373Y014234D01*
X017400Y014298D01*
X017433Y014265D01*
X017823Y014265D01*
X017839Y014281D01*
X017839Y014189D01*
X017823Y014205D01*
X017433Y014205D01*
X017158Y013930D01*
X017198Y013970D02*
X017069Y013970D01*
X017267Y014128D02*
X017356Y014128D01*
X017395Y014287D02*
X017412Y014287D01*
X017136Y014393D02*
X016978Y014235D01*
X016210Y014235D01*
X016022Y014046D01*
X015364Y014046D01*
X014965Y014546D02*
X014896Y014518D01*
X014896Y014575D01*
X014965Y014546D01*
X015763Y014546D01*
X015947Y014470D01*
X015998Y014419D01*
X016052Y014472D01*
X016155Y014515D01*
X016183Y014515D01*
X016158Y014540D01*
X016158Y014930D01*
X016433Y015205D01*
X016762Y015205D01*
X016702Y015265D01*
X016433Y015265D01*
X016370Y015328D01*
X016349Y015277D01*
X016271Y015199D01*
X016164Y015092D01*
X016164Y014947D01*
X016088Y014763D01*
X015947Y014622D01*
X015763Y014546D01*
X014965Y014546D01*
X015364Y015046D02*
X015722Y015046D01*
X016112Y015436D01*
X016112Y016219D01*
X016628Y016735D01*
X017098Y016664D02*
X017158Y016664D01*
X017158Y016540D02*
X017433Y016265D01*
X017823Y016265D01*
X017839Y016281D01*
X017839Y016189D01*
X017823Y016205D01*
X017433Y016205D01*
X017158Y015930D01*
X017158Y015601D01*
X017098Y015661D01*
X017098Y015930D01*
X016823Y016205D01*
X016494Y016205D01*
X016554Y016265D01*
X016823Y016265D01*
X017098Y016540D01*
X017098Y016930D01*
X017080Y016947D01*
X017175Y016947D01*
X017158Y016930D01*
X017158Y016540D01*
X017193Y016506D02*
X017063Y016506D01*
X016904Y016347D02*
X017351Y016347D01*
X017417Y016189D02*
X016839Y016189D01*
X016998Y016030D02*
X017258Y016030D01*
X017158Y015872D02*
X017098Y015872D01*
X017098Y015713D02*
X017158Y015713D01*
X017136Y015227D02*
X016628Y015735D01*
X016729Y015238D02*
X016310Y015238D01*
X016307Y015079D02*
X016164Y015079D01*
X016153Y014921D02*
X016158Y014921D01*
X016158Y014762D02*
X016087Y014762D01*
X016158Y014604D02*
X015902Y014604D01*
X015972Y014445D02*
X016024Y014445D01*
X016893Y013336D02*
X017363Y013336D01*
X017405Y013177D02*
X016851Y013177D01*
X017009Y013019D02*
X017247Y013019D01*
X017158Y012860D02*
X017098Y012860D01*
X017098Y012702D02*
X017158Y012702D01*
X017158Y012543D02*
X017098Y012543D01*
X016942Y012385D02*
X017314Y012385D01*
X017296Y012068D02*
X016960Y012068D01*
X017098Y011909D02*
X017158Y011909D01*
X017158Y011751D02*
X017098Y011751D01*
X017098Y011592D02*
X017131Y011592D01*
X017511Y011265D02*
X017823Y011265D01*
X017839Y011281D01*
X017839Y011189D01*
X017823Y011205D01*
X017451Y011205D01*
X017511Y011265D01*
X017246Y011018D02*
X017158Y010930D01*
X017158Y010661D01*
X017098Y010601D01*
X017098Y010930D01*
X017035Y010993D01*
X017185Y010993D01*
X017246Y011018D01*
X017186Y010958D02*
X017070Y010958D01*
X017098Y010800D02*
X017158Y010800D01*
X017138Y010641D02*
X017098Y010641D01*
X017132Y010239D02*
X016270Y010239D01*
X016033Y010003D01*
X016033Y009432D01*
X015876Y009274D01*
X012805Y009274D01*
X012777Y008896D02*
X012777Y008575D01*
X012777Y008896D01*
X012777Y008896D01*
X012777Y008739D02*
X012777Y008739D01*
X012777Y008581D02*
X012777Y008581D01*
X012777Y008575D02*
X013070Y008282D01*
X012777Y007989D01*
X012485Y008282D01*
X012131Y008282D01*
X012131Y008282D01*
X012485Y008282D01*
X012777Y008575D01*
X012624Y008422D02*
X012931Y008422D01*
X013070Y008282D02*
X013326Y008282D01*
X013326Y008282D01*
X013070Y008282D01*
X013051Y008264D02*
X012503Y008264D01*
X012662Y008105D02*
X012893Y008105D01*
X012777Y007989D02*
X012777Y007575D01*
X012777Y007989D01*
X012777Y007947D02*
X012777Y007947D01*
X012777Y007788D02*
X012777Y007788D01*
X012777Y007630D02*
X012777Y007630D01*
X012777Y007575D02*
X013070Y007282D01*
X012777Y006989D01*
X012485Y007282D01*
X012070Y007282D01*
X011777Y006989D01*
X011777Y006575D01*
X012070Y006282D01*
X011777Y005989D01*
X011777Y005893D01*
X011757Y005893D01*
X011757Y005981D01*
X011476Y006262D01*
X011297Y006262D01*
X011297Y005802D01*
X011257Y005802D01*
X011257Y006262D01*
X011154Y006262D01*
X011154Y006302D01*
X011257Y006302D01*
X011257Y006762D01*
X011297Y006762D01*
X011297Y006302D01*
X011476Y006302D01*
X011757Y006584D01*
X011757Y006762D01*
X011297Y006762D01*
X011297Y006802D01*
X011257Y006802D01*
X011257Y007262D01*
X011156Y007262D01*
X011156Y007302D01*
X011257Y007302D01*
X011257Y007762D01*
X011297Y007762D01*
X011297Y007302D01*
X011476Y007302D01*
X011757Y007584D01*
X011757Y007762D01*
X011297Y007762D01*
X011297Y007802D01*
X011257Y007802D01*
X011257Y008262D01*
X011158Y008262D01*
X011158Y008302D01*
X011257Y008302D01*
X011257Y008762D01*
X011297Y008762D01*
X011297Y008302D01*
X011476Y008302D01*
X011490Y008316D01*
X011490Y008258D01*
X011497Y008242D01*
X011476Y008262D01*
X011297Y008262D01*
X011297Y007802D01*
X011757Y007802D01*
X011757Y007949D01*
X011777Y007929D01*
X011777Y007575D01*
X012070Y007282D01*
X012485Y007282D01*
X012777Y007575D01*
X012673Y007471D02*
X012882Y007471D01*
X013040Y007313D02*
X012515Y007313D01*
X012613Y007154D02*
X012942Y007154D01*
X013070Y007282D02*
X013485Y007282D01*
X013777Y006989D01*
X013777Y006575D01*
X013485Y006282D01*
X013070Y006282D01*
X012777Y005989D01*
X012485Y006282D01*
X012070Y006282D01*
X012485Y006282D01*
X012777Y006575D01*
X012777Y006989D01*
X012777Y006575D01*
X013070Y006282D01*
X013485Y006282D01*
X013777Y005989D01*
X013777Y005607D01*
X013777Y005607D01*
X013777Y005989D01*
X014070Y006282D01*
X014485Y006282D01*
X014777Y005989D01*
X014777Y005607D01*
X014777Y005607D01*
X014777Y005989D01*
X015070Y006282D01*
X015485Y006282D01*
X015777Y005989D01*
X015777Y005607D01*
X015812Y005607D01*
X016152Y005947D01*
X016192Y005964D01*
X016433Y006205D01*
X016823Y006205D01*
X017098Y005930D01*
X017098Y005540D01*
X016823Y005265D01*
X016433Y005265D01*
X016305Y005393D01*
X016127Y005216D01*
X016057Y005145D01*
X015965Y005107D01*
X015660Y005107D01*
X015777Y004989D01*
X015777Y004607D01*
X016146Y004607D01*
X016158Y004619D01*
X016158Y004930D01*
X016433Y005205D01*
X016823Y005205D01*
X017098Y004930D01*
X017098Y004559D01*
X017158Y004619D01*
X017158Y004930D01*
X017433Y005205D01*
X017823Y005205D01*
X017839Y005189D01*
X017839Y005281D01*
X017823Y005265D01*
X017433Y005265D01*
X017158Y005540D01*
X017158Y005930D01*
X017433Y006205D01*
X017823Y006205D01*
X017839Y006189D01*
X017839Y006281D01*
X017823Y006265D01*
X017433Y006265D01*
X017158Y006540D01*
X017158Y006930D01*
X017433Y007205D01*
X017823Y007205D01*
X017839Y007189D01*
X017839Y007281D01*
X017823Y007265D01*
X017433Y007265D01*
X017158Y007540D01*
X017158Y007930D01*
X017433Y008205D01*
X017823Y008205D01*
X017839Y008189D01*
X017839Y008281D01*
X017823Y008265D01*
X017433Y008265D01*
X017389Y008309D01*
X017373Y008269D01*
X017294Y008191D01*
X017294Y008191D01*
X017176Y008073D01*
X017176Y008073D01*
X017097Y007994D01*
X017032Y007967D01*
X017078Y007922D01*
X017078Y007745D01*
X016638Y007745D01*
X016638Y007725D01*
X017078Y007725D01*
X017078Y007549D01*
X016814Y007285D01*
X016638Y007285D01*
X016638Y007725D01*
X016618Y007725D01*
X016618Y007285D01*
X016441Y007285D01*
X016254Y007472D01*
X016254Y007427D01*
X016212Y007325D01*
X016015Y007128D01*
X015936Y007049D01*
X015833Y007006D01*
X015761Y007006D01*
X015777Y006989D01*
X015777Y006575D01*
X015485Y006282D01*
X015070Y006282D01*
X014777Y006575D01*
X014777Y006886D01*
X014777Y006886D01*
X014777Y006575D01*
X014485Y006282D01*
X014070Y006282D01*
X013777Y006575D01*
X013777Y006989D01*
X014070Y007282D01*
X014381Y007282D01*
X014381Y007282D01*
X014070Y007282D01*
X013777Y007575D01*
X013485Y007282D01*
X013070Y007282D01*
X012783Y006996D02*
X012771Y006996D01*
X012777Y006837D02*
X012777Y006837D01*
X012777Y006679D02*
X012777Y006679D01*
X012722Y006520D02*
X012833Y006520D01*
X012991Y006362D02*
X012564Y006362D01*
X012564Y006203D02*
X012991Y006203D01*
X012832Y006045D02*
X012722Y006045D01*
X012777Y005989D02*
X012777Y005607D01*
X012777Y005607D01*
X012777Y005989D01*
X012777Y005886D02*
X012777Y005886D01*
X012777Y005728D02*
X012777Y005728D01*
X012660Y005107D02*
X012895Y005107D01*
X012777Y004989D01*
X012660Y005107D01*
X012673Y005094D02*
X012881Y005094D01*
X012777Y004989D02*
X012777Y004607D01*
X012777Y004989D01*
X012777Y004935D02*
X012777Y004935D01*
X012777Y004777D02*
X012777Y004777D01*
X012777Y004618D02*
X012777Y004618D01*
X012777Y004607D02*
X012777Y004607D01*
X012873Y004107D02*
X012895Y004107D01*
X012777Y003989D01*
X012766Y004000D01*
X012873Y004107D01*
X012777Y003989D02*
X012777Y003604D01*
X012777Y003604D01*
X012777Y003989D01*
X012777Y003984D02*
X012777Y003984D01*
X012777Y003826D02*
X012777Y003826D01*
X012777Y003667D02*
X012777Y003667D01*
X012424Y003282D02*
X012424Y003282D01*
X012070Y003282D01*
X011777Y002989D01*
X011777Y002575D01*
X012070Y002282D01*
X011777Y001989D01*
X011777Y001575D01*
X012070Y001282D01*
X011777Y000989D01*
X011777Y000575D01*
X011813Y000540D01*
X011714Y000540D01*
X011757Y000584D01*
X011757Y000762D01*
X011297Y000762D01*
X011297Y000802D01*
X011257Y000802D01*
X011257Y001262D01*
X011145Y001262D01*
X011145Y001302D01*
X011257Y001302D01*
X011257Y001762D01*
X011297Y001762D01*
X011297Y001302D01*
X011476Y001302D01*
X011757Y001584D01*
X011757Y001762D01*
X011297Y001762D01*
X011297Y001802D01*
X011257Y001802D01*
X011257Y002262D01*
X011147Y002262D01*
X011147Y002302D01*
X011257Y002302D01*
X011257Y002762D01*
X011297Y002762D01*
X011297Y002302D01*
X011476Y002302D01*
X011757Y002584D01*
X011757Y002762D01*
X011297Y002762D01*
X011297Y002802D01*
X011257Y002802D01*
X011257Y003262D01*
X011149Y003262D01*
X011149Y003302D01*
X011257Y003302D01*
X011257Y003762D01*
X011297Y003762D01*
X011297Y003302D01*
X011476Y003302D01*
X011757Y003584D01*
X011757Y003762D01*
X011297Y003762D01*
X011297Y003802D01*
X011257Y003802D01*
X011257Y004262D01*
X011151Y004262D01*
X011151Y004302D01*
X011257Y004302D01*
X011257Y004762D01*
X011297Y004762D01*
X011297Y004302D01*
X011476Y004302D01*
X011757Y004584D01*
X011757Y004762D01*
X011297Y004762D01*
X011297Y004802D01*
X011257Y004802D01*
X011257Y005262D01*
X011152Y005262D01*
X011153Y005302D01*
X011257Y005302D01*
X011257Y005762D01*
X011297Y005762D01*
X011297Y005302D01*
X011460Y005302D01*
X011461Y005300D01*
X011567Y005194D01*
X011706Y005137D01*
X011818Y005137D01*
X011889Y005107D01*
X011895Y005107D01*
X011777Y004989D01*
X011777Y004575D01*
X012070Y004282D01*
X011777Y003989D01*
X011777Y003575D01*
X012070Y003282D01*
X012424Y003282D01*
X012003Y003350D02*
X011524Y003350D01*
X011476Y003262D02*
X011297Y003262D01*
X011297Y002802D01*
X011757Y002802D01*
X011757Y002981D01*
X011476Y003262D01*
X011547Y003192D02*
X011979Y003192D01*
X011821Y003033D02*
X011706Y003033D01*
X011757Y002875D02*
X011777Y002875D01*
X011777Y002716D02*
X011757Y002716D01*
X011731Y002558D02*
X011795Y002558D01*
X011954Y002399D02*
X011573Y002399D01*
X011476Y002262D02*
X011297Y002262D01*
X011297Y001802D01*
X011757Y001802D01*
X011757Y001981D01*
X011476Y002262D01*
X011498Y002241D02*
X012028Y002241D01*
X012070Y002282D02*
X012485Y002282D01*
X012777Y001989D01*
X012777Y001575D01*
X012485Y001282D01*
X012070Y001282D01*
X012485Y001282D01*
X012777Y000989D01*
X012777Y000575D01*
X012742Y000540D01*
X012813Y000540D01*
X012777Y000575D01*
X012777Y000989D01*
X013070Y001282D01*
X013424Y001282D01*
X013424Y001282D01*
X013070Y001282D01*
X012777Y001575D01*
X012777Y001989D01*
X013070Y002282D01*
X013391Y002282D01*
X013391Y002282D01*
X013070Y002282D01*
X012777Y002575D01*
X012777Y002929D01*
X012777Y002575D01*
X012485Y002282D01*
X012070Y002282D01*
X011870Y002082D02*
X011657Y002082D01*
X011757Y001924D02*
X011777Y001924D01*
X011777Y001765D02*
X011297Y001765D01*
X011297Y001607D02*
X011257Y001607D01*
X011257Y001448D02*
X011297Y001448D01*
X011297Y001262D02*
X011297Y000802D01*
X011757Y000802D01*
X011757Y000981D01*
X011476Y001262D01*
X011297Y001262D01*
X011297Y001131D02*
X011257Y001131D01*
X011257Y000973D02*
X011297Y000973D01*
X011297Y000814D02*
X011257Y000814D01*
X011608Y001131D02*
X011919Y001131D01*
X011777Y000973D02*
X011757Y000973D01*
X011757Y000814D02*
X011777Y000814D01*
X011777Y000656D02*
X011757Y000656D01*
X012063Y001290D02*
X011145Y001290D01*
X011622Y001448D02*
X011905Y001448D01*
X011777Y001607D02*
X011757Y001607D01*
X011297Y001924D02*
X011257Y001924D01*
X011257Y002082D02*
X011297Y002082D01*
X011297Y002241D02*
X011257Y002241D01*
X011257Y002399D02*
X011297Y002399D01*
X011297Y002558D02*
X011257Y002558D01*
X011257Y002716D02*
X011297Y002716D01*
X011297Y002875D02*
X011257Y002875D01*
X011257Y003033D02*
X011297Y003033D01*
X011297Y003192D02*
X011257Y003192D01*
X011257Y003350D02*
X011297Y003350D01*
X011297Y003509D02*
X011257Y003509D01*
X011257Y003667D02*
X011297Y003667D01*
X011297Y003802D02*
X011757Y003802D01*
X011757Y003981D01*
X011476Y004262D01*
X011297Y004262D01*
X011297Y003802D01*
X011297Y003826D02*
X011257Y003826D01*
X011257Y003984D02*
X011297Y003984D01*
X011297Y004143D02*
X011257Y004143D01*
X011151Y004301D02*
X012052Y004301D01*
X012070Y004282D02*
X012341Y004282D01*
X012341Y004282D01*
X012070Y004282D01*
X011930Y004143D02*
X011596Y004143D01*
X011755Y003984D02*
X011777Y003984D01*
X011777Y003826D02*
X011757Y003826D01*
X011757Y003667D02*
X011777Y003667D01*
X011844Y003509D02*
X011682Y003509D01*
X011633Y004460D02*
X011893Y004460D01*
X011777Y004618D02*
X011757Y004618D01*
X011777Y004777D02*
X011297Y004777D01*
X011297Y004802D02*
X011757Y004802D01*
X011757Y004981D01*
X011476Y005262D01*
X011297Y005262D01*
X011297Y004802D01*
X011297Y004935D02*
X011257Y004935D01*
X011257Y005094D02*
X011297Y005094D01*
X011297Y005252D02*
X011257Y005252D01*
X011257Y005411D02*
X011297Y005411D01*
X011297Y005569D02*
X011257Y005569D01*
X011257Y005728D02*
X011297Y005728D01*
X011297Y005886D02*
X011257Y005886D01*
X011257Y006045D02*
X011297Y006045D01*
X011297Y006203D02*
X011257Y006203D01*
X011257Y006362D02*
X011297Y006362D01*
X011297Y006520D02*
X011257Y006520D01*
X011257Y006679D02*
X011297Y006679D01*
X011297Y006802D02*
X011757Y006802D01*
X011757Y006981D01*
X011476Y007262D01*
X011297Y007262D01*
X011297Y006802D01*
X011297Y006837D02*
X011257Y006837D01*
X011257Y006996D02*
X011297Y006996D01*
X011297Y007154D02*
X011257Y007154D01*
X011257Y007313D02*
X011297Y007313D01*
X011297Y007471D02*
X011257Y007471D01*
X011257Y007630D02*
X011297Y007630D01*
X011277Y007782D02*
X011754Y007306D01*
X013789Y007306D01*
X013882Y007471D02*
X013673Y007471D01*
X013777Y007575D02*
X013777Y007941D01*
X013777Y007942D01*
X013777Y007575D01*
X013777Y007630D02*
X013777Y007630D01*
X013777Y007788D02*
X013777Y007788D01*
X013515Y007313D02*
X014040Y007313D01*
X013942Y007154D02*
X013613Y007154D01*
X013771Y006996D02*
X013783Y006996D01*
X013777Y006837D02*
X013777Y006837D01*
X013777Y006679D02*
X013777Y006679D01*
X013722Y006520D02*
X013833Y006520D01*
X013991Y006362D02*
X013564Y006362D01*
X013564Y006203D02*
X013991Y006203D01*
X013832Y006045D02*
X013722Y006045D01*
X013777Y005886D02*
X013777Y005886D01*
X013777Y005728D02*
X013777Y005728D01*
X013660Y005107D02*
X013895Y005107D01*
X013777Y004989D01*
X013660Y005107D01*
X013673Y005094D02*
X013881Y005094D01*
X013777Y004989D02*
X013777Y004607D01*
X013777Y004989D01*
X013777Y004935D02*
X013777Y004935D01*
X013777Y004777D02*
X013777Y004777D01*
X013777Y004618D02*
X013777Y004618D01*
X013777Y004607D02*
X013777Y004607D01*
X013777Y003946D02*
X013777Y003619D01*
X013777Y003619D01*
X013777Y003946D01*
X013777Y003946D01*
X013777Y003826D02*
X013777Y003826D01*
X013777Y003667D02*
X013777Y003667D01*
X013777Y002946D02*
X013777Y002664D01*
X013777Y002664D01*
X013777Y002946D01*
X013777Y002946D01*
X013777Y002875D02*
X013777Y002875D01*
X013777Y002716D02*
X013777Y002716D01*
X014148Y002282D02*
X014424Y002282D01*
X014148Y002282D01*
X014148Y002282D01*
X014424Y002282D02*
X014424Y002282D01*
X014750Y002017D02*
X014805Y002017D01*
X014777Y001989D01*
X014750Y002017D01*
X014777Y001989D02*
X014777Y001611D01*
X014777Y001611D01*
X014777Y001989D01*
X014777Y001924D02*
X014777Y001924D01*
X014777Y001765D02*
X014777Y001765D01*
X014777Y000946D02*
X014777Y000575D01*
X014777Y000946D01*
X014777Y000946D01*
X014777Y000814D02*
X014777Y000814D01*
X014777Y000656D02*
X014777Y000656D01*
X014777Y000575D02*
X014742Y000540D01*
X014813Y000540D01*
X014777Y000575D01*
X015742Y000540D02*
X015777Y000575D01*
X015777Y000875D01*
X016177Y000875D01*
X016158Y000829D01*
X016158Y000642D01*
X016200Y000540D01*
X015742Y000540D01*
X015777Y000656D02*
X016158Y000656D01*
X016158Y000814D02*
X015777Y000814D01*
X015802Y001552D02*
X015781Y001573D01*
X015777Y001575D01*
X015777Y001575D01*
X015777Y001989D01*
X015750Y002017D01*
X015993Y002017D01*
X016158Y001852D01*
X016158Y001552D01*
X015802Y001552D01*
X015777Y001607D02*
X016158Y001607D01*
X016158Y001765D02*
X015777Y001765D01*
X015777Y001924D02*
X016086Y001924D01*
X016451Y002265D02*
X016823Y002265D01*
X017098Y002540D01*
X017098Y002930D01*
X017082Y002946D01*
X017138Y002946D01*
X017199Y002971D01*
X017158Y002930D01*
X017158Y002540D01*
X017433Y002265D01*
X017823Y002265D01*
X017839Y002281D01*
X017839Y002189D01*
X017823Y002205D01*
X017433Y002205D01*
X017158Y001930D01*
X017158Y001619D01*
X017098Y001559D01*
X017098Y001930D01*
X016823Y002205D01*
X016511Y002205D01*
X016451Y002265D01*
X016476Y002241D02*
X017839Y002241D01*
X017310Y002082D02*
X016946Y002082D01*
X017098Y001924D02*
X017158Y001924D01*
X017158Y001765D02*
X017098Y001765D01*
X017098Y001607D02*
X017146Y001607D01*
X017511Y001265D02*
X017459Y001213D01*
X017463Y001205D01*
X017823Y001205D01*
X017839Y001189D01*
X017839Y001281D01*
X017823Y001265D01*
X017511Y001265D01*
X017158Y000629D02*
X017158Y000540D01*
X017056Y000540D01*
X017092Y000629D01*
X017158Y000629D01*
X017158Y000540D02*
X017158Y000540D01*
X017299Y002399D02*
X016956Y002399D01*
X017098Y002558D02*
X017158Y002558D01*
X017158Y002716D02*
X017098Y002716D01*
X017098Y002875D02*
X017158Y002875D01*
X017451Y003205D02*
X017511Y003265D01*
X017823Y003265D01*
X017839Y003281D01*
X017839Y003189D01*
X017823Y003205D01*
X017451Y003205D01*
X017836Y003192D02*
X017839Y003192D01*
X017158Y003619D02*
X017158Y003930D01*
X017199Y003971D01*
X017138Y003946D01*
X017082Y003946D01*
X017098Y003930D01*
X017098Y003559D01*
X017158Y003619D01*
X017158Y003667D02*
X017098Y003667D01*
X017098Y003826D02*
X017158Y003826D01*
X017451Y004205D02*
X017511Y004265D01*
X017823Y004265D01*
X017839Y004281D01*
X017839Y004189D01*
X017823Y004205D01*
X017451Y004205D01*
X017157Y004618D02*
X017098Y004618D01*
X017098Y004777D02*
X017158Y004777D01*
X017163Y004935D02*
X017093Y004935D01*
X016934Y005094D02*
X017322Y005094D01*
X017288Y005411D02*
X016968Y005411D01*
X017098Y005569D02*
X017158Y005569D01*
X017158Y005728D02*
X017098Y005728D01*
X017098Y005886D02*
X017158Y005886D01*
X017273Y006045D02*
X016983Y006045D01*
X016825Y006203D02*
X017431Y006203D01*
X017337Y006362D02*
X016919Y006362D01*
X016823Y006265D02*
X017098Y006540D01*
X017098Y006930D01*
X016823Y007205D01*
X016433Y007205D01*
X016158Y006930D01*
X016158Y006540D01*
X016433Y006265D01*
X016823Y006265D01*
X017077Y006520D02*
X017178Y006520D01*
X017158Y006679D02*
X017098Y006679D01*
X017098Y006837D02*
X017158Y006837D01*
X017224Y006996D02*
X017032Y006996D01*
X016874Y007154D02*
X017382Y007154D01*
X017386Y007313D02*
X016842Y007313D01*
X016638Y007313D02*
X016618Y007313D01*
X016618Y007471D02*
X016638Y007471D01*
X016638Y007630D02*
X016618Y007630D01*
X016414Y007313D02*
X016200Y007313D01*
X016254Y007471D02*
X016256Y007471D01*
X015974Y007483D02*
X015974Y007877D01*
X016329Y008231D01*
X016939Y008231D01*
X017136Y008428D01*
X017136Y009243D01*
X017628Y009735D01*
X017494Y010205D02*
X017554Y010265D01*
X017823Y010265D01*
X017839Y010281D01*
X017839Y010189D01*
X017823Y010205D01*
X017494Y010205D01*
X017187Y009959D02*
X017158Y009930D01*
X017158Y009661D01*
X017098Y009601D01*
X017098Y009930D01*
X017069Y009959D01*
X017187Y009959D01*
X017158Y009849D02*
X017098Y009849D01*
X017098Y009690D02*
X017158Y009690D01*
X016856Y009298D02*
X016856Y009172D01*
X016823Y009205D01*
X016675Y009205D01*
X016735Y009265D01*
X016823Y009265D01*
X016856Y009298D01*
X016856Y009215D02*
X016684Y009215D01*
X016628Y009554D02*
X016628Y009735D01*
X016628Y009554D02*
X016033Y008960D01*
X016033Y008487D01*
X015836Y008290D01*
X013730Y008290D01*
X013277Y007837D01*
X013277Y007782D01*
X013772Y008570D02*
X013777Y008575D01*
X013777Y008989D01*
X013772Y008994D01*
X013782Y008994D01*
X013777Y008989D01*
X013777Y008575D01*
X013782Y008570D01*
X013772Y008570D01*
X013777Y008581D02*
X013777Y008581D01*
X013777Y008739D02*
X013777Y008739D01*
X013777Y008898D02*
X013777Y008898D01*
X013757Y009554D02*
X013777Y009575D01*
X013777Y009989D01*
X013550Y010217D01*
X013637Y010304D01*
X014528Y010304D01*
X014620Y010342D01*
X014828Y010550D01*
X014854Y010614D01*
X014880Y010601D01*
X014952Y010578D01*
X015026Y010566D01*
X015344Y010566D01*
X015344Y011026D01*
X015384Y011026D01*
X015384Y010566D01*
X015692Y010566D01*
X015674Y010548D01*
X014999Y010548D01*
X014907Y010510D01*
X014837Y010440D01*
X014671Y010274D01*
X014601Y010204D01*
X014590Y010177D01*
X014485Y010282D01*
X014070Y010282D01*
X013777Y009989D01*
X013777Y009575D01*
X013798Y009554D01*
X013757Y009554D01*
X013777Y009690D02*
X013777Y009690D01*
X013777Y009849D02*
X013777Y009849D01*
X013760Y010007D02*
X013795Y010007D01*
X013953Y010166D02*
X013601Y010166D01*
X013196Y010571D02*
X013065Y010440D01*
X013027Y010348D01*
X013027Y010239D01*
X012777Y009989D01*
X012485Y010282D01*
X012070Y010282D01*
X012010Y010222D01*
X012010Y010401D01*
X011970Y010497D01*
X011897Y010570D01*
X011895Y010571D01*
X012337Y010571D01*
X012454Y010688D01*
X012454Y010776D01*
X012566Y010776D01*
X012566Y010688D01*
X012683Y010571D01*
X013196Y010571D01*
X013108Y010483D02*
X011976Y010483D01*
X012010Y010324D02*
X013027Y010324D01*
X012953Y010166D02*
X012601Y010166D01*
X012760Y010007D02*
X012795Y010007D01*
X012777Y009989D02*
X012777Y009653D01*
X012777Y009989D01*
X012777Y009849D02*
X012777Y009849D01*
X012777Y009690D02*
X012777Y009690D01*
X012777Y009653D02*
X012777Y009653D01*
X012427Y009282D02*
X012427Y009282D01*
X012070Y009282D01*
X012010Y009222D01*
X012010Y009343D01*
X012070Y009282D01*
X012427Y009282D01*
X011490Y009249D02*
X011476Y009262D01*
X011297Y009262D01*
X011297Y008802D01*
X011257Y008802D01*
X011257Y009262D01*
X011160Y009262D01*
X011160Y009302D01*
X011257Y009302D01*
X011257Y009762D01*
X011297Y009762D01*
X011297Y009302D01*
X011476Y009302D01*
X011490Y009316D01*
X011490Y009249D01*
X011297Y009215D02*
X011257Y009215D01*
X011257Y009373D02*
X011297Y009373D01*
X011297Y009532D02*
X011257Y009532D01*
X011257Y009690D02*
X011297Y009690D01*
X011297Y009802D02*
X011257Y009802D01*
X011257Y010262D01*
X011161Y010262D01*
X011162Y010630D01*
X011195Y010550D01*
X011266Y010480D01*
X011490Y010256D01*
X011490Y010249D01*
X011476Y010262D01*
X011297Y010262D01*
X011297Y009802D01*
X011297Y009849D02*
X011257Y009849D01*
X011257Y010007D02*
X011297Y010007D01*
X011297Y010166D02*
X011257Y010166D01*
X011162Y010324D02*
X011422Y010324D01*
X011263Y010483D02*
X011162Y010483D01*
X010199Y010928D02*
X010120Y011007D01*
X010265Y012068D02*
X005910Y012068D01*
X005620Y012543D02*
X005600Y012543D01*
X005600Y012702D02*
X005620Y012702D01*
X005687Y012860D02*
X005524Y012860D01*
X005366Y013019D02*
X005846Y013019D01*
X005821Y013177D02*
X005390Y013177D01*
X005549Y013336D02*
X005663Y013336D01*
X005620Y013494D02*
X005600Y013494D01*
X005600Y013653D02*
X005620Y013653D01*
X005638Y013811D02*
X005573Y013811D01*
X005415Y013970D02*
X005797Y013970D01*
X005870Y014128D02*
X005341Y014128D01*
X005500Y014287D02*
X005712Y014287D01*
X005620Y014445D02*
X005600Y014445D01*
X005620Y014604D02*
X005140Y014604D01*
X004740Y014287D02*
X003844Y014287D01*
X003900Y014128D02*
X004899Y014128D01*
X004825Y013970D02*
X004058Y013970D01*
X004098Y013811D02*
X004667Y013811D01*
X004640Y013653D02*
X004098Y013653D01*
X004051Y013494D02*
X004640Y013494D01*
X004691Y013336D02*
X003893Y013336D01*
X004002Y014445D02*
X004640Y014445D01*
X004243Y014921D02*
X004098Y014921D01*
X004085Y015079D02*
X003949Y015079D01*
X004001Y015238D02*
X002417Y015238D01*
X003953Y015396D02*
X004001Y015396D01*
X003638Y016823D02*
X003618Y016823D01*
X003618Y016981D02*
X003638Y016981D01*
X003638Y017140D02*
X003618Y017140D01*
X004336Y018408D02*
X005185Y018408D01*
X005103Y018566D02*
X004494Y018566D01*
X004572Y018725D02*
X005037Y018725D01*
X005037Y018883D02*
X004620Y018883D01*
X004620Y019042D02*
X005037Y019042D01*
X005037Y019200D02*
X004586Y019200D01*
X004520Y019359D02*
X005037Y019359D01*
X005465Y019038D02*
X005473Y019047D01*
X005465Y019038D02*
X005465Y017914D01*
X005620Y017759D01*
X005620Y017267D01*
X005817Y017070D01*
X013730Y017070D01*
X014360Y017700D01*
X015482Y017700D01*
X015935Y018152D01*
X015953Y017774D02*
X016010Y017774D01*
X016149Y017832D01*
X016178Y017861D01*
X016178Y017745D01*
X016618Y017745D01*
X016618Y018185D01*
X016441Y018185D01*
X016299Y018042D01*
X016313Y018077D01*
X016313Y018228D01*
X016255Y018367D01*
X016149Y018473D01*
X016010Y018531D01*
X015860Y018531D01*
X015721Y018473D01*
X015614Y018367D01*
X015557Y018228D01*
X015557Y018170D01*
X015366Y017980D01*
X015157Y017980D01*
X015402Y018224D01*
X015402Y018908D01*
X014918Y019391D01*
X014235Y019391D01*
X013752Y018908D01*
X013752Y018224D01*
X014120Y017856D01*
X013614Y017350D01*
X011591Y017350D01*
X011620Y017378D01*
X011620Y017793D01*
X011400Y018013D01*
X011400Y018043D01*
X011357Y018146D01*
X011279Y018224D01*
X011113Y018390D01*
X011010Y018432D01*
X010848Y018432D01*
X010892Y018455D01*
X010945Y018493D01*
X010991Y018540D01*
X011029Y018593D01*
X011059Y018651D01*
X011079Y018713D01*
X011090Y018778D01*
X011090Y019047D01*
X011090Y019316D01*
X011079Y019381D01*
X011059Y019443D01*
X011029Y019501D01*
X011027Y019505D01*
X015860Y019505D01*
X015869Y019440D01*
X015931Y019235D01*
X016021Y019041D01*
X016137Y018861D01*
X016278Y018700D01*
X016441Y018561D01*
X016622Y018447D01*
X016817Y018359D01*
X017022Y018300D01*
X017234Y018271D01*
X017839Y018283D01*
X017839Y018189D01*
X017823Y018205D01*
X017433Y018205D01*
X017158Y017930D01*
X017158Y017661D01*
X017078Y017581D01*
X017078Y017725D01*
X016638Y017725D01*
X016638Y017745D01*
X017078Y017745D01*
X017078Y017922D01*
X016814Y018185D01*
X016638Y018185D01*
X016638Y017745D01*
X016618Y017745D01*
X016618Y017725D01*
X016178Y017725D01*
X016178Y017549D01*
X016219Y017507D01*
X015686Y017507D01*
X015953Y017774D01*
X015952Y017774D02*
X016178Y017774D01*
X016178Y017615D02*
X015793Y017615D01*
X015477Y018091D02*
X015268Y018091D01*
X015402Y018249D02*
X015566Y018249D01*
X015655Y018408D02*
X015402Y018408D01*
X015402Y018566D02*
X016435Y018566D01*
X016257Y018725D02*
X015402Y018725D01*
X015402Y018883D02*
X016123Y018883D01*
X016020Y019042D02*
X015268Y019042D01*
X015109Y019200D02*
X015947Y019200D01*
X015894Y019359D02*
X014951Y019359D01*
X014203Y019359D02*
X012954Y019359D01*
X012942Y019371D02*
X012658Y019371D01*
X012658Y018616D01*
X012558Y018616D01*
X012558Y019371D01*
X012275Y019371D01*
X011803Y018899D01*
X011803Y018616D01*
X012558Y018616D01*
X012558Y018516D01*
X011803Y018516D01*
X011803Y018232D01*
X012275Y017761D01*
X012558Y017761D01*
X012558Y018516D01*
X012658Y018516D01*
X012658Y018616D01*
X013413Y018616D01*
X013413Y018899D01*
X012942Y019371D01*
X013112Y019200D02*
X014044Y019200D01*
X013886Y019042D02*
X013271Y019042D01*
X013413Y018883D02*
X013752Y018883D01*
X013752Y018725D02*
X013413Y018725D01*
X013413Y018516D02*
X012658Y018516D01*
X012658Y017761D01*
X012942Y017761D01*
X013413Y018232D01*
X013413Y018516D01*
X013413Y018408D02*
X013752Y018408D01*
X013752Y018566D02*
X012658Y018566D01*
X012608Y018566D02*
X012127Y019047D01*
X010673Y019047D01*
X010673Y019047D01*
X010257Y019047D01*
X010257Y019316D01*
X010268Y019381D01*
X010288Y019443D01*
X010318Y019501D01*
X010320Y019505D01*
X010041Y019505D01*
X010044Y019495D01*
X010057Y019414D01*
X010057Y019406D01*
X009570Y019406D01*
X009570Y019340D01*
X010057Y019340D01*
X010057Y019332D01*
X010044Y019251D01*
X010019Y019173D01*
X009982Y019101D01*
X009934Y019034D01*
X009876Y018977D01*
X009819Y018936D01*
X009932Y018823D01*
X010011Y018744D01*
X010053Y018641D01*
X010053Y018432D01*
X010499Y018432D01*
X010455Y018455D01*
X010402Y018493D01*
X010356Y018540D01*
X010318Y018593D01*
X010288Y018651D01*
X010268Y018713D01*
X010257Y018778D01*
X010257Y019047D01*
X010673Y019047D01*
X010348Y019373D01*
X009537Y019373D01*
X009570Y019359D02*
X010264Y019359D01*
X010257Y019200D02*
X010027Y019200D01*
X009939Y019042D02*
X010257Y019042D01*
X010257Y018883D02*
X009872Y018883D01*
X010019Y018725D02*
X010266Y018725D01*
X010337Y018566D02*
X010053Y018566D01*
X009773Y018586D02*
X009773Y018231D01*
X009852Y018152D01*
X010955Y018152D01*
X011120Y017987D01*
X011120Y017586D01*
X011481Y017932D02*
X012103Y017932D01*
X011945Y018091D02*
X011380Y018091D01*
X011254Y018249D02*
X011803Y018249D01*
X011803Y018408D02*
X011070Y018408D01*
X011010Y018566D02*
X012558Y018566D01*
X012558Y018408D02*
X012658Y018408D01*
X012658Y018249D02*
X012558Y018249D01*
X012558Y018091D02*
X012658Y018091D01*
X012658Y017932D02*
X012558Y017932D01*
X012558Y017774D02*
X012658Y017774D01*
X012954Y017774D02*
X014038Y017774D01*
X014044Y017932D02*
X013113Y017932D01*
X013271Y018091D02*
X013885Y018091D01*
X013752Y018249D02*
X013413Y018249D01*
X013879Y017615D02*
X011620Y017615D01*
X011620Y017457D02*
X013721Y017457D01*
X014196Y017140D02*
X014270Y017140D01*
X014354Y017298D02*
X014429Y017298D01*
X014476Y017420D02*
X014550Y017420D01*
X013640Y016509D01*
X013597Y016407D01*
X013597Y016030D01*
X013557Y016030D01*
X013557Y016259D01*
X013515Y016362D01*
X013338Y016539D01*
X013259Y016618D01*
X013156Y016661D01*
X011860Y016661D01*
X011757Y016618D01*
X011620Y016481D01*
X011620Y016790D01*
X013786Y016790D01*
X013889Y016832D01*
X014476Y017420D01*
X014754Y017227D02*
X013877Y016351D01*
X013877Y015515D01*
X014307Y015555D02*
X014944Y015555D01*
X014965Y015546D02*
X014781Y015622D01*
X014640Y015763D01*
X014564Y015947D01*
X014564Y016146D01*
X014640Y016329D01*
X014781Y016470D01*
X014965Y016546D01*
X015763Y016546D01*
X015947Y016470D01*
X015957Y016460D01*
X016158Y016661D01*
X016158Y016930D01*
X016175Y016947D01*
X014870Y016947D01*
X014157Y016235D01*
X014157Y016030D01*
X014564Y016030D01*
X014582Y016189D02*
X014157Y016189D01*
X014157Y016030D02*
X014190Y016030D01*
X014307Y015912D01*
X014307Y015163D01*
X014502Y015163D01*
X014564Y015101D01*
X014564Y015146D01*
X014640Y015329D01*
X014781Y015470D01*
X014965Y015546D01*
X015763Y015546D01*
X015808Y015528D01*
X015832Y015552D01*
X015832Y015575D01*
X015763Y015546D01*
X014965Y015546D01*
X014707Y015396D02*
X014307Y015396D01*
X014307Y015238D02*
X014602Y015238D01*
X014690Y015713D02*
X014307Y015713D01*
X014307Y015872D02*
X014595Y015872D01*
X014658Y016347D02*
X014270Y016347D01*
X014428Y016506D02*
X014867Y016506D01*
X014587Y016664D02*
X016158Y016664D01*
X016158Y016823D02*
X014745Y016823D01*
X014754Y017227D02*
X017120Y017227D01*
X017628Y017735D01*
X017319Y018091D02*
X016909Y018091D01*
X017067Y017932D02*
X017160Y017932D01*
X017158Y017774D02*
X017078Y017774D01*
X017078Y017615D02*
X017112Y017615D01*
X016638Y017774D02*
X016618Y017774D01*
X016618Y017932D02*
X016638Y017932D01*
X016638Y018091D02*
X016618Y018091D01*
X016347Y018091D02*
X016313Y018091D01*
X016304Y018249D02*
X017839Y018249D01*
X017839Y017281D02*
X017839Y017189D01*
X017823Y017205D01*
X017494Y017205D01*
X017554Y017265D01*
X017823Y017265D01*
X017839Y017281D01*
X017158Y016823D02*
X017098Y016823D01*
X016002Y016506D02*
X015862Y016506D01*
X015832Y015555D02*
X015784Y015555D01*
X017136Y015227D02*
X017136Y014393D01*
X017098Y013653D02*
X017158Y013653D01*
X017204Y013494D02*
X017051Y013494D01*
X016405Y013177D02*
X016151Y013177D01*
X016164Y013019D02*
X016247Y013019D01*
X016158Y012860D02*
X016128Y012860D01*
X016033Y012542D02*
X014793Y012542D01*
X014183Y013369D02*
X014203Y013664D01*
X014183Y013900D01*
X013120Y013408D02*
X013081Y013369D01*
X013081Y013349D01*
X013061Y013369D01*
X013095Y013588D01*
X013061Y013920D01*
X012625Y013970D02*
X012395Y013970D01*
X012395Y013875D02*
X012395Y014239D01*
X012300Y014334D01*
X012395Y014428D01*
X012395Y014467D01*
X012625Y014467D01*
X012625Y014428D01*
X012719Y014334D01*
X012625Y014239D01*
X012625Y013870D01*
X012545Y013837D01*
X012520Y013811D01*
X012494Y013837D01*
X012402Y013875D01*
X012395Y013875D01*
X012395Y014128D02*
X012625Y014128D01*
X012672Y014287D02*
X012347Y014287D01*
X012395Y014445D02*
X012625Y014445D01*
X013061Y014747D02*
X013120Y014747D01*
X013277Y015515D02*
X013277Y016204D01*
X013372Y016506D02*
X013638Y016506D01*
X013597Y016347D02*
X013521Y016347D01*
X013557Y016189D02*
X013597Y016189D01*
X013597Y016030D02*
X013557Y016030D01*
X013795Y016664D02*
X011620Y016664D01*
X011620Y016506D02*
X011644Y016506D01*
X010810Y016189D02*
X010430Y016189D01*
X010383Y016030D02*
X010857Y016030D01*
X010699Y015872D02*
X010541Y015872D01*
X010620Y015713D02*
X010620Y015713D01*
X010620Y015555D02*
X010620Y015555D01*
X010620Y015396D02*
X010620Y015396D01*
X010620Y015378D02*
X010583Y015342D01*
X010656Y015342D01*
X010620Y015378D01*
X010620Y014782D02*
X010620Y014378D01*
X010620Y014782D01*
X010620Y014782D01*
X010620Y014762D02*
X010620Y014762D01*
X010620Y014604D02*
X010620Y014604D01*
X010620Y014445D02*
X010620Y014445D01*
X010528Y014287D02*
X010712Y014287D01*
X010870Y014128D02*
X010370Y014128D01*
X010443Y013970D02*
X010797Y013970D01*
X010638Y013811D02*
X010602Y013811D01*
X010620Y013653D02*
X010620Y013653D01*
X010620Y013494D02*
X010620Y013494D01*
X010577Y013336D02*
X010663Y013336D01*
X010821Y013177D02*
X010419Y013177D01*
X010394Y013019D02*
X010846Y013019D01*
X010687Y012860D02*
X010553Y012860D01*
X010620Y012702D02*
X010620Y012702D01*
X010620Y012543D02*
X010620Y012543D01*
X011078Y012086D02*
X011157Y012086D01*
X011157Y011971D01*
X011090Y011972D01*
X011090Y012016D01*
X011079Y012081D01*
X011078Y012086D01*
X011082Y012068D02*
X011157Y012068D01*
X011394Y013019D02*
X011475Y013019D01*
X011463Y013177D02*
X011419Y013177D01*
X011443Y013970D02*
X011522Y013970D01*
X011522Y014128D02*
X011370Y014128D01*
X011528Y014287D02*
X011570Y014287D01*
X009870Y014128D02*
X009370Y014128D01*
X009443Y013970D02*
X009797Y013970D01*
X009638Y013811D02*
X009602Y013811D01*
X009620Y013653D02*
X009620Y013653D01*
X009620Y013494D02*
X009620Y013494D01*
X009577Y013336D02*
X009663Y013336D01*
X009821Y013177D02*
X009419Y013177D01*
X009394Y013019D02*
X009846Y013019D01*
X009687Y012860D02*
X009553Y012860D01*
X009620Y012702D02*
X009620Y012702D01*
X009620Y012543D02*
X009620Y012543D01*
X009620Y012385D02*
X009620Y012385D01*
X009468Y012226D02*
X009772Y012226D01*
X008772Y012226D02*
X008468Y012226D01*
X008620Y012385D02*
X008620Y012385D01*
X008620Y012543D02*
X008620Y012543D01*
X008620Y012702D02*
X008620Y012702D01*
X008553Y012860D02*
X008687Y012860D01*
X008846Y013019D02*
X008394Y013019D01*
X008419Y013177D02*
X008821Y013177D01*
X008663Y013336D02*
X008577Y013336D01*
X008620Y013494D02*
X008620Y013494D01*
X008620Y013653D02*
X008620Y013653D01*
X008602Y013811D02*
X008638Y013811D01*
X008797Y013970D02*
X008443Y013970D01*
X008370Y014128D02*
X008870Y014128D01*
X008712Y014287D02*
X008528Y014287D01*
X008620Y014378D02*
X008620Y014782D01*
X008620Y014782D01*
X008620Y014378D01*
X008620Y014445D02*
X008620Y014445D01*
X008620Y014604D02*
X008620Y014604D01*
X008620Y014762D02*
X008620Y014762D01*
X008656Y015342D02*
X008583Y015342D01*
X008620Y015378D01*
X008656Y015342D01*
X008620Y015396D02*
X008620Y015396D01*
X008620Y015555D02*
X008620Y015555D01*
X008620Y015713D02*
X008620Y015713D01*
X008541Y015872D02*
X008699Y015872D01*
X008857Y016030D02*
X008383Y016030D01*
X008430Y016189D02*
X008810Y016189D01*
X008651Y016347D02*
X008589Y016347D01*
X008620Y016378D02*
X008620Y016790D01*
X008620Y016378D01*
X008620Y016506D02*
X008620Y016506D01*
X008620Y016664D02*
X008620Y016664D01*
X008620Y016790D02*
X008620Y016790D01*
X008649Y017350D02*
X008591Y017350D01*
X008620Y017378D01*
X008649Y017350D01*
X008620Y017378D02*
X008620Y017793D01*
X008681Y017854D01*
X008559Y017854D01*
X008620Y017793D01*
X008620Y017378D01*
X008620Y017457D02*
X008620Y017457D01*
X008620Y017615D02*
X008620Y017615D01*
X008620Y017774D02*
X008620Y017774D01*
X008671Y018320D02*
X008671Y018645D01*
X008809Y018782D01*
X009577Y018782D01*
X009773Y018586D01*
X009529Y018091D02*
X009536Y018073D01*
X009615Y017994D01*
X009694Y017915D01*
X009728Y017901D01*
X009620Y017793D01*
X009620Y017378D01*
X009591Y017350D01*
X009649Y017350D01*
X009620Y017378D01*
X009620Y017793D01*
X009427Y017985D01*
X009526Y018084D01*
X009529Y018091D01*
X009529Y018091D01*
X009481Y017932D02*
X009677Y017932D01*
X009620Y017774D02*
X009620Y017774D01*
X009620Y017615D02*
X009620Y017615D01*
X009620Y017457D02*
X009620Y017457D01*
X009620Y016790D02*
X009620Y016378D01*
X009620Y016790D01*
X009620Y016790D01*
X009620Y016664D02*
X009620Y016664D01*
X009620Y016506D02*
X009620Y016506D01*
X009589Y016347D02*
X009651Y016347D01*
X009810Y016189D02*
X009430Y016189D01*
X009383Y016030D02*
X009857Y016030D01*
X009699Y015872D02*
X009541Y015872D01*
X009620Y015713D02*
X009620Y015713D01*
X009620Y015555D02*
X009620Y015555D01*
X009620Y015396D02*
X009620Y015396D01*
X009620Y015378D02*
X009583Y015342D01*
X009656Y015342D01*
X009620Y015378D01*
X009620Y014782D02*
X009620Y014378D01*
X009620Y014782D01*
X009620Y014782D01*
X009620Y014762D02*
X009620Y014762D01*
X009620Y014604D02*
X009620Y014604D01*
X009620Y014445D02*
X009620Y014445D01*
X009528Y014287D02*
X009712Y014287D01*
X007870Y014128D02*
X007370Y014128D01*
X007443Y013970D02*
X007797Y013970D01*
X007638Y013811D02*
X007602Y013811D01*
X007620Y013653D02*
X007620Y013653D01*
X007620Y013494D02*
X007620Y013494D01*
X007577Y013336D02*
X007663Y013336D01*
X007821Y013177D02*
X007419Y013177D01*
X007394Y013019D02*
X007846Y013019D01*
X007687Y012860D02*
X007553Y012860D01*
X007620Y012702D02*
X007620Y012702D01*
X007620Y012543D02*
X007620Y012543D01*
X007620Y012385D02*
X007620Y012385D01*
X007468Y012226D02*
X007772Y012226D01*
X006846Y013019D02*
X006394Y013019D01*
X006419Y013177D02*
X006821Y013177D01*
X006663Y013336D02*
X006577Y013336D01*
X006620Y013494D02*
X006620Y013494D01*
X006620Y013653D02*
X006620Y013653D01*
X006602Y013811D02*
X006638Y013811D01*
X006797Y013970D02*
X006443Y013970D01*
X006370Y014128D02*
X006870Y014128D01*
X006712Y014287D02*
X006528Y014287D01*
X006620Y014378D02*
X006620Y014782D01*
X006620Y014782D01*
X006620Y014378D01*
X006620Y014445D02*
X006620Y014445D01*
X006620Y014604D02*
X006620Y014604D01*
X006620Y014762D02*
X006620Y014762D01*
X006656Y015342D02*
X006583Y015342D01*
X006620Y015378D01*
X006656Y015342D01*
X006620Y015396D02*
X006620Y015396D01*
X006620Y015555D02*
X006620Y015555D01*
X006620Y015713D02*
X006620Y015713D01*
X006541Y015872D02*
X006699Y015872D01*
X006857Y016030D02*
X006383Y016030D01*
X006430Y016189D02*
X006810Y016189D01*
X006651Y016347D02*
X006589Y016347D01*
X006620Y016378D02*
X006620Y016790D01*
X006620Y016378D01*
X006620Y016506D02*
X006620Y016506D01*
X006620Y016664D02*
X006620Y016664D01*
X006620Y016790D02*
X006620Y016790D01*
X006649Y017350D02*
X006591Y017350D01*
X006620Y017378D01*
X006620Y017793D01*
X006620Y017378D01*
X006649Y017350D01*
X006620Y017457D02*
X006620Y017457D01*
X006620Y017615D02*
X006620Y017615D01*
X006620Y017774D02*
X006620Y017774D01*
X006620Y017793D02*
X006327Y018086D01*
X005913Y018086D01*
X005801Y017974D01*
X005779Y017996D01*
X005745Y018030D01*
X005745Y018465D01*
X005843Y018564D01*
X005910Y018724D01*
X005910Y019370D01*
X005854Y019505D01*
X006278Y019505D01*
X006275Y019495D01*
X006262Y019414D01*
X006262Y019406D01*
X006748Y019406D01*
X006748Y019340D01*
X006262Y019340D01*
X006262Y019332D01*
X006275Y019251D01*
X006300Y019173D01*
X006337Y019101D01*
X006385Y019034D01*
X006443Y018977D01*
X006509Y018929D01*
X006582Y018891D01*
X006660Y018866D01*
X006740Y018853D01*
X006748Y018853D01*
X006748Y019340D01*
X006815Y019340D01*
X006815Y018853D01*
X006822Y018853D01*
X006903Y018866D01*
X006981Y018891D01*
X007054Y018929D01*
X007120Y018977D01*
X007178Y019034D01*
X007226Y019101D01*
X007263Y019173D01*
X007270Y019196D01*
X007270Y018912D01*
X007387Y018795D01*
X008144Y018795D01*
X008161Y018813D01*
X008175Y018799D01*
X008432Y018799D01*
X008426Y018786D01*
X007742Y018786D01*
X007722Y018766D01*
X007648Y018766D01*
X007648Y018691D01*
X007647Y018691D01*
X007647Y018766D01*
X007545Y018766D01*
X007499Y018753D01*
X007458Y018730D01*
X007440Y018712D01*
X007431Y018722D01*
X007265Y018790D01*
X007085Y018790D01*
X006920Y018722D01*
X006793Y018595D01*
X006724Y018429D01*
X006724Y018250D01*
X006793Y018084D01*
X006852Y018025D01*
X006620Y017793D01*
X006481Y017932D02*
X006759Y017932D01*
X006790Y018091D02*
X005745Y018091D01*
X005745Y018249D02*
X006724Y018249D01*
X006724Y018408D02*
X005745Y018408D01*
X005844Y018566D02*
X006781Y018566D01*
X006926Y018725D02*
X005910Y018725D01*
X005910Y018883D02*
X006608Y018883D01*
X006748Y018883D02*
X006815Y018883D01*
X006781Y018861D02*
X006781Y019373D01*
X006748Y019359D02*
X005910Y019359D01*
X005910Y019200D02*
X006291Y019200D01*
X006380Y019042D02*
X005910Y019042D01*
X006748Y019042D02*
X006815Y019042D01*
X006815Y019200D02*
X006748Y019200D01*
X006781Y018861D02*
X006840Y018802D01*
X007510Y018802D01*
X007648Y018664D01*
X007648Y018320D01*
X007647Y017948D02*
X007648Y017948D01*
X007648Y017874D01*
X007701Y017874D01*
X007620Y017793D01*
X007620Y017378D01*
X007591Y017350D01*
X007649Y017350D01*
X007620Y017378D01*
X007620Y017793D01*
X007536Y017876D01*
X007545Y017874D01*
X007647Y017874D01*
X007647Y017948D01*
X007647Y017932D02*
X007648Y017932D01*
X007620Y017774D02*
X007620Y017774D01*
X007620Y017615D02*
X007620Y017615D01*
X007620Y017457D02*
X007620Y017457D01*
X007620Y016790D02*
X007620Y016378D01*
X007620Y016790D01*
X007620Y016790D01*
X007620Y016664D02*
X007620Y016664D01*
X007620Y016506D02*
X007620Y016506D01*
X007589Y016347D02*
X007651Y016347D01*
X007810Y016189D02*
X007430Y016189D01*
X007383Y016030D02*
X007857Y016030D01*
X007699Y015872D02*
X007541Y015872D01*
X007620Y015713D02*
X007620Y015713D01*
X007620Y015555D02*
X007620Y015555D01*
X007620Y015396D02*
X007620Y015396D01*
X007620Y015378D02*
X007583Y015342D01*
X007656Y015342D01*
X007620Y015378D01*
X007620Y014782D02*
X007620Y014378D01*
X007620Y014782D01*
X007620Y014782D01*
X007620Y014762D02*
X007620Y014762D01*
X007620Y014604D02*
X007620Y014604D01*
X007620Y014445D02*
X007620Y014445D01*
X007528Y014287D02*
X007712Y014287D01*
X006687Y012860D02*
X006553Y012860D01*
X006620Y012702D02*
X006620Y012702D01*
X006620Y012543D02*
X006620Y012543D01*
X006620Y012385D02*
X006620Y012385D01*
X006468Y012226D02*
X006772Y012226D01*
X005037Y012068D02*
X003960Y012068D01*
X004098Y011909D02*
X005029Y011909D01*
X005029Y011751D02*
X004098Y011751D01*
X004098Y011592D02*
X005029Y011592D01*
X005029Y011434D02*
X003991Y011434D01*
X004025Y011275D02*
X003832Y011275D01*
X003911Y011117D02*
X004025Y011117D01*
X004024Y010324D02*
X003881Y010324D01*
X003862Y010166D02*
X004023Y010166D01*
X004021Y010007D02*
X004023Y010007D01*
X004022Y009373D02*
X003930Y009373D01*
X004022Y009215D02*
X002417Y009215D01*
X002417Y008264D02*
X004020Y008264D01*
X004020Y008422D02*
X003979Y008422D01*
X004020Y008105D02*
X003923Y008105D01*
X003628Y008735D02*
X003675Y008782D01*
X003972Y009056D02*
X004022Y009056D01*
X004018Y007313D02*
X003870Y007313D01*
X003874Y007154D02*
X004018Y007154D01*
X004017Y006362D02*
X003919Y006362D01*
X003825Y006203D02*
X004016Y006203D01*
X004016Y006045D02*
X003983Y006045D01*
X003968Y005411D02*
X004015Y005411D01*
X004015Y005252D02*
X002417Y005252D01*
X002417Y006203D02*
X002431Y006203D01*
X003934Y005094D02*
X004014Y005094D01*
X004013Y004301D02*
X003858Y004301D01*
X003885Y004143D02*
X004013Y004143D01*
X004011Y003350D02*
X003907Y003350D01*
X003836Y003192D02*
X004011Y003192D01*
X003995Y003033D02*
X004011Y003033D01*
X004010Y002399D02*
X003956Y002399D01*
X002420Y003192D02*
X002417Y003192D01*
X009539Y004321D02*
X009537Y004334D01*
X009537Y005023D01*
X009557Y005042D01*
X010010Y005042D01*
X010075Y005037D01*
X010138Y005020D01*
X010197Y004992D01*
X010250Y004955D01*
X010296Y004909D01*
X010334Y004855D01*
X010361Y004796D01*
X010378Y004733D01*
X010384Y004668D01*
X010378Y004603D01*
X010361Y004540D01*
X010334Y004481D01*
X010296Y004428D01*
X010250Y004382D01*
X010197Y004344D01*
X010138Y004317D01*
X010075Y004300D01*
X010010Y004294D01*
X009577Y004294D01*
X009564Y004296D01*
X009553Y004302D01*
X009545Y004310D01*
X009539Y004321D01*
X009555Y004301D02*
X010079Y004301D01*
X010318Y004460D02*
X009537Y004460D01*
X009537Y004618D02*
X010379Y004618D01*
X010366Y004777D02*
X009537Y004777D01*
X009537Y004935D02*
X010270Y004935D01*
X011257Y004618D02*
X011297Y004618D01*
X011297Y004460D02*
X011257Y004460D01*
X011757Y004935D02*
X011777Y004935D01*
X011881Y005094D02*
X011645Y005094D01*
X011509Y005252D02*
X011487Y005252D01*
X011694Y006045D02*
X011832Y006045D01*
X011991Y006203D02*
X011536Y006203D01*
X011535Y006362D02*
X011991Y006362D01*
X011833Y006520D02*
X011694Y006520D01*
X011757Y006679D02*
X011777Y006679D01*
X011777Y006837D02*
X011757Y006837D01*
X011743Y006996D02*
X011783Y006996D01*
X011942Y007154D02*
X011585Y007154D01*
X011486Y007313D02*
X012040Y007313D01*
X011882Y007471D02*
X011645Y007471D01*
X011757Y007630D02*
X011777Y007630D01*
X011777Y007788D02*
X011297Y007788D01*
X011297Y007947D02*
X011257Y007947D01*
X011257Y008105D02*
X011297Y008105D01*
X011158Y008264D02*
X011490Y008264D01*
X011297Y008422D02*
X011257Y008422D01*
X011257Y008581D02*
X011297Y008581D01*
X011297Y008739D02*
X011257Y008739D01*
X011257Y008898D02*
X011297Y008898D01*
X011297Y009056D02*
X011257Y009056D01*
X011757Y007947D02*
X011760Y007947D01*
X012407Y010641D02*
X012612Y010641D01*
X012566Y011276D02*
X012454Y011276D01*
X012454Y011365D01*
X012419Y011400D01*
X012454Y011436D01*
X012454Y011605D01*
X012475Y011614D01*
X012506Y011582D01*
X012566Y011557D01*
X012566Y011436D01*
X012601Y011400D01*
X012566Y011365D01*
X012566Y011276D01*
X012568Y011434D02*
X012452Y011434D01*
X012454Y011592D02*
X012496Y011592D01*
X014576Y010324D02*
X014721Y010324D01*
X014760Y010483D02*
X014880Y010483D01*
X015344Y010641D02*
X015384Y010641D01*
X015384Y010800D02*
X015344Y010800D01*
X015344Y010958D02*
X015384Y010958D01*
X015384Y011026D02*
X015384Y011066D01*
X016144Y011066D01*
X016144Y011074D01*
X016187Y011031D01*
X016238Y011010D01*
X016209Y010981D01*
X016161Y010981D01*
X016138Y010972D01*
X016144Y011008D01*
X016144Y011026D01*
X015384Y011026D01*
X016100Y011793D02*
X016164Y011947D01*
X016164Y012016D01*
X016204Y011976D01*
X016158Y011930D01*
X016158Y011767D01*
X016155Y011770D01*
X016100Y011793D01*
X016148Y011909D02*
X016158Y011909D01*
X016628Y011948D02*
X016033Y012542D01*
X016745Y012226D02*
X017839Y012226D01*
X017832Y011275D02*
X017839Y011275D01*
X017628Y010735D02*
X017132Y010239D01*
X017554Y009265D02*
X017494Y009205D01*
X017823Y009205D01*
X017839Y009189D01*
X017839Y009281D01*
X017823Y009265D01*
X017554Y009265D01*
X017503Y009215D02*
X017839Y009215D01*
X017839Y008264D02*
X017367Y008264D01*
X017333Y008105D02*
X017209Y008105D01*
X017175Y007947D02*
X017053Y007947D01*
X017078Y007788D02*
X017158Y007788D01*
X017158Y007630D02*
X017078Y007630D01*
X017000Y007471D02*
X017227Y007471D01*
X016382Y007154D02*
X016041Y007154D01*
X016224Y006996D02*
X015771Y006996D01*
X015777Y006837D02*
X016158Y006837D01*
X016158Y006679D02*
X015777Y006679D01*
X015722Y006520D02*
X016178Y006520D01*
X016337Y006362D02*
X015564Y006362D01*
X015564Y006203D02*
X016431Y006203D01*
X016273Y006045D02*
X015722Y006045D01*
X015777Y005886D02*
X016091Y005886D01*
X015932Y005728D02*
X015777Y005728D01*
X016164Y005252D02*
X017839Y005252D01*
X017825Y006203D02*
X017839Y006203D01*
X016322Y005094D02*
X015673Y005094D01*
X015777Y004935D02*
X016163Y004935D01*
X016158Y004777D02*
X015777Y004777D01*
X015777Y004618D02*
X016157Y004618D01*
X016174Y003946D02*
X015777Y003946D01*
X015777Y003619D01*
X016158Y003619D01*
X016158Y003930D01*
X016174Y003946D01*
X016158Y003826D02*
X015777Y003826D01*
X015777Y003667D02*
X016158Y003667D01*
X016174Y002946D02*
X015777Y002946D01*
X015777Y002575D01*
X015719Y002517D01*
X016146Y002517D01*
X016207Y002491D01*
X016158Y002540D01*
X016158Y002930D01*
X016174Y002946D01*
X016158Y002875D02*
X015777Y002875D01*
X015777Y002716D02*
X016158Y002716D01*
X016158Y002558D02*
X015760Y002558D01*
X014777Y002636D02*
X014777Y002636D01*
X014777Y002946D01*
X014777Y002946D01*
X014777Y002636D01*
X014777Y002716D02*
X014777Y002716D01*
X014777Y002875D02*
X014777Y002875D01*
X014777Y003619D02*
X014777Y003946D01*
X014777Y003946D01*
X014777Y003619D01*
X014777Y003619D01*
X014777Y003667D02*
X014777Y003667D01*
X014777Y003826D02*
X014777Y003826D01*
X014777Y004607D02*
X014777Y004989D01*
X014660Y005107D01*
X014895Y005107D01*
X014777Y004989D01*
X014777Y004607D01*
X014777Y004607D01*
X014777Y004618D02*
X014777Y004618D01*
X014777Y004777D02*
X014777Y004777D01*
X014777Y004935D02*
X014777Y004935D01*
X014673Y005094D02*
X014881Y005094D01*
X014777Y005728D02*
X014777Y005728D01*
X014777Y005886D02*
X014777Y005886D01*
X014722Y006045D02*
X014832Y006045D01*
X014991Y006203D02*
X014564Y006203D01*
X014564Y006362D02*
X014991Y006362D01*
X014833Y006520D02*
X014722Y006520D01*
X014777Y006679D02*
X014777Y006679D01*
X014777Y006837D02*
X014777Y006837D01*
X014781Y007286D02*
X014277Y006782D01*
X014781Y007286D02*
X015777Y007286D01*
X015974Y007483D01*
X014786Y007566D02*
X014768Y007566D01*
X014777Y007575D01*
X014777Y007989D01*
X014757Y008010D01*
X014798Y008010D01*
X014777Y007989D01*
X014777Y007575D01*
X014786Y007566D01*
X014777Y007630D02*
X014777Y007630D01*
X014777Y007788D02*
X014777Y007788D01*
X014777Y007947D02*
X014777Y007947D01*
X014772Y008570D02*
X014777Y008575D01*
X014777Y008989D01*
X014772Y008994D01*
X014782Y008994D01*
X014777Y008989D01*
X014777Y008575D01*
X014782Y008570D01*
X014772Y008570D01*
X014777Y008581D02*
X014777Y008581D01*
X014777Y008739D02*
X014777Y008739D01*
X014777Y008898D02*
X014777Y008898D01*
X014788Y009554D02*
X014795Y009557D01*
X014798Y009554D01*
X014788Y009554D01*
X015719Y010048D02*
X015753Y010014D01*
X015753Y010048D01*
X015719Y010048D01*
X016628Y011735D02*
X016628Y011948D01*
X017416Y015188D02*
X017416Y015283D01*
X017433Y015265D01*
X017823Y015265D01*
X017839Y015281D01*
X017839Y015189D01*
X017823Y015205D01*
X017433Y015205D01*
X017416Y015188D01*
X017416Y015238D02*
X017839Y015238D01*
X016708Y018408D02*
X016215Y018408D01*
X014112Y016981D02*
X014037Y016981D01*
X013953Y016823D02*
X013865Y016823D01*
X012262Y017774D02*
X011620Y017774D01*
X011803Y018725D02*
X011081Y018725D01*
X011090Y018883D02*
X011803Y018883D01*
X011945Y019042D02*
X011090Y019042D01*
X011090Y019047D02*
X010674Y019047D01*
X011090Y019047D01*
X011090Y019200D02*
X012104Y019200D01*
X012262Y019359D02*
X011083Y019359D01*
X010674Y019047D02*
X010674Y019047D01*
X010700Y017872D02*
X010620Y017793D01*
X010620Y017378D01*
X010591Y017350D01*
X010649Y017350D01*
X010620Y017378D01*
X010620Y017793D01*
X010540Y017872D01*
X010700Y017872D01*
X010620Y017774D02*
X010620Y017774D01*
X010620Y017615D02*
X010620Y017615D01*
X010620Y017457D02*
X010620Y017457D01*
X010620Y016790D02*
X010620Y016378D01*
X010620Y016790D01*
X010620Y016790D01*
X010620Y016664D02*
X010620Y016664D01*
X010620Y016506D02*
X010620Y016506D01*
X010589Y016347D02*
X010651Y016347D01*
X012558Y018725D02*
X012658Y018725D01*
X012658Y018883D02*
X012558Y018883D01*
X012558Y019042D02*
X012658Y019042D01*
X012658Y019200D02*
X012558Y019200D01*
X012558Y019359D02*
X012658Y019359D01*
X009121Y019062D02*
X009048Y019062D01*
X009048Y019196D01*
X009056Y019173D01*
X009093Y019101D01*
X009121Y019062D01*
X007648Y018725D02*
X007647Y018725D01*
X007453Y018725D02*
X007424Y018725D01*
X007299Y018883D02*
X006955Y018883D01*
X007183Y019042D02*
X007270Y019042D01*
X005370Y017140D02*
X005353Y017140D01*
X005403Y016981D02*
X005510Y016981D01*
X005562Y016823D02*
X005650Y016823D01*
X005620Y016664D02*
X005600Y016664D01*
X005600Y016506D02*
X005620Y016506D01*
X005651Y016347D02*
X005560Y016347D01*
X005402Y016189D02*
X005810Y016189D01*
X005857Y016030D02*
X005354Y016030D01*
X005513Y015872D02*
X005699Y015872D01*
X005620Y015713D02*
X005600Y015713D01*
X005600Y015555D02*
X005620Y015555D01*
X005620Y015396D02*
X005600Y015396D01*
X005600Y014762D02*
X005620Y014762D01*
X004801Y012226D02*
X002417Y012226D01*
X002417Y011275D02*
X002423Y011275D01*
X012526Y002241D02*
X013028Y002241D01*
X012954Y002399D02*
X012601Y002399D01*
X012760Y002558D02*
X012795Y002558D01*
X012777Y002716D02*
X012777Y002716D01*
X012777Y002875D02*
X012777Y002875D01*
X012777Y002929D02*
X012777Y002929D01*
X012685Y002082D02*
X012870Y002082D01*
X012777Y001924D02*
X012777Y001924D01*
X012777Y001765D02*
X012777Y001765D01*
X012777Y001607D02*
X012777Y001607D01*
X012650Y001448D02*
X012905Y001448D01*
X013063Y001290D02*
X012492Y001290D01*
X012636Y001131D02*
X012919Y001131D01*
X012777Y000973D02*
X012777Y000973D01*
X012777Y000814D02*
X012777Y000814D01*
X012777Y000656D02*
X012777Y000656D01*
X013742Y000540D02*
X013777Y000575D01*
X013777Y000929D01*
X013777Y000575D01*
X013813Y000540D01*
X013742Y000540D01*
X013777Y000656D02*
X013777Y000656D01*
X013777Y000814D02*
X013777Y000814D01*
X013777Y000929D02*
X013777Y000929D01*
D11*
X003514Y018979D02*
X003516Y019019D01*
X003522Y019060D01*
X003532Y019099D01*
X003545Y019137D01*
X003563Y019174D01*
X003584Y019208D01*
X003608Y019241D01*
X003635Y019271D01*
X003665Y019298D01*
X003698Y019322D01*
X003732Y019343D01*
X003769Y019361D01*
X003807Y019374D01*
X003846Y019384D01*
X003887Y019390D01*
X003927Y019392D01*
X003967Y019390D01*
X004008Y019384D01*
X004047Y019374D01*
X004085Y019361D01*
X004122Y019343D01*
X004156Y019322D01*
X004189Y019298D01*
X004219Y019271D01*
X004246Y019241D01*
X004270Y019208D01*
X004291Y019174D01*
X004309Y019137D01*
X004322Y019099D01*
X004332Y019060D01*
X004338Y019019D01*
X004340Y018979D01*
X004338Y018939D01*
X004332Y018898D01*
X004322Y018859D01*
X004309Y018821D01*
X004291Y018784D01*
X004270Y018750D01*
X004246Y018717D01*
X004219Y018687D01*
X004189Y018660D01*
X004156Y018636D01*
X004122Y018615D01*
X004085Y018597D01*
X004047Y018584D01*
X004008Y018574D01*
X003967Y018568D01*
X003927Y018566D01*
X003887Y018568D01*
X003846Y018574D01*
X003807Y018584D01*
X003769Y018597D01*
X003732Y018615D01*
X003698Y018636D01*
X003665Y018660D01*
X003635Y018687D01*
X003608Y018717D01*
X003584Y018750D01*
X003563Y018784D01*
X003545Y018821D01*
X003532Y018859D01*
X003522Y018898D01*
X003516Y018939D01*
X003514Y018979D01*
D12*
X002628Y000735D03*
X016628Y000735D03*
D13*
X017628Y000735D03*
X017628Y001735D03*
X017628Y002735D03*
X017628Y003735D03*
X017628Y004735D03*
X017628Y005735D03*
X017628Y006735D03*
X017628Y007735D03*
X017628Y008735D03*
X017628Y009735D03*
X017628Y010735D03*
X017628Y011735D03*
X017628Y012735D03*
X017628Y013735D03*
X017628Y014735D03*
X017628Y015735D03*
X017628Y016735D03*
X017628Y017735D03*
X016628Y017735D03*
X016628Y016735D03*
X016628Y015735D03*
X016628Y014735D03*
X016628Y013735D03*
X016628Y012735D03*
X016628Y011735D03*
X016628Y010735D03*
X016628Y009735D03*
X016628Y008735D03*
X016628Y007735D03*
X016628Y006735D03*
X016628Y005735D03*
X016628Y004735D03*
X016628Y003735D03*
X016628Y002735D03*
X016628Y001735D03*
X003628Y001735D03*
X003628Y000735D03*
X002628Y001735D03*
X002628Y002735D03*
X003628Y002735D03*
X003628Y003735D03*
X003628Y004735D03*
X003628Y005735D03*
X003628Y006735D03*
X003628Y007735D03*
X003628Y008735D03*
X003628Y009735D03*
X003628Y010735D03*
X003628Y011735D03*
X003628Y012735D03*
X003628Y013735D03*
X003628Y014735D03*
X003628Y015735D03*
X003628Y016735D03*
X003628Y017735D03*
X002628Y017735D03*
X002628Y016735D03*
X002628Y015735D03*
X002628Y014735D03*
X002628Y013735D03*
X002628Y012735D03*
X002628Y011735D03*
X002628Y010735D03*
X002628Y009735D03*
X002628Y008735D03*
X002628Y007735D03*
X002628Y006735D03*
X002628Y005735D03*
X002628Y004735D03*
X002628Y003735D03*
D14*
X005600Y001361D03*
X007569Y001361D03*
X009537Y001361D03*
X012608Y018566D03*
X014577Y018566D03*
D15*
X010673Y018811D02*
X010673Y019283D01*
X005473Y019283D02*
X005473Y018811D01*
X005473Y011983D02*
X005473Y011511D01*
X010673Y011511D02*
X010673Y011983D01*
D16*
X011959Y013920D03*
X011959Y014747D03*
X013061Y014747D03*
X013061Y013920D03*
X014183Y013900D03*
X014183Y014727D03*
D17*
X014183Y013369D03*
X014183Y012621D03*
X014183Y011774D03*
X014183Y011026D03*
X013061Y011026D03*
X013061Y011774D03*
X013061Y012621D03*
X013061Y013369D03*
X011959Y013369D03*
X011959Y012621D03*
X011959Y011774D03*
X011959Y011026D03*
D18*
X010199Y009389D03*
X007836Y010176D03*
X005474Y009389D03*
X005474Y004664D03*
X010199Y004664D03*
D19*
X011277Y004782D03*
X011277Y003782D03*
X011277Y002782D03*
X011277Y001782D03*
X011277Y000782D03*
X012277Y000782D03*
X012277Y001782D03*
X012277Y002782D03*
X012277Y003782D03*
X012277Y004782D03*
X012277Y005782D03*
X012277Y006782D03*
X011277Y006782D03*
X011277Y005782D03*
X011277Y007782D03*
X011277Y008782D03*
X011277Y009782D03*
X012277Y009782D03*
X012277Y008782D03*
X012277Y007782D03*
X013277Y007782D03*
X013277Y006782D03*
X013277Y005782D03*
X013277Y004782D03*
X013277Y003782D03*
X013277Y002782D03*
X013277Y001782D03*
X013277Y000782D03*
X014277Y000782D03*
X014277Y001782D03*
X014277Y002782D03*
X014277Y003782D03*
X014277Y004782D03*
X014277Y005782D03*
X014277Y006782D03*
X014277Y007782D03*
X014277Y008782D03*
X014277Y009782D03*
X015277Y009782D03*
X015277Y008782D03*
X015277Y007782D03*
X015277Y006782D03*
X015277Y005782D03*
X015277Y004782D03*
X015277Y003782D03*
X015277Y002782D03*
X015277Y001782D03*
X015277Y000782D03*
X013277Y008782D03*
X013277Y009782D03*
X011120Y012586D03*
X011120Y013586D03*
X011120Y014586D03*
X011120Y015586D03*
X011120Y016586D03*
X011120Y017586D03*
X010120Y017586D03*
X009120Y017586D03*
X009120Y016586D03*
X010120Y016586D03*
X010120Y015586D03*
X009120Y015586D03*
X009120Y014586D03*
X010120Y014586D03*
X010120Y013586D03*
X009120Y013586D03*
X009120Y012586D03*
X010120Y012586D03*
X008120Y012586D03*
X008120Y013586D03*
X008120Y014586D03*
X008120Y015586D03*
X008120Y016586D03*
X008120Y017586D03*
X007120Y017586D03*
X006120Y017586D03*
X006120Y016586D03*
X007120Y016586D03*
X007120Y015586D03*
X006120Y015586D03*
X006120Y014586D03*
X007120Y014586D03*
X007120Y013586D03*
X006120Y013586D03*
X006120Y012586D03*
X007120Y012586D03*
X005120Y012586D03*
X005120Y013586D03*
X005120Y014586D03*
X005120Y015586D03*
X005120Y016586D03*
X005120Y017586D03*
D20*
X015064Y016046D02*
X015664Y016046D01*
X015664Y015046D02*
X015064Y015046D01*
X015064Y014046D02*
X015664Y014046D01*
X015664Y013046D02*
X015064Y013046D01*
X015064Y012046D02*
X015664Y012046D01*
X015664Y011046D02*
X015064Y011046D01*
D21*
X016860Y019137D03*
X017836Y019137D03*
D22*
X017833Y019135D03*
X017321Y019257D03*
X016833Y019139D03*
D23*
X016813Y019137D03*
X016561Y019137D03*
X017829Y019137D03*
D24*
X017825Y019137D03*
X016797Y019137D03*
X016565Y019137D03*
D25*
X016569Y019137D03*
X016785Y019137D03*
X017821Y019137D03*
D26*
X017817Y019137D03*
X017368Y019259D03*
X016573Y019137D03*
D27*
X016766Y019137D03*
X017813Y019137D03*
D28*
X017809Y019135D03*
X016758Y019139D03*
D29*
X017805Y019137D03*
D30*
X017801Y019135D03*
X016585Y019139D03*
D31*
X017797Y019137D03*
D32*
X017793Y019137D03*
X016644Y019200D03*
D33*
X016636Y019204D03*
X016632Y019204D03*
X016624Y019196D03*
X016722Y019137D03*
X017789Y019137D03*
D34*
X017785Y019135D03*
X016714Y019139D03*
D35*
X016710Y019139D03*
X016596Y019139D03*
X017781Y019135D03*
D36*
X017777Y019137D03*
X016707Y019137D03*
D37*
X017773Y019137D03*
D38*
X017770Y019137D03*
D39*
X017766Y019137D03*
X016691Y019137D03*
X016604Y019137D03*
D40*
X016687Y019139D03*
X017762Y019135D03*
D41*
X017758Y019135D03*
X016683Y019139D03*
D42*
X017754Y019137D03*
D43*
X017750Y019135D03*
X016679Y019139D03*
D44*
X017746Y019135D03*
D45*
X017742Y019137D03*
D46*
X017738Y019135D03*
D47*
X017734Y019135D03*
D48*
X017730Y019137D03*
D49*
X017726Y019135D03*
X016655Y019139D03*
D50*
X017722Y019137D03*
D51*
X017718Y019135D03*
D52*
X017714Y019137D03*
D53*
X017710Y019135D03*
D54*
X017707Y019137D03*
D55*
X017703Y019135D03*
D56*
X017699Y019137D03*
D57*
X017695Y019135D03*
X017691Y019135D03*
D58*
X017687Y019137D03*
D59*
X017683Y019135D03*
D60*
X017679Y019137D03*
D61*
X017675Y019135D03*
X017671Y019135D03*
D62*
X017667Y019137D03*
D63*
X017663Y019135D03*
D64*
X017659Y019137D03*
X017655Y019137D03*
D65*
X017651Y019135D03*
D66*
X017648Y019137D03*
X017644Y019137D03*
X017376Y019137D03*
D67*
X017380Y019139D03*
X017636Y019135D03*
X017640Y019135D03*
D68*
X017632Y019137D03*
X017388Y019137D03*
X017384Y019137D03*
D69*
X017392Y019139D03*
X017396Y019139D03*
X017624Y019135D03*
X017628Y019135D03*
D70*
X017620Y019137D03*
X017616Y019137D03*
X017407Y019137D03*
X017403Y019137D03*
X017399Y019137D03*
D71*
X017608Y019135D03*
X017612Y019135D03*
D72*
X017604Y019137D03*
D73*
X017600Y019135D03*
X017596Y019135D03*
X017592Y019135D03*
D74*
X017588Y019137D03*
X017585Y019137D03*
D75*
X017581Y019135D03*
X017577Y019135D03*
D76*
X017573Y019137D03*
X017569Y019137D03*
D77*
X017565Y019135D03*
X017561Y019135D03*
D78*
X017557Y019137D03*
X017553Y019137D03*
D79*
X017549Y019137D03*
D80*
X017545Y019139D03*
D81*
X017541Y019139D03*
D82*
X017537Y019139D03*
D83*
X017533Y019139D03*
X017455Y019139D03*
D84*
X017459Y019139D03*
X017462Y019139D03*
X017525Y019139D03*
X017529Y019139D03*
D85*
X017522Y019137D03*
X017466Y019137D03*
D86*
X017470Y019139D03*
X017474Y019139D03*
X017478Y019139D03*
X017482Y019139D03*
X017486Y019139D03*
X017490Y019139D03*
X017494Y019139D03*
X017498Y019139D03*
X017502Y019139D03*
X017506Y019139D03*
X017510Y019139D03*
X017514Y019139D03*
X017518Y019139D03*
D87*
X017451Y019137D03*
D88*
X017447Y019137D03*
D89*
X017443Y019139D03*
D90*
X017439Y019139D03*
D91*
X017293Y018916D03*
X017301Y018904D03*
X017305Y018900D03*
X017372Y018857D03*
X016990Y019137D03*
X016608Y019365D03*
D92*
X016770Y019137D03*
X017372Y019255D03*
D93*
X017281Y018940D03*
X017313Y018889D03*
X017317Y018885D03*
X017321Y018881D03*
X017325Y018877D03*
X017333Y018873D03*
X017336Y018869D03*
X017344Y018865D03*
X017352Y018861D03*
X017360Y018857D03*
X017364Y018857D03*
X017368Y018857D03*
X016994Y019137D03*
X016522Y019137D03*
D94*
X016777Y019139D03*
X017364Y019257D03*
D95*
X017360Y019259D03*
X016781Y019137D03*
D96*
X017329Y018875D03*
X017340Y018867D03*
X017348Y018863D03*
X017356Y018859D03*
D97*
X017356Y019257D03*
D98*
X017352Y019257D03*
X017348Y019257D03*
X016789Y019139D03*
D99*
X016793Y019139D03*
X017344Y019257D03*
D100*
X017340Y019257D03*
D101*
X017336Y019259D03*
X016809Y019137D03*
D102*
X016817Y019139D03*
X017333Y019261D03*
D103*
X017329Y019259D03*
D104*
X017325Y019259D03*
X016825Y019137D03*
X016557Y019137D03*
D105*
X016608Y019017D03*
X016612Y019013D03*
X017317Y019257D03*
D106*
X017313Y019221D03*
X016896Y019139D03*
D107*
X017116Y019137D03*
X017222Y019259D03*
X017313Y019448D03*
D108*
X017285Y018930D03*
X017289Y018922D03*
X017297Y018910D03*
X017309Y018895D03*
D109*
X017309Y019223D03*
X016537Y019137D03*
D110*
X017305Y019223D03*
D111*
X017301Y019227D03*
D112*
X017297Y019229D03*
D113*
X017293Y019231D03*
D114*
X017289Y019235D03*
D115*
X017285Y019233D03*
X017277Y019225D03*
D116*
X017281Y019231D03*
D117*
X017234Y019253D03*
X017277Y018875D03*
D118*
X017277Y018995D03*
X017057Y019137D03*
X016919Y019239D03*
D119*
X016844Y019137D03*
X017270Y019152D03*
X017273Y019152D03*
D120*
X017266Y019152D03*
D121*
X017262Y019150D03*
X016852Y019139D03*
D122*
X017258Y019115D03*
D123*
X017214Y019131D03*
X017226Y019257D03*
X017258Y019336D03*
D124*
X017254Y019115D03*
X017250Y019115D03*
D125*
X017124Y019135D03*
X017218Y019261D03*
X017254Y019339D03*
D126*
X017246Y019115D03*
X017242Y019115D03*
D127*
X017238Y019115D03*
D128*
X017234Y018977D03*
D129*
X017234Y019121D03*
X017025Y019137D03*
X016907Y019050D03*
X016518Y019137D03*
D130*
X017120Y019137D03*
X017230Y018971D03*
D131*
X017230Y019121D03*
X017037Y019137D03*
X016939Y019066D03*
X016931Y019058D03*
X016923Y019054D03*
X016750Y019349D03*
X016746Y019353D03*
X016742Y019357D03*
X016738Y019357D03*
D132*
X017108Y019137D03*
X017112Y019137D03*
X017230Y019255D03*
D133*
X017226Y019123D03*
X016911Y019241D03*
X016907Y019241D03*
D134*
X017222Y019127D03*
D135*
X017218Y019129D03*
X017085Y019137D03*
D136*
X017214Y019261D03*
D137*
X017210Y019263D03*
X017132Y019137D03*
D138*
X017207Y019265D03*
D139*
X017144Y019137D03*
D140*
X017140Y019137D03*
X017136Y019137D03*
D141*
X017128Y019137D03*
D142*
X017104Y019137D03*
D143*
X017100Y019137D03*
D144*
X017096Y019137D03*
X017092Y019137D03*
D145*
X017088Y019137D03*
D146*
X017081Y019137D03*
X017077Y019137D03*
X016636Y018810D03*
D147*
X016514Y019137D03*
X017073Y019137D03*
D148*
X017069Y019137D03*
D149*
X017065Y019137D03*
X017061Y019137D03*
X016935Y019231D03*
D150*
X017053Y019137D03*
D151*
X017049Y019137D03*
X017045Y019137D03*
D152*
X017041Y019137D03*
X016903Y019239D03*
D153*
X017033Y019139D03*
X016919Y019052D03*
X016734Y019359D03*
D154*
X016915Y019050D03*
X017029Y019137D03*
D155*
X017022Y019137D03*
D156*
X017018Y019139D03*
X016903Y019052D03*
D157*
X017014Y019137D03*
D158*
X017010Y019137D03*
D159*
X017006Y019137D03*
D160*
X017002Y019139D03*
D161*
X016998Y019137D03*
D162*
X016986Y019139D03*
X016612Y019371D03*
D163*
X016671Y018908D03*
X016667Y018904D03*
X016982Y019137D03*
D164*
X016978Y019137D03*
D165*
X016974Y019137D03*
X016970Y019137D03*
X016620Y019377D03*
D166*
X016525Y019137D03*
X016966Y019137D03*
D167*
X016962Y019137D03*
D168*
X016959Y019137D03*
X016955Y019137D03*
D169*
X016951Y019137D03*
D170*
X016947Y019137D03*
X016529Y019137D03*
D171*
X016943Y019139D03*
D172*
X016939Y019225D03*
X016931Y019233D03*
X016927Y019237D03*
X016923Y019237D03*
D173*
X016935Y019060D03*
X016927Y019056D03*
D174*
X016915Y019241D03*
D175*
X016911Y019052D03*
X016730Y019359D03*
D176*
X016899Y019137D03*
D177*
X016892Y019137D03*
D178*
X016888Y019137D03*
X016541Y019137D03*
D179*
X016884Y019137D03*
D180*
X016880Y019139D03*
D181*
X016876Y019137D03*
D182*
X016872Y019137D03*
X016746Y019046D03*
X016742Y019042D03*
X016545Y019137D03*
D183*
X016738Y019040D03*
X016750Y019048D03*
X016868Y019139D03*
D184*
X016864Y019139D03*
X016730Y019040D03*
D185*
X016856Y019137D03*
X016549Y019137D03*
D186*
X016848Y019139D03*
D187*
X016840Y019137D03*
X016671Y019263D03*
X016667Y019267D03*
X016553Y019137D03*
D188*
X016616Y019009D03*
X016836Y019139D03*
X016663Y019269D03*
D189*
X016829Y019137D03*
X016620Y019007D03*
D190*
X016821Y019139D03*
D191*
X016805Y019139D03*
D192*
X016801Y019137D03*
D193*
X016773Y019139D03*
D194*
X016762Y019139D03*
X016577Y019139D03*
D195*
X016754Y019137D03*
D196*
X016734Y019038D03*
D197*
X016726Y019040D03*
D198*
X016726Y019359D03*
D199*
X016718Y019137D03*
D200*
X016703Y019139D03*
D201*
X016699Y019139D03*
X016600Y019139D03*
D202*
X016695Y019139D03*
D203*
X016675Y019137D03*
D204*
X016663Y018902D03*
X016616Y019375D03*
D205*
X016659Y018902D03*
D206*
X016659Y019267D03*
D207*
X016651Y018820D03*
X016648Y018816D03*
X016644Y018812D03*
X016640Y018812D03*
D208*
X016651Y019194D03*
X016648Y019198D03*
X016640Y019202D03*
D209*
X016624Y018816D03*
X016628Y018812D03*
X016632Y018808D03*
D210*
X016592Y019139D03*
X016628Y019202D03*
D211*
X016588Y019139D03*
D212*
X016581Y019139D03*
D213*
X016533Y019137D03*
D214*
X008671Y018320D03*
X008415Y018320D03*
X008159Y018320D03*
X007903Y018320D03*
X007648Y018320D03*
D215*
X007766Y019369D03*
X008553Y019373D03*
D216*
X009537Y019373D03*
X006781Y019373D03*
D217*
X007175Y018339D03*
X009144Y018339D03*
D218*
X012677Y015515D03*
X013277Y015515D03*
X013877Y015515D03*
D219*
X013612Y014786D02*
X013632Y014767D01*
X013632Y013841D01*
X013494Y013704D01*
X013494Y011893D01*
X013651Y011735D01*
X013651Y011086D01*
X013671Y011066D01*
X013671Y011046D01*
X013651Y011026D01*
X014183Y011026D01*
X014616Y010692D02*
X014478Y010554D01*
X013533Y010554D01*
X013277Y010298D01*
X013277Y009782D01*
X013789Y010121D02*
X013966Y010298D01*
X014714Y010298D01*
X015364Y010948D01*
X015364Y011046D01*
X016014Y011558D02*
X014695Y011558D01*
X014616Y011479D01*
X014616Y012208D01*
X014537Y012286D01*
X014399Y012286D01*
X014183Y012621D01*
X013750Y012030D02*
X013750Y013586D01*
X013829Y013664D01*
X014203Y013664D01*
X013095Y013588D02*
X013059Y013625D01*
X012687Y013625D01*
X012608Y013546D01*
X012608Y011834D01*
X012648Y011794D01*
X012864Y011794D01*
X013061Y011774D01*
X013002Y012306D02*
X013061Y012365D01*
X013061Y012621D01*
X013750Y012030D02*
X013966Y011814D01*
X014183Y011774D01*
X014616Y011479D02*
X014616Y010692D01*
X015049Y010298D02*
X015777Y010298D01*
X016210Y010731D01*
X016624Y010731D01*
X016628Y010735D01*
X016329Y011243D02*
X016014Y011558D01*
X016329Y011243D02*
X017136Y011243D01*
X017628Y011735D01*
X015049Y010298D02*
X014813Y010062D01*
X014813Y009904D01*
X014695Y009786D01*
X014281Y009786D01*
X014277Y009782D01*
X013651Y011026D02*
X013061Y011026D01*
X011959Y011026D01*
X011407Y010692D02*
X011750Y010349D01*
X011407Y010692D02*
X011407Y012168D01*
X011781Y012542D01*
X011959Y012621D01*
X011860Y012621D01*
X011959Y013369D02*
X011959Y013625D01*
X012352Y013625D01*
X012392Y013586D01*
X012392Y011873D01*
X012352Y011834D01*
X012175Y011834D01*
X011959Y011774D01*
X011959Y013369D02*
X012096Y013389D01*
X011959Y013625D02*
X011959Y013920D01*
X011506Y014314D02*
X012431Y014314D01*
X012510Y014235D01*
X011506Y014314D02*
X011348Y014156D01*
X010679Y014156D01*
X010659Y014176D01*
X008302Y010649D02*
X008333Y010618D01*
X008356Y010580D01*
X008371Y010539D01*
X008376Y010495D01*
X008376Y009924D01*
X008369Y009855D01*
X008349Y009788D01*
X008316Y009727D01*
X008272Y009674D01*
X008218Y009629D01*
X008157Y009597D01*
X008091Y009577D01*
X008022Y009570D01*
X007923Y009570D01*
X007918Y009620D01*
X007904Y009668D01*
X007880Y009712D01*
X007848Y009751D01*
X007809Y009783D01*
X007765Y009806D01*
X007717Y009821D01*
X007667Y009826D01*
X007155Y009826D01*
X007155Y009865D01*
X007148Y009867D01*
X007141Y009871D01*
X007137Y009877D01*
X007136Y009885D01*
X007136Y010318D01*
X007141Y010383D01*
X007158Y010446D01*
X007186Y010505D01*
X007223Y010558D01*
X007269Y010604D01*
X007323Y010642D01*
X007382Y010669D01*
X007445Y010686D01*
X007510Y010692D01*
X008179Y010692D01*
X008223Y010687D01*
X008264Y010672D01*
X008302Y010649D01*
X008330Y010621D02*
X007293Y010621D01*
X007198Y010523D02*
X008373Y010523D01*
X008376Y010424D02*
X007152Y010424D01*
X007136Y010326D02*
X008376Y010326D01*
X008376Y010227D02*
X007136Y010227D01*
X007136Y010129D02*
X008376Y010129D01*
X008376Y010030D02*
X007136Y010030D01*
X007136Y009932D02*
X008376Y009932D01*
X008362Y009833D02*
X007155Y009833D01*
X007861Y009735D02*
X008320Y009735D01*
X008226Y009636D02*
X007913Y009636D01*
X011750Y008310D02*
X012277Y007782D01*
X011781Y005515D02*
X011939Y005357D01*
X015915Y005357D01*
X016293Y005735D01*
X016628Y005735D01*
X016289Y005259D02*
X016226Y005196D01*
X011691Y005196D01*
X011277Y004782D01*
X012277Y003865D02*
X012277Y003782D01*
X012277Y003865D02*
X012770Y004357D01*
X016250Y004357D01*
X016628Y004735D01*
X017088Y004196D02*
X017628Y004735D01*
X017088Y004196D02*
X013651Y004196D01*
X013277Y003822D01*
X013277Y003782D01*
X012864Y003369D02*
X016262Y003369D01*
X016628Y003735D01*
X017088Y003196D02*
X017628Y003735D01*
X017088Y003196D02*
X013648Y003196D01*
X013277Y002826D01*
X013277Y002782D01*
X013770Y002286D02*
X013770Y001617D01*
X014025Y001361D01*
X015640Y001361D01*
X015699Y001302D01*
X017195Y001302D01*
X017628Y001735D01*
X017018Y001125D02*
X017136Y001007D01*
X017018Y001125D02*
X015620Y001125D01*
X015549Y001196D01*
X013691Y001196D01*
X013277Y000782D01*
X014793Y002267D02*
X016096Y002267D01*
X016628Y001735D01*
X014793Y002267D02*
X014277Y002782D01*
X012864Y003369D02*
X012277Y002782D01*
D220*
X013770Y002286D03*
X016289Y005259D03*
X013789Y007306D03*
X012805Y009274D03*
X013789Y010121D03*
X013002Y012306D03*
X012510Y014235D03*
X010659Y014176D03*
X010199Y010928D03*
X014793Y012542D03*
X015935Y018152D03*
X011781Y005515D03*
X017136Y001007D03*
D221*
X011277Y009782D02*
X010673Y010386D01*
X010673Y011747D01*
X010199Y011546D02*
X010199Y010928D01*
X010159Y010967D01*
X010199Y011546D02*
X009998Y011747D01*
X005473Y011747D01*
X013277Y015515D02*
X013356Y015593D01*
D222*
X011750Y010349D02*
X011750Y008310D01*
D223*
X009537Y004613D02*
X009537Y001361D01*
X007569Y001361D02*
X007569Y009908D01*
X005474Y004664D02*
X005600Y004538D01*
X005600Y001361D01*
D224*
X009281Y003999D02*
X009409Y004127D01*
X009533Y004003D01*
X009537Y004613D01*
X009947Y004664D02*
X009409Y004127D01*
X009947Y004664D02*
X010199Y004664D01*
X007569Y009908D02*
X007836Y010176D01*
M02*
